<svg width="388" height="360" viewBox="0 0 388 360" fill="none" xmlns="http://www.w3.org/2000/svg">
<path d="M180 0L335.885 90V270L180 360L24.1154 270V90L180 0Z" fill="#E1EAF2"/>
<path d="M53.6055 168V171" stroke="#9DA7B3" stroke-width="2.921" stroke-linecap="round"/>
<path d="M46.8672 169.625L49.3186 172.149" stroke="#9DA7B3" stroke-width="2.921" stroke-linecap="round"/>
<path d="M44 176.343H47.4663" stroke="#9DA7B3" stroke-width="2.921" stroke-linecap="round"/>
<path d="M46.5859 183.18L49.0374 180.656" stroke="#9DA7B3" stroke-width="2.921" stroke-linecap="round"/>
<path d="M53.6055 184V181" stroke="#9DA7B3" stroke-width="2.921" stroke-linecap="round"/>
<path d="M60.6055 183L58.6055 181" stroke="#9DA7B3" stroke-width="2.921" stroke-linecap="round"/>
<path d="M63.6055 176H60.6055" stroke="#9DA7B3" stroke-width="2.921" stroke-linecap="round"/>
<path d="M60.6055 170L58.6055 172" stroke="#9DA7B3" stroke-width="2.921" stroke-linecap="round"/>
<path d="M214.605 37V39" stroke="#9DA7B3" stroke-width="2.921" stroke-linecap="round"/>
<path d="M208.605 43H210.605" stroke="#9DA7B3" stroke-width="2.921" stroke-linecap="round"/>
<path d="M214.605 49V47" stroke="#9DA7B3" stroke-width="2.921" stroke-linecap="round"/>
<path d="M219.605 43H217.605" stroke="#9DA7B3" stroke-width="2.921" stroke-linecap="round"/>
<path d="M98.6055 121V124" stroke="#9DA7B3" stroke-width="2.921" stroke-linecap="round"/>
<path d="M89.6055 130H92.6055" stroke="#9DA7B3" stroke-width="2.921" stroke-linecap="round"/>
<path d="M98.6055 138V135" stroke="#9DA7B3" stroke-width="2.921" stroke-linecap="round"/>
<path d="M106.605 130H103.605" stroke="#9DA7B3" stroke-width="2.921" stroke-linecap="round"/>
<path d="M313.859 230.039C316.249 230.039 318.187 231.978 318.187 234.368C318.187 236.759 316.249 238.697 313.859 238.697C311.469 238.697 309.531 236.759 309.531 234.368" stroke="#9DA7B3" stroke-width="2.921" stroke-linecap="round"/>
<path fill-rule="evenodd" clip-rule="evenodd" d="M293.666 190.763C296.236 189.962 300.175 186.819 301.087 183.438C301.914 186.427 305.38 189.962 308.508 190.229C304.987 191.476 301.621 195.179 301.087 198.088C300.723 195.123 296.068 191.196 293.666 190.763Z" fill="#EDF4FC"/>
<path fill-rule="evenodd" clip-rule="evenodd" d="M69.877 228.705C71.1623 228.305 73.131 226.734 73.5869 225.043C74.0003 226.537 75.7331 228.305 77.2968 228.439C75.537 229.061 73.8543 230.913 73.5869 232.368C73.4052 230.885 71.0774 228.921 69.877 228.705Z" fill="#EBECEE"/>
<path fill-rule="evenodd" clip-rule="evenodd" d="M93.7294 89.597C93.7294 91.4517 92.2268 92.9539 90.3735 92.9539C88.5194 92.9539 87.0176 91.4517 87.0176 89.597C87.0176 87.7433 88.5194 86.2402 90.3735 86.2402C92.2268 86.2402 93.7294 87.7433 93.7294 89.597Z" fill="#D1D8DF"/>
<path fill-rule="evenodd" clip-rule="evenodd" d="M156.449 291.268C156.449 292.817 155.193 294.073 153.644 294.073C152.095 294.073 150.84 292.817 150.84 291.268C150.84 289.718 152.095 288.462 153.644 288.462C155.193 288.462 156.449 289.718 156.449 291.268Z" stroke="#9DA7B3" stroke-width="2.921" stroke-linecap="round"/>
<path fill-rule="evenodd" clip-rule="evenodd" d="M154.78 68.0316C154.78 69.8862 153.278 71.3884 151.424 71.3884C149.571 71.3884 148.068 69.8862 148.068 68.0316C148.068 66.1779 149.571 64.6748 151.424 64.6748C153.278 64.6748 154.78 66.1779 154.78 68.0316Z" stroke="#9DA7B3" stroke-width="2.921" stroke-linecap="round"/>
<path fill-rule="evenodd" clip-rule="evenodd" d="M240.383 322.336C238.239 323.152 235.839 322.075 235.023 319.93C234.207 317.785 235.283 315.384 237.429 314.569C239.572 313.753 241.972 314.829 242.788 316.974C243.605 319.119 242.527 321.52 240.383 322.336Z" stroke="#9DA7B3" stroke-width="2.921" stroke-linecap="round"/>
<path fill-rule="evenodd" clip-rule="evenodd" d="M231.105 243H149.1C143.328 243 138.604 238.261 138.604 232.47V115.527C138.604 109.736 143.328 105 149.1 105H231.105C236.879 105 241.604 109.736 241.604 115.527V232.47C241.604 238.261 236.879 243 231.105 243Z" fill="#CED3D9"/>
<path fill-rule="evenodd" clip-rule="evenodd" d="M224.105 248H142.1C136.328 248 131.604 243.261 131.604 237.47V120.527C131.604 114.736 136.328 110 142.1 110H224.105C229.879 110 234.604 114.736 234.604 120.527V237.47C234.604 243.261 229.879 248 224.105 248Z" fill="#E8EBF2"/>
<path fill-rule="evenodd" clip-rule="evenodd" d="M217.296 251.947H135.122C129.338 251.947 124.604 247.228 124.604 241.461V125.002C124.604 119.235 129.338 114.519 135.122 114.519H217.296C223.082 114.519 227.816 119.235 227.816 125.002V241.461C227.816 247.228 223.082 251.947 217.296 251.947Z" fill="#D8DBEA"/>
<path fill-rule="evenodd" clip-rule="evenodd" d="M217.296 251.947H135.122C129.338 251.947 124.604 247.228 124.604 241.461V125.002C124.604 119.235 129.338 114.519 135.122 114.519H217.296C223.082 114.519 227.816 119.235 227.816 125.002V241.461C227.816 247.228 223.082 251.947 217.296 251.947Z" fill="#F1F2F7"/>
<path fill-rule="evenodd" clip-rule="evenodd" d="M205.451 150H144.756C143.022 150 141.604 148.65 141.604 147.001C141.604 145.35 143.022 144 144.756 144H205.451C207.185 144 208.604 145.35 208.604 147.001C208.604 148.65 207.185 150 205.451 150Z" fill="#CED3D9"/>
<path fill-rule="evenodd" clip-rule="evenodd" d="M205.451 168H144.756C143.022 168 141.604 166.65 141.604 165.001C141.604 163.35 143.022 162 144.756 162H205.451C207.185 162 208.604 163.35 208.604 165.001C208.604 166.65 207.185 168 205.451 168Z" fill="#CED3D9"/>
<path fill-rule="evenodd" clip-rule="evenodd" d="M205.451 186H144.756C143.022 186 141.604 184.65 141.604 183.001C141.604 181.352 143.022 180 144.756 180H205.451C207.185 180 208.604 181.352 208.604 183.001C208.604 184.65 207.185 186 205.451 186Z" fill="#CED3D9"/>
<path fill-rule="evenodd" clip-rule="evenodd" d="M205.451 204H144.756C143.022 204 141.604 202.65 141.604 201.001C141.604 199.35 143.022 198 144.756 198H205.451C207.185 198 208.604 199.35 208.604 201.001C208.604 202.65 207.185 204 205.451 204Z" fill="#CED3D9"/>
<path fill-rule="evenodd" clip-rule="evenodd" d="M176.438 222H144.769C143.028 222 141.604 220.65 141.604 219.001C141.604 217.35 143.028 216 144.769 216H176.438C178.179 216 179.604 217.35 179.604 219.001C179.604 220.65 178.179 222 176.438 222Z" fill="#CED3D9"/>
<path fill-rule="evenodd" clip-rule="evenodd" d="M240.358 198.737C228.222 210.871 209.433 212.24 195.792 202.872C194.049 201.653 192.389 200.284 190.842 198.737C190.045 197.943 189.295 197.124 188.587 196.261C187.172 194.538 185.933 192.701 184.917 190.803C183.128 187.597 181.912 184.195 181.248 180.679C179.105 169.651 182.309 157.781 190.842 149.252C199.396 140.697 211.268 137.514 222.297 139.636C225.812 140.321 229.217 141.537 232.423 143.305C234.324 144.343 236.136 145.583 237.862 146.997C238.722 147.702 239.542 148.455 240.336 149.252C241.885 150.799 243.275 152.455 244.471 154.201C253.844 167.837 252.472 186.625 240.358 198.737Z" fill="white" fill-opacity="0.1"/>
<path fill-rule="evenodd" clip-rule="evenodd" d="M236.962 196.347C224.336 208.976 203.873 208.973 191.244 196.347C178.632 183.734 178.632 163.27 191.261 150.643C203.873 138.03 224.336 138.03 236.948 150.643C249.575 163.27 249.575 183.734 236.962 196.347ZM243.442 144.156C227.235 127.948 200.972 127.948 184.764 144.156C168.559 160.361 168.545 186.64 184.75 202.848C199.501 217.594 222.621 218.924 238.882 206.816C240.47 205.632 242 204.305 243.459 202.848C244.916 201.389 246.243 199.859 247.425 198.271C259.532 182.007 258.191 158.904 243.442 144.156Z" fill="#CED3D9"/>
<path fill-rule="evenodd" clip-rule="evenodd" d="M307.226 263.942L306.545 264.622C302.044 269.126 294.672 269.126 290.168 264.622L248.604 223.057L265.661 206L307.226 247.565C311.729 252.069 311.729 259.438 307.226 263.942Z" fill="#A4E7E7"/>
<path fill-rule="evenodd" clip-rule="evenodd" d="M248.321 197L260.604 209.283L251.884 218L239.604 205.717C241.224 204.509 242.783 203.154 244.274 201.668C245.76 200.182 247.115 198.621 248.321 197Z" fill="#CED3D9"/>
<path fill-rule="evenodd" clip-rule="evenodd" d="M306.604 247.054L289.655 264L286.604 260.946L303.55 244L306.604 247.054Z" fill="#49CED0"/>
<path fill-rule="evenodd" clip-rule="evenodd" d="M266.604 206.587L249.191 224L246.604 221.413L264.016 204L266.604 206.587Z" fill="#004F83"/>
<path fill-rule="evenodd" clip-rule="evenodd" d="M228.604 146.299L185.9 189C184.292 186.118 183.198 183.059 182.604 179.898L219.501 143C222.66 143.618 225.721 144.709 228.604 146.299Z" fill="white" fill-opacity="0.5"/>
<path fill-rule="evenodd" clip-rule="evenodd" d="M242.604 156.448L196.436 200C194.783 198.912 193.209 197.687 191.742 196.302C190.987 195.59 190.272 194.859 189.604 194.087L236.333 150C237.151 150.633 237.928 151.307 238.681 152.02C240.149 153.404 241.469 154.886 242.604 156.448Z" fill="white" fill-opacity="0.5"/>
</svg>
