<svg width="17" height="16" viewBox="0 0 17 16" fill="none" xmlns="http://www.w3.org/2000/svg">
<path d="M12.0667 10.5C12.0667 11.6556 11.6612 12.6389 10.8501 13.45C10.039 14.2612 9.05562 14.6667 7.90006 14.6667C6.74451 14.6667 5.76118 14.2612 4.95007 13.45C4.13895 12.6389 3.7334 11.6556 3.7334 10.5V4.33337C3.7334 3.50004 4.02507 2.79171 4.6084 2.20837C5.19173 1.62504 5.90006 1.33337 6.7334 1.33337C7.56673 1.33337 8.27506 1.62504 8.8584 2.20837C9.44173 2.79171 9.7334 3.50004 9.7334 4.33337V10.1667C9.7334 10.6778 9.55562 11.1112 9.20006 11.4667C8.84451 11.8223 8.41118 12 7.90006 12C7.38895 12 6.95562 11.8223 6.60006 11.4667C6.24451 11.1112 6.06673 10.6778 6.06673 10.1667V4.00004H7.40006V10.1667C7.40006 10.3112 7.44729 10.4306 7.54173 10.525C7.63618 10.6195 7.75562 10.6667 7.90006 10.6667C8.04451 10.6667 8.16395 10.6195 8.2584 10.525C8.35284 10.4306 8.40006 10.3112 8.40006 10.1667V4.33337C8.38895 3.86671 8.22506 3.47226 7.9084 3.15004C7.59173 2.82782 7.20006 2.66671 6.7334 2.66671C6.26673 2.66671 5.87229 2.82782 5.55007 3.15004C5.22784 3.47226 5.06673 3.86671 5.06673 4.33337V10.5C5.05562 11.2889 5.32784 11.9584 5.8834 12.5084C6.43895 13.0584 7.11118 13.3334 7.90006 13.3334C8.67784 13.3334 9.33895 13.0584 9.8834 12.5084C10.4278 11.9584 10.7112 11.2889 10.7334 10.5V4.00004H12.0667V10.5Z" fill="#6C8093"/>
</svg>
