<svg width="49" height="49" viewBox="0 0 49 49" fill="none" xmlns="http://www.w3.org/2000/svg">
<path d="M23.6518 0.892654C23.9865 0.488907 24.6175 0.488907 24.9522 0.892654L28.3548 4.99696C28.5974 5.28965 29.0138 5.38238 29.3626 5.22141L34.2531 2.96414C34.7342 2.74209 35.3027 3.00921 35.4247 3.51469L36.6654 8.65312C36.7539 9.01956 37.0878 9.27939 37.4736 9.28201L42.8835 9.31886C43.4157 9.32248 43.8091 9.80383 43.6943 10.3109L42.5273 15.4657C42.4441 15.8334 42.6294 16.2088 42.9758 16.3745L47.8336 18.6982C48.3115 18.9268 48.4519 19.527 48.123 19.9353L44.7794 24.0855C44.541 24.3815 44.541 24.7982 44.7794 25.0942L48.123 29.2444C48.4519 29.6527 48.3115 30.2529 47.8336 30.4815L42.9758 32.8052C42.6294 32.9709 42.4441 33.3463 42.5273 33.7139L43.6943 38.8688C43.8091 39.3759 43.4157 39.8572 42.8835 39.8608L37.4736 39.8977C37.0878 39.9003 36.7539 40.1601 36.6654 40.5266L35.4247 45.665C35.3027 46.1705 34.7342 46.4376 34.2531 46.2156L29.3626 43.9583C29.0138 43.7973 28.5974 43.89 28.3548 44.1827L24.9522 48.287C24.6175 48.6908 23.9865 48.6908 23.6518 48.287L20.2492 44.1827C20.0066 43.89 19.5902 43.7973 19.2415 43.9583L14.3509 46.2156C13.8698 46.4376 13.3013 46.1705 13.1793 45.665L11.9386 40.5266C11.8501 40.1601 11.5162 39.9003 11.1304 39.8977L5.72047 39.8608C5.18828 39.8572 4.7949 39.3759 4.9097 38.8688L6.07672 33.7139C6.15995 33.3463 5.97465 32.9709 5.62822 32.8052L0.770386 30.4815C0.292513 30.2529 0.152115 29.6527 0.481025 29.2444L3.82457 25.0942C4.06301 24.7982 4.06301 24.3815 3.82457 24.0855L0.481025 19.9353C0.152115 19.527 0.292513 18.9268 0.770386 18.6982L5.62822 16.3745C5.97465 16.2088 6.15995 15.8334 6.07672 15.4657L4.9097 10.3109C4.7949 9.80383 5.18828 9.32248 5.72047 9.31886L11.1304 9.28201C11.5162 9.27939 11.8501 9.01956 11.9386 8.65312L13.1793 3.51469C13.3013 3.00921 13.8698 2.74209 14.3509 2.96414L19.2415 5.22141C19.5902 5.38238 20.0066 5.28965 20.2492 4.99696L23.6518 0.892654Z" fill="#D71E5B"/>
<path d="M13.1251 28.7729C12.6802 28.7729 12.2353 28.7577 11.7904 28.7272C11.3533 28.7044 10.8966 28.6434 10.4205 28.5444V20.867C10.7952 20.7985 11.205 20.749 11.6499 20.7185C12.0948 20.6804 12.5085 20.6614 12.8909 20.6614C13.4061 20.6614 13.8783 20.6995 14.3076 20.7756C14.7447 20.8442 15.1194 20.966 15.4316 21.1412C15.7438 21.3164 15.9858 21.5487 16.1575 21.8381C16.337 22.1199 16.4268 22.4703 16.4268 22.8892C16.4268 23.5214 16.1146 24.0202 15.4901 24.3858C16.0053 24.5762 16.3566 24.8352 16.5439 25.1627C16.7312 25.4902 16.8249 25.8596 16.8249 26.2709C16.8249 27.1011 16.5127 27.7256 15.8882 28.1446C15.2716 28.5635 14.3506 28.7729 13.1251 28.7729ZM12.2002 25.2198V27.2649C12.3328 27.2801 12.4772 27.2915 12.6334 27.2991C12.7895 27.3067 12.9612 27.3105 13.1485 27.3105C13.6949 27.3105 14.1359 27.2344 14.4715 27.0821C14.8072 26.9297 14.975 26.6479 14.975 26.2366C14.975 25.871 14.8345 25.6121 14.5535 25.4598C14.2725 25.2998 13.8705 25.2198 13.3476 25.2198H12.2002ZM12.2002 23.8603H13.09C13.652 23.8603 14.0539 23.7917 14.2959 23.6547C14.5379 23.5099 14.6589 23.2814 14.6589 22.9692C14.6589 22.6493 14.534 22.4246 14.2842 22.2951C14.0344 22.1656 13.6676 22.1009 13.1836 22.1009C13.0275 22.1009 12.8597 22.1047 12.6802 22.1123C12.5007 22.1123 12.3407 22.1199 12.2002 22.1352V23.8603Z" fill="white"/>
<path d="M18.2869 28.6701V20.7528H23.7664V22.2494H20.1134V23.8032H23.3566V25.2655H20.1134V27.1735H24.0356V28.6701H18.2869Z" fill="white"/>
<path d="M31.4053 20.7528V22.2723H28.9583V28.6701H27.1318V22.2723H24.6848V20.7528H31.4053Z" fill="white"/>
<path d="M37.0513 28.6701C36.9654 28.3959 36.8678 28.1141 36.7586 27.8247C36.6571 27.5352 36.5556 27.2458 36.4542 26.9564H33.293C33.1915 27.2458 33.0861 27.5352 32.9768 27.8247C32.8754 28.1141 32.7817 28.3959 32.6958 28.6701H30.7991C31.1035 27.817 31.3923 27.0287 31.6655 26.3052C31.9387 25.5816 32.2041 24.8999 32.4617 24.2602C32.7271 23.6204 32.9846 23.0149 33.2344 22.4436C33.492 21.8648 33.7574 21.3012 34.0306 20.7528H35.7751C36.0405 21.3012 36.302 21.8648 36.5595 22.4436C36.8171 23.0149 37.0747 23.6204 37.3323 24.2602C37.5977 24.8999 37.8669 25.5816 38.1401 26.3052C38.4133 27.0287 38.7021 27.817 39.0065 28.6701H37.0513ZM34.8619 22.5465C34.8228 22.6607 34.7643 22.8168 34.6862 23.0149C34.6082 23.2129 34.5184 23.4414 34.4169 23.7003C34.3155 23.9593 34.2023 24.2449 34.0774 24.5572C33.9603 24.8695 33.8393 25.197 33.7145 25.5397H36.021C35.8961 25.197 35.7751 24.8695 35.658 24.5572C35.5409 24.2449 35.4277 23.9593 35.3185 23.7003C35.217 23.4414 35.1272 23.2129 35.0492 23.0149C34.9711 22.8168 34.9087 22.6607 34.8619 22.5465Z" fill="white"/>
</svg>
