<svg width="31" height="37" viewBox="0 0 31 37" fill="none" xmlns="http://www.w3.org/2000/svg">
<g opacity="0.5">
<path opacity="0.5" d="M21.0792 7.42311C20.2586 7.42271 19.4716 7.09677 18.8912 6.51685C18.3108 5.93693 17.9843 5.15044 17.9835 4.33011V0.0371094H4.15905C3.62865 0.0371093 3.10345 0.14156 2.61344 0.344507C2.12344 0.547454 1.67823 0.844915 1.30325 1.2199C0.92827 1.59488 0.630856 2.04004 0.428017 2.52994C0.225178 3.01985 0.120897 3.54491 0.121094 4.07512V28.4066C0.120897 28.9368 0.225178 29.4619 0.428017 29.9518C0.630856 30.4417 0.92827 30.8868 1.30325 31.2618C1.67823 31.6368 2.12344 31.9343 2.61344 32.1372C3.10345 32.3402 3.62865 32.4446 4.15905 32.4446H20.7551C21.2855 32.4446 21.8107 32.3402 22.3007 32.1372C22.7907 31.9343 23.2359 31.6368 23.6109 31.2618C23.9859 30.8868 24.2832 30.4417 24.4861 29.9518C24.6889 29.4619 24.7932 28.9368 24.793 28.4066V7.42461L21.0792 7.42311Z" fill="#2B333B"/>
</g>
<path d="M24.7929 7.42311H21.079C20.2584 7.42271 19.4715 7.09677 18.8911 6.51685C18.3106 5.93693 17.9842 5.15044 17.9834 4.33011V0.0371094L24.7929 7.42311Z" fill="#2B333B"/>
<path d="M27.7215 25.6271H8.95871C7.62777 25.6271 6.54883 26.7056 6.54883 28.0361V33.6281C6.54883 34.9585 7.62777 36.0371 8.95871 36.0371H27.7215C29.0525 36.0371 30.1314 34.9585 30.1314 33.6281V28.0361C30.1314 26.7056 29.0525 25.6271 27.7215 25.6271Z" fill="#2B333B"/>
<path d="M11.916 32.0427V33.1347H10.7861V32.0427H11.916Z" fill="white"/>
<path d="M15.8367 31.207C15.9949 31.4042 16.0793 31.6503 16.0752 31.903C16.0831 32.0724 16.0525 32.2414 15.9857 32.3972C15.9189 32.5531 15.8177 32.6918 15.6896 32.803C15.4315 33.019 15.0624 33.1285 14.5822 33.1285H12.4814V28.618H14.5297C14.9888 28.618 15.344 28.718 15.5951 28.918C15.7206 29.021 15.8201 29.152 15.8855 29.3006C15.951 29.4491 15.9805 29.611 15.9717 29.773C15.9812 30.0178 15.9048 30.2582 15.7556 30.4525C15.6128 30.6328 15.4118 30.7579 15.1869 30.8065C15.443 30.8617 15.6724 31.0031 15.8367 31.207ZM13.5738 30.4675H14.2881C14.6672 30.4675 14.8568 30.3055 14.8568 29.9815C14.8568 29.6575 14.6632 29.496 14.2761 29.497H13.5738V30.4675ZM14.9588 31.75C14.9623 31.6789 14.9499 31.6079 14.9224 31.5423C14.8948 31.4766 14.8529 31.4179 14.7998 31.3705C14.6711 31.272 14.5114 31.2231 14.3496 31.2325H13.5769V32.2465H14.3556C14.7578 32.2465 14.9588 32.081 14.9588 31.75Z" fill="white"/>
<path d="M21.7238 28.6556V33.1346H20.6329V30.3371L19.6636 33.1391H18.7182L17.7414 30.3311V33.1391H16.6475V28.6601H17.9814L19.1999 31.7801L20.4003 28.6601L21.7238 28.6556Z" fill="white"/>
<path d="M23.5699 31.5521V33.1347H22.4775V28.6241H24.2451C24.7823 28.6241 25.191 28.7566 25.4711 29.0216C25.6131 29.1612 25.724 29.3291 25.7967 29.5145C25.8693 29.6998 25.9021 29.8983 25.8928 30.0972C25.8975 30.3595 25.8322 30.6184 25.7037 30.8472C25.5738 31.0714 25.3793 31.2512 25.1455 31.3631C24.8647 31.497 24.556 31.5618 24.2451 31.5521H23.5699ZM24.7824 30.0972C24.7824 29.6972 24.5633 29.4972 24.1251 29.4972H23.5699V30.6716H24.1251C24.5633 30.6756 24.7824 30.4842 24.7824 30.0972Z" fill="white"/>
<path d="M15.772 21.9986H9.14564C8.4968 21.9978 7.87475 21.7398 7.41595 21.2812C6.95714 20.8225 6.69904 20.2007 6.69824 19.5521V12.9266C6.69904 12.278 6.95714 11.6562 7.41595 11.1975C7.87475 10.7389 8.4968 10.4809 9.14564 10.4801H15.7735C16.4222 10.4809 17.0441 10.739 17.5027 11.1976C17.9613 11.6563 18.219 12.2781 18.2194 12.9266V19.5521C18.219 20.2008 17.9611 20.8229 17.5022 21.2816C17.0433 21.7403 16.421 21.9982 15.772 21.9986ZM9.14564 11.5616C8.78361 11.562 8.43654 11.7059 8.18054 11.9618C7.92455 12.2177 7.78053 12.5647 7.78013 12.9266V19.5521C7.78053 19.914 7.92455 20.261 8.18054 20.5169C8.43654 20.7728 8.78361 20.9167 9.14564 20.9171H15.7735C16.1353 20.9163 16.482 20.7722 16.7377 20.5163C16.9933 20.2605 17.1371 19.9137 17.1375 19.5521V12.9266C17.1371 12.565 16.9933 12.2182 16.7377 11.9624C16.482 11.7065 16.1353 11.5624 15.7735 11.5616H9.14564Z" fill="#2B333B"/>
<path d="M17.6766 18.2921V19.5521C17.6762 20.0572 17.4753 20.5415 17.118 20.8987C16.7607 21.2558 16.2762 21.4567 15.7709 21.4571H9.14449C8.63893 21.4571 8.15404 21.2564 7.79642 20.8992C7.43879 20.542 7.2377 20.0575 7.2373 19.5521V17.4371C8.29969 17.2091 9.91577 17.1371 11.877 17.9201L13.0924 16.7621L13.9207 18.8621C13.9207 18.8621 14.1428 18.0896 14.8601 18.1991C15.5773 18.3086 16.7387 18.6971 17.2354 18.3656C17.3688 18.2888 17.5255 18.2627 17.6766 18.2921Z" fill="#2B333B"/>
<path d="M15.3569 14.2796C15.7638 14.2796 16.0937 13.9499 16.0937 13.5431C16.0937 13.1364 15.7638 12.8066 15.3569 12.8066C14.95 12.8066 14.6201 13.1364 14.6201 13.5431C14.6201 13.9499 14.95 14.2796 15.3569 14.2796Z" fill="#2B333B"/>
</svg>
