<svg width="31" height="37" viewBox="0 0 31 37" fill="none" xmlns="http://www.w3.org/2000/svg">
<g opacity="0.5">
<path opacity="0.5" d="M21.049 7.42418C20.2287 7.42339 19.4422 7.09726 18.8621 6.51741C18.2821 5.93755 17.9558 5.15133 17.955 4.33129V0.0369876H4.1311C3.60072 0.0367906 3.07549 0.14103 2.58543 0.343786C2.09537 0.546543 1.65009 0.843837 1.27498 1.21866C0.89988 1.59349 0.602324 2.03852 0.399311 2.52833C0.196299 3.01814 0.0917968 3.54312 0.0917969 4.07331V28.4053C0.0917968 28.9355 0.196299 29.4605 0.399311 29.9503C0.602324 30.4401 0.89988 30.8851 1.27498 31.26C1.65009 31.6348 2.09537 31.9321 2.58543 32.1348C3.07549 32.3376 3.60072 32.4418 4.1311 32.4416H20.7264C21.2567 32.4416 21.7817 32.3373 22.2716 32.1344C22.7615 31.9316 23.2066 31.6342 23.5816 31.2594C23.9565 30.8846 24.2539 30.4396 24.4569 29.9499C24.6598 29.4602 24.7642 28.9353 24.7642 28.4053V7.42418H21.049Z" fill="#2B333B"/>
</g>
<path d="M24.7633 7.42418H21.0481C20.2278 7.42339 19.4413 7.09726 18.8612 6.51741C18.2811 5.93755 17.9549 5.15133 17.9541 4.33129V0.0369873L24.7633 7.42418Z" fill="#2B333B"/>
<path d="M19.6879 12.596H4.19692C4.04809 12.596 3.90536 12.5369 3.80012 12.4317C3.69487 12.3265 3.63574 12.1838 3.63574 12.035C3.63555 11.9612 3.64992 11.8881 3.67804 11.8199C3.70615 11.7516 3.74745 11.6896 3.79958 11.6374C3.85171 11.5851 3.91365 11.5437 3.98183 11.5154C4.05002 11.4871 4.1231 11.4725 4.19692 11.4725H19.6879C19.8371 11.4725 19.9803 11.5318 20.0858 11.6373C20.1913 11.7428 20.2506 11.8858 20.2506 12.035C20.2502 12.1839 20.1907 12.3266 20.0853 12.4318C19.9798 12.5369 19.8369 12.596 19.6879 12.596Z" fill="#2B333B"/>
<path d="M19.6879 15.9513H4.19692C4.04809 15.9513 3.90536 15.8922 3.80012 15.787C3.69487 15.6818 3.63574 15.5391 3.63574 15.3904C3.63555 15.3166 3.64992 15.2435 3.67804 15.1752C3.70615 15.107 3.74745 15.045 3.79958 14.9927C3.85171 14.9405 3.91365 14.899 3.98183 14.8707C4.05002 14.8424 4.1231 14.8279 4.19692 14.8279H19.6879C19.8371 14.8279 19.9803 14.8871 20.0858 14.9926C20.1913 15.0981 20.2506 15.2412 20.2506 15.3904C20.2502 15.5393 20.1907 15.6819 20.0853 15.7871C19.9798 15.8923 19.8369 15.9513 19.6879 15.9513Z" fill="#2B333B"/>
<path d="M19.6879 19.3067H4.19692C4.1231 19.3067 4.05002 19.2921 3.98183 19.2638C3.91365 19.2355 3.85171 19.1941 3.79958 19.1419C3.74745 19.0896 3.70615 19.0276 3.67804 18.9593C3.64992 18.8911 3.63555 18.818 3.63574 18.7442C3.63574 18.5954 3.69487 18.4527 3.80012 18.3475C3.90536 18.2423 4.04809 18.1832 4.19692 18.1832H19.6879C19.8369 18.1832 19.9798 18.2423 20.0853 18.3474C20.1907 18.4526 20.2502 18.5953 20.2506 18.7442C20.2506 18.8934 20.1913 19.0364 20.0858 19.1419C19.9803 19.2474 19.8371 19.3067 19.6879 19.3067Z" fill="#2B333B"/>
<path d="M13.5779 22.662H4.19692C4.1231 22.662 4.05002 22.6475 3.98183 22.6192C3.91365 22.5909 3.85171 22.5494 3.79958 22.4972C3.74745 22.4449 3.70615 22.3829 3.67804 22.3147C3.64992 22.2465 3.63555 22.1733 3.63574 22.0995C3.63574 21.9508 3.69487 21.8081 3.80012 21.7028C3.90536 21.5976 4.04809 21.5386 4.19692 21.5386H13.5779C13.7268 21.5386 13.8695 21.5976 13.9748 21.7028C14.08 21.8081 14.1391 21.9508 14.1391 22.0995C14.1393 22.1733 14.125 22.2465 14.0968 22.3147C14.0687 22.3829 14.0274 22.4449 13.9753 22.4972C13.9232 22.5494 13.8612 22.5909 13.793 22.6192C13.7249 22.6475 13.6518 22.662 13.5779 22.662Z" fill="#2B333B"/>
<path d="M27.6933 25.6274H8.93125C7.60037 25.6274 6.52148 26.7059 6.52148 28.0363V33.6281C6.52148 34.9585 7.60037 36.037 8.93125 36.037H27.6933C29.0242 36.037 30.103 34.9585 30.103 33.6281V28.0363C30.103 26.7059 29.0242 25.6274 27.6933 25.6274Z" fill="#2B333B"/>
<path d="M11.5283 32.0426V33.1331H10.3984V32.0426H11.5283Z" fill="white"/>
<path d="M15.8699 32.0457C15.6821 32.3868 15.3983 32.6653 15.0537 32.8467C14.6659 33.0449 14.2347 33.1434 13.7993 33.1332H12.0947V28.6229H13.7993C14.2351 28.6121 14.6668 28.7084 15.0567 28.9034C15.3999 29.0815 15.6828 29.357 15.8699 29.6953C16.0639 30.0554 16.1616 30.4594 16.1535 30.8683C16.1613 31.2786 16.0636 31.6839 15.8699 32.0457ZM14.6966 31.8192C14.8185 31.6941 14.913 31.5449 14.974 31.3811C15.035 31.2174 15.0611 31.0427 15.0507 30.8683C15.0612 30.6941 15.0351 30.5196 14.9741 30.3561C14.9131 30.1926 14.8186 30.0436 14.6966 29.9188C14.4232 29.6792 14.0661 29.5573 13.7033 29.5798H13.1886V32.1567H13.7047C14.0668 32.1785 14.423 32.0573 14.6966 31.8192Z" fill="white"/>
<path d="M20.077 28.8493C20.4203 29.0442 20.704 29.3289 20.8978 29.6727C21.1007 30.0359 21.2043 30.4462 21.1978 30.8622C21.2047 31.2792 21.1012 31.6905 20.8978 32.0546C20.7034 32.3998 20.4186 32.6856 20.074 32.8811C19.7232 33.0813 19.3255 33.1849 18.9216 33.1811C18.5177 33.1846 18.1201 33.0811 17.7693 32.8811C17.4247 32.686 17.1403 32.4001 16.947 32.0546C16.7429 31.6908 16.6393 31.2792 16.6469 30.8622C16.6391 30.4461 16.7427 30.0354 16.947 29.6727C17.1413 29.3288 17.4255 29.0442 17.7693 28.8493C18.1201 28.6492 18.5177 28.5457 18.9216 28.5493C19.3265 28.5455 19.7251 28.649 20.077 28.8493ZM18.0663 29.9142C17.845 30.1789 17.7324 30.5177 17.7512 30.8622C17.7323 31.2053 17.845 31.5427 18.0663 31.8057C18.1742 31.9228 18.3063 32.0149 18.4536 32.0755C18.6008 32.1362 18.7595 32.1638 18.9186 32.1566C19.0772 32.1634 19.2353 32.1355 19.382 32.0749C19.5287 32.0143 19.6604 31.9224 19.7679 31.8057C19.9903 31.5432 20.1041 31.2057 20.086 30.8622C20.104 30.5192 19.9914 30.1821 19.7709 29.9187C19.6631 29.8015 19.531 29.7093 19.3837 29.6487C19.2365 29.588 19.0777 29.5604 18.9186 29.5677C18.76 29.5604 18.6016 29.5877 18.4544 29.6475C18.3073 29.7073 18.1749 29.7983 18.0663 29.9142Z" fill="white"/>
<path d="M25.296 29.0308C25.6766 29.3403 25.9354 29.7744 26.0268 30.2562H24.8714C24.7934 30.0565 24.6569 29.885 24.4797 29.7642C24.293 29.6427 24.0738 29.5805 23.8511 29.5857C23.7039 29.581 23.5577 29.6102 23.4237 29.6711C23.2897 29.732 23.1715 29.8229 23.0783 29.9367C22.8694 30.2039 22.7629 30.5369 22.7782 30.8757C22.7629 31.2131 22.8694 31.5447 23.0783 31.8102C23.1723 31.9229 23.2907 32.0126 23.4246 32.0727C23.5585 32.1327 23.7044 32.1614 23.8511 32.1566C24.0739 32.1626 24.2933 32.1003 24.4797 31.9781C24.6559 31.8595 24.7924 31.6907 24.8714 31.4937H26.0268C25.9339 31.9741 25.6753 32.4068 25.296 32.7161C24.8878 33.0276 24.3836 33.1868 23.8705 33.1661C23.4663 33.1746 23.0672 33.0741 22.7152 32.8751C22.3858 32.6837 22.1185 32.4015 21.9454 32.0621C21.7594 31.69 21.6668 31.2781 21.6754 30.8622C21.6669 30.4462 21.7595 30.0345 21.9454 29.6622C22.1185 29.3229 22.3858 29.0407 22.7152 28.8493C23.0672 28.6503 23.4663 28.5498 23.8705 28.5583C24.3863 28.5446 24.8906 28.7118 25.296 29.0308Z" fill="white"/>
</svg>
