<svg width="31" height="37" viewBox="0 0 31 37" fill="none" xmlns="http://www.w3.org/2000/svg">
<g opacity="0.5">
<path opacity="0.5" d="M21.0363 7.42418C20.216 7.42339 19.4295 7.09726 18.8494 6.51741C18.2694 5.93755 17.9431 5.15133 17.9423 4.33129V0.0369876H4.11841C3.58803 0.0367906 3.0628 0.14103 2.57274 0.343786C2.08268 0.546543 1.63737 0.843837 1.26227 1.21866C0.887167 1.59349 0.58961 2.03852 0.386598 2.52833C0.183586 3.01814 0.0791015 3.54312 0.0791016 4.07331V28.4053C0.0791015 28.9355 0.183586 29.4605 0.386598 29.9503C0.58961 30.4401 0.887167 30.8851 1.26227 31.26C1.63737 31.6348 2.08268 31.9321 2.57274 32.1348C3.0628 32.3376 3.58803 32.4418 4.11841 32.4416H20.7137C21.7846 32.4416 22.8116 32.0164 23.5689 31.2594C24.3261 30.5025 24.7515 29.4758 24.7515 28.4053V7.42418H21.0363Z" fill="#2B333B"/>
</g>
<path d="M24.7506 7.42418H21.0354C20.2151 7.42339 19.4286 7.09726 18.8485 6.51741C18.2684 5.93755 17.9422 5.15133 17.9414 4.33129V0.0369873L24.7506 7.42418Z" fill="#2B333B"/>
<path d="M19.6752 12.596H4.18423C4.03539 12.596 3.89266 12.5369 3.78742 12.4317C3.68218 12.3265 3.62305 12.1838 3.62305 12.035C3.62285 11.9612 3.63723 11.8881 3.66534 11.8199C3.69346 11.7516 3.73476 11.6896 3.78689 11.6374C3.83902 11.5851 3.90094 11.5437 3.96912 11.5154C4.0373 11.4871 4.11041 11.4725 4.18423 11.4725H19.6752C19.8244 11.4725 19.9675 11.5318 20.0731 11.6373C20.1786 11.7428 20.2379 11.8858 20.2379 12.035C20.2375 12.1839 20.178 12.3266 20.0725 12.4318C19.9671 12.5369 19.8242 12.596 19.6752 12.596Z" fill="#2B333B"/>
<path d="M19.6752 15.9513H4.18423C4.03539 15.9513 3.89266 15.8922 3.78742 15.787C3.68218 15.6818 3.62305 15.5391 3.62305 15.3904C3.62285 15.3166 3.63723 15.2435 3.66534 15.1752C3.69346 15.107 3.73476 15.045 3.78689 14.9927C3.83902 14.9405 3.90094 14.899 3.96912 14.8707C4.0373 14.8424 4.11041 14.8279 4.18423 14.8279H19.6752C19.8244 14.8279 19.9675 14.8871 20.0731 14.9926C20.1786 15.0981 20.2379 15.2412 20.2379 15.3904C20.2375 15.5393 20.178 15.6819 20.0725 15.7871C19.9671 15.8923 19.8242 15.9513 19.6752 15.9513Z" fill="#2B333B"/>
<path d="M19.6752 19.3067H4.18423C4.11041 19.3067 4.0373 19.2921 3.96912 19.2638C3.90094 19.2355 3.83902 19.1941 3.78689 19.1419C3.73476 19.0896 3.69346 19.0276 3.66534 18.9593C3.63723 18.8911 3.62285 18.818 3.62305 18.7442C3.62305 18.5954 3.68218 18.4527 3.78742 18.3475C3.89266 18.2423 4.03539 18.1832 4.18423 18.1832H19.6752C19.8242 18.1832 19.9671 18.2423 20.0725 18.3474C20.178 18.4526 20.2375 18.5953 20.2379 18.7442C20.2379 18.8934 20.1786 19.0364 20.0731 19.1419C19.9675 19.2474 19.8244 19.3067 19.6752 19.3067Z" fill="#2B333B"/>
<path d="M13.5622 22.662H4.18423C4.11041 22.662 4.0373 22.6475 3.96912 22.6192C3.90094 22.5909 3.83902 22.5494 3.78689 22.4972C3.73476 22.4449 3.69346 22.3829 3.66534 22.3147C3.63723 22.2465 3.62285 22.1733 3.62305 22.0995C3.62305 21.9508 3.68218 21.8081 3.78742 21.7028C3.89266 21.5976 4.03539 21.5386 4.18423 21.5386H13.5622C13.7111 21.5386 13.8538 21.5976 13.959 21.7028C14.0643 21.8081 14.1234 21.9508 14.1234 22.0995C14.1236 22.1733 14.1092 22.2465 14.0811 22.3147C14.053 22.3829 14.0117 22.4449 13.9596 22.4972C13.9074 22.5494 13.8455 22.5909 13.7773 22.6192C13.7092 22.6475 13.6361 22.662 13.5622 22.662Z" fill="#2B333B"/>
<path d="M27.6806 25.6274H8.91856C7.58768 25.6274 6.50879 26.7059 6.50879 28.0363V33.6281C6.50879 34.9585 7.58768 36.037 8.91856 36.037H27.6806C29.0115 36.037 30.0904 34.9585 30.0904 33.6281V28.0363C30.0904 26.7059 29.0115 25.6274 27.6806 25.6274Z" fill="#2B333B"/>
<path d="M9.25876 32.0426V33.1331H8.12891V32.0426H9.25876Z" fill="white"/>
<path d="M13.6014 32.0457C13.4131 32.3864 13.1294 32.6648 12.7851 32.8467C12.3973 33.0449 11.9662 33.1434 11.5307 33.1331H9.82617V28.6229H11.5307C11.9665 28.6123 12.3982 28.7086 12.7881 28.9033C13.1313 29.0815 13.4143 29.357 13.6014 29.6953C13.7954 30.0553 13.8931 30.4594 13.885 30.8683C13.8927 31.2785 13.7951 31.6839 13.6014 32.0457ZM12.428 31.8192C12.55 31.694 12.6445 31.5448 12.7055 31.3811C12.7664 31.2173 12.7926 31.0427 12.7821 30.8683C12.7926 30.6941 12.7665 30.5196 12.7056 30.3561C12.6446 30.1925 12.55 30.0436 12.428 29.9188C12.1546 29.6792 11.7976 29.5573 11.4347 29.5798H10.9185V32.1567H11.4347C11.7973 32.1789 12.1541 32.0577 12.428 31.8192Z" fill="white"/>
<path d="M17.8079 28.8493C18.1512 29.0442 18.435 29.3289 18.6287 29.6727C18.8317 30.0359 18.9353 30.4462 18.9288 30.8622C18.9364 31.2792 18.8328 31.6908 18.6287 32.0546C18.4354 32.4001 18.151 32.686 17.8064 32.8811C17.4557 33.0813 17.058 33.1849 16.6541 33.1811C16.2501 33.1849 15.8525 33.0813 15.5017 32.8811C15.1572 32.686 14.8727 32.4001 14.6794 32.0546C14.4753 31.6908 14.3717 31.2792 14.3793 30.8622C14.3715 30.4461 14.4751 30.0354 14.6794 29.6727C14.8737 29.3288 15.158 29.0442 15.5017 28.8493C15.8525 28.649 16.2501 28.5455 16.6541 28.5493C17.0584 28.5458 17.4565 28.6493 17.8079 28.8493ZM15.7973 29.9142C15.5759 30.1789 15.4633 30.5177 15.4822 30.8622C15.4633 31.2053 15.576 31.5427 15.7973 31.8057C15.9051 31.9228 16.0373 32.0149 16.1845 32.0755C16.3317 32.1362 16.4905 32.1638 16.6495 32.1566C16.8081 32.1632 16.9662 32.1352 17.1129 32.0746C17.2595 32.014 17.3912 31.9222 17.4988 31.8057C17.7212 31.5432 17.835 31.2057 17.8169 30.8622C17.8349 30.5192 17.7224 30.1821 17.5018 29.9187C17.3941 29.8015 17.2619 29.7093 17.1147 29.6487C16.9674 29.588 16.8086 29.5604 16.6495 29.5677C16.4909 29.5604 16.3325 29.5877 16.1854 29.6475C16.0382 29.7073 15.9058 29.7983 15.7973 29.9142Z" fill="white"/>
<path d="M23.0279 29.0308C23.4085 29.3403 23.6673 29.7744 23.7587 30.2562H22.6033C22.5253 30.0565 22.3888 29.885 22.2117 29.7642C22.0249 29.6427 21.8057 29.5805 21.583 29.5857C21.4358 29.581 21.2896 29.6102 21.1556 29.6711C21.0216 29.732 20.9034 29.8229 20.8102 29.9367C20.6014 30.2039 20.495 30.537 20.5101 30.8757C20.4948 31.2131 20.6014 31.5447 20.8102 31.8102C20.9042 31.9229 21.0226 32.0126 21.1565 32.0727C21.2904 32.1327 21.4363 32.1614 21.583 32.1566C21.8058 32.1626 22.0252 32.1003 22.2117 31.9781C22.3878 31.8595 22.5243 31.6907 22.6033 31.4937H23.7587C23.6658 31.9741 23.4072 32.4068 23.0279 32.7161C22.6198 33.0276 22.1156 33.1868 21.6025 33.1661C21.1982 33.1746 20.7991 33.0741 20.4471 32.8751C20.1177 32.6837 19.8504 32.4015 19.6774 32.0621C19.4909 31.6901 19.3977 31.2783 19.4058 30.8622C19.3977 30.4461 19.491 30.0343 19.6774 29.6622C19.8504 29.3229 20.1177 29.0407 20.4471 28.8493C20.7991 28.6503 21.1982 28.5498 21.6025 28.5583C22.1182 28.5446 22.6225 28.7118 23.0279 29.0308Z" fill="white"/>
<path d="M27.1094 33.1331L26.158 31.7292L25.3418 33.1331H24.0904L25.5339 30.8112L24.0469 28.6228H25.3418L26.2676 29.9817L27.0643 28.6228H28.3097L26.8858 30.8937L28.4043 33.1331H27.1094Z" fill="white"/>
</svg>
