<svg width="400" height="228" viewBox="0 0 400 228" fill="none" xmlns="http://www.w3.org/2000/svg">
<path fill-rule="evenodd" clip-rule="evenodd" d="M85.1852 168.518H253.704C254.657 168.518 255.587 168.415 256.481 168.22C257.376 168.415 258.306 168.518 259.259 168.518H355.556C362.715 168.518 368.519 162.715 368.519 155.555C368.519 148.396 362.715 142.592 355.556 142.592H344.444C337.285 142.592 331.481 136.789 331.481 129.629C331.481 122.47 337.285 116.666 344.444 116.666H379.63C386.789 116.666 392.593 110.863 392.593 103.703C392.593 96.5442 386.789 90.7405 379.63 90.7405H338.889C346.048 90.7405 351.852 84.9368 351.852 77.7776C351.852 70.6183 346.048 64.8146 338.889 64.8146H220.37C227.53 64.8146 233.333 59.0109 233.333 51.8516C233.333 44.6924 227.53 38.8887 220.37 38.8887H114.815C107.656 38.8887 101.852 44.6924 101.852 51.8516C101.852 59.0109 107.656 64.8146 114.815 64.8146H40.7407C33.5815 64.8146 27.7778 70.6183 27.7778 77.7776C27.7778 84.9368 33.5815 90.7405 40.7407 90.7405H87.037C94.1963 90.7405 100 96.5442 100 103.703C100 110.863 94.1963 116.666 87.037 116.666H12.963C5.80372 116.666 0 122.47 0 129.629C0 136.789 5.80372 142.592 12.963 142.592H85.1852C78.0259 142.592 72.2222 148.396 72.2222 155.555C72.2222 162.715 78.0259 168.518 85.1852 168.518ZM387.037 168.519C394.196 168.519 400 162.715 400 155.556C400 148.396 394.196 142.593 387.037 142.593C379.878 142.593 374.074 148.396 374.074 155.556C374.074 162.715 379.878 168.519 387.037 168.519Z" fill="#A4E7E7"/>
<path d="M287.963 3.70215V14.8133" stroke="#A4E7E7" stroke-width="4.62963" stroke-linecap="round" stroke-linejoin="round"/>
<path d="M287.963 29.6279V40.739" stroke="#A4E7E7" stroke-width="4.62963" stroke-linecap="round" stroke-linejoin="round"/>
<path d="M269.444 22.2215H280.555" stroke="#A4E7E7" stroke-width="4.62963" stroke-linecap="round" stroke-linejoin="round"/>
<path d="M295.37 22.2215H306.481" stroke="#A4E7E7" stroke-width="4.62963" stroke-linecap="round" stroke-linejoin="round"/>
<path d="M134.259 194.444V201.852" stroke="#A4E7E7" stroke-width="4.62963" stroke-linecap="round" stroke-linejoin="round"/>
<path d="M134.259 216.667V224.074" stroke="#A4E7E7" stroke-width="4.62963" stroke-linecap="round" stroke-linejoin="round"/>
<path d="M119.444 209.26H126.852" stroke="#A4E7E7" stroke-width="4.62963" stroke-linecap="round" stroke-linejoin="round"/>
<path d="M141.667 209.26H149.074" stroke="#A4E7E7" stroke-width="4.62963" stroke-linecap="round" stroke-linejoin="round"/>
<path fill-rule="evenodd" clip-rule="evenodd" d="M266.132 163.196C268.707 160.042 271.022 156.744 273.076 153.33C277.594 145.822 280.851 137.755 282.841 129.439C284.854 121.028 285.572 112.361 284.989 103.758C284.481 96.2502 282.983 88.7908 280.491 81.5914C278.019 74.4488 274.57 67.5621 270.139 61.1381C267.499 57.3102 264.511 53.6465 261.173 50.191C256.273 45.1177 250.899 40.7804 245.188 37.1819C239.053 33.3154 232.529 30.3018 225.789 28.1443C217.349 25.4423 208.569 24.0832 199.788 24.0733C192.956 24.0656 186.123 24.8748 179.449 26.5038C171.934 28.3377 164.621 31.2108 157.734 35.1274C151.68 38.5703 145.957 42.8196 140.718 47.8782C134.134 54.2352 128.801 61.4013 124.724 69.0706C120.732 76.5791 117.944 84.5699 116.364 92.756C114.736 101.19 114.39 109.831 115.331 118.365C116.551 129.427 119.934 140.31 125.489 150.33C129.044 156.741 133.489 162.8 138.826 168.326C147.299 177.099 157.191 183.671 167.786 188.028C180.67 193.326 194.593 195.35 208.268 194.073C219.744 193.001 231.045 189.605 241.409 183.87" fill="#EDFCFC"/>
<path d="M266.132 163.196C268.707 160.042 271.022 156.744 273.076 153.33C277.594 145.822 280.851 137.755 282.841 129.439C284.854 121.028 285.572 112.361 284.989 103.758C284.481 96.2502 282.983 88.7908 280.491 81.5914C278.019 74.4488 274.57 67.5621 270.139 61.1381C267.499 57.3102 264.511 53.6465 261.173 50.191C256.273 45.1177 250.899 40.7804 245.188 37.1819C239.053 33.3154 232.529 30.3018 225.789 28.1443C217.349 25.4423 208.569 24.0832 199.788 24.0733C192.956 24.0656 186.123 24.8748 179.449 26.5038C171.934 28.3377 164.621 31.2108 157.734 35.1274C151.68 38.5703 145.957 42.8196 140.718 47.8782C134.134 54.2352 128.801 61.4013 124.724 69.0706C120.732 76.5791 117.944 84.5699 116.364 92.756C114.736 101.19 114.39 109.831 115.331 118.365C116.551 129.427 119.934 140.31 125.489 150.33C129.044 156.741 133.489 162.8 138.826 168.326C147.299 177.099 157.191 183.671 167.786 188.028C180.67 193.326 194.593 195.35 208.268 194.073C219.744 193.001 231.045 189.605 241.409 183.87" stroke="#004F83" stroke-width="4.62963" stroke-linecap="round" stroke-linejoin="round"/>
<path fill-rule="evenodd" clip-rule="evenodd" d="M247.595 180.329C252.976 176.866 257.761 172.545 260.874 169.057L247.595 180.329Z" fill="#EDFCFC"/>
<path d="M247.595 180.329C252.976 176.866 257.761 172.545 260.874 169.057" stroke="#004F83" stroke-width="4.62963" stroke-linecap="round"/>
<path d="M277.778 114.106C277.248 114.115 276.718 114.12 276.186 114.12C229.42 114.12 191.128 77.6596 187.919 31.4814C150.695 37.3529 122.223 69.727 122.223 108.784C122.223 152.002 157.085 187.037 200.089 187.037C241.314 187.037 275.056 154.842 277.778 114.106Z" fill="#D2F3F3"/>
<path fill-rule="evenodd" clip-rule="evenodd" d="M170.414 106.246C168.148 104.154 164.634 104.314 162.565 106.605C160.496 108.895 160.655 112.447 162.92 114.539L189.066 138.683C192.238 141.612 197.157 141.387 200.054 138.181C200.176 138.045 200.176 138.045 200.293 137.905L237.605 92.5397C239.567 90.1547 239.245 86.6138 236.885 84.6308C234.526 82.6479 231.023 82.9737 229.062 85.3587L193.982 128.009L170.414 106.246Z" fill="#EDFCFC" stroke="#004F83" stroke-width="4.62963" stroke-linecap="round"/>
<path fill-rule="evenodd" clip-rule="evenodd" d="M173.748 39.6517C170.136 41.0066 166.609 42.653 163.201 44.5915C157.905 47.6038 152.898 51.3217 148.315 55.7477C146.436 57.562 144.674 59.4516 143.028 61.4072M137.935 68.2171C136.627 70.1946 135.422 72.2218 134.323 74.2909C133.51 75.819 132.755 77.37 132.057 78.9406" fill="#EDFCFC"/>
<path d="M174.561 41.8191C175.758 41.37 176.364 40.0356 175.915 38.8387C175.466 37.6417 174.132 37.0354 172.935 37.4844L174.561 41.8191ZM163.201 44.5915L164.345 46.6036L163.201 44.5915ZM148.315 55.7477L146.707 54.0825L148.315 55.7477ZM141.257 59.9167C140.434 60.8949 140.559 62.3551 141.537 63.1783C142.515 64.0015 143.976 63.8758 144.799 62.8976L141.257 59.9167ZM139.866 69.4946C140.571 68.4285 140.279 66.9923 139.213 66.2867C138.147 65.5812 136.71 65.8736 136.005 66.9397L139.866 69.4946ZM134.323 74.2909L136.367 75.3774L136.367 75.3774L134.323 74.2909ZM129.941 78.0001C129.422 79.1683 129.948 80.5363 131.116 81.0557C132.284 81.5751 133.652 81.0492 134.172 79.881L129.941 78.0001ZM172.935 37.4844C169.21 38.8818 165.571 40.5799 162.056 42.5794L164.345 46.6036C167.646 44.726 171.063 43.1314 174.561 41.8191L172.935 37.4844ZM162.056 42.5794C156.593 45.6867 151.43 49.5208 146.707 54.0825L149.923 57.4128C154.365 53.1226 159.216 49.521 164.345 46.6036L162.056 42.5794ZM146.707 54.0825C144.77 55.9523 142.954 57.9002 141.257 59.9167L144.799 62.8976C146.393 61.0029 148.101 59.1716 149.923 57.4128L146.707 54.0825ZM136.005 66.9397C134.655 68.9793 133.413 71.0702 132.279 73.2043L136.367 75.3774C137.432 73.3734 138.598 71.41 139.866 69.4946L136.005 66.9397ZM132.279 73.2043C131.441 74.7805 130.662 76.3802 129.941 78.0001L134.172 79.881C134.848 78.3597 135.58 76.8575 136.367 75.3774L132.279 73.2043Z" fill="#A4E7E7"/>
</svg>
