<svg width="188" height="166" viewBox="0 0 188 166" fill="none" xmlns="http://www.w3.org/2000/svg">
<g opacity="0.5" clip-path="url(#clip0_2178_6929)" filter="url(#filter0_d_2178_6929)">
<path d="M84.5664 60.7388H12.3164V114.035H84.5664V60.7388Z" fill="#FDF1F5"/>
<path d="M84.5664 60.7388H12.3164V67.3856H84.5664V60.7388Z" fill="#F7D2DE"/>
<path d="M18.1153 64.2163C18.1153 65.0553 17.4328 65.7378 16.5938 65.7378C15.7548 65.7378 15.0723 65.0553 15.0723 64.2163C15.0723 63.3773 15.7548 62.6948 16.5938 62.6948C17.4328 62.6948 18.1153 63.3773 18.1153 64.2163Z" fill="#FDF1F5"/>
<path d="M23.2364 64.2163C23.2364 65.0553 22.5539 65.7378 21.7149 65.7378C20.8759 65.7378 20.1934 65.0553 20.1934 64.2163C20.1934 63.3773 20.8759 62.6948 21.7149 62.6948C22.5539 62.6948 23.2364 63.3773 23.2364 64.2163Z" fill="#FDF1F5"/>
<path d="M28.3614 64.2163C28.3614 65.0553 27.6789 65.7378 26.8399 65.7378C26.0009 65.7378 25.3184 65.0553 25.3184 64.2163C25.3184 63.3773 26.0009 62.6948 26.8399 62.6948C27.6789 62.6948 28.3614 63.3773 28.3614 64.2163Z" fill="#FDF1F5"/>
<path d="M60.7737 81.8833L57.1438 78.249L48.4408 86.9521L39.7377 78.249L36.1035 81.8833L44.8065 90.5863L36.1035 99.285L39.7377 102.919L48.4408 94.2162L57.1438 102.919L60.7737 99.285L52.0707 90.5863L60.7737 81.8833Z" fill="#FDF1F5"/>
<path d="M173.258 27.1221H101.008V80.4184H173.258V27.1221Z" fill="#FDF1F5"/>
<path d="M173.258 27.1221H101.008V33.7689H173.258V27.1221Z" fill="#F7D2DE"/>
<path d="M106.807 30.5996C106.807 31.4386 106.124 32.1211 105.285 32.1211C104.446 32.1211 103.764 31.4386 103.764 30.5996C103.764 29.7606 104.446 29.0781 105.285 29.0781C106.124 29.0781 106.807 29.7606 106.807 30.5996Z" fill="#FDF1F5"/>
<path d="M111.932 30.5996C111.932 31.4386 111.249 32.1211 110.41 32.1211C109.571 32.1211 108.889 31.4386 108.889 30.5996C108.889 29.7606 109.571 29.0781 110.41 29.0781C111.249 29.0781 111.932 29.7606 111.932 30.5996Z" fill="#FDF1F5"/>
<path d="M117.053 30.5996C117.053 31.4386 116.37 32.1211 115.531 32.1211C114.692 32.1211 114.01 31.4386 114.01 30.5996C114.01 29.7606 114.692 29.0781 115.531 29.0781C116.37 29.0781 117.053 29.7606 117.053 30.5996Z" fill="#FDF1F5"/>
<path d="M149.471 48.2666L145.837 44.6367L137.134 53.3354L128.431 44.6367L124.801 48.2666L133.504 56.9696L124.801 65.6727L128.431 69.3026L137.134 60.6039L145.837 69.3026L149.471 65.6727L140.768 56.9696L149.471 48.2666Z" fill="#F7D2DE"/>
<path d="M93.5656 157.146C142.344 157.146 181.887 153.728 181.887 149.512C181.887 145.296 142.344 141.878 93.5656 141.878C44.787 141.878 5.24414 145.296 5.24414 149.512C5.24414 153.728 44.787 157.146 93.5656 157.146Z" fill="#E1EAF2"/>
<path d="M72.0245 28.0087C71.3507 26.6002 71.3854 25.2352 72.1288 23.9093L72.4896 23.279C72.8417 22.7052 73.0678 22.2617 73.1678 21.9488C73.2678 21.6401 73.2373 21.3271 73.0895 21.0054C72.707 20.2055 71.8462 20.1229 70.503 20.762C69.8813 21.0576 69.2771 21.4488 68.6945 21.9314C68.112 22.4139 67.5947 22.9486 67.1426 23.5355L65.6211 20.3446C66.6166 19.1579 67.899 18.1885 69.477 17.4364C71.1768 16.6235 72.6939 16.3366 74.0285 16.5756C75.3631 16.8147 76.3282 17.5581 76.9281 18.8188C77.2628 19.523 77.3758 20.1708 77.2672 20.7576C77.1585 21.3445 76.8498 22.0879 76.3456 22.9921C76.0108 23.6094 75.7761 24.0745 75.637 24.3875C75.4979 24.7005 75.4283 25.0092 75.4283 25.3135C75.4283 25.6178 75.5153 25.9525 75.6891 26.309L75.8761 26.7046L72.2288 28.4434L72.0201 28.0087H72.0245ZM74.8197 32.7689C74.2807 32.5776 73.8807 32.2124 73.6242 31.6734C73.3591 31.1213 73.3243 30.5779 73.5199 30.0432C73.7155 29.5085 74.0894 29.1085 74.6415 28.8477C75.1805 28.5912 75.7283 28.5565 76.2804 28.739C76.8368 28.926 77.2411 29.2868 77.4976 29.8258C77.754 30.3649 77.7801 30.9083 77.5758 31.456C77.3715 32.0038 76.9976 32.4037 76.4586 32.6645C75.9065 32.9297 75.3588 32.9645 74.8197 32.7732V32.7689Z" fill="#EFA5BD"/>
<path d="M89.7382 15.8323C90.6468 13.6631 92.2161 12.3329 94.4462 11.8416L95.5156 11.6156C96.5155 11.433 97.2415 11.2461 97.6849 11.0461C98.1326 10.8461 98.4587 10.5027 98.663 10.0115C99.1803 8.77687 98.4065 7.72921 96.3416 6.86412C95.3852 6.46418 94.3419 6.17726 93.216 6.00338C92.0901 5.82949 90.9685 5.78602 89.86 5.87296L91.9162 0.960662C94.2463 0.88676 96.6242 1.35625 99.0499 2.37349C101.667 3.46898 103.51 4.88616 104.579 6.62068C105.653 8.3552 105.784 10.1941 104.971 12.1285C104.514 13.211 103.906 13.9891 103.136 14.4543C102.367 14.9194 101.223 15.3194 99.7063 15.6628C98.6804 15.9062 97.9196 16.1062 97.4284 16.267C96.9372 16.4235 96.5242 16.6539 96.1808 16.9626C95.8373 17.2712 95.5548 17.7016 95.32 18.2537L95.0679 18.8623L89.4557 16.5105L89.7382 15.841V15.8323ZM87.1908 23.7442C86.8648 22.9443 86.8735 22.1314 87.2212 21.3011C87.5777 20.449 88.1515 19.8665 88.9471 19.5492C89.7426 19.2318 90.5642 19.2536 91.4163 19.61C92.2466 19.9578 92.8334 20.536 93.1856 21.3445C93.5333 22.1531 93.5333 22.9704 93.1856 23.8007C92.8378 24.631 92.2553 25.2048 91.4336 25.5222C90.612 25.8395 89.7861 25.8265 88.9601 25.4787C88.1081 25.1222 87.5212 24.5441 87.1952 23.7442H87.1908Z" fill="#EFA5BD"/>
<path d="M180.818 94.0641V91.5688H179.157V94.0641H176.662V95.7247H179.157V98.22H180.818V95.7247H183.313V94.0641H180.818Z" fill="#EFA5BD"/>
<path d="M165.147 14.1758V10.3677H162.617V14.1758H158.809V16.7059H162.617V20.514H165.147V16.7059H168.951V14.1758H165.147Z" fill="#EFA5BD"/>
<path d="M158.248 87.8518V86.0347H157.04V87.8518H155.223V89.0603H157.04V90.8774H158.248V89.0603H160.065V87.8518H158.248Z" fill="#EFA5BD"/>
<path d="M54.5979 24.6311V22.814H53.3894V24.6311H51.5723V25.8396H53.3894V27.6567H54.5979V25.8396H56.4194V24.6311H54.5979Z" fill="#EFA5BD"/>
<path d="M40.5871 12.611V10.1157H38.9308V12.611H36.4355V14.2673H38.9308V16.7669H40.5871V14.2673H43.0824V12.611H40.5871Z" fill="#EFA5BD"/>
<path d="M122.544 17.706C122.544 18.232 122.118 18.6537 121.596 18.6537C121.074 18.6537 120.648 18.2276 120.648 17.706C120.648 17.1843 121.074 16.7583 121.596 16.7583C122.118 16.7583 122.544 17.1843 122.544 17.706Z" fill="#9DA7B3"/>
<path d="M126.431 1.38665C126.431 1.91266 126.005 2.33433 125.483 2.33433C124.961 2.33433 124.535 1.90831 124.535 1.38665C124.535 0.864988 124.961 0.438965 125.483 0.438965C126.005 0.438965 126.431 0.864988 126.431 1.38665Z" fill="#9DA7B3"/>
<path d="M144.975 10.9853C145.967 10.9853 146.77 10.1815 146.77 9.18991C146.77 8.19835 145.967 7.39453 144.975 7.39453C143.984 7.39453 143.18 8.19835 143.18 9.18991C143.18 10.1815 143.984 10.9853 144.975 10.9853Z" fill="#9DA7B3"/>
<path d="M182.835 76.6972C182.835 77.2232 182.409 77.6449 181.887 77.6449C181.365 77.6449 180.939 77.2189 180.939 76.6972C180.939 76.1755 181.365 75.7495 181.887 75.7495C182.409 75.7495 182.835 76.1755 182.835 76.6972Z" fill="#9DA7B3"/>
<path d="M181.888 106.331C181.888 106.857 181.462 107.279 180.94 107.279C180.418 107.279 179.992 106.853 179.992 106.331C179.992 105.81 180.418 105.384 180.94 105.384C181.462 105.384 181.888 105.81 181.888 106.331Z" fill="#9DA7B3"/>
<path d="M37.3836 54.5048C37.3836 55.0308 36.9576 55.4525 36.436 55.4525C35.9143 55.4525 35.4883 55.0265 35.4883 54.5048C35.4883 53.9832 35.9143 53.5571 36.436 53.5571C36.9576 53.5571 37.3836 53.9832 37.3836 54.5048Z" fill="#9DA7B3"/>
<path d="M20.8637 16.9365C21.8553 16.9365 22.6591 16.1326 22.6591 15.1411C22.6591 14.1495 21.8553 13.3457 20.8637 13.3457C19.8722 13.3457 19.0684 14.1495 19.0684 15.1411C19.0684 16.1326 19.8722 16.9365 20.8637 16.9365Z" fill="#9DA7B3"/>
<path d="M56.3055 5.00335C56.3055 5.52935 55.8795 5.95103 55.3578 5.95103C54.8362 5.95103 54.4102 5.52501 54.4102 5.00335C54.4102 4.48169 54.8362 4.05566 55.3578 4.05566C55.8795 4.05566 56.3055 4.48169 56.3055 5.00335Z" fill="#9DA7B3"/>
<path d="M6.19615 61.9208C6.19615 62.4468 5.77012 62.8685 5.24846 62.8685C4.7268 62.8685 4.30078 62.4425 4.30078 61.9208C4.30078 61.3992 4.7268 60.9731 5.24846 60.9731C5.77012 60.9731 6.19615 61.3992 6.19615 61.9208Z" fill="#9DA7B3"/>
<path d="M6.19615 112.496C6.19615 113.022 5.77012 113.444 5.24846 113.444C4.7268 113.444 4.30078 113.018 4.30078 112.496C4.30078 111.974 4.7268 111.548 5.24846 111.548C5.77012 111.548 6.19615 111.974 6.19615 112.496Z" fill="#9DA7B3"/>
<path d="M144.571 141.074C144.571 141.074 128.843 109.631 171.502 88.7646C171.502 88.7646 174.771 133.571 144.571 141.074Z" fill="#D81E5B"/>
<path d="M146.385 137.07C146.376 132.575 147.315 128.111 148.606 123.803C148.771 123.264 148.919 122.72 149.102 122.186L149.68 120.595L150.258 119.004L150.915 117.443C151.758 115.348 152.814 113.352 153.814 111.331L155.514 108.405C156.062 107.418 156.683 106.479 157.318 105.545C157.957 104.614 158.561 103.662 159.226 102.758C159.905 101.858 160.596 100.967 161.287 100.08L162.326 98.7501L163.443 97.4851L165.691 94.9724C166.06 94.5507 166.469 94.1638 166.869 93.7726L168.077 92.5989C168.886 91.8207 169.699 91.0513 170.52 90.2905C169.816 91.1643 169.107 92.0294 168.39 92.8858L167.312 94.1638C166.951 94.5899 166.586 95.0072 166.26 95.4637L164.226 98.1154L163.2 99.4326L162.248 100.802C161.617 101.715 160.978 102.628 160.335 103.528C159.709 104.445 159.144 105.401 158.548 106.332C157.309 108.17 156.288 110.144 155.175 112.057C153.097 115.969 151.262 120.008 149.745 124.172C148.258 128.346 147.011 132.628 146.385 137.062V137.07Z" fill="#EFA5BD"/>
<path opacity="0.1" d="M169.907 88.4517C169.311 99.2631 165.603 128.002 143.232 134.51C144.041 137.775 145.019 139.731 145.019 139.731C175.219 132.223 171.95 87.4214 171.95 87.4214C171.254 87.7605 170.572 88.1082 169.907 88.4517Z" fill="#0046A0"/>
<path d="M140.725 151.194C140.725 151.194 142.963 141.622 152.323 130.019C162.578 117.308 175.954 112.735 181.505 118.843C186.896 124.772 182.314 132.967 168.433 137.153C154.553 141.339 146.706 143.143 140.725 151.194Z" fill="#9DA7B3"/>
<path d="M177.11 122.173C173.932 123.429 170.859 124.885 167.837 126.429C164.825 127.989 161.886 129.68 159.078 131.571C156.261 133.445 153.583 135.519 151.096 137.81C148.618 140.109 146.349 142.639 144.389 145.439C145.18 143.922 146.115 142.483 147.123 141.092C148.166 139.731 149.275 138.405 150.488 137.188C152.896 134.727 155.604 132.571 158.456 130.65C159.895 129.706 161.356 128.807 162.855 127.968C164.364 127.146 165.89 126.359 167.455 125.655C170.572 124.229 173.793 123.025 177.105 122.177L177.11 122.173Z" fill="#3B4F68"/>
<path opacity="0.1" d="M181.505 118.843C181.205 118.512 180.875 118.217 180.532 117.947C176.028 128.976 162.873 136.962 147.332 136.979C142.129 145.213 140.725 151.19 140.725 151.19C146.706 143.139 154.553 141.335 168.433 137.149C182.314 132.962 186.892 124.768 181.505 118.838V118.843Z" fill="#0046A0"/>
<path d="M60.1626 145.817C60.1626 145.817 27.8544 159.68 9.51367 115.878C9.51367 115.878 54.433 115.23 60.1626 145.817Z" fill="#D81E5B"/>
<path d="M57.5794 144.3C53.0931 144.048 48.6894 142.848 44.464 141.305C43.938 141.109 43.3989 140.927 42.8773 140.714L41.3253 140.044L39.7734 139.37L38.2562 138.627C36.2131 137.662 34.2829 136.488 32.3223 135.375L29.501 133.506C28.549 132.902 27.6448 132.224 26.7536 131.541C25.8624 130.85 24.9495 130.189 24.0801 129.472C23.2237 128.741 22.3717 128.002 21.5283 127.259L20.2633 126.146L19.0635 124.959L16.6856 122.569C16.2856 122.177 15.9248 121.747 15.5553 121.321L14.4555 120.047C13.7251 119.195 13.0079 118.334 12.2949 117.474C13.1252 118.23 13.9512 118.986 14.7641 119.752L15.977 120.904C16.3813 121.286 16.7769 121.677 17.2116 122.029L19.7373 124.212L20.9893 125.312L22.2978 126.342C23.1715 127.024 24.0453 127.716 24.9061 128.411C25.7842 129.089 26.7058 129.707 27.6013 130.359C29.3663 131.706 31.2747 132.837 33.1179 134.062C36.8999 136.366 40.8254 138.431 44.8943 140.188C48.972 141.913 53.1757 143.409 57.5663 144.296L57.5794 144.3Z" fill="#EFA5BD"/>
<path opacity="0.1" d="M10.4222 117.978C21.1815 119.208 49.6554 124.585 54.846 147.295C58.1498 146.682 60.1626 145.817 60.1626 145.817C54.433 115.23 9.51367 115.878 9.51367 115.878C9.81363 116.595 10.1179 117.291 10.4222 117.978Z" fill="#0046A0"/>
<path d="M46.878 134.014C46.878 134.014 46.7215 124.181 40.0312 110.861C32.7019 96.2634 20.6037 88.9602 13.883 93.7551C7.3579 98.4066 10.0966 107.383 22.773 114.422C35.4493 121.455 42.7395 124.881 46.878 134.019V134.014Z" fill="#9DA7B3"/>
<path d="M17.4688 97.937C20.3075 99.8367 23.0027 101.915 25.6284 104.062C28.241 106.227 30.758 108.501 33.0968 110.944C35.453 113.369 37.6309 115.965 39.5741 118.73C41.5086 121.503 43.1866 124.455 44.5125 127.611C44.0604 125.963 43.4518 124.355 42.7606 122.781C42.0303 121.229 41.2304 119.699 40.3001 118.251C38.4699 115.334 36.279 112.652 33.9011 110.174C32.6969 108.948 31.4579 107.757 30.1668 106.623C28.867 105.501 27.5411 104.406 26.1631 103.388C23.42 101.332 20.5248 99.4716 17.4688 97.9413V97.937Z" fill="#3B4F68"/>
<path opacity="0.1" d="M13.8787 93.755C14.2438 93.4941 14.6264 93.2768 15.022 93.0898C17.0825 104.823 28.2504 115.417 43.4351 118.729C46.778 127.88 46.878 134.018 46.878 134.018C42.7395 124.881 35.4537 121.455 22.773 114.421C10.0966 107.388 7.3579 98.4108 13.883 93.755H13.8787Z" fill="#0046A0"/>
<path d="M136.365 143.535C136.012 145.861 133.678 147.765 131.17 147.765H57.0548C54.5509 147.765 52.186 145.865 51.8035 143.544L39.5314 69.12C39.1488 66.7986 40.8834 64.8989 43.3917 64.8989H143.698C146.202 64.8989 147.967 66.803 147.615 69.1287L136.369 143.535H136.365Z" fill="#9DA7B3"/>
<path d="M117.768 40.0288H55.3555V127.95H131.674V54.1441L117.768 40.0288Z" fill="#EFA5BD"/>
<path d="M117.768 40.0288L131.778 54.0397H117.768V40.0288Z" fill="#D81E5B"/>
<path d="M114.703 67.8335L108.478 61.6084L93.5671 76.5192L78.6563 61.6084L72.4355 67.8335L87.342 82.74L72.4355 97.6508L78.6563 103.876L93.5671 88.9651L108.478 103.876L114.703 97.6508L99.7923 82.74L114.703 67.8335Z" fill="#D81E5B"/>
<path d="M100.809 90.4343C98.8394 90.4343 96.7571 88.8998 96.1746 87.0175L93.3141 77.745C92.7359 75.8626 90.6493 74.3237 88.68 74.3237H37.8399C35.8706 74.3237 34.5447 75.9104 34.8881 77.8449L47.2993 147.773C47.6427 149.712 49.5338 151.295 51.503 151.295H139.572C141.542 151.295 143.402 149.704 143.711 147.76L152.249 93.886C152.557 91.9428 151.197 90.3561 149.232 90.3561L100.809 90.4256V90.4343Z" fill="#CED3D9"/>
<path d="M88.4227 123.208C88.4227 120.486 89.5051 118.365 91.6656 116.844L92.7046 116.122C93.6914 115.483 94.3783 114.957 94.7652 114.54C95.1521 114.127 95.3477 113.614 95.3477 113.001C95.3477 111.453 94.0522 110.679 91.4657 110.679C90.2659 110.679 89.0226 110.84 87.7445 111.162C86.4664 111.483 85.2492 111.936 84.1016 112.522V106.358C86.5577 105.237 89.3051 104.676 92.3481 104.676C95.6303 104.676 98.2342 105.363 100.151 106.736C102.073 108.11 103.033 110.01 103.033 112.44C103.033 113.8 102.725 114.9 102.112 115.744C101.499 116.583 100.456 117.526 98.9906 118.565C98.0038 119.287 97.2822 119.839 96.8301 120.226C96.378 120.612 96.0345 121.047 95.8085 121.525C95.5824 122.008 95.4694 122.595 95.4694 123.286V124.047H88.4227V123.208ZM89.2443 132.793C88.5357 132.085 88.1836 131.211 88.1836 130.172C88.1836 129.133 88.5357 128.224 89.2443 127.529C89.9485 126.833 90.8397 126.49 91.9047 126.49C92.9698 126.49 93.8349 126.842 94.5652 127.551C95.2999 128.259 95.665 129.133 95.665 130.172C95.665 131.211 95.2955 132.085 94.5652 132.793C93.8305 133.502 92.9437 133.854 91.9047 133.854C90.8658 133.854 89.9485 133.502 89.2443 132.793Z" fill="#FDF1F5"/>
<path opacity="0.1" d="M149.231 90.3647L143.723 90.3734C143.845 91.6428 143.91 92.9209 143.91 94.212C143.91 123.09 113.002 146.504 74.8727 146.504C64.6568 146.504 54.9626 144.822 46.2422 141.809L47.3029 147.782C47.6463 149.721 49.5373 151.303 51.5066 151.303H139.576C141.545 151.303 143.406 149.712 143.714 147.769L152.252 93.8946C152.561 91.9515 151.2 90.3647 149.235 90.3647H149.231Z" fill="#0046A0"/>
<g opacity="0.3">
<path d="M43.4395 84.7047C43.7003 86.4609 43.9612 88.2172 44.2263 89.9691C44.848 94.1467 45.474 98.3244 46.0956 102.502C46.852 107.588 47.6128 112.674 48.3735 117.761C49.0256 122.129 49.6777 126.494 50.3254 130.863C50.5428 132.315 50.7601 133.767 50.9732 135.214C51.0731 135.897 51.134 136.601 51.2818 137.275C51.2862 137.305 51.2905 137.336 51.2948 137.362C51.3861 137.962 52.1382 138.288 52.6686 138.144C53.3076 137.971 53.538 137.371 53.451 136.771C53.1902 135.014 52.9294 133.258 52.6642 131.506C52.0426 127.329 51.4166 123.151 50.7949 118.973C50.0342 113.887 49.2778 108.801 48.517 103.715C47.8649 99.3459 47.2129 94.9814 46.5651 90.6125C46.3478 89.1605 46.1304 87.7086 45.9174 86.261C45.8174 85.5785 45.7565 84.8742 45.6087 84.2004C45.6044 84.17 45.6001 84.1395 45.5957 84.1135C45.5044 83.5135 44.7524 83.1875 44.222 83.331C43.583 83.5049 43.3526 84.1048 43.4395 84.7047Z" fill="#FDF1F5"/>
</g>
<path d="M166.168 45.9888C159.295 45.9888 153.727 51.5618 153.727 58.4304C153.727 61.5038 154.839 64.3121 156.687 66.4813L156.165 72.8891L162.112 70.1938C163.386 70.6329 164.751 70.8763 166.172 70.8763C173.045 70.8763 178.614 65.3032 178.614 58.4347C178.614 51.5662 173.041 45.9931 166.172 45.9931L166.168 45.9888Z" fill="#004F83"/>
<path d="M165.308 64.8031C165.082 64.5771 164.969 64.2945 164.969 63.9598C164.969 63.625 165.082 63.3425 165.308 63.1164C165.534 62.8904 165.816 62.773 166.151 62.773C166.486 62.773 166.768 62.886 167.003 63.1164C167.238 63.3425 167.355 63.625 167.355 63.9598C167.355 64.2945 167.238 64.5771 167.003 64.8031C166.768 65.0292 166.486 65.1465 166.151 65.1465C165.816 65.1465 165.534 65.0335 165.308 64.8031ZM164.604 50.8096H167.738L167.155 60.8298H165.186L164.604 50.8096Z" fill="#FDF1F5"/>
<path opacity="0.1" d="M159.353 65.0249C158.001 65.0249 156.683 64.9075 155.414 64.6815C155.788 65.3205 156.214 65.9204 156.688 66.4812L156.166 72.8889L162.113 70.1937C163.387 70.6327 164.752 70.8762 166.173 70.8762C173.046 70.8762 178.615 65.3031 178.615 58.4346C178.615 56.7696 178.285 55.1829 177.693 53.731C175.202 60.2865 167.938 65.0292 159.357 65.0292L159.353 65.0249Z" fill="#0046A0"/>
<path d="M38.6827 42.6241V30.8259C38.6827 29.4087 37.522 28.248 36.1048 28.248H14.5994C13.1822 28.248 12.0215 29.4087 12.0215 30.8259V45.6932C12.0215 47.1104 13.1822 48.2711 14.5994 48.2711H44.8861L38.6827 42.6241Z" fill="#FAB365"/>
<path d="M21.759 36.6032C21.759 37.7334 21.1026 38.6507 20.2897 38.6507C19.4767 38.6507 18.8203 37.7334 18.8203 36.6032C18.8203 35.4729 19.4767 34.5557 20.2897 34.5557C21.1026 34.5557 21.759 35.4729 21.759 36.6032Z" fill="#FDF1F5"/>
<path d="M31.5227 36.6032C31.5227 37.7334 30.8663 38.6507 30.0533 38.6507C29.2404 38.6507 28.584 37.7334 28.584 36.6032C28.584 35.4729 29.2404 34.5557 30.0533 34.5557C30.8663 34.5557 31.5227 35.4729 31.5227 36.6032Z" fill="#FDF1F5"/>
<path d="M21.8068 42.3329C22.311 41.7808 23.0109 41.3461 23.7065 41.0983C25.4714 40.4636 27.1755 41.1287 28.5188 42.3329C28.8796 42.6546 29.41 42.1242 29.0491 41.8025C27.5581 40.4636 25.6279 39.6768 23.6456 40.3245C22.7762 40.607 21.8937 41.12 21.2721 41.8025C20.946 42.159 21.4764 42.6937 21.8024 42.3329H21.8068Z" fill="#FDF1F5"/>
<path opacity="0.1" d="M38.6824 42.6241V30.8259C38.6824 29.4087 37.5217 28.248 36.1046 28.248H33.9006C34.2831 29.6478 34.4874 31.1041 34.4874 32.5952C34.4874 38.8638 30.9271 44.476 25.3105 48.2711H44.8859L38.6824 42.6241Z" fill="#0046A0"/>
<path d="M112.997 108.705C106.103 115.6 106.103 126.785 112.997 133.68C119.892 140.574 131.077 140.574 137.972 133.68C144.866 126.785 144.866 115.6 137.972 108.705C131.077 101.811 119.892 101.811 112.997 108.705ZM135.946 131.654C130.168 137.431 120.8 137.431 115.019 131.654C109.241 125.876 109.241 116.508 115.019 110.727C120.796 104.949 130.164 104.949 135.946 110.727C141.723 116.504 141.723 125.872 135.946 131.654Z" fill="#D81E5B"/>
<path opacity="0.3" d="M125.481 135.992C133.654 135.992 140.279 129.367 140.279 121.195C140.279 113.022 133.654 106.397 125.481 106.397C117.309 106.397 110.684 113.022 110.684 121.195C110.684 129.367 117.309 135.992 125.481 135.992Z" fill="#FDF1F5"/>
<path d="M137.494 130.988L135.281 133.202L155.305 153.225L157.518 151.012L137.494 130.988Z" fill="#D81E5B"/>
<path d="M137.493 130.994L135.279 133.207L142.654 140.581L144.867 138.368L137.493 130.994Z" fill="#D81E5B"/>
<path d="M116.865 115.109C117.426 113.487 118.656 112.179 120.139 111.27C121.63 110.366 123.395 109.883 125.164 109.883C126.933 109.879 128.703 110.362 130.194 111.266C131.676 112.174 132.906 113.487 133.463 115.109C131.846 114.561 130.476 114.131 129.116 113.865C127.768 113.591 126.468 113.465 125.164 113.461C123.86 113.461 122.556 113.587 121.208 113.861C119.847 114.126 118.478 114.561 116.865 115.109Z" fill="#FDF1F5"/>
</g>
<defs>
<filter id="filter0_d_2178_6929" x="0" y="0" width="188" height="165.585" filterUnits="userSpaceOnUse" color-interpolation-filters="sRGB">
<feFlood flood-opacity="0" result="BackgroundImageFix"/>
<feColorMatrix in="SourceAlpha" type="matrix" values="0 0 0 0 0 0 0 0 0 0 0 0 0 0 0 0 0 0 127 0" result="hardAlpha"/>
<feOffset dy="4"/>
<feGaussianBlur stdDeviation="2"/>
<feComposite in2="hardAlpha" operator="out"/>
<feColorMatrix type="matrix" values="0 0 0 0 0 0 0 0 0 0 0 0 0 0 0 0 0 0 0.25 0"/>
<feBlend mode="normal" in2="BackgroundImageFix" result="effect1_dropShadow_2178_6929"/>
<feBlend mode="normal" in="SourceGraphic" in2="effect1_dropShadow_2178_6929" result="shape"/>
</filter>
<clipPath id="clip0_2178_6929">
<rect width="180" height="157.585" fill="white" transform="translate(4)"/>
</clipPath>
</defs>
</svg>
