<svg width="180" height="158" viewBox="0 0 180 158" fill="none" xmlns="http://www.w3.org/2000/svg">
<g opacity="0.5" clip-path="url(#clip0_2178_7311)">
<path d="M80.5664 60.7388H8.31641V114.035H80.5664V60.7388Z" fill="#EDF4FC"/>
<path d="M80.5664 60.7388H8.31641V67.3856H80.5664V60.7388Z" fill="#CED3D9"/>
<path d="M14.1153 64.2163C14.1153 65.0553 13.4328 65.7378 12.5938 65.7378C11.7548 65.7378 11.0723 65.0553 11.0723 64.2163C11.0723 63.3773 11.7548 62.6948 12.5938 62.6948C13.4328 62.6948 14.1153 63.3773 14.1153 64.2163Z" fill="#EDF4FC"/>
<path d="M19.2364 64.2163C19.2364 65.0553 18.5539 65.7378 17.7149 65.7378C16.8759 65.7378 16.1934 65.0553 16.1934 64.2163C16.1934 63.3773 16.8759 62.6948 17.7149 62.6948C18.5539 62.6948 19.2364 63.3773 19.2364 64.2163Z" fill="#EDF4FC"/>
<path d="M24.3614 64.2163C24.3614 65.0553 23.6789 65.7378 22.8399 65.7378C22.0009 65.7378 21.3184 65.0553 21.3184 64.2163C21.3184 63.3773 22.0009 62.6948 22.8399 62.6948C23.6789 62.6948 24.3614 63.3773 24.3614 64.2163Z" fill="#EDF4FC"/>
<path d="M169.258 27.1221H97.0078V80.4184H169.258V27.1221Z" fill="#EDF4FC"/>
<path d="M169.258 27.1221H97.0078V33.7689H169.258V27.1221Z" fill="#CED3D9"/>
<path d="M102.807 30.5996C102.807 31.4386 102.124 32.1211 101.285 32.1211C100.446 32.1211 99.7637 31.4386 99.7637 30.5996C99.7637 29.7606 100.446 29.0781 101.285 29.0781C102.124 29.0781 102.807 29.7606 102.807 30.5996Z" fill="#EDF4FC"/>
<path d="M107.932 30.5996C107.932 31.4386 107.249 32.1211 106.41 32.1211C105.571 32.1211 104.889 31.4386 104.889 30.5996C104.889 29.7606 105.571 29.0781 106.41 29.0781C107.249 29.0781 107.932 29.7606 107.932 30.5996Z" fill="#EDF4FC"/>
<path d="M113.053 30.5996C113.053 31.4386 112.37 32.1211 111.531 32.1211C110.692 32.1211 110.01 31.4386 110.01 30.5996C110.01 29.7606 110.692 29.0781 111.531 29.0781C112.37 29.0781 113.053 29.7606 113.053 30.5996Z" fill="#EDF4FC"/>
<path d="M145.471 48.2666L141.837 44.6367L133.134 53.3354L124.431 44.6367L120.801 48.2666L129.504 56.9696L120.801 65.6727L124.431 69.3026L133.134 60.6039L141.837 69.3026L145.471 65.6727L136.768 56.9696L145.471 48.2666Z" fill="#CED3D9"/>
<path d="M89.5656 157.146C138.344 157.146 177.887 153.728 177.887 149.512C177.887 145.296 138.344 141.878 89.5656 141.878C40.787 141.878 1.24414 145.296 1.24414 149.512C1.24414 153.728 40.787 157.146 89.5656 157.146Z" fill="#E1EAF2"/>
<path d="M68.0245 28.0087C67.3507 26.6002 67.3854 25.2352 68.1288 23.9093L68.4896 23.279C68.8417 22.7052 69.0678 22.2617 69.1678 21.9488C69.2678 21.6401 69.2373 21.3271 69.0895 21.0054C68.707 20.2055 67.8462 20.1229 66.503 20.762C65.8813 21.0576 65.2771 21.4488 64.6945 21.9314C64.112 22.4139 63.5947 22.9486 63.1426 23.5355L61.6211 20.3446C62.6166 19.1579 63.899 18.1885 65.477 17.4364C67.1768 16.6235 68.6939 16.3366 70.0285 16.5756C71.3631 16.8147 72.3282 17.5581 72.9281 18.8188C73.2628 19.523 73.3758 20.1708 73.2672 20.7576C73.1585 21.3445 72.8498 22.0879 72.3456 22.9921C72.0108 23.6094 71.7761 24.0745 71.637 24.3875C71.4979 24.7005 71.4283 25.0092 71.4283 25.3135C71.4283 25.6178 71.5153 25.9525 71.6891 26.309L71.8761 26.7046L68.2288 28.4434L68.0201 28.0087H68.0245ZM70.8197 32.7689C70.2807 32.5776 69.8807 32.2124 69.6242 31.6734C69.3591 31.1213 69.3243 30.5779 69.5199 30.0432C69.7155 29.5085 70.0894 29.1085 70.6415 28.8477C71.1805 28.5912 71.7283 28.5565 72.2804 28.739C72.8368 28.926 73.2411 29.2868 73.4976 29.8258C73.754 30.3649 73.7801 30.9083 73.5758 31.456C73.3715 32.0038 72.9976 32.4037 72.4586 32.6645C71.9065 32.9297 71.3588 32.9645 70.8197 32.7732V32.7689Z" fill="#9DA7B3"/>
<path d="M85.7382 15.8323C86.6468 13.6631 88.2161 12.3329 90.4462 11.8416L91.5156 11.6156C92.5155 11.433 93.2415 11.2461 93.6849 11.0461C94.1326 10.8461 94.4587 10.5027 94.663 10.0115C95.1803 8.77687 94.4065 7.72921 92.3416 6.86412C91.3852 6.46418 90.3419 6.17726 89.216 6.00338C88.0901 5.82949 86.9685 5.78602 85.86 5.87296L87.9162 0.960662C90.2463 0.88676 92.6242 1.35625 95.0499 2.37349C97.6669 3.46898 99.5101 4.88616 100.579 6.62068C101.653 8.3552 101.784 10.1941 100.971 12.1285C100.514 13.211 99.9057 13.9891 99.1362 14.4543C98.3668 14.9194 97.2235 15.3194 95.7063 15.6628C94.6804 15.9062 93.9196 16.1062 93.4284 16.267C92.9372 16.4235 92.5242 16.6539 92.1808 16.9626C91.8373 17.2712 91.5548 17.7016 91.32 18.2537L91.0679 18.8623L85.4557 16.5105L85.7382 15.841V15.8323ZM83.1908 23.7442C82.8648 22.9443 82.8735 22.1314 83.2212 21.3011C83.5777 20.449 84.1515 19.8665 84.9471 19.5492C85.7426 19.2318 86.5642 19.2536 87.4163 19.61C88.2466 19.9578 88.8334 20.536 89.1856 21.3445C89.5333 22.1531 89.5333 22.9704 89.1856 23.8007C88.8378 24.631 88.2553 25.2048 87.4336 25.5222C86.612 25.8395 85.7861 25.8265 84.9601 25.4787C84.1081 25.1222 83.5212 24.5441 83.1952 23.7442H83.1908Z" fill="#9DA7B3"/>
<path d="M176.818 94.0641V91.5688H175.157V94.0641H172.662V95.7247H175.157V98.22H176.818V95.7247H179.313V94.0641H176.818Z" fill="#9DA7B3"/>
<path d="M161.147 14.1758V10.3677H158.617V14.1758H154.809V16.7059H158.617V20.514H161.147V16.7059H164.951V14.1758H161.147Z" fill="#9DA7B3"/>
<path d="M154.248 87.8518V86.0347H153.04V87.8518H151.223V89.0603H153.04V90.8774H154.248V89.0603H156.065V87.8518H154.248Z" fill="#9DA7B3"/>
<path d="M50.5979 24.6311V22.814H49.3894V24.6311H47.5723V25.8396H49.3894V27.6567H50.5979V25.8396H52.4194V24.6311H50.5979Z" fill="#9DA7B3"/>
<path d="M36.5871 12.611V10.1157H34.9308V12.611H32.4355V14.2673H34.9308V16.7669H36.5871V14.2673H39.0824V12.611H36.5871Z" fill="#9DA7B3"/>
<path d="M118.544 17.706C118.544 18.232 118.118 18.6537 117.596 18.6537C117.074 18.6537 116.648 18.2276 116.648 17.706C116.648 17.1843 117.074 16.7583 117.596 16.7583C118.118 16.7583 118.544 17.1843 118.544 17.706Z" fill="#9DA7B3"/>
<path d="M122.431 1.38665C122.431 1.91266 122.005 2.33433 121.483 2.33433C120.961 2.33433 120.535 1.90831 120.535 1.38665C120.535 0.864988 120.961 0.438965 121.483 0.438965C122.005 0.438965 122.431 0.864988 122.431 1.38665Z" fill="#9DA7B3"/>
<path d="M140.975 10.9853C141.967 10.9853 142.77 10.1815 142.77 9.18991C142.77 8.19835 141.967 7.39453 140.975 7.39453C139.984 7.39453 139.18 8.19835 139.18 9.18991C139.18 10.1815 139.984 10.9853 140.975 10.9853Z" fill="#9DA7B3"/>
<path d="M178.835 76.6972C178.835 77.2232 178.409 77.6449 177.887 77.6449C177.365 77.6449 176.939 77.2189 176.939 76.6972C176.939 76.1755 177.365 75.7495 177.887 75.7495C178.409 75.7495 178.835 76.1755 178.835 76.6972Z" fill="#9DA7B3"/>
<path d="M177.888 106.331C177.888 106.857 177.462 107.279 176.94 107.279C176.418 107.279 175.992 106.853 175.992 106.331C175.992 105.81 176.418 105.384 176.94 105.384C177.462 105.384 177.888 105.81 177.888 106.331Z" fill="#9DA7B3"/>
<path d="M33.3836 54.5048C33.3836 55.0308 32.9576 55.4525 32.436 55.4525C31.9143 55.4525 31.4883 55.0265 31.4883 54.5048C31.4883 53.9832 31.9143 53.5571 32.436 53.5571C32.9576 53.5571 33.3836 53.9832 33.3836 54.5048Z" fill="#9DA7B3"/>
<path d="M16.8637 16.9365C17.8553 16.9365 18.6591 16.1326 18.6591 15.1411C18.6591 14.1495 17.8553 13.3457 16.8637 13.3457C15.8722 13.3457 15.0684 14.1495 15.0684 15.1411C15.0684 16.1326 15.8722 16.9365 16.8637 16.9365Z" fill="#9DA7B3"/>
<path d="M52.3055 5.00335C52.3055 5.52935 51.8795 5.95103 51.3578 5.95103C50.8362 5.95103 50.4102 5.52501 50.4102 5.00335C50.4102 4.48169 50.8362 4.05566 51.3578 4.05566C51.8795 4.05566 52.3055 4.48169 52.3055 5.00335Z" fill="#9DA7B3"/>
<path d="M2.19615 61.9208C2.19615 62.4468 1.77012 62.8685 1.24846 62.8685C0.726804 62.8685 0.300781 62.4425 0.300781 61.9208C0.300781 61.3992 0.726804 60.9731 1.24846 60.9731C1.77012 60.9731 2.19615 61.3992 2.19615 61.9208Z" fill="#9DA7B3"/>
<path d="M2.19615 112.496C2.19615 113.022 1.77012 113.444 1.24846 113.444C0.726804 113.444 0.300781 113.018 0.300781 112.496C0.300781 111.974 0.726804 111.548 1.24846 111.548C1.77012 111.548 2.19615 111.974 2.19615 112.496Z" fill="#9DA7B3"/>
<path d="M140.571 141.074C140.571 141.074 124.843 109.631 167.502 88.7646C167.502 88.7646 170.771 133.571 140.571 141.074Z" fill="#0A2342"/>
<path d="M142.385 137.07C142.376 132.575 143.315 128.111 144.606 123.803C144.771 123.264 144.919 122.72 145.102 122.186L145.68 120.595L146.258 119.004L146.915 117.443C147.758 115.348 148.814 113.352 149.814 111.331L151.514 108.405C152.062 107.418 152.683 106.479 153.318 105.545C153.957 104.614 154.561 103.662 155.226 102.758C155.905 101.858 156.596 100.967 157.287 100.08L158.326 98.7501L159.443 97.4851L161.691 94.9724C162.06 94.5507 162.469 94.1638 162.869 93.7726L164.077 92.5989C164.886 91.8207 165.699 91.0513 166.52 90.2905C165.816 91.1643 165.107 92.0294 164.39 92.8858L163.312 94.1638C162.951 94.5899 162.586 95.0072 162.26 95.4637L160.226 98.1154L159.2 99.4326L158.248 100.802C157.617 101.715 156.978 102.628 156.335 103.528C155.709 104.445 155.144 105.401 154.548 106.332C153.309 108.17 152.288 110.144 151.175 112.057C149.097 115.969 147.262 120.008 145.745 124.172C144.258 128.346 143.011 132.628 142.385 137.062V137.07Z" fill="#9DA7B3"/>
<path opacity="0.1" d="M165.907 88.4517C165.311 99.2631 161.603 128.002 139.232 134.51C140.041 137.775 141.019 139.731 141.019 139.731C171.219 132.223 167.95 87.4214 167.95 87.4214C167.254 87.7605 166.572 88.1082 165.907 88.4517Z" fill="#0046A0"/>
<path d="M136.725 151.194C136.725 151.194 138.963 141.622 148.323 130.019C158.578 117.308 171.954 112.735 177.505 118.843C182.896 124.772 178.314 132.967 164.433 137.153C150.553 141.339 142.706 143.143 136.725 151.194Z" fill="#9DA7B3"/>
<path d="M173.11 122.173C169.932 123.429 166.859 124.885 163.837 126.429C160.825 127.989 157.886 129.68 155.078 131.571C152.261 133.445 149.583 135.519 147.096 137.81C144.618 140.109 142.349 142.639 140.389 145.439C141.18 143.922 142.115 142.483 143.123 141.092C144.166 139.731 145.275 138.405 146.488 137.188C148.896 134.727 151.604 132.571 154.456 130.65C155.895 129.706 157.356 128.807 158.855 127.968C160.364 127.146 161.89 126.359 163.455 125.655C166.572 124.229 169.793 123.025 173.105 122.177L173.11 122.173Z" fill="#3B4F68"/>
<path opacity="0.1" d="M177.505 118.843C177.205 118.512 176.875 118.217 176.532 117.947C172.028 128.976 158.873 136.962 143.332 136.979C138.129 145.213 136.725 151.19 136.725 151.19C142.706 143.139 150.553 141.335 164.433 137.149C178.314 132.962 182.892 124.768 177.505 118.838V118.843Z" fill="#0046A0"/>
<path d="M56.1626 145.817C56.1626 145.817 23.8544 159.68 5.51367 115.878C5.51367 115.878 50.433 115.23 56.1626 145.817Z" fill="#0A2342"/>
<path d="M53.5794 144.3C49.0931 144.048 44.6894 142.848 40.464 141.305C39.938 141.109 39.3989 140.927 38.8773 140.714L37.3253 140.044L35.7734 139.37L34.2562 138.627C32.2131 137.662 30.2829 136.488 28.3223 135.375L25.501 133.506C24.549 132.902 23.6448 132.224 22.7536 131.541C21.8624 130.85 20.9495 130.189 20.0801 129.472C19.2237 128.741 18.3717 128.002 17.5283 127.259L16.2633 126.146L15.0635 124.959L12.6856 122.569C12.2856 122.177 11.9248 121.747 11.5553 121.321L10.4555 120.047C9.72514 119.195 9.00786 118.334 8.29492 117.474C9.12523 118.23 9.9512 118.986 10.7641 119.752L11.977 120.904C12.3813 121.286 12.7769 121.677 13.2116 122.029L15.7373 124.212L16.9893 125.312L18.2978 126.342C19.1715 127.024 20.0453 127.716 20.9061 128.411C21.7842 129.089 22.7058 129.707 23.6013 130.359C25.3663 131.706 27.2747 132.837 29.1179 134.062C32.8999 136.366 36.8254 138.431 40.8943 140.188C44.972 141.913 49.1757 143.409 53.5663 144.296L53.5794 144.3Z" fill="#9DA7B3"/>
<path opacity="0.1" d="M6.42223 117.978C17.1815 119.208 45.6554 124.585 50.846 147.295C54.1498 146.682 56.1626 145.817 56.1626 145.817C50.433 115.23 5.51367 115.878 5.51367 115.878C5.81363 116.595 6.11793 117.291 6.42223 117.978Z" fill="#0046A0"/>
<path d="M42.878 134.014C42.878 134.014 42.7215 124.181 36.0312 110.861C28.7019 96.2634 16.6037 88.9602 9.883 93.7551C3.3579 98.4066 6.09661 107.383 18.773 114.422C31.4493 121.455 38.7395 124.881 42.878 134.019V134.014Z" fill="#9DA7B3"/>
<path d="M13.4688 97.937C16.3075 99.8367 19.0027 101.915 21.6284 104.062C24.241 106.227 26.758 108.501 29.0968 110.944C31.453 113.369 33.6309 115.965 35.5741 118.73C37.5086 121.503 39.1866 124.455 40.5125 127.611C40.0604 125.963 39.4518 124.355 38.7606 122.781C38.0303 121.229 37.2304 119.699 36.3001 118.251C34.4699 115.334 32.279 112.652 29.9011 110.174C28.6969 108.948 27.4579 107.757 26.1668 106.623C24.867 105.501 23.5411 104.406 22.1631 103.388C19.42 101.332 16.5248 99.4716 13.4688 97.9413V97.937Z" fill="#3B4F68"/>
<path opacity="0.1" d="M9.87865 93.755C10.2438 93.4941 10.6264 93.2768 11.022 93.0898C13.0825 104.823 24.2504 115.417 39.4351 118.729C42.778 127.88 42.878 134.018 42.878 134.018C38.7395 124.881 31.4537 121.455 18.773 114.421C6.09661 107.388 3.3579 98.4108 9.883 93.755H9.87865Z" fill="#0046A0"/>
<path d="M132.365 143.535C132.012 145.861 129.678 147.765 127.17 147.765H53.0548C50.5509 147.765 48.186 145.865 47.8035 143.544L35.5314 69.12C35.1488 66.7986 36.8834 64.8989 39.3917 64.8989H139.698C142.202 64.8989 143.967 66.803 143.615 69.1287L132.369 143.535H132.365Z" fill="#9DA7B3"/>
<path d="M113.768 40.0288H51.3555V127.95H127.674V54.1441L113.768 40.0288Z" fill="#9DA7B3"/>
<path d="M113.768 40.0288L127.778 54.0397H113.768V40.0288Z" fill="#0A2342"/>
<path d="M110.703 67.8335L104.478 61.6084L89.5671 76.5192L74.6563 61.6084L68.4355 67.8335L83.342 82.74L68.4355 97.6508L74.6563 103.876L89.5671 88.9651L104.478 103.876L110.703 97.6508L95.7923 82.74L110.703 67.8335Z" fill="#0A2342"/>
<path d="M96.8086 90.4343C94.8394 90.4343 92.7571 88.8998 92.1746 87.0175L89.3141 77.745C88.7359 75.8626 86.6493 74.3237 84.68 74.3237H33.8399C31.8706 74.3237 30.5447 75.9104 30.8881 77.8449L43.2993 147.773C43.6427 149.712 45.5338 151.295 47.503 151.295H135.572C137.542 151.295 139.402 149.704 139.711 147.76L148.249 93.886C148.557 91.9428 147.197 90.3561 145.232 90.3561L96.8086 90.4256V90.4343Z" fill="#CED3D9"/>
<path d="M84.4227 123.208C84.4227 120.486 85.5051 118.365 87.6656 116.844L88.7046 116.122C89.6914 115.483 90.3783 114.957 90.7652 114.54C91.1521 114.127 91.3477 113.614 91.3477 113.001C91.3477 111.453 90.0522 110.679 87.4657 110.679C86.2659 110.679 85.0226 110.84 83.7445 111.162C82.4664 111.483 81.2492 111.936 80.1016 112.522V106.358C82.5577 105.237 85.3051 104.676 88.3481 104.676C91.6303 104.676 94.2342 105.363 96.1513 106.736C98.0728 108.11 99.0335 110.01 99.0335 112.44C99.0335 113.8 98.7248 114.9 98.1119 115.744C97.4989 116.583 96.4556 117.526 94.9906 118.565C94.0038 119.287 93.2822 119.839 92.8301 120.226C92.378 120.612 92.0345 121.047 91.8085 121.525C91.5824 122.008 91.4694 122.595 91.4694 123.286V124.047H84.4227V123.208ZM85.2443 132.793C84.5357 132.085 84.1836 131.211 84.1836 130.172C84.1836 129.133 84.5357 128.224 85.2443 127.529C85.9485 126.833 86.8397 126.49 87.9047 126.49C88.9698 126.49 89.8349 126.842 90.5652 127.551C91.2999 128.259 91.665 129.133 91.665 130.172C91.665 131.211 91.2955 132.085 90.5652 132.793C89.8305 133.502 88.9437 133.854 87.9047 133.854C86.8658 133.854 85.9485 133.502 85.2443 132.793Z" fill="#EDF4FC"/>
<path opacity="0.1" d="M145.231 90.3647L139.723 90.3734C139.845 91.6428 139.91 92.9209 139.91 94.212C139.91 123.09 109.002 146.504 70.8726 146.504C60.6568 146.504 50.9626 144.822 42.2422 141.809L43.3029 147.782C43.6463 149.721 45.5373 151.303 47.5066 151.303H135.576C137.545 151.303 139.406 149.712 139.714 147.769L148.252 93.8946C148.561 91.9515 147.2 90.3647 145.235 90.3647H145.231Z" fill="#0046A0"/>
<g opacity="0.3">
<path d="M39.4395 84.7047C39.7003 86.4609 39.9612 88.2172 40.2263 89.9691C40.848 94.1467 41.474 98.3244 42.0956 102.502C42.852 107.588 43.6128 112.674 44.3735 117.761C45.0256 122.129 45.6777 126.494 46.3254 130.863C46.5428 132.315 46.7601 133.767 46.9732 135.214C47.0731 135.897 47.134 136.601 47.2818 137.275C47.2862 137.305 47.2905 137.336 47.2948 137.362C47.3861 137.962 48.1382 138.288 48.6686 138.144C49.3076 137.971 49.538 137.371 49.451 136.771C49.1902 135.014 48.9294 133.258 48.6642 131.506C48.0426 127.329 47.4166 123.151 46.7949 118.973C46.0342 113.887 45.2778 108.801 44.517 103.715C43.8649 99.3459 43.2129 94.9814 42.5651 90.6125C42.3478 89.1605 42.1304 87.7086 41.9174 86.261C41.8174 85.5785 41.7565 84.8742 41.6087 84.2004C41.6044 84.17 41.6001 84.1395 41.5957 84.1135C41.5044 83.5135 40.7524 83.1875 40.222 83.331C39.583 83.5049 39.3526 84.1048 39.4395 84.7047Z" fill="#EDF4FC"/>
</g>
<path d="M162.168 45.9888C155.295 45.9888 149.727 51.5618 149.727 58.4304C149.727 61.5038 150.839 64.3121 152.687 66.4813L152.165 72.8891L158.112 70.1938C159.386 70.6329 160.751 70.8763 162.172 70.8763C169.045 70.8763 174.614 65.3032 174.614 58.4347C174.614 51.5662 169.041 45.9931 162.172 45.9931L162.168 45.9888Z" fill="#E04B7C"/>
<path d="M161.308 64.8031C161.082 64.5771 160.969 64.2945 160.969 63.9598C160.969 63.625 161.082 63.3425 161.308 63.1164C161.534 62.8904 161.816 62.773 162.151 62.773C162.486 62.773 162.768 62.886 163.003 63.1164C163.238 63.3425 163.355 63.625 163.355 63.9598C163.355 64.2945 163.238 64.5771 163.003 64.8031C162.768 65.0292 162.486 65.1465 162.151 65.1465C161.816 65.1465 161.534 65.0335 161.308 64.8031ZM160.604 50.8096H163.738L163.155 60.8298H161.186L160.604 50.8096Z" fill="#EDF4FC"/>
<path opacity="0.1" d="M155.353 65.0249C154.001 65.0249 152.683 64.9075 151.414 64.6815C151.788 65.3205 152.214 65.9204 152.688 66.4812L152.166 72.8889L158.113 70.1937C159.387 70.6327 160.752 70.8762 162.173 70.8762C169.046 70.8762 174.615 65.3031 174.615 58.4346C174.615 56.7696 174.285 55.1829 173.693 53.731C171.202 60.2865 163.938 65.0292 155.357 65.0292L155.353 65.0249Z" fill="#0046A0"/>
<path d="M34.6827 42.6241V30.8259C34.6827 29.4087 33.522 28.248 32.1048 28.248H10.5994C9.18218 28.248 8.02148 29.4087 8.02148 30.8259V45.6932C8.02148 47.1104 9.18218 48.2711 10.5994 48.2711H40.8861L34.6827 42.6241Z" fill="#004F83"/>
<path d="M17.759 36.6032C17.759 37.7334 17.1026 38.6507 16.2897 38.6507C15.4767 38.6507 14.8203 37.7334 14.8203 36.6032C14.8203 35.4729 15.4767 34.5557 16.2897 34.5557C17.1026 34.5557 17.759 35.4729 17.759 36.6032Z" fill="#EDF4FC"/>
<path d="M27.5227 36.6032C27.5227 37.7334 26.8663 38.6507 26.0533 38.6507C25.2404 38.6507 24.584 37.7334 24.584 36.6032C24.584 35.4729 25.2404 34.5557 26.0533 34.5557C26.8663 34.5557 27.5227 35.4729 27.5227 36.6032Z" fill="#EDF4FC"/>
<path d="M17.8068 42.3329C18.311 41.7808 19.0109 41.3461 19.7065 41.0983C21.4714 40.4636 23.1755 41.1287 24.5188 42.3329C24.8796 42.6546 25.41 42.1242 25.0491 41.8025C23.5581 40.4636 21.6279 39.6768 19.6456 40.3245C18.7762 40.607 17.8937 41.12 17.2721 41.8025C16.946 42.159 17.4764 42.6937 17.8024 42.3329H17.8068Z" fill="#EDF4FC"/>
<path opacity="0.1" d="M34.6824 42.6241V30.8259C34.6824 29.4087 33.5217 28.248 32.1046 28.248H29.9006C30.2831 29.6478 30.4874 31.1041 30.4874 32.5952C30.4874 38.8638 26.9271 44.476 21.3105 48.2711H40.8859L34.6824 42.6241Z" fill="#0046A0"/>
<path d="M108.997 108.705C102.103 115.6 102.103 126.785 108.997 133.68C115.892 140.574 127.077 140.574 133.972 133.68C140.866 126.785 140.866 115.6 133.972 108.705C127.077 101.811 115.892 101.811 108.997 108.705ZM131.946 131.654C126.168 137.431 116.8 137.431 111.019 131.654C105.241 125.876 105.241 116.508 111.019 110.727C116.796 104.949 126.164 104.949 131.946 110.727C137.723 116.504 137.723 125.872 131.946 131.654Z" fill="#0A2342"/>
<path opacity="0.3" d="M121.481 135.992C129.654 135.992 136.279 129.367 136.279 121.195C136.279 113.022 129.654 106.397 121.481 106.397C113.309 106.397 106.684 113.022 106.684 121.195C106.684 129.367 113.309 135.992 121.481 135.992Z" fill="#EDF4FC"/>
<path d="M133.494 130.988L131.281 133.202L151.305 153.225L153.518 151.012L133.494 130.988Z" fill="#0A2342"/>
<path d="M133.493 130.994L131.279 133.207L138.654 140.581L140.867 138.368L133.493 130.994Z" fill="#0A2342"/>
<path d="M112.865 115.109C113.426 113.487 114.656 112.179 116.139 111.27C117.63 110.366 119.395 109.883 121.164 109.883C122.933 109.879 124.703 110.362 126.194 111.266C127.676 112.174 128.906 113.487 129.463 115.109C127.846 114.561 126.476 114.131 125.116 113.865C123.768 113.591 122.468 113.465 121.164 113.461C119.86 113.461 118.556 113.587 117.208 113.861C115.847 114.126 114.478 114.561 112.865 115.109Z" fill="#EDF4FC"/>
</g>
<defs>
<clipPath id="clip0_2178_7311">
<rect width="180" height="157.585" fill="white"/>
</clipPath>
</defs>
</svg>
