<svg width="320" height="281" viewBox="0 0 320 281" fill="none" xmlns="http://www.w3.org/2000/svg">
<g opacity="0.5">
<path d="M143.232 107.98H14.7871V202.729H143.232V107.98Z" fill="#EDF4FC"/>
<path d="M143.232 107.98H14.7871V119.797H143.232V107.98Z" fill="#CED3D9"/>
<path d="M25.0973 114.163C25.0973 115.654 23.884 116.868 22.3924 116.868C20.9008 116.868 19.6875 115.654 19.6875 114.163C19.6875 112.671 20.9008 111.458 22.3924 111.458C23.884 111.458 25.0973 112.671 25.0973 114.163Z" fill="#EDF4FC"/>
<path d="M34.2008 114.163C34.2008 115.654 32.9875 116.868 31.4959 116.868C30.0044 116.868 28.791 115.654 28.791 114.163C28.791 112.671 30.0044 111.458 31.4959 111.458C32.9875 111.458 34.2008 112.671 34.2008 114.163Z" fill="#EDF4FC"/>
<path d="M43.3122 114.163C43.3122 115.654 42.0988 116.868 40.6072 116.868C39.1157 116.868 37.9023 115.654 37.9023 114.163C37.9023 112.671 39.1157 111.458 40.6072 111.458C42.0988 111.458 43.3122 112.671 43.3122 114.163Z" fill="#EDF4FC"/>
<path d="M300.903 48.2173H172.459V142.966H300.903V48.2173Z" fill="#EDF4FC"/>
<path d="M300.903 48.2173H172.459V60.0339H300.903V48.2173Z" fill="#CED3D9"/>
<path d="M182.769 54.3997C182.769 55.8913 181.556 57.1046 180.064 57.1046C178.573 57.1046 177.359 55.8913 177.359 54.3997C177.359 52.9082 178.573 51.6948 180.064 51.6948C181.556 51.6948 182.769 52.9082 182.769 54.3997Z" fill="#EDF4FC"/>
<path d="M191.881 54.3997C191.881 55.8913 190.667 57.1046 189.176 57.1046C187.684 57.1046 186.471 55.8913 186.471 54.3997C186.471 52.9082 187.684 51.6948 189.176 51.6948C190.667 51.6948 191.881 52.9082 191.881 54.3997Z" fill="#EDF4FC"/>
<path d="M200.984 54.3997C200.984 55.8913 199.771 57.1046 198.279 57.1046C196.788 57.1046 195.574 55.8913 195.574 54.3997C195.574 52.9082 196.788 51.6948 198.279 51.6948C199.771 51.6948 200.984 52.9082 200.984 54.3997Z" fill="#EDF4FC"/>
<path d="M258.614 85.8076L252.153 79.3545L236.681 94.8188L221.209 79.3545L214.756 85.8076L230.228 101.28L214.756 116.752L221.209 123.205L236.681 107.741L252.153 123.205L258.614 116.752L243.142 101.28L258.614 85.8076Z" fill="#CED3D9"/>
<path d="M159.229 279.37C245.946 279.37 316.245 273.294 316.245 265.799C316.245 258.304 245.946 252.229 159.229 252.229C72.5113 252.229 2.21289 258.304 2.21289 265.799C2.21289 273.294 72.5113 279.37 159.229 279.37Z" fill="#E1EAF2"/>
<path d="M120.935 49.7936C119.737 47.2896 119.799 44.8629 121.12 42.5058L121.762 41.3852C122.387 40.3651 122.789 39.5768 122.967 39.0203C123.145 38.4716 123.091 37.9152 122.828 37.3433C122.148 35.9213 120.618 35.7744 118.23 36.9105C117.125 37.436 116.05 38.1316 115.015 38.9894C113.979 39.8473 113.059 40.7978 112.256 41.8412L109.551 36.1686C111.321 34.0588 113.6 32.3354 116.406 30.9984C119.428 29.5532 122.125 29.0431 124.497 29.4681C126.87 29.8932 128.586 31.2147 129.652 33.456C130.247 34.7079 130.448 35.8595 130.255 36.9028C130.062 37.9461 129.513 39.2676 128.617 40.8751C128.021 41.9725 127.604 42.7995 127.357 43.3559C127.109 43.9123 126.986 44.4611 126.986 45.002C126.986 45.543 127.14 46.1381 127.45 46.7718L127.782 47.4751L121.298 50.5664L120.927 49.7936H120.935ZM125.904 58.2561C124.946 57.916 124.235 57.2669 123.779 56.3085C123.307 55.327 123.245 54.361 123.593 53.4104C123.941 52.4598 124.606 51.7488 125.587 51.2851C126.545 50.8292 127.519 50.7674 128.501 51.0919C129.49 51.4243 130.209 52.0657 130.664 53.024C131.12 53.9823 131.167 54.9484 130.804 55.9221C130.44 56.8959 129.776 57.6069 128.817 58.0706C127.836 58.542 126.862 58.6038 125.904 58.2638V58.2561Z" fill="#9DA7B3"/>
<path d="M152.428 28.1467C154.043 24.2903 156.833 21.9255 160.798 21.0522L162.699 20.6503C164.476 20.3257 165.767 19.9934 166.555 19.6379C167.351 19.2824 167.931 18.6718 168.294 17.7985C169.214 15.6037 167.838 13.7412 164.167 12.2033C162.467 11.4923 160.612 10.9822 158.611 10.6731C156.609 10.3639 154.615 10.2866 152.644 10.4412L156.3 1.70822C160.442 1.57684 164.67 2.4115 168.982 4.21992C173.634 6.16745 176.911 8.68688 178.812 11.7705C180.721 14.8541 180.953 18.1231 179.508 21.5622C178.696 23.4866 177.614 24.8699 176.247 25.6969C174.879 26.5238 172.846 27.2348 170.149 27.8453C168.325 28.2781 166.973 28.6336 166.099 28.9196C165.226 29.1978 164.492 29.6074 163.881 30.1561C163.271 30.7048 162.768 31.4699 162.351 32.4514L161.903 33.5334L151.926 29.3524L152.428 28.1622V28.1467ZM147.899 42.2123C147.319 40.7902 147.335 39.3451 147.953 37.8689C148.587 36.3542 149.607 35.3186 151.021 34.7544C152.436 34.1903 153.896 34.2289 155.411 34.8626C156.887 35.4809 157.93 36.5088 158.556 37.9462C159.175 39.3837 159.175 40.8366 158.556 42.3127C157.938 43.7888 156.903 44.809 155.442 45.3731C153.981 45.9373 152.513 45.9141 151.045 45.2958C149.53 44.6621 148.486 43.6343 147.907 42.2123H147.899Z" fill="#9DA7B3"/>
<path d="M314.341 167.225V162.789H311.389V167.225H306.953V170.177H311.389V174.613H314.341V170.177H318.777V167.225H314.341Z" fill="#9DA7B3"/>
<path d="M286.481 25.2021V18.4321H281.983V25.2021H275.213V29.7H281.983V36.47H286.481V29.7H293.243V25.2021H286.481Z" fill="#9DA7B3"/>
<path d="M274.217 156.182V152.951H272.068V156.182H268.838V158.33H272.068V161.56H274.217V158.33H277.447V156.182H274.217Z" fill="#9DA7B3"/>
<path d="M89.9512 43.7885V40.5581H87.8027V43.7885H84.5723V45.937H87.8027V49.1674H89.9512V45.937H93.1893V43.7885H89.9512Z" fill="#9DA7B3"/>
<path d="M65.0426 22.4199V17.9839H62.0982V22.4199H57.6621V25.3644H62.0982V29.8082H65.0426V25.3644H69.4787V22.4199H65.0426Z" fill="#9DA7B3"/>
<path d="M210.745 31.4777C210.745 32.4129 209.987 33.1625 209.06 33.1625C208.132 33.1625 207.375 32.4051 207.375 31.4777C207.375 30.5503 208.132 29.793 209.06 29.793C209.987 29.793 210.745 30.5503 210.745 31.4777Z" fill="#9DA7B3"/>
<path d="M217.655 2.46553C217.655 3.40066 216.897 4.1503 215.97 4.1503C215.043 4.1503 214.285 3.39293 214.285 2.46553C214.285 1.53814 215.043 0.780762 215.97 0.780762C216.897 0.780762 217.655 1.53814 217.655 2.46553Z" fill="#9DA7B3"/>
<path d="M250.623 19.5296C252.386 19.5296 253.815 18.1006 253.815 16.3378C253.815 14.575 252.386 13.146 250.623 13.146C248.861 13.146 247.432 14.575 247.432 16.3378C247.432 18.1006 248.861 19.5296 250.623 19.5296Z" fill="#9DA7B3"/>
<path d="M317.928 136.351C317.928 137.286 317.171 138.036 316.243 138.036C315.316 138.036 314.559 137.278 314.559 136.351C314.559 135.423 315.316 134.666 316.243 134.666C317.171 134.666 317.928 135.423 317.928 136.351Z" fill="#9DA7B3"/>
<path d="M316.245 189.034C316.245 189.969 315.487 190.719 314.56 190.719C313.632 190.719 312.875 189.962 312.875 189.034C312.875 188.107 313.632 187.35 314.56 187.35C315.487 187.35 316.245 188.107 316.245 189.034Z" fill="#9DA7B3"/>
<path d="M59.3481 96.8977C59.3481 97.8328 58.5907 98.5824 57.6633 98.5824C56.7359 98.5824 55.9785 97.8251 55.9785 96.8977C55.9785 95.9703 56.7359 95.2129 57.6633 95.2129C58.5907 95.2129 59.3481 95.9703 59.3481 96.8977Z" fill="#9DA7B3"/>
<path d="M29.9809 30.1097C31.7436 30.1097 33.1726 28.6806 33.1726 26.9179C33.1726 25.1551 31.7436 23.7261 29.9809 23.7261C28.2181 23.7261 26.7891 25.1551 26.7891 26.9179C26.7891 28.6806 28.2181 30.1097 29.9809 30.1097Z" fill="#9DA7B3"/>
<path d="M92.9887 8.89571C92.9887 9.83083 92.2313 10.5805 91.3039 10.5805C90.3765 10.5805 89.6191 9.8231 89.6191 8.89571C89.6191 7.96831 90.3765 7.21094 91.3039 7.21094C92.2313 7.21094 92.9887 7.96831 92.9887 8.89571Z" fill="#9DA7B3"/>
<path d="M3.9047 110.082C3.9047 111.017 3.14732 111.767 2.21993 111.767C1.29253 111.767 0.535156 111.01 0.535156 110.082C0.535156 109.155 1.29253 108.397 2.21993 108.397C3.14732 108.397 3.9047 109.155 3.9047 110.082Z" fill="#9DA7B3"/>
<path d="M3.9047 199.993C3.9047 200.928 3.14732 201.678 2.21993 201.678C1.29253 201.678 0.535156 200.921 0.535156 199.993C0.535156 199.066 1.29253 198.309 2.21993 198.309C3.14732 198.309 3.9047 199.066 3.9047 199.993Z" fill="#9DA7B3"/>
<path d="M249.904 250.799C249.904 250.799 221.943 194.901 297.781 157.805C297.781 157.805 303.592 237.46 249.904 250.799Z" fill="#0A2342"/>
<path d="M253.127 243.681C253.112 235.69 254.781 227.753 257.076 220.095C257.37 219.136 257.633 218.17 257.957 217.22L258.985 214.391L260.013 211.563L261.18 208.788C262.679 205.063 264.557 201.516 266.335 197.922L269.356 192.721C270.33 190.967 271.435 189.297 272.564 187.636C273.7 185.982 274.774 184.289 275.956 182.682C277.162 181.082 278.391 179.498 279.62 177.921L281.467 175.556L283.453 173.307L287.448 168.84C288.105 168.091 288.832 167.403 289.543 166.707L291.691 164.621C293.129 163.237 294.574 161.87 296.035 160.517C294.783 162.07 293.523 163.608 292.248 165.131L290.331 167.403C289.69 168.16 289.04 168.902 288.461 169.714L284.844 174.428L283.02 176.77L281.328 179.204C280.207 180.827 279.071 182.45 277.927 184.05C276.814 185.68 275.81 187.381 274.751 189.035C272.548 192.304 270.732 195.812 268.754 199.213C265.06 206.168 261.798 213.348 259.101 220.751C256.458 228.171 254.24 235.783 253.127 243.666V243.681Z" fill="#9DA7B3"/>
<path opacity="0.1" d="M294.944 157.248C293.886 176.468 287.293 227.56 247.523 239.129C248.961 244.933 250.7 248.411 250.7 248.411C304.388 235.064 298.577 155.417 298.577 155.417C297.34 156.019 296.127 156.638 294.944 157.248Z" fill="#0046A0"/>
<path d="M243.064 268.791C243.064 268.791 247.045 251.773 263.684 231.146C281.915 208.549 305.695 200.418 315.564 211.277C325.147 221.818 317.001 236.386 292.325 243.828C267.648 251.271 253.699 254.478 243.064 268.791Z" fill="#9DA7B3"/>
<path d="M307.751 217.196C302.102 219.43 296.638 222.019 291.267 224.762C285.911 227.537 280.686 230.543 275.694 233.905C270.686 237.236 265.925 240.922 261.505 244.995C257.1 249.083 253.066 253.581 249.58 258.558C250.987 255.861 252.648 253.303 254.441 250.83C256.296 248.411 258.267 246.054 260.423 243.89C264.704 239.516 269.519 235.682 274.589 232.266C277.147 230.589 279.744 228.99 282.41 227.498C285.092 226.037 287.804 224.639 290.586 223.387C296.128 220.852 301.854 218.711 307.743 217.204L307.751 217.196Z" fill="#3B4F68"/>
<path opacity="0.1" d="M315.564 211.277C315.03 210.689 314.443 210.164 313.832 209.685C305.826 229.291 282.44 243.488 254.811 243.519C245.561 258.156 243.064 268.783 243.064 268.783C253.699 254.47 267.648 251.263 292.325 243.82C317.001 236.378 325.139 221.81 315.564 211.269V211.277Z" fill="#0046A0"/>
<path d="M99.8432 259.231C99.8432 259.231 42.4065 283.876 9.80078 206.006C9.80078 206.006 89.6573 204.854 99.8432 259.231Z" fill="#0A2342"/>
<path d="M95.2518 256.534C87.2762 256.085 79.4474 253.952 71.9355 251.209C71.0004 250.861 70.0421 250.536 69.1147 250.158L66.3557 248.968L63.5967 247.77L60.8995 246.448C57.2672 244.733 53.8358 242.646 50.3504 240.667L45.3347 237.344C43.6422 236.27 42.0347 235.064 40.4504 233.851C38.8661 232.622 37.2432 231.448 35.6975 230.172C34.175 228.874 32.6603 227.56 31.161 226.239L28.9121 224.26L26.7791 222.15L22.5517 217.9C21.8407 217.204 21.1992 216.439 20.5423 215.682L18.5871 213.417C17.2887 211.903 16.0135 210.372 14.7461 208.842C16.2222 210.187 17.6906 211.532 19.1358 212.892L21.292 214.94C22.0107 215.62 22.714 216.316 23.4868 216.942L27.9769 220.821L30.2027 222.776L32.5289 224.608C34.0823 225.821 35.6357 227.05 37.1659 228.287C38.727 229.492 40.3654 230.59 41.9574 231.749C45.0951 234.145 48.4879 236.154 51.7647 238.333C58.4883 242.429 65.4669 246.1 72.7006 249.223C79.9498 252.291 87.423 254.949 95.2286 256.526L95.2518 256.534Z" fill="#9DA7B3"/>
<path opacity="0.1" d="M11.416 209.739C30.5435 211.926 81.1639 221.486 90.3915 261.858C96.265 260.769 99.8432 259.231 99.8432 259.231C89.6573 204.854 9.80078 206.006 9.80078 206.006C10.334 207.281 10.875 208.518 11.416 209.739Z" fill="#0046A0"/>
<path d="M76.2248 238.249C76.2248 238.249 75.9465 220.767 64.0527 197.088C51.0228 171.136 29.5149 158.153 17.567 166.677C5.96677 174.946 10.8356 190.905 33.3713 203.417C55.9071 215.922 68.8674 222.011 76.2248 238.256V238.249Z" fill="#9DA7B3"/>
<path d="M23.9434 174.111C28.9899 177.489 33.7815 181.183 38.4494 185.001C43.0941 188.849 47.5688 192.891 51.7266 197.234C55.9153 201.547 59.7872 206.161 63.2418 211.076C66.6809 216.006 69.664 221.254 72.0211 226.865C71.2174 223.936 70.1354 221.076 68.9066 218.279C67.6083 215.52 66.1863 212.799 64.5324 210.226C61.2788 205.04 57.3837 200.272 53.1563 195.866C51.0156 193.687 48.813 191.57 46.5177 189.552C44.207 187.559 41.8498 185.611 39.4 183.803C34.5234 180.147 29.3764 176.839 23.9434 174.119V174.111Z" fill="#3B4F68"/>
<path opacity="0.1" d="M17.5592 166.677C18.2084 166.213 18.8885 165.827 19.5918 165.495C23.255 186.353 43.109 205.187 70.1039 211.076C76.047 227.344 76.2248 238.257 76.2248 238.257C68.8674 222.012 55.9148 215.922 33.3713 203.417C10.8356 190.913 5.96677 174.954 17.567 166.677H17.5592Z" fill="#0046A0"/>
<path d="M235.312 255.173C234.686 259.308 230.536 262.693 226.077 262.693H94.3171C89.8656 262.693 85.6614 259.316 84.9813 255.189L63.1643 122.88C62.4842 118.753 65.5678 115.376 70.0271 115.376H248.35C252.801 115.376 255.939 118.761 255.313 122.896L235.32 255.173H235.312Z" fill="#9DA7B3"/>
<path d="M202.25 71.1626H91.2949V227.467H226.973V96.2564L202.25 71.1626Z" fill="#9DA7B3"/>
<path d="M202.25 71.1626L227.158 96.0709H202.25V71.1626Z" fill="#0A2342"/>
<path d="M196.802 120.593L185.736 109.526L159.227 136.034L132.719 109.526L121.66 120.593L148.16 147.093L121.66 173.601L132.719 184.668L159.227 158.16L185.736 184.668L196.802 173.601L170.294 147.093L196.802 120.593Z" fill="#0A2342"/>
<path d="M172.103 160.772C168.602 160.772 164.9 158.044 163.864 154.698L158.779 138.214C157.751 134.867 154.042 132.131 150.541 132.131H60.1583C56.6573 132.131 54.3002 134.952 54.9107 138.391L76.9751 262.709C77.5856 266.156 80.9474 268.969 84.4483 268.969H241.016C244.517 268.969 247.825 266.14 248.373 262.686L263.552 166.909C264.1 163.454 261.681 160.633 258.188 160.633L172.103 160.757V160.772Z" fill="#CED3D9"/>
<path d="M150.084 219.036C150.084 214.198 152.009 210.427 155.85 207.722L157.697 206.439C159.451 205.303 160.672 204.368 161.36 203.626C162.048 202.892 162.395 201.98 162.395 200.89C162.395 198.139 160.092 196.763 155.494 196.763C153.361 196.763 151.151 197.049 148.879 197.621C146.607 198.193 144.443 198.997 142.402 200.04V189.081C146.769 187.087 151.653 186.09 157.063 186.09C162.898 186.09 167.527 187.311 170.935 189.754C174.351 192.196 176.059 195.573 176.059 199.893C176.059 202.312 175.51 204.267 174.421 205.767C173.331 207.258 171.476 208.935 168.872 210.782C167.117 212.065 165.835 213.047 165.031 213.734C164.227 214.422 163.617 215.195 163.215 216.045C162.813 216.903 162.612 217.946 162.612 219.175V220.528H150.084V219.036ZM151.545 236.077C150.285 234.817 149.659 233.264 149.659 231.417C149.659 229.57 150.285 227.955 151.545 226.718C152.797 225.481 154.381 224.871 156.275 224.871C158.168 224.871 159.706 225.497 161.004 226.757C162.31 228.016 162.96 229.57 162.96 231.417C162.96 233.264 162.303 234.817 161.004 236.077C159.698 237.337 158.122 237.963 156.275 237.963C154.428 237.963 152.797 237.337 151.545 236.077Z" fill="#EDF4FC"/>
<path opacity="0.1" d="M258.189 160.649L248.397 160.664C248.613 162.921 248.729 165.193 248.729 167.488C248.729 218.828 193.781 260.452 125.996 260.452C107.835 260.452 90.6006 257.461 75.0977 252.106L76.9834 262.724C77.5939 266.171 80.9557 268.984 84.4566 268.984H241.024C244.525 268.984 247.833 266.156 248.382 262.701L263.56 166.924C264.109 163.47 261.69 160.649 258.197 160.649H258.189Z" fill="#0046A0"/>
<g opacity="0.3">
<path d="M70.1114 150.586C70.5751 153.709 71.0388 156.831 71.5103 159.945C72.6154 167.372 73.7283 174.799 74.8334 182.226C76.1781 191.268 77.5306 200.31 78.883 209.352C80.0423 217.119 81.2015 224.879 82.3531 232.645C82.7395 235.227 83.1259 237.808 83.5046 240.382C83.6823 241.595 83.7905 242.847 84.0533 244.045C84.061 244.099 84.0687 244.153 84.0765 244.199C84.2388 245.266 85.5758 245.845 86.5186 245.59C87.6547 245.281 88.0643 244.215 87.9097 243.148C87.446 240.026 86.9823 236.904 86.5109 233.789C85.4057 226.362 84.2929 218.935 83.1877 211.509C81.8353 202.466 80.4905 193.424 79.1381 184.382C77.9788 176.615 76.8196 168.856 75.6681 161.089C75.2817 158.508 74.8952 155.927 74.5166 153.353C74.3388 152.14 74.2306 150.888 73.9678 149.69C73.9601 149.636 73.9524 149.582 73.9447 149.535C73.7824 148.469 72.4454 147.889 71.5025 148.144C70.3665 148.453 69.9569 149.52 70.1114 150.586Z" fill="#EDF4FC"/>
</g>
<path d="M288.298 81.7578C276.08 81.7578 266.18 91.6655 266.18 103.876C266.18 109.34 268.158 114.333 271.443 118.189L270.515 129.581L281.088 124.789C283.352 125.57 285.779 126.002 288.306 126.002C300.524 126.002 310.424 116.095 310.424 103.884C310.424 91.6732 300.517 81.7655 288.306 81.7655L288.298 81.7578Z" fill="#E04B7C"/>
<path d="M286.768 115.206C286.366 114.804 286.165 114.302 286.165 113.707C286.165 113.112 286.366 112.609 286.768 112.207C287.169 111.806 287.672 111.597 288.267 111.597C288.862 111.597 289.364 111.798 289.782 112.207C290.199 112.609 290.408 113.112 290.408 113.707C290.408 114.302 290.199 114.804 289.782 115.206C289.364 115.608 288.862 115.817 288.267 115.817C287.672 115.817 287.169 115.616 286.768 115.206ZM285.516 90.3286H291.088L290.052 108.142H286.551L285.516 90.3286Z" fill="#EDF4FC"/>
<path opacity="0.1" d="M276.18 115.6C273.776 115.6 271.434 115.391 269.178 114.99C269.842 116.126 270.6 117.192 271.442 118.189L270.515 129.581L281.087 124.789C283.351 125.57 285.778 126.002 288.305 126.002C300.524 126.002 310.424 116.095 310.424 103.884C310.424 100.924 309.836 98.1032 308.785 95.522C304.357 107.176 291.443 115.608 276.187 115.608L276.18 115.6Z" fill="#0046A0"/>
<path d="M61.6574 75.7763V54.8016C61.6574 52.2822 59.594 50.2188 57.0746 50.2188H18.8426C16.3232 50.2188 14.2598 52.2822 14.2598 54.8016V81.2324C14.2598 83.7519 16.3232 85.8153 18.8426 85.8153H72.6857L61.6574 75.7763Z" fill="#1CC2C4"/>
<path d="M31.572 65.0726C31.572 67.082 30.405 68.7127 28.9598 68.7127C27.5146 68.7127 26.3477 67.082 26.3477 65.0726C26.3477 63.0633 27.5146 61.4326 28.9598 61.4326C30.405 61.4326 31.572 63.0633 31.572 65.0726Z" fill="#EDF4FC"/>
<path d="M48.9294 65.0726C48.9294 67.082 47.7624 68.7127 46.3172 68.7127C44.8721 68.7127 43.7051 67.082 43.7051 65.0726C43.7051 63.0633 44.8721 61.4326 46.3172 61.4326C47.7624 61.4326 48.9294 63.0633 48.9294 65.0726Z" fill="#EDF4FC"/>
<path d="M31.6575 75.2585C32.554 74.277 33.7983 73.5042 35.0348 73.0637C38.1725 71.9353 41.202 73.1178 43.59 75.2585C44.2315 75.8304 45.1743 74.8875 44.5329 74.3157C41.8821 71.9353 38.4507 70.5365 34.9266 71.688C33.381 72.1904 31.8121 73.1023 30.707 74.3157C30.1273 74.9494 31.0702 75.9 31.6498 75.2585H31.6575Z" fill="#EDF4FC"/>
<path opacity="0.1" d="M61.657 75.7763V54.8016C61.657 52.2822 59.5936 50.2188 57.0741 50.2188H53.1559C53.836 52.7073 54.1992 55.2962 54.1992 57.9471C54.1992 69.0913 47.8697 79.0685 37.8848 85.8153H72.6853L61.657 75.7763Z" fill="#0046A0"/>
<path d="M193.773 193.254C181.516 205.511 181.516 225.396 193.773 237.653C206.03 249.911 225.915 249.911 238.172 237.653C250.429 225.396 250.429 205.511 238.172 193.254C225.915 180.997 206.03 180.997 193.773 193.254ZM234.571 234.052C224.3 244.323 207.645 244.323 197.367 234.052C187.096 223.781 187.096 207.127 197.367 196.848C207.637 186.577 224.292 186.577 234.571 196.848C244.841 207.119 244.841 223.773 234.571 234.052Z" fill="#0A2342"/>
<path opacity="0.3" d="M215.969 241.765C230.498 241.765 242.276 229.987 242.276 215.458C242.276 200.929 230.498 189.15 215.969 189.15C201.44 189.15 189.662 200.929 189.662 215.458C189.662 229.987 201.44 241.765 215.969 241.765Z" fill="#EDF4FC"/>
<path d="M237.325 232.869L233.391 236.804L268.988 272.401L272.923 268.466L237.325 232.869Z" fill="#0A2342"/>
<path d="M237.321 232.878L233.387 236.813L246.497 249.923L250.431 245.988L237.321 232.878Z" fill="#0A2342"/>
<path d="M200.65 204.638C201.647 201.755 203.834 199.429 206.47 197.814C209.121 196.207 212.258 195.349 215.404 195.349C218.549 195.341 221.695 196.199 224.345 197.806C226.981 199.422 229.168 201.755 230.157 204.638C227.282 203.664 224.848 202.899 222.429 202.428C220.033 201.941 217.722 201.717 215.404 201.709C213.085 201.709 210.767 201.933 208.371 202.42C205.952 202.892 203.518 203.664 200.65 204.638Z" fill="#EDF4FC"/>
</g>
</svg>
