<svg width="265" height="232" viewBox="0 0 265 232" fill="none" xmlns="http://www.w3.org/2000/svg">
<path d="M118.612 89.4209H12.2441V167.885H118.612V89.4209Z" fill="#FDF1F5"/>
<path d="M118.612 89.4209H12.2441V99.2065H118.612V89.4209Z" fill="#F7D2DE"/>
<path d="M20.7808 94.5408C20.7808 95.776 19.776 96.7808 18.5408 96.7808C17.3056 96.7808 16.3008 95.776 16.3008 94.5408C16.3008 93.3056 17.3056 92.3008 18.5408 92.3008C19.776 92.3008 20.7808 93.3056 20.7808 94.5408Z" fill="#FDF1F5"/>
<path d="M28.3198 94.5408C28.3198 95.776 27.315 96.7808 26.0798 96.7808C24.8446 96.7808 23.8398 95.776 23.8398 94.5408C23.8398 93.3056 24.8446 92.3008 26.0798 92.3008C27.315 92.3008 28.3198 93.3056 28.3198 94.5408Z" fill="#FDF1F5"/>
<path d="M35.8648 94.5408C35.8648 95.776 34.86 96.7808 33.6248 96.7808C32.3896 96.7808 31.3848 95.776 31.3848 94.5408C31.3848 93.3056 32.3896 92.3008 33.6248 92.3008C34.86 92.3008 35.8648 93.3056 35.8648 94.5408Z" fill="#FDF1F5"/>
<path d="M83.5856 120.551L78.2416 115.2L65.4288 128.013L52.616 115.2L47.2656 120.551L60.0784 133.363L47.2656 146.17L52.616 151.52L65.4288 138.707L78.2416 151.52L83.5856 146.17L70.7728 133.363L83.5856 120.551Z" fill="#FDF1F5"/>
<path d="M249.184 39.9297H142.816V118.394H249.184V39.9297Z" fill="#FDF1F5"/>
<path d="M249.184 39.9297H142.816V49.7153H249.184V39.9297Z" fill="#F7D2DE"/>
<path d="M151.353 45.0496C151.353 46.2848 150.348 47.2896 149.113 47.2896C147.878 47.2896 146.873 46.2848 146.873 45.0496C146.873 43.8144 147.878 42.8096 149.113 42.8096C150.348 42.8096 151.353 43.8144 151.353 45.0496Z" fill="#FDF1F5"/>
<path d="M158.898 45.0496C158.898 46.2848 157.893 47.2896 156.658 47.2896C155.423 47.2896 154.418 46.2848 154.418 45.0496C154.418 43.8144 155.423 42.8096 156.658 42.8096C157.893 42.8096 158.898 43.8144 158.898 45.0496Z" fill="#FDF1F5"/>
<path d="M166.437 45.0496C166.437 46.2848 165.432 47.2896 164.197 47.2896C162.962 47.2896 161.957 46.2848 161.957 45.0496C161.957 43.8144 162.962 42.8096 164.197 42.8096C165.432 42.8096 166.437 43.8144 166.437 45.0496Z" fill="#FDF1F5"/>
<path d="M214.164 71.0593L208.813 65.7153L196.001 78.5217L183.188 65.7153L177.844 71.0593L190.657 83.8721L177.844 96.6849L183.188 102.029L196.001 89.2225L208.813 102.029L214.164 96.6849L201.351 83.8721L214.164 71.0593Z" fill="#F7D2DE"/>
<path d="M131.861 231.354C203.674 231.354 261.89 226.322 261.89 220.115C261.89 213.909 203.674 208.877 131.861 208.877C60.0479 208.877 1.83203 213.909 1.83203 220.115C1.83203 226.322 60.0479 231.354 131.861 231.354Z" fill="#E1EAF2"/>
<path d="M100.15 41.2352C99.1579 39.1616 99.2091 37.152 100.303 35.2L100.835 34.272C101.353 33.4272 101.686 32.7744 101.833 32.3136C101.98 31.8592 101.935 31.3984 101.718 30.9248C101.155 29.7472 99.8875 29.6256 97.9099 30.5664C96.9947 31.0016 96.1051 31.5776 95.2475 32.288C94.3899 32.9984 93.6283 33.7856 92.9627 34.6496L90.7227 29.952C92.1883 28.2048 94.0763 26.7776 96.3995 25.6704C98.9019 24.4736 101.135 24.0512 103.1 24.4032C105.065 24.7552 106.486 25.8496 107.369 27.7056C107.862 28.7424 108.028 29.696 107.868 30.56C107.708 31.424 107.254 32.5184 106.511 33.8496C106.019 34.7584 105.673 35.4432 105.468 35.904C105.263 36.3648 105.161 36.8192 105.161 37.2672C105.161 37.7152 105.289 38.208 105.545 38.7328L105.82 39.3152L100.451 41.8752L100.143 41.2352H100.15ZM104.265 48.2432C103.471 47.9616 102.883 47.424 102.505 46.6304C102.115 45.8176 102.063 45.0176 102.351 44.2304C102.639 43.4432 103.19 42.8544 104.003 42.4704C104.796 42.0928 105.603 42.0416 106.415 42.3104C107.235 42.5856 107.83 43.1168 108.207 43.9104C108.585 44.704 108.623 45.504 108.323 46.3104C108.022 47.1168 107.471 47.7056 106.678 48.0896C105.865 48.48 105.059 48.5312 104.265 48.2496V48.2432Z" fill="#EFA5BD"/>
<path d="M126.229 23.3088C127.567 20.1152 129.877 18.1568 133.16 17.4336L134.735 17.1008C136.207 16.832 137.276 16.5568 137.928 16.2624C138.588 15.968 139.068 15.4624 139.368 14.7392C140.13 12.9216 138.991 11.3792 135.951 10.1056C134.543 9.51682 133.007 9.09441 131.349 8.83841C129.692 8.58241 128.04 8.51842 126.408 8.64642L129.436 1.41442C132.866 1.30562 136.367 1.99682 139.938 3.49442C143.791 5.10722 146.504 7.19362 148.079 9.74722C149.66 12.3008 149.852 15.008 148.655 17.856C147.983 19.4496 147.087 20.5952 145.954 21.28C144.821 21.9648 143.138 22.5536 140.904 23.0592C139.394 23.4176 138.274 23.712 137.551 23.9488C136.828 24.1792 136.22 24.5184 135.714 24.9728C135.208 25.4272 134.792 26.0608 134.447 26.8736L134.076 27.7696L125.813 24.3072L126.229 23.3216V23.3088ZM122.479 34.9568C121.999 33.7792 122.012 32.5824 122.524 31.36C123.048 30.1056 123.893 29.248 125.064 28.7808C126.236 28.3136 127.445 28.3456 128.7 28.8704C129.922 29.3824 130.786 30.2336 131.304 31.424C131.816 32.6144 131.816 33.8176 131.304 35.04C130.792 36.2624 129.935 37.1072 128.725 37.5744C127.516 38.0416 126.3 38.0224 125.084 37.5104C123.829 36.9856 122.965 36.1344 122.485 34.9568H122.479Z" fill="#EFA5BD"/>
<path d="M260.316 138.484V134.81H257.871V138.484H254.197V140.928H257.871V144.602H260.316V140.928H263.989V138.484H260.316Z" fill="#EFA5BD"/>
<path d="M237.243 20.8706V15.2642H233.519V20.8706H227.912V24.5954H233.519V30.2018H237.243V24.5954H242.843V20.8706H237.243Z" fill="#EFA5BD"/>
<path d="M227.087 129.338V126.663H225.308V129.338H222.633V131.117H225.308V133.792H227.087V131.117H229.762V129.338H227.087Z" fill="#EFA5BD"/>
<path d="M74.4915 36.2626V33.5874H72.7123V36.2626H70.0371V38.0418H72.7123V40.717H74.4915V38.0418H77.1731V36.2626H74.4915Z" fill="#EFA5BD"/>
<path d="M53.864 18.5667V14.8931H51.4256V18.5667H47.752V21.0051H51.4256V24.6851H53.864V21.0051H57.5375V18.5667H53.864Z" fill="#EFA5BD"/>
<path d="M174.523 26.0671C174.523 26.8415 173.896 27.4623 173.128 27.4623C172.36 27.4623 171.732 26.8351 171.732 26.0671C171.732 25.2991 172.36 24.6719 173.128 24.6719C173.896 24.6719 174.523 25.2991 174.523 26.0671Z" fill="#9DA7B3"/>
<path d="M180.245 2.04168C180.245 2.81608 179.618 3.43688 178.85 3.43688C178.082 3.43688 177.455 2.80968 177.455 2.04168C177.455 1.27368 178.082 0.646484 178.85 0.646484C179.618 0.646484 180.245 1.27368 180.245 2.04168Z" fill="#9DA7B3"/>
<path d="M207.547 16.1731C209.007 16.1731 210.191 14.9897 210.191 13.5299C210.191 12.0701 209.007 10.8867 207.547 10.8867C206.088 10.8867 204.904 12.0701 204.904 13.5299C204.904 14.9897 206.088 16.1731 207.547 16.1731Z" fill="#9DA7B3"/>
<path d="M263.285 112.915C263.285 113.69 262.657 114.31 261.889 114.31C261.121 114.31 260.494 113.683 260.494 112.915C260.494 112.147 261.121 111.52 261.889 111.52C262.657 111.52 263.285 112.147 263.285 112.915Z" fill="#9DA7B3"/>
<path d="M261.89 156.544C261.89 157.319 261.263 157.939 260.495 157.939C259.727 157.939 259.1 157.312 259.1 156.544C259.1 155.776 259.727 155.149 260.495 155.149C261.263 155.149 261.89 155.776 261.89 156.544Z" fill="#9DA7B3"/>
<path d="M49.1478 80.2433C49.1478 81.0177 48.5206 81.6385 47.7526 81.6385C46.9846 81.6385 46.3574 81.0113 46.3574 80.2433C46.3574 79.4753 46.9846 78.8481 47.7526 78.8481C48.5206 78.8481 49.1478 79.4753 49.1478 80.2433Z" fill="#9DA7B3"/>
<path d="M24.8268 24.9344C26.2866 24.9344 27.47 23.751 27.47 22.2912C27.47 20.8314 26.2866 19.6479 24.8268 19.6479C23.367 19.6479 22.1836 20.8314 22.1836 22.2912C22.1836 23.751 23.367 24.9344 24.8268 24.9344Z" fill="#9DA7B3"/>
<path d="M77.0072 7.36639C77.0072 8.14079 76.38 8.76159 75.612 8.76159C74.844 8.76159 74.2168 8.13439 74.2168 7.36639C74.2168 6.59839 74.844 5.97119 75.612 5.97119C76.38 5.97119 77.0072 6.59839 77.0072 7.36639Z" fill="#9DA7B3"/>
<path d="M3.23376 91.1618C3.23376 91.9362 2.60656 92.557 1.83856 92.557C1.07056 92.557 0.443359 91.9298 0.443359 91.1618C0.443359 90.3938 1.07056 89.7666 1.83856 89.7666C2.60656 89.7666 3.23376 90.3938 3.23376 91.1618Z" fill="#9DA7B3"/>
<path d="M3.23376 165.619C3.23376 166.394 2.60656 167.015 1.83856 167.015C1.07056 167.015 0.443359 166.387 0.443359 165.619C0.443359 164.851 1.07056 164.224 1.83856 164.224C2.60656 164.224 3.23376 164.851 3.23376 165.619Z" fill="#9DA7B3"/>
<path d="M206.952 207.693C206.952 207.693 183.797 161.402 246.6 130.682C246.6 130.682 251.413 196.646 206.952 207.693Z" fill="#D81E5B"/>
<path d="M209.621 201.799C209.608 195.181 210.991 188.608 212.892 182.266C213.135 181.472 213.352 180.672 213.621 179.885L214.472 177.543L215.324 175.2L216.29 172.903C217.532 169.818 219.087 166.88 220.559 163.904L223.061 159.597C223.868 158.144 224.783 156.762 225.717 155.386C226.658 154.016 227.548 152.615 228.527 151.283C229.525 149.959 230.543 148.647 231.56 147.341L233.09 145.383L234.735 143.52L238.044 139.821C238.588 139.2 239.189 138.631 239.778 138.055L241.557 136.327C242.748 135.181 243.944 134.048 245.154 132.928C244.117 134.215 243.074 135.488 242.018 136.749L240.431 138.631C239.9 139.258 239.362 139.872 238.882 140.544L235.887 144.448L234.376 146.387L232.975 148.403C232.047 149.747 231.106 151.091 230.159 152.416C229.237 153.767 228.405 155.175 227.528 156.544C225.704 159.251 224.2 162.157 222.562 164.973C219.503 170.733 216.802 176.679 214.568 182.81C212.38 188.954 210.543 195.258 209.621 201.786V201.799Z" fill="#EFA5BD"/>
<path opacity="0.1" d="M244.251 130.221C243.374 146.138 237.915 188.448 204.98 198.029C206.171 202.835 207.611 205.715 207.611 205.715C252.072 194.662 247.259 128.704 247.259 128.704C246.235 129.203 245.23 129.715 244.251 130.221Z" fill="#0046A0"/>
<path d="M201.289 222.592C201.289 222.592 204.585 208.499 218.364 191.418C233.462 172.704 253.155 165.971 261.327 174.963C269.263 183.693 262.518 195.757 242.083 201.92C221.647 208.083 210.095 210.739 201.289 222.592Z" fill="#9DA7B3"/>
<path d="M254.856 179.866C250.178 181.715 245.653 183.859 241.205 186.131C236.77 188.429 232.444 190.919 228.309 193.703C224.162 196.461 220.22 199.514 216.559 202.887C212.911 206.272 209.57 209.997 206.684 214.119C207.848 211.885 209.224 209.767 210.709 207.719C212.245 205.715 213.877 203.763 215.663 201.971C219.208 198.349 223.196 195.175 227.394 192.346C229.512 190.957 231.663 189.632 233.871 188.397C236.092 187.187 238.338 186.029 240.642 184.992C245.231 182.893 249.973 181.12 254.85 179.872L254.856 179.866Z" fill="#3B4F68"/>
<path opacity="0.1" d="M261.327 174.963C260.886 174.477 260.399 174.042 259.894 173.645C253.263 189.882 233.897 201.639 211.017 201.664C203.356 213.786 201.289 222.586 201.289 222.586C210.095 210.733 221.647 208.077 242.083 201.914C262.518 195.751 269.257 183.687 261.327 174.957V174.963Z" fill="#0046A0"/>
<path d="M82.6836 214.675C82.6836 214.675 35.1188 235.085 8.11719 170.598C8.11719 170.598 74.2484 169.645 82.6836 214.675Z" fill="#D81E5B"/>
<path d="M78.8817 212.442C72.2769 212.07 65.7937 210.304 59.5729 208.032C58.7985 207.744 58.0049 207.475 57.2369 207.162L54.9521 206.176L52.6673 205.184L50.4337 204.09C47.4257 202.669 44.5841 200.941 41.6977 199.302L37.5441 196.55C36.1425 195.661 34.8113 194.662 33.4993 193.658C32.1873 192.64 30.8433 191.667 29.5633 190.611C28.3025 189.536 27.0481 188.448 25.8065 187.354L23.9441 185.715L22.1777 183.968L18.6769 180.448C18.0881 179.872 17.5569 179.238 17.0129 178.611L15.3937 176.736C14.3185 175.482 13.2625 174.214 12.2129 172.947C13.4353 174.061 14.6513 175.174 15.8481 176.301L17.6337 177.997C18.2289 178.56 18.8113 179.136 19.4513 179.654L23.1697 182.867L25.0129 184.486L26.9393 186.003C28.2257 187.008 29.5121 188.026 30.7793 189.05C32.0721 190.048 33.4289 190.957 34.7473 191.917C37.3457 193.901 40.1553 195.565 42.8689 197.37C48.4369 200.762 54.2161 203.802 60.2065 206.387C66.2097 208.928 72.3985 211.13 78.8625 212.435L78.8817 212.442Z" fill="#EFA5BD"/>
<path opacity="0.1" d="M9.45479 173.689C25.2948 175.501 67.2148 183.417 74.8564 216.851C79.7204 215.949 82.6836 214.675 82.6836 214.675C74.2484 169.645 8.11719 170.598 8.11719 170.598C8.55879 171.654 9.00679 172.678 9.45479 173.689Z" fill="#0046A0"/>
<path d="M63.1259 197.299C63.1259 197.299 62.8955 182.823 53.0459 163.213C42.2555 141.722 24.4443 130.97 14.5499 138.029C4.94346 144.877 8.97546 158.093 27.6379 168.455C46.3003 178.81 57.0331 183.853 63.1259 197.306V197.299Z" fill="#9DA7B3"/>
<path d="M19.8301 144.186C24.0093 146.982 27.9773 150.042 31.8429 153.203C35.6893 156.39 39.3949 159.738 42.8381 163.334C46.3069 166.906 49.5133 170.726 52.3741 174.797C55.2221 178.88 57.6925 183.226 59.6445 187.872C58.9789 185.446 58.0829 183.078 57.0653 180.762C55.9901 178.477 54.8125 176.224 53.4429 174.093C50.7485 169.798 47.5229 165.85 44.0221 162.202C42.2493 160.397 40.4253 158.643 38.5245 156.973C36.6109 155.322 34.6589 153.709 32.6301 152.211C28.5917 149.184 24.3293 146.445 19.8301 144.192V144.186Z" fill="#3B4F68"/>
<path opacity="0.1" d="M14.5435 138.029C15.0811 137.645 15.6443 137.325 16.2267 137.05C19.2603 154.323 35.7019 169.92 58.0571 174.797C62.9787 188.269 63.1259 197.306 63.1259 197.306C57.0331 183.853 46.3067 178.81 27.6379 168.455C8.97546 158.099 4.94346 144.883 14.5499 138.029H14.5435Z" fill="#0046A0"/>
<path d="M194.87 211.315C194.352 214.739 190.915 217.542 187.222 217.542H78.1087C74.4223 217.542 70.9407 214.745 70.3775 211.328L52.3103 101.76C51.7471 98.3422 54.3007 95.5454 57.9935 95.5454H205.667C209.353 95.5454 211.952 98.3486 211.433 101.773L194.877 211.315H194.87Z" fill="#9DA7B3"/>
<path d="M167.49 58.9312H75.6055V188.371H187.964V79.712L167.49 58.9312Z" fill="#EFA5BD"/>
<path d="M167.49 58.9312L188.117 79.5583H167.49V58.9312Z" fill="#D81E5B"/>
<path d="M162.979 99.8655L153.814 90.7007L131.862 112.653L109.91 90.7007L100.752 99.8655L122.698 121.811L100.752 143.763L109.91 152.928L131.862 130.976L153.814 152.928L162.979 143.763L141.027 121.811L162.979 99.8655Z" fill="#D81E5B"/>
<path d="M142.524 133.139C139.625 133.139 136.559 130.88 135.701 128.109L131.49 114.458C130.639 111.686 127.567 109.421 124.668 109.421H49.8199C46.9207 109.421 44.9687 111.757 45.4743 114.605L63.7463 217.555C64.2519 220.41 67.0359 222.739 69.9351 222.739H199.593C202.492 222.739 205.231 220.397 205.685 217.536L218.255 138.221C218.709 135.36 216.706 133.024 213.813 133.024L142.524 133.127V133.139Z" fill="#CED3D9"/>
<path d="M124.289 181.389C124.289 177.382 125.883 174.259 129.064 172.019L130.593 170.957C132.046 170.016 133.057 169.241 133.627 168.627C134.197 168.019 134.485 167.264 134.485 166.361C134.485 164.083 132.577 162.944 128.769 162.944C127.003 162.944 125.173 163.181 123.291 163.654C121.409 164.128 119.617 164.793 117.928 165.657V156.582C121.544 154.931 125.589 154.105 130.069 154.105C134.901 154.105 138.734 155.117 141.557 157.139C144.385 159.161 145.8 161.958 145.8 165.536C145.8 167.539 145.345 169.158 144.443 170.4C143.541 171.635 142.005 173.024 139.848 174.553C138.395 175.616 137.333 176.429 136.667 176.998C136.001 177.568 135.496 178.208 135.163 178.912C134.83 179.622 134.664 180.486 134.664 181.504V182.624H124.289V181.389ZM125.499 195.501C124.456 194.457 123.937 193.171 123.937 191.641C123.937 190.112 124.456 188.774 125.499 187.75C126.536 186.726 127.848 186.221 129.416 186.221C130.984 186.221 132.257 186.739 133.333 187.782C134.414 188.825 134.952 190.112 134.952 191.641C134.952 193.171 134.408 194.457 133.333 195.501C132.251 196.544 130.945 197.062 129.416 197.062C127.886 197.062 126.536 196.544 125.499 195.501Z" fill="#FDF1F5"/>
<path opacity="0.1" d="M213.814 133.037L205.705 133.05C205.884 134.919 205.98 136.8 205.98 138.701C205.98 181.216 160.476 215.687 104.342 215.687C89.3018 215.687 75.0298 213.21 62.1914 208.775L63.753 217.568C64.2586 220.423 67.0426 222.752 69.9418 222.752H199.599C202.499 222.752 205.238 220.41 205.692 217.549L218.262 138.234C218.716 135.373 216.713 133.037 213.82 133.037H213.814Z" fill="#0046A0"/>
<g opacity="0.3">
<path d="M58.0631 124.704C58.4471 127.29 58.8311 129.875 59.2215 132.455C60.1367 138.605 61.0583 144.755 61.9735 150.906C63.0871 158.394 64.2071 165.882 65.3271 173.37C66.2871 179.802 67.2471 186.227 68.2007 192.659C68.5207 194.797 68.8407 196.935 69.1543 199.066C69.3015 200.071 69.3911 201.107 69.6087 202.099C69.6151 202.144 69.6215 202.189 69.6279 202.227C69.7623 203.111 70.8695 203.591 71.6503 203.379C72.5911 203.123 72.9303 202.24 72.8023 201.357C72.4183 198.771 72.0343 196.186 71.6439 193.607C70.7287 187.456 69.8071 181.306 68.8919 175.155C67.7719 167.667 66.6583 160.179 65.5383 152.691C64.5783 146.259 63.6183 139.834 62.6647 133.402C62.3447 131.264 62.0247 129.127 61.7111 126.995C61.5639 125.991 61.4743 124.954 61.2567 123.962C61.2503 123.917 61.2439 123.872 61.2375 123.834C61.1031 122.951 59.9959 122.471 59.2151 122.682C58.2743 122.938 57.9351 123.821 58.0631 124.704Z" fill="#FDF1F5"/>
</g>
<path d="M238.746 67.7056C228.628 67.7056 220.43 75.9104 220.43 86.0224C220.43 90.5472 222.068 94.6816 224.788 97.8752L224.02 107.309L232.775 103.341C234.65 103.987 236.66 104.346 238.753 104.346C248.871 104.346 257.07 96.1408 257.07 86.0288C257.07 75.9168 248.865 67.712 238.753 67.712L238.746 67.7056Z" fill="#1CC2C4"/>
<path d="M237.48 95.4048C237.147 95.072 236.981 94.656 236.981 94.1632C236.981 93.6704 237.147 93.2544 237.48 92.9216C237.813 92.5888 238.229 92.416 238.722 92.416C239.215 92.416 239.631 92.5824 239.976 92.9216C240.322 93.2544 240.495 93.6704 240.495 94.1632C240.495 94.656 240.322 95.072 239.976 95.4048C239.631 95.7376 239.215 95.9104 238.722 95.9104C238.229 95.9104 237.813 95.744 237.48 95.4048ZM236.443 74.8032H241.058L240.2 89.5552H237.301L236.443 74.8032Z" fill="#FDF1F5"/>
<path opacity="0.1" d="M228.711 95.7312C226.72 95.7312 224.781 95.5584 222.912 95.2256C223.463 96.1664 224.09 97.0496 224.787 97.8752L224.019 107.309L232.775 103.341C234.65 103.987 236.659 104.346 238.752 104.346C248.871 104.346 257.069 96.1408 257.069 86.0288C257.069 83.5776 256.583 81.2416 255.712 79.104C252.045 88.7552 241.351 95.7376 228.717 95.7376L228.711 95.7312Z" fill="#0046A0"/>
<path d="M51.0617 62.7522V45.3826C51.0617 43.2962 49.3529 41.5874 47.2665 41.5874H15.6057C13.5193 41.5874 11.8105 43.2962 11.8105 45.3826V67.2706C11.8105 69.357 13.5193 71.0658 15.6057 71.0658H60.1945L51.0617 62.7522Z" fill="#FAB365"/>
<path d="M26.1467 53.8884C26.1467 55.5524 25.1803 56.9028 23.9835 56.9028C22.7867 56.9028 21.8203 55.5524 21.8203 53.8884C21.8203 52.2244 22.7867 50.874 23.9835 50.874C25.1803 50.874 26.1467 52.2244 26.1467 53.8884Z" fill="#FDF1F5"/>
<path d="M40.5217 53.8884C40.5217 55.5524 39.5553 56.9028 38.3585 56.9028C37.1617 56.9028 36.1953 55.5524 36.1953 53.8884C36.1953 52.2244 37.1617 50.874 38.3585 50.874C39.5553 50.874 40.5217 52.2244 40.5217 53.8884Z" fill="#FDF1F5"/>
<path d="M26.2169 62.3238C26.9593 61.511 27.9897 60.871 29.0137 60.5062C31.6121 59.5718 34.1209 60.551 36.0985 62.3238C36.6297 62.7974 37.4105 62.0166 36.8793 61.543C34.6841 59.5718 31.8425 58.4134 28.9241 59.367C27.6441 59.783 26.3449 60.5382 25.4297 61.543C24.9497 62.0678 25.7305 62.855 26.2105 62.3238H26.2169Z" fill="#FDF1F5"/>
<path opacity="0.1" d="M51.0614 62.7522V45.3826C51.0614 43.2962 49.3526 41.5874 47.2662 41.5874H44.0214C44.5846 43.6482 44.8854 45.7922 44.8854 47.9874C44.8854 57.2162 39.6438 65.4786 31.375 71.0658H60.1942L51.0614 62.7522Z" fill="#0046A0"/>
<path d="M160.468 160.039C150.318 170.189 150.318 186.656 160.468 196.807C170.619 206.957 187.086 206.957 197.236 196.807C207.387 186.656 207.387 170.189 197.236 160.039C187.086 149.888 170.619 149.888 160.468 160.039ZM194.254 193.824C185.748 202.33 171.956 202.33 163.444 193.824C154.939 185.319 154.939 171.527 163.444 163.015C171.95 154.509 185.742 154.509 194.254 163.015C202.759 171.52 202.759 185.312 194.254 193.824Z" fill="#D81E5B"/>
<path opacity="0.3" d="M178.848 200.211C190.88 200.211 200.634 190.458 200.634 178.426C200.634 166.394 190.88 156.64 178.848 156.64C166.816 156.64 157.062 166.394 157.062 178.426C157.062 190.458 166.816 200.211 178.848 200.211Z" fill="#FDF1F5"/>
<path d="M196.534 192.845L193.275 196.103L222.754 225.582L226.013 222.324L196.534 192.845Z" fill="#D81E5B"/>
<path d="M196.532 192.853L193.273 196.111L204.13 206.967L207.388 203.709L196.532 192.853Z" fill="#D81E5B"/>
<path d="M166.164 169.466C166.99 167.079 168.801 165.152 170.983 163.815C173.178 162.483 175.777 161.773 178.382 161.773C180.986 161.767 183.591 162.477 185.786 163.808C187.969 165.146 189.78 167.079 190.599 169.466C188.218 168.659 186.202 168.026 184.199 167.635C182.215 167.232 180.302 167.047 178.382 167.04C176.462 167.04 174.542 167.226 172.558 167.629C170.554 168.019 168.538 168.659 166.164 169.466Z" fill="#FDF1F5"/>
</svg>
