<?xml version="1.0" encoding="utf-8"?>
<!-- Generator: Adobe Illustrator 16.0.0, SVG Export Plug-In . SVG Version: 6.00 Build 0)  -->
<!DOCTYPE svg PUBLIC "-//W3C//DTD SVG 1.1//EN" "http://www.w3.org/Graphics/SVG/1.1/DTD/svg11.dtd">
<svg version="1.1" id="Layer_1" xmlns="http://www.w3.org/2000/svg" xmlns:xlink="http://www.w3.org/1999/xlink" x="0px" y="0px"
	 width="787px" height="250px" viewBox="0 0 787 250" enable-background="new 0 0 787 250" xml:space="preserve">
<g>
	<g>
		<linearGradient id="SVGID_1_" gradientUnits="userSpaceOnUse" x1="25.9229" y1="128.6992" x2="192.9229" y2="128.6992">
			<stop  offset="0" style="stop-color:#474747"/>
			<stop  offset="0.8829" style="stop-color:#606060"/>
			<stop  offset="1" style="stop-color:#646464"/>
		</linearGradient>
		<path fill="url(#SVGID_1_)" d="M169.923,117.148v67.205c0,2.01-1.418,4.346-3.426,4.346H54.31c-2.008,0-4.387-2.336-4.387-4.346
			V71.227c0-2.009,2.379-3.527,4.387-3.527h117.844l-11.783-23H54.31c-15.037,0-28.387,11.489-28.387,26.527v113.127
			c0,15.038,13.35,28.346,28.387,28.346h112.188c15.037,0,26.426-13.308,26.426-28.346v-91.09L169.923,117.148z"/>
		<linearGradient id="SVGID_2_" gradientUnits="userSpaceOnUse" x1="80.333" y1="100.0449" x2="111.1105" y2="46.8277">
			<stop  offset="0" style="stop-color:#D6D6D6;stop-opacity:0"/>
			<stop  offset="0.1508" style="stop-color:#BDBDBD;stop-opacity:0.1508"/>
			<stop  offset="0.4727" style="stop-color:#7B7B7B;stop-opacity:0.4727"/>
			<stop  offset="0.9371" style="stop-color:#141414;stop-opacity:0.9371"/>
			<stop  offset="1" style="stop-color:#050505"/>
		</linearGradient>
		<path fill="url(#SVGID_2_)" d="M49.923,96.006V71.227c0-2.009,2.379-3.527,4.387-3.527h119.668l-65.223-23H54.31
			c-15.037,0-28.387,11.489-28.387,26.527v16.451L49.923,96.006z"/>
		<linearGradient id="SVGID_3_" gradientUnits="userSpaceOnUse" x1="90.5908" y1="160.8223" x2="135.6305" y2="30.5076">
			<stop  offset="0" style="stop-color:#CECECE"/>
			<stop  offset="1" style="stop-color:#D6D6D6"/>
		</linearGradient>
		<path fill-rule="evenodd" clip-rule="evenodd" fill="url(#SVGID_3_)" d="M190.603,62.648
			c-4.563-10.127-12.607-16.621-22.979-17.894L55.69,44.953c49.82,6.302,110.375,23.505,110.375,23.505l0,0
			c1.166,0.562,2.166,1.691,2.896,3.167c1.852,3.732,0.252,6.84-2.457,9.627c-15.094,15.512-30.205,30.929-45.266,46.472
			c-1.295,1.339-2.66,2.419-4.02,2.726l-12.098-11.75H72.585h-2.551l14.586,13.678l0.008-0.04
			c9.32,9.049,18.734,17.981,27.826,27.255c4.246,4.328,6.971,3.774,10.93-0.352c19.77-20.605,39.855-40.811,59.689-61.355
			C192.812,87.799,196.755,76.297,190.603,62.648z"/>
	</g>
</g>
<g>
	<path fill="#6D6D6D" d="M274.156,184.781H245.59V73.692h88.077v22.219h-59.511v26.185h46.815v22.219h-46.815V184.781z"/>
	<path fill="#6D6D6D" d="M386.038,184.781c-7.094,1.056-13.835,1.585-20.236,1.585s-11.772-2.165-16.105-6.506
		c-4.34-4.336-6.509-10.1-6.509-17.298v-88.87h27.773v84.903c0,1.59,0.527,2.912,1.588,3.967c1.056,1.062,2.379,1.59,3.964,1.59
		h9.525V184.781z"/>
	<path fill="#6D6D6D" d="M432.058,103.847v80.935h-27.774V125.27h-11.9v-21.423H432.058z M404.283,72.106h27.774v22.22h-27.774
		V72.106z"/>
	<path fill="#6D6D6D" d="M522.514,183.196c-19.786,2.112-37.242,3.17-52.37,3.17c-7.194,0-12.959-2.165-17.298-6.506
		c-4.339-4.336-6.507-10.1-6.507-17.298v-36.5c0-7.934,2.244-14.146,6.745-18.645c4.494-4.498,10.711-6.744,18.647-6.744h50.782
		v21.422h-42.055c-4.233,0-6.349,2.119-6.349,6.349v30.944c0,1.589,0.53,2.912,1.588,3.971c1.056,1.057,2.382,1.585,3.967,1.585
		c9.523,0,23.804-0.792,42.849-2.382V183.196z"/>
	<path fill="#6D6D6D" d="M562.98,151.455v33.326h-27.774V73.692h27.774v56.337h12.696l17.456-29.355h29.358l-23.804,40.467
		l23.804,43.641h-29.358l-18.252-33.326H562.98z"/>
	<path fill="#6D6D6D" d="M665.337,103.847v80.935h-27.771V125.27h-11.903v-21.423H665.337z M637.566,72.106h27.771v22.22h-27.771
		V72.106z"/>
	<path fill="#6D6D6D" d="M739.923,184.781c-10.261,1.056-20.313,1.585-30.151,1.585c-7.195,0-12.962-2.165-17.298-6.506
		c-4.34-4.336-6.506-10.1-6.506-17.298v-40.467h-9.523v-21.422h9.523l3.173-19.045h24.598v19.045h19.837v21.422h-19.837v36.5
		c0,1.59,0.527,2.912,1.588,3.967c1.056,1.062,2.379,1.59,3.967,1.59h20.63V184.781z"/>
</g>
</svg>
