<svg width="31" height="37" viewBox="0 0 31 37" fill="none" xmlns="http://www.w3.org/2000/svg">
<g opacity="0.5">
<path opacity="0.5" d="M21.0391 7.4231C20.2188 7.42231 19.4322 7.09619 18.8521 6.51631C18.2721 5.93643 17.9458 5.15018 17.945 4.33011V0.0371097H4.12052C3.59012 0.0369126 3.06487 0.141175 2.57479 0.343939C2.08471 0.546704 1.63939 0.844001 1.26427 1.21884C0.889153 1.59369 0.591584 2.03873 0.388563 2.52856C0.185543 3.01839 0.0810547 3.5434 0.0810547 4.0736V28.4066C0.0826453 29.4764 0.508979 30.5017 1.2664 31.2575C2.02381 32.0132 3.05037 32.4375 4.12052 32.4371H20.7165C21.7875 32.4371 22.8145 32.0118 23.5718 31.2548C24.3291 30.4978 24.7545 29.4711 24.7545 28.4006V7.4231H21.0391Z" fill="#2B333B"/>
</g>
<path d="M24.7548 7.4231H21.0394C20.2191 7.42231 19.4325 7.09619 18.8525 6.51631C18.2724 5.93643 17.9461 5.15018 17.9453 4.33011V0.0371094L24.7548 7.4231Z" fill="#2B333B"/>
<path d="M27.6834 25.6271H8.92061C7.58968 25.6271 6.51074 26.7056 6.51074 28.0361V33.6281C6.51074 34.9585 7.58968 36.0371 8.92061 36.0371H27.6834C29.0143 36.0371 30.0933 34.9585 30.0933 33.6281V28.0361C30.0933 26.7056 29.0143 25.6271 27.6834 25.6271Z" fill="#2B333B"/>
<path d="M13.6553 32.0426V33.1331H12.5254V32.0426H13.6553Z" fill="white"/>
<path d="M17.7329 28.9871C18.097 29.2594 18.3417 29.662 18.4156 30.1106H17.2602C17.1845 29.9494 17.0622 29.8146 16.9091 29.7236C16.7378 29.6216 16.5413 29.5697 16.3419 29.5736C16.1867 29.5672 16.0319 29.5949 15.8885 29.6547C15.7451 29.7146 15.6167 29.8052 15.5121 29.9201C15.2923 30.1832 15.1803 30.5198 15.1985 30.8621C15.1985 31.2911 15.308 31.6206 15.5271 31.8506C15.6505 31.9701 15.7976 32.0626 15.9588 32.122C16.1201 32.1814 16.2919 32.2065 16.4634 32.1956C16.7082 32.1998 16.9478 32.1246 17.1462 31.9811C17.3478 31.8294 17.4934 31.6152 17.5603 31.3721H16.1813V30.5876H18.4727V31.6871C18.3851 31.9556 18.2465 32.2046 18.0645 32.4206C17.8677 32.653 17.623 32.8402 17.3473 32.9696C17.0342 33.1139 16.6926 33.1857 16.3479 33.1796C15.9291 33.1904 15.5148 33.09 15.1475 32.8886C14.8112 32.6997 14.537 32.4173 14.3582 32.0756C14.1686 31.7071 14.0733 31.2974 14.0806 30.8831C14.0723 30.4663 14.1677 30.0539 14.3582 29.6831C14.5366 29.3422 14.8096 29.0599 15.1445 28.8701C15.5066 28.6707 15.9151 28.5708 16.3284 28.5806C16.8288 28.5561 17.323 28.6991 17.7329 28.9871Z" fill="white"/>
<path d="M20.1768 28.6226V33.1331H19.0859V28.6226H20.1768Z" fill="white"/>
<path d="M23.8742 28.6226V29.4911H22.0225V30.4871H23.4526V31.3166H22.0225V33.1406H20.9316V28.6301L23.8742 28.6226Z" fill="white"/>
<path d="M11.7314 23.2016C10.0943 23.1996 8.52492 22.5486 7.36737 21.3915C6.20981 20.2343 5.55863 18.6655 5.55664 17.0291C5.55863 15.3926 6.20981 13.8238 7.36737 12.6666C8.52492 11.5095 10.0943 10.8586 11.7314 10.8566C13.3684 10.8586 14.9378 11.5095 16.0954 12.6666C17.2529 13.8238 17.9041 15.3926 17.9061 17.0291C17.9041 18.6655 17.2529 20.2343 16.0954 21.3915C14.9378 22.5486 13.3684 23.1996 11.7314 23.2016ZM11.7314 11.9381C10.3814 11.9404 9.0874 12.4776 8.13282 13.4318C7.17825 14.386 6.64091 15.6796 6.63853 17.0291C6.64091 18.3786 7.17825 19.6721 8.13282 20.6263C9.0874 21.5805 10.3814 22.1177 11.7314 22.1201C13.0814 22.1177 14.3754 21.5805 15.3299 20.6263C16.2845 19.6721 16.8218 18.3786 16.8242 17.0291C16.8218 15.6796 16.2845 14.386 15.3299 13.4318C14.3754 12.4776 13.0814 11.9404 11.7314 11.9381Z" fill="#2B333B"/>
<path d="M11.7314 20.4882C11.0258 20.4892 10.3309 20.3159 9.70838 19.9838C9.08588 19.6518 8.55505 19.1711 8.16309 18.5847L9.06341 17.9847C9.3562 18.4228 9.7526 18.7819 10.2175 19.0302C10.6823 19.2785 11.2013 19.4083 11.7284 19.4082C12.2556 19.4084 12.7748 19.2785 13.2397 19.0299C13.7046 18.7813 14.1009 18.4217 14.3933 17.9832L15.2937 18.5832C14.9025 19.1692 14.3728 19.6496 13.7514 19.982C13.13 20.3143 12.4361 20.4881 11.7314 20.4882Z" fill="#2B333B"/>
<path d="M10.0195 16.0826C10.4165 16.0826 10.7383 15.761 10.7383 15.3641C10.7383 14.9673 10.4165 14.6456 10.0195 14.6456C9.62258 14.6456 9.30078 14.9673 9.30078 15.3641C9.30078 15.761 9.62258 16.0826 10.0195 16.0826Z" fill="#2B333B"/>
<path d="M13.4434 16.0826C13.8403 16.0826 14.1621 15.761 14.1621 15.3641C14.1621 14.9673 13.8403 14.6456 13.4434 14.6456C13.0464 14.6456 12.7246 14.9673 12.7246 15.3641C12.7246 15.761 13.0464 16.0826 13.4434 16.0826Z" fill="#2B333B"/>
</svg>
