<svg width="31" height="37" viewBox="0 0 31 37" fill="none" xmlns="http://www.w3.org/2000/svg">
<g opacity="0.5">
<path opacity="0.5" d="M21.0909 7.42311C20.2704 7.42271 19.4837 7.09672 18.9035 6.51675C18.3233 5.93679 17.9972 5.1503 17.9968 4.33011V0.0371094H4.1708C3.6404 0.0371093 3.1152 0.14156 2.6252 0.344507C2.13519 0.547454 1.68995 0.844915 1.31497 1.2199C0.939988 1.59488 0.642611 2.04004 0.439772 2.52994C0.236934 3.01985 0.132616 3.54491 0.132813 4.07512V28.4066C0.132616 28.9368 0.236934 29.4619 0.439772 29.9518C0.642611 30.4417 0.939988 30.8868 1.31497 31.2618C1.68995 31.6368 2.13519 31.9342 2.6252 32.1372C3.1152 32.3401 3.6404 32.4446 4.1708 32.4446H20.7668C21.2972 32.4446 21.8224 32.3401 22.3124 32.1372C22.8024 31.9342 23.2476 31.6368 23.6226 31.2618C23.9976 30.8868 24.295 30.4417 24.4978 29.9518C24.7007 29.4619 24.805 28.9368 24.8048 28.4066V7.42461L21.0909 7.42311Z" fill="#2B333B"/>
</g>
<path d="M24.8051 7.42311H21.0912C20.2707 7.42271 19.4839 7.09672 18.9038 6.51675C18.3236 5.93679 17.9975 5.1503 17.9971 4.33011V0.0371094L24.8051 7.42311Z" fill="#2B333B"/>
<path d="M27.7342 25.6271H8.97141C7.64047 25.6271 6.56152 26.7056 6.56152 28.0361V33.6281C6.56152 34.9585 7.64047 36.0371 8.97141 36.0371H27.7342C29.0651 36.0371 30.1441 34.9585 30.1441 33.6281V28.0361C30.1441 26.7056 29.0651 25.6271 27.7342 25.6271Z" fill="#2B333B"/>
<path d="M12.7705 32.0426V33.1346H11.6406V32.0426H12.7705Z" fill="white"/>
<path d="M16.1237 28.6241V31.7052C16.1237 32.1782 15.9951 32.5417 15.738 32.7957C15.5945 32.9279 15.4258 33.03 15.242 33.0957C15.0582 33.1614 14.863 33.1894 14.6681 33.1781C14.4547 33.1896 14.2411 33.1586 14.0397 33.0871C13.8383 33.0155 13.653 32.9047 13.4947 32.7612C13.2056 32.4822 13.0606 32.0822 13.0596 31.5612H14.1385C14.1385 31.9827 14.299 32.1927 14.6171 32.1927C14.8947 32.1927 15.0328 32.0307 15.0328 31.7082V28.6271L16.1237 28.6241Z" fill="white"/>
<path d="M17.9337 31.5521V33.1347H16.8428V28.6241H18.6104C19.1456 28.6241 19.5537 28.7566 19.8348 29.0216C19.9771 29.161 20.0882 29.3289 20.1609 29.5143C20.2336 29.6996 20.2662 29.8983 20.2565 30.0972C20.2606 30.3592 20.1959 30.6178 20.0689 30.8472C19.9383 31.0708 19.744 31.2504 19.5107 31.3631C19.2298 31.4964 18.9213 31.5612 18.6104 31.5521H17.9337ZM19.1461 30.0972C19.1461 29.6972 18.927 29.4972 18.4889 29.4972H17.9337V30.6716H18.4889C18.927 30.6756 19.1461 30.4842 19.1461 30.0972Z" fill="white"/>
<path d="M24.3038 28.9871C24.6671 29.2602 24.9115 29.6624 24.9866 30.1106H23.8311C23.7529 29.9536 23.6296 29.8236 23.477 29.7371C23.3051 29.635 23.1081 29.5831 22.9083 29.5871C22.7531 29.5808 22.5985 29.6087 22.4553 29.6688C22.3122 29.729 22.184 29.8199 22.08 29.9351C21.8599 30.1975 21.7478 30.5337 21.7664 30.8756C21.7664 31.3046 21.8759 31.6341 22.095 31.8641C22.2182 31.9835 22.365 32.0759 22.526 32.1353C22.687 32.1947 22.8586 32.2199 23.0298 32.2091C23.2747 32.2136 23.5143 32.1383 23.7126 31.9946C23.9151 31.8435 24.0613 31.6292 24.1283 31.3856H22.7492V30.6011H25.0406V31.6796C24.953 31.9481 24.8144 32.1971 24.6324 32.4131C24.4353 32.6458 24.1901 32.8331 23.9136 32.9621C23.6011 33.1064 23.26 33.1782 22.9158 33.1721C22.4971 33.1831 22.083 33.0832 21.7154 32.8826C21.3791 32.6935 21.1053 32.4105 20.9276 32.0681C20.7366 31.6974 20.6412 31.285 20.65 30.8681C20.6425 30.4538 20.7379 30.044 20.9276 29.6756C21.105 29.334 21.3775 29.0511 21.7124 28.8611C22.0746 28.6621 22.483 28.5622 22.8963 28.5716C23.3986 28.5497 23.8939 28.6959 24.3038 28.9871Z" fill="white"/>
<path d="M15.7833 21.9986H9.1554C8.50656 21.9978 7.88451 21.7398 7.42571 21.2812C6.96691 20.8225 6.7088 20.2007 6.70801 19.5521V12.9266C6.7088 12.278 6.96691 11.6562 7.42571 11.1975C7.88451 10.7389 8.50656 10.4809 9.1554 10.4801H15.7833C16.432 10.4809 17.0539 10.739 17.5124 11.1976C17.971 11.6563 18.2288 12.2781 18.2292 12.9266V19.5521C18.2288 20.2006 17.971 20.8224 17.5124 21.2811C17.0539 21.7397 16.432 21.9978 15.7833 21.9986ZM9.1554 11.5616C8.79337 11.562 8.44627 11.7059 8.19027 11.9618C7.93428 12.2177 7.79029 12.5647 7.78989 12.9266V19.5521C7.79029 19.914 7.93428 20.261 8.19027 20.5169C8.44627 20.7728 8.79337 20.9167 9.1554 20.9171H15.7833C16.1452 20.9167 16.4921 20.7727 16.7479 20.5168C17.0036 20.2608 17.1473 19.9139 17.1473 19.5521V12.9266C17.1473 12.5649 17.0036 12.2179 16.7479 11.9619C16.4921 11.706 16.1452 11.562 15.7833 11.5616H9.1554Z" fill="#2B333B"/>
<path d="M17.6883 18.2921V19.5521C17.6879 20.0572 17.487 20.5415 17.1297 20.8987C16.7724 21.2558 16.2879 21.4567 15.7826 21.4571H9.15471C8.64929 21.4571 8.16457 21.2564 7.80718 20.8991C7.4498 20.5419 7.24902 20.0573 7.24902 19.5521V17.4371C8.30991 17.2091 9.92598 17.1371 11.8872 17.9201L13.1026 16.7621L13.9309 18.8621C13.9309 18.8621 14.153 18.0896 14.8703 18.1991C15.5875 18.3086 16.7489 18.6971 17.2456 18.3656C17.3794 18.2884 17.5367 18.2623 17.6883 18.2921Z" fill="#2B333B"/>
<path d="M15.3686 14.2796C15.7755 14.2796 16.1054 13.9499 16.1054 13.5431C16.1054 13.1364 15.7755 12.8066 15.3686 12.8066C14.9617 12.8066 14.6318 13.1364 14.6318 13.5431C14.6318 13.9499 14.9617 14.2796 15.3686 14.2796Z" fill="#2B333B"/>
</svg>
