<svg width="263" height="118" viewBox="0 0 263 118" fill="none" xmlns="http://www.w3.org/2000/svg">
<g filter="url(#filter0_d_5845_7985)">
<path d="M139.249 98H117.374C116.96 98 116.562 98.1646 116.269 98.4576C115.976 98.7507 115.812 99.1481 115.812 99.5625C115.812 99.9769 115.976 100.374 116.269 100.667C116.562 100.96 116.96 101.125 117.374 101.125H139.249C139.664 101.125 140.061 100.96 140.354 100.667C140.647 100.374 140.812 99.9769 140.812 99.5625C140.812 99.1481 140.647 98.7507 140.354 98.4576C140.061 98.1646 139.664 98 139.249 98ZM139.249 91.75H117.374C116.96 91.75 116.562 91.9146 116.269 92.2076C115.976 92.5007 115.812 92.8981 115.812 93.3125C115.812 93.7269 115.976 94.1243 116.269 94.4174C116.562 94.7104 116.96 94.875 117.374 94.875H139.249C139.664 94.875 140.061 94.7104 140.354 94.4174C140.647 94.1243 140.812 93.7269 140.812 93.3125C140.812 92.8981 140.647 92.5007 140.354 92.2076C140.061 91.9146 139.664 91.75 139.249 91.75ZM125.379 113.625H131.245C133.593 113.625 135.698 112.405 136.898 110.5H119.727C120.328 111.457 121.161 112.246 122.15 112.792C123.138 113.339 124.249 113.625 125.379 113.625ZM99.7289 54.7078L103.312 58.2906V55.8125C103.312 55.3981 103.476 55.0007 103.769 54.7076C104.062 54.4146 104.46 54.25 104.874 54.25H111.124C112.915 54.2425 114.643 53.5932 115.995 52.42C117.348 51.2468 118.234 49.6276 118.495 47.8563L120.426 34.3328C120.57 33.3132 120.494 32.2746 120.203 31.2869C119.912 30.2992 119.412 29.3855 118.737 28.6075C118.062 27.8295 117.229 27.2053 116.292 26.7771C115.356 26.3488 114.338 26.1264 113.309 26.125H90.1899C89.16 26.1262 88.1424 26.3484 87.2057 26.7766C86.2691 27.2048 85.4352 27.8289 84.7604 28.6069C84.0856 29.385 83.5856 30.2987 83.2942 31.2865C83.0028 32.2743 82.9267 33.3131 83.0711 34.3328L85.0039 47.8563C85.2642 49.6276 86.151 51.2468 87.5033 52.42C88.8557 53.5932 90.5839 54.2425 92.3742 54.25H98.6242C99.0399 54.25 99.4367 54.4141 99.7289 54.7078ZM95.4992 33.9375H115.812V37.0625H95.4992V33.9375ZM87.6867 46.4375V43.3125H115.812V46.4375H87.6867ZM139.249 104.25H117.374C116.96 104.25 116.562 104.415 116.269 104.708C115.976 105.001 115.812 105.398 115.812 105.812C115.812 106.227 115.976 106.624 116.269 106.917C116.562 107.21 116.96 107.375 117.374 107.375H139.249C139.664 107.375 140.061 107.21 140.354 106.917C140.647 106.624 140.812 106.227 140.812 105.812C140.812 105.398 140.647 105.001 140.354 104.708C140.061 104.415 139.664 104.25 139.249 104.25Z" fill="url(#paint0_radial_5845_7985)"/>
<path d="M114.249 69.875C115.112 69.875 115.812 69.1754 115.812 68.3125C115.812 67.4496 115.112 66.75 114.249 66.75C113.386 66.75 112.687 67.4496 112.687 68.3125C112.687 69.1754 113.386 69.875 114.249 69.875Z" fill="url(#paint1_radial_5845_7985)"/>
<path d="M159.562 54.25C159.562 37.0188 145.543 23 128.312 23C124.993 23 121.766 23.5172 118.674 24.5219C120.397 25.5703 121.774 27.101 122.635 28.9242C123.496 30.7475 123.804 32.7834 123.52 34.7797L121.59 48.3C120.851 53.4734 116.352 57.375 111.124 57.375H106.437V62.0625C106.437 62.3718 106.346 62.6744 106.175 62.9317C106.003 63.1891 105.759 63.3897 105.473 63.5081C105.187 63.6264 104.873 63.6572 104.569 63.5965C104.266 63.5358 103.988 63.3864 103.77 63.1672L97.9773 57.375H97.2211C98.1133 66.4016 102.834 74.5 110.351 79.7859C113.496 81.9959 115.938 85.0644 117.387 88.625H139.237C140.685 85.0644 143.128 81.9959 146.273 79.7859C150.372 76.9058 153.719 73.0827 156.031 68.6386C158.344 64.1946 159.555 59.2598 159.562 54.25ZM114.249 73C111.665 73 109.562 70.8969 109.562 68.3125C109.562 65.7281 111.665 63.625 114.249 63.625C116.834 63.625 118.937 65.7281 118.937 68.3125C118.937 70.8969 116.834 73 114.249 73ZM128.312 73C125.727 73 123.624 70.8969 123.624 68.3125C123.624 65.7281 125.727 63.625 128.312 63.625C130.896 63.625 132.999 65.7281 132.999 68.3125C132.999 70.8969 130.896 73 128.312 73ZM142.374 73C139.79 73 137.687 70.8969 137.687 68.3125C137.687 65.7281 139.79 63.625 142.374 63.625C144.959 63.625 147.062 65.7281 147.062 68.3125C147.062 70.8969 144.959 73 142.374 73Z" fill="url(#paint2_radial_5845_7985)"/>
<path d="M142.374 69.875C143.237 69.875 143.937 69.1754 143.937 68.3125C143.937 67.4496 143.237 66.75 142.374 66.75C141.511 66.75 140.812 67.4496 140.812 68.3125C140.812 69.1754 141.511 69.875 142.374 69.875Z" fill="url(#paint3_radial_5845_7985)"/>
<path d="M166.434 57.375H162.527C162.283 60.0349 161.728 62.657 160.873 65.1875H168.937V68.3125H159.659C158.661 70.5191 157.433 72.6141 155.995 74.5625H168.937V77.6875H153.401C151.789 79.4182 150.003 80.978 148.071 82.3422C146.831 83.2171 145.714 84.2551 144.751 85.4281C145.001 85.4531 145.246 85.5 145.499 85.5H151.749C152.164 85.5 152.561 85.6646 152.854 85.9576C153.147 86.2507 153.312 86.6481 153.312 87.0625V89.5406L156.895 85.9578C157.039 85.8124 157.212 85.6971 157.401 85.6186C157.591 85.54 157.794 85.4997 157.999 85.5H164.249C166.04 85.4925 167.768 84.8432 169.12 83.67C170.473 82.4968 171.359 80.8776 171.62 79.1063L173.552 65.5813C173.697 64.5617 173.62 63.523 173.329 62.5354C173.037 61.5478 172.537 60.6343 171.862 59.8564C171.188 59.0786 170.354 58.4546 169.417 58.0265C168.481 57.5984 167.463 57.3763 166.434 57.375Z" fill="url(#paint4_radial_5845_7985)"/>
<path d="M128.312 69.875C129.175 69.875 129.874 69.1754 129.874 68.3125C129.874 67.4496 129.175 66.75 128.312 66.75C127.449 66.75 126.749 67.4496 126.749 68.3125C126.749 69.1754 127.449 69.875 128.312 69.875Z" fill="url(#paint5_radial_5845_7985)"/>
</g>
<g opacity="0.5" filter="url(#filter1_f_5845_7985)">
<path fill-rule="evenodd" clip-rule="evenodd" d="M25.4058 47.8787L29.5619 52V49.1494C29.5619 48.6727 29.7528 48.2156 30.0928 47.8785C30.4327 47.5414 30.8937 47.3521 31.3744 47.3521H38.6245C40.7013 47.3434 42.706 46.5965 44.2748 45.247C45.8436 43.8975 46.8723 42.0349 47.1741 39.9974L49.4144 24.4414C49.5819 23.2686 49.4937 22.0738 49.1558 20.9377C48.8178 19.8016 48.238 18.7506 47.4554 17.8557C46.6729 16.9607 45.7058 16.2427 44.6195 15.7501C43.5332 15.2575 42.3529 15.0017 41.1584 15H14.3403C13.1457 15.0014 11.9652 15.257 10.8787 15.7495C9.79215 16.242 8.82485 16.96 8.04209 17.855C7.25933 18.7499 6.67934 19.801 6.34128 20.9373C6.00323 22.0735 5.91498 23.2685 6.0825 24.4414L8.32459 39.9974C8.62646 42.0349 9.65517 43.8975 11.2239 45.247C12.7927 46.5965 14.7975 47.3434 16.8742 47.3521H24.1243C24.6065 47.3521 25.0668 47.5408 25.4058 47.8787ZM16.4401 24.2024H40.8004V27.6533H16.4401V24.2024ZM12.9601 34.555H44.2804V38.0059H12.9601V34.555Z" fill="#F9FAFB"/>
</g>
<g opacity="0.8" filter="url(#filter2_f_5845_7985)">
<path fill-rule="evenodd" clip-rule="evenodd" d="M57.1725 87.5495L59.6437 90V88.3051C59.6437 88.0216 59.7572 87.7498 59.9593 87.5494C60.1614 87.349 60.4356 87.2364 60.7214 87.2364H65.0323C66.2671 87.2312 67.4591 86.7871 68.3919 85.9847C69.3247 85.1823 69.9363 84.0748 70.1158 82.8633L71.4479 73.6138C71.5475 72.9165 71.495 72.206 71.2941 71.5305C71.0932 70.855 70.7484 70.2301 70.2831 69.698C69.8178 69.1658 69.2428 68.7389 68.5968 68.446C67.9509 68.1531 67.2492 68.001 66.5389 68H50.593C49.8827 68.0008 49.1808 68.1528 48.5348 68.4457C47.8887 68.7385 47.3135 69.1654 46.8481 69.6976C46.3827 70.2297 46.0378 70.8547 45.8368 71.5303C45.6358 72.2059 45.5834 72.9164 45.683 73.6138L47.0161 82.8633C47.1956 84.0748 47.8073 85.1823 48.74 85.9847C49.6728 86.7871 50.8648 87.2312 52.0997 87.2364H56.4105C56.6972 87.2364 56.971 87.3486 57.1725 87.5495ZM51.8415 73.4715H66.326V75.5234H51.8415V73.4715ZM49.7723 79.6271H68.3953V81.679H49.7723V79.6271Z" fill="#F9FAFB"/>
</g>
<g opacity="0.6" filter="url(#filter3_f_5845_7985)">
<path fill-rule="evenodd" clip-rule="evenodd" d="M209.723 103.188L206.666 106.22V104.123C206.666 103.772 206.525 103.436 206.275 103.188C206.025 102.94 205.686 102.801 205.332 102.801H199.999C198.471 102.795 196.996 102.245 195.842 101.252C194.688 100.259 193.931 98.8891 193.709 97.3902L192.061 85.9459C191.937 85.0831 192.002 84.2041 192.251 83.3683C192.5 82.5324 192.926 81.7592 193.502 81.1009C194.078 80.4425 194.789 79.9142 195.588 79.5518C196.387 79.1894 197.256 79.0012 198.135 79H217.864C218.743 79.001 219.611 79.1891 220.411 79.5514C221.21 79.9138 221.922 80.442 222.498 81.1004C223.074 81.7588 223.5 82.532 223.749 83.3679C223.998 84.2039 224.063 85.083 223.939 85.9459L222.29 97.3902C222.068 98.8891 221.311 100.259 220.157 101.252C219.003 102.245 217.528 102.795 216 102.801H210.666C210.312 102.801 209.973 102.94 209.723 103.188ZM216.319 85.7702H198.398V88.309H216.319V85.7702ZM218.88 93.3864H195.838V95.9252H218.88V93.3864Z" fill="#F9FAFB"/>
</g>
<g opacity="0.4" filter="url(#filter4_f_5845_7985)">
<path fill-rule="evenodd" clip-rule="evenodd" d="M235.801 43.306L230.832 48.233V44.8252C230.832 44.2553 230.604 43.7088 230.197 43.3058C229.791 42.9029 229.24 42.6765 228.665 42.6765H219.998C217.515 42.6661 215.118 41.7732 213.243 40.1599C211.368 38.5466 210.138 36.3199 209.777 33.884L207.099 15.2871C206.898 13.885 207.004 12.4566 207.408 11.0984C207.812 9.74021 208.505 8.48376 209.441 7.41389C210.376 6.34403 211.532 5.48565 212.831 4.89671C214.13 4.30778 215.541 4.00199 216.969 4H249.029C250.457 4.00169 251.869 4.30725 253.168 4.89605C254.467 5.48485 255.623 6.34318 256.559 7.41308C257.494 8.48299 258.188 9.73955 258.592 11.0979C258.996 12.4563 259.102 13.8848 258.901 15.2871L256.221 33.884C255.86 36.3199 254.63 38.5466 252.755 40.1599C250.879 41.7732 248.483 42.6661 246 42.6765H237.333C236.756 42.6765 236.206 42.9021 235.801 43.306ZM246.519 15.0021H217.397V19.1276H246.519V15.0021ZM250.679 27.3784H213.236V31.5039H250.679V27.3784Z" fill="#F9FAFB"/>
</g>
<defs>
<filter id="filter0_d_5845_7985" x="79" y="19" width="98.6233" height="98.625" filterUnits="userSpaceOnUse" color-interpolation-filters="sRGB">
<feFlood flood-opacity="0" result="BackgroundImageFix"/>
<feColorMatrix in="SourceAlpha" type="matrix" values="0 0 0 0 0 0 0 0 0 0 0 0 0 0 0 0 0 0 127 0" result="hardAlpha"/>
<feOffset/>
<feGaussianBlur stdDeviation="2"/>
<feComposite in2="hardAlpha" operator="out"/>
<feColorMatrix type="matrix" values="0 0 0 0 1 0 0 0 0 1 0 0 0 0 1 0 0 0 0.25 0"/>
<feBlend mode="normal" in2="BackgroundImageFix" result="effect1_dropShadow_5845_7985"/>
<feBlend mode="normal" in="SourceGraphic" in2="effect1_dropShadow_5845_7985" result="shape"/>
</filter>
<filter id="filter1_f_5845_7985" x="0" y="9" width="55.4969" height="49" filterUnits="userSpaceOnUse" color-interpolation-filters="sRGB">
<feFlood flood-opacity="0" result="BackgroundImageFix"/>
<feBlend mode="normal" in="SourceGraphic" in2="BackgroundImageFix" result="shape"/>
<feGaussianBlur stdDeviation="3" result="effect1_foregroundBlur_5845_7985"/>
</filter>
<filter id="filter2_f_5845_7985" x="43.6339" y="66" width="29.863" height="26" filterUnits="userSpaceOnUse" color-interpolation-filters="sRGB">
<feFlood flood-opacity="0" result="BackgroundImageFix"/>
<feBlend mode="normal" in="SourceGraphic" in2="BackgroundImageFix" result="shape"/>
<feGaussianBlur stdDeviation="1" result="effect1_foregroundBlur_5845_7985"/>
</filter>
<filter id="filter3_f_5845_7985" x="190" y="77" width="36" height="31.2207" filterUnits="userSpaceOnUse" color-interpolation-filters="sRGB">
<feFlood flood-opacity="0" result="BackgroundImageFix"/>
<feBlend mode="normal" in="SourceGraphic" in2="BackgroundImageFix" result="shape"/>
<feGaussianBlur stdDeviation="1" result="effect1_foregroundBlur_5845_7985"/>
</filter>
<filter id="filter4_f_5845_7985" x="203" y="0" width="60" height="52.2334" filterUnits="userSpaceOnUse" color-interpolation-filters="sRGB">
<feFlood flood-opacity="0" result="BackgroundImageFix"/>
<feBlend mode="normal" in="SourceGraphic" in2="BackgroundImageFix" result="shape"/>
<feGaussianBlur stdDeviation="2" result="effect1_foregroundBlur_5845_7985"/>
</filter>
<radialGradient id="paint0_radial_5845_7985" cx="0" cy="0" r="1" gradientUnits="userSpaceOnUse" gradientTransform="translate(111.906 69.875) rotate(90) scale(43.75 28.9059)">
<stop stop-color="white"/>
<stop offset="1" stop-color="#D6DBE1"/>
</radialGradient>
<radialGradient id="paint1_radial_5845_7985" cx="0" cy="0" r="1" gradientUnits="userSpaceOnUse" gradientTransform="translate(114.249 68.3125) rotate(90) scale(1.5625)">
<stop stop-color="white"/>
<stop offset="1" stop-color="#D6DBE1"/>
</radialGradient>
<radialGradient id="paint2_radial_5845_7985" cx="0" cy="0" r="1" gradientUnits="userSpaceOnUse" gradientTransform="translate(128.391 55.8125) rotate(90) scale(32.8125 31.1703)">
<stop stop-color="white"/>
<stop offset="1" stop-color="#D6DBE1"/>
</radialGradient>
<radialGradient id="paint3_radial_5845_7985" cx="0" cy="0" r="1" gradientUnits="userSpaceOnUse" gradientTransform="translate(142.374 68.3125) rotate(90) scale(1.5625)">
<stop stop-color="white"/>
<stop offset="1" stop-color="#D6DBE1"/>
</radialGradient>
<radialGradient id="paint4_radial_5845_7985" cx="0" cy="0" r="1" gradientUnits="userSpaceOnUse" gradientTransform="translate(159.187 73.4578) rotate(90) scale(16.0828 14.4362)">
<stop stop-color="white"/>
<stop offset="1" stop-color="#D6DBE1"/>
</radialGradient>
<radialGradient id="paint5_radial_5845_7985" cx="0" cy="0" r="1" gradientUnits="userSpaceOnUse" gradientTransform="translate(128.312 68.3125) rotate(90) scale(1.5625)">
<stop stop-color="white"/>
<stop offset="1" stop-color="#D6DBE1"/>
</radialGradient>
</defs>
</svg>
