<?xml version="1.0" encoding="utf-8"?>
<!-- Generator: Adobe Illustrator 16.0.0, SVG Export Plug-In . SVG Version: 6.00 Build 0)  -->
<!DOCTYPE svg PUBLIC "-//W3C//DTD SVG 1.1//EN" "http://www.w3.org/Graphics/SVG/1.1/DTD/svg11.dtd">
<svg version="1.1" id="Layer_1" xmlns="http://www.w3.org/2000/svg" xmlns:xlink="http://www.w3.org/1999/xlink" x="0px" y="0px"
	 width="990px" height="250px" viewBox="0 0 990 250" enable-background="new 0 0 990 250" xml:space="preserve">
<g>
	<g>
		<path fill="#FFFFFF" d="M348.613,180.037c-23.926,2.145-43.771,3.218-59.539,3.218c-10.518,0-18.244-2.469-23.174-7.404
			c-4.936-4.933-7.4-12.657-7.4-23.173v-51.494c0-11.262,2.543-19.443,7.643-24.539C271.23,71.548,279.418,69,290.684,69h57.93
			v22.527h-51.494c-6.436,0-9.656,3.222-9.656,9.656v51.494c0,2.471,0.723,4.428,2.176,5.875c1.445,1.449,3.295,2.174,5.547,2.174
			c2.254,0,4.723-0.025,7.404-0.081c2.682-0.055,5.471-0.135,8.369-0.239c2.895-0.106,5.816-0.219,8.771-0.322
			c2.945-0.107,6.756-0.322,11.424-0.645c4.664-0.322,10.482-0.698,17.459-1.128V180.037z"/>
		<path fill="#FFFFFF" d="M388.037,97.965c10.406-2.146,19.525-3.216,27.357-3.216h7.244c7.295,0,13.139,2.2,17.537,6.598
			s6.598,10.245,6.598,17.542v62.758h-28.158v-59.542c0-1.608-0.539-2.95-1.611-4.024c-1.076-1.07-2.414-1.607-4.023-1.607h-5.635
			c-4.076,0-7.803,0.215-11.182,0.644c-3.377,0.431-6.088,0.751-8.127,0.964v63.566h-28.16V69h28.16V97.965z"/>
		<path fill="#FFFFFF" d="M540.111,180.037c-20.707,2.145-39.482,3.218-56.322,3.218c-7.299,0-13.145-2.197-17.543-6.599
			c-4.398-4.395-6.598-10.244-6.598-17.539v-38.621c0-8.047,2.277-14.348,6.838-18.91c4.561-4.557,10.863-6.837,18.91-6.837h32.184
			c8.045,0,14.348,2.28,18.908,6.837c4.563,4.563,6.844,10.863,6.844,18.91v29.771h-55.523v6.437c0,1.608,0.539,2.953,1.607,4.023
			c1.076,1.072,2.416,1.606,4.027,1.606c10.621,0,26.176-0.804,46.668-2.41V180.037z M494.248,114.863
			c-4.295,0-6.439,2.146-6.439,6.438v8.849h27.359v-8.849c0-4.292-2.15-6.438-6.439-6.438H494.248z"/>
		<path fill="#FFFFFF" d="M633.447,180.037c-20.064,2.145-37.77,3.218-53.109,3.218c-7.297,0-13.143-2.197-17.543-6.599
			c-4.398-4.395-6.592-10.244-6.592-17.539v-37.013c0-8.045,2.271-14.348,6.834-18.909c4.561-4.558,10.863-6.839,18.908-6.839
			h51.502v21.724h-42.65c-4.289,0-6.432,2.148-6.432,6.438v31.378c0,1.611,0.533,2.955,1.607,4.026
			c1.066,1.07,2.412,1.606,4.021,1.606c9.654,0,24.141-0.803,43.453-2.412V180.037z"/>
		<path fill="#FFFFFF" d="M674.475,147.852v33.795H646.32V69h28.154v57.126h12.879l17.695-29.77h29.773l-24.137,41.035
			l24.137,44.255h-29.773l-18.5-33.795H674.475z"/>
		<path fill="#FFFFFF" d="M816.891,69h28.967v82.072c0,11.261-2.551,19.445-7.646,24.54c-5.094,5.095-13.273,7.643-24.537,7.643
			H776.66c-11.264,0-19.451-2.548-24.545-7.643s-7.639-13.279-7.639-24.54V69h28.967v82.072c0,6.436,3.217,9.654,9.654,9.654h24.137
			c6.439,0,9.656-3.219,9.656-9.654V69z"/>
		<path fill="#FFFFFF" d="M891.717,181.646V209h-28.156V96.356H888.5l1.607,8.048c5.045-3.326,10.217-5.767,15.533-7.324
			c5.307-1.553,9.787-2.331,13.436-2.331h7.242c7.295,0,13.143,2.2,17.543,6.598c4.393,4.397,6.594,10.245,6.594,17.542v37.008
			c0,8.046-2.279,14.35-6.834,18.911c-4.57,4.561-10.871,6.839-18.912,6.839H891.717z M911.027,118.08
			c-5.688,0-12.117,1.074-19.311,3.222v38.621h24.143c4.291,0,6.432-2.146,6.432-6.44v-29.771c0-1.607-0.533-2.949-1.609-4.02
			c-1.072-1.071-2.412-1.612-4.018-1.612H911.027z"/>
	</g>
	<g>
		<linearGradient id="SVGID_1_" gradientUnits="userSpaceOnUse" x1="39.5293" y1="125" x2="206.5293" y2="125">
			<stop  offset="0" style="stop-color:#CECECE"/>
			<stop  offset="1" style="stop-color:#D6D6D6"/>
		</linearGradient>
		<path fill="url(#SVGID_1_)" d="M183.529,113.449v67.205c0,2.01-1.418,4.346-3.426,4.346H67.916c-2.008,0-4.387-2.336-4.387-4.346
			V67.527c0-2.009,2.379-3.527,4.387-3.527H185.76l-11.783-23H67.916c-15.037,0-28.387,11.489-28.387,26.527v113.127
			c0,15.038,13.35,28.346,28.387,28.346h112.188c15.037,0,26.426-13.308,26.426-28.346v-91.09L183.529,113.449z"/>
		<linearGradient id="SVGID_2_" gradientUnits="userSpaceOnUse" x1="93.9395" y1="96.3457" x2="124.7171" y2="43.1282">
			<stop  offset="0" style="stop-color:#FFFFFF;stop-opacity:0"/>
			<stop  offset="0.1285" style="stop-color:#E6E6E6;stop-opacity:0.1285"/>
			<stop  offset="0.403" style="stop-color:#A4A4A4;stop-opacity:0.403"/>
			<stop  offset="0.7981" style="stop-color:#3D3D3D;stop-opacity:0.7981"/>
			<stop  offset="1" style="stop-color:#050505"/>
		</linearGradient>
		<path fill="url(#SVGID_2_)" d="M63.529,92.307V67.527c0-2.009,2.379-3.527,4.387-3.527h119.668l-65.223-23H67.916
			c-15.037,0-28.387,11.489-28.387,26.527v16.451L63.529,92.307z"/>
		<linearGradient id="SVGID_3_" gradientUnits="userSpaceOnUse" x1="104.1973" y1="157.125" x2="149.2371" y2="26.8099">
			<stop  offset="0" style="stop-color:#FFFFFF"/>
			<stop  offset="1" style="stop-color:#FFFFFF"/>
		</linearGradient>
		<path fill-rule="evenodd" clip-rule="evenodd" fill="url(#SVGID_3_)" d="M204.209,58.949
			c-4.563-10.127-12.607-16.621-22.979-17.894L69.297,41.254c49.82,6.302,110.375,23.505,110.375,23.505l0,0
			c1.166,0.562,2.166,1.691,2.896,3.167c1.852,3.732,0.252,6.84-2.457,9.627c-15.094,15.512-30.205,30.929-45.266,46.472
			c-1.295,1.339-2.66,2.419-4.02,2.726L118.729,115H86.191h-2.551l14.586,13.678l0.008-0.04c9.32,9.049,18.734,17.981,27.826,27.255
			c4.246,4.328,6.971,3.774,10.93-0.352c19.77-20.605,39.855-40.811,59.689-61.355C206.418,84.1,210.361,72.598,204.209,58.949z"/>
	</g>
</g>
</svg>
