<svg xmlns="http://www.w3.org/2000/svg" xmlns:xlink="http://www.w3.org/1999/xlink" version="1.1" id="Layer_1" x="0px" y="0px" width="1159.058px" height="512px" viewBox="0 0 1159.058 512" enable-background="new 0 0 1159.058 512" xml:space="preserve">
<g>
	<path fill="#808080" d="M433.127,310.498c-23.926,2.145-43.773,3.218-59.539,3.218c-10.518,0-18.244-2.469-23.176-7.404   c-4.936-4.933-7.4-12.657-7.4-23.173v-51.494c0-11.262,2.543-19.443,7.643-24.539c5.09-5.097,13.275-7.645,24.541-7.645h57.932   v22.527h-51.494c-6.438,0-9.656,3.222-9.656,9.656v51.494c0,2.471,0.723,4.428,2.174,5.875c1.447,1.449,3.297,2.174,5.547,2.174   c2.256,0,4.723-0.025,7.404-0.081c2.684-0.055,5.473-0.135,8.371-0.239c2.893-0.106,5.816-0.219,8.771-0.322   c2.945-0.107,6.756-0.322,11.422-0.645s10.482-0.698,17.461-1.128V310.498z"/>
	<path fill="#808080" d="M472.549,228.426c10.408-2.146,19.527-3.216,27.359-3.216h7.244c7.295,0,13.137,2.2,17.537,6.598   c4.398,4.397,6.598,10.245,6.598,17.542v62.758h-28.158v-59.542c0-1.608-0.539-2.95-1.611-4.024   c-1.076-1.07-2.414-1.607-4.023-1.607h-5.635c-4.078,0-7.803,0.215-11.182,0.644c-3.379,0.431-6.088,0.751-8.129,0.964v63.566   h-28.16V199.461h28.16V228.426z"/>
	<path fill="#808080" d="M624.623,310.498c-20.705,2.145-39.48,3.218-56.32,3.218c-7.301,0-13.145-2.197-17.543-6.599   c-4.4-4.395-6.598-10.244-6.598-17.539v-38.621c0-8.047,2.277-14.348,6.838-18.91c4.561-4.557,10.861-6.837,18.91-6.837h32.184   c8.045,0,14.348,2.28,18.908,6.837c4.561,4.563,6.842,10.863,6.842,18.91v29.771H572.32v6.437c0,1.608,0.539,2.953,1.609,4.023   c1.076,1.072,2.414,1.606,4.025,1.606c10.623,0,26.176-0.804,46.668-2.41V310.498z M578.76,245.324   c-4.293,0-6.439,2.146-6.439,6.438v8.849h27.359v-8.849c0-4.292-2.148-6.438-6.439-6.438H578.76z"/>
	<path fill="#808080" d="M717.961,310.498c-20.064,2.145-37.77,3.218-53.109,3.218c-7.297,0-13.143-2.197-17.543-6.599   c-4.398-4.395-6.594-10.244-6.594-17.539v-37.013c0-8.045,2.273-14.348,6.834-18.909c4.563-4.558,10.865-6.839,18.91-6.839h51.502   v21.724h-42.652c-4.287,0-6.432,2.148-6.432,6.438v31.378c0,1.611,0.535,2.955,1.609,4.026c1.066,1.07,2.412,1.606,4.02,1.606   c9.654,0,24.143-0.803,43.455-2.412V310.498z"/>
	<path fill="#808080" d="M758.988,278.313v33.795h-28.156V199.461h28.156v57.126h12.879l17.695-29.77h29.773l-24.139,41.035   l24.139,44.255h-29.773l-18.5-33.795H758.988z"/>
	<path fill="#808080" d="M901.404,199.461h28.967v82.072c0,11.261-2.551,19.445-7.648,24.54c-5.092,5.095-13.271,7.643-24.535,7.643   h-37.016c-11.262,0-19.449-2.548-24.543-7.643c-5.096-5.095-7.641-13.279-7.641-24.54v-82.072h28.969v82.072   c0,6.436,3.215,9.654,9.654,9.654h24.137c6.439,0,9.656-3.219,9.656-9.654V199.461z"/>
	<path fill="#808080" d="M976.229,312.107v27.354h-28.154V226.817h24.938l1.607,8.048c5.047-3.326,10.219-5.767,15.535-7.324   c5.305-1.553,9.787-2.331,13.436-2.331h7.242c7.295,0,13.143,2.2,17.541,6.598c4.395,4.397,6.594,10.245,6.594,17.542v37.008   c0,8.046-2.279,14.35-6.832,18.911c-4.57,4.561-10.871,6.839-18.912,6.839H976.229z M995.541,248.541   c-5.688,0-12.117,1.074-19.313,3.222v38.621h24.145c4.289,0,6.432-2.146,6.432-6.44v-29.771c0-1.607-0.533-2.949-1.609-4.02   c-1.072-1.071-2.412-1.612-4.018-1.612H995.541z"/>
	<linearGradient id="SVGID_1_" gradientUnits="userSpaceOnUse" x1="123.9336" y1="256" x2="289.9336" y2="256">
		<stop offset="0" style="stop-color:#6034A5"/>
		<stop offset="0.8081" style="stop-color:#744DB0"/>
		<stop offset="1" style="stop-color:#7954B3"/>
	</linearGradient>
	<path fill="url(#SVGID_1_)" d="M267.934,244.881v66.902c0,2.001-1.337,4.217-3.336,4.217h-111.68c-1.999,0-3.984-2.216-3.984-4.217   V199.168c0-2,1.985-3.168,3.984-3.168h117.31l-11.729-24h-105.58c-14.969,0-28.984,12.197-28.984,27.168v112.615   c0,14.969,14.016,28.217,28.984,28.217h111.68c14.969,0,25.336-13.248,25.336-28.217v-90.679L267.934,244.881z"/>
	<linearGradient id="SVGID_2_" gradientUnits="userSpaceOnUse" x1="178.4736" y1="228.0596" x2="209.1343" y2="175.0444">
		<stop offset="0" style="stop-color:#5AD0AF;stop-opacity:0"/>
		<stop offset="0.1548" style="stop-color:#4FB79A;stop-opacity:0.1548"/>
		<stop offset="0.4852" style="stop-color:#347563;stop-opacity:0.4852"/>
		<stop offset="0.9619" style="stop-color:#090E0C;stop-opacity:0.9619"/>
		<stop offset="1" style="stop-color:#050505"/>
	</linearGradient>
	<path fill="url(#SVGID_2_)" d="M148.934,223.834v-24.666c0-2,1.984-3.168,3.984-3.168h119.125l-64.927-24h-54.198   c-14.969,0-28.984,12.197-28.984,27.168v16.377L148.934,223.834z"/>
	<linearGradient id="SVGID_3_" gradientUnits="userSpaceOnUse" x1="189.0469" y1="288.3145" x2="233.8674" y2="158.634">
		<stop offset="0" style="stop-color:#3BC7A0"/>
		<stop offset="0.1686" style="stop-color:#41C9A3"/>
		<stop offset="1" style="stop-color:#5AD0AF"/>
	</linearGradient>
	<path fill-rule="evenodd" clip-rule="evenodd" fill="url(#SVGID_3_)" d="M288.594,190.628   c-4.542-10.081-12.551-16.546-22.875-17.813l-111.428,0.197c49.596,6.273,109.876,23.398,109.876,23.398l0,0   c1.16,0.56,2.157,1.685,2.884,3.153c1.843,3.715,0.252,6.809-2.446,9.583c-15.024,15.441-30.068,30.788-45.06,46.262   c-1.291,1.332-2.647,2.194-4.002,2.501L203.501,246h-32.392h-2.538l14.521,13.828l0.006,0.067   c9.279,9.008,18.65,17.952,27.7,27.183c4.228,4.311,6.94,3.785,10.881-0.322c19.681-20.512,39.675-40.612,59.421-61.065   C290.793,215.651,294.718,204.214,288.594,190.628z"/>
</g>
</svg>