<?xml version="1.0" encoding="utf-8"?>
<!-- Generator: Adobe Illustrator 24.0.1, SVG Export Plug-In . SVG Version: 6.00 Build 0)  -->
<svg version="1.1" xmlns="http://www.w3.org/2000/svg" xmlns:xlink="http://www.w3.org/1999/xlink" x="0px" y="0px"
	 viewBox="0 0 300 205" style="enable-background:new 0 0 300 205;" xml:space="preserve">
<style type="text/css">
	.st0{fill:#F4F4F4;}
	.st1{fill:#F7F7F7;stroke:#E2E2E2;stroke-miterlimit:10;}
	.st2{fill:#5E5E5E;}
	.st3{fill:#FFFFFF;stroke:#E2E2E2;stroke-miterlimit:10;}
	.st4{fill:none;stroke:#000000;stroke-miterlimit:10;}
	.st5{clip-path:url(#SVGID_2_);}
	.st6{fill:#F2F2F2;}
	.st7{fill:#BB0000;}
	.st8{fill:#E9730D;}
	.st9{fill:#E5DA10;}
	.st10{fill:#45A53A;}
	.st11{fill:#107E3E;}
	.st12{fill:#FFFFFF;}
	.st13{fill:#E2E2E2;}
	.st14{fill:none;stroke:#E2E2E2;stroke-width:24;stroke-linecap:round;stroke-linejoin:round;}
	.st15{fill:none;stroke:#E2E2E2;stroke-width:24;stroke-linecap:round;stroke-linejoin:round;stroke-dasharray:82.6361,40.0402;}
	.st16{fill:none;stroke:#E2E2E2;stroke-miterlimit:10;}
	.st17{fill:#E2E2E2;stroke:#FFFFFF;stroke-miterlimit:10;}
	.st18{fill:#107E3E;stroke:#FFFFFF;stroke-width:7;stroke-miterlimit:10;}
	.st19{fill:#E9730D;stroke:#FFFFFF;stroke-width:7;stroke-miterlimit:10;}
	.st20{fill:#E5DA10;stroke:#FFFFFF;stroke-width:7;stroke-miterlimit:10;}
	.st21{fill:#BB0000;stroke:#FFFFFF;stroke-width:7;stroke-miterlimit:10;}
	.st22{fill:#45A53A;stroke:#D3D3D3;stroke-width:7;stroke-miterlimit:10;}
	.st23{fill:#104DF9;stroke:#104DF9;stroke-miterlimit:10;}
	.st24{fill:#104DF9;}
	.st25{fill:#FFFFFF;stroke:#104DF9;stroke-width:0.5;stroke-miterlimit:10;}
	.st26{fill:#107E3E;stroke:#D3D3D3;stroke-width:7;stroke-miterlimit:10;}
	.st27{fill:#E5DA10;stroke:#D3D3D3;stroke-width:7;stroke-miterlimit:10;}
	.st28{fill:#BB0000;stroke:#D3D3D3;stroke-width:7;stroke-miterlimit:10;}
	.st29{fill:#E9730D;stroke:#D3D3D3;stroke-width:7;stroke-miterlimit:10;}
	.st30{fill:#B7B7B7;}
</style>
<g id="bg">
</g>
<g id="menu">
</g>
<g id="cards">
	<g>
		<g>
			<g>
				<path class="st30" d="M289.39,151.9L289.39,151.9c0-1.54-0.02-3.07-0.07-4.59c-0.06-1.65-0.75-3.09-1.84-4.15
					c-1.1-1.06-2.57-1.7-4.2-1.7l-0.19,0l-0.01,0c-1.65,0.06-3.09,0.75-4.15,1.84c-1.06,1.1-1.7,2.57-1.7,4.2l0,0.17v0l0,0.03
					c0.05,1.39,0.07,2.79,0.07,4.19c0,14.57-2.45,28.55-6.95,41.58c-0.23,0.66-0.33,1.32-0.33,1.98c0,1.25,0.39,2.47,1.1,3.48
					c0.71,1.01,1.71,1.8,2.97,2.24c0.66,0.23,1.32,0.33,1.98,0.33c1.25,0,2.47-0.39,3.48-1.1c1.01-0.71,1.8-1.71,2.24-2.97l0,0
					C286.7,183.15,289.39,167.83,289.39,151.9L289.39,151.9z"/>
				<path class="st30" d="M14.26,120.06c-0.11,0.47-0.16,0.93-0.16,1.38c0,1.37,0.47,2.68,1.29,3.73c0.83,1.05,1.98,1.82,3.38,2.15
					c0.47,0.11,0.93,0.16,1.38,0.16c1.36,0,2.68-0.47,3.73-1.29c1.05-0.83,1.82-1.98,2.16-3.38c7.55-32.33,27.45-59.95,54.45-77.59
					c0.9-0.59,1.57-1.35,2.04-2.23c0.46-0.87,0.71-1.86,0.71-2.85c0-1.14-0.31-2.27-0.98-3.3c-0.59-0.9-1.35-1.57-2.23-2.04
					c-0.87-0.46-1.86-0.71-2.85-0.71c-1.14,0-2.27,0.31-3.3,0.99l0,0C44.32,54.41,22.54,84.62,14.26,120.06z"/>
				<path class="st30" d="M219.59,45.29c26.99,17.66,46.87,45.29,54.39,77.63c0.33,1.41,1.1,2.56,2.15,3.38
					c1.05,0.82,2.36,1.29,3.73,1.29c0.45,0,0.91-0.05,1.38-0.16c1.41-0.33,2.56-1.1,3.38-2.15c0.82-1.05,1.29-2.36,1.29-3.73
					c0-0.45-0.05-0.91-0.16-1.38c-8.25-35.45-30.01-65.68-59.55-85.01c-1.03-0.67-2.16-0.99-3.3-0.99c-0.99,0-1.97,0.24-2.84,0.71
					c-0.87,0.46-1.64,1.14-2.23,2.03c-0.67,1.03-0.99,2.16-0.99,3.3c0,0.99,0.24,1.97,0.71,2.84
					C218.02,43.93,218.69,44.7,219.59,45.29z"/>
				<path class="st30" d="M20.47,200.4c1.01,0.71,2.23,1.1,3.48,1.1c0.65,0,1.31-0.11,1.98-0.33c1.26-0.44,2.26-1.23,2.97-2.24
					c0.71-1.01,1.1-2.23,1.1-3.48c0-0.65-0.11-1.31-0.33-1.98c-4.5-13.03-6.95-27.01-6.95-41.58c0-1.4,0.02-2.8,0.07-4.18l0,0.09
					l0-0.08l0-0.21c0-1.63-0.64-3.1-1.7-4.2c-1.06-1.1-2.51-1.79-4.15-1.84l-0.2,0c-1.63,0-3.1,0.64-4.2,1.7
					c-1.1,1.06-1.79,2.51-1.84,4.15l0,0c-0.05,1.52-0.07,3.05-0.07,4.58v0.05c0.01,15.91,2.69,31.22,7.62,45.48
					C18.67,198.69,19.46,199.69,20.47,200.4z"/>
			</g>
			<path class="st30" d="M102.81,33.81c14.63-5.86,30.59-9.09,47.34-9.09c16.79,0,32.79,3.24,47.44,9.13
				c0.75,0.3,1.5,0.44,2.25,0.44c1.19,0,2.37-0.36,3.35-1.01c0.99-0.66,1.78-1.59,2.26-2.78c0.3-0.75,0.44-1.5,0.44-2.25
				c0-1.19-0.36-2.37-1.01-3.35c-0.66-0.99-1.59-1.78-2.78-2.26c-16.06-6.45-33.6-10.01-51.96-10.01c-18.31,0-35.82,3.54-51.84,9.96
				c-1.19,0.48-2.13,1.27-2.78,2.26c-0.66,0.99-1.02,2.16-1.02,3.36c0,0.75,0.14,1.5,0.44,2.25l0,0c0.48,1.19,1.27,2.13,2.26,2.78
				c0.99,0.66,2.16,1.02,3.36,1.02C101.31,34.25,102.07,34.11,102.81,33.81z"/>
		</g>
	</g>
	<g>
		<path class="st30" d="M136.54,116.49h-4.2l-10.77-17.15v17.15h-4.2V92.31h4.2l10.81,17.22V92.31h4.17V116.49z"/>
		<path class="st30" d="M161.99,105.03c0,2.37-0.41,4.45-1.23,6.23c-0.82,1.79-1.99,3.16-3.51,4.12c-1.52,0.96-3.27,1.44-5.25,1.44
			c-1.96,0-3.71-0.48-5.24-1.44c-1.53-0.96-2.72-2.32-3.55-4.09c-0.83-1.77-1.26-3.81-1.27-6.13v-1.36c0-2.36,0.42-4.44,1.25-6.24
			c0.83-1.8,2.01-3.18,3.54-4.14c1.52-0.96,3.27-1.44,5.24-1.44s3.72,0.47,5.24,1.42c1.52,0.95,2.7,2.31,3.53,4.08
			c0.83,1.78,1.25,3.84,1.26,6.2V105.03z M157.79,103.77c0-2.68-0.51-4.73-1.52-6.16c-1.01-1.43-2.45-2.14-4.31-2.14
			c-1.82,0-3.23,0.71-4.26,2.13c-1.02,1.42-1.55,3.43-1.57,6.04v1.39c0,2.66,0.52,4.71,1.55,6.16c1.04,1.45,2.47,2.17,4.31,2.17
			c1.86,0,3.29-0.71,4.29-2.13c1-1.42,1.5-3.49,1.5-6.21V103.77z"/>
		<path class="st30" d="M183.43,95.7h-7.54v20.79h-4.17V95.7h-7.47v-3.39h19.17V95.7z"/>
		<path class="st30" d="M68.78,146.49h-9.93v7.44h11.6v3.35h-15.8v-24.17h15.69v3.39H58.85v6.67h9.93V146.49z"/>
		<path class="st30" d="M83.59,152.02l6.14-18.91h4.62l-8.7,24.17h-4.07l-8.67-24.17h4.6L83.59,152.02z"/>
		<path class="st30" d="M110.55,151.66h-9.36l-1.96,5.63h-4.37l9.13-24.17h3.77l9.15,24.17h-4.38L110.55,151.66z M102.36,148.27
			h7.01l-3.5-10.03L102.36,148.27z"/>
		<path class="st30" d="M125.04,153.93h10.97v3.35h-15.17v-24.17h4.2V153.93z"/>
		<path class="st30" d="M157.71,133.11v16.15c0,2.57-0.82,4.6-2.47,6.1c-1.64,1.5-3.83,2.25-6.57,2.25c-2.77,0-4.96-0.74-6.59-2.22
			c-1.63-1.48-2.44-3.53-2.44-6.15v-16.14h4.18v16.17c0,1.62,0.41,2.85,1.23,3.7s2.03,1.28,3.62,1.28c3.23,0,4.85-1.7,4.85-5.11
			v-16.04H157.71z"/>
		<path class="st30" d="M176.55,151.66h-9.36l-1.96,5.63h-4.37l9.13-24.17h3.77l9.15,24.17h-4.38L176.55,151.66z M168.37,148.27
			h7.01l-3.5-10.03L168.37,148.27z"/>
		<path class="st30" d="M202.32,136.5h-7.54v20.79h-4.17V136.5h-7.47v-3.39h19.17V136.5z"/>
		<path class="st30" d="M220.81,146.49h-9.93v7.44h11.6v3.35h-15.8v-24.17h15.69v3.39h-11.49v6.67h9.93V146.49z"/>
		<path class="st30" d="M227.11,157.29v-24.17h7.14c2.14,0,4.03,0.48,5.69,1.43c1.66,0.95,2.94,2.3,3.84,4.05s1.36,3.75,1.36,6.01
			v1.21c0,2.29-0.46,4.31-1.37,6.04c-0.91,1.74-2.21,3.08-3.9,4.02c-1.69,0.94-3.62,1.41-5.8,1.41H227.11z M231.31,136.5v17.43h2.74
			c2.2,0,3.89-0.69,5.07-2.07c1.18-1.38,1.78-3.36,1.8-5.94v-1.34c0-2.62-0.57-4.63-1.71-6.01s-2.79-2.08-4.96-2.08H231.31z"/>
	</g>
</g>
</svg>
