<?xml version="1.0" encoding="utf-8"?>
<!-- Generator: Adobe Illustrator 24.0.1, SVG Export Plug-In . SVG Version: 6.00 Build 0)  -->
<svg version="1.1" id="Layer_1" xmlns="http://www.w3.org/2000/svg" xmlns:xlink="http://www.w3.org/1999/xlink" x="0px" y="0px"
	 viewBox="0 0 1080 720" style="enable-background:new 0 0 1080 720;" xml:space="preserve">
<style type="text/css">
	.st0{opacity:0.2;fill:#C9C7C8;}
	.st1{fill:#C9C7C8;}
	.st2{fill:#BDDEFF;}
	.st3{stroke:#000000;stroke-miterlimit:10;}
	.st4{fill:#A0D19B;stroke:#000000;stroke-miterlimit:10;}
	.st5{fill:none;stroke:#000000;stroke-width:0.5;stroke-miterlimit:10;stroke-dasharray:4;}
	.st6{fill:none;stroke:#000000;stroke-miterlimit:10;}
	.st7{fill:none;stroke:#000000;stroke-width:0.5;stroke-miterlimit:10;}
	.st8{fill:none;stroke:#000000;stroke-width:0.5;stroke-miterlimit:10;stroke-dasharray:4.0075,4.0075;}
	.st9{fill:#FFFFFF;stroke:#000000;stroke-miterlimit:10;}
	.st10{fill:#FFFFFF;}
	.st11{fill:#F4F4F4;}
	.st12{fill:#FB7F3F;}
	.st13{fill:#FDC9AE;}
	.st14{fill:#FC935E;}
	.st15{fill:#FEDAC7;}
	.st16{fill:#EEB52F;}
	.st17{fill:#939393;}
	.st18{fill:#229F99;}
	.st19{fill:#D6D6D6;}
	.st20{fill:#C79CEB;}
	.st21{fill:#EBB000;stroke:#000000;stroke-miterlimit:10;}
	.st22{fill:#F6DE94;stroke:#000000;stroke-miterlimit:10;}
	.st23{fill:#EEBD2B;stroke:#000000;stroke-miterlimit:10;}
	.st24{fill:#F9E8B5;stroke:#000000;stroke-miterlimit:10;}
	.st25{fill:none;stroke:#EEB52F;stroke-miterlimit:10;}
	.st26{fill:#939393;stroke:#000000;stroke-miterlimit:10;}
	.st27{fill:none;stroke:#000000;stroke-width:0.5;stroke-miterlimit:10;stroke-dasharray:4.0227,4.0227;}
	.st28{fill:#F5F5F5;stroke:#000000;stroke-miterlimit:10;}
	.st29{fill:#375A64;stroke:#000000;stroke-miterlimit:10;}
	.st30{fill:#5D7982;stroke:#000000;stroke-miterlimit:10;}
	.st31{fill:#EEB52F;stroke:#000000;stroke-miterlimit:10;}
	.st32{opacity:0.6;stroke:#000000;stroke-miterlimit:10;}
	.st33{opacity:0.3;stroke:#000000;stroke-miterlimit:10;}
	.st34{fill:#FAFAFA;stroke:#000000;stroke-miterlimit:10;}
	.st35{opacity:0.5;fill:#FFFFFF;stroke:#000000;stroke-miterlimit:10;}
	.st36{fill:#C79CEB;stroke:#000000;stroke-miterlimit:10;}
	.st37{fill:#229F99;stroke:#000000;stroke-miterlimit:10;}
	.st38{fill:none;stroke:#424242;stroke-miterlimit:10;stroke-dasharray:9;}
	
		.st39{fill:none;stroke:#000000;stroke-width:7;stroke-linecap:round;stroke-linejoin:round;stroke-miterlimit:10;stroke-dasharray:14;}
	.st40{fill:#FB7F3F;stroke:#000000;stroke-miterlimit:10;}
	.st41{fill:#FF0000;stroke:#000000;stroke-miterlimit:10;}
	.st42{fill:#D6708D;stroke:#000000;stroke-miterlimit:10;}
	.st43{fill:#EC819B;stroke:#000000;stroke-miterlimit:10;}
	.st44{fill:#D6A218;stroke:#000000;stroke-miterlimit:10;}
	.st45{fill:#F8C862;stroke:#000000;stroke-miterlimit:10;}
	.st46{fill:#5ED3CA;stroke:#000000;stroke-miterlimit:10;}
	.st47{fill:#37BCB2;stroke:#000000;stroke-miterlimit:10;}
	.st48{fill:none;stroke:#000000;stroke-width:0.5;stroke-miterlimit:10;stroke-dasharray:3.96,3.96;}
	.st49{fill:#B2B2B2;stroke:#000000;stroke-miterlimit:10;}
	.st50{fill:#F0F0F0;stroke:#000000;stroke-miterlimit:10;}
	.st51{fill:#C3C3C3;stroke:#000000;stroke-miterlimit:10;}
	.st52{fill:#CECECE;stroke:#000000;stroke-miterlimit:10;}
	.st53{fill:#F7F7F7;stroke:#000000;stroke-miterlimit:10;}
	.st54{fill:#F3F3F3;stroke:#000000;stroke-miterlimit:10;}
	.st55{fill:#DCDCDC;stroke:#000000;stroke-miterlimit:10;}
	.st56{opacity:0.5;stroke:#000000;stroke-miterlimit:10;}
	.st57{fill:#D9D9D9;stroke:#000000;stroke-miterlimit:10;}
	.st58{fill:#CCCCCC;stroke:#000000;stroke-miterlimit:10;}
	.st59{fill:#0E0E0E;stroke:#000000;stroke-miterlimit:10;}
	.st60{fill:#C1C1C1;stroke:#000000;stroke-miterlimit:10;}
	.st61{fill:#D0D0D0;stroke:#000000;stroke-miterlimit:10;}
	.st62{fill:#B6B6B6;stroke:#000000;stroke-miterlimit:10;}
	.st63{fill:#EFEFEF;stroke:#000000;stroke-miterlimit:10;}
	.st64{fill:#BBBBBB;stroke:#000000;stroke-miterlimit:10;}
	.st65{fill:#AAAAAA;stroke:#000000;stroke-miterlimit:10;}
	.st66{fill:#999999;stroke:#000000;stroke-miterlimit:10;}
	.st67{fill:url(#SVGID_1_);}
	.st68{fill:url(#SVGID_2_);}
	.st69{fill:#E0E1FD;}
	.st70{fill:#BDBFFB;}
	.st71{fill:#CCCEFC;}
	.st72{fill:url(#SVGID_3_);}
	.st73{fill:url(#SVGID_4_);}
	.st74{fill:url(#SVGID_5_);}
	.st75{fill:url(#SVGID_6_);}
	.st76{fill:url(#SVGID_7_);}
	.st77{fill:url(#SVGID_8_);}
	.st78{fill:url(#SVGID_9_);}
	.st79{fill:#FEDBC9;}
	.st80{fill:url(#SVGID_10_);}
	.st81{fill:url(#SVGID_11_);}
	.st82{fill:url(#SVGID_12_);}
	.st83{fill:url(#SVGID_13_);}
	.st84{fill:url(#SVGID_14_);}
	.st85{fill:url(#SVGID_15_);}
	.st86{fill:#C79CEB;stroke:#000000;stroke-width:0.75;stroke-miterlimit:10;}
	.st87{fill:none;stroke:#000000;stroke-width:0.5;stroke-miterlimit:10;stroke-dasharray:3.8739,3.8739;}
	.st88{fill:none;stroke:#000000;stroke-width:0.5;stroke-miterlimit:10;stroke-dasharray:3.9453,3.9453;}
	.st89{fill:#FFFFFF;stroke:#000000;stroke-width:0.75;stroke-miterlimit:10;}
	.st90{fill:url(#SVGID_16_);}
	.st91{fill:url(#SVGID_17_);}
	.st92{fill:url(#SVGID_18_);}
	.st93{fill:url(#SVGID_19_);}
	.st94{fill:url(#SVGID_20_);}
	.st95{fill:url(#SVGID_21_);}
	.st96{fill:url(#SVGID_22_);}
	.st97{fill:url(#SVGID_23_);}
	.st98{fill:url(#SVGID_24_);}
	.st99{fill:url(#SVGID_25_);}
	.st100{fill:url(#SVGID_26_);}
	.st101{fill:url(#SVGID_27_);}
	.st102{fill:url(#SVGID_28_);}
	.st103{fill:url(#SVGID_29_);}
	.st104{fill:url(#SVGID_30_);}
	.st105{fill:url(#SVGID_31_);}
	.st106{fill:url(#SVGID_32_);}
	.st107{fill:url(#SVGID_33_);}
	.st108{fill:url(#SVGID_34_);}
	.st109{fill:url(#SVGID_35_);}
	.st110{fill:url(#SVGID_36_);}
	.st111{fill:url(#SVGID_37_);}
	.st112{fill:#91B3FA;}
	.st113{fill:#EC819B;}
	.st114{fill:#F8C862;}
	.st115{fill:#FFB08D;stroke:#000000;stroke-miterlimit:10;}
	.st116{opacity:0.1;fill:#229F99;}
	.st117{fill:#59595B;}
	.st118{fill:#47748C;}
	.st119{fill:#A5A6A9;}
	.st120{fill:#E5E5E6;}
	.st121{fill:#D67729;}
	.st122{fill:#DBDBDB;}
	.st123{fill:#7DB7C9;}
	.st124{opacity:0.5;}
	.st125{fill:#FB7F3F;stroke:#000000;stroke-linecap:round;stroke-linejoin:round;stroke-miterlimit:10;}
	.st126{fill:#D7F0FF;}
	.st127{clip-path:url(#SVGID_39_);fill:#FFFFFF;stroke:#000000;stroke-miterlimit:10;}
	.st128{clip-path:url(#SVGID_39_);}
</style>
<g>
	<g>
		<path class="st37" d="M369.39,82.01h-66.38L180.38,273.94v38.15h136.45v79.61l45.29,10.79l7.27-10.79v-79.61l30.73,11.41
			l8.2-11.41v-43.41h-38.93V82.01z M235.86,268.69l56.25-86.43c8.76-16.55,17.52-31.92,25.31-48.08h1.95
			c-0.97,18.01-2.53,46.42-2.53,64.43v70.08H235.86z"/>
		<path class="st37" d="M545.85,76.17c-64.23,0-105.11,54.79-105.11,159.42c0,104.63,40.88,161.95,105.11,161.95
			c64.24,0,105.12-57.32,105.12-161.95C650.96,131.26,610.09,76.17,545.85,76.17z M545.85,353.56c-29.98,0-51.58-30.37-51.58-117.96
			c0-87.59,21.6-115.43,51.58-115.43c29.98,0,51.58,27.84,51.58,115.43C597.43,323.19,575.83,353.56,545.85,353.56z"/>
		<path class="st37" d="M907.62,268.69h-38.93V82.01h-66.38L679.68,273.94v38.15h136.45v79.61l44.99,10.79l7.57-10.79v-79.61
			l31.43,11.41l7.5-11.41V268.69z M735.15,268.69l56.25-86.43c8.76-16.55,17.52-31.92,25.31-48.08h1.95
			c-0.97,18.01-2.53,46.42-2.53,64.43v70.08H735.15z"/>
	</g>
	<g>
		<path class="st37" d="M361.39,93.01h-66.38L172.38,284.94v38.15h136.45v79.61h52.56v-79.61h38.93v-43.41h-38.93V93.01z
			 M227.86,279.69l56.25-86.43c8.76-16.55,17.52-31.92,25.31-48.08h1.95c-0.97,18.01-2.53,46.42-2.53,64.43v70.08H227.86z"/>
		<path class="st37" d="M537.85,87.17c-64.23,0-105.11,54.79-105.11,159.42c0,104.63,40.88,161.95,105.11,161.95
			c64.24,0,105.12-57.32,105.12-161.95C642.96,142.26,602.09,87.17,537.85,87.17z M537.85,364.56c-29.98,0-51.58-30.37-51.58-117.96
			c0-87.59,21.6-115.43,51.58-115.43c29.98,0,51.58,27.84,51.58,115.43C589.43,334.19,567.83,364.56,537.85,364.56z"/>
		<path class="st37" d="M899.62,279.69h-38.93V93.01h-66.38L671.68,284.94v38.15h136.45v79.61h52.56v-79.61h38.93V279.69z
			 M727.15,279.69l56.25-86.43c8.76-16.55,17.52-31.92,25.31-48.08h1.95c-0.97,18.01-2.53,46.42-2.53,64.43v70.08H727.15z"/>
	</g>
	<g>
		<defs>
			<path id="SVGID_38_" d="M597.14,235.44c0,87.6-21.6,117.96-51.58,117.96c-22.96,0-41.01-17.82-48.2-65.54L299.12,274.5l-71-111
				c0,0,165-63,167-66s226-65,226-65L597.14,235.44z"/>
		</defs>
		<clipPath id="SVGID_1_">
			<use xlink:href="#SVGID_38_"  style="overflow:visible;"/>
		</clipPath>
		<polygon style="clip-path:url(#SVGID_1_);fill:#FFFFFF;stroke:#000000;stroke-miterlimit:10;" points="483,158 487.38,153.64 
			483.82,138.94 472.84,139.83 471,160 		"/>
		<g style="clip-path:url(#SVGID_1_);">
			<path class="st9" d="M467.12,154.18l5.32-17.68l18.35,0.13l-2.4,8.68c0,0-0.72,3.52-4.17,6.7c-3.45,3.18-4.51,5.29-4.51,5.29"/>
			<path class="st9" d="M504.43,131.69c0,0-0.59,15.31,7.44,17.43c8.04,2.11,9.12-7.22,9.12-7.22s3.55-10.24,1.22-10.51
				c-2.61-0.3-2.61,2.06-2.61,2.06l-0.22-8.31l-8.17-0.95L504.43,131.69z"/>
			<path d="M514.31,128.1c0,0-6.65,6.33-10.15,5.92s-7.63-5.62-6.95-11.45c0.68-5.84,4.58-8.93,4.58-8.93s1.79,4.94,4.13,5.21
				c2.33,0.27,9.74-2.42,15.04,2.93c3.03,3.06,2.7,6.87,1.9,9.09c-0.6,1.67-1.17-0.14-1.17-0.14l-1.3,1.03l-0.79,1.68
				C519.61,133.45,515.07,131.74,514.31,128.1z"/>
			<path d="M530.78,503.51l2.93,26.69c0,0-11.39,5.13-23.76,1.37c0,0-18.82,5.33-44.68-2.55c0,0-1.32-7.77,6.01-11.68
				s35.24-2.78,40.67-8.5c5.43-5.72,1.92-6.22,1.92-6.22"/>
			<path class="st36" d="M577.21,282.32c0,0-4.15,20.93-13.04,40.69c-10.58,23.5-17.63,34.08-18.8,63.46
				c-1.18,29.38-5.88,66.98,2.47,115.39c0,0-10.58,7.05-32.9,7.05c-22.33,0-21.15-8.23-21.15-8.23s-8.11-77.09-8.23-113.99
				c-0.12-37.83,2.23-53.1,12.4-104.12"/>
			<path d="M572.63,500.79l7.47,25.79c0,0-10.34,7.01-23.17,5.42c0,0-17.63,8.48-44.45,5.16c0,0-2.63-7.43,3.92-12.54
				c6.55-5.11,34.24-8.79,38.61-15.35c4.36-6.56,0.83-6.46,0.83-6.46"/>
			<path class="st3" d="M481.7,163.88l-23.47-13.67l2.02-2.24c0,0,1.18-3.97,10.13-0.07l-5.62,8.65"/>
			<path class="st9" d="M511.44,202.23c0,0-7.64,18.02-34.47,28.34c-15,5.77-31.97-16.9-32.48-38.42
				c-0.54-22.57,15.77-44.19,15.77-44.19c1.11,4.57,26.17,8.14,26.17,8.14s-14.88,24.61-12.98,29.99
				c4.75,13.48,23.07-26.2,23.07-26.2"/>
			<path class="st36" d="M580.42,274.91c0,0-0.5,21.33-5.87,42.33c-6.39,24.97-11.52,36.6-7.64,65.74
				c3.88,29.14,5.7,67,22.23,113.25c0,0-9.21,8.76-31.21,12.59c-22,3.83-22.25-4.48-22.25-4.48s-21.21-74.56-27.66-110.89
				c-6.61-37.24-6.91-52.7-5.64-104.7"/>
			<path class="st6" d="M511.87,149.11l-1.76,15.18c0,0,0.9,2.47,4.4,2.88c3.5,0.41,11.32-5.79,12.27-13.96l-5.09-13.34"/>
			<path class="st9" d="M524.85,149.43c0,0,9.88-3.59,16.88-2.78c7,0.81,12.01,1.8,12.01,1.8s28.29,38.36,31.1,75.36
				c2.81,37-2.91,65.91-2.91,65.91s-4.86,11.27-49.08,4.96c-44.22-6.31-42.38-12.01-42.38-12.01s12.27-13.96,16.54-40.67
				c4.28-26.71-10.64-81.68-10.64-81.68s7.66-5.95,15.01-7.59C511.39,152.74,510.88,167.93,524.85,149.43z"/>
			<path class="st3" d="M578.03,194.28c0,0-15.01-2.21-30.53,6.21l26.53-18.21L578.03,194.28z"/>
			<g>
				<path d="M511.9,152.72c0.32,0.89,0.59,1.75,0.96,2.52c0.35,0.76,0.78,1.48,1.23,1.79c0.22,0.16,0.4,0.21,0.57,0.2
					c0.18,0,0.39-0.02,0.67-0.13c0.55-0.2,1.21-0.59,1.84-1.05c1.29-0.95,2.57-2.11,3.9-3.25c1.34-1.14,2.69-2.34,4.28-3.38
					c-0.6,1.8-1.46,3.43-2.52,4.95c-1.07,1.51-2.3,2.93-3.91,4.11c-0.82,0.57-1.73,1.11-2.92,1.37c-0.58,0.12-1.29,0.16-1.98-0.06
					c-0.7-0.19-1.31-0.67-1.68-1.18c-0.75-1.04-0.89-2.1-0.92-3.07C511.43,154.56,511.56,153.62,511.9,152.72z"/>
			</g>
			<g>
				<g>
					<path class="st12" d="M502.09,150.71c0.92-1.67,2.19-5.12,0.88-9.99c-1.31-4.86-4.13-7.21-5.77-8.2l6.16-1.65
						c0.91,0.61,5.09,3.61,6.28,8.06c1.2,4.46-0.91,9.14-1.4,10.12L502.09,150.71z"/>
					<path d="M503.27,131.41c1.15,0.79,4.8,3.6,5.89,7.65c1.08,4.04-0.67,8.31-1.27,9.57l-4.88,1.31c0.83-1.96,1.57-5.16,0.45-9.35
						c-1.13-4.19-3.37-6.59-5.07-7.87L503.27,131.41 M503.45,130.33l-7.64,2.05c0,0,4.87,1.73,6.68,8.47
						c1.81,6.74-1.54,10.68-1.54,10.68l7.64-2.05c0,0,2.94-5.44,1.53-10.68S503.45,130.33,503.45,130.33L503.45,130.33z"/>
				</g>
				<g>
					<path class="st12" d="M500.84,151.06c-1.1-0.53-4.59-2.61-6.03-7.98c-1.44-5.37,0.54-8.92,1.22-9.93
						c1.1,0.53,4.59,2.61,6.03,7.98C503.51,146.51,501.53,150.05,500.84,151.06z"/>
					<path d="M496.2,133.8c1.3,0.72,4.11,2.76,5.37,7.47c1.27,4.71-0.14,7.89-0.91,9.15c-1.3-0.72-4.11-2.76-5.38-7.47
						C494.03,138.24,495.44,135.07,496.2,133.8 M495.86,132.53c0,0-3.35,3.94-1.53,10.68c1.81,6.74,6.68,8.47,6.68,8.47
						s3.35-3.94,1.53-10.68C500.73,134.27,495.86,132.53,495.86,132.53L495.86,132.53z"/>
				</g>
				<path class="st125" d="M420.67,170.12L499.29,149c0,0,1.44-2.85,0.23-7.35s-3.88-6.24-3.88-6.24l-78.62,21.12L420.67,170.12z"/>
				<path class="st125" d="M345.61,193.27L439.67,168c0,0,2.74-6.19,1.23-11.8c-1.51-5.62-6.38-7.35-6.38-7.35l-94.06,25.27
					L345.61,193.27z"/>
				<path class="st125" d="M350.57,194.92l-43.52,11.69c0,0,2.6-6.72,0.79-13.46c-1.81-6.74-7.43-11.25-7.43-11.25l43.52-11.69
					c0,0,4.81,1.52,7.43,11.25C353.97,191.2,350.57,194.92,350.57,194.92z"/>
				<g>
					<path class="st12" d="M304.05,208.5c-0.95-1.3-5.06-7.14-6.57-12.78c-1.45-5.38-0.98-12.47-0.86-14.04l3.36-1.16
						c1.07,0.38,7.7,3.08,10.05,11.83c2.37,8.82-2.08,14.48-2.78,15.29L304.05,208.5z"/>
					<path d="M299.98,181.05c1.4,0.52,7.35,3.18,9.56,11.43c2.24,8.33-1.66,13.63-2.57,14.72l-2.72,0.73
						c-1.21-1.69-4.89-7.11-6.29-12.34c-1.34-5-1.01-11.51-0.87-13.55L299.98,181.05 M299.98,179.99l-3.83,1.33
						c0,0-0.83,8.32,0.84,14.54c1.76,6.53,6.85,13.22,6.85,13.22l3.68-0.99c0,0,5.64-5.98,2.98-15.86
						C307.86,182.34,299.98,179.99,299.98,179.99L299.98,179.99z"/>
				</g>
				<g>
					<path class="st12" d="M303.27,208.61c-1.44-0.55-7.63-3.38-9.89-11.78c-2.26-8.42,1.69-13.95,2.66-15.15
						c1.44,0.55,7.64,3.38,9.89,11.78C308.18,201.86,304.24,207.41,303.27,208.61z"/>
					<path d="M296.19,182.28c1.82,0.75,7.17,3.57,9.25,11.31c2.08,7.74-1.14,12.86-2.33,14.42c-1.82-0.75-7.17-3.57-9.25-11.31
						C291.78,188.96,295,183.84,296.19,182.28 M295.88,181.1c0,0-5.64,5.98-2.98,15.86c2.66,9.89,10.53,12.23,10.53,12.23
						s5.64-5.98,2.98-15.86C303.75,183.44,295.88,181.1,295.88,181.1L295.88,181.1z"/>
				</g>
				<g>
					<path class="st126" d="M302.45,205.58c-1.21-0.58-5.32-2.98-7.02-9.3c-1.7-6.34,0.65-10.45,1.41-11.56
						c1.19,0.6,5.17,3.03,6.87,9.34C305.4,200.38,303.18,204.47,302.45,205.58z"/>
					<path d="M297.01,185.36c1.43,0.81,4.71,3.21,6.21,8.82c1.51,5.61-0.12,9.33-0.96,10.75c-1.47-0.79-4.84-3.16-6.35-8.78
						C294.4,190.53,296.14,186.78,297.01,185.36 M296.68,184.09c0,0-3.82,4.54-1.73,12.32c2.09,7.78,7.67,9.79,7.67,9.79
						s3.66-4.49,1.57-12.27C302.1,186.15,296.68,184.09,296.68,184.09L296.68,184.09z"/>
				</g>
			</g>
			<path class="st9" d="M486.11,155.74c0,0,9.07-14.8,8.31-15.96s-2.37-2.12-3-1.04s-5.2,8.26-5.2,8.26s-2.27,3.55-2.2,6.67"/>
			<path class="st9" d="M472.75,134.94l0.18,9.62c-0.04,0.91,0.58,1.71,1.47,1.9l0,0c1.11,0.24,2.17-0.56,2.25-1.69l1.18-11.75
				l-1.3,13.52c-0.07,0.92,0.55,1.75,1.45,1.94l0,0c1.09,0.24,2.14-0.55,2.22-1.66l1.68-14.17l-1.88,15.84
				c-0.05,0.91,0.57,1.73,1.46,1.92l0.06,0.01c1.08,0.23,2.12-0.52,2.24-1.62l2.46-14.93l-2.49,13.24
				c-0.17,1.43,0.83,2.73,2.25,2.92l0.39,0.05c1.02,0.14,1.96-0.57,2.1-1.59l2.1-13.4c0,0-1.93-5.95-4.34-1.23
				c0,0-2.33-5.17-4.34-1.23c-0.4,0.79-1.64-3.34-3.96-0.04C477.92,132.61,472.79,130.98,472.75,134.94"/>
			<path class="st9" d="M435.8,197.42l-35.08-18.55c-0.8-0.42-1.18-1.36-0.9-2.23l0,0c0.35-1.08,1.58-1.59,2.59-1.09l9.85,4.88
				l-15.75-7.69c-0.83-0.4-1.23-1.36-0.94-2.23l0,0c0.35-1.06,1.55-1.57,2.56-1.08l15.29,7.47l-17.66-9.08
				c-0.81-0.42-1.2-1.37-0.92-2.24l0.02-0.06c0.35-1.05,1.52-1.57,2.53-1.12l17.89,8.02l-16.46-7.13c-1.32-0.57-1.93-2.09-1.38-3.42
				l0.15-0.37c0.4-0.95,1.48-1.4,2.43-1l25.12,10.47l-12.28-6.66c-0.8-0.34-1.27-1.18-1.12-2.04l0.26-1.45
				c0.21-1.16,1.43-1.84,2.53-1.4l15.06,7.54c0,0,4.47,1.86,7.78,7.26c3.31,5.39,5.82,7.34,5.82,7.34"/>
			<path class="st9" d="M541.08,164.8c-10.3,7.25-23.97,14.62-39.08,17.43c-31.53,5.87-55.01-2.86-55.01-2.86s-7.52,0.26-13.13,7.8
				s0.52,15.04,0.52,15.04c24.73,14.01,48.95,18.86,77.37,12.18c28.41-6.68,63.84-27.43,63.84-27.43s-1.25-12.67-4.22-20.52
				c-5.61-14.82-18.67-17.98-18.67-17.98"/>
		</g>
	</g>
	<line class="st37" x1="899.12" y1="279.5" x2="907.12" y2="268.5"/>
	<line class="st37" x1="861.12" y1="279.5" x2="869.12" y2="268.5"/>
	<line class="st37" x1="861.12" y1="93.5" x2="869.12" y2="82.5"/>
	<line class="st37" x1="400.12" y1="279.5" x2="408.12" y2="268.5"/>
	<line class="st37" x1="361.39" y1="279.69" x2="369.12" y2="268.5"/>
	<line class="st37" x1="361.12" y1="93.5" x2="369.12" y2="82.5"/>
</g>
<g>
	<path d="M350.52,460.79h11.2c7.17,0,12.95,2.56,12.95,10.48c0,7.66-5.85,11.05-12.75,11.05h-4.03v11.06h-7.37V460.79z
		 M361.48,476.47c4.05,0,5.97-1.81,5.97-5.2c0-3.41-2.18-4.63-6.17-4.63h-3.39v9.83H361.48z"/>
	<path d="M383.89,460.79h8.82l10.23,32.59h-7.8l-4.26-16.5c-0.91-3.26-1.78-7.11-2.65-10.51h-0.2c-0.79,3.44-1.66,7.25-2.56,10.51
		l-4.28,16.5h-7.53L383.89,460.79z M380.4,479.89h15.68v5.73H380.4V479.89z"/>
	<path d="M404.43,477.28c0-10.81,7.18-17.08,15.88-17.08c4.73,0,8.09,2.02,10.28,4.23l-3.88,4.73c-1.62-1.49-3.36-2.59-6.15-2.59
		c-5.02,0-8.58,3.94-8.58,10.47c0,6.7,3.03,10.59,9.17,10.59c1.31,0,2.66-0.34,3.45-0.97v-5.63h-5.4v-6.01h11.94v15.03
		c-2.25,2.2-6.21,3.95-10.75,3.95C411.42,493.98,404.43,488.25,404.43,477.28z"/>
	<path d="M437.87,460.79h20.42v6.18h-13.05v6.54h11.11v6.18h-11.11v7.51h13.55v6.18h-20.92V460.79z"/>
	<path d="M475.27,460.79h7.55l8.5,16.21l3.22,7.16h0.2c-0.35-3.45-0.94-8.01-0.94-11.85v-11.51h7.02v32.59h-7.55l-8.5-16.25
		l-3.22-7.12h-0.2c0.35,3.59,0.94,7.96,0.94,11.8v11.57h-7.02V460.79z"/>
	<path d="M506.98,476.95c0-10.65,6.01-16.75,14.8-16.75s14.8,6.15,14.8,16.75c0,10.65-6.01,17.04-14.8,17.04
		S506.98,487.59,506.98,476.95z M529.03,476.95c0-6.53-2.8-10.39-7.25-10.39s-7.25,3.86-7.25,10.39s2.8,10.67,7.25,10.67
		S529.03,483.48,529.03,476.95z"/>
	<path d="M547.6,466.97h-8.97v-6.18h25.31v6.18h-8.97v26.41h-7.37V466.97z"/>
	<path d="M579.02,460.79h20.57v6.18h-13.2v7.56h11.28v6.18h-11.28v12.68h-7.37V460.79z"/>
	<path d="M603.18,476.95c0-10.65,6.01-16.75,14.8-16.75s14.8,6.15,14.8,16.75c0,10.65-6.01,17.04-14.8,17.04
		S603.18,487.59,603.18,476.95z M625.23,476.95c0-6.53-2.8-10.39-7.25-10.39s-7.25,3.86-7.25,10.39s2.8,10.67,7.25,10.67
		S625.23,483.48,625.23,476.95z"/>
	<path d="M638.74,478.28v-17.49h7.37v18.24c0,6.38,2.01,8.59,5.66,8.59c3.67,0,5.78-2.21,5.78-8.59v-18.24h7.1v17.49
		c0,10.94-4.45,15.7-12.88,15.7S638.74,489.22,638.74,478.28z"/>
	<path d="M672.17,460.79h7.55l8.5,16.21l3.22,7.16h0.2c-0.35-3.45-0.94-8.01-0.94-11.85v-11.51h7.02v32.59h-7.55l-8.5-16.25
		l-3.22-7.12h-0.2c0.35,3.59,0.94,7.96,0.94,11.8v11.57h-7.02V460.79z"/>
	<path d="M705.42,460.79h9.21c9.95,0,16.37,4.95,16.37,16.15c0,11.2-6.41,16.44-15.96,16.44h-9.63V460.79z M714.19,487.45
		c5.53,0,9.26-2.71,9.26-10.5c0-7.79-3.74-10.22-9.26-10.22h-1.4v20.73H714.19z"/>
</g>
<g>
	<g>
		<path d="M232.38,537.89h1.81l1.45,7.5c0.27,1.48,0.54,2.96,0.81,4.44h0.08c0.3-1.48,0.64-2.97,0.97-4.44l1.91-7.5H241l1.91,7.5
			c0.33,1.46,0.66,2.95,1,4.44h0.08c0.27-1.49,0.51-2.98,0.78-4.44l1.45-7.5h1.69l-2.85,13.78h-2.11l-2.08-8.28
			c-0.24-1.08-0.46-2.08-0.66-3.14h-0.08c-0.21,1.06-0.45,2.06-0.69,3.14l-2.04,8.28h-2.08L232.38,537.89z"/>
		<path d="M249.37,546.58c0-3.32,2.24-5.37,4.59-5.37c2.6,0,4.07,1.87,4.07,4.79c0,0.36-0.03,0.73-0.08,0.98h-6.87
			c0.12,2.16,1.45,3.56,3.39,3.56c0.98,0,1.78-0.32,2.54-0.82l0.62,1.13c-0.89,0.59-1.98,1.06-3.37,1.06
			C251.54,551.92,249.37,549.93,249.37,546.58z M256.51,545.74c0-2.04-0.92-3.16-2.52-3.16c-1.44,0-2.72,1.15-2.93,3.16H256.51z"/>
		<path d="M263.99,546.58c0-3.41,2.3-5.37,4.91-5.37c1.34,0,2.27,0.55,2.99,1.2l-0.88,1.14c-0.59-0.54-1.22-0.9-2.03-0.9
			c-1.85,0-3.2,1.59-3.2,3.93s1.28,3.9,3.16,3.9c0.93,0,1.76-0.45,2.4-1.02l0.75,1.16c-0.92,0.82-2.08,1.3-3.3,1.3
			C266.06,551.92,263.99,549.96,263.99,546.58z"/>
		<path d="M273.48,549.02c0-2.22,1.92-3.33,6.27-3.81c0-1.31-0.44-2.58-2.11-2.58c-1.18,0-2.24,0.56-3.04,1.09l-0.68-1.18
			c0.94-0.62,2.37-1.33,4.01-1.33c2.49,0,3.54,1.66,3.54,4.2v6.26h-1.43l-0.15-1.22h-0.06c-0.97,0.81-2.11,1.47-3.38,1.47
			C274.76,551.92,273.48,550.86,273.48,549.02z M279.75,549.18v-2.83c-3.42,0.41-4.58,1.25-4.58,2.55c0,1.16,0.79,1.63,1.79,1.63
			C277.94,550.53,278.76,550.05,279.75,549.18z"/>
		<path d="M284.69,541.46h1.43l0.15,1.47h0.06c0.97-0.96,2.02-1.72,3.42-1.72c2.15,0,3.12,1.39,3.12,3.99v6.47h-1.73v-6.24
			c0-1.9-0.58-2.71-1.93-2.71c-1.04,0-1.77,0.53-2.79,1.57v7.39h-1.73V541.46z"/>
		<path d="M295.35,541.81c1.05-0.69,1.59-1.43,1.59-2.63l-0.25-1.39l0.87,1.07c-0.26,0.25-0.48,0.36-0.81,0.36
			c-0.58,0-1.12-0.38-1.12-1.06c0-0.72,0.46-1.16,1.12-1.16c0.83,0,1.32,0.68,1.32,1.9c0,1.67-0.78,2.89-2.24,3.73L295.35,541.81z"
			/>
		<path d="M301.29,548.51v-5.64h-1.52v-1.31l1.6-0.1l0.21-2.86h1.44v2.86h2.76v1.41h-2.76v5.67c0,1.25,0.4,1.97,1.58,1.97
			c0.36,0,0.83-0.14,1.16-0.27l0.33,1.3c-0.57,0.19-1.26,0.38-1.89,0.38C302.03,551.92,301.29,550.54,301.29,548.51z"/>
		<path d="M311.19,541.56l1.46-0.1h3.81v1.41h-5.27V541.56z M312.57,539.85c0-2.07,0.94-3.39,2.99-3.39c0.62,0,1.23,0.16,1.7,0.35
			l-0.36,1.32c-0.39-0.18-0.79-0.26-1.16-0.26c-0.96,0-1.44,0.67-1.44,1.99v11.81h-1.73V539.85z"/>
		<path d="M318.1,538.25c0-0.68,0.52-1.12,1.19-1.12c0.67,0,1.19,0.44,1.19,1.12c0,0.65-0.52,1.12-1.19,1.12
			C318.63,539.36,318.1,538.9,318.1,538.25z M318.42,541.46h1.73v10.21h-1.73V541.46z"/>
		<path d="M323.59,541.46h1.43l0.15,1.47h0.06c0.97-0.96,2.02-1.72,3.42-1.72c2.15,0,3.12,1.39,3.12,3.99v6.47h-1.73v-6.24
			c0-1.9-0.58-2.71-1.93-2.71c-1.04,0-1.77,0.53-2.79,1.57v7.39h-1.73V541.46z"/>
		<path d="M334.35,546.58c0-3.31,2.09-5.37,4.42-5.37c1.19,0,1.97,0.45,2.86,1.18l-0.07-1.75v-3.93h1.73v14.96h-1.43l-0.15-1.21
			h-0.06c-0.79,0.79-1.88,1.46-3.1,1.46C336,551.92,334.35,549.98,334.35,546.58z M341.55,549.07v-5.35
			c-0.87-0.78-1.66-1.06-2.49-1.06c-1.63,0-2.93,1.57-2.93,3.9c0,2.45,1.01,3.9,2.8,3.9C339.88,550.47,340.69,550.01,341.55,549.07z
			"/>
		<path d="M351.23,548.51v-5.64h-1.52v-1.31l1.6-0.1l0.21-2.86h1.44v2.86h2.76v1.41h-2.76v5.67c0,1.25,0.4,1.97,1.58,1.97
			c0.36,0,0.83-0.14,1.16-0.27l0.33,1.3c-0.57,0.19-1.26,0.38-1.89,0.38C351.97,551.92,351.23,550.54,351.23,548.51z"/>
		<path d="M358.03,536.71h1.73v4.09l-0.06,2.1c0.95-0.92,1.99-1.69,3.39-1.69c2.15,0,3.12,1.39,3.12,3.99v6.47h-1.73v-6.24
			c0-1.9-0.58-2.71-1.93-2.71c-1.04,0-1.77,0.53-2.79,1.57v7.39h-1.73V536.71z"/>
		<path d="M368.82,549.02c0-2.22,1.92-3.33,6.27-3.81c0-1.31-0.44-2.58-2.11-2.58c-1.18,0-2.24,0.56-3.04,1.09l-0.68-1.18
			c0.94-0.62,2.37-1.33,4.01-1.33c2.49,0,3.54,1.66,3.54,4.2v6.26h-1.43l-0.15-1.22h-0.06c-0.97,0.81-2.11,1.47-3.38,1.47
			C370.1,551.92,368.82,550.86,368.82,549.02z M375.09,549.18v-2.83c-3.42,0.41-4.58,1.25-4.58,2.55c0,1.16,0.79,1.63,1.79,1.63
			C373.28,550.53,374.1,550.05,375.09,549.18z"/>
		<path d="M380,548.51v-5.64h-1.52v-1.31l1.6-0.1l0.21-2.86h1.44v2.86h2.76v1.41h-2.76v5.67c0,1.25,0.4,1.97,1.58,1.97
			c0.36,0,0.83-0.14,1.16-0.27l0.33,1.3c-0.57,0.19-1.26,0.38-1.89,0.38C380.74,551.92,380,550.54,380,548.51z"/>
		<path d="M391,541.46h1.43l0.15,1.18h0.06c0.92-0.77,2.07-1.43,3.25-1.43c2.64,0,4.05,2.05,4.05,5.2c0,3.48-2.09,5.51-4.42,5.51
			c-0.94,0-1.89-0.43-2.83-1.18l0.05,1.78v3.46H391V541.46z M398.14,546.42c0-2.25-0.77-3.76-2.69-3.76c-0.86,0-1.74,0.48-2.73,1.39
			v5.35c0.92,0.78,1.81,1.06,2.48,1.06C396.9,550.47,398.14,548.94,398.14,546.42z"/>
		<path d="M401.77,549.02c0-2.22,1.92-3.33,6.27-3.81c0-1.31-0.44-2.58-2.11-2.58c-1.18,0-2.24,0.56-3.04,1.09l-0.68-1.18
			c0.94-0.62,2.37-1.33,4.01-1.33c2.49,0,3.54,1.66,3.54,4.2v6.26h-1.43l-0.15-1.22h-0.06c-0.97,0.81-2.11,1.47-3.38,1.47
			C403.05,551.92,401.77,550.86,401.77,549.02z M408.04,549.18v-2.83c-3.42,0.41-4.58,1.25-4.58,2.55c0,1.16,0.79,1.63,1.79,1.63
			C406.23,550.53,407.05,550.05,408.04,549.18z"/>
		<path d="M412.21,553.63c0-0.87,0.56-1.7,1.5-2.31v-0.08c-0.52-0.33-0.91-0.87-0.91-1.67c0-0.85,0.59-1.52,1.12-1.89v-0.08
			c-0.68-0.53-1.32-1.52-1.32-2.74c0-2.23,1.76-3.64,3.83-3.64c0.56,0,1.07,0.11,1.44,0.25h3.56v1.33h-2.1
			c0.48,0.46,0.83,1.23,0.83,2.1c0,2.19-1.65,3.54-3.74,3.54c-0.5,0-1.06-0.12-1.52-0.35c-0.37,0.31-0.65,0.65-0.65,1.21
			c0,0.65,0.42,1.11,1.79,1.11h1.99c2.37,0,3.57,0.75,3.57,2.44c0,1.9-2.01,3.53-5.16,3.53
			C413.93,556.36,412.21,555.38,412.21,553.63z M419.9,553.09c0-0.94-0.72-1.27-2.06-1.27h-1.76c-0.39,0-0.87-0.04-1.33-0.15
			c-0.73,0.52-1.04,1.13-1.04,1.71c0,1.1,1.1,1.79,2.96,1.79C418.62,555.17,419.9,554.16,419.9,553.09z M418.59,544.84
			c0-1.48-0.97-2.38-2.17-2.38c-1.2,0-2.17,0.89-2.17,2.38c0,1.49,0.99,2.42,2.17,2.42C417.6,547.27,418.59,546.33,418.59,544.84z"
			/>
		<path d="M422.47,546.58c0-3.32,2.24-5.37,4.59-5.37c2.6,0,4.07,1.87,4.07,4.79c0,0.36-0.03,0.73-0.08,0.98h-6.87
			c0.12,2.16,1.45,3.56,3.39,3.56c0.98,0,1.78-0.32,2.54-0.82l0.62,1.13c-0.89,0.59-1.98,1.06-3.37,1.06
			C424.64,551.92,422.47,549.93,422.47,546.58z M429.61,545.74c0-2.04-0.92-3.16-2.52-3.16c-1.44,0-2.72,1.15-2.93,3.16H429.61z"/>
		<path d="M433.29,550.61c0-0.79,0.56-1.33,1.25-1.33c0.69,0,1.25,0.54,1.25,1.33c0,0.77-0.56,1.31-1.25,1.31
			C433.85,551.92,433.29,551.38,433.29,550.61z"/>
		<path d="M446.11,539.37h-4.17v-1.48h10.09v1.48h-4.17v12.3h-1.75V539.37z"/>
		<path d="M454.33,536.71h1.73v4.09l-0.06,2.1c0.95-0.92,1.99-1.69,3.39-1.69c2.15,0,3.12,1.39,3.12,3.99v6.47h-1.73v-6.24
			c0-1.9-0.58-2.71-1.93-2.71c-1.04,0-1.77,0.53-2.79,1.57v7.39h-1.73V536.71z"/>
		<path d="M465.44,538.25c0-0.68,0.52-1.12,1.19-1.12c0.67,0,1.19,0.44,1.19,1.12c0,0.65-0.52,1.12-1.19,1.12
			C465.96,539.36,465.44,538.9,465.44,538.25z M465.76,541.46h1.73v10.21h-1.73V541.46z"/>
		<path d="M469.79,550.5l0.85-1.14c0.89,0.71,1.79,1.21,3.01,1.21c1.34,0,2.01-0.71,2.01-1.59c0-1.05-1.21-1.51-2.33-1.93
			c-1.43-0.52-3.04-1.23-3.04-2.95c0-1.63,1.31-2.9,3.52-2.9c1.27,0,2.38,0.52,3.17,1.15l-0.83,1.11c-0.7-0.52-1.42-0.91-2.33-0.91
			c-1.29,0-1.88,0.69-1.88,1.46c0,0.97,1.11,1.34,2.27,1.77c1.47,0.55,3.11,1.15,3.11,3.1c0,1.66-1.32,3.03-3.72,3.03
			C472.15,551.92,470.75,551.3,469.79,550.5z"/>
		<path d="M483.16,546.58c0-3.41,2.3-5.37,4.91-5.37c1.34,0,2.27,0.55,2.99,1.2l-0.88,1.14c-0.59-0.54-1.22-0.9-2.03-0.9
			c-1.85,0-3.2,1.59-3.2,3.93s1.28,3.9,3.16,3.9c0.93,0,1.76-0.45,2.4-1.02l0.75,1.16c-0.92,0.82-2.08,1.3-3.3,1.3
			C485.23,551.92,483.16,549.96,483.16,546.58z"/>
		<path d="M492.23,546.58c0-3.41,2.23-5.37,4.73-5.37s4.73,1.96,4.73,5.37c0,3.38-2.23,5.34-4.73,5.34S492.23,549.96,492.23,546.58z
			 M499.91,546.58c0-2.34-1.19-3.93-2.94-3.93c-1.76,0-2.95,1.59-2.95,3.93s1.19,3.9,2.95,3.9
			C498.72,550.48,499.91,548.92,499.91,546.58z"/>
		<path d="M504.24,547.93v-6.47h1.73v6.24c0,1.9,0.58,2.71,1.93,2.71c1.04,0,1.77-0.52,2.73-1.72v-7.24h1.73v10.21h-1.43l-0.15-1.6
			h-0.06c-0.95,1.11-1.96,1.85-3.37,1.85C505.2,551.92,504.24,550.53,504.24,547.93z"/>
		<path d="M515.8,549.62v-12.91h1.73v13.03c0,0.53,0.23,0.74,0.48,0.74c0.1,0,0.18,0,0.38-0.04l0.23,1.32
			c-0.25,0.09-0.54,0.16-0.99,0.16C516.33,551.92,515.8,551.09,515.8,549.62z"/>
		<path d="M520.43,546.58c0-3.31,2.09-5.37,4.42-5.37c1.19,0,1.97,0.45,2.86,1.18l-0.07-1.75v-3.93h1.73v14.96h-1.43l-0.15-1.21
			h-0.06c-0.79,0.79-1.88,1.46-3.1,1.46C522.08,551.92,520.43,549.98,520.43,546.58z M527.63,549.07v-5.35
			c-0.87-0.78-1.66-1.06-2.49-1.06c-1.63,0-2.93,1.57-2.93,3.9c0,2.45,1.01,3.9,2.8,3.9C525.96,550.47,526.77,550.01,527.63,549.07z
			"/>
		<path d="M538.61,550.61h-0.06l-0.16,1.05h-1.38v-14.96h1.73v4.09l-0.06,1.83c0.93-0.8,2.07-1.42,3.21-1.42
			c2.64,0,4.05,2.05,4.05,5.19c0,3.49-2.09,5.52-4.42,5.52C540.57,551.92,539.51,551.43,538.61,550.61z M544.15,546.42
			c0-2.25-0.77-3.76-2.69-3.76c-0.86,0-1.76,0.48-2.73,1.39v5.35c0.9,0.78,1.81,1.06,2.48,1.06
			C542.91,550.47,544.15,548.94,544.15,546.42z"/>
		<path d="M547.86,546.58c0-3.32,2.24-5.37,4.59-5.37c2.6,0,4.07,1.87,4.07,4.79c0,0.36-0.03,0.73-0.08,0.98h-6.87
			c0.12,2.16,1.45,3.56,3.39,3.56c0.98,0,1.78-0.32,2.54-0.82l0.62,1.13c-0.89,0.59-1.98,1.06-3.37,1.06
			C550.03,551.92,547.86,549.93,547.86,546.58z M555,545.74c0-2.04-0.92-3.16-2.52-3.16c-1.44,0-2.72,1.15-2.93,3.16H555z"/>
		<path d="M564.84,550.61h-0.06l-0.16,1.05h-1.38v-14.96h1.73v4.09l-0.06,1.83c0.93-0.8,2.07-1.42,3.21-1.42
			c2.64,0,4.05,2.05,4.05,5.19c0,3.49-2.09,5.52-4.42,5.52C566.8,551.92,565.74,551.43,564.84,550.61z M570.38,546.42
			c0-2.25-0.77-3.76-2.69-3.76c-0.86,0-1.76,0.48-2.73,1.39v5.35c0.9,0.78,1.81,1.06,2.48,1.06
			C569.14,550.47,570.38,548.94,570.38,546.42z"/>
		<path d="M574.09,546.58c0-3.32,2.24-5.37,4.59-5.37c2.6,0,4.07,1.87,4.07,4.79c0,0.36-0.03,0.73-0.08,0.98h-6.87
			c0.12,2.16,1.45,3.56,3.39,3.56c0.98,0,1.78-0.32,2.54-0.82l0.62,1.13c-0.89,0.59-1.98,1.06-3.37,1.06
			C576.26,551.92,574.09,549.93,574.09,546.58z M581.23,545.74c0-2.04-0.92-3.16-2.52-3.16c-1.44,0-2.72,1.15-2.93,3.16H581.23z"/>
		<path d="M584.51,546.58c0-3.41,2.3-5.37,4.91-5.37c1.34,0,2.27,0.55,2.99,1.2l-0.88,1.14c-0.59-0.54-1.22-0.9-2.03-0.9
			c-1.85,0-3.2,1.59-3.2,3.93s1.28,3.9,3.16,3.9c0.93,0,1.76-0.45,2.4-1.02l0.75,1.16c-0.92,0.82-2.08,1.3-3.3,1.3
			C586.58,551.92,584.51,549.96,584.51,546.58z"/>
		<path d="M594,549.02c0-2.22,1.92-3.33,6.27-3.81c0-1.31-0.44-2.58-2.11-2.58c-1.18,0-2.24,0.56-3.04,1.09l-0.68-1.18
			c0.94-0.62,2.37-1.33,4.01-1.33c2.49,0,3.54,1.66,3.54,4.2v6.26h-1.43l-0.15-1.22h-0.06c-0.97,0.81-2.11,1.47-3.38,1.47
			C595.28,551.92,594,550.86,594,549.02z M600.27,549.18v-2.83c-3.42,0.41-4.58,1.25-4.58,2.55c0,1.16,0.79,1.63,1.79,1.63
			C598.46,550.53,599.28,550.05,600.27,549.18z"/>
		<path d="M605.08,547.93v-6.47h1.73v6.24c0,1.9,0.58,2.71,1.93,2.71c1.04,0,1.77-0.52,2.73-1.72v-7.24h1.73v10.21h-1.43l-0.15-1.6
			h-0.06c-0.95,1.11-1.96,1.85-3.37,1.85C606.04,551.92,605.08,550.53,605.08,547.93z"/>
		<path d="M615.51,550.5l0.85-1.14c0.89,0.71,1.79,1.21,3.01,1.21c1.34,0,2.01-0.71,2.01-1.59c0-1.05-1.21-1.51-2.33-1.93
			c-1.43-0.52-3.04-1.23-3.04-2.95c0-1.63,1.31-2.9,3.52-2.9c1.27,0,2.38,0.52,3.17,1.15l-0.83,1.11c-0.7-0.52-1.42-0.91-2.33-0.91
			c-1.29,0-1.88,0.69-1.88,1.46c0,0.97,1.11,1.34,2.27,1.77c1.47,0.55,3.11,1.15,3.11,3.1c0,1.66-1.32,3.03-3.72,3.03
			C617.86,551.92,616.47,551.3,615.51,550.5z"/>
		<path d="M624.68,546.58c0-3.32,2.24-5.37,4.59-5.37c2.6,0,4.07,1.87,4.07,4.79c0,0.36-0.03,0.73-0.08,0.98h-6.87
			c0.12,2.16,1.45,3.56,3.39,3.56c0.98,0,1.78-0.32,2.54-0.82l0.62,1.13c-0.89,0.59-1.98,1.06-3.37,1.06
			C626.85,551.92,624.68,549.93,624.68,546.58z M631.81,545.74c0-2.04-0.92-3.16-2.52-3.16c-1.44,0-2.72,1.15-2.93,3.16H631.81z"/>
		<path d="M635.5,543.04c0-0.79,0.56-1.33,1.25-1.33c0.69,0,1.25,0.54,1.25,1.33c0,0.77-0.56,1.31-1.25,1.31
			C636.06,544.35,635.5,543.81,635.5,543.04z M635.5,550.61c0-0.79,0.56-1.33,1.25-1.33c0.69,0,1.25,0.54,1.25,1.33
			c0,0.77-0.56,1.31-1.25,1.31C636.06,551.92,635.5,551.38,635.5,550.61z"/>
		<path d="M272.65,568.37h-4.17v-1.48h10.09v1.48h-4.17v12.3h-1.75V568.37z"/>
		<path d="M280.88,565.71h1.73v4.09l-0.06,2.1c0.95-0.92,1.99-1.69,3.39-1.69c2.15,0,3.12,1.39,3.12,3.99v6.47h-1.73v-6.24
			c0-1.9-0.58-2.71-1.93-2.71c-1.04,0-1.77,0.53-2.79,1.57v7.39h-1.73V565.71z"/>
		<path d="M291.55,575.58c0-3.32,2.24-5.37,4.59-5.37c2.6,0,4.07,1.87,4.07,4.79c0,0.36-0.03,0.73-0.08,0.98h-6.87
			c0.12,2.16,1.45,3.56,3.39,3.56c0.98,0,1.78-0.32,2.54-0.82l0.62,1.13c-0.89,0.59-1.98,1.06-3.37,1.06
			C293.71,580.92,291.55,578.93,291.55,575.58z M298.68,574.74c0-2.04-0.92-3.16-2.52-3.16c-1.44,0-2.72,1.15-2.93,3.16H298.68z"/>
		<path d="M306.92,570.46h1.43l0.15,1.18h0.06c0.92-0.77,2.07-1.43,3.25-1.43c2.64,0,4.05,2.05,4.05,5.2c0,3.48-2.09,5.51-4.42,5.51
			c-0.94,0-1.89-0.43-2.83-1.18l0.05,1.78v3.46h-1.73V570.46z M314.06,575.42c0-2.25-0.77-3.76-2.69-3.76
			c-0.86,0-1.74,0.48-2.73,1.39v5.35c0.92,0.78,1.81,1.06,2.48,1.06C312.82,579.47,314.06,577.94,314.06,575.42z"/>
		<path d="M317.69,578.02c0-2.22,1.92-3.33,6.27-3.81c0-1.31-0.44-2.58-2.11-2.58c-1.18,0-2.24,0.56-3.04,1.09l-0.68-1.18
			c0.94-0.62,2.37-1.33,4.01-1.33c2.49,0,3.54,1.66,3.54,4.2v6.26h-1.43l-0.15-1.22h-0.06c-0.97,0.81-2.11,1.47-3.38,1.47
			C318.97,580.92,317.69,579.86,317.69,578.02z M323.96,578.18v-2.83c-3.42,0.41-4.58,1.25-4.58,2.55c0,1.16,0.79,1.63,1.79,1.63
			C322.16,579.53,322.97,579.05,323.96,578.18z"/>
		<path d="M328.13,582.63c0-0.87,0.56-1.7,1.5-2.31v-0.08c-0.52-0.33-0.91-0.87-0.91-1.67c0-0.85,0.59-1.52,1.12-1.89v-0.08
			c-0.68-0.53-1.32-1.52-1.32-2.74c0-2.23,1.76-3.64,3.83-3.64c0.56,0,1.07,0.11,1.44,0.25h3.56v1.33h-2.1
			c0.48,0.46,0.83,1.23,0.83,2.1c0,2.19-1.65,3.54-3.74,3.54c-0.5,0-1.06-0.12-1.52-0.35c-0.37,0.31-0.65,0.65-0.65,1.21
			c0,0.65,0.42,1.11,1.79,1.11h1.99c2.37,0,3.57,0.75,3.57,2.44c0,1.9-2.01,3.53-5.16,3.53
			C329.86,585.36,328.13,584.38,328.13,582.63z M335.82,582.09c0-0.94-0.72-1.27-2.06-1.27h-1.76c-0.39,0-0.87-0.04-1.33-0.15
			c-0.73,0.52-1.04,1.13-1.04,1.71c0,1.1,1.1,1.79,2.96,1.79C334.54,584.17,335.82,583.16,335.82,582.09z M334.52,573.84
			c0-1.48-0.97-2.38-2.17-2.38c-1.2,0-2.17,0.89-2.17,2.38c0,1.49,0.99,2.42,2.17,2.42C333.52,576.27,334.52,575.33,334.52,573.84z"
			/>
		<path d="M338.4,575.58c0-3.32,2.24-5.37,4.59-5.37c2.6,0,4.07,1.87,4.07,4.79c0,0.36-0.03,0.73-0.08,0.98h-6.87
			c0.12,2.16,1.45,3.56,3.39,3.56c0.98,0,1.78-0.32,2.54-0.82l0.62,1.13c-0.89,0.59-1.98,1.06-3.37,1.06
			C340.56,580.92,338.4,578.93,338.4,575.58z M345.53,574.74c0-2.04-0.92-3.16-2.52-3.16c-1.44,0-2.72,1.15-2.93,3.16H345.53z"/>
		<path d="M353.04,575.58c0-3.31,2.09-5.37,4.42-5.37c1.19,0,1.97,0.45,2.86,1.18l-0.07-1.75v-3.93h1.73v14.96h-1.43l-0.15-1.21
			h-0.06c-0.79,0.79-1.88,1.46-3.1,1.46C354.7,580.92,353.04,578.98,353.04,575.58z M360.25,578.07v-5.35
			c-0.87-0.78-1.66-1.06-2.49-1.06c-1.63,0-2.93,1.57-2.93,3.9c0,2.45,1.01,3.9,2.8,3.9C358.57,579.47,359.39,579.01,360.25,578.07z
			"/>
		<path d="M364.67,575.58c0-3.41,2.23-5.37,4.73-5.37s4.73,1.96,4.73,5.37c0,3.38-2.23,5.34-4.73,5.34S364.67,578.96,364.67,575.58z
			 M372.34,575.58c0-2.34-1.19-3.93-2.94-3.93c-1.76,0-2.95,1.59-2.95,3.93s1.19,3.9,2.95,3.9
			C371.15,579.48,372.34,577.92,372.34,575.58z"/>
		<path d="M376.05,575.58c0-3.32,2.24-5.37,4.59-5.37c2.6,0,4.07,1.87,4.07,4.79c0,0.36-0.03,0.73-0.08,0.98h-6.87
			c0.12,2.16,1.45,3.56,3.39,3.56c0.98,0,1.78-0.32,2.54-0.82l0.62,1.13c-0.89,0.59-1.98,1.06-3.37,1.06
			C378.21,580.92,376.05,578.93,376.05,575.58z M383.18,574.74c0-2.04-0.92-3.16-2.52-3.16c-1.44,0-2.72,1.15-2.93,3.16H383.18z"/>
		<path d="M386.09,579.5l0.85-1.14c0.89,0.71,1.79,1.21,3.01,1.21c1.34,0,2.01-0.71,2.01-1.59c0-1.05-1.21-1.51-2.33-1.93
			c-1.43-0.52-3.04-1.23-3.04-2.95c0-1.63,1.31-2.9,3.52-2.9c1.27,0,2.38,0.52,3.17,1.15l-0.83,1.11c-0.7-0.52-1.42-0.91-2.33-0.91
			c-1.29,0-1.88,0.69-1.88,1.46c0,0.97,1.11,1.34,2.27,1.77c1.47,0.55,3.11,1.15,3.11,3.1c0,1.66-1.32,3.03-3.72,3.03
			C388.45,580.92,387.05,580.3,386.09,579.5z"/>
		<path d="M396.02,570.46h1.43l0.15,1.47h0.06c0.97-0.96,2.02-1.72,3.42-1.72c2.15,0,3.12,1.39,3.12,3.99v6.47h-1.73v-6.24
			c0-1.9-0.58-2.71-1.93-2.71c-1.04,0-1.77,0.53-2.79,1.57v7.39h-1.73V570.46z"/>
		<path d="M406.68,570.81c1.05-0.69,1.59-1.43,1.59-2.63l-0.25-1.39l0.87,1.07c-0.26,0.25-0.48,0.36-0.81,0.36
			c-0.58,0-1.12-0.38-1.12-1.06c0-0.72,0.46-1.16,1.12-1.16c0.83,0,1.32,0.68,1.32,1.9c0,1.67-0.78,2.89-2.24,3.73L406.68,570.81z"
			/>
		<path d="M412.62,577.51v-5.64h-1.52v-1.31l1.6-0.1l0.21-2.86h1.44v2.86h2.76v1.41h-2.76v5.67c0,1.25,0.4,1.97,1.58,1.97
			c0.36,0,0.83-0.14,1.16-0.27l0.33,1.3c-0.57,0.19-1.26,0.38-1.89,0.38C413.36,580.92,412.62,579.54,412.62,577.51z"/>
		<path d="M422.86,575.58c0-3.32,2.24-5.37,4.59-5.37c2.6,0,4.07,1.87,4.07,4.79c0,0.36-0.03,0.73-0.08,0.98h-6.87
			c0.12,2.16,1.45,3.56,3.39,3.56c0.98,0,1.78-0.32,2.54-0.82l0.62,1.13c-0.89,0.59-1.98,1.06-3.37,1.06
			C425.02,580.92,422.86,578.93,422.86,575.58z M429.99,574.74c0-2.04-0.92-3.16-2.52-3.16c-1.44,0-2.72,1.15-2.93,3.16H429.99z"/>
		<path d="M435.69,575.34l-3.09-4.88h1.87l1.37,2.24c0.31,0.56,0.66,1.14,1,1.7h0.08c0.31-0.56,0.61-1.14,0.92-1.7l1.25-2.24h1.8
			l-3.09,5.06l3.33,5.15h-1.87l-1.5-2.37c-0.35-0.61-0.73-1.24-1.11-1.83h-0.08c-0.35,0.59-0.68,1.21-1.03,1.83l-1.38,2.37h-1.8
			L435.69,575.34z"/>
		<path d="M442.83,567.25c0-0.68,0.52-1.12,1.19-1.12c0.67,0,1.19,0.44,1.19,1.12c0,0.65-0.52,1.12-1.19,1.12
			C443.35,568.36,442.83,567.9,442.83,567.25z M443.15,570.46h1.73v10.21h-1.73V570.46z"/>
		<path d="M447.18,579.5l0.85-1.14c0.89,0.71,1.79,1.21,3.01,1.21c1.34,0,2.01-0.71,2.01-1.59c0-1.05-1.21-1.51-2.33-1.93
			c-1.43-0.52-3.04-1.23-3.04-2.95c0-1.63,1.31-2.9,3.52-2.9c1.27,0,2.38,0.52,3.17,1.15l-0.83,1.11c-0.7-0.52-1.42-0.91-2.33-0.91
			c-1.29,0-1.88,0.69-1.88,1.46c0,0.97,1.11,1.34,2.27,1.77c1.47,0.55,3.11,1.15,3.11,3.1c0,1.66-1.32,3.03-3.72,3.03
			C449.54,580.92,448.14,580.3,447.18,579.5z"/>
		<path d="M456.99,577.51v-5.64h-1.52v-1.31l1.6-0.1l0.21-2.86h1.44v2.86h2.76v1.41h-2.76v5.67c0,1.25,0.4,1.97,1.58,1.97
			c0.36,0,0.83-0.14,1.16-0.27l0.33,1.3c-0.57,0.19-1.26,0.38-1.89,0.38C457.73,580.92,456.99,579.54,456.99,577.51z"/>
		<path d="M463.37,579.61c0-0.79,0.56-1.33,1.25-1.33c0.69,0,1.25,0.54,1.25,1.33c0,0.77-0.56,1.31-1.25,1.31
			C463.93,580.92,463.37,580.38,463.37,579.61z"/>
		<path d="M272.65,597.37h-4.17v-1.48h10.09v1.48h-4.17v12.3h-1.75V597.37z"/>
		<path d="M280.88,594.71h1.73v4.09l-0.06,2.1c0.95-0.92,1.99-1.69,3.39-1.69c2.15,0,3.12,1.39,3.12,3.99v6.47h-1.73v-6.24
			c0-1.9-0.58-2.71-1.93-2.71c-1.04,0-1.77,0.53-2.79,1.57v7.39h-1.73V594.71z"/>
		<path d="M291.55,604.58c0-3.32,2.24-5.37,4.59-5.37c2.6,0,4.07,1.87,4.07,4.79c0,0.36-0.03,0.73-0.08,0.98h-6.87
			c0.12,2.16,1.45,3.56,3.39,3.56c0.98,0,1.78-0.32,2.54-0.82l0.62,1.13c-0.89,0.59-1.98,1.06-3.37,1.06
			C293.71,609.92,291.55,607.93,291.55,604.58z M298.68,603.74c0-2.04-0.92-3.16-2.52-3.16c-1.44,0-2.72,1.15-2.93,3.16H298.68z"/>
		<path d="M306.92,599.46h1.43l0.15,1.18h0.06c0.92-0.77,2.07-1.43,3.25-1.43c2.64,0,4.05,2.05,4.05,5.2c0,3.48-2.09,5.51-4.42,5.51
			c-0.94,0-1.89-0.43-2.83-1.18l0.05,1.78v3.46h-1.73V599.46z M314.06,604.42c0-2.25-0.77-3.76-2.69-3.76
			c-0.86,0-1.74,0.48-2.73,1.39v5.35c0.92,0.78,1.81,1.06,2.48,1.06C312.82,608.47,314.06,606.94,314.06,604.42z"/>
		<path d="M317.69,607.02c0-2.22,1.92-3.33,6.27-3.81c0-1.31-0.44-2.58-2.11-2.58c-1.18,0-2.24,0.56-3.04,1.09l-0.68-1.18
			c0.94-0.62,2.37-1.33,4.01-1.33c2.49,0,3.54,1.66,3.54,4.2v6.26h-1.43l-0.15-1.22h-0.06c-0.97,0.81-2.11,1.47-3.38,1.47
			C318.97,609.92,317.69,608.86,317.69,607.02z M323.96,607.18v-2.83c-3.42,0.41-4.58,1.25-4.58,2.55c0,1.16,0.79,1.63,1.79,1.63
			C322.16,608.53,322.97,608.05,323.96,607.18z"/>
		<path d="M328.13,611.63c0-0.87,0.56-1.7,1.5-2.31v-0.08c-0.52-0.33-0.91-0.87-0.91-1.67c0-0.85,0.59-1.52,1.12-1.89v-0.08
			c-0.68-0.53-1.32-1.52-1.32-2.74c0-2.23,1.76-3.64,3.83-3.64c0.56,0,1.07,0.11,1.44,0.25h3.56v1.33h-2.1
			c0.48,0.46,0.83,1.23,0.83,2.1c0,2.19-1.65,3.54-3.74,3.54c-0.5,0-1.06-0.12-1.52-0.35c-0.37,0.31-0.65,0.65-0.65,1.21
			c0,0.65,0.42,1.11,1.79,1.11h1.99c2.37,0,3.57,0.75,3.57,2.44c0,1.9-2.01,3.53-5.16,3.53
			C329.86,614.36,328.13,613.38,328.13,611.63z M335.82,611.09c0-0.94-0.72-1.27-2.06-1.27h-1.76c-0.39,0-0.87-0.04-1.33-0.15
			c-0.73,0.52-1.04,1.13-1.04,1.71c0,1.1,1.1,1.79,2.96,1.79C334.54,613.17,335.82,612.16,335.82,611.09z M334.52,602.84
			c0-1.48-0.97-2.38-2.17-2.38c-1.2,0-2.17,0.89-2.17,2.38c0,1.49,0.99,2.42,2.17,2.42C333.52,605.27,334.52,604.33,334.52,602.84z"
			/>
		<path d="M338.4,604.58c0-3.32,2.24-5.37,4.59-5.37c2.6,0,4.07,1.87,4.07,4.79c0,0.36-0.03,0.73-0.08,0.98h-6.87
			c0.12,2.16,1.45,3.56,3.39,3.56c0.98,0,1.78-0.32,2.54-0.82l0.62,1.13c-0.89,0.59-1.98,1.06-3.37,1.06
			C340.56,609.92,338.4,607.93,338.4,604.58z M345.53,603.74c0-2.04-0.92-3.16-2.52-3.16c-1.44,0-2.72,1.15-2.93,3.16H345.53z"/>
		<path d="M353.01,604.58c0-3.32,2.24-5.37,4.59-5.37c2.6,0,4.07,1.87,4.07,4.79c0,0.36-0.03,0.73-0.08,0.98h-6.87
			c0.12,2.16,1.45,3.56,3.39,3.56c0.98,0,1.78-0.32,2.54-0.82l0.62,1.13c-0.89,0.59-1.98,1.06-3.37,1.06
			C355.18,609.92,353.01,607.93,353.01,604.58z M360.15,603.74c0-2.04-0.92-3.16-2.52-3.16c-1.44,0-2.72,1.15-2.93,3.16H360.15z"/>
		<path d="M365.84,604.34l-3.09-4.88h1.87l1.37,2.24c0.31,0.56,0.66,1.14,1,1.7h0.08c0.31-0.56,0.61-1.14,0.92-1.7l1.25-2.24h1.8
			l-3.09,5.06l3.33,5.15h-1.87l-1.5-2.37c-0.35-0.61-0.73-1.24-1.11-1.83h-0.08c-0.35,0.59-0.68,1.21-1.03,1.83l-1.38,2.37h-1.8
			L365.84,604.34z"/>
		<path d="M372.98,596.25c0-0.68,0.52-1.12,1.19-1.12c0.67,0,1.19,0.44,1.19,1.12c0,0.65-0.52,1.12-1.19,1.12
			C373.51,597.36,372.98,596.9,372.98,596.25z M373.3,599.46h1.73v10.21h-1.73V599.46z"/>
		<path d="M377.33,608.5l0.85-1.14c0.89,0.71,1.79,1.21,3.01,1.21c1.34,0,2.01-0.71,2.01-1.59c0-1.05-1.21-1.51-2.33-1.93
			c-1.43-0.52-3.04-1.23-3.04-2.95c0-1.63,1.31-2.9,3.52-2.9c1.27,0,2.38,0.52,3.17,1.15l-0.83,1.11c-0.7-0.52-1.42-0.91-2.33-0.91
			c-1.29,0-1.88,0.69-1.88,1.46c0,0.97,1.11,1.34,2.27,1.77c1.47,0.55,3.11,1.15,3.11,3.1c0,1.66-1.32,3.03-3.72,3.03
			C379.69,609.92,378.29,609.3,377.33,608.5z"/>
		<path d="M387.15,606.51v-5.64h-1.52v-1.31l1.6-0.1l0.21-2.86h1.44v2.86h2.76v1.41h-2.76v5.67c0,1.25,0.4,1.97,1.58,1.97
			c0.36,0,0.83-0.14,1.16-0.27l0.33,1.3c-0.57,0.19-1.26,0.38-1.89,0.38C387.88,609.92,387.15,608.54,387.15,606.51z"/>
		<path d="M392.6,608.5l0.85-1.14c0.89,0.71,1.79,1.21,3.01,1.21c1.34,0,2.01-0.71,2.01-1.59c0-1.05-1.21-1.51-2.33-1.93
			c-1.43-0.52-3.04-1.23-3.04-2.95c0-1.63,1.31-2.9,3.52-2.9c1.27,0,2.38,0.52,3.17,1.15l-0.83,1.11c-0.7-0.52-1.42-0.91-2.33-0.91
			c-1.29,0-1.88,0.69-1.88,1.46c0,0.97,1.11,1.34,2.27,1.77c1.47,0.55,3.11,1.15,3.11,3.1c0,1.66-1.32,3.03-3.72,3.03
			C394.96,609.92,393.56,609.3,392.6,608.5z"/>
		<path d="M401.8,612.22c1.18-0.52,1.9-1.45,1.89-2.6l-0.19-1.55l0.84,1.26c-0.23,0.28-0.54,0.36-0.87,0.36
			c-0.67,0-1.25-0.42-1.25-1.2c0-0.75,0.59-1.2,1.28-1.2c0.92,0,1.46,0.77,1.46,2.03c0,1.81-1.06,3.23-2.75,3.93L401.8,612.22z"/>
		<path d="M413.56,608.61h-0.06l-0.16,1.05h-1.38v-14.96h1.73v4.09l-0.06,1.83c0.93-0.8,2.07-1.42,3.21-1.42
			c2.64,0,4.05,2.05,4.05,5.19c0,3.49-2.09,5.52-4.42,5.52C415.52,609.92,414.46,609.43,413.56,608.61z M419.11,604.42
			c0-2.25-0.77-3.76-2.69-3.76c-0.86,0-1.76,0.48-2.73,1.39v5.35c0.9,0.78,1.81,1.06,2.48,1.06
			C417.86,608.47,419.11,606.94,419.11,604.42z"/>
		<path d="M423.44,605.93v-6.47h1.73v6.24c0,1.9,0.58,2.71,1.93,2.71c1.04,0,1.77-0.52,2.73-1.72v-7.24h1.73v10.21h-1.43l-0.15-1.6
			h-0.06c-0.95,1.11-1.96,1.85-3.37,1.85C424.4,609.92,423.44,608.53,423.44,605.93z"/>
		<path d="M435.3,606.51v-5.64h-1.52v-1.31l1.6-0.1l0.21-2.86h1.44v2.86h2.76v1.41h-2.76v5.67c0,1.25,0.4,1.97,1.58,1.97
			c0.36,0,0.83-0.14,1.16-0.27l0.33,1.3c-0.57,0.19-1.26,0.38-1.89,0.38C436.04,609.92,435.3,608.54,435.3,606.51z"/>
		<path d="M841.12,608.61c0-0.79,0.56-1.33,1.25-1.33c0.69,0,1.25,0.54,1.25,1.33c0,0.77-0.56,1.31-1.25,1.31
			C841.69,609.92,841.12,609.38,841.12,608.61z"/>
	</g>
	<circle class="st125" cx="253.77" cy="576.75" r="4.25"/>
	<circle class="st125" cx="253.77" cy="605.75" r="4.25"/>
</g>
<g>
	<g>
		<path d="M449.9,607.55l2.46-7.91h1.93l-4.24,12.18c-0.66,1.76-1.7,2.63-3.13,2.63l-0.34-0.03l-0.67-0.13v-1.46l0.49,0.04
			c0.61,0,1.09-0.12,1.43-0.37c0.34-0.25,0.62-0.7,0.84-1.36l0.4-1.07l-3.77-10.44h1.97L449.9,607.55z"/>
		<path d="M455.28,604.81c0-1.03,0.2-1.96,0.61-2.79c0.41-0.83,0.97-1.46,1.7-1.91c0.73-0.45,1.55-0.67,2.48-0.67
			c1.44,0,2.6,0.5,3.49,1.49c0.89,1,1.33,2.32,1.33,3.97v0.13c0,1.03-0.2,1.95-0.59,2.77c-0.39,0.82-0.96,1.45-1.69,1.91
			c-0.73,0.46-1.57,0.68-2.52,0.68c-1.43,0-2.59-0.5-3.48-1.49c-0.89-0.99-1.33-2.31-1.33-3.95V604.81z M457.09,605.03
			c0,1.17,0.27,2.11,0.81,2.82c0.54,0.71,1.27,1.06,2.18,1.06c0.92,0,1.65-0.36,2.19-1.08c0.54-0.72,0.81-1.73,0.81-3.02
			c0-1.16-0.27-2.1-0.82-2.81c-0.55-0.72-1.28-1.08-2.19-1.08c-0.89,0-1.61,0.35-2.16,1.06
			C457.36,602.69,457.09,603.71,457.09,605.03z"/>
		<path d="M473.66,609.15c-0.7,0.83-1.73,1.24-3.09,1.24c-1.12,0-1.98-0.33-2.57-0.98c-0.59-0.65-0.89-1.62-0.89-2.9v-6.87h1.81
			v6.82c0,1.6,0.65,2.4,1.95,2.4c1.38,0,2.3-0.51,2.75-1.54v-7.68h1.81v10.55h-1.72L473.66,609.15z"/>
		<path d="M482.67,604.82c0-1.62,0.38-2.92,1.15-3.91c0.77-0.98,1.77-1.48,3.01-1.48c1.24,0,2.21,0.42,2.94,1.27v-5.5h1.81v14.98
			h-1.66l-0.09-1.13c-0.72,0.88-1.73,1.33-3.01,1.33c-1.22,0-2.22-0.5-2.99-1.5c-0.77-1-1.16-2.31-1.16-3.92V604.82z M484.47,605.03
			c0,1.2,0.25,2.13,0.74,2.81c0.49,0.68,1.18,1.01,2.05,1.01c1.14,0,1.98-0.51,2.51-1.54v-4.85c-0.54-0.99-1.37-1.49-2.49-1.49
			c-0.88,0-1.57,0.34-2.07,1.02S484.47,603.69,484.47,605.03z"/>
		<path d="M493.9,604.81c0-1.03,0.2-1.96,0.61-2.79c0.41-0.83,0.97-1.46,1.7-1.91c0.73-0.45,1.55-0.67,2.48-0.67
			c1.44,0,2.6,0.5,3.49,1.49c0.89,1,1.33,2.32,1.33,3.97v0.13c0,1.03-0.2,1.95-0.59,2.77c-0.39,0.82-0.96,1.45-1.69,1.91
			c-0.73,0.46-1.57,0.68-2.52,0.68c-1.43,0-2.59-0.5-3.48-1.49c-0.89-0.99-1.33-2.31-1.33-3.95V604.81z M495.71,605.03
			c0,1.17,0.27,2.11,0.81,2.82c0.54,0.71,1.27,1.06,2.18,1.06c0.92,0,1.65-0.36,2.19-1.08c0.54-0.72,0.81-1.73,0.81-3.02
			c0-1.16-0.27-2.1-0.82-2.81c-0.55-0.72-1.28-1.08-2.19-1.08c-0.89,0-1.61,0.35-2.16,1.06
			C495.98,602.69,495.71,603.71,495.71,605.03z"/>
		<path d="M507.47,599.63l0.06,1.33c0.81-1.01,1.86-1.52,3.16-1.52c2.23,0,3.36,1.26,3.37,3.78v6.97h-1.8v-6.98
			c-0.01-0.76-0.18-1.32-0.52-1.69c-0.34-0.36-0.87-0.55-1.59-0.55c-0.59,0-1.1,0.16-1.54,0.47c-0.44,0.31-0.79,0.72-1.03,1.23v7.52
			h-1.81v-10.55H507.47z"/>
		<path d="M516.88,596.29l-0.21,3.59h-1.26l0.01-4.67h1.45V596.29z"/>
		<path d="M521.71,597.08v2.56h1.97v1.4h-1.97v6.55c0,0.42,0.09,0.74,0.26,0.95c0.18,0.21,0.48,0.32,0.9,0.32
			c0.21,0,0.49-0.04,0.86-0.12v1.45c-0.48,0.13-0.94,0.19-1.39,0.19c-0.81,0-1.41-0.24-1.82-0.73c-0.41-0.49-0.61-1.18-0.61-2.08
			v-6.55h-1.92v-1.4h1.92v-2.56H521.71z"/>
		<path d="M532.54,600.91c0.8-0.98,1.84-1.47,3.12-1.47c2.23,0,3.36,1.26,3.37,3.78v6.97h-1.8v-6.98c-0.01-0.76-0.18-1.32-0.52-1.69
			c-0.34-0.36-0.87-0.55-1.59-0.55c-0.59,0-1.1,0.16-1.54,0.47c-0.44,0.31-0.79,0.72-1.03,1.23v7.52h-1.81v-14.98h1.81V600.91z"/>
		<path d="M548.25,610.19c-0.1-0.21-0.19-0.58-0.25-1.11c-0.84,0.87-1.84,1.31-3,1.31c-1.04,0-1.89-0.29-2.56-0.88
			c-0.67-0.59-1-1.33-1-2.24c0-1.1,0.42-1.95,1.25-2.56c0.84-0.61,2.01-0.91,3.53-0.91h1.76v-0.83c0-0.63-0.19-1.13-0.56-1.51
			c-0.38-0.37-0.93-0.56-1.67-0.56c-0.64,0-1.18,0.16-1.62,0.49c-0.44,0.32-0.65,0.72-0.65,1.18h-1.82c0-0.53,0.19-1.04,0.56-1.53
			s0.88-0.88,1.52-1.17c0.64-0.29,1.34-0.43,2.11-0.43c1.22,0,2.17,0.3,2.86,0.91c0.69,0.61,1.05,1.45,1.07,2.51v4.86
			c0,0.97,0.12,1.74,0.37,2.31v0.16H548.25z M545.26,608.81c0.56,0,1.1-0.15,1.61-0.44c0.51-0.29,0.87-0.67,1.1-1.14v-2.17h-1.41
			c-2.21,0-3.32,0.65-3.32,1.94c0,0.57,0.19,1.01,0.57,1.33C544.18,608.65,544.66,608.81,545.26,608.81z"/>
		<path d="M555.94,607.74l2.61-8.11h1.84l-3.78,10.55h-1.38l-3.82-10.55h1.84L555.94,607.74z"/>
		<path d="M566.39,610.38c-1.43,0-2.6-0.47-3.49-1.41s-1.35-2.2-1.35-3.77v-0.33c0-1.05,0.2-1.98,0.6-2.8
			c0.4-0.82,0.96-1.47,1.68-1.93c0.72-0.46,1.5-0.7,2.34-0.7c1.37,0,2.44,0.45,3.2,1.36c0.76,0.9,1.14,2.2,1.14,3.88v0.75h-7.15
			c0.03,1.04,0.33,1.88,0.91,2.52c0.58,0.64,1.32,0.96,2.22,0.96c0.64,0,1.18-0.13,1.62-0.39c0.44-0.26,0.83-0.61,1.16-1.03
			l1.1,0.86C569.48,609.7,568.15,610.38,566.39,610.38z M566.16,600.92c-0.73,0-1.34,0.26-1.83,0.79c-0.49,0.53-0.8,1.27-0.92,2.23
			h5.29v-0.14c-0.05-0.92-0.3-1.63-0.74-2.13C567.51,601.17,566.91,600.92,566.16,600.92z"/>
		<path d="M581.02,607.74l2.61-8.11h1.84l-3.78,10.55h-1.38l-3.82-10.55h1.84L581.02,607.74z"/>
		<path d="M587.22,596.83c0-0.29,0.09-0.54,0.27-0.74c0.18-0.2,0.44-0.3,0.79-0.3s0.62,0.1,0.8,0.3c0.18,0.2,0.27,0.45,0.27,0.74
			c0,0.29-0.09,0.54-0.27,0.73c-0.18,0.2-0.45,0.29-0.8,0.29s-0.62-0.1-0.79-0.29C587.31,597.37,587.22,597.13,587.22,596.83z
			 M589.17,610.19h-1.81v-10.55h1.81V610.19z"/>
		<path d="M596.44,610.38c-1.43,0-2.6-0.47-3.49-1.41s-1.35-2.2-1.35-3.77v-0.33c0-1.05,0.2-1.98,0.6-2.8
			c0.4-0.82,0.96-1.47,1.68-1.93c0.72-0.46,1.5-0.7,2.34-0.7c1.37,0,2.44,0.45,3.2,1.36c0.76,0.9,1.14,2.2,1.14,3.88v0.75h-7.15
			c0.03,1.04,0.33,1.88,0.91,2.52c0.58,0.64,1.32,0.96,2.22,0.96c0.64,0,1.18-0.13,1.62-0.39c0.44-0.26,0.83-0.61,1.16-1.03
			l1.1,0.86C599.54,609.7,598.21,610.38,596.44,610.38z M596.22,600.92c-0.73,0-1.34,0.26-1.83,0.79c-0.49,0.53-0.8,1.27-0.92,2.23
			h5.29v-0.14c-0.05-0.92-0.3-1.63-0.74-2.13C597.57,601.17,596.97,600.92,596.22,600.92z"/>
		<path d="M611.99,607.7l2.03-8.07h1.8l-3.07,10.55h-1.46l-2.57-8l-2.5,8h-1.46l-3.06-10.55h1.79l2.08,7.9l2.46-7.9h1.45
			L611.99,607.7z"/>
		<path d="M631.52,605.03c0,1.61-0.37,2.9-1.1,3.88c-0.74,0.98-1.73,1.47-2.99,1.47c-1.28,0-2.29-0.41-3.02-1.22v5.08h-1.81v-14.61
			h1.65l0.09,1.17c0.73-0.91,1.76-1.37,3.06-1.37c1.27,0,2.27,0.48,3.01,1.43c0.74,0.96,1.11,2.29,1.11,3.99V605.03z M629.71,604.82
			c0-1.19-0.25-2.13-0.76-2.82c-0.51-0.69-1.2-1.03-2.09-1.03c-1.09,0-1.91,0.49-2.46,1.45v5.04c0.54,0.96,1.37,1.44,2.48,1.44
			c0.87,0,1.55-0.34,2.06-1.03C629.46,607.2,629.71,606.18,629.71,604.82z"/>
		<path d="M638.19,610.38c-1.43,0-2.6-0.47-3.49-1.41s-1.35-2.2-1.35-3.77v-0.33c0-1.05,0.2-1.98,0.6-2.8
			c0.4-0.82,0.96-1.47,1.68-1.93c0.72-0.46,1.5-0.7,2.34-0.7c1.37,0,2.44,0.45,3.2,1.36c0.76,0.9,1.14,2.2,1.14,3.88v0.75h-7.15
			c0.03,1.04,0.33,1.88,0.91,2.52c0.58,0.64,1.32,0.96,2.22,0.96c0.64,0,1.18-0.13,1.62-0.39c0.44-0.26,0.83-0.61,1.16-1.03
			l1.1,0.86C641.29,609.7,639.96,610.38,638.19,610.38z M637.97,600.92c-0.73,0-1.34,0.26-1.83,0.79c-0.49,0.53-0.8,1.27-0.92,2.23
			h5.29v-0.14c-0.05-0.92-0.3-1.63-0.74-2.13C639.32,601.17,638.72,600.92,637.97,600.92z"/>
		<path d="M649.5,601.25c-0.27-0.05-0.57-0.07-0.89-0.07c-1.18,0-1.99,0.5-2.41,1.51v7.49h-1.81v-10.55h1.76l0.03,1.22
			c0.59-0.94,1.43-1.41,2.52-1.41c0.35,0,0.62,0.05,0.8,0.14V601.25z"/>
		<path d="M652.85,599.63l0.05,1.17c0.77-0.91,1.82-1.37,3.13-1.37c1.48,0,2.48,0.57,3.01,1.7c0.35-0.51,0.81-0.92,1.37-1.23
			c0.56-0.31,1.23-0.47,2-0.47c2.31,0,3.49,1.23,3.53,3.68v7.07h-1.81v-6.97c0-0.75-0.17-1.32-0.52-1.69
			c-0.34-0.37-0.92-0.56-1.74-0.56c-0.67,0-1.23,0.2-1.67,0.6c-0.44,0.4-0.7,0.94-0.77,1.61v7h-1.81v-6.92c0-1.53-0.75-2.3-2.25-2.3
			c-1.18,0-1.99,0.5-2.43,1.51v7.71h-1.81v-10.55H652.85z"/>
		<path d="M668.68,596.83c0-0.29,0.09-0.54,0.27-0.74c0.18-0.2,0.44-0.3,0.79-0.3c0.35,0,0.62,0.1,0.8,0.3
			c0.18,0.2,0.27,0.45,0.27,0.74c0,0.29-0.09,0.54-0.27,0.73c-0.18,0.2-0.45,0.29-0.8,0.29c-0.35,0-0.62-0.1-0.79-0.29
			C668.76,597.37,668.68,597.13,668.68,596.83z M670.63,610.19h-1.81v-10.55h1.81V610.19z"/>
		<path d="M679.66,607.39c0-0.49-0.18-0.87-0.55-1.14c-0.37-0.27-1.01-0.5-1.92-0.7c-0.91-0.2-1.64-0.43-2.18-0.7
			c-0.54-0.27-0.93-0.6-1.19-0.98c-0.26-0.38-0.39-0.83-0.39-1.35c0-0.86,0.37-1.6,1.1-2.19c0.73-0.6,1.67-0.9,2.8-0.9
			c1.2,0,2.17,0.31,2.91,0.93c0.74,0.62,1.12,1.41,1.12,2.37h-1.82c0-0.49-0.21-0.92-0.63-1.28c-0.42-0.36-0.95-0.54-1.59-0.54
			c-0.66,0-1.17,0.14-1.54,0.43c-0.37,0.29-0.56,0.66-0.56,1.12c0,0.44,0.17,0.76,0.52,0.98c0.34,0.22,0.97,0.43,1.87,0.63
			c0.9,0.2,1.63,0.44,2.19,0.72c0.56,0.28,0.97,0.62,1.24,1.01c0.27,0.39,0.4,0.87,0.4,1.44c0,0.94-0.38,1.7-1.13,2.27
			c-0.75,0.57-1.73,0.85-2.94,0.85c-0.85,0-1.59-0.15-2.24-0.45c-0.65-0.3-1.16-0.72-1.53-1.25c-0.37-0.54-0.55-1.12-0.55-1.74h1.81
			c0.03,0.61,0.27,1.08,0.73,1.44c0.45,0.35,1.05,0.53,1.79,0.53c0.68,0,1.23-0.14,1.64-0.41
			C679.45,608.22,679.66,607.85,679.66,607.39z"/>
		<path d="M689.96,607.39c0-0.49-0.18-0.87-0.55-1.14c-0.37-0.27-1.01-0.5-1.92-0.7c-0.91-0.2-1.64-0.43-2.18-0.7
			c-0.54-0.27-0.93-0.6-1.19-0.98c-0.26-0.38-0.39-0.83-0.39-1.35c0-0.86,0.37-1.6,1.1-2.19c0.73-0.6,1.67-0.9,2.8-0.9
			c1.2,0,2.17,0.31,2.91,0.93c0.74,0.62,1.12,1.41,1.12,2.37h-1.82c0-0.49-0.21-0.92-0.63-1.28c-0.42-0.36-0.95-0.54-1.59-0.54
			c-0.66,0-1.17,0.14-1.54,0.43c-0.37,0.29-0.56,0.66-0.56,1.12c0,0.44,0.17,0.76,0.52,0.98c0.34,0.22,0.97,0.43,1.87,0.63
			c0.9,0.2,1.63,0.44,2.19,0.72c0.56,0.28,0.97,0.62,1.24,1.01c0.27,0.39,0.4,0.87,0.4,1.44c0,0.94-0.38,1.7-1.13,2.27
			c-0.75,0.57-1.73,0.85-2.94,0.85c-0.85,0-1.59-0.15-2.24-0.45s-1.16-0.72-1.53-1.25c-0.37-0.54-0.55-1.12-0.55-1.74h1.81
			c0.03,0.61,0.27,1.08,0.73,1.44c0.45,0.35,1.05,0.53,1.79,0.53c0.68,0,1.23-0.14,1.64-0.41
			C689.75,608.22,689.96,607.85,689.96,607.39z"/>
		<path d="M694.13,596.83c0-0.29,0.09-0.54,0.27-0.74c0.18-0.2,0.44-0.3,0.79-0.3s0.62,0.1,0.8,0.3c0.18,0.2,0.27,0.45,0.27,0.74
			c0,0.29-0.09,0.54-0.27,0.73c-0.18,0.2-0.45,0.29-0.8,0.29s-0.62-0.1-0.79-0.29C694.21,597.37,694.13,597.13,694.13,596.83z
			 M696.08,610.19h-1.81v-10.55h1.81V610.19z"/>
		<path d="M698.49,604.81c0-1.03,0.2-1.96,0.61-2.79c0.41-0.83,0.97-1.46,1.7-1.91c0.73-0.45,1.55-0.67,2.48-0.67
			c1.44,0,2.6,0.5,3.49,1.49c0.89,1,1.33,2.32,1.33,3.97v0.13c0,1.03-0.2,1.95-0.59,2.77c-0.39,0.82-0.96,1.45-1.69,1.91
			c-0.73,0.46-1.57,0.68-2.52,0.68c-1.43,0-2.59-0.5-3.48-1.49c-0.89-0.99-1.33-2.31-1.33-3.95V604.81z M700.3,605.03
			c0,1.17,0.27,2.11,0.81,2.82c0.54,0.71,1.27,1.06,2.18,1.06c0.92,0,1.65-0.36,2.19-1.08c0.54-0.72,0.81-1.73,0.81-3.02
			c0-1.16-0.27-2.1-0.82-2.81c-0.55-0.72-1.28-1.08-2.19-1.08c-0.89,0-1.61,0.35-2.16,1.06C700.57,602.69,700.3,603.71,700.3,605.03
			z"/>
		<path d="M712.06,599.63l0.06,1.33c0.81-1.01,1.86-1.52,3.16-1.52c2.23,0,3.36,1.26,3.37,3.78v6.97h-1.8v-6.98
			c-0.01-0.76-0.18-1.32-0.52-1.69c-0.34-0.36-0.87-0.55-1.59-0.55c-0.59,0-1.1,0.16-1.54,0.47c-0.44,0.31-0.79,0.72-1.03,1.23v7.52
			h-1.81v-10.55H712.06z"/>
		<path d="M727.21,610.19v-9.16h-1.67v-1.4h1.67v-1.08c0-1.13,0.3-2.01,0.91-2.62c0.6-0.62,1.46-0.93,2.57-0.93
			c0.42,0,0.83,0.06,1.24,0.17l-0.1,1.45c-0.31-0.06-0.63-0.09-0.98-0.09c-0.59,0-1.04,0.17-1.36,0.51
			c-0.32,0.34-0.48,0.83-0.48,1.47v1.12h2.25v1.4h-2.25v9.16H727.21z"/>
		<path d="M732.78,604.81c0-1.03,0.2-1.96,0.61-2.79c0.41-0.83,0.97-1.46,1.7-1.91c0.73-0.45,1.55-0.67,2.48-0.67
			c1.44,0,2.6,0.5,3.49,1.49c0.89,1,1.33,2.32,1.33,3.97v0.13c0,1.03-0.2,1.95-0.59,2.77c-0.39,0.82-0.96,1.45-1.69,1.91
			c-0.73,0.46-1.57,0.68-2.52,0.68c-1.43,0-2.59-0.5-3.48-1.49c-0.89-0.99-1.33-2.31-1.33-3.95V604.81z M734.6,605.03
			c0,1.17,0.27,2.11,0.81,2.82c0.54,0.71,1.27,1.06,2.18,1.06c0.92,0,1.65-0.36,2.19-1.08c0.54-0.72,0.81-1.73,0.81-3.02
			c0-1.16-0.27-2.1-0.82-2.81c-0.55-0.72-1.28-1.08-2.19-1.08c-0.89,0-1.61,0.35-2.16,1.06C734.87,602.69,734.6,603.71,734.6,605.03
			z"/>
		<path d="M749.76,601.25c-0.27-0.05-0.57-0.07-0.89-0.07c-1.18,0-1.99,0.5-2.41,1.51v7.49h-1.81v-10.55h1.76l0.03,1.22
			c0.59-0.94,1.43-1.41,2.52-1.41c0.35,0,0.62,0.05,0.8,0.14V601.25z"/>
		<path d="M758.81,597.08v2.56h1.97v1.4h-1.97v6.55c0,0.42,0.09,0.74,0.26,0.95c0.18,0.21,0.47,0.32,0.9,0.32
			c0.21,0,0.49-0.04,0.86-0.12v1.45c-0.48,0.13-0.94,0.19-1.39,0.19c-0.81,0-1.41-0.24-1.82-0.73c-0.41-0.49-0.61-1.18-0.61-2.08
			v-6.55h-1.92v-1.4h1.92v-2.56H758.81z"/>
		<path d="M764.69,600.91c0.8-0.98,1.84-1.47,3.12-1.47c2.23,0,3.36,1.26,3.37,3.78v6.97h-1.8v-6.98c-0.01-0.76-0.18-1.32-0.52-1.69
			c-0.34-0.36-0.87-0.55-1.59-0.55c-0.59,0-1.1,0.16-1.54,0.47c-0.44,0.31-0.79,0.72-1.03,1.23v7.52h-1.81v-14.98h1.81V600.91z"/>
		<path d="M780.41,610.19c-0.1-0.21-0.19-0.58-0.25-1.11c-0.84,0.87-1.84,1.31-3,1.31c-1.04,0-1.89-0.29-2.56-0.88s-1-1.33-1-2.24
			c0-1.1,0.42-1.95,1.25-2.56c0.84-0.61,2.01-0.91,3.53-0.91h1.76v-0.83c0-0.63-0.19-1.13-0.56-1.51c-0.38-0.37-0.93-0.56-1.67-0.56
			c-0.64,0-1.18,0.16-1.62,0.49c-0.44,0.32-0.65,0.72-0.65,1.18h-1.82c0-0.53,0.19-1.04,0.56-1.53s0.88-0.88,1.52-1.17
			c0.64-0.29,1.34-0.43,2.11-0.43c1.22,0,2.17,0.3,2.86,0.91c0.69,0.61,1.05,1.45,1.07,2.51v4.86c0,0.97,0.12,1.74,0.37,2.31v0.16
			H780.41z M777.41,608.81c0.56,0,1.1-0.15,1.61-0.44c0.51-0.29,0.87-0.67,1.1-1.14v-2.17h-1.41c-2.21,0-3.32,0.65-3.32,1.94
			c0,0.57,0.19,1.01,0.57,1.33C776.34,608.65,776.82,608.81,777.41,608.81z"/>
		<path d="M787.21,597.08v2.56h1.97v1.4h-1.97v6.55c0,0.42,0.09,0.74,0.26,0.95c0.18,0.21,0.48,0.32,0.9,0.32
			c0.21,0,0.49-0.04,0.86-0.12v1.45c-0.47,0.13-0.94,0.19-1.39,0.19c-0.81,0-1.41-0.24-1.82-0.73c-0.41-0.49-0.61-1.18-0.61-2.08
			v-6.55h-1.92v-1.4h1.92v-2.56H787.21z"/>
		<path d="M805.15,605.03c0,1.61-0.37,2.9-1.1,3.88c-0.74,0.98-1.73,1.47-2.99,1.47c-1.28,0-2.29-0.41-3.02-1.22v5.08h-1.81v-14.61
			h1.65l0.09,1.17c0.73-0.91,1.76-1.37,3.06-1.37c1.27,0,2.27,0.48,3.01,1.43c0.74,0.96,1.11,2.29,1.11,3.99V605.03z M803.34,604.82
			c0-1.19-0.25-2.13-0.76-2.82c-0.51-0.69-1.2-1.03-2.09-1.03c-1.09,0-1.91,0.49-2.46,1.45v5.04c0.54,0.96,1.37,1.44,2.48,1.44
			c0.87,0,1.55-0.34,2.06-1.03C803.09,607.2,803.34,606.18,803.34,604.82z"/>
		<path d="M813.95,610.19c-0.1-0.21-0.19-0.58-0.25-1.11c-0.84,0.87-1.84,1.31-3,1.31c-1.04,0-1.89-0.29-2.56-0.88
			c-0.67-0.59-1-1.33-1-2.24c0-1.1,0.42-1.95,1.25-2.56s2.01-0.91,3.53-0.91h1.76v-0.83c0-0.63-0.19-1.13-0.56-1.51
			c-0.38-0.37-0.93-0.56-1.67-0.56c-0.64,0-1.18,0.16-1.62,0.49c-0.44,0.32-0.65,0.72-0.65,1.18h-1.82c0-0.53,0.19-1.04,0.56-1.53
			s0.88-0.88,1.52-1.17c0.64-0.29,1.34-0.43,2.11-0.43c1.22,0,2.17,0.3,2.86,0.91c0.69,0.61,1.05,1.45,1.07,2.51v4.86
			c0,0.97,0.12,1.74,0.37,2.31v0.16H813.95z M810.96,608.81c0.56,0,1.1-0.15,1.61-0.44c0.51-0.29,0.87-0.67,1.1-1.14v-2.17h-1.41
			c-2.21,0-3.32,0.65-3.32,1.94c0,0.57,0.19,1.01,0.57,1.33C809.88,608.65,810.37,608.81,810.96,608.81z"/>
		<path d="M817.88,604.82c0-1.65,0.38-2.95,1.14-3.93c0.76-0.97,1.77-1.46,3.02-1.46c1.29,0,2.29,0.46,3.01,1.37l0.09-1.17h1.65
			v10.3c0,1.37-0.4,2.44-1.21,3.23c-0.81,0.79-1.9,1.18-3.26,1.18c-0.76,0-1.5-0.16-2.23-0.49s-1.28-0.77-1.67-1.34l0.94-1.08
			c0.77,0.96,1.72,1.43,2.84,1.43c0.88,0,1.56-0.25,2.05-0.74c0.49-0.49,0.74-1.19,0.74-2.09v-0.91c-0.72,0.83-1.71,1.25-2.96,1.25
			c-1.24,0-2.24-0.5-3-1.49C818.26,607.9,817.88,606.54,817.88,604.82z M819.69,605.03c0,1.19,0.24,2.13,0.73,2.81
			c0.49,0.68,1.17,1.02,2.05,1.02c1.14,0,1.97-0.52,2.51-1.55v-4.82c-0.55-1.01-1.38-1.51-2.49-1.51c-0.88,0-1.56,0.34-2.06,1.02
			S819.69,603.69,819.69,605.03z"/>
		<path d="M833.89,610.38c-1.43,0-2.6-0.47-3.49-1.41s-1.35-2.2-1.35-3.77v-0.33c0-1.05,0.2-1.98,0.6-2.8
			c0.4-0.82,0.96-1.47,1.68-1.93c0.72-0.46,1.5-0.7,2.34-0.7c1.37,0,2.44,0.45,3.2,1.36c0.76,0.9,1.14,2.2,1.14,3.88v0.75h-7.15
			c0.03,1.04,0.33,1.88,0.91,2.52c0.58,0.64,1.32,0.96,2.22,0.96c0.64,0,1.18-0.13,1.62-0.39c0.44-0.26,0.83-0.61,1.16-1.03
			l1.1,0.86C836.99,609.7,835.66,610.38,833.89,610.38z M833.67,600.92c-0.73,0-1.34,0.26-1.83,0.79c-0.49,0.53-0.8,1.27-0.92,2.23
			h5.29v-0.14c-0.05-0.92-0.3-1.63-0.74-2.13C835.02,601.17,834.42,600.92,833.67,600.92z"/>
	</g>
</g>
</svg>
