<svg width="180" height="180" viewBox="0 0 180 180" fill="none" xmlns="http://www.w3.org/2000/svg">
<g opacity="0.5">
<path d="M90 0.494385L167.942 45.2471V134.753L90 179.505L12.0577 134.753V45.2471L90 0.494385Z" fill="#668099" fill-opacity="0.04"/>
<g clipPath="url(#clip0_4915_111354)">
<path d="M104.672 125.192C102.939 131.625 97.0368 136.362 90.0224 136.362C83.0079 136.362 77.1043 131.625 75.373 125.192H104.672Z" fill="#2466A8"/>
<path opacity="0.75" d="M100.042 53.4397C97.0927 52.7603 93.7291 52.3878 89.8931 52.3878C86.5848 52.3878 83.6267 52.6651 80.9824 53.1773C81.4144 48.3242 85.5112 44.5198 90.5028 44.5198C95.4945 44.5198 99.738 48.4617 100.042 53.4386V53.4397Z" fill="#2466A8"/>
<path opacity="0.25" d="M122.703 99.7389C112.166 99.1664 101.181 98.8637 89.8931 98.8637C78.6053 98.8637 67.6207 99.1674 57.083 99.7389C57.2384 99.1971 57.3767 98.6478 57.4969 98.0933C59.6709 88.0866 54.0333 58.4018 80.9824 53.1784C83.6256 52.6662 86.5838 52.3889 89.8931 52.3889C93.7291 52.3889 97.0927 52.7604 100.042 53.4408C125.581 59.3246 120.15 88.2432 122.289 98.0944C122.41 98.6499 122.549 99.1981 122.703 99.7399V99.7389Z" fill="#2466A8"/>
<path opacity="0.25" d="M116.385 64.9164C114.435 63.9312 112.222 63.129 109.71 62.5502C106.76 61.8708 103.396 61.4993 99.5604 61.4993C96.2521 61.4993 93.2939 61.7766 90.6497 62.2888C69.0551 66.4741 68.3847 86.368 67.8516 99.2553C64.2145 99.3854 60.6232 99.5473 57.083 99.7389C57.2373 99.1971 57.3767 98.6489 57.4969 98.0933C59.6709 88.0866 54.0333 58.4018 80.9824 53.1784C83.6267 52.6662 86.5849 52.3889 89.8931 52.3889C93.7291 52.3889 97.0927 52.7604 100.042 53.4398C108.283 55.3382 113.299 59.6358 116.385 64.9164Z" fill="#2466A8"/>
<path opacity="0.5" d="M134.091 119.73C134.091 122.746 131.632 125.192 128.601 125.192H51.1841C48.1525 125.192 45.6934 122.746 45.6934 119.731C45.6934 119.029 45.8285 118.34 46.086 117.701C46.3414 117.062 46.7202 116.469 47.2086 115.964C49.7858 113.286 54.9488 107.224 57.0823 99.7387C67.62 99.1662 78.6045 98.8635 89.8924 98.8635C101.18 98.8635 112.165 99.1672 122.703 99.7387C124.838 107.223 130.001 113.285 132.576 115.964C133.551 116.977 134.091 118.327 134.091 119.73Z" fill="#2466A8"/>
<path d="M128.602 125.509H51.1849C47.981 125.509 45.375 122.917 45.375 119.731C45.375 118.991 45.5144 118.269 45.79 117.584C46.0656 116.896 46.4646 116.277 46.9786 115.745C49.7431 112.873 54.6922 106.962 56.7756 99.653C56.931 99.1091 57.0693 98.562 57.1853 98.0265C57.6237 96.0095 57.7408 93.1607 57.877 89.8632C58.1462 83.3413 58.4803 75.2246 61.4523 68.129C63.0729 64.2601 65.3575 61.0579 68.2433 58.6112C71.5792 55.7836 75.8452 53.8513 80.9219 52.8671C83.646 52.339 86.6648 52.0713 89.8933 52.0713C93.625 52.0713 97.0642 52.4279 100.115 53.1306C104.911 54.2354 108.939 56.2397 112.09 59.0885C114.816 61.5531 116.975 64.7363 118.509 68.5502C121.321 75.5473 121.648 83.4863 121.911 89.8653C122.047 93.1628 122.164 96.0095 122.601 98.0265C122.717 98.563 122.856 99.1091 123.011 99.652C125.095 106.958 130.045 112.87 132.809 115.744C133.843 116.819 134.413 118.234 134.413 119.729C134.413 122.916 131.807 125.508 128.603 125.508L128.602 125.509ZM89.8933 52.7062C86.7053 52.7062 83.7279 52.9697 81.0443 53.4904C59.8466 57.5995 59.0453 77.031 58.5154 89.8886C58.3782 93.2157 58.26 96.0899 57.8099 98.1609C57.6908 98.7091 57.5503 99.2699 57.3907 99.8266C55.2689 107.267 50.2453 113.268 47.4404 116.184C46.9839 116.657 46.6285 117.207 46.3838 117.819C46.138 118.429 46.0145 119.073 46.0145 119.731C46.0145 122.567 48.3342 124.874 51.186 124.874H128.603C131.454 124.874 133.774 122.567 133.774 119.731C133.774 118.399 133.268 117.139 132.348 116.184C129.543 113.267 124.52 107.265 122.398 99.8266C122.239 99.271 122.098 98.7101 121.979 98.1609C121.53 96.091 121.412 93.2178 121.274 89.8918C120.757 77.3347 119.976 58.3583 99.9723 53.7497C96.9684 53.0576 93.5782 52.7062 89.8954 52.7062H89.8933Z" fill="#2466A8"/>
<path d="M95.6684 114.509H50.4648V115.144H95.6684V114.509Z" fill="#2466A8"/>
<path d="M113.374 117.257H82.9873V117.892H113.374V117.257Z" fill="#2466A8"/>
<path d="M120.028 114.509H103.705V115.144H120.028V114.509Z" fill="#2466A8"/>
<path d="M114.942 78.1665C113.663 70.7239 109.15 65.6899 105.591 62.7776C101.719 59.6103 98.1009 58.1922 98.0647 58.1785L98.2957 57.5869C98.3329 57.6007 102.031 59.0473 105.979 62.2739C108.3 64.1702 110.257 66.3026 111.796 68.6127C113.721 71.5049 114.991 74.6828 115.572 78.0597L114.943 78.1665H114.942ZM80.4147 83.5107C78.111 83.5107 76.8702 82.7096 76.235 82.0365C75.5284 81.2884 75.3901 80.5317 75.3848 80.5L76.0136 80.392L75.6987 80.446L76.0126 80.3899C76.0317 80.4915 76.517 82.8757 80.4136 82.8757C84.3103 82.8757 84.936 80.4767 84.9605 80.3751L85.583 80.5158C85.5553 80.6386 84.8573 83.5107 80.4136 83.5107H80.4147ZM99.4885 83.5107C97.1847 83.5107 95.944 82.7096 95.3088 82.0365C94.6022 81.2884 94.4639 80.5317 94.4586 80.5L95.0874 80.392L94.7725 80.446L95.0864 80.3899C95.1055 80.4915 95.5907 82.8757 99.4874 82.8757C103.384 82.8757 104.01 80.4767 104.034 80.3751L104.657 80.5158C104.629 80.6386 103.931 83.5107 99.4874 83.5107H99.4885Z" fill="#2466A8"/>
<g opacity="0.75">
<path d="M93.6924 92.6941C93.6924 93.8064 92.3048 94.7238 90.5044 94.8688H90.5033C90.3395 94.8847 90.1703 94.8911 90 94.8911C87.9612 94.8911 86.3076 93.9079 86.3076 92.6941C86.3076 91.4803 87.9612 90.4983 90 90.4983C92.0388 90.4983 93.6924 91.4814 93.6924 92.6941Z" fill="#2466A8"/>
</g>
<g opacity="0.75">
<path d="M93.367 101.292C91.5538 101.588 93.1595 97.9314 92.3359 97.9314C91.5123 97.9314 92.2699 100.358 91.0494 100.26C89.831 100.161 90.5035 94.8699 90.5035 94.8699H90.5046C92.3039 94.7239 93.6926 93.8053 93.6926 92.6931C93.6926 92.6931 95.1791 100.997 93.367 101.291V101.292Z" fill="#2466A8"/>
</g>
<g opacity="0.75">
<path d="M119.105 56.244H123.816V58.0621H116.14V56.8165L120.838 50.0851H116.113V48.2607H123.769V49.4723L119.105 56.2451V56.244ZM128.033 51.2904H131.689V52.701H125.733V51.7349L129.378 46.5114H125.712V45.0955H131.653V46.0362L128.034 51.2915L128.033 51.2904Z" fill="#2466A8"/>
</g>
<g opacity="0.25">
<path d="M46.0758 98.0181H57.5126C58.3916 93.8581 57.9638 86.3817 59.0481 78.6681C57.8404 79.2407 56.489 79.5624 55.061 79.5624H46.0758C40.9512 79.5624 36.7959 83.6937 36.7959 88.7913C36.7959 91.3395 37.8344 93.6465 39.5136 95.3153C41.1938 96.9863 43.5124 98.0181 46.0747 98.0181H46.0758ZM75.3734 125.192H51.1845C48.1529 125.192 45.6938 122.746 45.6938 119.731C45.6938 119.029 45.8289 118.341 46.0865 117.701C46.2599 117.266 46.4929 116.855 46.776 116.476H46.0769C40.9522 116.476 36.797 120.607 36.797 125.703C36.797 128.251 37.8355 130.558 39.5146 132.228C41.1948 133.899 43.5135 134.931 46.0758 134.931H83.5743C79.5786 133.061 76.5353 129.508 75.3734 125.191V125.192ZM46.0758 61.1056H55.061C57.6233 61.1056 59.943 62.1384 61.6221 63.8083C62.1584 64.3417 62.6277 64.9406 63.0204 65.5904C66.2137 59.7394 71.6384 54.9879 80.9811 53.1772C81.4131 48.3241 85.5099 44.5197 90.5015 44.5197C95.4931 44.5197 99.7367 48.4617 100.041 53.4386C108.313 55.3445 113.336 59.6674 116.418 64.9766C118.102 62.6337 120.857 61.1045 123.972 61.1045H133.923C139.047 61.1045 143.203 56.9721 143.203 51.8756C143.203 49.3273 142.164 47.0204 140.485 45.3505C138.805 43.6795 136.486 42.6477 133.924 42.6477H46.0758C40.9512 42.6488 36.7959 46.7812 36.7959 51.8777C36.7959 54.4259 37.8344 56.7329 39.5136 58.4028C41.1938 60.0738 43.5124 61.1056 46.0747 61.1056H46.0758ZM125.712 45.0954H131.653V46.0362L128.034 51.2914H131.69V52.7021H125.733V51.7359L129.379 46.5124H125.713V45.0965L125.712 45.0954ZM116.113 48.2596H123.769V49.4712L119.105 56.244H123.816V58.0621H116.14V56.8165L120.838 50.085H116.113V48.2606V48.2596ZM133.925 116.476H133.01C133.71 117.411 134.092 118.552 134.092 119.73C134.092 122.746 131.633 125.192 128.601 125.192H104.673C103.51 129.509 100.467 133.061 96.471 134.932H133.926C139.051 134.932 143.206 130.799 143.206 125.703C143.206 123.155 142.167 120.848 140.488 119.179C138.808 117.508 136.489 116.476 133.927 116.476H133.925ZM133.925 79.5624H123.975C122.854 79.5624 121.779 79.3645 120.784 79.0025C121.817 86.6441 121.402 94.0084 122.289 98.0932C122.409 98.6488 122.549 99.197 122.703 99.7388C123.055 100.972 123.489 102.164 123.981 103.31C125.466 100.182 128.666 98.017 132.376 98.017H133.926C139.051 98.017 143.206 93.8857 143.206 88.7902C143.206 86.242 142.167 83.9339 140.488 82.2651C138.808 80.5941 136.489 79.5624 133.927 79.5624H133.925Z" fill="#2466A8"/>
</g>
</g>
</g>
<defs>
<clipPath id="clip0_4915_111354">
<rect width="106.409" height="105.824" fill="white" transform="translate(36.7959 36.5935)"/>
</clipPath>
</defs>
</svg>
