<svg width="120" height="120" viewBox="0 0 120 120" fill="none" xmlns="http://www.w3.org/2000/svg">
<g opacity="0.5">
<path d="M60 0.32959L111.962 30.1648V89.8351L60 119.67L8.03848 89.8351V30.1648L60 0.32959Z" fill="#C2CCD6" fill-opacity="0.5"/>
<g clip-path="url(#clip0_4915_111354)">
<path d="M69.7814 83.4609C68.6265 87.7496 64.6915 90.9081 60.0152 90.9081C55.3389 90.9081 51.4032 87.7496 50.249 83.4609H69.7814Z" fill="#2466A8"/>
<path opacity="0.75" d="M66.6939 35.6263C64.7275 35.1734 62.4851 34.925 59.9278 34.925C57.7223 34.925 55.7501 35.1099 53.9873 35.4513C54.2753 32.2159 57.0065 29.6797 60.3342 29.6797C63.662 29.6797 66.4911 32.3077 66.6939 35.6256V35.6263Z" fill="#2466A8"/>
<path opacity="0.25" d="M81.8015 66.4924C74.7764 66.1108 67.4533 65.909 59.9281 65.909C52.4029 65.909 45.0798 66.1115 38.0547 66.4924C38.1583 66.1312 38.2505 65.7651 38.3306 65.3954C39.7799 58.7242 36.0216 38.9344 53.9876 35.4521C55.7498 35.1106 57.7219 34.9258 59.9281 34.9258C62.4854 34.9258 64.7278 35.1734 66.6943 35.627C83.7197 39.5496 80.0997 58.8286 81.5255 65.3961C81.6057 65.7665 81.6986 66.1319 81.8015 66.4931V66.4924Z" fill="#2466A8"/>
<path opacity="0.25" d="M77.5891 43.2774C76.2895 42.6206 74.814 42.0858 73.1391 41.6999C71.1727 41.247 68.9303 40.9994 66.3729 40.9994C64.1674 40.9994 62.1953 41.1842 60.4325 41.5257C46.0361 44.3159 45.5891 57.5785 45.2337 66.17C42.809 66.2568 40.4148 66.3647 38.0547 66.4924C38.1575 66.1312 38.2505 65.7658 38.3306 65.3954C39.7799 58.7242 36.0216 38.9344 53.9876 35.4521C55.7505 35.1106 57.7226 34.9258 59.9281 34.9258C62.4854 34.9258 64.7278 35.1734 66.6943 35.6263C72.1878 36.892 75.5319 39.757 77.5891 43.2774Z" fill="#2466A8"/>
<path opacity="0.5" d="M89.394 79.8199C89.394 81.8305 87.7546 83.4609 85.7335 83.4609H34.1224C32.1013 83.4609 30.4619 81.8305 30.4619 79.8206C30.4619 79.3528 30.552 78.8936 30.7237 78.4674C30.8939 78.0413 31.1465 77.6462 31.4721 77.309C33.1902 75.5241 36.6322 71.4823 38.0545 66.4924C45.0797 66.1107 52.4027 65.9089 59.9279 65.9089C67.4532 65.9089 74.7762 66.1114 81.8013 66.4924C83.2251 71.4816 86.6671 75.5234 88.3838 77.309C89.0336 77.9849 89.394 78.8844 89.394 79.8199Z" fill="#2466A8"/>
<path d="M85.7334 83.6726H34.1223C31.9863 83.6726 30.249 81.9448 30.249 79.8206C30.249 79.3275 30.342 78.8456 30.5257 78.3892C30.7094 77.9306 30.9754 77.5179 31.3181 77.163C33.1611 75.2483 36.4605 71.3081 37.8495 66.4353C37.953 66.0726 38.0452 65.7079 38.1226 65.3509C38.4148 64.0062 38.4929 62.107 38.5837 59.9087C38.7632 55.5608 38.9859 50.1496 40.9672 45.4193C42.0476 42.84 43.5707 40.7052 45.4946 39.0741C47.7185 37.189 50.5625 35.9008 53.947 35.2446C55.763 34.8926 57.7756 34.7141 59.9279 34.7141C62.4157 34.7141 64.7085 34.9519 66.7423 35.4203C69.9395 36.1568 72.6253 37.4931 74.7258 39.3922C76.5433 41.0353 77.9826 43.1575 79.0048 45.7001C80.8798 50.3648 81.0976 55.6574 81.2728 59.9101C81.3636 62.1085 81.4416 64.0062 81.7332 65.3509C81.8105 65.7086 81.9027 66.0726 82.0063 66.4346C83.396 71.3053 86.6954 75.2469 88.5384 77.1623C89.2279 77.8791 89.6074 78.8223 89.6074 79.8192C89.6074 81.9441 87.8701 83.6719 85.7341 83.6719L85.7334 83.6726ZM59.9279 35.1374C57.8025 35.1374 55.8177 35.3131 54.0286 35.6602C39.8968 38.3996 39.3626 51.3539 39.0093 59.9257C38.9178 62.1437 38.8391 64.0599 38.539 65.4405C38.4595 65.806 38.3659 66.1799 38.2595 66.551C36.845 71.5113 33.4959 75.5121 31.626 77.4558C31.3216 77.7711 31.0847 78.138 30.9215 78.5458C30.7577 78.9528 30.6754 79.3818 30.6754 79.8206C30.6754 81.7113 32.2218 83.2493 34.123 83.2493H85.7341C87.6353 83.2493 89.1818 81.7113 89.1818 79.8206C89.1818 78.9324 88.8441 78.0928 88.2312 77.4558C86.3612 75.5114 83.0122 71.5099 81.5977 66.551C81.492 66.1806 81.3976 65.8067 81.3182 65.4405C81.0188 64.0606 80.9401 62.1451 80.8486 59.9278C80.5038 51.5564 79.9831 38.9055 66.6472 35.833C64.6446 35.3716 62.3845 35.1374 59.9293 35.1374H59.9279Z" fill="#2466A8"/>
<path d="M63.7792 76.3389H33.6436V76.7622H63.7792V76.3389Z" fill="#2466A8"/>
<path d="M75.5823 78.1711H55.3242V78.5944H75.5823V78.1711Z" fill="#2466A8"/>
<path d="M80.0178 76.3389H69.1357V76.7622H80.0178V76.3389Z" fill="#2466A8"/>
<path d="M76.6285 52.1109C75.7758 47.1491 72.7673 43.7931 70.3944 41.8516C67.8129 39.74 65.4009 38.7947 65.3768 38.7855L65.5308 38.3911C65.5556 38.4003 68.0207 39.3647 70.6533 41.5157C72.2005 42.78 73.505 44.2016 74.5308 45.7417C75.8141 47.6698 76.6611 49.7884 77.0485 52.0396L76.6292 52.1109H76.6285ZM53.6101 55.6736C52.0743 55.6736 51.2471 55.1396 50.8236 54.6909C50.3526 54.1921 50.2604 53.6876 50.2568 53.6665L50.6761 53.5945L50.4661 53.6305L50.6754 53.5931C50.6881 53.6608 51.0116 55.2503 53.6094 55.2503C56.2072 55.2503 56.6243 53.651 56.6407 53.5832L57.0557 53.6771C57.0372 53.7589 56.5718 55.6736 53.6094 55.6736H53.6101ZM66.326 55.6736C64.7902 55.6736 63.963 55.1396 63.5395 54.6909C63.0685 54.1921 62.9762 53.6876 62.9727 53.6665L63.3919 53.5945L63.182 53.6305L63.3912 53.5931C63.404 53.6608 63.7275 55.2503 66.3253 55.2503C68.9231 55.2503 69.3402 53.651 69.3565 53.5832L69.7715 53.6771C69.7531 53.7589 69.2877 55.6736 66.3253 55.6736H66.326Z" fill="#2466A8"/>
<g opacity="0.75">
<path d="M62.4613 61.7959C62.4613 62.5374 61.5362 63.1491 60.3359 63.2457H60.3352C60.226 63.2563 60.1132 63.2605 59.9997 63.2605C58.6405 63.2605 57.5381 62.6051 57.5381 61.7959C57.5381 60.9867 58.6405 60.332 59.9997 60.332C61.3589 60.332 62.4613 60.9874 62.4613 61.7959Z" fill="#2466A8"/>
</g>
<g opacity="0.75">
<path d="M62.2443 67.528C61.0355 67.7248 62.106 65.2874 61.5569 65.2874C61.0078 65.2874 61.5129 66.9051 60.6993 66.8395C59.887 66.7738 60.3353 63.2464 60.3353 63.2464H60.3361C61.5356 63.149 62.4614 62.5366 62.4614 61.7952C62.4614 61.7952 63.4524 67.3312 62.2443 67.5273V67.528Z" fill="#2466A8"/>
</g>
<g opacity="0.75">
<path d="M79.403 37.4959H82.5435V38.7079H77.4259V37.8775L80.5579 33.3899H77.4082V32.1736H82.5123V32.9814L79.403 37.4966V37.4959ZM85.3548 34.1934H87.7923V35.1339H83.8211V34.4897L86.2515 31.0074H83.8076V30.0635H87.7682V30.6907L85.3555 34.1941L85.3548 34.1934Z" fill="#2466A8"/>
</g>
<g opacity="0.25">
<path d="M30.7169 65.3452H38.3414C38.9274 62.5719 38.6422 57.5876 39.3651 52.4453C38.5599 52.8269 37.659 53.0414 36.707 53.0414H30.7169C27.3005 53.0414 24.5303 55.7957 24.5303 59.194C24.5303 60.8929 25.2226 62.4308 26.3421 63.5434C27.4622 64.6574 29.008 65.3452 30.7162 65.3452H30.7169ZM50.2486 83.4609H34.1227C32.1016 83.4609 30.4622 81.8305 30.4622 79.8206C30.4622 79.3528 30.5523 78.8935 30.724 78.4674C30.8396 78.1775 30.995 77.903 31.1837 77.6505H30.7176C27.3012 77.6505 24.531 80.4047 24.531 83.8017C24.531 85.5005 25.2233 87.0385 26.3428 88.1518C27.4629 89.2657 29.0087 89.9536 30.7169 89.9536H55.7159C53.0521 88.707 51.0232 86.3386 50.2486 83.4602V83.4609ZM30.7169 40.7369H36.707C38.4152 40.7369 39.9617 41.4254 41.0811 42.5387C41.4386 42.8943 41.7515 43.2936 42.0132 43.7268C44.1421 39.8261 47.7586 36.6584 53.9871 35.4513C54.2751 32.2159 57.0063 29.6797 60.334 29.6797C63.6618 29.6797 66.4908 32.3076 66.6937 35.6256C72.2085 36.8962 75.5569 39.7781 77.612 43.3176C78.7342 41.7556 80.5708 40.7362 82.6479 40.7362H89.2815C92.6979 40.7362 95.4681 37.9812 95.4681 34.5836C95.4681 32.8847 94.7757 31.3467 93.6563 30.2335C92.5362 29.1195 90.9904 28.4316 89.2822 28.4316H30.7169C27.3005 28.4323 24.5303 31.1873 24.5303 34.585C24.5303 36.2838 25.2226 37.8218 26.3421 38.935C27.4622 40.049 29.008 40.7369 30.7162 40.7369H30.7169ZM83.8078 30.0634H87.7683V30.6906L85.3557 34.1941H87.7932V35.1345H83.822V34.4904L86.2524 31.0081H83.8085V30.0642L83.8078 30.0634ZM77.4084 32.1729H82.5125V32.9807L79.4032 37.4958H82.5437V38.7079H77.4261V37.8775L80.5581 33.3899H77.4084V32.1736V32.1729ZM89.2829 77.6505H88.6728C89.1396 78.2741 89.3943 79.0346 89.3943 79.8199C89.3943 81.8305 87.7549 83.4609 85.7338 83.4609H69.7817C69.0063 86.3393 66.9775 88.707 64.3137 89.9543H89.2836C92.7 89.9543 95.4702 87.1993 95.4702 83.8017C95.4702 82.1028 94.7778 80.5649 93.6584 79.4523C92.5383 78.3383 90.9925 77.6505 89.2843 77.6505H89.2829ZM89.2829 53.0414H82.6494C81.9024 53.0414 81.1859 52.9095 80.5226 52.6682C81.2107 57.7626 80.9341 62.6721 81.5257 65.3953C81.6058 65.7657 81.6988 66.1311 81.8016 66.4924C82.0364 67.3143 82.3259 68.1094 82.6536 68.8734C83.6439 66.788 85.7771 65.3445 88.25 65.3445H89.2836C92.7 65.3445 95.4702 62.5903 95.4702 59.1933C95.4702 57.4945 94.7778 55.9558 93.6584 54.8432C92.5383 53.7293 90.9925 53.0414 89.2843 53.0414H89.2829Z" fill="#2466A8"/>
</g>
</g>
</g>
<defs>
<clipPath id="clip0_4915_111354">
<rect width="70.9392" height="70.5494" fill="white" transform="translate(24.5303 24.3955)"/>
</clipPath>
</defs>
</svg>
