<svg width="31" height="37" viewBox="0 0 31 37" fill="none" xmlns="http://www.w3.org/2000/svg">
<g opacity="0.5">
<path opacity="0.5" d="M21.0246 7.42418C20.2043 7.42339 19.4178 7.09726 18.8377 6.51741C18.2576 5.93755 17.9314 5.15133 17.9306 4.33129V0.0369873H4.10518C3.03429 0.0369873 2.00726 0.462254 1.25003 1.21921C0.492795 1.97617 0.0673828 3.0028 0.0673828 4.07331V28.4053C0.0689731 29.4748 0.495083 30.4999 1.25214 31.2555C2.00921 32.0112 3.03532 32.4356 4.10518 32.4356H20.702C21.7719 32.4356 22.798 32.0112 23.555 31.2555C24.3121 30.4999 24.7382 29.4748 24.7398 28.4053V7.42418H21.0246Z" fill="#2B333B"/>
</g>
<path d="M24.7389 7.42418H21.0237C20.2033 7.42339 19.4168 7.09726 18.8368 6.51741C18.2567 5.93755 17.9305 5.15133 17.9297 4.33129V0.0369873L24.7389 7.42418Z" fill="#2B333B"/>
<path d="M19.663 22.662H4.17206C4.02282 22.662 3.8797 22.6028 3.77418 22.4973C3.66865 22.3918 3.60938 22.2487 3.60938 22.0995C3.60977 21.9506 3.66923 21.8079 3.77471 21.7028C3.88019 21.5976 4.02308 21.5386 4.17206 21.5386H19.663C19.8119 21.5386 19.9546 21.5976 20.0598 21.7028C20.1651 21.8081 20.2242 21.9508 20.2242 22.0995C20.2244 22.1733 20.21 22.2465 20.1819 22.3147C20.1538 22.3829 20.1125 22.4449 20.0604 22.4972C20.0082 22.5494 19.9463 22.5909 19.8781 22.6192C19.81 22.6475 19.7369 22.662 19.663 22.662Z" fill="#2B333B"/>
<path d="M19.663 16.3263H4.17206C4.02308 16.3263 3.88019 16.2673 3.77471 16.1621C3.66923 16.0569 3.60977 15.9143 3.60938 15.7654C3.60938 15.6162 3.66865 15.4731 3.77418 15.3676C3.8797 15.2621 4.02282 15.2029 4.17206 15.2029H19.663C19.7369 15.2029 19.81 15.2174 19.8781 15.2457C19.9463 15.274 20.0082 15.3155 20.0604 15.3677C20.1125 15.42 20.1538 15.482 20.1819 15.5502C20.21 15.6185 20.2244 15.6916 20.2242 15.7654C20.2242 15.9141 20.1651 16.0568 20.0598 16.162C19.9546 16.2672 19.8119 16.3263 19.663 16.3263Z" fill="#2B333B"/>
<path d="M19.663 19.4942H4.17206C4.02282 19.4942 3.8797 19.4349 3.77418 19.3294C3.66865 19.2239 3.60938 19.0809 3.60938 18.9317C3.60977 18.7828 3.66923 18.6401 3.77471 18.5349C3.88019 18.4298 4.02308 18.3707 4.17206 18.3707H19.663C19.8119 18.3707 19.9546 18.4298 20.0598 18.535C20.1651 18.6402 20.2242 18.7829 20.2242 18.9317C20.2244 19.0055 20.21 19.0786 20.1819 19.1468C20.1538 19.2151 20.1125 19.2771 20.0604 19.3294C20.0082 19.3816 19.9463 19.423 19.8781 19.4513C19.81 19.4796 19.7369 19.4942 19.663 19.4942Z" fill="#2B333B"/>
<path d="M13.5531 13.1585H4.17206C4.02308 13.1585 3.88019 13.0994 3.77471 12.9943C3.66923 12.8891 3.60977 12.7464 3.60938 12.5975C3.60938 12.4483 3.66865 12.3053 3.77418 12.1998C3.8797 12.0943 4.02282 12.035 4.17206 12.035H13.5531C13.702 12.0354 13.8448 12.0949 13.95 12.2003C14.0552 12.3057 14.1143 12.4486 14.1143 12.5975C14.1139 12.7462 14.0546 12.8886 13.9494 12.9937C13.8443 13.0989 13.7018 13.1581 13.5531 13.1585Z" fill="#2B333B"/>
<path d="M13.5531 9.99064H4.17206C4.02308 9.99064 3.88019 9.93156 3.77471 9.8264C3.66923 9.72124 3.60977 9.57858 3.60938 9.42966C3.60938 9.28049 3.66865 9.13739 3.77418 9.0319C3.8797 8.92642 4.02282 8.86719 4.17206 8.86719H13.5531C13.702 8.86758 13.8448 8.92701 13.95 9.03245C14.0552 9.13789 14.1143 9.28075 14.1143 9.42966C14.1139 9.57832 14.0546 9.72077 13.9494 9.82589C13.8443 9.93101 13.7018 9.99024 13.5531 9.99064Z" fill="#2B333B"/>
<path d="M27.6679 25.6274H8.90587C7.57499 25.6274 6.49609 26.7059 6.49609 28.0363V33.6281C6.49609 34.9585 7.57499 36.037 8.90587 36.037H27.6679C28.9988 36.037 30.0777 34.9585 30.0777 33.6281V28.0363C30.0777 26.7059 28.9988 25.6274 27.6679 25.6274Z" fill="#2B333B"/>
<path d="M12.6508 32.0426V33.1331H11.5225V32.0426H12.6508Z" fill="white"/>
<path d="M14.3096 31.5507V33.1331H13.2188V28.6228H14.9863C15.522 28.6228 15.9316 28.7563 16.2122 29.0218C16.3542 29.1612 16.465 29.3292 16.5374 29.5145C16.6099 29.6999 16.6422 29.8985 16.6323 30.0972C16.6378 30.3594 16.5731 30.6184 16.4448 30.8472C16.3138 31.0709 16.1196 31.2509 15.8866 31.3647C15.6056 31.4975 15.297 31.5617 14.9863 31.5522L14.3096 31.5507ZM15.522 30.0972C15.522 29.6972 15.3029 29.4972 14.8648 29.4972H14.3096V30.6717H14.8648C15.3029 30.6757 15.522 30.4842 15.522 30.0972Z" fill="white"/>
<path d="M20.9436 32.0456C20.7558 32.3867 20.472 32.6652 20.1274 32.8466C19.7396 33.045 19.3085 33.1435 18.873 33.1331H17.1699V28.6228H18.873C19.3088 28.6118 19.7406 28.7081 20.1304 28.9033C20.474 29.0808 20.7571 29.3565 20.9436 29.6952C21.1389 30.0549 21.2371 30.4591 21.2287 30.8682C21.2369 31.2787 21.1387 31.6843 20.9436 32.0456ZM19.7703 31.8191C19.8922 31.694 19.9867 31.5448 20.0477 31.381C20.1087 31.2173 20.1348 31.0426 20.1244 30.8682C20.1349 30.694 20.1088 30.5195 20.0478 30.356C19.9868 30.1925 19.8923 30.0435 19.7703 29.9187C19.4973 29.6793 19.1408 29.5575 18.7784 29.5797H18.2608V32.1566H18.7784C19.1405 32.1786 19.4968 32.0574 19.7703 31.8191Z" fill="white"/>
<path d="M24.7891 28.6228V29.4913H22.939V30.4797H24.3675V31.3092H22.939V33.1331H21.8467V28.6228H24.7891Z" fill="white"/>
<path d="M19.3886 8.86707H16.7357C16.2733 8.86707 15.8984 9.24179 15.8984 9.70403V12.3559C15.8984 12.8182 16.2733 13.1929 16.7357 13.1929H19.3886C19.851 13.1929 20.2258 12.8182 20.2258 12.3559V9.70403C20.2258 9.24179 19.851 8.86707 19.3886 8.86707Z" fill="#2B333B"/>
</svg>
