<svg width="31" height="37" viewBox="0 0 31 37" fill="none" xmlns="http://www.w3.org/2000/svg">
<g opacity="0.5">
<path opacity="0.5" d="M21.0264 7.4231C20.2061 7.4223 19.4195 7.09618 18.8394 6.51631C18.2593 5.93643 17.9331 5.15017 17.9323 4.3301V0.0371094H4.10631C3.03538 0.0371094 2.00832 0.462384 1.25105 1.21937C0.493789 1.97636 0.0683594 3.00305 0.0683594 4.0736V28.4066C0.0699497 29.4761 0.496077 30.5012 1.25317 31.2569C2.01026 32.0126 3.03642 32.4371 4.10631 32.4371H20.7038C21.774 32.4371 22.8004 32.0124 23.5575 31.2564C24.3146 30.5004 24.7406 29.4748 24.7418 28.4051V7.4231H21.0264Z" fill="#2B333B"/>
</g>
<path d="M24.7421 7.4231H21.0267C20.2064 7.4223 19.4198 7.09618 18.8397 6.51631C18.2597 5.93643 17.9334 5.15017 17.9326 4.3301V0.0371094L24.7421 7.4231Z" fill="#2B333B"/>
<path d="M27.6697 25.6271H8.90694C7.57601 25.6271 6.49707 26.7056 6.49707 28.0361V33.6281C6.49707 34.9585 7.57601 36.0371 8.90694 36.0371H27.6697C29.0007 36.0371 30.0796 34.9585 30.0796 33.6281V28.0361C30.0796 26.7056 29.0007 25.6271 27.6697 25.6271Z" fill="#2B333B"/>
<path d="M11.9317 32.0426V33.1331H10.8018V32.0426H11.9317Z" fill="white"/>
<path d="M13.5914 31.552V33.1331H12.499V28.6226H14.2667C14.8039 28.6226 15.2125 28.7556 15.4926 29.0216C15.6348 29.161 15.7459 29.3289 15.8185 29.5142C15.8912 29.6996 15.9238 29.8982 15.9143 30.0971C15.919 30.3594 15.8537 30.6183 15.7252 30.8471C15.5949 31.071 15.4005 31.2507 15.167 31.3631C14.8862 31.4969 14.5776 31.5617 14.2667 31.552H13.5914ZM14.8039 30.0971C14.8039 29.6971 14.5848 29.4971 14.1466 29.4971H13.5914V30.6716H14.1466C14.5848 30.6756 14.8039 30.4841 14.8039 30.0971Z" fill="white"/>
<path d="M20.4577 33.1331H19.3668L17.5391 30.3641V33.1331H16.4482V28.6226H17.5391L19.3653 31.4171V28.6226H20.4562L20.4577 33.1331Z" fill="white"/>
<path d="M24.7207 28.9871C25.0849 29.2594 25.3295 29.662 25.4035 30.1106H24.2481C24.1723 29.9499 24.0506 29.8153 23.8984 29.7236C23.7265 29.6217 23.5296 29.5697 23.3297 29.5736C23.1745 29.5672 23.0197 29.5949 22.8763 29.6547C22.733 29.7146 22.6045 29.8052 22.4999 29.9201C22.2807 30.1835 22.1692 30.52 22.1878 30.8621C22.1878 31.2911 22.2974 31.6206 22.5164 31.8506C22.6396 31.9701 22.7864 32.0625 22.9474 32.1219C23.1084 32.1813 23.28 32.2064 23.4513 32.1956C23.6961 32.1998 23.9357 32.1245 24.134 31.9811C24.3361 31.8299 24.4818 31.6155 24.5482 31.3721H23.1707V30.5876H25.462V31.6871C25.3733 31.9554 25.2342 32.2043 25.0524 32.4206C24.8559 32.6534 24.6112 32.8407 24.3351 32.9696C24.0221 33.114 23.6804 33.1858 23.3357 33.1796C22.9169 33.1902 22.5027 33.0898 22.1353 32.8886C21.7991 32.7001 21.5252 32.4175 21.3475 32.0756C21.1573 31.7073 21.0619 31.2975 21.0699 30.8831C21.0609 30.4662 21.1563 30.0537 21.3475 29.6831C21.525 29.342 21.7976 29.0596 22.1323 28.8701C22.4944 28.6707 22.9029 28.5708 23.3162 28.5806C23.8166 28.5561 24.3109 28.6991 24.7207 28.9871Z" fill="white"/>
<path d="M8.27614 10.0452H6.21289V12.1077H8.27614V10.0452Z" fill="#2B333B"/>
<path d="M10.3406 12.1077H8.27734V14.1702H10.3406V12.1077Z" fill="#2B333B"/>
<path d="M12.4041 10.0452H10.3408V12.1077H12.4041V10.0452Z" fill="#2B333B"/>
<path d="M14.4675 12.1077H12.4043V14.1702H14.4675V12.1077Z" fill="#2B333B"/>
<path d="M16.5339 10.0452H14.4707V12.1077H16.5339V10.0452Z" fill="#2B333B"/>
<path d="M18.5974 12.1077H16.5342V14.1702H18.5974V12.1077Z" fill="#2B333B"/>
<path d="M8.27614 14.1671H6.21289V16.2296H8.27614V14.1671Z" fill="#2B333B"/>
<path d="M10.3406 16.2296H8.27734V18.2921H10.3406V16.2296Z" fill="#2B333B"/>
<path d="M12.4041 14.1671H10.3408V16.2296H12.4041V14.1671Z" fill="#2B333B"/>
<path d="M14.4675 16.2296H12.4043V18.2921H14.4675V16.2296Z" fill="#2B333B"/>
<path d="M16.5339 14.1671H14.4707V16.2296H16.5339V14.1671Z" fill="#2B333B"/>
<path d="M18.5974 16.2296H16.5342V18.2921H18.5974V16.2296Z" fill="#2B333B"/>
<path d="M8.27614 18.3086H6.21289V20.3711H8.27614V18.3086Z" fill="#2B333B"/>
<path d="M10.3406 20.3711H8.27734V22.4336H10.3406V20.3711Z" fill="#2B333B"/>
<path d="M12.4041 18.3086H10.3408V20.3711H12.4041V18.3086Z" fill="#2B333B"/>
<path d="M14.4675 20.3711H12.4043V22.4336H14.4675V20.3711Z" fill="#2B333B"/>
<path d="M16.5339 18.3086H14.4707V20.3711H16.5339V18.3086Z" fill="#2B333B"/>
<path d="M18.5974 20.3711H16.5342V22.4336H18.5974V20.3711Z" fill="#2B333B"/>
</svg>
