<svg width="31" height="37" viewBox="0 0 31 37" fill="none" xmlns="http://www.w3.org/2000/svg">
<g opacity="0.5">
<path opacity="0.5" d="M21.0363 7.4243C20.2159 7.42311 19.4294 7.09667 18.8493 6.51657C18.2693 5.93648 17.9431 5.1501 17.9423 4.32993V0.0371097H4.1184C3.58803 0.0369126 3.0628 0.14117 2.57274 0.343927C2.08268 0.546683 1.63737 0.843959 1.26227 1.21879C0.887166 1.59361 0.58961 2.03864 0.386598 2.52845C0.183586 3.01826 0.0791015 3.54326 0.0791016 4.07345V28.4054C0.0791015 28.9356 0.183586 29.4606 0.386598 29.9504C0.58961 30.4402 0.887166 30.8852 1.26227 31.2601C1.63737 31.6349 2.08268 31.9322 2.57274 32.1349C3.0628 32.3377 3.58803 32.442 4.1184 32.4418H20.7137C21.7846 32.4418 22.8116 32.0165 23.5689 31.2595C24.3261 30.5026 24.7515 29.4759 24.7515 28.4054V7.4243H21.0363Z" fill="#2B333B"/>
</g>
<path d="M24.7506 7.4243H21.0354C20.2149 7.42311 19.4284 7.09667 18.8484 6.51658C18.2684 5.93648 17.9422 5.1501 17.9414 4.32993V0.0371094L24.7506 7.4243Z" fill="#2B333B"/>
<path d="M27.6806 25.6276H8.91856C7.58768 25.6276 6.50879 26.7061 6.50879 28.0365V33.6282C6.50879 34.9586 7.58768 36.0371 8.91856 36.0371H27.6806C29.0115 36.0371 30.0904 34.9586 30.0904 33.6282V28.0365C30.0904 26.7061 29.0115 25.6276 27.6806 25.6276Z" fill="#2B333B"/>
<path d="M12.3691 32.0427V33.1332H11.2393V32.0427H12.3691Z" fill="white"/>
<path d="M15.2543 33.1333L14.2774 31.4293H14.0284V33.1333H12.9375V28.6229H14.8011C15.1114 28.6145 15.4195 28.6776 15.7014 28.8075C15.9328 28.9175 16.1261 29.094 16.2566 29.3144C16.3822 29.5398 16.4459 29.7944 16.4411 30.0524C16.4499 30.3539 16.3539 30.6491 16.1695 30.8879C15.9686 31.1304 15.6906 31.2966 15.3818 31.3588L16.4546 33.1333H15.2543ZM14.0284 30.6839H14.7051C14.8779 30.6968 15.0492 30.6432 15.1837 30.5339C15.237 30.4775 15.2779 30.4106 15.3037 30.3375C15.3296 30.2644 15.3398 30.1867 15.3338 30.1094C15.3388 30.0326 15.328 29.9557 15.3022 29.8832C15.2764 29.8107 15.2361 29.7443 15.1837 29.6879C15.0511 29.5774 14.8802 29.5235 14.7081 29.5379H14.0314L14.0284 30.6839Z" fill="white"/>
<path d="M19.7919 32.3098H18.1009L17.8188 33.1332H16.6709L18.3214 28.6544H19.5773L21.2279 33.1332H20.0665L19.7919 32.3098ZM19.5113 31.4803L18.9486 29.8214L18.3815 31.4803H19.5113Z" fill="white"/>
<path d="M23.973 33.1333L22.9962 31.4293H22.7471V33.1333H21.6562V28.6229H23.5199C23.8301 28.6145 24.1382 28.6776 24.4201 28.8075C24.6516 28.9175 24.8449 29.094 24.9753 29.3144C25.101 29.5398 25.1646 29.7944 25.1599 30.0524C25.1687 30.3539 25.0727 30.6491 24.8883 30.8879C24.6874 31.1304 24.4093 31.2966 24.1005 31.3588L25.1734 33.1333H23.973ZM22.7471 30.6839H23.4238C23.5967 30.6965 23.7678 30.6429 23.9025 30.5339C23.9558 30.4775 23.9967 30.4106 24.0225 30.3375C24.0483 30.2644 24.0586 30.1867 24.0525 30.1094C24.0575 30.0326 24.0468 29.9557 24.021 29.8832C23.9952 29.8107 23.9549 29.7443 23.9025 29.6879C23.7698 29.5774 23.5989 29.5235 23.4268 29.5379H22.7501L22.7471 30.6839Z" fill="white"/>
<path d="M14.3289 22.6622H4.9479C4.79893 22.6618 4.6562 22.6023 4.551 22.4969C4.4458 22.3914 4.38672 22.2486 4.38672 22.0997C4.38672 21.9509 4.44585 21.8082 4.55109 21.703C4.65633 21.5978 4.79906 21.5387 4.9479 21.5387H14.3289C14.4027 21.5385 14.4759 21.5529 14.5441 21.581C14.6124 21.6091 14.6744 21.6504 14.7267 21.7025C14.779 21.7546 14.8204 21.8165 14.8487 21.8847C14.877 21.9528 14.8916 22.0259 14.8916 22.0997C14.8916 22.2489 14.8323 22.3919 14.7268 22.4974C14.6213 22.6029 14.4781 22.6622 14.3289 22.6622Z" fill="#2B333B"/>
<path d="M14.3289 19.3488H4.9479C4.79893 19.3484 4.6562 19.289 4.551 19.1835C4.4458 19.0781 4.38672 18.9352 4.38672 18.7863C4.38711 18.6377 4.44637 18.4952 4.55153 18.3901C4.65669 18.285 4.79919 18.2257 4.9479 18.2253H14.3289C14.4779 18.2253 14.6208 18.2844 14.7263 18.3896C14.8317 18.4947 14.8912 18.6374 14.8916 18.7863C14.8916 18.9355 14.8323 19.0786 14.7268 19.184C14.6213 19.2895 14.4781 19.3488 14.3289 19.3488Z" fill="#2B333B"/>
<path d="M14.4108 22H4.58763C4.43178 22 4.28232 21.316 4.17212 20.0986C4.06192 18.8813 4 17.2303 4 15.5087C4 13.7855 4.06187 12.1325 4.17202 10.9123C4.28218 9.69223 4.43164 9.0046 4.58763 9H14.4108C14.5671 9 14.7169 9.68559 14.8274 10.9062C14.9379 12.1268 15 13.7825 15 15.5087C15 16.3626 14.9847 17.208 14.9551 17.9967C14.9255 18.7854 14.8821 19.5018 14.8273 20.1048C14.7726 20.7078 14.7076 21.1856 14.6362 21.5108C14.5647 21.836 14.4881 22.0023 14.4108 22V22Z" fill="#2B333B"/>
<path d="M14.3289 12.722H4.9479C4.79906 12.722 4.65633 12.663 4.55109 12.5578C4.44585 12.4526 4.38672 12.3099 4.38672 12.1611C4.38672 12.0123 4.44585 11.8696 4.55109 11.7644C4.65633 11.6592 4.79906 11.6001 4.9479 11.6001H14.3289C14.4027 11.5999 14.4759 11.6143 14.5441 11.6424C14.6124 11.6705 14.6744 11.7118 14.7267 11.7639C14.779 11.816 14.8204 11.8779 14.8487 11.9461C14.877 12.0142 14.8916 12.0873 14.8916 12.1611C14.8916 12.2349 14.877 12.3079 14.8487 12.3761C14.8204 12.4443 14.779 12.5062 14.7267 12.5583C14.6744 12.6104 14.6124 12.6517 14.5441 12.6798C14.4759 12.7079 14.4027 12.7222 14.3289 12.722Z" fill="#2B333B"/>
<path d="M18.5369 22.9141C18.0321 22.9137 17.548 22.7131 17.191 22.3562C16.8339 21.9993 16.6332 21.5154 16.6328 21.0107V19.1073H20.4395V21.0107C20.4391 21.5151 20.2386 21.9988 19.8819 22.3557C19.5252 22.7125 19.0416 22.9133 18.5369 22.9141ZM17.6066 20.0808V21.0107C17.607 21.2572 17.7052 21.4936 17.8795 21.6679C18.0539 21.8422 18.2903 21.9403 18.5369 21.9407C18.7835 21.9403 19.0199 21.8422 19.1943 21.6679C19.3687 21.4936 19.4668 21.2572 19.4672 21.0107V20.0808H17.6066Z" fill="#2B333B"/>
<path d="M16.6324 19.1089H18.541V17.201H16.6324V19.1089Z" fill="#2B333B"/>
<path d="M18.5348 17.2024H20.4434V15.2945H18.5348V17.2024Z" fill="#2B333B"/>
<path d="M16.6324 15.296H18.541V13.3881H16.6324V15.296Z" fill="#2B333B"/>
<path d="M18.5348 13.3895H20.4434V11.4816H18.5348V13.3895Z" fill="#2B333B"/>
</svg>
