<svg width="24" height="24" viewBox="0 0 24 24" fill="none" xmlns="http://www.w3.org/2000/svg">
<path d="M14.625 19.125H9.375C9.27555 19.125 9.18016 19.1645 9.10984 19.2348C9.03951 19.3052 9 19.4005 9 19.5C9 19.5995 9.03951 19.6948 9.10984 19.7652C9.18016 19.8355 9.27555 19.875 9.375 19.875H14.625C14.7245 19.875 14.8198 19.8355 14.8902 19.7652C14.9605 19.6948 15 19.5995 15 19.5C15 19.4005 14.9605 19.3052 14.8902 19.2348C14.8198 19.1645 14.7245 19.125 14.625 19.125ZM14.625 17.625H9.375C9.27555 17.625 9.18016 17.6645 9.10984 17.7348C9.03951 17.8052 9 17.9005 9 18C9 18.0995 9.03951 18.1948 9.10984 18.2652C9.18016 18.3355 9.27555 18.375 9.375 18.375H14.625C14.7245 18.375 14.8198 18.3355 14.8902 18.2652C14.9605 18.1948 15 18.0995 15 18C15 17.9005 14.9605 17.8052 14.8902 17.7348C14.8198 17.6645 14.7245 17.625 14.625 17.625ZM11.2961 22.875H12.7039C13.2675 22.875 13.7726 22.5821 14.0606 22.125H9.93975C10.0838 22.3547 10.2839 22.544 10.5211 22.6751C10.7583 22.8063 11.025 22.8751 11.2961 22.875ZM5.14013 8.73487L6 9.59475V9C6 8.90054 6.03951 8.80516 6.10984 8.73483C6.18016 8.66451 6.27555 8.625 6.375 8.625H7.875C8.30467 8.62319 8.71945 8.46736 9.04402 8.1858C9.36859 7.90423 9.58142 7.51561 9.64388 7.0905L10.1074 3.84488C10.142 3.60018 10.1238 3.35089 10.0539 3.11385C9.98394 2.87681 9.86398 2.65753 9.70207 2.47081C9.54016 2.28409 9.34008 2.13428 9.11533 2.0315C8.89058 1.92871 8.64639 1.87535 8.39925 1.875H2.85075C2.60358 1.87529 2.35935 1.92862 2.13455 2.03138C1.90976 2.13414 1.70963 2.28394 1.54768 2.47067C1.38573 2.65739 1.26573 2.87669 1.19579 3.11376C1.12585 3.35083 1.10759 3.60015 1.14225 3.84488L1.60613 7.0905C1.66858 7.51561 1.88142 7.90423 2.20598 8.1858C2.53055 8.46736 2.94533 8.62319 3.375 8.625H4.875C4.97475 8.625 5.07 8.66437 5.14013 8.73487ZM4.125 3.75H9V4.5H4.125V3.75ZM2.25 6.75V6H9V6.75H2.25ZM14.625 20.625H9.375C9.27555 20.625 9.18016 20.6645 9.10984 20.7348C9.03951 20.8052 9 20.9005 9 21C9 21.0995 9.03951 21.1948 9.10984 21.2652C9.18016 21.3355 9.27555 21.375 9.375 21.375H14.625C14.7245 21.375 14.8198 21.3355 14.8902 21.2652C14.9605 21.1948 15 21.0995 15 21C15 20.9005 14.9605 20.8052 14.8902 20.7348C14.8198 20.6645 14.7245 20.625 14.625 20.625Z" fill="#F9FAFB"/>
<path d="M8.625 12.375C8.83211 12.375 9 12.2071 9 12C9 11.7929 8.83211 11.625 8.625 11.625C8.41789 11.625 8.25 11.7929 8.25 12C8.25 12.2071 8.41789 12.375 8.625 12.375Z" fill="#F9FAFB"/>
<path d="M19.5 8.625C19.5 4.4895 16.1355 1.125 12 1.125C11.2035 1.125 10.4291 1.24912 9.68702 1.49025C10.1004 1.74188 10.4309 2.10923 10.6376 2.54682C10.8443 2.98441 10.9181 3.47301 10.8499 3.95212L10.3868 7.197C10.2094 8.43862 9.12977 9.375 7.87502 9.375H6.75002V10.5C6.75018 10.5742 6.72829 10.6468 6.68711 10.7086C6.64593 10.7704 6.58733 10.8185 6.51875 10.8469C6.45016 10.8753 6.37468 10.8827 6.30189 10.8682C6.22909 10.8536 6.16227 10.8177 6.10989 10.7651L4.71977 9.375H4.53827C4.75239 11.5414 5.88527 13.485 7.68939 14.7536C8.44422 15.284 9.03043 16.0205 9.37802 16.875H14.622C14.9696 16.0205 15.5558 15.284 16.3106 14.7536C17.2944 14.0624 18.0977 13.1448 18.6527 12.0783C19.2078 11.0117 19.4984 9.82735 19.5 8.625ZM8.62502 13.125C8.00477 13.125 7.50002 12.6202 7.50002 12C7.50002 11.3798 8.00477 10.875 8.62502 10.875C9.24527 10.875 9.75002 11.3798 9.75002 12C9.75002 12.6202 9.24527 13.125 8.62502 13.125ZM12 13.125C11.3798 13.125 10.875 12.6202 10.875 12C10.875 11.3798 11.3798 10.875 12 10.875C12.6203 10.875 13.125 11.3798 13.125 12C13.125 12.6202 12.6203 13.125 12 13.125ZM15.375 13.125C14.7548 13.125 14.25 12.6202 14.25 12C14.25 11.3798 14.7548 10.875 15.375 10.875C15.9953 10.875 16.5 11.3798 16.5 12C16.5 12.6202 15.9953 13.125 15.375 13.125Z" fill="#F9FAFB"/>
<path d="M15.375 12.375C15.5821 12.375 15.75 12.2071 15.75 12C15.75 11.7929 15.5821 11.625 15.375 11.625C15.1679 11.625 15 11.7929 15 12C15 12.2071 15.1679 12.375 15.375 12.375Z" fill="#F9FAFB"/>
<path d="M21.1492 9.375H20.2117C20.1531 10.0134 20.0198 10.6427 19.8146 11.25H21.75V12H19.5232C19.2838 12.5296 18.989 13.0324 18.6439 13.5H21.75V14.25H18.0214C17.6345 14.6654 17.2059 15.0397 16.7422 15.3671C16.4446 15.5771 16.1765 15.8262 15.9454 16.1077C16.0054 16.1137 16.0642 16.125 16.125 16.125H17.625C17.7245 16.125 17.8198 16.1645 17.8902 16.2348C17.9605 16.3052 18 16.4005 18 16.5V17.0947L18.8599 16.2349C18.8946 16.2 18.936 16.1723 18.9815 16.1535C19.027 16.1346 19.0757 16.1249 19.125 16.125H20.625C21.0547 16.1232 21.4694 15.9674 21.794 15.6858C22.1186 15.4042 22.3314 15.0156 22.3939 14.5905L22.8577 11.3445C22.8923 11.0998 22.874 10.8505 22.8041 10.6135C22.7341 10.3765 22.6141 10.1572 22.4522 9.97054C22.2902 9.78386 22.0901 9.6341 21.8653 9.53136C21.6406 9.42862 21.3964 9.3753 21.1492 9.375Z" fill="#F9FAFB"/>
<path d="M12 12.375C12.2071 12.375 12.375 12.2071 12.375 12C12.375 11.7929 12.2071 11.625 12 11.625C11.7929 11.625 11.625 11.7929 11.625 12C11.625 12.2071 11.7929 12.375 12 12.375Z" fill="#F9FAFB"/>
</svg>
