<svg width="345" height="345" viewBox="0 0 345 345" fill="none" xmlns="http://www.w3.org/2000/svg">
<path d="M172.5 0L321.889 86.25V258.75L172.5 345L23.1106 258.75V86.25L172.5 0Z" fill="#E1EAF2"/>
<rect x="62.7217" y="99.6016" width="136.818" height="160.761" rx="27.3636" transform="rotate(-23.01 62.7217 99.6016)" fill="#EDF4FC"/>
<path d="M136.506 184.74C134.228 175.831 135.291 166.396 139.495 158.218C143.698 150.039 150.752 143.683 159.322 140.351C167.893 137.018 177.387 136.939 186.011 140.13C194.636 143.32 201.793 149.558 206.132 157.666L203.872 158.875C199.829 151.32 193.159 145.507 185.122 142.534C177.085 139.561 168.238 139.634 160.251 142.74C152.265 145.845 145.692 151.768 141.775 159.389C137.857 167.011 136.866 175.803 138.99 184.105L136.506 184.74Z" fill="#373737"/>
<rect x="116.062" y="100.67" width="136.818" height="160.761" rx="27.3636" fill="#CED3D9"/>
<path d="M153.758 208.343C152.067 208.086 150.893 206.502 151.288 204.838C153.164 196.953 157.545 189.855 163.815 184.633C170.881 178.749 179.857 175.656 189.049 175.938C198.24 176.221 207.009 179.86 213.701 186.167C219.638 191.764 223.574 199.119 224.962 207.104C225.254 208.789 223.985 210.298 222.282 210.451C220.578 210.604 219.089 209.343 218.769 207.663C217.535 201.186 214.288 195.232 209.453 190.674C203.863 185.404 196.537 182.365 188.858 182.128C181.18 181.892 173.681 184.476 167.778 189.392C162.671 193.645 159.065 199.388 157.435 205.776C157.013 207.434 155.448 208.601 153.758 208.343Z" fill="#E1EAF2"/>
</svg>
