<svg width="31" height="36" viewBox="0 0 31 36" fill="none" xmlns="http://www.w3.org/2000/svg">
<g opacity="0.5">
<path opacity="0.5" d="M20.9572 7.38719C20.1368 7.386 19.3503 7.05956 18.7702 6.47947C18.1902 5.89937 17.864 5.113 17.8632 4.29282V0H4.03779C2.9669 0 1.93988 0.425249 1.18265 1.18221C0.425412 1.93917 0 2.96584 0 4.03634V28.3683C0.00159027 29.4378 0.4277 30.4629 1.18476 31.2186C1.94182 31.9742 2.96794 32.3987 4.03779 32.3987H20.6346C21.7045 32.3987 22.7306 31.9742 23.4877 31.2186C24.2447 30.4629 24.6708 29.4378 24.6724 28.3683V7.38719H20.9572Z" fill="#2B333B"/>
</g>
<path d="M24.6715 7.38719H20.9563C20.1358 7.386 19.3493 7.05956 18.7693 6.47947C18.1893 5.89938 17.8631 5.113 17.8623 4.29282V0L24.6715 7.38719Z" fill="#2B333B"/>
<path d="M27.6005 25.5905H8.83848C7.5076 25.5905 6.42871 26.669 6.42871 27.9994V33.5911C6.42871 34.9215 7.5076 36 8.83848 36H27.6005C28.9314 36 30.0103 34.9215 30.0103 33.5911V27.9994C30.0103 26.669 28.9314 25.5905 27.6005 25.5905Z" fill="#2B333B"/>
<path d="M13 32.5644H13.8811V33.5H13V32.5644Z" fill="white"/>
<path d="M17.5059 29V29.9038H16.3487V33.5H15.3091V29.9038H14.1578V29H17.5059Z" fill="white"/>
<path d="M20.0354 33.5C19.9296 33.186 19.8357 32.8847 19.7534 32.5962H18.3965C18.2869 32.9484 18.191 33.2496 18.1087 33.5H17.0984L17.9795 30.7313L18.5258 29H19.7123C20.2527 30.6931 20.7324 32.1931 21.1514 33.5H20.0354ZM19.5243 31.8006C19.3716 31.232 19.2306 30.6443 19.1014 30.0375H19.0603C18.9389 30.6103 18.794 31.198 18.6256 31.8006H19.5243Z" fill="white"/>
<path d="M24.8238 32.8253C24.8434 33.012 24.8649 33.1499 24.8884 33.239C24.9119 33.3281 24.9491 33.4151 25 33.5H23.8957C23.8409 33.4236 23.8056 33.3218 23.79 33.1945C23.7743 33.0629 23.7626 32.8678 23.7547 32.6089C23.7469 32.3713 23.6882 32.2016 23.5785 32.0997C23.4728 31.9936 23.2926 31.9406 23.0381 31.9406H22.6739V33.5H21.6284V29H23.2319C23.741 29 24.1287 29.1018 24.395 29.3055C24.6613 29.5092 24.7944 29.8105 24.7944 30.2093C24.7944 30.5615 24.7278 30.8395 24.5947 31.0431C24.4616 31.2426 24.2481 31.3805 23.9544 31.4569V31.495C24.1894 31.546 24.3617 31.6181 24.4713 31.7115C24.581 31.8006 24.6574 31.9236 24.7004 32.0806C24.7435 32.2334 24.7846 32.4816 24.8238 32.8253ZM23.0733 31.1195C23.3083 31.1195 23.4806 31.0622 23.5903 30.9477C23.7038 30.8331 23.7606 30.6719 23.7606 30.4639C23.7606 30.0905 23.5393 29.9038 23.0968 29.9038H22.6739V31.1195H23.0733Z" fill="white"/>
<g clipPath="url(#clip0_5209_107213)">
<path d="M5.64145 22.0854C6.50286 22.1925 7.47073 22.7733 8.28071 22.8758C9.09504 22.9828 9.34704 22.2986 9.34704 22.2986C9.34704 22.2986 10.2634 22.0854 11.2268 22.0608C12.1912 22.0327 13.104 22.2696 13.104 22.2696C13.104 22.2696 13.281 22.6916 13.6115 22.8758C13.9419 23.0636 14.6534 23.089 15.1094 22.589C15.5663 22.0854 16.7852 21.451 17.4696 21.0544C18.1584 20.657 18.032 20.0508 17.5996 19.8665C17.1671 19.6823 16.8131 19.3919 16.8401 18.8347C16.8637 18.2821 16.4583 17.9136 16.4583 17.9136C16.4583 17.9136 16.8131 16.6976 16.4827 15.6903C16.1522 14.6876 15.0624 13.075 14.2245 11.8626C13.3866 10.6466 14.098 9.24268 13.3352 7.44856C12.5722 5.65174 10.5939 5.75795 9.52759 6.52382C8.46125 7.28973 8.78818 9.18909 8.83962 10.0903C8.89105 10.9868 8.86316 11.6284 8.76464 11.859C8.66612 12.0931 7.9782 12.9434 7.52134 13.6558C7.06535 14.3718 6.73485 15.8501 6.40092 16.4599C6.07394 17.0661 6.3024 17.6188 6.3024 17.6188C6.3024 17.6188 6.074 17.7004 5.8935 18.0979C5.71648 18.4909 5.36248 18.6787 4.72512 18.8067C4.09211 18.9419 4.09211 19.3666 4.24471 19.8421C4.39814 20.3167 4.24471 20.5826 4.06769 21.1889C3.89072 21.795 4.77656 21.9792 5.64145 22.0854ZM14.5958 19.3202C15.0484 19.5262 15.6988 19.2394 15.8967 19.0334C16.0938 18.8284 16.2333 18.5234 16.2333 18.5234C16.2333 18.5234 16.4312 18.626 16.4111 18.9517C16.3902 19.2821 16.5471 19.753 16.8436 19.9164C17.14 20.0789 17.5925 20.3057 17.358 20.5326C17.1191 20.7594 15.7973 21.313 15.4024 21.745C15.0109 22.1742 14.4964 22.5254 14.1834 22.4219C13.867 22.3194 13.5905 21.8693 13.7266 21.2105C13.867 20.5544 13.9855 19.8347 13.9655 19.4236C13.9446 19.0125 13.867 18.459 13.9655 18.3773C14.064 18.2965 14.221 18.3355 14.221 18.3355C14.221 18.3355 14.1424 19.1152 14.5958 19.3202ZM11.6593 8.21448C12.0952 8.21448 12.4466 8.66457 12.4466 9.21813C12.4466 9.61107 12.2696 9.95139 12.0107 10.1148C11.9453 10.0866 11.8773 10.0548 11.8023 10.0221C11.9592 9.94141 12.0682 9.73541 12.0682 9.49763C12.0682 9.18639 11.8843 8.93047 11.6532 8.93047C11.4282 8.93047 11.2407 9.18634 11.2407 9.49763C11.2407 9.61112 11.2678 9.72451 11.3122 9.81345C11.1762 9.75624 11.0533 9.70729 10.9548 9.66827C10.9033 9.53303 10.8728 9.38057 10.8728 9.21818C10.8728 8.66463 11.2233 8.21448 11.6593 8.21448ZM10.5799 9.94416C10.7944 9.98318 11.3837 10.2491 11.6018 10.3307C11.8197 10.4088 12.0612 10.5539 12.0377 10.6992C12.0107 10.8489 11.8982 10.8489 11.6018 11.0367C11.3088 11.221 10.6688 11.6321 10.4639 11.6602C10.2599 11.6883 10.144 11.5685 9.92591 11.4224C9.70793 11.2736 9.29908 10.926 9.4019 10.7418C9.4019 10.7418 9.72188 10.4868 9.86141 10.3562C10.0009 10.2209 10.3619 9.90239 10.5799 9.94416ZM9.63995 8.37422C9.98347 8.37422 10.2634 8.79982 10.2634 9.32434C10.2634 9.41964 10.2529 9.50853 10.2364 9.59747C10.1509 9.62559 10.0655 9.67189 9.98347 9.74631C9.94339 9.78172 9.90585 9.81345 9.87188 9.84885C9.92591 9.7427 9.94686 9.59024 9.92244 9.43049C9.87536 9.14737 9.69139 8.93776 9.51089 8.96588C9.32951 8.99766 9.2214 9.2572 9.26501 9.54399C9.31297 9.83439 9.49342 10.0439 9.67739 10.0122C9.68786 10.0086 9.69745 10.005 9.70793 10.0013C9.61988 10.0903 9.53791 10.1683 9.45245 10.2318C9.20398 10.1111 9.02001 9.74993 9.02001 9.32434C9.02006 8.7962 9.29555 8.37422 9.63995 8.37422ZM7.72615 15.2402C8.08014 14.6595 8.30855 13.3899 8.66254 12.9679C9.02006 12.5468 9.29555 11.6493 9.17002 11.2528C9.17002 11.2528 9.93291 12.2029 10.4639 12.0468C10.9958 11.8871 12.1912 10.9624 12.3681 11.1212C12.5452 11.2809 14.0675 14.7656 14.2209 15.8755C14.3744 16.9844 14.1189 17.832 14.1189 17.832C14.1189 17.832 13.5365 17.6723 13.4615 18.0407C13.3865 18.4128 13.3865 19.7604 13.3865 19.7604C13.3865 19.7604 12.5992 20.8948 11.3803 21.0826C10.1613 21.2669 9.55097 21.1325 9.55097 21.1325L8.86653 20.3167C8.86653 20.3167 9.39843 20.235 9.3234 19.6787C9.24842 19.1261 7.69815 18.3601 7.41914 17.6722C7.14022 16.9844 7.3678 15.8219 7.72615 15.2402ZM4.712 19.4019C4.77303 19.1297 5.56294 19.1297 5.86638 18.9382C6.16982 18.7468 6.23079 18.1968 6.47585 18.0516C6.71732 17.9028 7.16377 18.431 7.34774 18.7286C7.52823 19.019 8.21968 20.2886 8.50217 20.6043C8.78813 20.9229 9.0506 21.3448 8.96863 21.7242C8.89105 22.1035 8.4612 22.3803 8.4612 22.3803C8.07672 22.5037 7.00427 22.0218 6.51691 21.8095C6.02956 21.5962 4.78968 21.5326 4.63013 21.3448C4.46622 21.1534 4.70858 20.7314 4.77308 20.3312C4.83059 19.9264 4.65014 19.6751 4.712 19.4019Z" fill="#2B333B"/>
</g>
<defs>
<clipPath id="clip0_5209_107213">
<rect width="14" height="17" fill="white" transform="translate(4 6)"/>
</clipPath>
</defs>
</svg>
