<svg width="31" height="37" viewBox="0 0 31 37" fill="none" xmlns="http://www.w3.org/2000/svg">
<g opacity="0.5">
<path opacity="0.5" d="M21.0734 7.42418C20.253 7.42339 19.4663 7.09733 18.886 6.51752C18.3057 5.93771 17.9791 5.15147 17.9779 4.33129V0.0369873H4.154C3.08311 0.0369873 2.05606 0.462255 1.29883 1.21921C0.541596 1.97617 0.116211 3.00281 0.116211 4.07331V28.4053C0.116211 29.4758 0.541596 30.5025 1.29883 31.2594C2.05606 32.0164 3.08311 32.4417 4.154 32.4417H20.7493C21.8202 32.4417 22.8472 32.0164 23.6045 31.2594C24.3617 30.5025 24.7871 29.4758 24.7871 28.4053V7.42418H21.0734Z" fill="#2B333B"/>
</g>
<path d="M24.7877 7.42418H21.074C20.2536 7.42339 19.4669 7.09733 18.8866 6.51752C18.3063 5.93771 17.9797 5.15147 17.9785 4.33129V0.0369873L24.7877 7.42418Z" fill="#2B333B"/>
<path d="M19.7119 12.596H4.21938C4.07067 12.5956 3.92817 12.5364 3.82301 12.4312C3.71786 12.3261 3.6586 12.1837 3.6582 12.035C3.6582 11.8861 3.71727 11.7432 3.82246 11.6378C3.92766 11.5324 4.07041 11.4729 4.21938 11.4725H19.7119C19.8608 11.4729 20.0036 11.5324 20.1088 11.6378C20.214 11.7432 20.273 11.8861 20.273 12.035C20.2726 12.1837 20.2134 12.3261 20.1082 12.4312C20.0031 12.5364 19.8606 12.5956 19.7119 12.596Z" fill="#2B333B"/>
<path d="M19.7119 15.9513H4.21938C4.07067 15.9509 3.92817 15.8917 3.82301 15.7866C3.71786 15.6815 3.6586 15.539 3.6582 15.3904C3.6582 15.2414 3.71727 15.0986 3.82246 14.9931C3.92766 14.8877 4.07041 14.8283 4.21938 14.8279H19.7119C19.8608 14.8283 20.0036 14.8877 20.1088 14.9931C20.214 15.0986 20.273 15.2414 20.273 15.3904C20.2726 15.539 20.2134 15.6815 20.1082 15.7866C20.0031 15.8917 19.8606 15.9509 19.7119 15.9513Z" fill="#2B333B"/>
<path d="M19.7119 19.3067H4.21938C4.07041 19.3063 3.92766 19.2469 3.82246 19.1414C3.71727 19.036 3.6582 18.8931 3.6582 18.7442C3.6586 18.5955 3.71786 18.4531 3.82301 18.348C3.92817 18.2429 4.07067 18.1836 4.21938 18.1832H19.7119C19.8606 18.1836 20.0031 18.2429 20.1082 18.348C20.2134 18.4531 20.2726 18.5955 20.273 18.7442C20.273 18.8931 20.214 19.036 20.1088 19.1414C20.0036 19.2469 19.8608 19.3063 19.7119 19.3067Z" fill="#2B333B"/>
<path d="M19.7119 22.6606H4.21938C4.07055 22.6606 3.92782 22.6015 3.82257 22.4962C3.71733 22.391 3.6582 22.2484 3.6582 22.0996C3.6582 21.9507 3.71727 21.8078 3.82246 21.7024C3.92766 21.5969 4.07041 21.5375 4.21938 21.5371H19.7119C19.8608 21.5375 20.0036 21.5969 20.1088 21.7024C20.214 21.8078 20.273 21.9507 20.273 22.0996C20.273 22.2484 20.2139 22.391 20.1087 22.4962C20.0034 22.6015 19.8607 22.6606 19.7119 22.6606Z" fill="#2B333B"/>
<path d="M27.7158 25.6274H8.95373C7.62285 25.6274 6.54395 26.7059 6.54395 28.0363V33.6281C6.54395 34.9585 7.62285 36.037 8.95373 36.037H27.7158C29.0466 36.037 30.1256 34.9585 30.1256 33.6281V28.0363C30.1256 26.7059 29.0466 25.6274 27.7158 25.6274Z" fill="#2B333B"/>
<path d="M12.9541 32.0426V33.1331H11.8242V32.0426H12.9541Z" fill="white"/>
<path d="M16.7632 28.6228V29.4913H15.5373V33.1331H14.4405V29.4913H13.2266V28.6228H16.7632Z" fill="white"/>
<path d="M19.9615 33.1331L19.0102 31.7292L18.1924 33.1331H16.9425L18.3845 30.8112L16.8975 28.6228H18.1924L19.1182 29.9817L19.9164 28.6228H21.1604L19.7379 30.8937L21.2564 33.1331H19.9615Z" fill="white"/>
<path d="M24.9189 28.6228V29.4913H23.6945V33.1331H22.5962V29.4913H21.3838V28.6228H24.9189Z" fill="white"/>
</svg>
