<svg width="158" height="158" viewBox="0 0 158 158" fill="none" xmlns="http://www.w3.org/2000/svg">
<path d="M39.4997 131.667C35.8788 131.667 32.7792 130.377 30.2007 127.799C27.6222 125.22 26.333 122.121 26.333 118.5V105.333C26.333 103.468 26.9639 101.904 28.2257 100.643C29.4875 99.3809 31.0511 98.75 32.9163 98.75C34.7816 98.75 36.3452 99.3809 37.607 100.643C38.8688 101.904 39.4997 103.468 39.4997 105.333V118.5H118.5V105.333C118.5 103.468 119.131 101.904 120.392 100.643C121.654 99.3809 123.218 98.75 125.083 98.75C126.948 98.75 128.512 99.3809 129.774 100.643C131.035 101.904 131.666 103.468 131.666 105.333V118.5C131.666 122.121 130.377 125.22 127.799 127.799C125.22 130.377 122.121 131.667 118.5 131.667H39.4997ZM72.4163 51.6791L60.0726 64.0229C58.7559 65.3396 57.1924 65.9705 55.382 65.9156C53.5716 65.8607 52.008 65.175 50.6913 63.8583C49.4844 62.5416 48.8535 61.0055 48.7986 59.25C48.7438 57.4944 49.3747 55.9583 50.6913 54.6416L74.3913 30.9416C75.0497 30.2833 75.7629 29.817 76.5309 29.5427C77.299 29.2684 78.1219 29.1312 78.9997 29.1312C79.8775 29.1312 80.7004 29.2684 81.4684 29.5427C82.2365 29.817 82.9497 30.2833 83.608 30.9416L107.308 54.6416C108.625 55.9583 109.256 57.4944 109.201 59.25C109.146 61.0055 108.515 62.5416 107.308 63.8583C105.991 65.175 104.428 65.8607 102.617 65.9156C100.807 65.9705 99.2434 65.3396 97.9268 64.0229L85.583 51.6791V98.75C85.583 100.615 84.9521 102.179 83.6903 103.441C82.4285 104.702 80.865 105.333 78.9997 105.333C77.1344 105.333 75.5709 104.702 74.3091 103.441C73.0472 102.179 72.4163 100.615 72.4163 98.75V51.6791Z" fill="#C4C7C9"/>
</svg>
