<svg width="31" height="37" viewBox="0 0 31 37" fill="none" xmlns="http://www.w3.org/2000/svg">
<g opacity="0.5">
<path opacity="0.5" d="M21.0842 7.42418C20.2639 7.42339 19.4774 7.09726 18.8973 6.51741C18.3172 5.93755 17.991 5.15133 17.9902 4.33129V0.0369873H4.16477C3.09388 0.0369873 2.06684 0.462254 1.30961 1.21921C0.552375 1.97617 0.126953 3.0028 0.126953 4.07331V28.4053C0.126953 29.4758 0.552375 30.5025 1.30961 31.2594C2.06684 32.0164 3.09388 32.4416 4.16477 32.4416H20.7601C21.831 32.4416 22.858 32.0164 23.6152 31.2594C24.3725 30.5025 24.7979 29.4758 24.7979 28.4053V7.42418H21.0842Z" fill="#2B333B"/>
</g>
<path d="M24.797 7.42418H21.0833C20.2629 7.42339 19.4764 7.09726 18.8964 6.51741C18.3163 5.93755 17.9901 5.15133 17.9893 4.33129V0.0369873L24.797 7.42418Z" fill="#2B333B"/>
<path d="M27.7275 25.6274H8.96545C7.63457 25.6274 6.55566 26.7059 6.55566 28.0363V33.6281C6.55566 34.9585 7.63457 36.037 8.96545 36.037H27.7275C29.0584 36.037 30.1372 34.9585 30.1372 33.6281V28.0363C30.1372 26.7059 29.0584 25.6274 27.7275 25.6274Z" fill="#2B333B"/>
<path d="M13.2461 32.0426V33.1331H12.1162V32.0426H13.2461Z" fill="white"/>
<path d="M16.5517 33.1331L15.6019 31.7292L14.7842 33.1331H13.5343L14.9762 30.8112L13.4893 28.6228H14.7842L15.71 29.9817L16.5082 28.6228H17.7521L16.3297 30.8937L17.8482 33.1331H16.5517Z" fill="white"/>
<path d="M21.3286 32.5211C21.1992 32.7282 21.0134 32.8942 20.7929 32.9996C20.5247 33.1252 20.2308 33.1863 19.9347 33.1781C19.488 33.1968 19.0478 33.0664 18.6833 32.8076C18.5221 32.6866 18.3902 32.5309 18.2974 32.352C18.2047 32.1731 18.1535 31.9756 18.1476 31.7741H19.309C19.3173 31.9261 19.382 32.0694 19.4905 32.1761C19.5986 32.2768 19.742 32.3307 19.8897 32.3261C19.9498 32.3296 20.0101 32.3213 20.067 32.3014C20.1239 32.2816 20.1763 32.2507 20.2213 32.2106C20.2613 32.1718 20.2928 32.1251 20.3137 32.0734C20.3346 32.0218 20.3445 31.9663 20.3428 31.9106C20.3443 31.8578 20.3351 31.8051 20.3158 31.7559C20.2964 31.7067 20.2673 31.6619 20.2303 31.6242C20.1508 31.5438 20.0566 31.4796 19.9527 31.4352C19.8437 31.3872 19.6906 31.3286 19.4935 31.2596C19.2544 31.1808 19.0208 31.0862 18.7943 30.9762C18.6082 30.8803 18.4485 30.7402 18.3292 30.5682C18.1907 30.3599 18.1224 30.113 18.1341 29.8632C18.1287 29.6157 18.2 29.3726 18.3382 29.1672C18.4801 28.9665 18.6764 28.8105 18.9039 28.7173C19.1661 28.6106 19.4476 28.5596 19.7306 28.5673C20.1603 28.5436 20.5848 28.6704 20.931 28.9258C21.0784 29.0456 21.1991 29.1949 21.2854 29.3641C21.3717 29.5332 21.4217 29.7186 21.4322 29.9082H20.2513C20.2381 29.7755 20.1811 29.6509 20.0892 29.5542C20.0423 29.5093 19.9867 29.4744 19.9258 29.4517C19.8649 29.429 19.8 29.419 19.7351 29.4222C19.6226 29.4171 19.5121 29.4534 19.4245 29.5242C19.3841 29.5625 19.3527 29.6093 19.3324 29.6611C19.3122 29.713 19.3037 29.7687 19.3075 29.8242C19.3052 29.9251 19.3429 30.0227 19.4125 30.0957C19.4872 30.1736 19.5771 30.2354 19.6766 30.2772C19.7831 30.3237 19.9362 30.3837 20.1358 30.4557C20.3792 30.535 20.6164 30.6322 20.8455 30.7467C21.0326 30.8476 21.1938 30.9903 21.3166 31.1637C21.4566 31.3752 21.526 31.6257 21.5147 31.8791C21.5127 32.1061 21.4483 32.3282 21.3286 32.5211Z" fill="white"/>
<path d="M23.2095 32.2977H24.6709V33.1331H22.1201V28.6228H23.2125L23.2095 32.2977Z" fill="white"/>
<path d="M17.9664 22.6621H6.96489C6.01208 22.6621 5.23633 21.7141 5.23633 20.5472V12.569C5.23633 11.4035 6.01208 10.4556 6.96489 10.4556H17.9709C18.9222 10.4556 19.698 11.4035 19.698 12.569V20.5472C19.6935 21.7141 18.9177 22.6621 17.9664 22.6621ZM6.96489 11.5355C6.49824 11.5355 6.12013 11.999 6.12013 12.569V20.5472C6.12013 21.1171 6.49824 21.5806 6.96489 21.5806H17.9709C18.4361 21.5806 18.8142 21.1171 18.8142 20.5472V12.569C18.8142 11.999 18.4361 11.5355 17.9709 11.5355H6.96489Z" fill="#2B333B"/>
<path d="M19.2517 17.8578H5.67383V18.9392H19.2517V17.8578Z" fill="#2B333B"/>
<path d="M19.2517 14.1499H5.67383V15.2314H19.2517V14.1499Z" fill="#2B333B"/>
<path d="M15.7742 10.9956H14.6924V22.1206H15.7742V10.9956Z" fill="#2B333B"/>
<path d="M10.2332 10.9956H9.15137V22.1206H10.2332V10.9956Z" fill="#2B333B"/>
</svg>
