<svg width="31" height="37" viewBox="0 0 31 37" fill="none" xmlns="http://www.w3.org/2000/svg">
<g opacity="0.5">
<path opacity="0.5" d="M21.0246 7.4243C20.2041 7.42311 19.4176 7.09667 18.8376 6.51658C18.2576 5.93648 17.9314 5.1501 17.9306 4.32993V0.0371094H4.10518C3.03429 0.0371094 2.00726 0.462358 1.25003 1.21932C0.492795 1.97628 0.0673828 3.00294 0.0673828 4.07345V28.4054C0.0689731 29.4749 0.495083 30.5 1.25214 31.2557C2.00921 32.0113 3.03532 32.4358 4.10518 32.4358H20.702C21.7719 32.4358 22.798 32.0113 23.555 31.2557C24.3121 30.5 24.7382 29.4749 24.7398 28.4054V7.4243H21.0246Z" fill="#29333D"/>
</g>
<path d="M24.7389 7.4243H21.0237C20.2032 7.42311 19.4167 7.09667 18.8367 6.51658C18.2567 5.93648 17.9305 5.15011 17.9297 4.32993V0.0371094L24.7389 7.4243Z" fill="#29333D"/>
<path d="M27.6679 25.6276H8.90587C7.57499 25.6276 6.49609 26.7061 6.49609 28.0365V33.6282C6.49609 34.9586 7.57499 36.0371 8.90587 36.0371H27.6679C28.9988 36.0371 30.0777 34.9586 30.0777 33.6282V28.0365C30.0777 26.7061 28.9988 25.6276 27.6679 25.6276Z" fill="#29333D"/>
<path d="M13.9248 32.0427V33.1332H12.7949V32.0427H13.9248Z" fill="white"/>
<path d="M15.6206 32.2528H17.6117V33.1332H14.4082V32.3038L16.3678 29.4974H14.4337V28.6229H17.5997V29.4524L15.6206 32.2528Z" fill="white"/>
<path d="M19.3735 28.6229V33.1332H18.2871V28.6229H19.3735Z" fill="white"/>
<path d="M21.2178 31.5508V33.1332H20.127V28.6229H21.8885C22.4242 28.6229 22.8338 28.7549 23.1144 29.0219C23.2565 29.1611 23.3675 29.3287 23.4401 29.5138C23.5128 29.6989 23.5455 29.8973 23.536 30.0959C23.5408 30.3582 23.4755 30.6171 23.347 30.8458C23.216 31.0695 23.0218 31.2496 22.7888 31.3633C22.5076 31.4955 22.1992 31.5597 21.8885 31.5508H21.2178ZM22.4302 30.0959C22.4302 29.7009 22.2111 29.5009 21.773 29.4959H21.2178V30.6688H21.773C22.2111 30.6738 22.4302 30.4829 22.4302 30.0959Z" fill="white"/>
<path d="M12.4016 22.9141C11.897 22.9133 11.4133 22.7125 11.0566 22.3557C10.7 21.9988 10.4994 21.5151 10.499 21.0107V19.1073H14.3057V21.0107C14.3053 21.5154 14.1046 21.9993 13.7476 22.3562C13.3906 22.7131 12.9065 22.9137 12.4016 22.9141ZM11.4728 20.0808V21.0107C11.4728 21.2571 11.5706 21.4934 11.7448 21.6678C11.9189 21.8421 12.1552 21.9403 12.4016 21.9407C12.6482 21.9403 12.8846 21.8422 13.059 21.6679C13.2334 21.4936 13.3315 21.2572 13.3319 21.0107V20.0808H11.4728Z" fill="#29333D"/>
<path d="M10.4967 19.1089H12.4053V17.201H10.4967V19.1089Z" fill="#29333D"/>
<path d="M12.401 17.2024H14.3096V15.2945H12.401V17.2024Z" fill="#29333D"/>
<path d="M10.4967 15.296H12.4053V13.3881H10.4967V15.296Z" fill="#29333D"/>
<path d="M12.401 13.3895H14.3096V11.4816H12.401V13.3895Z" fill="#29333D"/>
</svg>
