<?xml version="1.0" encoding="utf-8"?>
<!-- Generator: Adobe Illustrator 24.0.1, SVG Export Plug-In . SVG Version: 6.00 Build 0)  -->
<svg version="1.1" id="Layer_1" xmlns="http://www.w3.org/2000/svg" xmlns:xlink="http://www.w3.org/1999/xlink" x="0px" y="0px"
	 viewBox="0 0 720 720" style="enable-background:new 0 0 720 720;" xml:space="preserve">
<style type="text/css">
	.st0{opacity:0.2;fill:#C9C7C8;}
	.st1{fill:#C9C7C8;}
	.st2{fill:#BDDEFF;}
	.st3{stroke:#000000;stroke-miterlimit:10;}
	.st4{fill:#A0D19B;stroke:#000000;stroke-miterlimit:10;}
	.st5{fill:none;stroke:#000000;stroke-width:0.5;stroke-miterlimit:10;stroke-dasharray:4;}
	.st6{fill:none;stroke:#000000;stroke-miterlimit:10;}
	.st7{fill:none;stroke:#000000;stroke-width:0.5;stroke-miterlimit:10;}
	.st8{fill:none;stroke:#000000;stroke-width:0.5;stroke-miterlimit:10;stroke-dasharray:4.0075,4.0075;}
	.st9{fill:#FFFFFF;stroke:#000000;stroke-miterlimit:10;}
	.st10{fill:#FFFFFF;}
	.st11{fill:#F4F4F4;}
	.st12{fill:#EBB000;}
	.st13{fill:#F6DE94;}
	.st14{fill:#EEBD2B;}
	.st15{fill:#F9E8B5;}
	.st16{fill:#EEB52F;}
	.st17{fill:#939393;}
	.st18{fill:#A0D19B;}
	.st19{fill:#D6D6D6;}
	.st20{font-family:'MyriadPro-Regular';}
	.st21{font-size:21.0138px;}
	.st22{fill:#EBB000;stroke:#000000;stroke-miterlimit:10;}
	.st23{fill:#F6DE94;stroke:#000000;stroke-miterlimit:10;}
	.st24{fill:#EEBD2B;stroke:#000000;stroke-miterlimit:10;}
	.st25{fill:#F9E8B5;stroke:#000000;stroke-miterlimit:10;}
	.st26{fill:none;stroke:#EEB52F;stroke-miterlimit:10;}
	.st27{fill:#939393;stroke:#000000;stroke-miterlimit:10;}
	.st28{fill:none;stroke:#000000;stroke-width:0.5;stroke-miterlimit:10;stroke-dasharray:4.0227,4.0227;}
	.st29{fill:#F5F5F5;stroke:#000000;stroke-miterlimit:10;}
	.st30{fill:#375A64;stroke:#000000;stroke-miterlimit:10;}
	.st31{fill:#5D7982;stroke:#000000;stroke-miterlimit:10;}
	.st32{fill:#EEB52F;stroke:#000000;stroke-miterlimit:10;}
	.st33{opacity:0.6;stroke:#000000;stroke-miterlimit:10;}
	.st34{opacity:0.3;stroke:#000000;stroke-miterlimit:10;}
	.st35{fill:#FAFAFA;stroke:#000000;stroke-miterlimit:10;}
	.st36{opacity:0.5;fill:#FFFFFF;stroke:#000000;stroke-miterlimit:10;}
	.st37{fill:none;stroke:#424242;stroke-miterlimit:10;stroke-dasharray:9;}
	
		.st38{fill:none;stroke:#000000;stroke-width:7;stroke-linecap:round;stroke-linejoin:round;stroke-miterlimit:10;stroke-dasharray:14;}
	.st39{fill:#FF0000;stroke:#000000;stroke-miterlimit:10;}
	.st40{fill:#DE191B;stroke:#000000;stroke-miterlimit:10;}
	.st41{fill:#CF3F0C;stroke:#000000;stroke-miterlimit:10;}
	.st42{fill:#D6A218;stroke:#000000;stroke-miterlimit:10;}
	.st43{fill:#E9DA1D;stroke:#000000;stroke-miterlimit:10;}
	.st44{fill:#B8CB1A;stroke:#000000;stroke-miterlimit:10;}
	.st45{fill:#7FB915;stroke:#000000;stroke-miterlimit:10;}
	.st46{fill:#0D8C09;stroke:#000000;stroke-miterlimit:10;}
	.st47{fill:none;stroke:#000000;stroke-width:0.5;stroke-miterlimit:10;stroke-dasharray:3.96,3.96;}
	.st48{fill:#B2B2B2;stroke:#000000;stroke-miterlimit:10;}
	.st49{fill:#F0F0F0;stroke:#000000;stroke-miterlimit:10;}
	.st50{fill:#C3C3C3;stroke:#000000;stroke-miterlimit:10;}
	.st51{fill:#CECECE;stroke:#000000;stroke-miterlimit:10;}
	.st52{fill:#F7F7F7;stroke:#000000;stroke-miterlimit:10;}
	.st53{fill:#F3F3F3;stroke:#000000;stroke-miterlimit:10;}
	.st54{fill:#DCDCDC;stroke:#000000;stroke-miterlimit:10;}
	.st55{opacity:0.5;stroke:#000000;stroke-miterlimit:10;}
	.st56{fill:#D9D9D9;stroke:#000000;stroke-miterlimit:10;}
	.st57{fill:#CCCCCC;stroke:#000000;stroke-miterlimit:10;}
	.st58{fill:#0E0E0E;stroke:#000000;stroke-miterlimit:10;}
	.st59{fill:#C1C1C1;stroke:#000000;stroke-miterlimit:10;}
	.st60{fill:#D0D0D0;stroke:#000000;stroke-miterlimit:10;}
	.st61{fill:#B6B6B6;stroke:#000000;stroke-miterlimit:10;}
	.st62{fill:#EFEFEF;stroke:#000000;stroke-miterlimit:10;}
	.st63{fill:#BBBBBB;stroke:#000000;stroke-miterlimit:10;}
	.st64{fill:#AAAAAA;stroke:#000000;stroke-miterlimit:10;}
	.st65{fill:#999999;stroke:#000000;stroke-miterlimit:10;}
</style>
<g>
	<path class="st11" d="M512.44,424.72c-19.53,0-34.95-15.32-35.06-34.84c-0.11-19.73,15.57-35.64,35.09-35.64c0.01,0,0.03,0,0.04,0
		c19.23,0.02,35.02,15.76,35.22,35.1c0.2,19.62-15.48,35.36-35.26,35.38C512.46,424.72,512.45,424.72,512.44,424.72 M505.81,317.13
		c-6.11,0-6.61,1.65-9.26,15.35c-0.65,3.38-5.88,6.42-9.87,6.42c-1.13,0-2.17-0.25-2.97-0.8c-7.07-4.88-10.6-7.02-13.24-7.02
		c-3.52,0-5.45,3.82-12.03,10.06c-5.6,5.3-5.66,7.03-1.51,13.56c0.94,1.48,1.97,2.91,2.94,4.38c4.06,6.14,0.79,13.58-6.57,14.94
		c-13.19,2.44-13.19,2.44-13.19,15.51c0,1.37-0.01,2.74,0,4.11c0.01,8.12,0.82,9.09,8.99,10.71c1.15,0.23,2.31,0.4,3.45,0.65
		c8.83,1.93,11.55,8.86,6.46,16.45c-0.98,1.46-1.96,2.92-2.92,4.4c-2.71,4.15-2.87,7.85,1.33,11.34c3,2.5,5.71,5.37,8.33,8.28
		c1.57,1.74,3.22,2.58,4.97,2.58c1.25,0,2.55-0.42,3.92-1.25c2.84-1.71,5.48-3.85,8.48-5.19c1.18-0.53,2.61-0.75,4.02-0.75
		c0.76,0,1.51,0.06,2.22,0.18c5.29,0.88,7.27,4.39,8.18,9.63c1.96,11.27,2.3,11.37,12.81,11.37c0.15,0,0.31,0,0.46,0
		c14.59,0,14.59,0,17.42-14.39c0.85-4.3,5.17-7.13,9.48-7.13c1.68,0,3.36,0.43,4.84,1.37c3.58,2.3,7.25,4.47,11.79,7.26
		c2.94-2.52,5.77-4.69,8.29-7.17c10.25-10.14,10.28-10.22,2.23-22.12c-1.78-2.64-1.82-4.65-0.99-7.86c1.61-6.23,6.1-6.69,10.91-7.57
		c9.72-1.77,10.04-2.22,10.03-12.08c0-2.94-0.26-5.9,0.06-8.81c0.51-4.64-1.78-6.91-5.9-7.95c-1.89-0.48-3.8-0.88-5.71-1.29
		c-9.82-2.11-12.58-8.59-7.15-16.78c6.7-10.11,6.7-10.11-1.74-18.56c-5.16-5.16-7.59-7.61-10.45-7.61c-2.53,0-5.39,1.92-10.76,5.58
		c-1.76,1.2-3.25,1.72-5.01,1.72c-1,0-2.09-0.17-3.36-0.49c-6.77-1.69-6.59-6.8-7.61-11.57c-1.75-8.16-2.3-9.38-9.32-9.38
		c-0.68,0-1.42,0.01-2.23,0.03c-0.73,0.02-1.43,0.02-2.1,0.02c-1.65,0-3.1-0.04-4.38-0.08
		C507.89,317.17,506.78,317.13,505.81,317.13"/>
	<path class="st11" d="M628.84,439.3c-11.9,0-21.31-9.34-21.37-21.24c-0.07-12.02,9.49-21.73,21.39-21.73c0.01,0,0.02,0,0.03,0
		c11.72,0.01,21.35,9.61,21.47,21.39c0.12,11.96-9.44,21.56-21.49,21.57C628.86,439.3,628.85,439.3,628.84,439.3 M624.81,373.71
		c-3.72,0-4.03,1.01-5.64,9.36c-0.4,2.06-3.59,3.91-6.02,3.91c-0.69,0-1.32-0.15-1.81-0.49c-4.31-2.97-6.46-4.28-8.07-4.28
		c-2.15,0-3.32,2.33-7.34,6.13c-3.41,3.23-3.45,4.28-0.92,8.26c0.58,0.9,1.2,1.78,1.79,2.67c2.48,3.74,0.48,8.28-4,9.11
		c-8.04,1.49-8.04,1.49-8.04,9.46c0,0.84,0,1.67,0,2.51c0.01,4.95,0.5,5.54,5.48,6.53c0.7,0.14,1.41,0.24,2.11,0.39
		c5.38,1.18,7.04,5.4,3.94,10.03c-0.6,0.89-1.2,1.78-1.78,2.68c-1.65,2.53-1.75,4.78,0.81,6.92c1.83,1.52,3.48,3.27,5.08,5.05
		c0.96,1.06,1.96,1.57,3.03,1.57c0.76,0,1.56-0.26,2.39-0.76c1.73-1.04,3.34-2.34,5.17-3.16c0.72-0.32,1.59-0.46,2.45-0.46
		c0.46,0,0.92,0.04,1.35,0.11c3.22,0.54,4.43,2.67,4.99,5.87c1.19,6.86,1.4,6.93,7.77,6.93c0.1,0,0.21,0,0.32,0
		c8.89,0,8.89,0,10.62-8.77c0.52-2.62,3.15-4.35,5.78-4.35c1.03,0,2.05,0.26,2.95,0.84c2.18,1.4,4.42,2.72,7.19,4.43
		c1.79-1.54,3.52-2.86,5.05-4.37c6.25-6.18,6.27-6.23,1.36-13.48c-1.09-1.61-1.11-2.83-0.6-4.79c0.98-3.8,3.72-4.08,6.65-4.62
		c5.93-1.08,6.12-1.36,6.12-7.36c0-1.79-0.16-3.6,0.03-5.37c0.31-2.83-1.09-4.21-3.59-4.85c-1.15-0.29-2.32-0.54-3.48-0.79
		c-5.98-1.28-7.67-5.24-4.36-10.23c4.09-6.16,4.09-6.16-1.06-11.31c-3.14-3.15-4.63-4.64-6.37-4.64c-1.54,0-3.29,1.17-6.56,3.4
		c-1.07,0.73-1.98,1.05-3.05,1.05c-0.61,0-1.27-0.1-2.05-0.3c-4.12-1.03-4.02-4.14-4.64-7.05c-1.07-4.97-1.4-5.72-5.68-5.72
		c-0.41,0-0.87,0.01-1.36,0.02c-0.45,0.01-0.87,0.01-1.28,0.01c-1.01,0-1.89-0.03-2.67-0.05
		C626.07,373.73,625.4,373.71,624.81,373.71"/>
	<path class="st11" d="M673.3,364.13c-11.9,0-21.31-9.34-21.37-21.24c-0.07-12.02,9.49-21.73,21.39-21.73c0.01,0,0.02,0,0.03,0
		c11.72,0.01,21.35,9.61,21.47,21.39c0.12,11.96-9.44,21.56-21.49,21.57C673.31,364.13,673.3,364.13,673.3,364.13 M669.26,298.54
		c-3.72,0-4.03,1.01-5.64,9.36c-0.4,2.06-3.59,3.91-6.02,3.91c-0.69,0-1.32-0.15-1.81-0.49c-4.31-2.97-6.46-4.28-8.07-4.28
		c-2.15,0-3.32,2.33-7.34,6.13c-3.41,3.23-3.45,4.28-0.92,8.26c0.58,0.91,1.2,1.78,1.79,2.67c2.48,3.74,0.48,8.28-4,9.11
		c-8.04,1.49-8.04,1.49-8.04,9.46c0,0.84,0,1.67,0,2.51c0.01,4.95,0.5,5.54,5.48,6.53c0.7,0.14,1.41,0.24,2.11,0.39
		c5.38,1.18,7.04,5.4,3.94,10.03c-0.6,0.89-1.2,1.78-1.78,2.68c-1.65,2.53-1.75,4.78,0.81,6.92c1.83,1.52,3.48,3.27,5.08,5.05
		c0.96,1.06,1.96,1.57,3.03,1.57c0.76,0,1.56-0.26,2.39-0.76c1.73-1.04,3.34-2.34,5.17-3.16c0.72-0.32,1.59-0.46,2.45-0.46
		c0.46,0,0.92,0.04,1.35,0.11c3.23,0.54,4.43,2.67,4.99,5.87c1.19,6.86,1.4,6.93,7.77,6.93c0.1,0,0.21,0,0.32,0
		c8.89,0,8.89,0,10.62-8.77c0.52-2.62,3.15-4.35,5.78-4.35c1.03,0,2.05,0.26,2.95,0.84c2.18,1.4,4.42,2.72,7.19,4.43
		c1.79-1.54,3.52-2.86,5.05-4.37c6.25-6.18,6.27-6.23,1.36-13.48c-1.09-1.61-1.11-2.83-0.6-4.79c0.98-3.8,3.72-4.08,6.65-4.62
		c5.93-1.08,6.12-1.35,6.12-7.36c0-1.79-0.16-3.6,0.03-5.37c0.31-2.83-1.09-4.21-3.59-4.85c-1.15-0.29-2.32-0.54-3.48-0.79
		c-5.98-1.28-7.67-5.24-4.36-10.23c4.09-6.16,4.09-6.16-1.06-11.31c-3.14-3.15-4.63-4.64-6.37-4.64c-1.54,0-3.29,1.17-6.56,3.4
		c-1.07,0.73-1.98,1.05-3.05,1.05c-0.61,0-1.27-0.1-2.05-0.3c-4.12-1.03-4.02-4.14-4.64-7.05c-1.07-4.97-1.4-5.72-5.68-5.72
		c-0.41,0-0.87,0.01-1.36,0.02c-0.45,0.01-0.87,0.01-1.28,0.01c-1.01,0-1.89-0.03-2.67-0.05
		C670.52,298.57,669.85,298.54,669.26,298.54"/>
	<path class="st11" d="M256.23,351.18c-19.53,0-34.95-15.32-35.06-34.84c-0.11-19.73,15.56-35.64,35.09-35.64c0.01,0,0.03,0,0.04,0
		c19.23,0.02,35.02,15.76,35.22,35.1c0.2,19.62-15.48,35.36-35.26,35.38C256.26,351.18,256.25,351.18,256.23,351.18 M249.61,243.58
		c-6.11,0-6.61,1.65-9.26,15.35c-0.65,3.38-5.88,6.42-9.87,6.42c-1.13,0-2.17-0.25-2.97-0.8c-7.07-4.88-10.6-7.02-13.24-7.02
		c-3.52,0-5.45,3.82-12.04,10.06c-5.6,5.3-5.66,7.03-1.51,13.56c0.94,1.49,1.97,2.91,2.94,4.38c4.07,6.14,0.79,13.58-6.57,14.94
		c-13.18,2.44-13.18,2.44-13.19,15.51c0,1.37-0.01,2.74,0,4.11c0.01,8.12,0.82,9.09,8.99,10.71c1.15,0.23,2.31,0.4,3.45,0.65
		c8.83,1.93,11.55,8.86,6.46,16.45c-0.98,1.46-1.96,2.92-2.92,4.4c-2.71,4.15-2.87,7.85,1.33,11.34c3,2.5,5.71,5.37,8.33,8.28
		c1.57,1.74,3.22,2.58,4.97,2.58c1.25,0,2.55-0.42,3.92-1.25c2.84-1.71,5.48-3.85,8.48-5.19c1.18-0.53,2.61-0.75,4.02-0.75
		c0.76,0,1.51,0.06,2.22,0.18c5.29,0.88,7.27,4.39,8.18,9.63c1.96,11.27,2.3,11.37,12.81,11.37c0.15,0,0.31,0,0.46,0
		c14.59,0,14.59,0,17.42-14.39c0.85-4.3,5.16-7.13,9.47-7.13c1.68,0,3.36,0.43,4.84,1.37c3.58,2.3,7.25,4.47,11.79,7.26
		c2.94-2.52,5.77-4.69,8.28-7.17c10.25-10.14,10.28-10.22,2.23-22.12c-1.78-2.64-1.82-4.65-0.99-7.86c1.61-6.23,6.1-6.7,10.91-7.57
		c9.72-1.77,10.04-2.22,10.03-12.08c0-2.94-0.26-5.9,0.06-8.81c0.51-4.64-1.78-6.91-5.9-7.95c-1.89-0.48-3.8-0.88-5.71-1.29
		c-9.82-2.11-12.58-8.59-7.15-16.78c6.7-10.11,6.7-10.11-1.74-18.56c-5.16-5.16-7.59-7.61-10.45-7.61c-2.53,0-5.39,1.92-10.76,5.58
		c-1.76,1.2-3.25,1.72-5.01,1.72c-1,0-2.09-0.17-3.36-0.49c-6.77-1.69-6.59-6.8-7.61-11.57c-1.75-8.16-2.3-9.38-9.32-9.38
		c-0.68,0-1.42,0.01-2.23,0.03c-0.73,0.02-1.43,0.02-2.1,0.02c-1.65,0-3.1-0.04-4.38-0.08
		C251.68,243.62,250.58,243.58,249.61,243.58"/>
	<rect x="533.41" y="347.03" class="st12" width="3.03" height="107.42"/>
	<polygon points="536.44,454.45 536.44,454.05 533.81,454.05 533.81,347.43 536.03,347.43 536.03,454.45 536.44,454.45 
		536.44,454.05 536.44,454.45 536.84,454.45 536.84,346.63 533,346.63 533,454.86 536.84,454.86 536.84,454.45 	"/>
	<rect x="692.45" y="347.03" class="st12" width="3.03" height="107.42"/>
	<polygon points="695.49,454.45 695.49,454.05 692.86,454.05 692.86,347.43 695.08,347.43 695.08,454.45 695.49,454.45 
		695.49,454.05 695.49,454.45 695.89,454.45 695.89,346.63 692.05,346.63 692.05,454.86 695.89,454.86 695.89,454.45 	"/>
	<path class="st12" d="M541.27,330.73v8.05c0,5.87,4.76,10.64,10.64,10.64h8c5.87,0,10.64-4.76,10.64-10.64v-8.05H541.27z"/>
	<path d="M541.27,330.73h-0.4v8.05c0,6.1,4.94,11.04,11.04,11.04h8c6.1,0,11.04-4.94,11.04-11.04v-8.46h-30.08v0.4H541.27v0.4h28.87
		v7.65c0,2.83-1.14,5.38-3,7.24c-1.85,1.85-4.41,3-7.24,3h-8c-2.83,0-5.38-1.14-7.24-3c-1.85-1.85-3-4.41-3-7.24v-8.05H541.27v0.4
		V330.73z"/>
	<path class="st13" d="M511.99,330.73v8.05c0,5.87,4.76,10.64,10.64,10.64h8c5.87,0,10.64-4.76,10.64-10.64v-8.05H511.99z"/>
	<path d="M511.99,330.73h-0.4v8.05c0,6.1,4.94,11.04,11.04,11.04h8c6.1,0,11.04-4.94,11.04-11.04v-8.46h-30.08v0.4H511.99v0.4h28.87
		l0,7.65c0,2.83-1.14,5.38-3,7.24c-1.85,1.85-4.41,3-7.24,3h-8c-2.83,0-5.38-1.14-7.24-3c-1.85-1.85-3-4.41-3-7.24v-8.05H511.99v0.4
		V330.73z"/>
	<path class="st13" d="M570.54,330.73v8.05c0,5.87,4.76,10.64,10.64,10.64h8c5.87,0,10.64-4.76,10.64-10.64v-8.05H570.54z"/>
	<path d="M570.54,330.73h-0.4v8.05c0,6.1,4.94,11.04,11.04,11.04h8c6.1,0,11.04-4.94,11.04-11.04v-8.46h-30.08v0.4H570.54v0.4h28.87
		v7.65c0,2.83-1.14,5.38-3,7.24c-1.85,1.85-4.41,3-7.24,3h-8c-2.83,0-5.38-1.14-7.24-3c-1.85-1.85-3-4.41-3-7.24v-8.05H570.54v0.4
		V330.73z"/>
	<path class="st12" d="M658.35,330.73v8.05c0,5.87,4.76,10.64,10.64,10.64h8c5.87,0,10.64-4.76,10.64-10.64v-8.05H658.35z"/>
	<path d="M658.35,330.73h-0.4v8.05c0,6.1,4.94,11.04,11.04,11.04h8c6.1,0,11.04-4.94,11.04-11.04v-8.46h-30.08v0.4H658.35v0.4h28.87
		v7.65c0,2.83-1.14,5.38-3,7.24c-1.85,1.85-4.41,3-7.24,3h-8c-2.83,0-5.38-1.14-7.24-3c-1.85-1.85-3-4.41-3-7.24v-8.05H658.35v0.4
		V330.73z"/>
	<path class="st13" d="M698.26,349.42h8c5.87,0,10.64-4.76,10.64-10.64v-8.05h-29.27v8.05
		C687.63,344.65,692.39,349.42,698.26,349.42z"/>
	<path d="M698.26,349.42v0.4h8c6.1,0,11.04-4.94,11.04-11.04v-8.46h-30.08v8.46c0,6.1,4.94,11.04,11.04,11.04V349.42v-0.4
		c-2.83,0-5.38-1.14-7.24-3c-1.85-1.85-3-4.41-3-7.24v-7.65h28.46v7.65c0,2.83-1.14,5.38-3,7.24c-1.85,1.85-4.41,3-7.24,3h-8V349.42
		z"/>
	<path class="st12" d="M599.81,330.73v8.05c0,5.87,4.76,10.64,10.64,10.64h8c5.87,0,10.64-4.76,10.64-10.64v-8.05H599.81z"/>
	<path d="M599.81,330.73h-0.4v8.05c0,6.1,4.94,11.04,11.04,11.04h8c6.1,0,11.04-4.94,11.04-11.04v-8.46h-30.08v0.4H599.81v0.4h28.87
		l0,7.65c0,2.83-1.14,5.38-3,7.24c-1.85,1.85-4.41,3-7.24,3h-8c-2.83,0-5.38-1.14-7.24-3c-1.85-1.85-3-4.41-3-7.24v-8.05H599.81v0.4
		V330.73z"/>
	<path class="st13" d="M629.08,330.73v8.05c0,5.87,4.76,10.64,10.64,10.64h8c5.87,0,10.64-4.76,10.64-10.64v-8.05H629.08z"/>
	<path d="M629.08,330.73h-0.4v8.05c0,6.1,4.94,11.04,11.04,11.04h8c6.1,0,11.04-4.94,11.04-11.04v-8.46h-30.08v0.4H629.08v0.4h28.87
		l0,7.65c0,2.83-1.14,5.38-3,7.24c-1.85,1.85-4.41,3-7.24,3h-8c-2.83,0-5.38-1.14-7.24-3c-1.85-1.85-3-4.41-3-7.24v-8.05H629.08v0.4
		V330.73z"/>
	<polyline class="st14" points="570.54,330.73 585.87,298.92 566.82,298.92 541.27,330.73 	"/>
	<polygon points="570.9,330.9 586.51,298.51 566.62,298.51 540.95,330.47 541.58,330.98 567.01,299.32 585.23,299.32 570.17,330.55 
		570.9,330.9 	"/>
	<polyline class="st15" points="541.27,330.73 566.82,298.92 547.77,298.92 511.99,330.73 	"/>
	<polygon points="541.58,330.98 567.66,298.51 547.61,298.51 511.72,330.43 512.26,331.03 547.92,299.32 565.98,299.32 
		540.95,330.47 541.58,330.98 	"/>
	<polyline class="st15" points="599.81,330.73 604.92,298.92 585.87,298.92 570.54,330.73 	"/>
	<polygon points="600.21,330.79 605.39,298.51 585.62,298.51 570.17,330.55 570.9,330.9 586.12,299.32 604.45,299.32 599.41,330.66 
		600.21,330.79 	"/>
	<polyline class="st14" points="687.63,330.73 662.07,298.92 643.02,298.92 658.35,330.73 	"/>
	<polygon points="687.94,330.47 662.27,298.51 642.38,298.51 657.99,330.9 658.72,330.55 643.67,299.32 661.88,299.32 
		687.31,330.98 687.94,330.47 	"/>
	<polyline class="st15" points="716.9,330.73 681.12,298.92 662.07,298.92 687.63,330.73 	"/>
	<polygon points="717.17,330.43 681.28,298.51 661.23,298.51 687.31,330.98 687.94,330.47 662.92,299.32 680.97,299.32 
		716.63,331.03 717.17,330.43 	"/>
	<polyline class="st14" points="629.08,330.73 623.97,298.92 604.92,298.92 599.81,330.73 	"/>
	<polygon points="629.48,330.66 624.32,298.51 604.58,298.51 599.41,330.66 600.21,330.79 605.26,299.32 623.63,299.32 
		628.68,330.79 629.48,330.66 	"/>
	<polyline class="st15" points="658.35,330.73 643.02,298.92 623.97,298.92 629.08,330.73 	"/>
	<polygon points="658.72,330.55 643.28,298.51 623.5,298.51 628.68,330.79 629.48,330.66 624.44,299.32 642.77,299.32 657.99,330.9 
		658.72,330.55 	"/>
	<rect x="585.22" y="290.97" class="st12" width="58.45" height="30.62"/>
	<polygon points="643.67,321.58 643.67,321.18 585.63,321.18 585.63,291.37 643.27,291.37 643.27,321.58 643.67,321.58 
		643.67,321.18 643.67,321.58 644.07,321.58 644.07,290.56 584.82,290.56 584.82,321.99 644.07,321.99 644.07,321.58 	"/>
	<g>
		<path class="st10" d="M595.77,302.14l2.67,7.55l2.66-7.55h2.82v10.41h-2.15v-2.84l0.21-4.91l-2.81,7.76h-1.47l-2.8-7.75l0.21,4.9
			v2.84h-2.14v-10.41H595.77z"/>
		<path class="st10" d="M610.13,312.54c-0.1-0.19-0.17-0.42-0.21-0.69c-0.5,0.56-1.15,0.84-1.95,0.84c-0.76,0-1.39-0.22-1.88-0.66
			c-0.5-0.44-0.75-0.99-0.75-1.66c0-0.82,0.3-1.45,0.91-1.89s1.49-0.66,2.63-0.66h0.95v-0.44c0-0.36-0.09-0.64-0.28-0.86
			c-0.18-0.21-0.47-0.32-0.87-0.32c-0.35,0-0.62,0.08-0.82,0.25c-0.2,0.17-0.3,0.4-0.3,0.69h-2.07c0-0.45,0.14-0.86,0.42-1.24
			c0.28-0.38,0.67-0.68,1.17-0.9s1.07-0.33,1.7-0.33c0.95,0,1.71,0.24,2.27,0.72c0.56,0.48,0.84,1.15,0.84,2.02v3.35
			c0,0.73,0.11,1.29,0.31,1.67v0.12H610.13z M608.42,311.11c0.31,0,0.59-0.07,0.84-0.2c0.26-0.14,0.45-0.32,0.57-0.55v-1.33h-0.77
			c-1.03,0-1.58,0.36-1.65,1.07l-0.01,0.12c0,0.26,0.09,0.47,0.27,0.64C607.86,311.02,608.11,311.11,608.42,311.11z"/>
		<path class="st10" d="M617.85,306.75c-0.28-0.04-0.53-0.06-0.74-0.06c-0.78,0-1.29,0.26-1.54,0.79v5.06h-2.07v-7.73h1.95
			l0.06,0.92c0.42-0.71,0.99-1.06,1.72-1.06c0.23,0,0.44,0.03,0.64,0.09L617.85,306.75z"/>
		<path class="st10" d="M621.65,309.44l-0.74,0.74v2.36h-2.07v-10.98h2.07v6.08l0.4-0.51l1.98-2.32h2.48l-2.79,3.22l3.04,4.51h-2.37
			L621.65,309.44z"/>
		<path class="st10" d="M630.09,312.69c-1.13,0-2.06-0.35-2.77-1.04c-0.71-0.7-1.07-1.62-1.07-2.78v-0.2c0-0.78,0.15-1.47,0.45-2.08
			c0.3-0.61,0.73-1.08,1.28-1.42c0.55-0.33,1.18-0.5,1.88-0.5c1.06,0,1.89,0.33,2.5,1c0.61,0.67,0.91,1.61,0.91,2.84v0.84h-4.92
			c0.07,0.51,0.27,0.91,0.6,1.22c0.34,0.31,0.76,0.46,1.28,0.46c0.79,0,1.42-0.29,1.87-0.86l1.01,1.14
			c-0.31,0.44-0.73,0.78-1.26,1.03C631.32,312.56,630.73,312.69,630.09,312.69z M629.85,306.33c-0.41,0-0.74,0.14-1,0.42
			s-0.42,0.67-0.49,1.19h2.87v-0.17c-0.01-0.46-0.13-0.81-0.37-1.07S630.29,306.33,629.85,306.33z"/>
		<path class="st10" d="M636.91,302.91v1.9h1.32v1.52h-1.32v3.86c0,0.29,0.05,0.49,0.16,0.61s0.32,0.19,0.63,0.19
			c0.23,0,0.43-0.02,0.61-0.05v1.57c-0.41,0.12-0.82,0.19-1.25,0.19c-1.45,0-2.19-0.73-2.22-2.19v-4.17h-1.13v-1.52h1.13v-1.9
			H636.91z"/>
	</g>
	<rect x="511.99" y="453.33" class="st14" width="204.91" height="77.01"/>
	<polygon points="716.9,530.33 716.9,529.93 512.4,529.93 512.4,453.73 716.49,453.73 716.49,530.33 716.9,530.33 716.9,529.93 
		716.9,530.33 717.3,530.33 717.3,452.92 511.59,452.92 511.59,530.74 717.3,530.74 717.3,530.33 	"/>
	<path class="st11" d="M104.31,316.57c-9.72,0-17.41-7.63-17.46-17.35c-0.05-9.82,7.75-17.75,17.48-17.75c0.01,0,0.01,0,0.02,0
		c9.58,0.01,17.44,7.85,17.54,17.48c0.1,9.77-7.71,17.61-17.56,17.62C104.32,316.57,104.32,316.57,104.31,316.57 M101.01,262.98
		c-3.04,0-3.29,0.82-4.61,7.65c-0.33,1.69-2.93,3.2-4.92,3.2c-0.56,0-1.08-0.12-1.48-0.4c-3.52-2.43-5.28-3.5-6.59-3.5
		c-1.75,0-2.71,1.9-5.99,5.01c-2.79,2.64-2.82,3.5-0.75,6.75c0.47,0.74,0.98,1.45,1.47,2.18c2.02,3.06,0.39,6.76-3.27,7.44
		c-6.57,1.22-6.57,1.22-6.57,7.73c0,0.68,0,1.37,0,2.05c0.01,4.05,0.41,4.53,4.48,5.34c0.57,0.11,1.15,0.2,1.72,0.32
		c4.4,0.96,5.75,4.42,3.22,8.19c-0.49,0.73-0.98,1.46-1.46,2.19c-1.35,2.06-1.43,3.91,0.66,5.65c1.49,1.24,2.84,2.68,4.15,4.12
		c0.78,0.87,1.6,1.28,2.48,1.28c0.62,0,1.27-0.21,1.95-0.62c1.42-0.85,2.73-1.92,4.22-2.58c0.59-0.26,1.3-0.37,2-0.37
		c0.38,0,0.75,0.03,1.1,0.09c2.63,0.44,3.62,2.19,4.07,4.8c0.98,5.62,1.15,5.67,6.39,5.67c0.07,0,0.15,0,0.22,0
		c7.27,0,7.27,0,8.68-7.17c0.42-2.14,2.57-3.55,4.72-3.55c0.84,0,1.68,0.21,2.41,0.68c1.78,1.14,3.61,2.22,5.87,3.62
		c1.46-1.26,2.87-2.33,4.13-3.57c5.1-5.05,5.12-5.09,1.11-11.02c-0.89-1.31-0.91-2.31-0.49-3.91c0.8-3.1,3.04-3.33,5.44-3.77
		c4.84-0.88,5-1.11,5-6.02c0-1.46-0.13-2.94,0.03-4.39c0.26-2.31-0.89-3.44-2.94-3.96c-0.94-0.24-1.89-0.44-2.84-0.64
		c-4.89-1.05-6.26-4.28-3.56-8.36c3.34-5.03,3.34-5.03-0.86-9.24c-2.57-2.57-3.78-3.79-5.2-3.79c-1.26,0-2.68,0.96-5.36,2.78
		c-0.87,0.6-1.62,0.86-2.49,0.86c-0.5,0-1.04-0.09-1.67-0.24c-3.37-0.84-3.28-3.39-3.79-5.76c-0.87-4.06-1.15-4.67-4.64-4.67
		c-0.34,0-0.71,0.01-1.11,0.01c-0.37,0.01-0.71,0.01-1.05,0.01c-0.82,0-1.55-0.02-2.18-0.04C102.05,263,101.5,262.98,101.01,262.98"
		/>
	<path class="st11" d="M145.53,250.17c-11.9,0-21.31-9.34-21.37-21.24c-0.07-12.02,9.49-21.73,21.39-21.73c0.01,0,0.02,0,0.03,0
		c11.72,0.01,21.35,9.61,21.47,21.39c0.12,11.96-9.44,21.56-21.49,21.57C145.54,250.17,145.53,250.17,145.53,250.17 M141.49,184.58
		c-3.72,0-4.03,1.01-5.64,9.36c-0.4,2.06-3.59,3.91-6.02,3.91c-0.69,0-1.32-0.15-1.81-0.49c-4.31-2.97-6.46-4.28-8.07-4.28
		c-2.15,0-3.32,2.33-7.34,6.13c-3.41,3.23-3.45,4.28-0.92,8.26c0.58,0.91,1.2,1.78,1.8,2.67c2.48,3.74,0.48,8.28-4,9.11
		c-8.04,1.49-8.04,1.49-8.04,9.46c0,0.84,0,1.67,0,2.51c0.01,4.95,0.5,5.54,5.48,6.53c0.7,0.14,1.41,0.24,2.11,0.39
		c5.38,1.18,7.04,5.4,3.94,10.03c-0.6,0.89-1.2,1.78-1.78,2.68c-1.65,2.53-1.75,4.78,0.81,6.91c1.83,1.52,3.48,3.28,5.08,5.05
		c0.96,1.06,1.96,1.57,3.03,1.57c0.76,0,1.56-0.26,2.39-0.76c1.73-1.04,3.34-2.34,5.17-3.16c0.72-0.32,1.59-0.46,2.45-0.46
		c0.46,0,0.92,0.04,1.35,0.11c3.22,0.54,4.43,2.67,4.99,5.87c1.19,6.85,1.4,6.93,7.76,6.93c0.11,0,0.22,0,0.34,0
		c8.89,0,8.89,0,10.62-8.77c0.52-2.62,3.15-4.35,5.78-4.35c1.03,0,2.05,0.26,2.95,0.84c2.18,1.4,4.42,2.72,7.19,4.43
		c1.79-1.54,3.52-2.86,5.05-4.37c6.25-6.18,6.27-6.23,1.36-13.48c-1.09-1.61-1.11-2.83-0.6-4.79c0.98-3.8,3.72-4.08,6.65-4.62
		c5.93-1.08,6.12-1.35,6.12-7.36c0-1.79-0.16-3.6,0.03-5.37c0.31-2.83-1.09-4.21-3.59-4.85c-1.15-0.29-2.32-0.54-3.48-0.79
		c-5.98-1.28-7.67-5.24-4.36-10.23c4.09-6.16,4.09-6.16-1.06-11.31c-3.14-3.15-4.63-4.64-6.37-4.64c-1.54,0-3.29,1.17-6.56,3.4
		c-1.07,0.73-1.98,1.05-3.05,1.05c-0.61,0-1.27-0.1-2.05-0.3c-4.12-1.03-4.02-4.14-4.64-7.05c-1.07-4.97-1.4-5.72-5.68-5.72
		c-0.41,0-0.87,0.01-1.36,0.02c-0.45,0.01-0.87,0.01-1.28,0.01c-1.01,0-1.89-0.03-2.67-0.05
		C142.75,184.61,142.08,184.58,141.49,184.58"/>
	<path class="st16" d="M76.32,339v-5.92c0,0,0-1.69-2.54-5.08c-2.54-3.38-5.5-6.34-5.92-10.15c-0.42-3.81,1.69-14.38,12.69-14.38
		c11,0,13.11,10.57,12.69,14.38c-0.42,3.81-3.38,6.77-5.92,10.15c-2.54,3.38-2.54,5.08-2.54,5.08V339"/>
	<rect x="74.84" y="339" width="11.42" height="8.04"/>
	<path class="st10" d="M74.8,340.05l11.42,1.79c0.12,0.02,0.22-0.06,0.24-0.18c0.02-0.12-0.06-0.22-0.18-0.24l-11.42-1.79
		c-0.12-0.02-0.22,0.06-0.24,0.18C74.61,339.93,74.69,340.04,74.8,340.05"/>
	<path class="st10" d="M74.8,341.6l11.42,1.79c0.12,0.02,0.22-0.06,0.24-0.18c0.02-0.12-0.06-0.22-0.18-0.24l-11.42-1.79
		c-0.12-0.02-0.22,0.06-0.24,0.18C74.61,341.48,74.69,341.59,74.8,341.6"/>
	<path class="st10" d="M74.8,343.16l11.42,1.79c0.12,0.02,0.22-0.06,0.24-0.18c0.02-0.12-0.06-0.22-0.18-0.24l-11.42-1.79
		c-0.12-0.02-0.22,0.06-0.24,0.18C74.61,343.03,74.69,343.14,74.8,343.16"/>
	<path class="st10" d="M74.8,344.71l11.42,1.79c0.12,0.02,0.22-0.06,0.24-0.18c0.02-0.12-0.06-0.22-0.18-0.24l-11.42-1.79
		c-0.12-0.02-0.22,0.06-0.24,0.18C74.61,344.58,74.69,344.69,74.8,344.71"/>
	<polyline class="st16" points="94.72,324.33 104.44,330.25 104.86,329.56 95.14,323.64 	"/>
	<polyline class="st16" points="96.21,315.51 107.63,315.08 107.6,314.28 96.18,314.7 	"/>
	<polyline class="st16" points="92.59,306.15 100.63,301.5 100.22,300.8 92.19,305.45 	"/>
	<polyline class="st16" points="88.07,300.95 93.57,292.92 92.9,292.46 87.4,300.49 	"/>
	<polyline class="st16" points="80.53,299.03 80.53,288.03 79.72,288.03 79.72,299.03 	"/>
	<polyline class="st16" points="73.62,300.84 64.74,293.23 64.21,293.84 73.09,301.45 	"/>
	<polyline class="st16" points="67.2,308.4 55.36,302.06 54.98,302.77 66.82,309.11 	"/>
	<polyline class="st16" points="64.43,315.97 51.75,317.24 51.83,318.04 64.51,316.77 	"/>
	<polyline class="st16" points="65.98,322.35 54.99,327.85 55.35,328.58 66.35,323.08 	"/>
	<rect x="67.95" y="477.56" class="st17" width="431.59" height="51.73"/>
	<path d="M499.14,477.97v50.92H68.35v-50.92H499.14 M499.95,477.16H67.55v52.53h432.4V477.16z"/>
	<path class="st17" d="M310.01,529.68c97.38-0.44,176.19-79.51,176.19-176.99c0-97.75-79.25-177-177-177s-177,79.25-177,177
		c0,48.53,19.54,92.49,51.17,124.47 M305.88,476.31c-66.76-1.76-120.33-56.43-120.33-123.61c0-68.29,55.36-123.66,123.66-123.66
		c68.29,0,123.66,55.36,123.66,123.66c0,68.29-55.36,123.66-123.66,123.66"/>
	<path d="M310.01,530.09c97.6-0.44,176.59-79.69,176.6-177.39c0-97.98-79.43-177.4-177.41-177.41
		c-97.98,0-177.4,79.43-177.41,177.41c0,48.64,19.58,92.7,51.28,124.75l0.57-0.57c-31.56-31.9-51.05-75.76-51.05-124.18
		c0-48.77,19.77-92.91,51.72-124.87c31.96-31.96,76.11-51.72,124.87-51.72c48.77,0,92.91,19.77,124.87,51.72
		c31.96,31.96,51.72,76.11,51.72,124.87c0,97.26-78.63,176.15-175.79,176.59L310.01,530.09L310.01,530.09z M305.89,475.9
		c-66.54-1.76-119.94-56.25-119.94-123.21c0-34.04,13.8-64.85,36.1-87.15c22.31-22.31,53.12-36.1,87.15-36.1
		c34.04,0,64.85,13.8,87.15,36.1c22.31,22.31,36.1,53.12,36.1,87.15c0,34.04-13.8,64.85-36.1,87.15
		c-22.31,22.31-53.12,36.1-87.15,36.1v0.81c68.52,0,124.06-55.54,124.06-124.06c0-68.52-55.54-124.06-124.06-124.06
		c-68.52,0-124.06,55.54-124.06,124.06c0,67.4,53.75,122.25,120.72,124.02L305.89,475.9L305.89,475.9z"/>
	<polyline class="st17" points="310.01,476.35 67.55,476.35 67.55,529.69 310.01,529.69 	"/>
	<polygon points="310.01,475.95 67.14,475.95 67.14,530.1 310.01,530.1 310.01,529.29 67.95,529.29 67.95,476.75 310.01,476.75 
		310.01,475.95 	"/>
	<path class="st18" d="M107.96,493.73c0,0-31.52,0.81-63.04,0c-24.24-0.62-37.18-21.01-23.44-34.75c13.74-13.74,42.03,0,42.03,0
		l16.16,5.66l31.52,1.62l13.74,7.27l21.82,16.97"/>
	<path d="M107.95,493.32c0,0-0.87,0.02-2.48,0.06c-4.81,0.1-16.19,0.3-30.2,0.3c-9.34,0-19.84-0.09-30.34-0.36
		c-8.64-0.22-15.82-2.98-20.82-7.03c-5-4.05-7.83-9.39-7.83-14.78c0-4.2,1.7-8.46,5.49-12.25c4.48-4.48,10.55-5.99,16.72-5.99
		c6.16,0,12.38,1.51,17.06,3.03c2.34,0.76,4.29,1.52,5.65,2.09c0.68,0.28,1.22,0.52,1.58,0.69c0.36,0.17,0.55,0.26,0.55,0.26
		l0.02,0.01l16.24,5.68l31.49,1.61l13.63,7.22l21.79,16.95l0.5-0.64l-21.85-16.99l-13.85-7.33l-31.55-1.62l-16.11-5.64l-0.13,0.38
		l0.18-0.36c-0.03-0.01-12.62-6.14-25.2-6.15c-6.29,0-12.61,1.54-17.29,6.23c-3.91,3.91-5.72,8.39-5.72,12.82
		c0,5.69,2.97,11.24,8.13,15.41c5.16,4.18,12.5,6.99,21.31,7.21c10.51,0.27,21.02,0.36,30.36,0.36c18.68,0,32.7-0.36,32.7-0.36
		L107.95,493.32L107.95,493.32z"/>
	<path d="M98.73,486.71l15.68-9.75c0,0,6.57,5.54,7.91,14.33c0,0,8.9,10.09,11.71,28.46c0,0-4.43,3.13-9.03-0.25
		c-4.61-3.38-12.21-21.03-17.37-22.69c-5.16-1.66-4.43,0.66-4.43,0.66"/>
	<path class="st18" d="M98.26,484.84c-24.25-5.66-37.18-16.16-37.18-16.16"/>
	<path d="M98.35,484.44c-12.08-2.82-21.35-6.85-27.58-10.17c-3.12-1.66-5.48-3.14-7.06-4.21c-0.79-0.53-1.39-0.96-1.78-1.26
		c-0.2-0.15-0.35-0.26-0.44-0.34c-0.1-0.08-0.14-0.11-0.14-0.11l-0.51,0.63c0.03,0.03,13.02,10.57,37.34,16.24L98.35,484.44
		L98.35,484.44z"/>
	<path d="M42.11,481.56l-14.15-11.87c0,0-7.29,4.55-9.85,13.07c0,0-10.23,8.73-15.61,26.52c0,0,3.94,3.72,8.98,1.02
		c5.04-2.7,15.05-19.09,20.4-20.01c5.34-0.92,4.29,1.27,4.29,1.27"/>
	<path class="st18" d="M127.35,484.03c-20.21,4.85-88.9-8.08-88.9-8.08c-8.89,8.08-7.27,25.05-7.27,25.05
		c25.86,11.32,62.23,12.93,77.59,12.12s66.27-2.42,57.38-27.48c-8.89-25.05-42.28-16.43-42.28-16.43l-0.56-1.35l-25.05-2.42H79.67"
		/>
	<path d="M127.26,483.64c-3.13,0.75-7.51,1.08-12.64,1.08c-13.68,0-32.72-2.29-48.32-4.58c-7.8-1.15-14.75-2.29-19.74-3.15
		c-2.5-0.43-4.51-0.79-5.89-1.04c-1.38-0.25-2.14-0.39-2.14-0.39l-0.2-0.04l-0.15,0.14c-3.34,3.04-5.21,7.28-6.26,11.4
		c-1.04,4.13-1.26,8.16-1.26,10.82c0,1.94,0.12,3.16,0.12,3.17l0.02,0.24l0.22,0.1c22.39,9.79,52.51,12.33,70.27,12.33
		c2.84,0,5.37-0.07,7.5-0.18h0c7.07-0.37,21.69-0.91,34.58-3.85c6.45-1.47,12.46-3.53,16.9-6.5c2.22-1.49,4.05-3.2,5.32-5.19
		c1.28-1.99,2-4.26,1.99-6.81c0-1.76-0.34-3.64-1.06-5.67c-2.66-7.52-7.54-12.08-13.05-14.73c-5.51-2.65-11.63-3.41-16.89-3.41
		c-7.23,0-12.81,1.44-12.83,1.45l0.1,0.39l0.37-0.15l-0.65-1.58l-25.32-2.45H79.67v0.81l18.57,0l24.79,2.4l0.6,1.45l0.34-0.09
		c0,0,0.08-0.02,0.24-0.06c1.14-0.27,6.15-1.36,12.38-1.36c5.17,0,11.19,0.75,16.53,3.33c5.35,2.58,10.03,6.95,12.63,14.27
		c0.69,1.95,1.01,3.75,1.01,5.4c0,2.4-0.67,4.5-1.87,6.37c-2.1,3.28-5.87,5.86-10.56,7.86c-7.04,3.01-16.13,4.72-24.61,5.73
		c-8.48,1.01-16.35,1.33-21,1.58h0c-2.11,0.11-4.63,0.18-7.46,0.18c-17.68,0-47.75-2.55-69.95-12.27L31.18,501l0.4-0.04
		c0,0-0.01-0.07-0.02-0.21c-0.03-0.42-0.1-1.45-0.1-2.88c0-2.62,0.22-6.59,1.24-10.62c1.02-4.03,2.84-8.12,6.02-11l-0.27-0.3
		l-0.07,0.4c0.01,0,48.72,9.17,76.24,9.18c5.16,0,9.59-0.32,12.83-1.1L127.26,483.64L127.26,483.64z"/>
	<path d="M71.19,373.24l-0.4-0.03c0,0.01-0.05,0.6-0.05,1.51c0,1.5,0.12,3.88,0.79,6.09c0.33,1.1,0.8,2.17,1.48,3.05
		c0.67,0.88,1.56,1.59,2.7,1.94c0.67,0.21,1.28,0.3,1.85,0.3c1.07,0,1.96-0.35,2.65-0.86c1.04-0.77,1.65-1.89,2.01-2.81
		c0.36-0.92,0.48-1.65,0.48-1.66l-0.4-0.06l0.38,0.15c0-0.01,0.41-1.05,0.83-2.35c0.41-1.31,0.83-2.85,0.84-3.94
		c0-0.32-0.03-0.62-0.15-0.88c-0.06-0.13-0.14-0.26-0.26-0.36c-0.12-0.1-0.27-0.17-0.43-0.2c-0.16-0.03-0.31-0.04-0.46-0.04
		c-0.42,0-0.77,0.11-1.04,0.28c-0.41,0.26-0.61,0.64-0.71,0.94c-0.1,0.3-0.11,0.53-0.11,0.55l0.4,0.02l0.4,0.01l0.09-6.06
		l-6.14-0.97l-5.12,5.21l-0.01,0.15L71.19,373.24l0.29,0.28l4.73-4.81l5.04,0.79l-0.08,5.36l0.81,0.02l0,0
		c0-0.04,0.04-0.33,0.18-0.56c0.07-0.12,0.16-0.22,0.3-0.3c0.13-0.08,0.31-0.14,0.57-0.14c0.1,0,0.21,0.01,0.33,0.03l0.03,0.01
		c0.01,0.01,0.05,0.05,0.08,0.16c0.03,0.11,0.05,0.27,0.05,0.46c0,0.9-0.39,2.43-0.8,3.7c-0.2,0.64-0.4,1.21-0.56,1.63
		c-0.15,0.42-0.25,0.67-0.25,0.67l-0.02,0.04l-0.01,0.04l-0.01,0.05c-0.04,0.25-0.3,1.44-0.96,2.54c-0.33,0.55-0.76,1.07-1.31,1.44
		c-0.55,0.38-1.21,0.62-2.06,0.62c-0.47,0-1.01-0.08-1.61-0.26c-0.95-0.29-1.7-0.88-2.29-1.66c-0.89-1.17-1.43-2.79-1.73-4.39
		c-0.3-1.6-0.37-3.18-0.37-4.27c0-0.45,0.01-0.81,0.02-1.06c0.01-0.25,0.02-0.39,0.02-0.39L71.19,373.24l0.29,0.28L71.19,373.24z"/>
	<path d="M78.08,371.05c0,0-4.75,4.16-7.14,3.78s-5.09-4.07-4.46-8.07s3.4-6.01,3.4-6.01s1.09,3.44,2.69,3.7
		c1.6,0.25,6.76-1.39,10.25,2.43c2,2.19,1.66,4.8,1.05,6.3c-0.46,1.13-0.8-0.13-0.8-0.13l-0.92,0.67l-0.59,1.13
		C81.57,374.87,78.5,373.57,78.08,371.05z"/>
	<path d="M75.42,385.36l-1.65,10.47l0.03,0.09c0.01,0.04,0.17,0.52,0.66,1.06c0.49,0.54,1.32,1.12,2.6,1.32
		c0.13,0.02,0.26,0.03,0.39,0.03c0.74,0,1.58-0.27,2.47-0.74c2.65-1.42,5.75-4.69,6.42-8.87l0.02-0.1l-3.15-9.4l-0.77,0.26
		l3.12,9.31l0.38-0.13l-0.4-0.06c-0.4,2.56-1.84,4.81-3.49,6.41c-0.82,0.8-1.7,1.44-2.51,1.87c-0.81,0.43-1.56,0.65-2.09,0.65
		c-0.1,0-0.19-0.01-0.27-0.02c-1.11-0.18-1.75-0.65-2.13-1.06c-0.19-0.21-0.32-0.41-0.39-0.55l-0.08-0.16l-0.02-0.04l0-0.01
		l-0.13,0.04l0.13-0.04l0,0l-0.13,0.04l0.13-0.04l-0.39,0.12l0.4,0.06l1.63-10.38L75.42,385.36L75.42,385.36z"/>
	<path class="st10" d="M84.73,386.01c0,0,6.89-2.19,11.68-1.43c4.79,0.75,9.58,1.51,9.58,1.51s16.99,27.22,17.88,52.72
		c0.89,25.5,1.81,29.86,1.81,29.86s-3.65,7.61-33.87,2.03c-30.21-5.58-28.79-9.44-28.79-9.44s3.16,6.11,6.85-12.13
		c3.69-18.24-5.02-56.43-5.02-56.43s5.43-3.87,10.53-4.8C75.38,387.9,74.61,398.32,84.73,386.01z"/>
	<path d="M84.73,386.01l0.12,0.39c0,0,0.07-0.02,0.22-0.07c1-0.3,5.31-1.51,9.12-1.51c0.75,0,1.48,0.05,2.16,0.15
		c4.79,0.75,9.58,1.51,9.58,1.51l0.06-0.4l-0.34,0.21c0,0,0.06,0.1,0.19,0.31c1.86,3.05,16.81,28.46,17.63,52.22
		c0.89,25.52,1.81,29.87,1.82,29.93l0.4-0.08l-0.36-0.17l0.22,0.1l-0.21-0.11l0,0l0.22,0.1l-0.21-0.11l-0.02,0.04
		c-0.12,0.19-0.77,1.14-2.88,2.04c-2.11,0.91-5.67,1.77-11.58,1.77c-4.69,0-10.86-0.54-18.95-2.04
		c-13.79-2.54-20.96-4.73-24.66-6.34c-1.85-0.8-2.82-1.46-3.31-1.92c-0.49-0.46-0.49-0.69-0.49-0.7l-0.16,0l0.15,0.06l0.01-0.06
		h-0.16l0.15,0.06l-0.38-0.14l-0.36,0.19c0.01,0.02,0.15,0.29,0.43,0.58c0.27,0.28,0.7,0.61,1.29,0.62c0.44,0,0.91-0.2,1.36-0.62
		c0.68-0.64,1.38-1.79,2.14-3.8c0.76-2.02,1.56-4.9,2.39-9.01c0.65-3.23,0.92-7.04,0.92-11.16c0-19.41-5.94-45.43-5.94-45.44
		l-0.39,0.09l0.23,0.33c0,0,0.08-0.06,0.24-0.16c1.08-0.74,5.79-3.79,10.13-4.57l-0.07-0.4l-0.4-0.03c0,0.01-0.01,0.2-0.01,0.51
		c0,0.57,0.05,1.51,0.34,2.36c0.15,0.43,0.37,0.84,0.7,1.16c0.33,0.32,0.8,0.53,1.35,0.53c0.82,0,1.79-0.42,3.03-1.38
		c1.24-0.96,2.76-2.48,4.65-4.78L84.73,386.01l0.12,0.39L84.73,386.01l-0.31-0.26c-1.87,2.27-3.35,3.76-4.52,4.66
		c-1.17,0.91-2,1.21-2.53,1.21c-0.35,0-0.58-0.11-0.79-0.31c-0.31-0.29-0.53-0.82-0.65-1.39c-0.12-0.57-0.15-1.16-0.15-1.55
		c0-0.14,0-0.25,0.01-0.33c0-0.08,0.01-0.12,0.01-0.12l0.04-0.52l-0.51,0.09c-5.23,0.96-10.67,4.85-10.69,4.87l-0.22,0.16l0.06,0.26
		c0,0,0.09,0.4,0.25,1.15c1.13,5.23,5.67,27.25,5.67,44.11c0,4.08-0.27,7.85-0.9,11c-1.1,5.44-2.16,8.7-3.07,10.55
		c-0.46,0.93-0.88,1.5-1.23,1.83c-0.35,0.33-0.61,0.4-0.81,0.4c-0.26,0-0.51-0.16-0.7-0.37c-0.1-0.1-0.17-0.21-0.22-0.28l-0.06-0.09
		l-0.01-0.02l0,0l-0.1,0.05l0.1-0.05l0,0l-0.1,0.05l0.1-0.05l-0.42-0.81l-0.32,0.86c-0.01,0.04-0.04,0.12-0.04,0.23
		c0,0.29,0.15,0.74,0.75,1.29c0.89,0.83,2.8,1.97,7.08,3.41c4.28,1.43,10.93,3.14,21.3,5.06c8.12,1.5,14.34,2.05,19.09,2.05
		c6.49,0,10.26-1.02,12.43-2.08c2.17-1.05,2.74-2.15,2.78-2.23l0.06-0.12l-0.03-0.13l-0.01-0.04c-0.1-0.53-0.96-5.84-1.79-29.74
		c-0.45-12.84-4.94-26.05-9.31-36.07c-4.37-10.02-8.63-16.84-8.63-16.85l-0.1-0.16l-0.18-0.03c0,0-4.79-0.75-9.58-1.51
		c-0.73-0.12-1.5-0.16-2.28-0.16c-4.54,0-9.56,1.61-9.58,1.61l-0.11,0.04l-0.08,0.09L84.73,386.01z"/>
	<path d="M108.65,415.96c0,0,11.51,11.81,15.3,25.82c0,0,0.81-10.19-3.84-24.02C120.1,417.76,112.34,413.27,108.65,415.96z"/>
	<path class="st10" d="M64.86,392.7c0,0-26.81,29.1-21.96,51.73c2.06,9.61,17.78,21.01,17.78,21.01l8.08-2.42
		c0,0,0.81-3.23,4.04-10.51c0,0-14.55-4.85-11.32-16.16c3.38-11.84,7.9-17.59,7.9-17.59"/>
	<path d="M64.56,392.42c-0.01,0.01-5.66,6.14-11.32,14.98c-5.65,8.84-11.33,20.38-11.34,31.28c0,1.97,0.19,3.92,0.6,5.83
		c0.54,2.49,1.93,5.04,3.72,7.49c5.35,7.34,14.21,13.75,14.22,13.76l0.16,0.12l8.49-2.55l0.06-0.22c0,0,0.01-0.04,0.04-0.14
		c0.19-0.7,1.16-3.95,3.98-10.3l0.18-0.41l-0.42-0.14c0,0-0.04-0.01-0.12-0.04c-0.62-0.22-3.51-1.32-6.2-3.4
		c-1.35-1.03-2.65-2.31-3.61-3.83c-0.96-1.52-1.58-3.28-1.58-5.31c0-0.96,0.14-1.99,0.45-3.09c1.68-5.89,3.65-10.26,5.19-13.15
		c0.77-1.45,1.43-2.52,1.91-3.24c0.24-0.36,0.42-0.62,0.55-0.8c0.06-0.09,0.11-0.15,0.14-0.2l0.05-0.06l-0.64-0.5
		c-0.03,0.03-4.58,5.83-7.97,17.72c-0.33,1.17-0.48,2.27-0.48,3.31c0,2.35,0.77,4.37,1.91,6.06c1.71,2.54,4.25,4.35,6.35,5.53
		c2.1,1.19,3.78,1.74,3.8,1.75l0.13-0.38l-0.37-0.16c-3.24,7.29-4.06,10.55-4.06,10.57l0.39,0.1l-0.12-0.39l-8.08,2.42l0.12,0.39
		l0.24-0.33c0,0-0.24-0.17-0.67-0.5c-1.51-1.15-5.32-4.16-8.97-7.93c-3.65-3.76-7.12-8.28-7.98-12.34c-0.4-1.85-0.58-3.74-0.58-5.66
		c-0.01-10.62,5.59-22.07,11.21-30.84c2.81-4.39,5.62-8.11,7.73-10.73c1.05-1.31,1.93-2.35,2.54-3.05c0.31-0.35,0.55-0.63,0.71-0.81
		c0.16-0.18,0.25-0.28,0.25-0.28L64.56,392.42L64.56,392.42z"/>
	<path d="M75.73,387.9c0.23,0.63,0.42,1.22,0.68,1.75c0.24,0.52,0.53,1.01,0.82,1.19c0.14,0.1,0.23,0.11,0.33,0.09
		c0.09-0.01,0.21-0.02,0.39-0.09c0.34-0.12,0.79-0.36,1.23-0.65c0.89-0.6,1.81-1.35,2.77-2.07c0.97-0.73,1.95-1.48,3.14-2.1
		c-0.4,1.27-1.01,2.39-1.77,3.43c-0.76,1.03-1.65,1.99-2.8,2.77c-0.59,0.37-1.25,0.73-2.11,0.88c-0.42,0.07-0.94,0.07-1.44-0.12
		c-0.51-0.16-0.94-0.54-1.18-0.92c-0.51-0.78-0.55-1.53-0.53-2.21C75.3,389.16,75.43,388.51,75.73,387.9z"/>
	<path class="st10" d="M121.18,466.65c0,0-15.09-1.26-18.4,2.81c-3.31,4.07-3.31,8.91-3.31,8.91v1.62l11.46-0.4
		c0.14-3.64,1.28-3.64,3.09-3.64c2.42,0,4.04,0.81,6.47,0.81c2.42,0,3.79-1.13,3.79-1.13"/>
	<path d="M121.21,466.25c-0.01,0-2.22-0.19-5.15-0.19c-2.37,0-5.19,0.12-7.71,0.56c-1.26,0.22-2.44,0.52-3.45,0.93
		c-1.01,0.41-1.86,0.94-2.44,1.65c-3.4,4.2-3.39,9.13-3.4,9.17v2.04l12.25-0.43l0.01-0.37c0.03-0.89,0.13-1.54,0.27-2
		c0.11-0.35,0.23-0.58,0.37-0.75c0.2-0.24,0.43-0.36,0.77-0.43c0.34-0.07,0.77-0.07,1.28-0.07c1.17,0,2.14,0.19,3.15,0.4
		c1.01,0.2,2.05,0.41,3.31,0.41c2.55,0,4-1.18,4.05-1.22l-0.51-0.62l0.02,0.03l-0.02-0.03l0,0l0.02,0.03l-0.02-0.03
		c-0.04,0.03-1.31,1.04-3.53,1.03c-1.17,0-2.14-0.19-3.15-0.4c-1.01-0.2-2.05-0.41-3.31-0.41c-0.45,0-0.88,0-1.29,0.06
		c-0.31,0.05-0.61,0.14-0.88,0.3c-0.42,0.25-0.74,0.67-0.95,1.26c-0.21,0.59-0.33,1.36-0.37,2.41l0.4,0.02l-0.01-0.4l-11.04,0.39
		l0-1.2l0-0.05c0.01-0.5,0.21-4.92,3.22-8.61c0.45-0.55,1.18-1.03,2.12-1.41c2.81-1.16,7.35-1.44,10.85-1.43
		c1.45,0,2.72,0.05,3.63,0.09c0.46,0.02,0.82,0.05,1.07,0.06s0.38,0.03,0.38,0.03L121.21,466.25L121.21,466.25z"/>
	<path d="M109.98,469.08c-0.02,0-1.27,0-2.64,0.42c-0.69,0.21-1.42,0.53-2.04,1.03c-0.62,0.5-1.14,1.18-1.36,2.09
		c-0.73,2.91-0.85,4.9-0.85,5.89c0,0.46,0.03,0.71,0.03,0.72l0.8-0.09l0-0.03c-0.01-0.07-0.02-0.28-0.02-0.6
		c0-0.92,0.11-2.85,0.82-5.69c0.18-0.71,0.57-1.24,1.09-1.65c0.77-0.62,1.82-0.95,2.68-1.11c0.43-0.08,0.81-0.12,1.08-0.14
		c0.14-0.01,0.24-0.02,0.32-0.02c0.07,0,0.11,0,0.11,0V469.08L109.98,469.08z"/>
	<path d="M111.5,471.51c-0.02,0.01-0.86,0.21-1.82,0.75c-0.95,0.53-2.05,1.39-2.51,2.75c-0.83,2.5-0.83,4.95-0.83,4.98h0.81l0-0.1
		c0.01-0.47,0.1-2.57,0.79-4.62c0.35-1.07,1.27-1.82,2.14-2.3c0.43-0.24,0.84-0.41,1.14-0.52c0.15-0.05,0.27-0.09,0.36-0.12
		l0.09-0.03l0.03-0.01L111.5,471.51L111.5,471.51z"/>
	<path d="M114.81,466.07c-0.02,0-3.47-0.89-6.47-0.9c-1.32,0.01-2.56,0.16-3.44,0.73c-2.54,1.68-2.61,3.47-2.6,3.57h0.81h-0.02
		l0.02,0l0,0h-0.02l0.02,0c0.01-0.08,0.08-1.44,2.24-2.9c0.61-0.42,1.74-0.6,2.99-0.6c1.42,0,2.99,0.22,4.21,0.44
		c0.61,0.11,1.12,0.22,1.49,0.3c0.36,0.08,0.57,0.14,0.57,0.14L114.81,466.07L114.81,466.07z"/>
	<rect x="52.59" y="479.18" class="st17" width="67.08" height="1.62"/>
	<path d="M119.27,479.58v0.81H53v-0.81H119.27 M120.08,478.78H52.19v2.42h67.89V478.78z"/>
	<polygon class="st19" points="52.03,480.8 43.48,446.04 96.8,446.04 105.35,480.8 	"/>
	<path d="M96.48,446.45l8.35,33.95H52.35L44,446.45H96.48 M97.12,445.64H42.97l8.75,35.56h54.15L97.12,445.64z"/>
	<path class="st10" d="M127.05,475.98c-2.18,0-5.15-0.69-6.98-3.97c-2.77-4.98-1.43-9.32-1.19-10c1.78-1.43,22.91-18.57,22.56-28.7
		c-0.07-2.01-0.97-3.62-2.68-4.8c-16.92-11.67-28.46-12.85-29.94-12.95c-0.95-0.93-8.21-8.33-6.84-17.02
		c1.26-7.99,3.51-11.22,4.13-11.98c3.2,1.21,34.93,13.38,48.61,26.35c8.1,7.68,11.76,15.7,10.86,23.83
		c-2.03,18.38-26.97,33.35-36.43,39.01C128.93,475.8,128.12,475.98,127.05,475.98L127.05,475.98z"/>
	<path d="M106.24,387.04c4.42,1.68,34.9,13.55,48.19,26.16c8.01,7.59,11.62,15.5,10.74,23.5c-2,18.15-26.73,33.01-36.19,38.68
		c-0.26,0.06-0.99,0.2-1.94,0.2c-2.07,0-4.9-0.65-6.62-3.76c-2.6-4.68-1.51-8.66-1.2-9.56c2.31-1.86,22.97-18.78,22.62-28.96
		c-0.07-2.14-1.03-3.86-2.86-5.12c-16.72-11.53-27.94-12.86-29.99-13.01c-1.26-1.25-7.91-8.32-6.61-16.56
		C103.52,391.34,105.49,388.08,106.24,387.04 M105.99,386.08c0,0-2.9,2.82-4.41,12.4c-1.51,9.58,7.07,17.48,7.07,17.48
		s11.72,0.36,29.88,12.89c11.46,7.9-19.99,32.93-19.99,32.93s-1.96,4.79,1.18,10.44c1.95,3.51,5.17,4.17,7.33,4.17
		c1.32,0,2.25-0.25,2.25-0.25c15.84-9.48,56.25-34.54,25.7-63.52C140.43,398.8,105.99,386.08,105.99,386.08z"/>
	<path class="st10" d="M205.35,417.75c0,0,2.42-12.12,7.27-20.21c0,0,14.55-8.89,51.73-6.47l-11.32,22.63c0,0-12.93-3.23-26.67-1.62
		C219.5,412.9,205.35,417.75,205.35,417.75z"/>
	<path d="M205.35,417.75l0.4,0.08c0,0,0.04-0.19,0.11-0.53c0.52-2.41,2.92-12.56,7.11-19.55l-0.35-0.21l0.21,0.34l0.03-0.02
		c0.62-0.37,11.97-6.81,39.07-6.81c3.81,0,7.94,0.13,12.39,0.42l0.03-0.4l-0.36-0.18l-11.32,22.63l0.36,0.18l0.1-0.39
		c-0.02,0-8.32-2.08-18.72-2.08c-2.6,0-5.33,0.13-8.1,0.46c-3.48,0.41-8.74,1.83-13.15,3.15c-4.4,1.32-7.95,2.53-7.95,2.53
		L205.35,417.75l0.4,0.08L205.35,417.75l0.13,0.38c0,0,0.88-0.3,2.31-0.77c4.29-1.4,13.55-4.28,18.62-4.87
		c2.73-0.32,5.43-0.45,8-0.45c5.15,0,9.78,0.51,13.13,1.03c1.67,0.26,3.02,0.51,3.96,0.71c0.47,0.1,0.83,0.18,1.07,0.23
		c0.24,0.06,0.37,0.09,0.37,0.09l0.31,0.08l11.73-23.46l-0.61-0.04c-4.47-0.29-8.61-0.42-12.45-0.42c-28.11,0-39.45,6.9-39.52,6.94
		l-0.08,0.05l-0.05,0.09c-4.9,8.18-7.32,20.31-7.32,20.33l-0.14,0.69l0.67-0.23L205.35,417.75z"/>
	<path class="st10" d="M248.11,390.66c0,0,2.5-24.64-3.16-32.72c0,0-32.33-8.89-54.96,16.16c0,0,6.47,13.74,8.08,22.63
		C198.07,396.74,224.75,374.11,248.11,390.66z"/>
	<path d="M248.11,390.66l0.4,0.04c0-0.01,0.55-5.43,0.55-12.04c0-3.74-0.18-7.87-0.73-11.61c-0.56-3.74-1.49-7.1-3.05-9.34
		l-0.08-0.12l-0.14-0.04c-0.02-0.01-5.63-1.55-13.81-1.55c-11.53,0-28.22,3.06-41.55,17.83l-0.18,0.2l0.11,0.24
		c0,0,0.1,0.21,0.28,0.6c1.25,2.74,6.38,14.23,7.77,21.93l0.13,0.69l0.53-0.45c0,0,0.05-0.04,0.16-0.13
		c1.6-1.31,15.11-11.92,30.71-11.91c6.09,0,12.49,1.6,18.67,5.98l0.57,0.4l0.07-0.69L248.11,390.66l0.23-0.33
		c-6.33-4.48-12.92-6.13-19.14-6.13c-17.03,0.01-31.36,12.21-31.39,12.23l0.26,0.31l0.4-0.07c-1.64-8.99-8.11-22.71-8.11-22.73
		l-0.37,0.17l0.3,0.27c13.14-14.54,29.56-17.56,40.95-17.56c4.04,0,7.45,0.38,9.84,0.76c1.2,0.19,2.14,0.38,2.78,0.52
		c0.32,0.07,0.57,0.13,0.73,0.17c0.16,0.04,0.25,0.06,0.25,0.06l0.11-0.39l-0.33,0.23c1.44,2.05,2.37,5.32,2.91,9
		c0.55,3.68,0.72,7.77,0.72,11.49c0,3.28-0.14,6.27-0.27,8.44c-0.07,1.08-0.14,1.96-0.19,2.57s-0.09,0.94-0.09,0.94L248.11,390.66
		l0.23-0.33L248.11,390.66z"/>
	<path class="st10" d="M262.15,355.29c0,0,2.59,20.09,8.6,25.47c0,0,27.41,1.07,40.77-23.1c0,0-7.7-9.74-10.65-16.52
		C300.88,341.15,283.84,364.13,262.15,355.29z"/>
	<path d="M262.15,355.29l-0.4,0.05c0,0.01,0.65,5.04,2.06,10.76c0.7,2.86,1.59,5.89,2.69,8.56c1.1,2.67,2.4,4.98,3.98,6.4l0.11,0.1
		l0.15,0.01c0,0,0.19,0.01,0.54,0.01c1.95,0,8.99-0.23,17.1-3.25c8.11-3.02,17.31-8.86,23.5-20.06l0.13-0.24l-0.17-0.21
		c0,0-0.12-0.15-0.33-0.43c-1.51-1.94-7.72-10.15-10.26-16.01l-0.28-0.64l-0.42,0.56c0,0-0.04,0.06-0.13,0.17
		c-0.67,0.87-3.88,4.84-8.84,8.58c-4.96,3.74-11.67,7.25-19.35,7.25c-3.15,0-6.48-0.59-9.93-1.99l-0.64-0.26l0.09,0.69
		L262.15,355.29l-0.15,0.37c3.55,1.45,6.98,2.05,10.23,2.05c8.47,0,15.7-4.1,20.82-8.17c5.12-4.08,8.13-8.14,8.15-8.16l-0.32-0.24
		l-0.37,0.16c1.49,3.44,4.16,7.58,6.47,10.88c2.3,3.29,4.23,5.73,4.23,5.74l0.32-0.25l-0.35-0.2c-6.09,11-15.09,16.71-23.08,19.69
		c-7.98,2.98-14.93,3.2-16.82,3.2c-0.17,0-0.3,0-0.38,0c-0.09,0-0.13,0-0.13,0l-0.02,0.4l0.27-0.3c-1.42-1.27-2.7-3.49-3.78-6.11
		c-1.62-3.92-2.79-8.71-3.56-12.51c-0.38-1.9-0.67-3.56-0.86-4.73c-0.09-0.59-0.16-1.06-0.21-1.38s-0.07-0.5-0.07-0.5L262.15,355.29
		l-0.15,0.37L262.15,355.29z"/>
	<path class="st10" d="M189.99,343.4c0,0,16.97,13.74,0,45.26c0,0-16.16,0.81-23.44-8.08c0,0,19.4-12.93,6.47-37.18H189.99z"/>
	<path d="M189.99,343.4l-0.25,0.31l0.02,0.01c0.39,0.33,7.38,6.35,7.38,19.19c0,6.63-1.86,15.09-7.5,25.55l0.36,0.19l-0.02-0.4
		c0,0-0.09,0-0.27,0.01c-0.18,0-0.44,0.01-0.77,0.01c-1.83,0-5.86-0.14-10.18-1.22c-4.32-1.07-8.9-3.08-11.89-6.74l-0.31,0.26
		l0.22,0.34c0.02-0.02,2.78-1.86,5.55-5.46c2.77-3.6,5.54-8.97,5.54-16.02c0-4.69-1.23-10.12-4.49-16.23l-0.36,0.19v0.4h16.97V343.4
		l-0.25,0.31L189.99,343.4v-0.4h-17.65l0.32,0.59c3.21,6.01,4.4,11.3,4.4,15.85c0,6.82-2.68,12.02-5.37,15.52
		c-1.34,1.75-2.69,3.08-3.7,3.96c-0.5,0.44-0.92,0.77-1.21,1c-0.15,0.11-0.26,0.19-0.34,0.25l-0.09,0.06l-0.03,0.02l-0.37,0.25
		l0.28,0.34c3.16,3.86,7.92,5.91,12.32,7.01c4.41,1.1,8.5,1.24,10.37,1.24c0.68,0,1.07-0.02,1.08-0.02l0.23-0.01l0.11-0.2
		c5.68-10.55,7.59-19.15,7.59-25.93c0-13.57-7.64-19.79-7.69-19.83l-0.11-0.09h-0.14V343.4z"/>
	<path class="st10" d="M146.35,412.1c0,0,8.89-16.16,9.7-35.56l-13.74-10.51c0,0,1.62,20.21-12.12,32.33L146.35,412.1z"/>
	<path d="M146.35,412.1l0.35,0.19c0.01-0.03,8.93-16.23,9.75-35.74l0.01-0.21l-14.63-11.19l0.07,0.9c0,0,0,0.04,0.01,0.13
		c0.02,0.26,0.05,0.9,0.05,1.84c0,2.67-0.26,7.77-1.9,13.39c-1.64,5.63-4.65,11.79-10.14,16.63l-0.35,0.31l16.9,14.36l0.24-0.43
		L146.35,412.1l0.26-0.31l-16.16-13.74l-0.26,0.31l0.27,0.3c5.64-4.97,8.71-11.28,10.38-17.01c1.67-5.73,1.94-10.89,1.94-13.62
		c0-1.28-0.06-2.03-0.06-2.04l-0.4,0.03l-0.25,0.32l13.74,10.51l0.25-0.32l-0.4-0.02c-0.4,9.64-2.81,18.5-5.13,24.94
		c-1.16,3.22-2.29,5.84-3.13,7.64c-0.42,0.9-0.77,1.61-1.01,2.08c-0.12,0.24-0.22,0.42-0.28,0.54c-0.06,0.12-0.1,0.18-0.1,0.18
		L146.35,412.1l0.26-0.31L146.35,412.1z"/>
	<path class="st10" d="M126.95,396.74c0,0-3.23-12.12-1.62-16.97c0,0-21.82-3.23-28.29,10.51c0,0-1.62,8.08,10.51,24.25
		C107.55,414.52,109.17,400.78,126.95,396.74z"/>
	<path d="M126.95,396.74l0.39-0.1c0,0-0.03-0.12-0.09-0.34c-0.39-1.55-1.97-8.09-1.97-12.9c0-1.37,0.13-2.6,0.43-3.5l0.15-0.46
		l-0.48-0.07c-0.01,0-2.27-0.34-5.54-0.34c-3.48,0-8.12,0.37-12.48,1.94c-4.35,1.56-8.43,4.34-10.69,9.13l-0.02,0.04l-0.01,0.05
		c-0.01,0.03-0.08,0.41-0.08,1.15c0,2.79,1.05,10.6,10.66,23.41l0.61,0.81l0.12-1l0-0.03c0.05-0.36,0.58-3.76,3.21-7.53
		c2.63-3.77,7.35-7.93,15.87-9.87l0.41-0.09l-0.11-0.41L126.95,396.74l-0.09-0.39c-8.99,2.04-13.94,6.56-16.61,10.58
		c-2.68,4.02-3.09,7.51-3.1,7.55l0.4,0.05l0.32-0.24c-9.53-12.71-10.5-20.35-10.5-22.93c0-0.34,0.02-0.6,0.03-0.77
		c0.01-0.08,0.02-0.14,0.02-0.18l0.01-0.04l0-0.01l-0.4-0.08l0.37,0.17c2.14-4.55,6.01-7.19,10.23-8.71
		c4.22-1.52,8.78-1.89,12.21-1.89c1.61,0,2.97,0.08,3.93,0.16c0.48,0.04,0.85,0.08,1.11,0.11c0.26,0.03,0.39,0.05,0.39,0.05
		l0.06-0.4l-0.38-0.13c-0.34,1.04-0.47,2.33-0.47,3.76c0,5.67,2.08,13.43,2.08,13.45L126.95,396.74l-0.09-0.39L126.95,396.74z"/>
	<path class="st10" d="M88.96,427.45c0,0,1.62-0.81,4.04-12.93c0,0-11.32-10.51-26.67,0v12.93
		C66.33,427.45,80.88,418.56,88.96,427.45z"/>
	<path d="M88.96,427.45l0.18,0.36c0.16-0.09,0.58-0.37,1.3-2.13c0.72-1.76,1.74-5.01,2.95-11.09l0.04-0.22l-0.17-0.15
		c-0.04-0.03-5.14-4.77-13.21-4.78c-4.03,0-8.79,1.2-13.97,4.74l-0.18,0.12v13.87l0.61-0.38l0.07-0.04
		c0.7-0.42,6.75-3.86,12.89-3.85c3.28,0,6.55,0.95,9.16,3.82l0.21,0.23l0.27-0.14L88.96,427.45l0.3-0.27
		c-2.78-3.06-6.33-4.09-9.76-4.08c-6.86,0.01-13.35,4-13.38,4.01l0.21,0.34h0.4v-12.93h-0.4l0.23,0.33c5.06-3.46,9.64-4.6,13.51-4.6
		c3.87,0,7.04,1.14,9.24,2.29c1.1,0.57,1.96,1.14,2.54,1.57c0.29,0.21,0.51,0.39,0.66,0.51c0.07,0.06,0.13,0.11,0.16,0.14l0.05,0.05
		l0.27-0.3l-0.4-0.08c-1.21,6.05-2.22,9.26-2.91,10.94c-0.35,0.84-0.61,1.29-0.78,1.52c-0.08,0.11-0.14,0.17-0.16,0.2l-0.01,0.01
		l0,0l0.14,0.19l-0.11-0.22l-0.04,0.02l0.14,0.19l-0.11-0.22L88.96,427.45l0.3-0.27L88.96,427.45z"/>
	<polygon points="281.9,325.62 230.17,324.81 281.9,324 	"/>
	<polygon points="281.9,334.1 243.1,333.7 281.9,333.29 	"/>
	<polygon points="247.14,434.73 216.83,433.92 247.14,433.11 	"/>
	<polygon points="247.14,438.36 224.41,437.96 247.14,437.56 	"/>
	<polyline class="st17" points="309.09,175.69 309.09,163.16 275.49,201.96 309.09,240.75 309.09,229.03 	"/>
	<polygon points="309.49,175.69 309.49,162.08 274.96,201.96 309.49,241.84 309.49,229.03 308.68,229.03 308.68,239.67 
		276.03,201.96 308.68,164.25 308.68,175.69 309.49,175.69 	"/>
	<polyline class="st17" points="496.31,528.94 496.31,541.01 528.68,503.63 496.31,466.25 496.31,477.54 	"/>
	<polygon points="495.9,528.94 495.9,542.09 529.22,503.63 495.9,465.16 495.9,477.54 496.71,477.54 496.71,467.33 528.15,503.63 
		496.71,539.92 496.71,528.94 495.9,528.94 	"/>
	<text transform="matrix(1 0 0 1 41.6822 383.8711)" class="st20 st21">[ ]</text>
	<text transform="matrix(0.9668 -0.2554 0.2554 0.9668 108.9023 360.0899)" class="st20 st21">&lt;/&gt;</text>
	<text transform="matrix(0.8095 -0.5872 0.5872 0.8095 42.8344 410.2551)" class="st20 st21">{</text>
	<text transform="matrix(-0.7151 0.6991 -0.6991 -0.7151 100.0881 361.7752)" class="st20 st21">{</text>
	<text transform="matrix(0.8989 0.4382 -0.4382 0.8989 39.7203 353.9313)" class="st20 st21">&gt;</text>
	<path class="st10" d="M228.65,127.49c-10.35,0-20.7,0.04-31.05-0.04c-1.72-0.01-2.24,0.52-2.17,2.2c0.12,3.07-0.05,6.14,0.05,9.21
		c0.23,6.69,2.03,12.92,5.6,18.62c5,7.99,12.19,13.7,19.76,19.01c6.26,4.39,6.28,11.46,0.15,15.97c-4.13,3.05-8.22,6.18-12.01,9.62
		c-6.08,5.52-10.84,12.12-12.35,20.33c-0.97,5.28-0.88,10.77-1.15,16.17c-0.15,2.94-0.04,2.95,2.82,2.95c12.85,0,25.7,0,38.55,0
		c7.71,0,15.42-0.04,23.13,0.03c1.6,0.01,2.13-0.47,2.06-2.08c-0.12-2.71-0.03-5.42-0.04-8.14c-0.03-7.94-2.28-15.18-6.85-21.68
		c-4.92-7.01-11.53-12.2-18.44-17.07c-6.51-4.58-6.45-11.55,0.02-16.22c3.12-2.25,6.21-4.57,9.14-7.07
		c7.14-6.09,13.12-13.16,14.91-22.61c1.06-5.55,0.81-11.34,1.24-17.01c0.14-1.86-0.6-2.25-2.32-2.24
		C249.36,127.53,239.01,127.5,228.65,127.49z"/>
	<path d="M228.67,118.57c14,0,28,0.02,42-0.01c2.08,0,3.6,0.76,4.47,2.66c0.75,1.65,0.66,3.44-0.66,4.56
		c-1.09,0.92-2.72,1.54-4.16,1.62c-1.76,0.1-2.23,0.58-2.29,2.34c-0.22,5.91-0.08,11.91-1.14,17.68
		c-2.01,10.94-8.65,19.25-16.9,26.32c-2.98,2.55-6.15,4.88-9.3,7.21c-3.63,2.68-3.66,4.55,0.09,7.2
		c6.97,4.92,13.56,10.25,18.68,17.18c5.65,7.64,8.55,16.22,8.61,25.73c0.02,2.93,0.06,5.86-0.01,8.78
		c-0.03,1.31,0.43,1.84,1.73,1.74c0.64-0.05,1.29-0.04,1.92,0.04c2.22,0.29,3.85,2.19,3.84,4.44c-0.01,2.22-1.67,4.11-3.91,4.38
		c-0.63,0.08-1.28,0.04-1.93,0.04c-27.5,0-54.99,0-82.49,0c-3.06,0-4.8-1.22-5.23-3.64c-0.48-2.66,1.31-5.02,4.02-5.26
		c0.57-0.05,1.15-0.08,1.71-0.01c1.6,0.2,2.1-0.47,2.1-2.06c-0.01-4.28-0.09-8.58,0.27-12.84c0.98-11.45,6.42-20.75,14.65-28.45
		c3.84-3.6,8.07-6.8,12.27-9.99c3.82-2.91,3.88-4.65-0.11-7.46c-6.9-4.88-13.43-10.17-18.5-17.05c-5.74-7.78-8.62-16.5-8.63-26.17
		c0-2.79-0.05-5.57,0.02-8.36c0.03-1.3-0.42-1.84-1.74-1.71c-0.71,0.07-1.43,0.05-2.14-0.01c-2.17-0.2-3.99-2.16-4.04-4.3
		c-0.06-2.33,1.64-4.32,3.96-4.56c0.85-0.09,1.71-0.04,2.57-0.04C201.81,118.56,215.24,118.57,228.67,118.57z M228.84,127.49
		c-10.35,0-20.7,0.04-31.05-0.04c-1.72-0.01-2.24,0.52-2.17,2.2c0.12,3.07-0.05,6.14,0.05,9.21c0.23,6.69,2.03,12.92,5.6,18.62
		c5,7.99,12.19,13.7,19.76,19.01c6.26,4.39,6.28,11.46,0.15,15.97c-4.13,3.05-8.22,6.18-12.01,9.62
		c-6.08,5.52-10.84,12.12-12.35,20.33c-0.97,5.28-0.88,10.77-1.15,16.17c-0.15,2.94-0.04,2.95,2.82,2.95c12.85,0,25.7,0,38.55,0
		c7.71,0,15.42-0.04,23.13,0.03c1.6,0.01,2.13-0.47,2.06-2.08c-0.12-2.71-0.03-5.42-0.04-8.14c-0.03-7.94-2.29-15.18-6.85-21.68
		c-4.92-7.01-11.53-12.2-18.44-17.07c-6.51-4.58-6.45-11.55,0.02-16.22c3.12-2.25,6.21-4.57,9.14-7.07
		c7.14-6.09,13.11-13.16,14.91-22.61c1.06-5.55,0.81-11.34,1.24-17.01c0.14-1.86-0.6-2.25-2.32-2.24
		C249.55,127.53,239.2,127.49,228.84,127.49z"/>
	<path class="st16" d="M203.42,147.41c16.97,0,33.64,0,50.53,0c-4.29,13.07-15.65,19.31-25.38,27.29c-5.29-4.35-10.81-8.6-16-13.24
		C208.41,157.72,205.29,153.12,203.42,147.41z"/>
	<path class="st16" d="M202.24,234.89c2.48-9.43,12.96-19.05,26.04-19.2c14.95-0.17,24.91,10.96,26.88,19.2
		C237.54,234.89,219.96,234.89,202.24,234.89z"/>
	<path class="st16" d="M231.63,207.75c0.05,1.64-1.26,2.98-2.93,2.98c-1.57,0-2.86-1.22-2.92-2.77c-0.06-1.56,1.35-3.01,2.95-3.02
		C230.17,204.91,231.58,206.29,231.63,207.75z"/>
	<path class="st16" d="M228.76,199.96c-1.59,0.02-2.93-1.19-2.99-2.7c-0.07-1.57,1.33-3.08,2.88-3.12c1.5-0.04,3.01,1.48,2.98,3
		C231.59,198.71,230.34,199.94,228.76,199.96z"/>
	<path d="M425.82,290.82l11.5,11.95l1.03-1.52c0,0,2.19-1.28-1.42-6.02l-4.32,4.58"/>
	<path d="M425.53,291.1l11.85,12.31l1.31-1.94l-0.33-0.23l0.2,0.35c0.04-0.02,0.25-0.15,0.46-0.45c0.21-0.3,0.4-0.77,0.4-1.41
		c0-1.06-0.5-2.57-2.16-4.75l-0.29-0.38l-4.65,4.93l0.59,0.55l4.32-4.58l-0.29-0.28l-0.32,0.24c1.6,2.11,2,3.47,1.99,4.27
		c0,0.48-0.14,0.77-0.26,0.95c-0.06,0.09-0.12,0.15-0.16,0.18l-0.04,0.03l0.01,0.01l-0.01-0.01l0,0l0.01,0.01l-0.01-0.01l-0.08,0.05
		l-0.81,1.19l-11.16-11.59L425.53,291.1L425.53,291.1z"/>
	<path class="st18" d="M329.99,375.88c0,0,2.15,14.35,1.44,27.99c-0.72,13.63-4.31,38.75-57.41,30.14c0,0-5.02,12.2-2.15,27.27
		c0,0,30.86,7.89,52.39,0c21.53-7.89,35.88-15.79,40.19-49.52"/>
	<path d="M329.59,375.94c0,0,0.1,0.65,0.25,1.82c0.44,3.5,1.33,11.59,1.33,20.27c0,1.93-0.04,3.88-0.15,5.82
		c-0.31,5.84-1.15,13.72-6.12,20.11c-2.49,3.2-6.01,6.04-11.06,8.09c-5.05,2.05-11.62,3.31-20.18,3.31c-5.62,0-12.1-0.54-19.57-1.75
		l-0.32-0.05l-0.12,0.3c-0.01,0.03-3.07,7.45-3.07,17.9c0,2.99,0.25,6.22,0.89,9.59l0.05,0.25l0.25,0.06
		c0.02,0,13.76,3.52,29.34,3.52c7.79,0,16.05-0.88,23.29-3.53c10.77-3.95,19.81-7.92,26.71-15.17c6.89-7.25,11.59-17.76,13.74-34.67
		l-0.8-0.1c-2.15,16.82-6.79,27.12-13.53,34.22c-6.74,7.1-15.64,11.03-26.4,14.97c-7.11,2.61-15.28,3.48-23.01,3.48
		c-7.73,0-15.02-0.87-20.37-1.75c-2.68-0.44-4.87-0.87-6.39-1.2c-0.76-0.16-1.35-0.3-1.76-0.4c-0.4-0.1-0.61-0.15-0.61-0.15
		l-0.1,0.39l0.4-0.08c-0.63-3.32-0.88-6.5-0.88-9.44c0-5.15,0.75-9.55,1.51-12.67c0.38-1.56,0.75-2.79,1.04-3.64
		c0.14-0.42,0.26-0.75,0.34-0.96c0.04-0.11,0.07-0.19,0.09-0.25l0.03-0.08l-0.37-0.15l-0.06,0.4c7.5,1.22,14.03,1.76,19.7,1.76
		c8.64,0,15.32-1.27,20.49-3.37c7.75-3.15,12.09-8.19,14.5-13.53c2.42-5.34,2.95-10.98,3.18-15.39c0.1-1.96,0.15-3.92,0.15-5.86
		c0-11.63-1.59-22.19-1.59-22.2L329.59,375.94L329.59,375.94z"/>
	<path d="M274.02,434l-15.07-6.46c0,0-5.02,5.74-5.02,13.63c0,0-6.46,10.05-6.46,26.55c0,0,4.31,2.15,7.89-1.44
		c3.59-3.59,7.89-20.09,12.2-22.25c4.31-2.15,3.97-0.02,3.97-0.02"/>
	<path d="M272.32,447.57c-0.38-0.04-0.76-0.09-1.14-0.14l-0.05,0.4c0.38,0.05,0.76,0.09,1.14,0.14L272.32,447.57L272.32,447.57z
		 M278.74,448.17c-1.07-0.08-2.14-0.16-3.22-0.26l-0.04,0.4c1.08,0.1,2.15,0.19,3.23,0.26L278.74,448.17z M285.19,448.48
		c-1.07-0.03-2.15-0.07-3.23-0.12l-0.02,0.4c1.08,0.05,2.16,0.09,3.24,0.12L285.19,448.48L285.19,448.48z M291.65,448.5
		c-0.92,0.02-1.84,0.03-2.77,0.03c-0.15,0-0.31,0-0.46,0l0,0.4c0.15,0,0.31,0,0.46,0c0.93,0,1.85-0.01,2.77-0.03L291.65,448.5
		L291.65,448.5z M298.1,448.23c-1.06,0.07-2.14,0.13-3.22,0.17l0.02,0.4c1.09-0.05,2.17-0.1,3.23-0.17L298.1,448.23L298.1,448.23z
		 M304.53,447.65c-1.06,0.12-2.13,0.23-3.21,0.33l0.04,0.4c1.09-0.1,2.16-0.21,3.22-0.33L304.53,447.65L304.53,447.65z
		 M310.92,446.75c-1.05,0.18-2.11,0.34-3.19,0.49l0.06,0.4c1.08-0.15,2.15-0.32,3.2-0.49L310.92,446.75L310.92,446.75z
		 M317.25,445.49c-1.03,0.24-2.08,0.46-3.16,0.68l0.08,0.4c1.08-0.21,2.13-0.44,3.17-0.68L317.25,445.49L317.25,445.49z
		 M323.48,443.82c-1,0.31-2.04,0.61-3.1,0.89l0.1,0.39c1.07-0.29,2.11-0.58,3.11-0.9L323.48,443.82L323.48,443.82z M329.55,441.64
		c-0.96,0.4-1.96,0.79-3.01,1.16l0.14,0.38c1.05-0.38,2.06-0.76,3.03-1.17L329.55,441.64L329.55,441.64z M335.31,438.78
		c-0.88,0.53-1.83,1.04-2.83,1.53l0.18,0.36c1.01-0.5,1.97-1.01,2.86-1.55L335.31,438.78L335.31,438.78z M340.05,434.57
		c-0.67,0.88-1.38,1.68-2.14,2.36l0.27,0.3c0.78-0.71,1.51-1.52,2.19-2.42L340.05,434.57z M343.22,429.01
		c-0.44,1.01-0.92,1.97-1.43,2.88l0.35,0.2c0.52-0.92,1-1.9,1.45-2.92L343.22,429.01L343.22,429.01z M345.39,422.94
		c-0.31,1.04-0.64,2.07-0.99,3.07l0.38,0.14c0.36-1.01,0.69-2.04,1-3.09L345.39,422.94L345.39,422.94z M346.94,416.67
		c-0.21,1.05-0.45,2.1-0.71,3.15l0.39,0.1c0.26-1.06,0.49-2.12,0.71-3.17L346.94,416.67L346.94,416.67z M348.03,410.29
		c-0.15,1.04-0.31,2.11-0.5,3.2l0.4,0.07c0.19-1.09,0.35-2.17,0.5-3.21L348.03,410.29L348.03,410.29z M348.76,403.87
		c-0.09,0.99-0.2,2.07-0.33,3.22l0.4,0.05c0.13-1.15,0.24-2.23,0.33-3.23L348.76,403.87L348.76,403.87z M349.17,397.4
		c0,0-0.01,0.3-0.03,0.86c-0.02,0.56-0.06,1.37-0.13,2.38l0.4,0.03c0.13-2.03,0.16-3.26,0.16-3.26L349.17,397.4L349.17,397.4z"/>
	<path class="st18" d="M326.41,370.98c0,0,2.15,12.07,12.2,20.68c10.05,8.61,29.42,26.55,30.14,44.49
		c0.72,17.94,5.74,36.6-2.87,65.3c0,0,6.46,4.31,20.09,4.31c13.63,0,12.92-5.02,12.92-5.02s6.46-43.77,2.87-66.02
		s-13.71-48.22-26.95-63.58"/>
	<path d="M326.01,371.06c0.01,0.04,2.17,12.19,12.33,20.91c5.02,4.3,12.35,10.92,18.51,18.69c6.17,7.77,11.14,16.68,11.48,25.51
		c0.4,9.95,2.11,20.06,2.11,31.94c0,9.63-1.12,20.42-4.96,33.23l-0.09,0.29l0.25,0.17c0.05,0.04,6.6,4.37,20.32,4.37
		c6.21,0,9.52-1.03,11.31-2.22c1.8-1.19,2.03-2.59,2.02-3.08c0-0.1-0.01-0.17-0.01-0.18l-0.4,0.06l0.4,0.06
		c0-0.01,3.96-26.83,3.96-49.19c0-6.21-0.31-12.08-1.09-16.95c-3.6-22.31-13.73-48.33-27.04-63.78l-0.61,0.53
		c13.16,15.26,23.28,41.2,26.86,63.38c0.77,4.8,1.08,10.64,1.08,16.82c0,11.14-0.99,23.41-1.98,32.89
		c-0.49,4.74-0.99,8.79-1.36,11.65c-0.19,1.43-0.34,2.56-0.45,3.34c-0.11,0.78-0.17,1.19-0.17,1.19l-0.01,0.06l0.01,0.06l0.14-0.02
		l-0.14,0.02l0,0l0.14-0.02l-0.14,0.02l0,0.08c-0.01,0.29-0.08,1.34-1.66,2.4c-1.58,1.06-4.74,2.09-10.86,2.09
		c-6.77,0-11.75-1.07-15.04-2.13c-1.64-0.53-2.86-1.06-3.66-1.46c-0.4-0.2-0.7-0.36-0.89-0.47c-0.1-0.06-0.17-0.1-0.22-0.13
		l-0.05-0.03l-0.01-0.01l-0.22,0.34l0.39,0.12c3.87-12.89,4.99-23.77,4.99-33.46c0-11.96-1.71-22.1-2.11-31.98
		c-0.37-9.11-5.45-18.14-11.66-25.98c-6.22-7.84-13.59-14.49-18.62-18.8c-4.96-4.25-7.98-9.37-9.76-13.42
		c-0.89-2.03-1.47-3.79-1.82-5.04c-0.18-0.63-0.3-1.12-0.38-1.46c-0.04-0.17-0.07-0.3-0.08-0.39c-0.02-0.09-0.02-0.13-0.02-0.13
		L326.01,371.06L326.01,371.06z"/>
	<path d="M383.46,506.06l-1.79,16.3c0,0,6.96,3.13,14.51,0.83c0,0,11.49,3.25,27.28-1.56c0,0,0.81-4.75-3.67-7.13
		c-4.48-2.39-21.52-1.7-24.83-5.19c-3.31-3.49-1.17-3.8-1.17-3.8"/>
	<path d="M379.51,276.84l-0.4-0.03c0,0-0.01,0.14-0.04,0.39c-0.1,0.88-0.42,3.11-1.25,5.15c-0.41,1.02-0.95,2-1.63,2.74
		c-0.68,0.74-1.48,1.25-2.47,1.39c-0.28,0.04-0.54,0.06-0.78,0.06c-0.97,0-1.65-0.29-2.17-0.7c-0.78-0.63-1.2-1.62-1.41-2.46
		c-0.1-0.42-0.16-0.81-0.18-1.08c-0.01-0.14-0.02-0.25-0.02-0.32l0-0.08l0-0.02v-0.04l-0.01-0.04c0,0-0.04-0.17-0.1-0.47
		c-0.18-0.88-0.53-2.85-0.53-4.23c0-0.45,0.04-0.84,0.12-1.07c0.04-0.11,0.08-0.18,0.1-0.19l0.01-0.01l0-0.01l0,0.01l0,0l0-0.01
		l0,0.01l0.01,0c0.57,0.01,0.75,0.18,0.88,0.35c0.13,0.18,0.16,0.43,0.15,0.56l0,0.06l0,0.01l0.08,0.01l-0.08-0.01l0,0l0.08,0.01
		l-0.08-0.01l0.8,0.1l0.67-4.68h4.46l3.47,4.85L379.51,276.84l-0.4-0.03L379.51,276.84l0.33-0.23l-3.71-5.19h-5.58l-0.77,5.37
		l0.4,0.06l0.4,0.05c0-0.01,0.01-0.07,0.01-0.16c0-0.21-0.03-0.62-0.29-1.01c-0.26-0.4-0.79-0.72-1.55-0.71
		c-0.22,0-0.44,0.1-0.59,0.25c-0.22,0.22-0.31,0.5-0.37,0.8c-0.06,0.31-0.08,0.65-0.08,1.03c0,1.99,0.65,4.86,0.65,4.87l0.39-0.09
		h-0.4c0,0.03,0,1.34,0.55,2.7c0.28,0.68,0.7,1.38,1.36,1.91c0.66,0.53,1.55,0.89,2.68,0.88c0.28,0,0.58-0.02,0.89-0.07
		c1.38-0.2,2.46-0.99,3.28-2.02c1.22-1.55,1.91-3.64,2.31-5.34c0.4-1.71,0.5-3.04,0.5-3.05l0.01-0.15l-0.09-0.12L379.51,276.84z"/>
	<path d="M373.77,273.97c0,0,3.59,4.31,5.74,4.31s5.02-2.87,5.02-6.46s-2.15-5.74-2.15-5.74s-1.44,2.87-2.87,2.87
		s-5.74-2.15-9.33,0.72c-2.05,1.64-2.12,3.98-1.79,5.38c0.25,1.05,0.72,0,0.72,0l0.72,0.72l0.36,1.08
		C370.18,276.84,373.05,276.13,373.77,273.97z"/>
	<path d="M344.2,368.84c0,0,0.39,0.41,1.1,1.18l0.3-0.27c-0.71-0.77-1.1-1.18-1.1-1.18L344.2,368.84L344.2,368.84z"/>
	<path d="M381.43,497.52c-0.16,1.19-0.31,2.27-0.44,3.22l0.4,0.06c0.13-0.95,0.28-2.03,0.44-3.23L381.43,497.52L381.43,497.52z
		 M382.24,491.07c-0.13,1.13-0.27,2.21-0.4,3.23l0.4,0.05c0.13-1.02,0.26-2.1,0.4-3.23L382.24,491.07z M382.97,484.6
		c-0.12,1.11-0.23,2.19-0.35,3.23l0.4,0.05c0.12-1.05,0.24-2.13,0.35-3.24L382.97,484.6L382.97,484.6z M383.61,478.13
		c-0.1,1.1-0.2,2.18-0.31,3.24l0.4,0.04c0.1-1.06,0.21-2.14,0.31-3.24L383.61,478.13L383.61,478.13z M384.14,471.65
		c-0.08,1.09-0.17,2.17-0.25,3.24l0.4,0.03c0.09-1.07,0.17-2.15,0.26-3.24L384.14,471.65L384.14,471.65z M384.57,465.16
		c-0.06,1.09-0.13,2.17-0.2,3.25l0.4,0.03c0.07-1.08,0.14-2.16,0.2-3.25L384.57,465.16L384.57,465.16z M384.86,458.66
		c-0.04,1.08-0.08,2.17-0.13,3.25l0.4,0.02c0.05-1.08,0.09-2.17,0.13-3.25L384.86,458.66L384.86,458.66z M385,452.17
		c-0.01,1.08-0.02,2.16-0.05,3.25l0.4,0.01c0.02-1.09,0.04-2.17,0.05-3.25L385,452.17L385,452.17z M384.94,445.67
		c0.03,1.07,0.05,2.15,0.06,3.25l0.4,0c-0.01-1.09-0.03-2.18-0.06-3.25L384.94,445.67z M384.63,439.19
		c0.08,1.06,0.14,2.14,0.19,3.24l0.4-0.02c-0.05-1.1-0.11-2.18-0.19-3.25L384.63,439.19L384.63,439.19z M383.98,432.73
		c0.14,1.05,0.27,2.12,0.38,3.22l0.4-0.04c-0.11-1.1-0.24-2.18-0.38-3.24L383.98,432.73L383.98,432.73z M382.82,426.35
		c0.24,1.01,0.46,2.07,0.66,3.17l0.4-0.07c-0.2-1.11-0.42-2.17-0.67-3.19L382.82,426.35L382.82,426.35z M380.82,420.21
		c0.23,0.56,0.45,1.11,0.65,1.67c0.17,0.44,0.32,0.9,0.48,1.37l0.38-0.12c-0.15-0.47-0.31-0.94-0.48-1.38
		c-0.21-0.56-0.43-1.11-0.66-1.68L380.82,420.21L380.82,420.21z M378.09,414.32c0.5,0.98,0.98,1.95,1.43,2.91l0.37-0.17
		c-0.45-0.97-0.93-1.95-1.43-2.93L378.09,414.32L378.09,414.32z M374.94,408.64c0.56,0.94,1.09,1.88,1.61,2.82l0.35-0.2
		c-0.52-0.94-1.06-1.88-1.62-2.83L374.94,408.64z M371.51,403.12c0.59,0.91,1.18,1.82,1.75,2.74l0.34-0.21
		c-0.57-0.92-1.16-1.83-1.75-2.75L371.51,403.12L371.51,403.12z M367.85,397.75c0.62,0.88,1.24,1.77,1.85,2.67l0.33-0.23
		c-0.61-0.9-1.23-1.79-1.85-2.68L367.85,397.75z M364.03,392.49c0.64,0.86,1.29,1.73,1.93,2.62l0.33-0.24
		c-0.64-0.88-1.29-1.76-1.93-2.62L364.03,392.49L364.03,392.49z M360.07,387.33c0.66,0.84,1.33,1.69,2,2.57l0.32-0.25
		c-0.67-0.87-1.34-1.73-2-2.57L360.07,387.33L360.07,387.33z M355.98,382.27c0.67,0.81,1.36,1.65,2.06,2.52l0.31-0.25
		c-0.7-0.87-1.39-1.71-2.06-2.52L355.98,382.27z M351.78,377.3c0.67,0.78,1.38,1.61,2.11,2.48l0.31-0.26
		c-0.73-0.87-1.44-1.69-2.11-2.48L351.78,377.3L351.78,377.3z M347.49,372.41c0.65,0.72,1.37,1.53,2.16,2.43l0.3-0.27
		c-0.79-0.9-1.52-1.72-2.17-2.43L347.49,372.41L347.49,372.41z"/>
	<path d="M380.52,503.89c-0.16,1.03-0.25,1.59-0.25,1.59l0.4,0.06c0,0,0.09-0.56,0.25-1.6L380.52,503.89L380.52,503.89z"/>
	<path d="M373.36,286.89v9.33h0.4l-0.36-0.18l0.15,0.07l-0.14-0.08l0,0l0.15,0.07l-0.14-0.08c0,0.01-0.17,0.32-0.56,0.61
		c-0.39,0.3-1,0.6-1.95,0.6c-0.4,0-1.03-0.22-1.69-0.68c-1-0.68-2.1-1.85-2.94-3.29c-0.84-1.44-1.42-3.16-1.42-4.96h-0.4l0.36,0.19
		l4.02-7.74l-0.72-0.37l-4.07,7.82v0.1c0,2.63,1.12,5.04,2.51,6.8c0.7,0.88,1.46,1.6,2.21,2.11c0.75,0.51,1.47,0.82,2.15,0.82
		c1.17,0,1.99-0.4,2.49-0.81c0.51-0.41,0.72-0.82,0.74-0.85l0.04-0.09v-9.42H373.36L373.36,286.89z"/>
	<path class="st10" d="M365.87,286.17c0,0-5.74-2.87-10.05-2.87c-4.31,0-8.61,0-8.61,0s-18.66,21.53-22.96,43.77
		c-4.31,22.25-2.87,40.19-2.87,40.19s2.15,7.18,29.42,6.46c27.27-0.72,26.55-4.31,26.55-4.31s-6.46-9.33-7.18-25.83
		c-0.72-16.51,12.2-48.8,12.2-48.8s-4.23-4.15-8.57-5.66C373.81,289.12,373.05,298.37,365.87,286.17z"/>
	<path d="M365.87,286.17l0.18-0.36c-0.01,0-1.46-0.73-3.45-1.45c-2-0.72-4.54-1.46-6.78-1.46c-2.15,0-4.31,0-5.92,0
		c-1.61,0-2.69,0-2.69,0h-0.18l-0.12,0.14c-0.01,0.01-4.68,5.41-9.9,13.59c-5.22,8.19-10.98,19.16-13.15,30.37
		c-2.59,13.38-3.11,25.2-3.11,32.53c0,4.88,0.23,7.76,0.23,7.77l0,0.04l0.01,0.04c0.03,0.11,0.62,1.84,4.16,3.5
		c3.54,1.66,10.02,3.29,21.92,3.29c1.19,0,2.44-0.02,3.74-0.05c12.97-0.34,19.63-1.33,23.09-2.29c1.73-0.48,2.66-0.95,3.2-1.37
		c0.53-0.41,0.67-0.81,0.66-1.03l-0.01-0.1l-0.02-0.08l-0.05-0.07l-0.07-0.1c-0.68-1.04-6.37-10.14-7.04-25.52
		c-0.02-0.44-0.03-0.89-0.03-1.35c0-8.34,3.04-20.18,6.1-29.91c1.53-4.87,3.05-9.21,4.2-12.33c0.57-1.56,1.05-2.82,1.38-3.69
		c0.33-0.87,0.52-1.34,0.52-1.34l0.1-0.25l-0.19-0.19c-0.02-0.02-4.25-4.19-8.72-5.76l-0.49-0.17l-0.04,0.52c0,0,0,0.04-0.01,0.13
		c-0.04,0.3-0.16,1.08-0.44,1.74c-0.14,0.33-0.32,0.63-0.52,0.82c-0.21,0.2-0.41,0.3-0.69,0.3c-0.41,0.01-1.09-0.28-2.02-1.22
		c-0.93-0.93-2.09-2.49-3.5-4.89l-0.06-0.1l-0.11-0.05L365.87,286.17l-0.35,0.2c1.44,2.44,2.62,4.04,3.62,5.05
		c1,1,1.83,1.45,2.59,1.46c0.58,0,1.06-0.29,1.38-0.66c0.49-0.57,0.74-1.32,0.9-1.94c0.15-0.62,0.19-1.11,0.19-1.12l-0.4-0.03
		l-0.13,0.38c2.1,0.73,4.22,2.13,5.8,3.34c0.79,0.61,1.45,1.17,1.91,1.57c0.23,0.2,0.41,0.37,0.53,0.48
		c0.12,0.11,0.18,0.17,0.18,0.17l0.28-0.29l-0.38-0.15c0,0.01-3.06,7.66-6.12,17.42c-3.06,9.77-6.13,21.64-6.13,30.15
		c0,0.47,0.01,0.94,0.03,1.39c0.72,16.61,7.22,26,7.25,26.05l0.33-0.23l-0.4,0.08l0.27-0.05l-0.27,0l0.01,0.05l0.27-0.05l-0.27,0
		h0.1l-0.1-0.01l0,0.01h0.1l-0.1-0.01l-0.01,0.02c-0.02,0.07-0.17,0.32-0.78,0.67c-0.92,0.52-2.86,1.21-6.77,1.82
		c-3.91,0.61-9.79,1.14-18.6,1.37c-1.29,0.03-2.53,0.05-3.72,0.05c-11.83,0-18.2-1.63-21.58-3.22c-1.69-0.79-2.63-1.58-3.14-2.14
		c-0.26-0.28-0.41-0.51-0.49-0.66c-0.04-0.08-0.07-0.13-0.08-0.17l-0.01-0.03l-0.03,0.01l0.03-0.01l0,0l-0.03,0.01l0.03-0.01
		l-0.39,0.12l0.4-0.03c0,0-0.01-0.17-0.04-0.52c-0.06-1.03-0.19-3.55-0.19-7.19c0-7.28,0.52-19.06,3.09-32.37
		c2.14-11.04,7.85-21.95,13.04-30.09c2.59-4.07,5.05-7.45,6.86-9.8c0.91-1.18,1.65-2.1,2.16-2.73c0.26-0.31,0.46-0.56,0.6-0.72
		c0.14-0.16,0.21-0.24,0.21-0.24l-0.31-0.26v0.4c0,0,4.31,0,8.61,0c2.07,0,4.55,0.7,6.5,1.41c0.98,0.35,1.82,0.71,2.42,0.98
		c0.3,0.13,0.54,0.24,0.7,0.32c0.16,0.08,0.25,0.12,0.25,0.12L365.87,286.17l-0.35,0.2L365.87,286.17z"/>
	<path d="M340.76,309.14c0,0-11.72,8.77-16.98,20.53c0,0,0.7-9.05,6.69-20.53C330.46,309.14,337.89,306.27,340.76,309.14z"/>
	<path class="st10" d="M303.91,360.34l11.61,21.27c0.27,0.49,0.84,0.71,1.37,0.53c0.65-0.22,0.96-0.98,0.64-1.59l-3.06-5.98
		l4.82,9.55c0.25,0.5,0.84,0.74,1.37,0.56c0.64-0.22,0.94-0.96,0.64-1.57l-4.69-9.28l5.68,10.71c0.26,0.49,0.84,0.72,1.37,0.54
		l0.04-0.01c0.64-0.22,0.94-0.94,0.66-1.55l-5.04-10.86l4.48,9.99c0.36,0.8,1.29,1.16,2.1,0.82l0.22-0.1
		c0.58-0.25,0.84-0.92,0.59-1.49l-6.59-15.25l4.17,7.45c0.21,0.49,0.73,0.76,1.26,0.66l0.88-0.17c0.71-0.14,1.11-0.89,0.83-1.55
		l-4.73-9.14c0,0-1.17-2.72-4.49-4.69c-3.32-1.98-4.53-3.5-4.53-3.5"/>
	<path d="M303.55,360.53l11.61,21.27c0.28,0.51,0.8,0.8,1.35,0.8c0.17,0,0.34-0.03,0.5-0.08c0.65-0.22,1.04-0.83,1.04-1.46
		c0-0.24-0.05-0.48-0.17-0.7l-3.06-5.98l-0.72,0.37l4.82,9.55c0.27,0.53,0.8,0.84,1.36,0.84c0.17,0,0.33-0.03,0.5-0.08
		c0.64-0.22,1.03-0.82,1.03-1.45c0-0.23-0.05-0.47-0.16-0.69l-4.69-9.28l-0.36,0.18l-0.36,0.19l5.68,10.71
		c0.27,0.51,0.8,0.82,1.36,0.82c0.17,0,0.34-0.03,0.5-0.08l0,0l0.04-0.01l0,0c0.64-0.22,1.04-0.82,1.04-1.46
		c0-0.22-0.05-0.44-0.14-0.65l-5.04-10.86l-0.74,0.34l4.48,9.99c0.33,0.74,1.07,1.19,1.83,1.19c0.27,0,0.54-0.05,0.8-0.17l0.22-0.1
		c0.58-0.25,0.93-0.82,0.93-1.41c0-0.2-0.04-0.41-0.13-0.61l-3.46-8l0.31,0.55l0.35-0.2l-0.37,0.16c0.25,0.57,0.81,0.93,1.41,0.93
		c0.1,0,0.19-0.01,0.29-0.03l0.88-0.17c0.75-0.15,1.25-0.8,1.25-1.51c0-0.2-0.04-0.4-0.12-0.59l-0.01-0.02l-4.74-9.15l-0.36,0.19
		l0.37-0.16c-0.02-0.04-1.23-2.84-4.66-4.88c-1.64-0.98-2.75-1.84-3.45-2.45c-0.35-0.31-0.6-0.55-0.75-0.71
		c-0.08-0.08-0.13-0.14-0.17-0.19l-0.04-0.04l-0.01-0.01l-0.63,0.5c0.03,0.04,1.28,1.59,4.64,3.59c1.61,0.96,2.69,2.09,3.38,2.99
		c0.34,0.45,0.58,0.83,0.74,1.1c0.08,0.14,0.13,0.24,0.17,0.31l0.04,0.08l0.01,0.02l0.01,0.01l4.73,9.15l0.36-0.19l-0.37,0.16
		c0.04,0.09,0.06,0.19,0.06,0.28c0,0.34-0.24,0.65-0.59,0.72l-0.88,0.17l-0.14,0.01c-0.29,0-0.55-0.17-0.67-0.44l-0.01-0.02
		l-4.18-7.46l-0.72,0.36l6.59,15.25c0.04,0.1,0.06,0.19,0.06,0.29c0,0.28-0.16,0.55-0.44,0.67l-0.22,0.1
		c-0.16,0.07-0.32,0.1-0.48,0.1c-0.46,0-0.9-0.26-1.09-0.71l-4.48-9.99l-0.37,0.17l-0.37,0.17l5.04,10.86
		c0.05,0.1,0.07,0.21,0.07,0.31c0,0.3-0.19,0.59-0.49,0.69l-0.01,0l-0.03,0.01l0,0c-0.08,0.03-0.16,0.04-0.24,0.04
		c-0.26,0-0.52-0.14-0.65-0.39l-5.68-10.71l-0.72,0.37l4.69,9.28c0.05,0.11,0.08,0.21,0.08,0.32c0,0.3-0.18,0.58-0.49,0.68
		c-0.08,0.03-0.16,0.04-0.23,0.04c-0.26,0-0.52-0.15-0.64-0.4l-4.82-9.55l-0.72,0.37l3.06,5.98c0.06,0.11,0.08,0.22,0.08,0.33
		c0,0.3-0.19,0.59-0.49,0.69c-0.08,0.03-0.16,0.04-0.24,0.04c-0.26,0-0.51-0.14-0.64-0.38l-11.61-21.27L303.55,360.53L303.55,360.53
		z"/>
	<path class="st10" d="M305.53,350.62c0,0,25.29-7.56,34.3-11.46l5.81-16.32c0,0-20.99,8.04-35.29,12.77L305.53,350.62z"/>
	<path d="M305.53,350.62l0.12,0.39c0,0,6.33-1.89,13.78-4.27c7.45-2.38,16.03-5.24,20.57-7.21l0.16-0.07l6.17-17.31l-0.82,0.31
		c0,0-0.33,0.13-0.93,0.35c-4.21,1.6-21.85,8.28-34.35,12.41l-0.19,0.06l-5.12,15.93l0.74-0.22L305.53,350.62l0.38,0.12l4.82-15.01
		l-0.38-0.12l0.13,0.38c14.31-4.74,35.31-12.78,35.31-12.78l-0.14-0.38l-0.38-0.14l-5.81,16.32l0.38,0.14l-0.16-0.37
		c-4.47,1.94-13.05,4.8-20.49,7.18c-3.72,1.19-7.16,2.25-9.67,3.02c-1.26,0.38-2.28,0.69-2.99,0.91s-1.1,0.33-1.1,0.33
		L305.53,350.62l0.38,0.12L305.53,350.62z"/>
	<path class="st10" d="M304.88,349.3c0,0,25.26-8.34,34.3-11.46l5.81-16.32c0,0-21.35,7.07-35.29,12.77L304.88,349.3z"/>
	<path d="M304.88,349.3l0.13,0.38c0,0,25.26-8.34,34.3-11.46l0.18-0.06l6.16-17.28l-0.79,0.26c0,0-21.35,7.07-35.32,12.78
		l-0.17,0.07l-5.12,15.94l0.75-0.25L304.88,349.3l0.38,0.12l4.82-15.01l-0.38-0.12l0.15,0.37c6.96-2.85,15.78-6.04,22.85-8.52
		c3.54-1.24,6.64-2.3,8.86-3.05c1.11-0.38,2-0.67,2.61-0.88s0.94-0.31,0.94-0.31l-0.13-0.38l-0.38-0.14l-5.81,16.32l0.38,0.14
		l-0.13-0.38c-4.51,1.56-13.09,4.42-20.53,6.9c-3.72,1.24-7.16,2.38-9.67,3.21c-1.25,0.42-2.28,0.75-2.99,0.99
		c-0.71,0.23-1.1,0.36-1.1,0.36L304.88,349.3l0.38,0.12L304.88,349.3z"/>
	<path class="st10" d="M304.23,347.97c0,0,25.24-9.13,34.3-11.46l5.81-16.32c0,0-21.71,6.11-35.29,12.77L304.23,347.97z"/>
	<path d="M304.23,347.97l0.14,0.38c0,0,0.39-0.14,1.1-0.4c4.95-1.78,25.27-9.03,33.16-11.05l0.21-0.05l6.15-17.26l-0.75,0.21
		c-0.01,0-21.72,6.11-35.36,12.8l-0.15,0.08l-5.12,15.95l0.77-0.28L304.23,347.97l0.38,0.12l4.82-15.01l-0.38-0.12l0.18,0.36
		c6.76-3.32,15.57-6.51,22.69-8.87c3.56-1.18,6.69-2.15,8.94-2.82c1.12-0.34,2.02-0.6,2.64-0.78c0.62-0.18,0.96-0.27,0.96-0.27
		l-0.11-0.39l-0.38-0.14l-5.81,16.32l0.38,0.14l-0.1-0.39c-4.56,1.17-13.13,4.04-20.58,6.61c-7.44,2.57-13.76,4.86-13.76,4.86
		L304.23,347.97l0.38,0.12L304.23,347.97z"/>
	<path class="st10" d="M303.58,346.65c0,0,25.21-9.92,34.3-11.46l5.81-16.32c0,0-22.06,5.14-35.29,12.77L303.58,346.65z"/>
	<path d="M303.58,346.65l0.15,0.38c0,0,0.39-0.15,1.1-0.43c2.47-0.96,8.78-3.38,15.46-5.73c6.68-2.35,13.74-4.62,17.66-5.28
		l0.23-0.04l6.14-17.24l-0.72,0.17c-0.01,0-5.53,1.29-12.71,3.53c-7.18,2.24-16.02,5.44-22.69,9.29l-0.14,0.08l-5.13,15.97
		l0.79-0.31L303.58,346.65l0.38,0.12l4.82-15.01l-0.38-0.12l0.2,0.35c6.57-3.79,15.37-6.98,22.53-9.21c3.58-1.12,6.74-2,9.01-2.6
		c1.14-0.3,2.05-0.53,2.67-0.68c0.63-0.15,0.97-0.23,0.97-0.23l-0.09-0.39l-0.38-0.14l-5.81,16.32l0.38,0.14l-0.07-0.4
		c-4.61,0.78-13.18,3.65-20.63,6.33c-7.45,2.67-13.75,5.16-13.75,5.16L303.58,346.65l0.38,0.12L303.58,346.65z"/>
	<path class="st10" d="M302.93,345.33c0,0,25.18-10.71,34.3-11.46l5.81-16.32c0,0-22.42,4.17-35.29,12.77L302.93,345.33z"/>
	<path d="M302.93,345.33l0.16,0.37c0,0,0.39-0.17,1.1-0.46c2.47-1.03,8.77-3.61,15.44-6.02c6.67-2.41,13.74-4.63,17.63-4.95
		l0.26-0.02l6.14-17.23l-0.69,0.13c-0.01,0-5.62,1.05-12.86,3.17c-7.23,2.13-16.08,5.32-22.58,9.66l-0.12,0.08l-5.13,15.98
		l0.81-0.35L302.93,345.33l0.38,0.12l4.82-15.01l-0.38-0.12l0.22,0.34c6.37-4.26,15.17-7.45,22.36-9.56
		c3.6-1.06,6.79-1.84,9.09-2.37c1.15-0.26,2.07-0.46,2.71-0.59c0.64-0.13,0.98-0.19,0.98-0.19l-0.07-0.4l-0.38-0.14l-5.81,16.32
		l0.38,0.14l-0.03-0.4c-2.34,0.19-5.63,1.01-9.29,2.12c-10.96,3.34-25.13,9.36-25.13,9.37L302.93,345.33l0.38,0.12L302.93,345.33z"
		/>
	<path class="st10" d="M302.28,344c0,0,25.16-11.49,34.3-11.46l5.81-16.32c0,0-22.77,3.2-35.29,12.77L302.28,344z"/>
	<path d="M302.28,344l0.17,0.37c0,0,0.39-0.18,1.09-0.49c2.46-1.09,8.74-3.83,15.39-6.3c3.33-1.23,6.75-2.39,9.84-3.25
		c3.08-0.85,5.83-1.39,7.77-1.39l0.04,0l0.29,0l6.13-17.22l-0.66,0.09c-0.01,0-5.72,0.8-13,2.81c-7.28,2.01-16.14,5.2-22.48,10.04
		l-0.1,0.08l-5.14,16l0.83-0.38L302.28,344l0.38,0.12l4.82-15.01L307.1,329l0.25,0.32c6.18-4.73,14.97-7.92,22.2-9.91
		c3.62-1,6.84-1.69,9.17-2.14c1.16-0.22,2.1-0.39,2.74-0.49c0.64-0.11,0.99-0.15,0.99-0.15l-0.06-0.4l-0.38-0.14l-5.81,16.32
		l0.38,0.14l0-0.4l-0.04,0c-2.37,0-5.68,0.73-9.34,1.81c-10.97,3.24-25.08,9.69-25.09,9.69L302.28,344l0.38,0.12L302.28,344z"/>
	<path class="st10" d="M301.63,342.68c0,0,25.13-12.28,34.3-11.46l5.81-16.32c0,0-23.13,2.24-35.29,12.77L301.63,342.68z"/>
	<path d="M301.63,342.68l0.18,0.36c0,0,0.37-0.18,1.03-0.49c2.31-1.1,8.24-3.85,14.65-6.32c3.21-1.23,6.53-2.4,9.59-3.25
		c3.05-0.86,5.84-1.4,7.92-1.4c0.32,0,0.62,0.01,0.9,0.04l0.31,0.03l6.13-17.21l-0.63,0.06c-0.01,0-5.81,0.56-13.15,2.45
		c-7.33,1.89-16.2,5.09-22.37,10.42l-0.09,0.07l-5.15,16.02l0.85-0.42L301.63,342.68l0.38,0.12l4.82-15.01l-0.38-0.12l0.26,0.31
		c5.99-5.2,14.77-8.39,22.04-10.25c3.64-0.93,6.9-1.54,9.24-1.91c1.17-0.19,2.12-0.31,2.77-0.4c0.65-0.08,1.01-0.12,1.01-0.12
		l-0.04-0.4l-0.38-0.14l-5.81,16.32l0.38,0.14l0.04-0.4c-0.31-0.03-0.64-0.04-0.98-0.04c-2.53,0-5.87,0.73-9.47,1.81
		c-10.81,3.25-24.05,9.72-24.06,9.73L301.63,342.68l0.38,0.12L301.63,342.68z"/>
	<path class="st10" d="M303.99,360.74c-2.09,0-3.81-0.48-4.3-0.63c-9.1-15.71-8.54-36.66,1.35-49.88
		c10.3-13.76,44.31-26.33,45.82-26.89c0.22,0.34,0.8,1.66,1.67,6.84c1.97,11.82-7.87,18.83-9.03,19.61
		c-0.12-0.01-0.32-0.02-0.59-0.02c-2.5,0-11.55,0.96-22.87,13.25c-9.43,10.25-2.08,26.72-1.42,28.15c-0.05,0.64-0.5,4.62-4.5,7.68
		C308.49,360.11,306.43,360.74,303.99,360.74z"/>
	<path d="M346.66,283.85c0.25,0.59,0.76,2.19,1.47,6.41c1.88,11.26-7.23,18.08-8.75,19.13c-0.13-0.01-0.29-0.01-0.48-0.01
		c-2.55,0-11.74,0.96-23.16,13.38c-9.55,10.38-2.5,26.44-1.53,28.5c-0.07,0.85-0.6,4.43-4.33,7.28c-1.56,1.19-3.54,1.8-5.89,1.8
		c-1.86,0-3.42-0.39-4.04-0.57c-4.19-7.3-6.45-16.09-6.37-24.81c0.09-9.34,2.78-17.8,7.78-24.48
		C311.18,297.35,342.8,285.29,346.66,283.85 M346.9,282.87c-0.08,0-0.12,0.07-0.12,0.07s-35.38,12.77-46.06,27.04
		c-10.68,14.27-10.06,35.47-1.3,50.46c0,0,2.01,0.7,4.58,0.7c2.02,0,4.38-0.43,6.38-1.96c4.56-3.49,4.66-8.08,4.66-8.08
		s-8.44-17.2,1.31-27.79c11.21-12.18,20.08-13.12,22.57-13.12c0.46,0,0.7,0.03,0.7,0.03s11.48-7.18,9.33-20.09
		C347.85,283.64,347.16,282.87,346.9,282.87z"/>
	<path class="st10" d="M434.77,297.66l19.34-21.68c0.37-0.42,0.38-1.03,0.03-1.47c-0.43-0.54-1.24-0.57-1.72-0.06l-4.58,4.91
		l7.34-7.79c0.39-0.41,0.41-1.04,0.06-1.48c-0.43-0.53-1.23-0.56-1.69-0.07l-7.13,7.56l8.14-8.99c0.38-0.41,0.39-1.04,0.04-1.48
		l-0.02-0.03c-0.42-0.52-1.21-0.57-1.69-0.09l-8.5,8.43l7.87-7.62c0.63-0.61,0.65-1.61,0.05-2.25l-0.17-0.18
		c-0.43-0.46-1.15-0.48-1.61-0.05l-12.1,11.39l5.58-6.45c0.39-0.37,0.47-0.95,0.2-1.41l-0.46-0.77c-0.37-0.62-1.21-0.74-1.74-0.26
		l-6.98,7.55c0,0-2.15,2.03-2.88,5.82c-0.73,3.79-2.41,6.39-2.41,6.39"/>
	<path d="M435.07,297.92l19.34-21.68l0,0c0.26-0.29,0.39-0.66,0.39-1.02c0-0.34-0.11-0.68-0.34-0.97c-0.31-0.38-0.75-0.57-1.2-0.57
		c-0.41,0-0.82,0.16-1.13,0.49l-4.58,4.91l0.59,0.55l7.34-7.79c0.28-0.29,0.42-0.67,0.42-1.05c0-0.34-0.11-0.68-0.34-0.96
		c-0.3-0.38-0.75-0.57-1.19-0.57c-0.4,0-0.81,0.16-1.11,0.48l-7.13,7.56l0.29,0.28l0.3,0.27l8.14-8.99c0.26-0.29,0.4-0.66,0.4-1.03
		c0-0.34-0.11-0.68-0.34-0.97l-0.02-0.03c-0.31-0.38-0.75-0.57-1.2-0.57c-0.39,0-0.78,0.15-1.08,0.45l-8.5,8.43l0.57,0.58l7.87-7.62
		c0.41-0.39,0.61-0.92,0.61-1.44c0-0.49-0.18-0.99-0.55-1.38l0,0l-0.17-0.18c-0.3-0.32-0.71-0.48-1.12-0.48
		c-0.38,0-0.76,0.14-1.06,0.42l-6.34,5.97l0.41-0.47l-0.31-0.26l0.28,0.29c0.32-0.3,0.48-0.71,0.48-1.12c0-0.27-0.07-0.54-0.22-0.79
		l-0.46-0.77c-0.29-0.49-0.81-0.75-1.32-0.75c-0.37,0-0.74,0.13-1.04,0.41l-0.01,0.01l-7,7.57l0.3,0.27l-0.28-0.29
		c-0.03,0.03-2.25,2.12-3,6.04c-0.36,1.86-0.95,3.43-1.45,4.52c-0.25,0.55-0.48,0.98-0.64,1.28c-0.08,0.15-0.15,0.26-0.19,0.33
		l-0.05,0.08l-0.02,0.02l0.68,0.44c0.02-0.03,1.72-2.66,2.47-6.53c0.35-1.84,1.05-3.25,1.66-4.19c0.3-0.47,0.58-0.83,0.79-1.07
		c0.1-0.12,0.18-0.21,0.24-0.26l0.06-0.06l0.02-0.02l0.01-0.01l6.99-7.56l-0.3-0.27l0.27,0.3c0.14-0.13,0.32-0.19,0.49-0.19
		c0.25,0,0.49,0.12,0.63,0.36l0.46,0.77c0.07,0.12,0.1,0.25,0.1,0.37c0,0.2-0.08,0.39-0.23,0.53l-0.02,0.01l-5.6,6.47l0.58,0.56
		l12.1-11.39c0.14-0.13,0.32-0.2,0.5-0.2c0.2,0,0.39,0.08,0.53,0.23l0.17,0.18l0,0c0.22,0.23,0.33,0.53,0.33,0.82
		c0,0.32-0.12,0.63-0.36,0.86l-7.87,7.62l0.28,0.29l0.28,0.29l8.5-8.43c0.14-0.14,0.33-0.21,0.52-0.21c0.21,0,0.42,0.09,0.57,0.27
		l0.02,0.03c0.11,0.14,0.16,0.3,0.16,0.46c0,0.18-0.06,0.35-0.19,0.49l-8.14,8.99l0.59,0.55l7.13-7.56
		c0.14-0.15,0.33-0.23,0.52-0.23c0.21,0,0.42,0.09,0.56,0.27c0.11,0.13,0.16,0.29,0.16,0.45c0,0.18-0.07,0.36-0.2,0.49l-7.34,7.79
		l0.59,0.55l4.58-4.91c0.15-0.16,0.34-0.23,0.53-0.23c0.21,0,0.42,0.09,0.57,0.27c0.11,0.14,0.16,0.3,0.16,0.46
		c0,0.17-0.06,0.35-0.18,0.49l0,0l-19.34,21.68L435.07,297.92L435.07,297.92z"/>
	<path class="st10" d="M382.38,294.78c0,0,17.22,7.89,25.83,6.46c8.61-1.44,8.61-1.44,8.61-1.44l12.92-12.92
		c0,0,5.74,14.35,8.61,14.35c0,0-12.92,20.81-33.01,21.53c-20.09,0.72-30.54-5.75-30.54-5.75"/>
	<path d="M382.21,295.15c0.01,0,3.63,1.67,8.4,3.33c4.77,1.66,10.67,3.34,15.28,3.34c0.84,0,1.64-0.06,2.38-0.18
		c8.61-1.44,8.61-1.44,8.61-1.44l0.13-0.02l13.01-13.01l-0.29-0.29l-0.38,0.15c0,0.01,1.44,3.6,3.24,7.21
		c0.9,1.8,1.89,3.61,2.86,4.98c0.48,0.69,0.95,1.27,1.42,1.69c0.47,0.42,0.93,0.71,1.47,0.72v-0.4l-0.34-0.21
		c0,0-0.05,0.08-0.15,0.23c-0.73,1.12-4.22,6.25-9.85,11.17c-5.63,4.92-13.4,9.61-22.68,9.94c-1.05,0.04-2.08,0.06-3.07,0.06
		c-8.99,0-15.81-1.45-20.38-2.89c-2.28-0.72-4-1.44-5.15-1.98c-0.57-0.27-1-0.49-1.29-0.65c-0.14-0.08-0.25-0.14-0.32-0.18
		l-0.1-0.06l-0.43,0.69c0.05,0.03,9.5,5.87,27.66,5.87c1.01,0,2.04-0.02,3.1-0.06c10.19-0.37,18.52-5.81,24.3-11.14
		c5.78-5.33,9.03-10.56,9.04-10.58l0.38-0.62h-0.73c-0.18,0.01-0.53-0.15-0.92-0.51c-0.7-0.63-1.53-1.81-2.36-3.21
		c-1.24-2.1-2.48-4.7-3.41-6.77c-0.46-1.03-0.85-1.94-1.12-2.58c-0.27-0.64-0.42-1.02-0.42-1.03l-0.23-0.57l-13.35,13.35l0.29,0.29
		l-0.07-0.4c0,0,0,0-8.61,1.44c-0.69,0.12-1.45,0.17-2.25,0.17c-4.43,0-10.29-1.64-15.02-3.29c-2.36-0.83-4.45-1.65-5.94-2.27
		c-0.75-0.31-1.34-0.57-1.76-0.75c-0.41-0.18-0.63-0.28-0.63-0.28L382.21,295.15L382.21,295.15z"/>
	<path d="M373.5,289.08c0.21,0.58,0.26,1.17,0.22,1.79c-0.06,0.61-0.19,1.28-0.76,1.93c-0.28,0.31-0.73,0.6-1.22,0.68
		c-0.49,0.1-0.96,0.03-1.34-0.1c-0.77-0.25-1.3-0.67-1.78-1.08c-0.92-0.85-1.56-1.83-2.07-2.85c-0.5-1.03-0.86-2.12-0.99-3.32
		c1,0.68,1.78,1.46,2.55,2.22c0.76,0.76,1.46,1.52,2.15,2.16c0.34,0.31,0.69,0.58,0.94,0.72c0.13,0.08,0.21,0.1,0.27,0.13
		c0.06,0.03,0.12,0.05,0.24,0c0.26-0.09,0.6-0.46,0.89-0.87C372.92,290.08,373.18,289.59,373.5,289.08z"/>
</g>
<g>
	<path class="st9" d="M206.82,416.84c0,0,2.4-12.17,7.25-20.29c0,0,14.58-8.96,51.89-6.61l-11.3,22.74c0,0-12.98-3.21-26.77-1.56
		C221.01,411.93,206.82,416.84,206.82,416.84z"/>
	<path class="st9" d="M249.66,389.55c0,0,2.45-24.73-3.25-32.82c0,0-32.46-8.84-55.11,16.35c0,0,6.52,13.77,8.16,22.69
		C199.47,395.77,226.18,372.99,249.66,389.55z"/>
	<path class="st9" d="M263.67,354.02c0,0,2.65,20.15,8.69,25.54c0,0,27.5,1.01,40.86-23.27c0,0-7.76-9.76-10.72-16.55
		C302.49,339.73,285.45,362.84,263.67,354.02z"/>
	<path class="st9" d="M191.23,342.26c0,0,17.06,13.75,0.11,45.42c0,0-16.22,0.85-23.54-8.05c0,0,19.43-13.02,6.4-37.32
		L191.23,342.26z"/>
	<path class="st9" d="M147.6,411.3c0,0,8.88-16.24,9.65-35.71l-13.81-10.51c0,0,1.67,20.27-12.09,32.47L147.6,411.3z"/>
	<path class="st9" d="M128.1,395.94c0,0-3.27-12.16-1.66-17.03c0,0-21.91-3.19-28.36,10.61c0,0-1.6,8.11,10.6,24.3
		C108.68,413.83,110.27,400.04,128.1,395.94z"/>
	<path class="st9" d="M90.06,426.85c0,0,1.62-0.81,4.02-12.99c0,0-11.38-10.52-26.76,0.06l0.03,12.98
		C67.35,426.9,81.92,417.95,90.06,426.85z"/>
	<g>
		<path d="M218.21,378.74c-2.37,0.01-2.39,0-2.58-1.59c-0.04-0.35-0.25-0.52-0.69-0.71c-0.85-0.37-1.48-0.05-2.19,0.26
			c-1.44,0.63-1.53,0.62-2.55-0.17c-0.3-0.23-0.58-0.49-0.92-0.7c-0.55-0.33-0.48-0.69-0.06-1.1c0.19-0.19,0.4-0.37,0.6-0.56
			c1.05-0.95,0.74-1.69-0.81-1.91c-1.91-0.27-1.91-0.27-1.7-1.62c0.25-1.55,0.25-1.56,2.53-1.85c0.55-0.07,0.85-0.22,1.21-0.57
			c0.7-0.67,0.15-1.07-0.21-1.53c-0.68-0.87-0.68-0.95,0.52-1.66c2.09-1.23,1.61-1.52,4.04-0.3c0.56,0.28,2.03-0.09,2.24-0.57
			c0.95-2.22,0.96-1.72,3.58-1.77c1.27-0.02,1.46,0.11,1.6,0.96c0.03,0.19,0.05,0.39,0.07,0.58c0.11,0.81,1.3,1.15,2.4,0.67
			c1.96-0.85,1.96-0.85,3.31,0.19c0.14,0.11,0.28,0.22,0.43,0.33c0.84,0.65,0.83,0.79-0.05,1.57c-0.12,0.11-0.26,0.22-0.38,0.33
			c-0.94,0.86-0.57,1.63,0.87,1.83c0.28,0.04,0.56,0.08,0.83,0.12c0.78,0.12,1.18,0.4,1,1.01c-0.13,0.44-0.18,0.88-0.22,1.32
			c-0.04,0.45-0.38,0.71-1.01,0.81c-0.54,0.09-1.11,0.13-1.63,0.26c-0.32,0.08-0.64,0.26-0.86,0.45c-0.59,0.49-0.48,0.93-0.06,1.42
			c0.93,1.07,0.88,1.09-0.54,1.96c-1.89,1.16-1.89,1.16-3.74,0.24c-0.77-0.38-2.11-0.01-2.44,0.68c-0.23,0.47-0.47,0.93-0.77,1.52
			C219.38,378.69,218.79,378.74,218.21,378.74z M223.83,367.81c-2.03-1.58-5.7-1.61-8.23-0.05c-2.48,1.53-2.89,4.04-0.92,5.6
			c2,1.58,5.66,1.59,8.22,0.02C225.43,371.82,225.84,369.37,223.83,367.81z"/>
	</g>
	<g>
		<path d="M188.52,373.04c-1.39,0.56-1.4,0.56-1.85-0.8c-0.1-0.3-0.26-0.4-0.56-0.46c-0.58-0.13-0.88,0.3-1.23,0.75
			c-0.7,0.89-0.76,0.91-1.53,0.45c-0.23-0.14-0.45-0.3-0.69-0.4c-0.39-0.16-0.44-0.5-0.28-0.96c0.07-0.21,0.15-0.42,0.23-0.63
			c0.41-1.08,0.06-1.66-0.89-1.49c-1.18,0.21-1.18,0.21-1.35-1.03c-0.19-1.43-0.2-1.44,1.08-2.22c0.31-0.19,0.45-0.39,0.58-0.78
			c0.26-0.76-0.15-0.98-0.46-1.3c-0.59-0.61-0.61-0.68-0.06-1.59c0.95-1.58,0.61-1.72,2.3-1.22c0.39,0.12,1.17-0.55,1.18-1.03
			c0.07-2.18,0.19-1.74,1.71-2.4c0.74-0.32,0.88-0.24,1.15,0.47c0.06,0.16,0.11,0.33,0.17,0.5c0.24,0.69,1.01,0.71,1.55,0.03
			c0.96-1.21,0.96-1.21,1.98-0.61c0.11,0.06,0.21,0.13,0.32,0.19c0.63,0.38,0.66,0.5,0.31,1.4c-0.05,0.13-0.1,0.25-0.15,0.38
			c-0.36,0.98,0.02,1.57,0.91,1.41c0.17-0.03,0.34-0.06,0.51-0.09c0.48-0.08,0.78,0.07,0.81,0.66c0.02,0.42,0.09,0.82,0.16,1.22
			c0.08,0.41-0.07,0.72-0.41,0.95c-0.3,0.21-0.62,0.37-0.9,0.61c-0.17,0.14-0.32,0.38-0.41,0.6c-0.24,0.57-0.08,0.93,0.28,1.27
			c0.78,0.73,0.75,0.76,0.12,1.86c-0.85,1.47-0.85,1.47-2.14,1.09c-0.53-0.16-1.24,0.49-1.28,1.17c-0.03,0.47-0.07,0.93-0.12,1.52
			C189.2,372.72,188.86,372.9,188.52,373.04z M189.42,362.07c-1.53-0.92-3.69-0.08-4.82,1.88c-1.12,1.93-0.81,4.25,0.69,5.16
			c1.52,0.93,3.66,0.08,4.81-1.91C191.23,365.24,190.93,362.98,189.42,362.07z"/>
	</g>
	<g>
		<path d="M237.76,405.33c-1.84,0.47-1.85,0.48-3.06-0.38c-0.27-0.19-0.54-0.24-1-0.26c-0.91-0.04-1.18,0.27-1.52,0.58
			c-0.69,0.64-0.77,0.65-2.09,0.41c-0.39-0.07-0.78-0.16-1.18-0.21c-0.65-0.08-0.84-0.29-0.79-0.61c0.02-0.14,0.06-0.29,0.09-0.43
			c0.18-0.74-0.56-1.09-1.91-0.91c-1.67,0.23-1.67,0.23-2.4-0.57c-0.85-0.92-0.86-0.92,0.72-1.54c0.38-0.15,0.51-0.29,0.56-0.56
			c0.09-0.52-0.6-0.63-1.19-0.81c-1.11-0.35-1.17-0.4-0.71-1.04c0.79-1.11,0.23-1.17,2.93-0.97c0.62,0.05,1.52-0.45,1.35-0.77
			c-0.75-1.43-0.41-1.16,1.59-1.7c0.97-0.26,1.21-0.23,1.88,0.22c0.15,0.1,0.3,0.21,0.45,0.31c0.63,0.43,1.78,0.38,2.31-0.1
			c0.94-0.87,0.94-0.87,2.69-0.55c0.18,0.03,0.37,0.07,0.55,0.1c1.09,0.2,1.18,0.28,1.01,0.89c-0.02,0.09-0.06,0.17-0.08,0.26
			c-0.16,0.67,0.65,1.02,1.9,0.85c0.24-0.03,0.48-0.07,0.73-0.1c0.68-0.09,1.18-0.01,1.46,0.37c0.19,0.27,0.45,0.53,0.72,0.78
			c0.27,0.26,0.18,0.47-0.24,0.66c-0.36,0.16-0.77,0.29-1.09,0.47c-0.19,0.11-0.32,0.27-0.37,0.42c-0.13,0.39,0.25,0.62,0.91,0.81
			c1.44,0.42,1.41,0.44,0.9,1.21c-0.68,1.02-0.68,1.02-2.74,0.88c-0.85-0.06-1.64,0.42-1.44,0.87c0.14,0.31,0.26,0.62,0.42,1
			C238.64,405.07,238.21,405.22,237.76,405.33z M234.78,398.09c-2.64-0.48-5.5,0.23-6.41,1.61c-0.9,1.35,0.47,2.84,3.05,3.32
			c2.62,0.49,5.46-0.23,6.38-1.62C238.72,400.02,237.39,398.57,234.78,398.09z"/>
	</g>
	<g>
		<path d="M285.68,370.59c-1.66,0.19-1.66,0.19-1.31-1.15c0.08-0.3-0.01-0.42-0.26-0.55c-0.48-0.25-1.02,0.07-1.61,0.39
			c-1.2,0.65-1.26,0.64-1.73,0.06c-0.14-0.18-0.25-0.37-0.43-0.52c-0.28-0.24-0.13-0.55,0.29-0.93c0.19-0.17,0.39-0.35,0.59-0.52
			c1.02-0.89,1.03-1.49,0.02-1.55c-1.25-0.08-1.25-0.08-0.69-1.24c0.65-1.33,0.65-1.34,2.33-1.76c0.41-0.1,0.66-0.25,1.02-0.57
			c0.69-0.62,0.43-0.92,0.32-1.28c-0.21-0.68-0.18-0.75,0.87-1.45c1.83-1.21,1.59-1.42,2.91-0.57c0.3,0.19,1.44-0.23,1.74-0.66
			c1.34-1.96,1.2-1.53,3.04-1.77c0.89-0.12,0.98-0.02,0.82,0.69c-0.04,0.16-0.09,0.33-0.13,0.49c-0.17,0.68,0.56,0.87,1.47,0.38
			c1.63-0.87,1.63-0.87,2.25-0.1c0.07,0.08,0.13,0.16,0.2,0.24c0.39,0.49,0.34,0.61-0.52,1.33c-0.12,0.1-0.25,0.2-0.36,0.31
			c-0.92,0.8-0.9,1.42,0.05,1.48c0.18,0.01,0.36,0.02,0.54,0.04c0.51,0.04,0.7,0.25,0.39,0.78c-0.22,0.38-0.4,0.76-0.56,1.14
			c-0.17,0.39-0.48,0.63-0.95,0.77c-0.41,0.12-0.81,0.19-1.22,0.35c-0.25,0.09-0.53,0.27-0.74,0.45c-0.56,0.46-0.62,0.82-0.48,1.21
			c0.32,0.84,0.28,0.86-0.98,1.71c-1.67,1.13-1.67,1.13-2.68,0.49c-0.42-0.27-1.47,0.16-1.91,0.76c-0.3,0.41-0.62,0.83-1,1.35
			C286.51,370.45,286.09,370.54,285.68,370.59z M292.95,360.88c-0.93-1.19-3.49-0.92-5.72,0.59c-2.2,1.49-3.25,3.65-2.35,4.82
			c0.91,1.19,3.46,0.91,5.73-0.62C292.83,364.17,293.87,362.06,292.95,360.88z"/>
	</g>
	<g>
		<path d="M110.54,398.74c-1.54,0.03-1.55,0.03-1.4-1.44c0.03-0.33-0.07-0.48-0.32-0.65c-0.49-0.33-0.95-0.03-1.47,0.27
			c-1.04,0.6-1.1,0.6-1.62-0.12c-0.16-0.21-0.29-0.45-0.48-0.64c-0.3-0.3-0.2-0.64,0.15-1.02c0.16-0.18,0.32-0.35,0.49-0.52
			c0.84-0.89,0.77-1.58-0.2-1.76c-1.19-0.23-1.19-0.23-0.82-1.48c0.43-1.44,0.43-1.45,1.95-1.75c0.37-0.07,0.59-0.21,0.88-0.54
			c0.57-0.63,0.28-0.99,0.12-1.42c-0.29-0.8-0.28-0.88,0.62-1.55c1.56-1.17,1.3-1.44,2.67-0.33c0.31,0.25,1.33-0.1,1.55-0.56
			c1-2.08,0.92-1.61,2.62-1.69c0.83-0.04,0.93,0.09,0.87,0.87c-0.01,0.18-0.04,0.36-0.05,0.54c-0.07,0.75,0.65,1.05,1.44,0.59
			c1.41-0.82,1.41-0.82,2.11,0.14c0.07,0.1,0.15,0.2,0.22,0.3c0.43,0.59,0.41,0.73-0.3,1.46c-0.1,0.1-0.2,0.2-0.3,0.31
			c-0.76,0.81-0.65,1.52,0.25,1.69c0.17,0.03,0.35,0.07,0.52,0.1c0.48,0.1,0.7,0.36,0.48,0.93c-0.16,0.41-0.27,0.82-0.37,1.23
			c-0.1,0.42-0.37,0.66-0.79,0.77c-0.37,0.09-0.74,0.13-1.1,0.26c-0.22,0.08-0.46,0.25-0.64,0.43c-0.47,0.46-0.47,0.87-0.28,1.32
			c0.42,0.98,0.38,1-0.68,1.83c-1.42,1.1-1.42,1.1-2.46,0.27c-0.43-0.35-1.37,0.02-1.7,0.66c-0.23,0.44-0.47,0.87-0.76,1.42
			C111.3,398.67,110.91,398.73,110.54,398.74z M116.05,388.5c-1.04-1.45-3.42-1.42-5.32,0.05c-1.87,1.45-2.57,3.79-1.55,5.22
			c1.03,1.45,3.39,1.41,5.32-0.08C116.4,392.22,117.08,389.94,116.05,388.5z"/>
	</g>
	<g>
		<path d="M84.28,420.53c-1.37,0.22-1.38,0.22-2.16-0.37c-0.17-0.13-0.36-0.17-0.69-0.2c-0.65-0.06-0.88,0.12-1.16,0.3
			c-0.56,0.37-0.62,0.37-1.54,0.17c-0.27-0.06-0.54-0.13-0.82-0.18c-0.45-0.08-0.57-0.22-0.5-0.41c0.03-0.09,0.07-0.18,0.11-0.27
			c0.21-0.45-0.29-0.7-1.27-0.65c-1.22,0.07-1.22,0.07-1.66-0.46c-0.51-0.61-0.51-0.61,0.68-0.93c0.29-0.08,0.4-0.16,0.46-0.32
			c0.12-0.32-0.36-0.42-0.77-0.56c-0.76-0.27-0.79-0.3-0.4-0.68c0.68-0.66,0.29-0.72,2.21-0.48c0.44,0.06,1.14-0.22,1.05-0.42
			c-0.39-0.93-0.17-0.74,1.32-0.99c0.72-0.12,0.89-0.09,1.33,0.22c0.1,0.07,0.19,0.14,0.29,0.21c0.41,0.3,1.24,0.32,1.67,0.04
			c0.77-0.5,0.77-0.5,1.99-0.23c0.13,0.03,0.26,0.06,0.38,0.09c0.76,0.17,0.82,0.22,0.63,0.6c-0.03,0.05-0.06,0.1-0.08,0.16
			c-0.18,0.41,0.35,0.67,1.27,0.61c0.18-0.01,0.35-0.02,0.53-0.03c0.5-0.03,0.85,0.04,1,0.29c0.11,0.18,0.27,0.35,0.43,0.52
			c0.17,0.17,0.08,0.3-0.24,0.4c-0.28,0.08-0.58,0.15-0.83,0.25c-0.15,0.06-0.26,0.16-0.31,0.25c-0.14,0.24,0.11,0.4,0.56,0.54
			c0.99,0.32,0.97,0.33,0.52,0.79c-0.6,0.61-0.6,0.61-2.06,0.43c-0.61-0.07-1.22,0.19-1.13,0.48c0.07,0.2,0.12,0.4,0.19,0.64
			C84.93,420.4,84.61,420.48,84.28,420.53z M82.91,415.88c-1.84-0.41-3.97-0.09-4.77,0.73c-0.79,0.8,0.03,1.79,1.83,2.2
			c1.82,0.42,3.94,0.09,4.75-0.74C85.53,417.25,84.73,416.29,82.91,415.88z"/>
	</g>
	<g>
		<path d="M145.35,399.31c-1.09-0.07-1.1-0.07-0.82-2.01c0.06-0.43,0.01-0.64-0.15-0.88c-0.31-0.48-0.67-0.11-1.07,0.25
			c-0.81,0.72-0.85,0.71-1.13-0.28c-0.09-0.3-0.15-0.62-0.26-0.88c-0.18-0.42-0.06-0.86,0.23-1.35c0.13-0.22,0.27-0.44,0.41-0.66
			c0.7-1.12,0.73-2.03,0.07-2.35c-0.82-0.39-0.82-0.39-0.41-2.02c0.47-1.88,0.47-1.89,1.59-2.17c0.27-0.07,0.44-0.24,0.69-0.65
			c0.48-0.8,0.31-1.29,0.25-1.87c-0.11-1.08-0.09-1.18,0.62-2.01c1.24-1.44,1.09-1.81,1.93-0.24c0.19,0.36,0.95-0.04,1.16-0.63
			c0.95-2.67,0.84-2.07,2.05-2.04c0.59,0.01,0.65,0.18,0.51,1.22c-0.03,0.24-0.07,0.48-0.1,0.71c-0.14,0.99,0.34,1.44,0.95,0.89
			c1.1-0.98,1.1-0.98,1.48,0.33c0.04,0.14,0.08,0.27,0.12,0.41c0.24,0.82,0.2,0.99-0.39,1.91c-0.08,0.13-0.17,0.25-0.25,0.39
			c-0.63,1.01-0.64,1.96-0.02,2.25c0.12,0.06,0.24,0.11,0.36,0.17c0.33,0.17,0.45,0.52,0.23,1.26c-0.16,0.53-0.29,1.07-0.41,1.6
			c-0.12,0.55-0.34,0.85-0.65,0.96c-0.27,0.09-0.54,0.12-0.81,0.27c-0.17,0.09-0.35,0.3-0.5,0.52c-0.39,0.58-0.44,1.11-0.35,1.73
			c0.18,1.33,0.15,1.36-0.7,2.37c-1.13,1.35-1.13,1.35-1.78,0.17c-0.27-0.49-0.97-0.07-1.28,0.75c-0.21,0.56-0.43,1.12-0.7,1.82
			C145.9,399.28,145.62,399.33,145.35,399.31z M150.46,386.16c-0.57-1.99-2.25-2.14-3.77-0.32c-1.49,1.79-2.26,4.83-1.71,6.79
			c0.56,1.99,2.24,2.12,3.78,0.28C150.27,391.11,151.02,388.14,150.46,386.16z"/>
	</g>
</g>
</svg>
