<?xml version="1.0" encoding="utf-8"?>
<!-- Generator: Adobe Illustrator 24.0.1, SVG Export Plug-In . SVG Version: 6.00 Build 0)  -->
<svg version="1.1" id="Layer_1" xmlns="http://www.w3.org/2000/svg" xmlns:xlink="http://www.w3.org/1999/xlink" x="0px" y="0px"
	 viewBox="0 0 720 720" style="enable-background:new 0 0 720 720;" xml:space="preserve">
<style type="text/css">
	.st0{opacity:0.2;fill:#C9C7C8;}
	.st1{fill:#C9C7C8;}
	.st2{fill:#BDDEFF;}
	.st3{stroke:#000000;stroke-miterlimit:10;}
	.st4{fill:#A0D19B;stroke:#000000;stroke-miterlimit:10;}
	.st5{fill:none;stroke:#000000;stroke-width:0.5;stroke-miterlimit:10;stroke-dasharray:4;}
	.st6{fill:none;stroke:#000000;stroke-miterlimit:10;}
	.st7{fill:none;stroke:#000000;stroke-width:0.5;stroke-miterlimit:10;}
	.st8{fill:none;stroke:#000000;stroke-width:0.5;stroke-miterlimit:10;stroke-dasharray:4.0075,4.0075;}
	.st9{fill:#FFFFFF;stroke:#000000;stroke-miterlimit:10;}
	.st10{fill:#FFFFFF;}
	.st11{fill:#F4F4F4;}
	.st12{fill:#EBB000;}
	.st13{fill:#F6DE94;}
	.st14{fill:#EEBD2B;}
	.st15{fill:#F9E8B5;}
	.st16{fill:#EEB52F;}
	.st17{fill:#939393;}
	.st18{fill:#A0D19B;}
	.st19{fill:#D6D6D6;}
	.st20{fill:#EBB000;stroke:#000000;stroke-miterlimit:10;}
	.st21{fill:#F6DE94;stroke:#000000;stroke-miterlimit:10;}
	.st22{fill:#EEBD2B;stroke:#000000;stroke-miterlimit:10;}
	.st23{fill:#F9E8B5;stroke:#000000;stroke-miterlimit:10;}
	.st24{fill:none;stroke:#EEB52F;stroke-miterlimit:10;}
	.st25{fill:#939393;stroke:#000000;stroke-miterlimit:10;}
	.st26{fill:none;stroke:#000000;stroke-width:0.5;stroke-miterlimit:10;stroke-dasharray:4.0227,4.0227;}
	.st27{fill:#F5F5F5;stroke:#000000;stroke-miterlimit:10;}
	.st28{fill:#375A64;stroke:#000000;stroke-miterlimit:10;}
	.st29{fill:#5D7982;stroke:#000000;stroke-miterlimit:10;}
	.st30{fill:#EEB52F;stroke:#000000;stroke-miterlimit:10;}
	.st31{opacity:0.6;stroke:#000000;stroke-miterlimit:10;}
	.st32{opacity:0.3;stroke:#000000;stroke-miterlimit:10;}
	.st33{fill:#FAFAFA;stroke:#000000;stroke-miterlimit:10;}
	.st34{opacity:0.5;fill:#FFFFFF;stroke:#000000;stroke-miterlimit:10;}
	.st35{fill:none;stroke:#424242;stroke-miterlimit:10;stroke-dasharray:9;}
	
		.st36{fill:none;stroke:#000000;stroke-width:7;stroke-linecap:round;stroke-linejoin:round;stroke-miterlimit:10;stroke-dasharray:14;}
	.st37{fill:none;}
	.st38{font-family:'MyriadPro-Regular';}
	.st39{font-size:24.0228px;}
	.st40{fill:#FF0000;stroke:#000000;stroke-miterlimit:10;}
	.st41{fill:#DE191B;stroke:#000000;stroke-miterlimit:10;}
	.st42{fill:#CF3F0C;stroke:#000000;stroke-miterlimit:10;}
	.st43{fill:#D6A218;stroke:#000000;stroke-miterlimit:10;}
	.st44{fill:#E9DA1D;stroke:#000000;stroke-miterlimit:10;}
	.st45{fill:#B8CB1A;stroke:#000000;stroke-miterlimit:10;}
	.st46{fill:#7FB915;stroke:#000000;stroke-miterlimit:10;}
	.st47{fill:#0D8C09;stroke:#000000;stroke-miterlimit:10;}
	.st48{fill:none;stroke:#000000;stroke-width:0.5;stroke-miterlimit:10;stroke-dasharray:3.96,3.96;}
	.st49{fill:#B2B2B2;stroke:#000000;stroke-miterlimit:10;}
	.st50{fill:#F0F0F0;stroke:#000000;stroke-miterlimit:10;}
	.st51{fill:#C3C3C3;stroke:#000000;stroke-miterlimit:10;}
	.st52{fill:#CECECE;stroke:#000000;stroke-miterlimit:10;}
	.st53{fill:#F7F7F7;stroke:#000000;stroke-miterlimit:10;}
	.st54{fill:#F3F3F3;stroke:#000000;stroke-miterlimit:10;}
	.st55{fill:#DCDCDC;stroke:#000000;stroke-miterlimit:10;}
	.st56{opacity:0.5;stroke:#000000;stroke-miterlimit:10;}
	.st57{fill:#D9D9D9;stroke:#000000;stroke-miterlimit:10;}
	.st58{fill:#CCCCCC;stroke:#000000;stroke-miterlimit:10;}
	.st59{fill:#0E0E0E;stroke:#000000;stroke-miterlimit:10;}
	.st60{fill:#C1C1C1;stroke:#000000;stroke-miterlimit:10;}
	.st61{fill:#D0D0D0;stroke:#000000;stroke-miterlimit:10;}
	.st62{fill:#B6B6B6;stroke:#000000;stroke-miterlimit:10;}
	.st63{fill:#EFEFEF;stroke:#000000;stroke-miterlimit:10;}
	.st64{fill:#BBBBBB;stroke:#000000;stroke-miterlimit:10;}
	.st65{fill:#AAAAAA;stroke:#000000;stroke-miterlimit:10;}
	.st66{fill:#999999;stroke:#000000;stroke-miterlimit:10;}
</style>
<path class="st1" d="M221,116c27.91-36.12,77-101,127-93s97,77,145,80s130,7,138,79s-69,94-22,144s-56,82-40,129s151,54,133,107
	s-135,7-156,59s-61,72-100,72s-85-58-173-42s-162,23-172-26s17-55,32-85s14-83-42-72c-47.56,9.34-96-41-52-90s112-54,117-91
	s-96-74-87-127S187,160,221,116z"/>
<path class="st2" d="M381.75,573.71C379.5,539.42,336,366,321,292s36-99,44-143c7.48-41.13-24.36-90.11-30.18-126.55
	C289.15,25.38,245.64,82.82,220,116c-34,44-143-9-152,44s92,90,87,127s-73,42-117,91s4.44,99.34,52,90c56-11,57,42,42,72
	s-42,36-32,85s84,42,172,26c33.39-6.07,60.73-1.48,83.94,6.54C368.43,630.29,383.06,593.62,381.75,573.71z"/>
<g>
	<rect x="239.19" y="541.82" class="st9" width="206.63" height="41.02"/>
	<rect x="239.19" y="448.18" class="st9" width="206.63" height="41.02"/>
	<g>
		<path class="st30" d="M456.44,457.08H228.56c-4.17,0-7.56-3.38-7.56-7.56v-54.53c0-4.17,3.38-7.56,7.56-7.56h227.88
			c4.17,0,7.56,3.38,7.56,7.56v54.53C464,453.7,460.62,457.08,456.44,457.08z"/>
		<g>
			<rect x="324.04" y="406.89" class="st10" width="118.18" height="30.73"/>
			<path d="M441.72,407.39v29.73H324.54v-29.73H441.72 M442.72,406.39H323.54v31.73h119.18V406.39L442.72,406.39z"/>
		</g>
		<line class="st36" x1="356.04" y1="421.87" x2="410.21" y2="421.87"/>
		<g>
			<line class="st36" x1="242.28" y1="404.07" x2="242.28" y2="440.44"/>
			<line class="st36" x1="260.34" y1="404.07" x2="260.34" y2="440.44"/>
			<line class="st36" x1="278.4" y1="404.07" x2="278.4" y2="440.44"/>
			<line class="st36" x1="296.45" y1="404.07" x2="296.45" y2="440.44"/>
		</g>
	</g>
	<g>
		<path class="st30" d="M456.44,550.72H228.56c-4.17,0-7.56-3.38-7.56-7.56v-54.53c0-4.17,3.38-7.56,7.56-7.56h227.88
			c4.17,0,7.56,3.38,7.56,7.56v54.53C464,547.34,460.62,550.72,456.44,550.72z"/>
		<g>
			<rect x="324.04" y="500.53" class="st10" width="118.18" height="30.73"/>
			<path d="M441.72,501.03v29.73H324.54v-29.73H441.72 M442.72,500.03H323.54v31.73h119.18V500.03L442.72,500.03z"/>
		</g>
		<line class="st36" x1="356.04" y1="515.51" x2="410.21" y2="515.51"/>
		<g>
			<line class="st36" x1="242.28" y1="497.71" x2="242.28" y2="534.08"/>
			<line class="st36" x1="260.34" y1="497.71" x2="260.34" y2="534.08"/>
			<line class="st36" x1="278.4" y1="497.71" x2="278.4" y2="534.08"/>
			<line class="st36" x1="296.45" y1="497.71" x2="296.45" y2="534.08"/>
		</g>
	</g>
	<g>
		<path class="st30" d="M456.44,644.36H228.56c-4.17,0-7.56-3.38-7.56-7.56v-54.53c0-4.17,3.38-7.56,7.56-7.56h227.88
			c4.17,0,7.56,3.38,7.56,7.56v54.53C464,640.98,460.62,644.36,456.44,644.36z"/>
		<g>
			<rect x="324.04" y="594.17" class="st10" width="118.18" height="30.73"/>
			<path d="M441.72,594.67v29.73H324.54v-29.73H441.72 M442.72,593.67H323.54v31.73h119.18V593.67L442.72,593.67z"/>
		</g>
		<line class="st36" x1="356.04" y1="609.15" x2="410.21" y2="609.15"/>
		<g>
			<line class="st36" x1="242.28" y1="591.35" x2="242.28" y2="627.72"/>
			<line class="st36" x1="260.34" y1="591.35" x2="260.34" y2="627.72"/>
			<line class="st36" x1="278.4" y1="591.35" x2="278.4" y2="627.72"/>
			<line class="st36" x1="296.45" y1="591.35" x2="296.45" y2="627.72"/>
		</g>
	</g>
</g>
<g>
	<g>
		<path class="st4" d="M370.89,375.94c0,0-36.01,1.69-72.05,1.52c-27.72-0.12-43-23.12-27.63-39.15
			c15.37-16.04,48.03-1.02,48.03-1.02l18.61,6.08l36.07,1.09l15.88,7.98l25.35,18.87"/>
		<path d="M360.18,368.14l17.68-11.53c0,0,7.64,6.17,9.39,16.18c0,0,10.42,11.31,14.07,32.25c0,0-4.98,3.68-10.33-0.07
			s-14.46-23.74-20.4-25.52c-5.94-1.78-5.04,0.86-5.04,0.86"/>
		<path class="st4" d="M359.59,366.01c-27.85-5.88-42.88-17.58-42.88-17.58"/>
		<path d="M295.34,363.62l-16.45-13.22c0,0-8.22,5.38-10.95,15.17c0,0-11.49,10.22-17.2,30.69c0,0,4.59,4.16,10.29,0.95
			s16.74-22.19,22.83-23.37c6.08-1.18,4.93,1.35,4.93,1.35"/>
		<path class="st4" d="M392.83,364.38c-22.98,6.03-101.81-7.09-101.81-7.09c-9.97,9.45-7.71,28.81-7.71,28.81
			c29.83,12.31,71.44,13.28,88.97,11.98s75.69-4.37,64.92-32.79c-10.77-28.42-48.72-17.76-48.72-17.76l-0.67-1.53l-28.69-2.17
			l-21.25,0.45"/>
		<path class="st9" d="M331.54,252.93l-1.62,11.9c0,0,0.67,1.96,3.41,2.33c2.75,0.37,8.99-4.37,9.86-10.78l-3.79-10.57"/>
		<path class="st9" d="M341.74,253.38c0,0,7.82-2.67,13.32-1.92c5.49,0.75,10.99,1.49,10.99,1.49s20.07,30.7,21.71,59.83
			c1.64,29.13,2.79,34.08,2.79,34.08s-3.99,8.78-38.66,3.14c-34.67-5.64-33.13-10.1-33.13-10.1s3.76,6.91,7.54-14.03
			c3.78-20.93-7.11-64.37-7.11-64.37s6.11-4.56,11.92-5.74C331.1,255.77,330.47,267.7,341.74,253.38z"/>
		<path d="M369.8,287.03c0,0,13.44,13.22,18.11,29.14c0,0,0.68-11.67-4.97-27.36C382.94,288.82,373.96,283.87,369.8,287.03z"/>
		<path class="st9" d="M319.19,261.51c0,0-29.94,33.91-23.85,59.65c2.59,10.94,20.83,23.59,20.83,23.59l9.18-2.97
			c0,0,0.85-3.71,4.36-12.11c0,0-16.74-5.19-13.32-18.2c3.58-13.61,8.61-20.29,8.61-20.29"/>
		<g>
			<path d="M331.5,255.77c0.31,0.71,0.55,1.38,0.87,1.97c0.29,0.58,0.66,1.12,0.97,1.29c0.15,0.1,0.25,0.08,0.33,0.06
				c0.09-0.02,0.2-0.04,0.39-0.12c0.36-0.14,0.86-0.42,1.35-0.76c0.99-0.7,2.03-1.56,3.12-2.4c1.1-0.84,2.23-1.71,3.6-2.42
				c-0.39,1.49-1.05,2.81-1.87,4.03c-0.84,1.21-1.82,2.34-3.14,3.26c-0.68,0.44-1.42,0.88-2.43,1.07c-0.49,0.09-1.1,0.1-1.7-0.11
				c-0.6-0.18-1.12-0.62-1.42-1.06c-0.61-0.91-0.67-1.78-0.64-2.56C331,257.21,331.15,256.46,331.5,255.77z"/>
		</g>
		<g>
			<path class="st9" d="M385.35,344.67c0,0-17.28-1.07-20.96,3.65c-3.68,4.73-3.56,10.27-3.56,10.27l0.04,1.85l13.09-0.74
				c0.08-4.16,1.38-4.19,3.44-4.23c2.77-0.06,4.64,0.83,7.41,0.77s4.3-1.38,4.3-1.38"/>
			<path class="st6" d="M372.61,348.18c0,0-5.54,0.12-6.39,3.83c-1.1,4.85-0.77,7.41-0.77,7.41"/>
			<path class="st6" d="M374.52,350.91c0,0-3.68,1-4.54,3.79c-0.87,2.79-0.81,5.56-0.81,5.56"/>
			<path class="st6" d="M377.95,344.62c0,0-8.22-1.92-10.95-0.02c-2.73,1.91-2.69,3.75-2.69,3.75"/>
		</g>
		<g>
			
				<rect x="307.31" y="359.88" transform="matrix(0.9998 -0.0211 0.0211 0.9998 -7.5518 7.3895)" class="st17" width="76.61" height="1.77"/>
			<path d="M383.41,359.58l0.02,0.77l-75.6,1.6l-0.02-0.77L383.41,359.58 M384.39,358.56l-77.59,1.64l0.06,2.77l77.59-1.64
				L384.39,358.56L384.39,358.56z"/>
		</g>
		<g>
			<polygon class="st19" points="296.1,323.03 356.96,321.75 367.55,361.18 306.69,362.47 			"/>
			<path d="M356.58,322.25l10.32,38.44l-59.83,1.27l-10.32-38.44L356.58,322.25 M357.34,321.24l-61.89,1.31l10.86,40.43l61.89-1.31
				L357.34,321.24L357.34,321.24z"/>
		</g>
		<g>
			<path class="st10" d="M392.04,355.16c-2.4,0-5.7-0.75-7.79-4.35c-3.26-5.59-1.87-10.55-1.6-11.36
				c2.06-1.72,25.74-21.81,25.1-33.37c-0.13-2.3-1.2-4.14-3.2-5.45c-19.82-13.07-32.75-14.02-34.54-14.08
				c-1.16-1.08-9.55-9.33-8.2-19.24c1.23-9.08,3.69-12.83,4.4-13.76c3.83,1.35,40.25,14.47,56.15,28.93
				c9.44,8.58,13.8,17.64,12.98,26.95c-1.87,21.04-30,38.73-40.68,45.44C394.39,354.92,393.38,355.16,392.04,355.16L392.04,355.16z"
				/>
			<path d="M366.38,254.14c5.28,1.89,40.2,14.67,55.63,28.7c9.32,8.47,13.63,17.39,12.81,26.53c-1.84,20.75-29.71,38.32-40.38,45.02
				c-0.32,0.08-1.24,0.27-2.42,0.27c-2.27,0-5.38-0.71-7.36-4.1c-3.05-5.23-1.94-9.75-1.61-10.81c2.68-2.25,25.81-22.06,25.17-33.69
				c-0.14-2.47-1.29-4.44-3.42-5.84c-19.32-12.73-32.18-14.03-34.6-14.16c-1.51-1.44-9.19-9.31-7.92-18.68
				C363.41,259.15,365.53,255.38,366.38,254.14 M366.04,252.96c0,0-3.24,3.29-4.74,14.28c-1.49,10.99,8.5,19.8,8.5,19.8
				s13.41,0.13,34.46,14.01c13.29,8.76-22.05,38.12-22.05,38.12s-2.13,5.52,1.6,11.9c2.23,3.83,5.76,4.59,8.22,4.59
				c1.65,0,2.82-0.34,2.82-0.34c17.88-11.22,63.46-40.83,27.83-73.22C405.71,266.66,366.04,252.96,366.04,252.96L366.04,252.96z"/>
		</g>
		<path class="st9" d="M325.96,239.12c0,0-0.7,12.03,5.58,13.81c6.28,1.79,7.28-5.54,7.28-5.54s2.95-7.99,1.12-8.24
			c-2.05-0.28-2.08,1.58-2.08,1.58l-0.04-6.53l-6.41-0.87L325.96,239.12z"/>
		<path d="M333.78,236.45c0,0-5.32,4.87-8.07,4.5c-2.75-0.37-5.91-4.53-5.29-9.11c0.62-4.58,3.74-6.95,3.74-6.95
			s1.33,3.91,3.16,4.16s7.7-1.75,11.78,2.53c2.33,2.45,2.02,5.44,1.36,7.18c-0.5,1.3-0.92-0.12-0.92-0.12l-1.04,0.79l-0.64,1.31
			C337.86,240.73,334.32,239.32,333.78,236.45z"/>
	</g>
	
		<rect x="292.37" y="234.7" transform="matrix(0.9998 -0.0211 0.0211 0.9998 -5.1384 6.4622)" class="st37" width="21.25" height="22.99"/>
	<text transform="matrix(0.9998 -0.0211 0.0211 0.9998 292.4865 251.9821)" class="st38 st39">[ ]</text>
	
		<rect x="366.33" y="200.87" transform="matrix(0.9612 -0.2758 0.2758 0.9612 -43.4802 114.7327)" class="st37" width="39.73" height="22.17"/>
	<text transform="matrix(0.9612 -0.2758 0.2758 0.9612 368.7405 223.1743)" class="st38 st39">&lt;/&gt;</text>
	
		<rect x="290.14" y="263.39" transform="matrix(0.7969 -0.6041 0.6041 0.7969 -106.1976 233.9168)" class="st37" width="9.24" height="22.99"/>
	<text transform="matrix(0.7969 -0.6041 0.6041 0.7969 294.4418 282.109)" class="st38 st39">{</text>
	
		<rect x="354.82" y="221.01" transform="matrix(0.7001 -0.714 0.714 0.7001 -58.2258 326.3819)" class="st37" width="9.24" height="22.99"/>
	<text transform="matrix(-0.7001 0.714 -0.714 -0.7001 358.7083 225.3172)" class="st38 st39">{</text>
	
		<rect x="290.16" y="206.49" transform="matrix(0.4191 -0.9079 0.9079 0.4191 -22.5078 401.0921)" class="st37" width="24.08" height="23.29"/>
	<text transform="matrix(0.9079 0.4191 -0.4191 0.9079 289.5217 217.81)" class="st38 st39">&gt;</text>
</g>
<path class="st30" d="M453.55,148.08c-3.86-15.35-0.79-30.82,7.22-43.11c-6.24-1.03-12.78-0.84-19.31,0.8
	c-25.46,6.39-40.92,32.21-34.53,57.67c6.39,25.46,32.21,40.92,57.67,34.53c8.6-2.16,16.05-6.54,21.91-12.37
	C470.7,179.35,458,165.84,453.55,148.08z"/>
<polygon class="st30" points="462.07,257.5 469.28,257.51 464.88,263.23 467.1,270.09 460.3,267.67 454.46,271.9 454.66,264.69 
	448.84,260.45 455.75,258.41 457.99,251.55 "/>
<polygon class="st30" points="575.74,202.14 581.69,202.15 578.06,206.86 579.89,212.52 574.29,210.53 569.47,214.02 569.63,208.07 
	564.83,204.57 570.53,202.88 572.38,197.23 "/>
<polygon class="st30" points="599.74,353.5 605.69,353.51 602.06,358.22 603.89,363.88 598.29,361.89 593.47,365.38 593.63,359.43 
	588.83,355.93 594.53,354.25 596.38,348.59 "/>
<polygon class="st30" points="388.74,77.5 394.69,77.51 391.06,82.22 392.89,87.88 387.29,85.89 382.47,89.38 382.63,83.43 
	377.83,79.93 383.53,78.25 385.38,72.59 "/>
<polygon class="st30" points="492.84,364.21 496.51,364.22 494.27,367.12 495.4,370.61 491.94,369.38 488.98,371.53 489.08,367.87 
	486.11,365.71 489.63,364.67 490.77,361.19 "/>
<polygon class="st30" points="487.84,535.5 491.51,535.51 489.27,538.41 490.4,541.9 486.94,540.67 483.98,542.82 484.08,539.16 
	481.11,537 484.63,535.96 485.77,532.48 "/>
<polygon class="st30" points="622.84,555.5 626.51,555.51 624.27,558.41 625.4,561.9 621.94,560.67 618.98,562.82 619.08,559.16 
	616.11,557 619.63,555.96 620.77,552.48 "/>
<polygon class="st30" points="514.84,174.5 518.51,174.51 516.27,177.41 517.4,180.9 513.94,179.67 510.98,181.82 511.08,178.16 
	508.11,176 511.63,174.96 512.77,171.48 "/>
<polygon class="st30" points="563.07,474.5 570.28,474.51 565.88,480.23 568.1,487.09 561.3,484.67 555.46,488.9 555.66,481.69 
	549.84,477.45 556.75,475.41 558.99,468.55 "/>
<g>
	<circle class="st30" cx="278.5" cy="153.5" r="37.4"/>
	<line class="st30" x1="278.5" y1="109.3" x2="278.5" y2="94"/>
	<line class="st30" x1="247.25" y1="122.25" x2="236.43" y2="111.43"/>
	<line class="st30" x1="234.3" y1="153.5" x2="219" y2="153.5"/>
	<line class="st30" x1="247.25" y1="184.75" x2="236.43" y2="195.57"/>
	<line class="st30" x1="278.5" y1="197.7" x2="278.5" y2="213"/>
	<line class="st30" x1="309.75" y1="184.75" x2="320.57" y2="195.57"/>
	<line class="st30" x1="322.7" y1="153.5" x2="338" y2="153.5"/>
	<line class="st30" x1="309.75" y1="122.25" x2="320.57" y2="111.43"/>
</g>
<path class="st9" d="M242.79,244.9c1.6-3.03,2.32-6.57,1.82-10.22c-1.27-9.3-9.84-15.82-19.14-14.55c-5.34,0.73-9.74,3.86-12.3,8.16
	c-2.73-1.17-5.8-1.65-8.95-1.22c-6.01,0.82-10.84,4.7-13.18,9.84c-1.83-0.37-3.74-0.47-5.69-0.2c-9.3,1.27-15.82,9.84-14.55,19.14
	c1.27,9.3,9.84,15.82,19.14,14.55c1.46-0.2,2.85-0.6,4.16-1.13c3.35,5.8,9.97,9.3,17.01,8.34c4.44-0.61,8.23-2.89,10.86-6.11
	c3.62,3.54,8.77,5.45,14.18,4.71c9.3-1.27,15.82-9.84,14.55-19.14C249.98,251.82,246.95,247.47,242.79,244.9z"/>
<path class="st9" d="M114.01,415.51c0.97-1.84,1.41-3.98,1.1-6.2c-0.77-5.64-5.97-9.59-11.61-8.82c-3.24,0.44-5.91,2.34-7.46,4.95
	c-1.66-0.71-3.52-1-5.43-0.74c-3.65,0.5-6.58,2.85-7.99,5.97c-1.11-0.23-2.27-0.28-3.45-0.12c-5.64,0.77-9.59,5.97-8.82,11.61
	c0.77,5.64,5.97,9.59,11.61,8.82c0.89-0.12,1.73-0.36,2.52-0.69c2.03,3.52,6.05,5.64,10.32,5.06c2.69-0.37,4.99-1.75,6.59-3.7
	c2.2,2.15,5.32,3.3,8.6,2.86c5.64-0.77,9.59-5.97,8.82-11.61C118.37,419.71,116.54,417.07,114.01,415.51z"/>
<path class="st9" d="M208.76,497.11c1.33-2.51,1.92-5.43,1.51-8.46c-1.05-7.7-8.14-13.08-15.83-12.03c-4.41,0.6-8.06,3.2-10.18,6.75
	c-2.26-0.97-4.8-1.37-7.41-1.01c-4.97,0.68-8.97,3.88-10.9,8.14c-1.51-0.31-3.1-0.39-4.71-0.17c-7.7,1.05-13.08,8.14-12.03,15.83
	c1.05,7.7,8.14,13.08,15.83,12.03c1.21-0.17,2.36-0.5,3.44-0.94c2.77,4.79,8.25,7.69,14.07,6.9c3.67-0.5,6.81-2.39,8.98-5.05
	c3,2.93,7.26,4.51,11.73,3.9c7.7-1.05,13.08-8.14,12.03-15.83C214.71,502.84,212.2,499.24,208.76,497.11z"/>
<path class="st9" d="M169.76,606.11c1.33-2.51,1.92-5.43,1.51-8.46c-1.05-7.7-8.14-13.08-15.83-12.03c-4.41,0.6-8.06,3.2-10.18,6.75
	c-2.26-0.97-4.8-1.37-7.41-1.01c-4.97,0.68-8.97,3.88-10.9,8.14c-1.51-0.31-3.1-0.39-4.71-0.17c-7.7,1.05-13.08,8.14-12.03,15.83
	c1.05,7.7,8.14,13.08,15.83,12.03c1.21-0.17,2.36-0.5,3.44-0.94c2.77,4.79,8.25,7.69,14.07,6.9c3.67-0.5,6.81-2.39,8.98-5.05
	c3,2.93,7.26,4.51,11.73,3.9c7.7-1.05,13.08-8.14,12.03-15.83C175.71,611.84,173.2,608.24,169.76,606.11z"/>
<line class="st5" x1="221" y1="601.47" x2="99.97" y2="601.47"/>
<polyline class="st5" points="221,438.47 99.97,438.47 99.97,466.66 "/>
<polyline class="st5" points="300.7,342.11 234.5,342.11 234.5,387.43 "/>
<polyline class="st5" points="221,528.69 156.5,528.69 156.5,438.12 "/>
<polyline class="st5" points="464,410.26 527.5,410.26 527.5,493.5 618.24,493.5 "/>
<line class="st5" x1="527.5" y1="428.5" x2="570.5" y2="428.5"/>
<line class="st5" x1="564.3" y1="493.5" x2="564.3" y2="601.5"/>
<g>
	<path d="M495.61,496h-7.93c-3.38,0-6.13,2.74-6.13,6.13v4.7c0,3.38,2.74,6.13,6.13,6.13h7.93c3.38,0,6.13-2.74,6.13-6.13v-4.7
		C501.74,498.74,499,496,495.61,496z"/>
	<circle class="st4" cx="491.65" cy="580.35" r="72.65"/>
	<circle class="st9" cx="491.65" cy="580.35" r="57.31"/>
	<path class="st4" d="M492.21,545.24h-1.12c-0.81,0-1.46,0.65-1.46,1.46v28.56c0,0.81,0.65,1.46,1.46,1.46h1.12
		c0.81,0,1.46-0.65,1.46-1.46V546.7C493.67,545.89,493.01,545.24,492.21,545.24z"/>
	<g>
		<path d="M491.8,523.04h-1.12c-0.81,0-1.46,0.65-1.46,1.46v8.38c0,0.81,0.65,1.46,1.46,1.46h1.12c0.81,0,1.46-0.65,1.46-1.46v-8.38
			C493.26,523.69,492.61,523.04,491.8,523.04z"/>
		<path d="M532.28,539.94l-0.79-0.79c-0.57-0.57-1.49-0.57-2.06,0l-5.93,5.93c-0.57,0.57-0.57,1.49,0,2.06l0.79,0.79
			c0.57,0.57,1.49,0.57,2.06,0l5.93-5.93C532.85,541.43,532.85,540.51,532.28,539.94z"/>
		<path d="M548.96,580.51v-1.12c0-0.81-0.65-1.46-1.46-1.46h-8.38c-0.81,0-1.46,0.65-1.46,1.46v1.12c0,0.81,0.65,1.46,1.46,1.46
			h8.38C548.31,581.97,548.96,581.31,548.96,580.51z"/>
		<path d="M532.06,620.99l0.79-0.79c0.57-0.57,0.57-1.49,0-2.06l-5.93-5.93c-0.57-0.57-1.49-0.57-2.06,0l-0.79,0.79
			c-0.57,0.57-0.57,1.49,0,2.06l5.93,5.93C530.57,621.56,531.49,621.56,532.06,620.99z"/>
		<path d="M491.49,637.66h1.12c0.81,0,1.46-0.65,1.46-1.46v-8.38c0-0.81-0.65-1.46-1.46-1.46h-1.12c-0.81,0-1.46,0.65-1.46,1.46
			v8.38C490.03,637.01,490.69,637.66,491.49,637.66z"/>
		<path d="M451.01,620.77l0.79,0.79c0.57,0.57,1.49,0.57,2.06,0l5.93-5.93c0.57-0.57,0.57-1.49,0-2.06l-0.79-0.79
			c-0.57-0.57-1.49-0.57-2.06,0l-5.93,5.93C450.44,619.27,450.44,620.2,451.01,620.77z"/>
		<path d="M434.34,580.2v1.12c0,0.81,0.65,1.46,1.46,1.46h8.38c0.81,0,1.46-0.65,1.46-1.46v-1.12c0-0.81-0.65-1.46-1.46-1.46h-8.38
			C434.99,578.74,434.34,579.39,434.34,580.2z"/>
		<path d="M451.23,539.72l-0.79,0.79c-0.57,0.57-0.57,1.49,0,2.06l5.93,5.93c0.57,0.57,1.49,0.57,2.06,0l0.79-0.79
			c0.57-0.57,0.57-1.49,0-2.06l-5.93-5.93C452.73,539.15,451.8,539.15,451.23,539.72z"/>
	</g>
	<circle class="st4" cx="491.65" cy="580.35" r="9.69"/>
</g>
<line class="st5" x1="188.75" y1="601.47" x2="188.75" y2="662.92"/>
<polygon class="st40" points="202,595.82 196.18,590 190,596.18 183.82,590 178,595.82 184.18,602 178,608.18 183.82,614 
	190,607.82 196.18,614 202,608.18 195.82,602 "/>
<polygon class="st40" points="514,403.82 508.18,398 502,404.18 495.82,398 490,403.82 496.18,410 490,416.18 495.82,422 
	502,415.82 508.18,422 514,416.18 507.82,410 "/>
<polygon class="st4" points="158.29,440.71 152.05,434.47 145.05,441.46 151.3,447.71 158.29,454.71 165.29,447.71 176.79,436.21 
	169.79,429.22 "/>
<polygon class="st4" points="234.29,363.71 228.05,357.47 221.05,364.46 227.3,370.71 234.29,377.71 241.29,370.71 252.79,359.21 
	245.79,352.22 "/>
<polygon class="st4" points="564.29,496.71 558.05,490.47 551.05,497.46 557.3,503.71 564.29,510.71 571.29,503.71 582.79,492.21 
	575.79,485.22 "/>
</svg>
