<?xml version="1.0" encoding="utf-8"?>
<!-- Generator: Adobe Illustrator 24.0.1, SVG Export Plug-In . SVG Version: 6.00 Build 0)  -->
<svg version="1.1" id="Layer_1" xmlns="http://www.w3.org/2000/svg" xmlns:xlink="http://www.w3.org/1999/xlink" x="0px" y="0px"
	 viewBox="0 0 720 720" style="enable-background:new 0 0 720 720;" xml:space="preserve">
<style type="text/css">
	.st0{opacity:0.2;fill:#C9C7C8;}
	.st1{fill:#C9C7C8;}
	.st2{fill:#BDDEFF;}
	.st3{stroke:#000000;stroke-miterlimit:10;}
	.st4{fill:#A0D19B;stroke:#000000;stroke-miterlimit:10;}
	.st5{fill:none;stroke:#000000;stroke-width:0.5;stroke-miterlimit:10;stroke-dasharray:4;}
	.st6{fill:none;stroke:#000000;stroke-miterlimit:10;}
	.st7{fill:none;stroke:#000000;stroke-width:0.5;stroke-miterlimit:10;}
	.st8{fill:none;stroke:#000000;stroke-width:0.5;stroke-miterlimit:10;stroke-dasharray:4.0075,4.0075;}
	.st9{fill:#FFFFFF;stroke:#000000;stroke-miterlimit:10;}
	.st10{fill:#FFFFFF;}
	.st11{fill:#F4F4F4;}
	.st12{fill:#EBB000;}
	.st13{fill:#F6DE94;}
	.st14{fill:#EEBD2B;}
	.st15{fill:#F9E8B5;}
	.st16{fill:#EEB52F;}
	.st17{fill:#939393;}
	.st18{fill:#A0D19B;}
	.st19{fill:#D6D6D6;}
	.st20{fill:#EBB000;stroke:#000000;stroke-miterlimit:10;}
	.st21{fill:#F6DE94;stroke:#000000;stroke-miterlimit:10;}
	.st22{fill:#EEBD2B;stroke:#000000;stroke-miterlimit:10;}
	.st23{fill:#F9E8B5;stroke:#000000;stroke-miterlimit:10;}
	.st24{fill:none;stroke:#EEB52F;stroke-miterlimit:10;}
	.st25{fill:#939393;stroke:#000000;stroke-miterlimit:10;}
	.st26{fill:none;stroke:#000000;stroke-width:0.5;stroke-miterlimit:10;stroke-dasharray:4.0227,4.0227;}
	.st27{fill:#F5F5F5;stroke:#000000;stroke-miterlimit:10;}
	.st28{fill:#375A64;stroke:#000000;stroke-miterlimit:10;}
	.st29{fill:#5D7982;stroke:#000000;stroke-miterlimit:10;}
	.st30{fill:#EEB52F;stroke:#000000;stroke-miterlimit:10;}
	.st31{opacity:0.6;stroke:#000000;stroke-miterlimit:10;}
	.st32{opacity:0.3;stroke:#000000;stroke-miterlimit:10;}
	.st33{fill:#FAFAFA;stroke:#000000;stroke-miterlimit:10;}
	.st34{opacity:0.5;fill:#FFFFFF;stroke:#000000;stroke-miterlimit:10;}
	.st35{fill:none;stroke:#424242;stroke-miterlimit:10;stroke-dasharray:9;}
	
		.st36{fill:none;stroke:#000000;stroke-width:7;stroke-linecap:round;stroke-linejoin:round;stroke-miterlimit:10;stroke-dasharray:14;}
	.st37{fill:#FF0000;stroke:#000000;stroke-miterlimit:10;}
	.st38{fill:#DE191B;stroke:#000000;stroke-miterlimit:10;}
	.st39{fill:#CF3F0C;stroke:#000000;stroke-miterlimit:10;}
	.st40{fill:#D6A218;stroke:#000000;stroke-miterlimit:10;}
	.st41{fill:#E9DA1D;stroke:#000000;stroke-miterlimit:10;}
	.st42{fill:#B8CB1A;stroke:#000000;stroke-miterlimit:10;}
	.st43{fill:#7FB915;stroke:#000000;stroke-miterlimit:10;}
	.st44{fill:#0D8C09;stroke:#000000;stroke-miterlimit:10;}
	.st45{fill:none;stroke:#000000;stroke-width:0.5;stroke-miterlimit:10;stroke-dasharray:3.96,3.96;}
	.st46{fill:#B2B2B2;stroke:#000000;stroke-miterlimit:10;}
	.st47{fill:#F0F0F0;stroke:#000000;stroke-miterlimit:10;}
	.st48{fill:#C3C3C3;stroke:#000000;stroke-miterlimit:10;}
	.st49{fill:#CECECE;stroke:#000000;stroke-miterlimit:10;}
	.st50{fill:#F7F7F7;stroke:#000000;stroke-miterlimit:10;}
	.st51{fill:#F3F3F3;stroke:#000000;stroke-miterlimit:10;}
	.st52{fill:#DCDCDC;stroke:#000000;stroke-miterlimit:10;}
	.st53{opacity:0.5;stroke:#000000;stroke-miterlimit:10;}
	.st54{fill:#D9D9D9;stroke:#000000;stroke-miterlimit:10;}
	.st55{fill:#CCCCCC;stroke:#000000;stroke-miterlimit:10;}
	.st56{fill:#0E0E0E;stroke:#000000;stroke-miterlimit:10;}
	.st57{fill:#C1C1C1;stroke:#000000;stroke-miterlimit:10;}
	.st58{fill:#D0D0D0;stroke:#000000;stroke-miterlimit:10;}
	.st59{fill:#B6B6B6;stroke:#000000;stroke-miterlimit:10;}
	.st60{fill:#EFEFEF;stroke:#000000;stroke-miterlimit:10;}
	.st61{fill:#BBBBBB;stroke:#000000;stroke-miterlimit:10;}
	.st62{fill:#AAAAAA;stroke:#000000;stroke-miterlimit:10;}
	.st63{fill:#999999;stroke:#000000;stroke-miterlimit:10;}
	.st64{fill:none;}
	.st65{font-family:'MyriadPro-Regular';}
	.st66{font-size:33.127px;}
</style>
<g>
	<path class="st0" d="M635.3,471.61c-6.13,4.82-10.96,8.73-15.92,12.48c-7.26,5.48-6.96,17.88,0.63,22.52
		c18.27,11.17,18.27,11.17,10.88,31.15c-5.55,15.02-5.64,15.49-22.3,12.42c-7.65-1.41-13.45-0.48-17.34,6.33
		c-1.48,2.59-2.57,5.93-2.38,8.83c0.32,4.79,1.91,9.48,2.81,14.25c1.05,5.51-0.88,9.33-6.33,11.51c-5.3,2.12-10.62,4.37-15.55,7.22
		c-6.91,3.98-11.9,1.89-16.21-3.92c-1.53-2.06-3.04-4.15-4.54-6.23c-7.81-10.82-18.69-10.61-25.8,0.51
		c-0.92,1.44-1.74,2.95-2.63,4.4c-6.36,10.37-8.1,10.99-19.23,6.89c-1.88-0.69-3.75-1.39-5.63-2.09
		c-17.9-6.62-17.9-6.62-14.57-25.92c1.86-10.77-6.67-19.03-17.14-16.57c-2.5,0.59-4.98,1.27-7.49,1.81
		c-11.04,2.38-13.38,1.41-17.8-8.93c-9.11-21.31-15.32-19.33,8.64-36.16c5.24-3.69,4.34-17.08-1.19-20.43
		c-24.07-14.59-18.73-11.94-11.16-33.86c4.36-12.64,5.43-12.99,18.66-11.08c7.05,1.01,13.95,3.84,19.7-4.57
		c2.97-4.35,3.72-7.36,2.55-12.09c-4.87-19.61-4.75-19.64,13.52-28.03c15.85-7.28,15.85-7.28,26.3,7.02
		c8.47,11.59,18.75,11.09,26.6-1.29c1.53-2.41,3.05-4.82,4.66-7.17c3.51-5.1,7.78-7.1,13.88-4.05c3.81,1.91,8.01,3.05,12.03,4.54
		c13.5,4.98,13.96,5.65,11.46,19.86c-1.24,7.04-2.88,13.42,4.84,18.78c3.98,2.76,6.75,3.73,11.26,2.62
		c20.37-5,20.47-4.92,29.17,14.26C631.81,461.33,633.33,466.3,635.3,471.61z M580.61,516.59c9.99-27.1-3.63-56.56-30.61-66.22
		c-26.59-9.52-56.15,4.15-65.91,30.47c-9.93,26.76,3.93,56.33,31.03,66.17C541.92,556.76,570.74,543.37,580.61,516.59z"/>
	<path class="st0" d="M265.95,225.03c-6.13,4.82-10.96,8.73-15.92,12.48c-7.26,5.48-6.96,17.88,0.63,22.52
		c18.27,11.17,18.27,11.17,10.88,31.15c-5.55,15.02-5.64,15.49-22.3,12.42c-7.65-1.41-13.45-0.48-17.34,6.33
		c-1.48,2.59-2.57,5.93-2.38,8.83c0.32,4.79,1.91,9.48,2.81,14.25c1.05,5.51-0.88,9.33-6.33,11.51c-5.3,2.12-10.62,4.37-15.55,7.22
		c-6.91,3.98-11.9,1.89-16.21-3.92c-1.53-2.06-3.04-4.15-4.54-6.23c-7.81-10.82-18.69-10.61-25.8,0.51
		c-0.92,1.44-1.74,2.95-2.63,4.4c-6.36,10.37-8.1,11-19.23,6.89c-1.88-0.69-3.75-1.39-5.63-2.09c-17.9-6.62-17.9-6.62-14.57-25.92
		c1.86-10.77-6.67-19.03-17.14-16.57c-2.5,0.59-4.98,1.27-7.49,1.81c-11.04,2.38-13.38,1.41-17.8-8.93
		c-9.11-21.31-15.32-19.33,8.64-36.16c5.24-3.69,4.34-17.08-1.19-20.43c-24.07-14.59-18.73-11.94-11.16-33.86
		c4.36-12.64,5.43-12.99,18.66-11.08c7.05,1.01,13.95,3.84,19.7-4.57c2.97-4.35,3.72-7.36,2.55-12.09
		c-4.87-19.61-4.75-19.64,13.52-28.03c15.85-7.28,15.85-7.28,26.3,7.02c8.47,11.59,18.75,11.09,26.6-1.29
		c1.53-2.41,3.05-4.82,4.66-7.17c3.51-5.1,7.78-7.1,13.88-4.05c3.81,1.91,8.01,3.05,12.03,4.54c13.5,4.98,13.96,5.65,11.46,19.86
		c-1.24,7.04-2.88,13.42,4.84,18.78c3.98,2.76,6.75,3.73,11.26,2.62c20.37-5,20.47-4.92,29.17,14.26
		C262.45,214.75,263.98,219.72,265.95,225.03z M211.26,270.01c9.99-27.1-3.63-56.56-30.61-66.22c-26.59-9.52-56.15,4.15-65.91,30.47
		c-9.93,26.76,3.93,56.32,31.03,66.17C172.56,310.18,201.38,296.79,211.26,270.01z"/>
	<path class="st0" d="M692.86,337.11c-3.74,2.94-6.68,5.32-9.7,7.61c-4.42,3.34-4.24,10.9,0.39,13.73
		c11.14,6.81,11.14,6.81,6.63,18.99c-3.38,9.15-3.44,9.44-13.6,7.57c-4.66-0.86-8.2-0.29-10.57,3.86c-0.9,1.58-1.57,3.62-1.45,5.38
		c0.19,2.92,1.16,5.78,1.71,8.69c0.64,3.36-0.53,5.69-3.86,7.01c-3.23,1.29-6.47,2.67-9.48,4.4c-4.21,2.43-7.26,1.15-9.88-2.39
		c-0.93-1.26-1.85-2.53-2.77-3.8c-4.76-6.59-11.39-6.47-15.73,0.31c-0.56,0.88-1.06,1.8-1.61,2.68c-3.88,6.32-4.94,6.7-11.72,4.2
		c-1.15-0.42-2.29-0.85-3.43-1.27c-10.91-4.04-10.91-4.04-8.88-15.8c1.13-6.57-4.07-11.6-10.45-10.1c-1.53,0.36-3.04,0.78-4.57,1.11
		c-6.73,1.45-8.16,0.86-10.85-5.45c-5.55-12.99-9.34-11.78,5.26-22.04c3.2-2.25,2.64-10.41-0.73-12.46
		c-14.67-8.9-11.42-7.28-6.81-20.64c2.66-7.71,3.31-7.92,11.37-6.76c4.3,0.62,8.51,2.34,12.01-2.79c1.81-2.65,2.27-4.49,1.55-7.37
		c-2.97-11.95-2.9-11.97,8.24-17.09c9.66-4.44,9.66-4.44,16.03,4.28c5.16,7.07,11.43,6.76,16.22-0.79c0.93-1.47,1.86-2.94,2.84-4.37
		c2.14-3.11,4.74-4.33,8.46-2.47c2.32,1.16,4.88,1.86,7.34,2.77c8.23,3.04,8.51,3.44,6.99,12.11c-0.76,4.29-1.75,8.18,2.95,11.45
		c2.42,1.69,4.11,2.27,6.87,1.6c12.42-3.05,12.48-3,17.78,8.69C690.73,330.85,691.66,333.88,692.86,337.11z M659.52,364.53
		c6.09-16.52-2.21-34.48-18.66-40.37c-16.21-5.8-34.23,2.53-40.18,18.58c-6.05,16.31,2.4,34.34,18.91,40.34
		C635.93,389.02,653.5,380.86,659.52,364.53z"/>
	<path class="st0" d="M612.41,238.15c-3.74,2.94-6.68,5.32-9.7,7.61c-4.42,3.34-4.24,10.9,0.39,13.73
		c11.14,6.81,11.14,6.81,6.63,18.99c-3.38,9.15-3.44,9.44-13.6,7.57c-4.66-0.86-8.2-0.29-10.57,3.86c-0.9,1.58-1.57,3.62-1.45,5.38
		c0.19,2.92,1.16,5.78,1.71,8.69c0.64,3.36-0.53,5.69-3.86,7.01c-3.23,1.29-6.47,2.67-9.48,4.4c-4.21,2.43-7.26,1.15-9.88-2.39
		c-0.93-1.26-1.85-2.53-2.77-3.8c-4.76-6.59-11.39-6.47-15.73,0.31c-0.56,0.88-1.06,1.8-1.61,2.68c-3.88,6.32-4.94,6.7-11.72,4.2
		c-1.15-0.42-2.29-0.85-3.43-1.27c-10.91-4.04-10.91-4.04-8.88-15.8c1.13-6.57-4.07-11.6-10.45-10.1c-1.53,0.36-3.04,0.78-4.57,1.11
		c-6.73,1.45-8.16,0.86-10.85-5.45c-5.55-12.99-9.34-11.78,5.26-22.04c3.2-2.25,2.64-10.41-0.73-12.46
		c-14.67-8.9-11.42-7.28-6.81-20.64c2.66-7.71,3.31-7.92,11.37-6.76c4.3,0.62,8.51,2.34,12.01-2.79c1.81-2.65,2.27-4.49,1.55-7.37
		c-2.97-11.95-2.9-11.97,8.24-17.09c9.66-4.44,9.66-4.44,16.03,4.28c5.16,7.07,11.43,6.76,16.22-0.79c0.93-1.47,1.86-2.94,2.84-4.37
		c2.14-3.11,4.74-4.33,8.46-2.47c2.32,1.16,4.88,1.86,7.34,2.77c8.23,3.04,8.51,3.44,6.99,12.11c-0.76,4.29-1.75,8.18,2.95,11.45
		c2.42,1.69,4.11,2.27,6.87,1.6c12.42-3.05,12.48-3,17.78,8.69C610.28,231.89,611.21,234.92,612.41,238.15z M579.07,265.57
		c6.09-16.52-2.21-34.48-18.66-40.37c-16.21-5.8-34.23,2.53-40.18,18.58c-6.05,16.31,2.4,34.34,18.91,40.34
		C555.49,290.06,573.06,281.9,579.07,265.57z"/>
	<g>
		<path class="st9" d="M310.02,322.01v-13.69c0-6.22-5.04-11.26-11.26-11.26H178.93c-6.22,0-11.26,5.04-11.26,11.26v242.03h309.99
			V322.01H310.02z"/>
		<path class="st46" d="M311.02,322.01v-13.69c0-6.22-5.04-11.26-11.26-11.26H179.92c-6.22,0-11.26,5.04-11.26,11.26v242.03h309.99
			V322.01H311.02z"/>
		<polygon class="st47" points="179.05,331.47 179.05,550.35 466.21,550.35 466.21,330.4 		"/>
		<polygon class="st48" points="194.82,331.47 194.82,550.35 481.98,550.35 481.98,330.4 		"/>
		<path class="st9" d="M493.56,322.01h-283.7c-5.82,0-10.11,3.94-10.95,9.39v218.95h309.63l0-213.39
			C508.61,329.09,501.51,322.01,493.56,322.01z"/>
		<g>
			<g>
				
					<rect x="223.51" y="277.51" transform="matrix(1 -2.800578e-03 2.800578e-03 1 -0.9524 0.8595)" class="st33" width="165.81" height="126.01"/>
				
					<rect x="227.66" y="281.62" transform="matrix(1 -2.800559e-03 2.800559e-03 1 -0.9497 0.8592)" class="st49" width="157.33" height="115.84"/>
				<polygon class="st50" points="241.08,388.35 342.19,388.07 286.91,335.04 				"/>
				<polygon class="st50" points="287.06,388.22 372.01,387.99 325.91,344.15 				"/>
				<circle class="st50" cx="318.48" cy="323.24" r="11.71"/>
			</g>
		</g>
		<g>
			<g>
				
					<rect x="257.65" y="254.76" transform="matrix(1 -3.204691e-03 3.204691e-03 1 -1.0289 1.0736)" class="st33" width="153.72" height="133.68"/>
				
					<rect x="261.92" y="259.12" transform="matrix(1 -3.223748e-03 3.223748e-03 1 -1.0317 1.0797)" class="st49" width="144.99" height="122.89"/>
			</g>
			<g>
				<rect x="275.96" y="276.32" class="st51" width="57.74" height="5.07"/>
				<rect x="275.96" y="290.02" class="st51" width="117.48" height="5.07"/>
				<rect x="275.96" y="303.97" class="st51" width="117.48" height="5.07"/>
			</g>
		</g>
		<path class="st52" d="M494.92,322.01h-283.7c-5.82,0-10.11,3.94-10.95,9.39v219.73H509.9l0-214.18
			C509.97,329.09,502.88,322.01,494.92,322.01z"/>
		<rect x="167.67" y="549.09" class="st9" width="31.24" height="1.26"/>
		<polygon class="st53" points="167.67,414.62 179.05,422.04 194.09,422.04 198.91,425.76 198.91,422.23 508.54,422.23 
			508.54,414.62 		"/>
		<g>
			<g>
				<rect x="163.27" y="378.29" class="st54" width="351.57" height="39.72"/>
				<rect x="194.92" y="378.29" class="st55" width="319.92" height="39.72"/>
			</g>
		</g>
		<g>
			<polygon class="st56" points="283.37,378.29 283.37,418 311.16,418 291.67,378.29 			"/>
			<g>
				<g>
					<path class="st57" d="M284.21,378.31h-7.38V418h7.38c2.42,0,4.61-2.18,6.18-5.84c1.61-3.58,2.57-8.55,2.57-14.05
						C292.97,387.2,289.06,378.31,284.21,378.31z M283.52,398.11c0-3.31,1.08-6.02,2.46-6.46c1.38,0.44,2.46,3.14,2.46,6.46
						c0,3.4-1.08,6.11-2.46,6.54C284.6,404.22,283.52,401.51,283.52,398.11z"/>
					<g>
						<path class="st58" d="M280.05,378.31h-3.22V418h3.22c2.53,0,4.82-2.18,6.47-5.84c1.69-3.58,2.69-8.55,2.69-14.05
							C289.21,387.2,285.11,378.31,280.05,378.31z M282.14,404.65c-1.45-0.44-2.57-3.14-2.57-6.54c0-3.31,1.13-6.02,2.57-6.46
							c1.45,0.44,3.54,3.14,3.54,6.46C285.68,401.51,283.59,404.22,282.14,404.65z"/>
					</g>
				</g>
				<g>
					<path class="st57" d="M280.68,378.31h-7.38V418h7.38c2.42,0,4.61-2.18,6.18-5.84c1.61-3.58,2.57-8.55,2.57-14.05
						C289.44,387.2,285.52,378.31,280.68,378.31z M279.99,398.11c0-3.31,1.08-6.02,2.46-6.46c1.38,0.44,2.46,3.14,2.46,6.46
						c0,3.4-1.08,6.11-2.46,6.54C281.06,404.22,279.99,401.51,279.99,398.11z"/>
					<g>
						<path class="st54" d="M276.51,378.31h-3.22V418h3.22c2.53,0,4.82-2.18,6.47-5.84c1.69-3.58,2.69-8.55,2.69-14.05
							C285.68,387.2,281.58,378.31,276.51,378.31z M279.57,404.65c-1.45-0.44-2.57-3.14-2.57-6.54c0-3.31,1.13-6.02,2.57-6.46
							c1.45,0.44,2.57,3.14,2.57,6.46C282.14,401.51,281.01,404.22,279.57,404.65z"/>
					</g>
					<path class="st59" d="M280.71,418.26c0.31,0,2.11-0.08,4.01-1.91c2.16-2.07,4.73-6.75,4.73-17.29c0-10.04-2.35-15.2-4.32-17.77
						c-2.17-2.83-4.33-3.23-4.42-3.24c-0.14-0.02-0.27,0.07-0.3,0.21c-0.02,0.14,0.07,0.27,0.21,0.3l0,0c0.02,0,2.09,0.4,4.14,3.09
						c1.9,2.51,4.17,7.56,4.17,17.41c0,10.33-2.48,14.89-4.55,16.9c-1.89,1.82-3.69,1.79-3.7,1.78c-0.14-0.01-0.26,0.11-0.27,0.25
						c-0.01,0.14,0.1,0.26,0.25,0.27C280.67,418.26,280.69,418.26,280.71,418.26z"/>
				</g>
			</g>
			<g>
				<path class="st60" d="M279.57,404.12c-0.35,0.09-0.61,0.17-0.96,0.26c0.09,0.09,0.09,0.09,0,0.09
					c-14.05,4.19-24.43,17.1-24.43,32.54v33.16h-11.17v-33.16c0-21.46,15.09-39.43,35.25-43.97c0.44-0.17,0.87-0.26,1.31-0.35
					C282.8,392,283.06,403.6,279.57,404.12z"/>
				<path class="st60" d="M292.79,392.1v11.11c14.39,1.85,26.02,12.53,29.11,26.49c0.09,0.35,0.17,0.61,0.17,0.87
					c0.17,0.79,0.26,1.48,0.35,2.27c0.17,1.4,0.26,2.79,0.26,4.19v33.16h11.08v-33.16C333.76,413.57,315.74,394.35,292.79,392.1z"/>
				<path class="st61" d="M279.83,400.85c-26.19,4.59-29.56,33.1-29.56,33.1v36.24h3.93v-33.16c0-15.77,10.81-28.95,25.36-32.88
					c1.11-0.36,1.81-3.62,1.81-3.62S280.68,400.68,279.83,400.85z"/>
				<path class="st62" d="M292.79,400.85v2.36c14.39,1.85,26.02,12.53,29.11,26.49C321.27,421.55,314.52,403.75,292.79,400.85z"/>
				<path class="st63" d="M279.57,404.12c-0.35,0.09-0.61,0.17-0.96,0.26c0.26-0.7,1.68-2.28,1.86-5.6c0.17-3.4-0.98-5.7-2.2-5.74
					c0.44-0.17,0.87-0.26,1.31-0.35C282.8,392,283.06,403.6,279.57,404.12z"/>
			</g>
			<g>
				<rect x="233.43" y="461.13" class="st30" width="110.02" height="89.93"/>
				<g>
					<path d="M274.22,496.91c0,5.55,3.32,10.39,8.03,12.51v23.16c0,2.73,1.92,5.02,4.45,5.55h0.26c0.26,0.09,0.61,0.09,0.87,0.09
						c3.05,0,5.58-2.55,5.58-5.64v-23.16c4.71-2.2,8.03-6.96,8.03-12.51c0-7.58-6.11-13.65-13.61-13.65c-0.35,0-0.7,0-1.05,0.09
						C279.72,483.88,274.22,489.69,274.22,496.91z"/>
					<path d="M274.22,496.91c0,5.55,3.32,10.39,8.03,12.51v23.16c0,2.73,1.92,5.02,4.45,5.55h0.26c2.53-0.53,4.45-2.82,4.45-5.55
						v-23.16c4.71-2.2,8.03-6.96,8.03-12.51c0-7.22-5.58-13.12-12.65-13.56C279.72,483.88,274.22,489.69,274.22,496.91z"/>
				</g>
			</g>
		</g>
	</g>
	<g>
		<g>
			<path class="st9" d="M480.28,209.87c0,0,35.08,20.63,42.3,47.46c7.22,26.82,4.13,36.11,4.13,36.11h-43.33
				c0,0,5.12-35.18-17.56-41.84c-22.68-6.65-9.26-7.69-9.26-7.69L480.28,209.87z"/>
			<path d="M433.91,581.51l-3.15,28.71c0,0,12.25,5.52,25.55,1.47c0,0,20.24,5.73,48.06-2.74c0,0,1.42-8.36-6.47-12.57
				s-37.91-2.99-43.75-9.14c-5.84-6.15-2.07-6.69-2.07-6.69"/>
			<path class="st4" d="M383.97,343.58c0,0,4.46,22.51,14.03,43.77c11.38,25.28,18.96,36.66,20.22,68.26s6.32,72.05-2.66,124.11
				c0,0,11.38,7.58,35.39,7.58c24.02,0,22.75-8.85,22.75-8.85s8.72-82.92,8.85-122.61c0.13-40.69-2.4-57.12-13.34-111.99"/>
			<path d="M388.9,578.58l-8.03,27.74c0,0,11.12,7.54,24.92,5.83c0,0,18.96,9.12,47.81,5.55c0,0,2.83-7.99-4.22-13.49
				c-7.05-5.5-36.83-9.45-41.53-16.51c-4.7-7.06-0.89-6.94-0.89-6.94"/>
			<path class="st4" d="M380.52,335.61c0,0,0.54,22.95,6.31,45.53c6.87,26.86,12.39,39.37,8.21,70.72
				c-4.18,31.35-6.13,72.07-23.91,121.82c0,0,9.91,9.42,33.57,13.54c23.66,4.12,23.93-4.81,23.93-4.81s22.82-80.19,29.75-119.28
				c7.11-40.06,7.44-56.68,6.07-112.62"/>
			<path class="st6" d="M474.98,177.76c0,0-1.26,16.43-10.11,17.7c-8.85,1.26-8.85-8.85-8.85-8.85s-2.53-11.38,0-11.38
				c2.83,0,2.53,2.53,2.53,2.53l1.26-8.85h8.85L474.98,177.76z"/>
			<path d="M464.87,172.7c0,0,6.32,7.58,10.11,7.58c3.79,0,8.85-5.06,8.85-11.38s-3.79-10.11-3.79-10.11s-2.53,5.06-5.06,5.06
				c-2.53,0-10.11-3.79-16.43,1.26c-3.61,2.89-3.74,7-3.16,9.48c0.43,1.85,1.26,0,1.26,0l1.26,1.26l0.63,1.9
				C458.55,177.76,463.61,176.49,464.87,172.7z"/>
			<path class="st6" d="M464.87,195.45v16.43c0,0-1.26,2.53-5.06,2.53c-3.79,0-11.38-7.58-11.38-16.43l7.09-13.63"/>
			<path class="st9" d="M450.96,194.19c0,0-10.11-5.06-17.7-5.06c-7.58,0-15.04-0.24-15.04-0.24s-32.99,38.16-40.58,77.34
				c-7.58,39.19-5.06,70.79-5.06,70.79s3.79,12.64,51.83,11.38s46.77-7.58,46.77-7.58s-11.38-16.43-12.64-45.51
				c-1.26-29.07,21.49-85.95,21.49-85.95s-7.44-7.31-15.1-9.97C464.94,199.38,463.61,215.68,450.96,194.19z"/>
			<path d="M406.72,234.64c0,0-20.65,15.45-29.92,36.17c0,0,1.23-15.94,11.78-36.17C388.59,234.64,401.67,229.58,406.72,234.64z"/>
			<g>
				<path class="st10" d="M432.83,322.54c-21.82,0-46.62-3.8-65.11-31.96c-10.05-15.31-0.45-52.24,14.45-75.81
					c10.83-17.12,25.08-26.08,33.57-26.08c1.13,0,2.13,0.16,2.97,0.49c0.11,0.03,5.4,1.64,3.81,15.99
					c-1.01,9.1-5.66,18.97-5.71,19.07c-0.08,0.19-6.13,16.27-8.44,50.38c-0.23,3.33,0.86,6.34,3.22,8.95
					c9.12,10.08,34.24,11.24,36.48,11.33c0.84,0.49,6.98,4.38,8.67,13.33c1.71,9.05-6.27,13.24-7.23,13.71
					C444.89,322.22,438.83,322.54,432.83,322.54z"/>
				<path d="M415.75,188.19v1c1.07,0,2,0.15,2.79,0.45l0.04,0.02l0.06,0.02c0.05,0.01,4.93,1.65,3.4,15.43
					c-1,9-5.62,18.81-5.67,18.91l-0.02,0.03l-0.01,0.04c-0.25,0.65-6.14,16.31-8.45,50.49c-0.24,3.47,0.89,6.6,3.34,9.32
					c9.1,10.06,33.75,11.36,36.71,11.49c1.09,0.67,6.74,4.49,8.33,12.93c1.6,8.46-5.66,12.51-6.87,13.12
					c-4.61,0.28-10.61,0.61-16.55,0.61c-21.69,0-46.33-3.77-64.69-31.74c-9.95-15.16-0.37-51.83,14.45-75.26
					c10.73-16.97,24.8-25.85,33.15-25.85L415.75,188.19 M415.75,188.19c-8.19,0-22.61,8.31-33.99,26.31
					c-14.75,23.33-24.7,60.72-14.44,76.35c17.67,26.92,40.97,32.19,65.52,32.19c5.56,0,11.18-0.27,16.81-0.62
					c0,0,9.47-4.36,7.6-14.3c-1.87-9.94-9.02-13.73-9.02-13.73s-40.59-1.32-39.34-19.75c2.34-34.42,8.39-50.2,8.39-50.2
					s4.72-9.94,5.76-19.23c1.68-15.08-4.13-16.51-4.13-16.51C418,188.37,416.94,188.19,415.75,188.19L415.75,188.19z"/>
			</g>
			<g>
				<path d="M464.4,199.3c0.23,1,0.23,2.02,0.1,3.06c-0.16,1.03-0.45,2.13-1.37,3.12c-0.45,0.48-1.14,0.91-1.89,1.02
					c-0.74,0.14-1.48,0.03-2.08-0.18c-1.22-0.42-2.11-1.11-2.91-1.81c-1.56-1.45-2.7-3.11-3.67-4.85c-0.95-1.74-1.69-3.58-2.15-5.55
					c1.53,1.33,2.8,2.79,4.08,4.19c1.27,1.4,2.5,2.81,3.76,3.99c0.63,0.58,1.29,1.08,1.88,1.37c0.29,0.15,0.54,0.21,0.75,0.22
					c0.21,0.02,0.42-0.02,0.68-0.18c0.53-0.3,1.08-1.03,1.53-1.81C463.59,201.11,463.97,200.22,464.4,199.3z"/>
			</g>
		</g>
		<g>
			<path class="st30" d="M485.54,246.14c-9.17,19.26-36.26,37.23-68.69,44.17c-2.03,0.43-3.64,2.42-3.64,4.46v56.94
				c0,25.08,10.56,47.03,29.1,60.46l44,31.9c1.44,1.05,3.65,0.64,5.1-0.95l44-48.29c18.54-20.34,29.1-46.22,29.1-71.3V266.6
				c0-2.03-1.6-3.42-3.64-3.1c-32.43,5.13-59.52-2.75-68.69-18.6C490.8,242.47,486.95,243.19,485.54,246.14z"/>
			<g>
				<path class="st9" d="M473.86,313.89v39.52l7.49-1.39v-37.03c0-4.82,3.91-9.46,8.74-10.36h0c4.82-0.9,8.74,2.29,8.74,7.11v37.03
					l7.49-1.39v-39.52c0-8.96-7.26-13.21-16.22-11.54l0,0C481.12,297.97,473.86,304.93,473.86,313.89z"/>
				<path class="st9" d="M491.27,373.46l-2.37,0.44c-13.59,2.53-24.61-6.44-24.61-20.03v-19.21c0-4.29,3.48-8.42,7.77-9.21
					l36.05-6.71c4.29-0.8,7.77,2.03,7.77,6.32v19.21C515.88,357.87,504.86,370.93,491.27,373.46z"/>
				<path d="M495.08,337.81c0-2.76-2.24-4.58-4.99-4.06c-2.76,0.51-4.99,3.16-4.99,5.92c0,2.26,1.51,3.89,3.58,4.12l-3.16,11.61
					l9.15-1.7l-3.16-10.44C493.57,342.27,495.08,340.08,495.08,337.81z"/>
			</g>
		</g>
	</g>
	<g>
		<g>
			<path class="st4" d="M125.22,578.44c0,0,49.65,2.32,99.36,2.1c38.22-0.17,59.3-31.88,38.1-53.99c-21.2-22.11-66.24-1.4-66.24-1.4
				l-25.67,8.38l-49.73,1.5l-21.9,11.01l-34.96,26.02"/>
			<path d="M139.99,567.68l-24.39-15.9c0,0-10.54,8.51-12.95,22.31c0,0-14.36,15.6-19.4,44.47c0,0,6.87,5.08,14.24-0.1
				c7.37-5.18,19.94-32.73,28.13-35.18c8.19-2.45,6.96,1.18,6.96,1.18"/>
			<path class="st4" d="M140.8,564.75c38.4-8.11,59.14-24.24,59.14-24.24"/>
			<path d="M229.41,561.45l22.69-18.24c0,0,11.33,7.42,15.1,20.92c0,0,15.84,14.1,23.71,42.33c0,0-6.34,5.74-14.18,1.31
				c-7.85-4.42-23.09-30.6-31.48-32.22c-8.39-1.63-6.81,1.87-6.81,1.87"/>
			<path class="st4" d="M94.97,562.5c31.68,8.32,140.39-9.77,140.39-9.77c13.74,13.03,10.63,39.73,10.63,39.73
				c-41.14,16.97-98.52,18.31-122.69,16.52c-24.18-1.79-104.37-6.03-89.53-45.22s67.18-24.48,67.18-24.48l0.92-2.11l39.57-2.99
				l29.3,0.62"/>
			<path class="st9" d="M179.48,408.81l2.23,16.41c0,0-0.92,2.7-4.71,3.21c-3.79,0.51-12.39-6.03-13.59-14.87l5.23-14.57"/>
			<path class="st9" d="M165.42,409.44c0,0-10.79-3.68-18.36-2.65s-15.15,2.06-15.15,2.06s-27.68,42.34-29.94,82.5
				c-2.26,40.17-3.85,47-3.85,47s5.5,12.11,53.31,4.33c47.8-7.78,45.68-13.92,45.68-13.92s-5.19,9.52-10.4-19.34
				s9.8-88.77,9.8-88.77s-8.43-6.29-16.43-7.91C180.09,412.73,180.96,429.18,165.42,409.44z"/>
			<path d="M126.72,455.84c0,0-18.53,18.24-24.97,40.18c0,0-0.93-16.09,6.86-37.72C108.61,458.3,120.99,451.48,126.72,455.84z"/>
			<path class="st9" d="M196.52,420.64c0,0,41.28,46.76,32.89,82.26c-3.57,15.08-28.72,32.53-28.72,32.53l-12.66-4.09
				c0,0-1.17-5.12-6.02-16.69c0,0,23.09-7.16,18.37-25.1c-4.94-18.77-11.87-27.98-11.87-27.98"/>
			<g>
				<path d="M179.53,412.72c0.36,0.97,0.5,1.98,0.51,3.04c-0.03,1.05-0.17,2.18-0.95,3.29c-0.38,0.54-1.01,1.06-1.75,1.27
					c-0.72,0.24-1.47,0.23-2.09,0.1c-1.27-0.25-2.25-0.82-3.15-1.41c-1.75-1.23-3.12-2.74-4.32-4.34c-1.19-1.61-2.18-3.35-2.91-5.25
					c1.71,1.13,3.17,2.41,4.64,3.64c1.45,1.23,2.87,2.47,4.3,3.48c0.71,0.49,1.44,0.91,2.07,1.11c0.32,0.11,0.57,0.13,0.79,0.12
					c0.22-0.01,0.42-0.08,0.66-0.27c0.49-0.37,0.94-1.18,1.28-2.02C178.97,414.63,179.23,413.7,179.53,412.72z"/>
			</g>
			<g>
				<path class="st9" d="M105.29,535.32c0,0,23.83-1.48,28.91,5.04c5.08,6.52,4.91,14.16,4.91,14.16l-0.05,2.55l-18.04-1.02
					c-0.1-5.74-1.9-5.78-4.75-5.84c-3.82-0.08-6.4,1.14-10.22,1.06c-3.82-0.08-5.93-1.9-5.93-1.9"/>
				<path class="st6" d="M122.84,540.15c0,0,7.64,0.16,8.81,5.28c1.52,6.69,1.06,10.22,1.06,10.22"/>
				<path class="st6" d="M120.21,543.92c0,0,5.07,1.38,6.26,5.23s1.11,7.67,1.11,7.67"/>
				<path class="st6" d="M115.49,535.24c0,0,11.34-2.65,15.11-0.02c3.77,2.63,3.71,5.18,3.71,5.18"/>
			</g>
			<g>
				
					<rect x="158.66" y="504.5" transform="matrix(0.0211 -0.9998 0.9998 0.0211 -400.6925 705.7798)" class="st17" width="2.82" height="106.03"/>
				<path d="M107.59,555.49l105,2.22l-0.04,1.82l-105-2.22L107.59,555.49 M106.61,554.47l-0.08,3.82l107,2.26l0.08-3.82
					L106.61,554.47L106.61,554.47z"/>
			</g>
			<g>
				<polygon class="st19" points="129.58,558.28 144.29,503.51 228.61,505.3 213.9,560.06 				"/>
				<path d="M144.67,504.02l83.29,1.76l-14.44,53.77l-83.29-1.76L144.67,504.02 M143.91,503.01l-14.97,55.76l85.35,1.81l14.97-55.76
					L143.91,503.01L143.91,503.01z"/>
			</g>
			<g>
				<path class="st10" d="M96.06,549.97c-1.92,0-3.37-0.35-3.68-0.43c-14.73-9.24-53.62-33.69-56.21-62.82
					c-1.14-12.89,4.9-25.44,17.96-37.31c22.15-20.13,73.09-38.37,77.63-39.97c0.88,1.1,4.44,6.24,6.19,19.17
					c1.89,13.93-10.04,25.46-11.43,26.75c-2.08,0.09-20.35,1.43-47.6,19.39c-2.7,1.78-4.15,4.26-4.33,7.38
					c-0.88,15.94,32.05,43.78,34.58,45.9c0.33,0.98,2.4,7.97-2.21,15.87C104.03,548.91,99.42,549.97,96.06,549.97z"/>
				<path d="M131.58,410.02c1.09,1.5,4.25,6.7,5.88,18.64c1.81,13.3-9.29,24.44-11.13,26.19c-2.91,0.13-20.68,1.68-47.67,19.47
					c-2.84,1.87-4.37,4.48-4.55,7.76c-0.88,15.98,31.38,43.48,34.65,46.22c0.41,1.3,2.12,7.9-2.21,15.32
					c-2.82,4.83-7.25,5.84-10.48,5.84c-1.74,0-3.08-0.3-3.48-0.4c-14.72-9.24-53.34-33.56-55.91-62.4
					c-1.13-12.72,4.86-25.14,17.79-36.9C76.08,430.12,125.29,412.25,131.58,410.02 M131.91,408.85c0,0-54.7,18.9-78.12,40.19
					C4.67,493.69,67.53,534.52,92.18,550c0,0,1.62,0.47,3.88,0.47c3.4,0,8.26-1.06,11.34-6.34c5.14-8.8,2.21-16.42,2.21-16.42
					s-48.73-40.48-30.41-52.56c29.04-19.14,47.52-19.32,47.52-19.32s13.78-12.16,11.72-27.31
					C136.38,413.38,131.91,408.85,131.91,408.85L131.91,408.85z"/>
			</g>
			<path class="st9" d="M187.18,389.76c0,0,0.97,16.58-7.7,19.05c-8.67,2.46-10.04-7.64-10.04-7.64s-4.07-11.02-1.54-11.36
				c2.82-0.38,2.87,2.18,2.87,2.18l0.06-9.01l8.84-1.2L187.18,389.76z"/>
			<path d="M176.39,386.09c0,0,7.34,6.72,11.13,6.2c3.79-0.51,8.15-6.25,7.29-12.56c-0.86-6.31-5.16-9.59-5.16-9.59
				s-1.84,5.39-4.36,5.74c-2.53,0.34-10.61-2.42-16.24,3.49c-3.22,3.38-2.78,7.5-1.87,9.9c0.68,1.79,1.26-0.17,1.26-0.17l1.43,1.09
				l0.89,1.81C170.77,391.99,175.65,390.04,176.39,386.09z"/>
		</g>
		
			<rect x="203" y="384.88" transform="matrix(0.0211 -0.9998 0.9998 0.0211 -185.2174 609.879)" class="st64" width="31.7" height="29.3"/>
		<text transform="matrix(-0.9998 -0.0211 -0.0211 0.9998 233.3385 407.5041)" class="st65 st66">[ ]</text>
		
			<rect x="88.83" y="324.92" transform="matrix(0.2758 -0.9612 0.9612 0.2758 -263.2433 355.229)" class="st64" width="30.58" height="54.79"/>
		<text transform="matrix(-0.9612 -0.2758 -0.2758 0.9612 128.182 367.7793)" class="st65 st66">&lt;/&gt;</text>
		
			<rect x="214.35" y="432.72" transform="matrix(0.6041 -0.7969 0.7969 0.6041 -258.7738 357.254)" class="st64" width="31.7" height="12.74"/>
		<text transform="matrix(-0.7969 -0.6041 -0.6041 0.7969 230.641 449.0463)" class="st65 st66">{</text>
		
			<rect x="125.15" y="374.28" transform="matrix(0.714 -0.7001 0.7001 0.714 -226.1749 207.5721)" class="st64" width="31.7" height="12.74"/>
		<text transform="matrix(0.7001 0.714 0.714 -0.7001 142.0192 370.7334)" class="st65 st66">{</text>
		
			<rect x="203.88" y="344.23" transform="matrix(0.9079 -0.4191 0.4191 0.9079 -130.977 125.3985)" class="st64" width="32.12" height="33.2"/>
		<text transform="matrix(-0.9079 0.4191 0.4191 0.9079 237.4247 360.3821)" class="st65 st66">&gt;</text>
	</g>
	<polyline class="st5" points="203.86,504.12 203.86,195.94 299.22,195.94 299.22,255.62 	"/>
	<polyline class="st5" points="203.78,275.9 156.32,275.9 156.32,158.28 338.94,158.28 338.94,323.24 	"/>
	<line class="st5" x1="265.82" y1="195.56" x2="265.82" y2="254.98"/>
</g>
</svg>
