<?xml version="1.0" encoding="utf-8"?>
<!-- Generator: Adobe Illustrator 24.0.1, SVG Export Plug-In . SVG Version: 6.00 Build 0)  -->
<svg version="1.1" id="Layer_1" xmlns="http://www.w3.org/2000/svg" xmlns:xlink="http://www.w3.org/1999/xlink" x="0px" y="0px"
	 viewBox="0 0 720 720" style="enable-background:new 0 0 720 720;" xml:space="preserve">
<style type="text/css">
	.st0{opacity:0.2;fill:#C9C7C8;}
	.st1{fill:#C9C7C8;}
	.st2{fill:#BDDEFF;}
	.st3{stroke:#000000;stroke-miterlimit:10;}
	.st4{fill:#A0D19B;stroke:#000000;stroke-miterlimit:10;}
	.st5{fill:none;stroke:#000000;stroke-width:0.5;stroke-miterlimit:10;stroke-dasharray:4;}
	.st6{fill:none;stroke:#000000;stroke-miterlimit:10;}
	.st7{fill:none;stroke:#000000;stroke-width:0.5;stroke-miterlimit:10;}
	.st8{fill:none;stroke:#000000;stroke-width:0.5;stroke-miterlimit:10;stroke-dasharray:4.0075,4.0075;}
	.st9{fill:#FFFFFF;stroke:#000000;stroke-miterlimit:10;}
	.st10{fill:#FFFFFF;}
	.st11{fill:#F4F4F4;}
	.st12{fill:#EBB000;}
	.st13{fill:#F6DE94;}
	.st14{fill:#EEBD2B;}
	.st15{fill:#F9E8B5;}
	.st16{fill:#EEB52F;}
	.st17{fill:#939393;}
	.st18{fill:#A0D19B;}
	.st19{fill:#D6D6D6;}
	.st20{fill:#EBB000;stroke:#000000;stroke-miterlimit:10;}
	.st21{fill:#F6DE94;stroke:#000000;stroke-miterlimit:10;}
	.st22{fill:#EEBD2B;stroke:#000000;stroke-miterlimit:10;}
	.st23{fill:#F9E8B5;stroke:#000000;stroke-miterlimit:10;}
	.st24{fill:none;stroke:#EEB52F;stroke-miterlimit:10;}
	.st25{fill:#939393;stroke:#000000;stroke-miterlimit:10;}
	.st26{fill:none;stroke:#000000;stroke-width:0.5;stroke-miterlimit:10;stroke-dasharray:4.0227,4.0227;}
	.st27{fill:#F5F5F5;stroke:#000000;stroke-miterlimit:10;}
	.st28{fill:#375A64;stroke:#000000;stroke-miterlimit:10;}
	.st29{fill:#5D7982;stroke:#000000;stroke-miterlimit:10;}
	.st30{fill:#EEB52F;stroke:#000000;stroke-miterlimit:10;}
	.st31{opacity:0.6;stroke:#000000;stroke-miterlimit:10;}
	.st32{opacity:0.3;stroke:#000000;stroke-miterlimit:10;}
	.st33{fill:#FAFAFA;stroke:#000000;stroke-miterlimit:10;}
	.st34{opacity:0.5;fill:#FFFFFF;stroke:#000000;stroke-miterlimit:10;}
	.st35{fill:none;stroke:#424242;stroke-miterlimit:10;stroke-dasharray:9;}
	
		.st36{fill:none;stroke:#000000;stroke-width:7;stroke-linecap:round;stroke-linejoin:round;stroke-miterlimit:10;stroke-dasharray:14;}
	.st37{fill:#FF0000;stroke:#000000;stroke-miterlimit:10;}
	.st38{fill:#DE191B;stroke:#000000;stroke-miterlimit:10;}
	.st39{fill:#CF3F0C;stroke:#000000;stroke-miterlimit:10;}
	.st40{fill:#D6A218;stroke:#000000;stroke-miterlimit:10;}
	.st41{fill:#E9DA1D;stroke:#000000;stroke-miterlimit:10;}
	.st42{fill:#B8CB1A;stroke:#000000;stroke-miterlimit:10;}
	.st43{fill:#7FB915;stroke:#000000;stroke-miterlimit:10;}
	.st44{fill:#0D8C09;stroke:#000000;stroke-miterlimit:10;}
	.st45{fill:none;stroke:#000000;stroke-width:0.5;stroke-miterlimit:10;stroke-dasharray:3.96,3.96;}
	.st46{fill:#B2B2B2;stroke:#000000;stroke-miterlimit:10;}
	.st47{fill:#F0F0F0;stroke:#000000;stroke-miterlimit:10;}
	.st48{fill:#C3C3C3;stroke:#000000;stroke-miterlimit:10;}
	.st49{fill:#CECECE;stroke:#000000;stroke-miterlimit:10;}
	.st50{fill:#F7F7F7;stroke:#000000;stroke-miterlimit:10;}
	.st51{fill:#F3F3F3;stroke:#000000;stroke-miterlimit:10;}
	.st52{fill:#DCDCDC;stroke:#000000;stroke-miterlimit:10;}
	.st53{opacity:0.5;stroke:#000000;stroke-miterlimit:10;}
	.st54{fill:#D9D9D9;stroke:#000000;stroke-miterlimit:10;}
	.st55{fill:#CCCCCC;stroke:#000000;stroke-miterlimit:10;}
	.st56{fill:#0E0E0E;stroke:#000000;stroke-miterlimit:10;}
	.st57{fill:#C1C1C1;stroke:#000000;stroke-miterlimit:10;}
	.st58{fill:#D0D0D0;stroke:#000000;stroke-miterlimit:10;}
	.st59{fill:#B6B6B6;stroke:#000000;stroke-miterlimit:10;}
	.st60{fill:#EFEFEF;stroke:#000000;stroke-miterlimit:10;}
	.st61{fill:#BBBBBB;stroke:#000000;stroke-miterlimit:10;}
	.st62{fill:#AAAAAA;stroke:#000000;stroke-miterlimit:10;}
	.st63{fill:#999999;stroke:#000000;stroke-miterlimit:10;}
</style>
<path class="st0" d="M326.52,385.55c-5.09-7.46-9.23-13.36-13.17-19.38c-5.77-8.82-20.12-9.45-26.08-1.04
	c-14.35,20.24-14.35,20.24-36.87,10.13c-16.93-7.6-17.46-7.74-12.6-26.76c2.23-8.73,1.61-15.52-5.95-20.54
	c-2.88-1.91-6.65-3.44-10.02-3.44c-5.56-0.01-11.12,1.46-16.69,2.13c-6.46,0.78-10.72-1.75-12.81-8.22
	c-2.03-6.3-4.22-12.62-7.12-18.55c-4.06-8.31-1.24-13.91,5.81-18.44c2.51-1.61,5.03-3.19,7.56-4.76
	c13.12-8.17,13.73-20.77,1.44-29.87c-1.59-1.18-3.27-2.24-4.88-3.39c-11.49-8.17-12.07-10.23-6.46-22.77
	c0.95-2.12,1.91-4.23,2.86-6.35c9.06-20.17,9.06-20.17,31.11-14.8c12.31,3,22.52-6.22,20.5-18.51c-0.48-2.94-1.08-5.86-1.51-8.81
	c-1.88-12.95-0.58-15.58,11.73-19.88c25.35-8.85,23.55-16.19,41.13,12.83c3.85,6.35,19.4,6.36,23.72,0.23
	c18.77-26.68,15.27-20.71,40.03-10.24c14.27,6.04,14.59,7.3,11.35,22.44c-1.73,8.07-5.54,15.83,3.73,23.13
	c4.79,3.78,8.22,4.88,13.78,3.9c23.05-4.09,23.07-3.95,31.34,17.84c7.17,18.9,7.17,18.9-10.19,29.85
	c-14.07,8.88-14.3,20.8-0.6,30.86c2.66,1.95,5.33,3.9,7.92,5.95c5.62,4.46,7.6,9.55,3.59,16.37c-2.51,4.26-4.16,9.02-6.19,13.55
	c-6.82,15.22-7.63,15.7-23.86,11.69c-8.04-1.99-15.28-4.38-22.1,4.12c-3.51,4.38-4.85,7.51-3.92,12.82
	c4.18,23.95,4.07,24.05-18.78,32.6C338.68,382.31,332.81,383.68,326.52,385.55z M278.82,318.78c30.55,13.68,65.67,0.26,78.97-30.18
	c13.1-29.99-0.38-65.24-30.04-78.6c-30.15-13.59-65.43,0.11-78.95,30.66C235.43,270.88,248.64,305.25,278.82,318.78z"/>
<path class="st0" d="M477.48,462.68c-3.1-4.55-5.63-8.14-8.03-11.82c-3.52-5.38-12.27-5.76-15.9-0.63
	c-8.75,12.34-8.75,12.34-22.48,6.18c-10.32-4.63-10.64-4.72-7.68-16.31c1.36-5.32,0.98-9.46-3.63-12.52
	c-1.76-1.17-4.06-2.1-6.11-2.1c-3.39,0-6.78,0.89-10.18,1.3c-3.94,0.47-6.53-1.07-7.81-5.01c-1.24-3.84-2.57-7.69-4.34-11.31
	c-2.47-5.06-0.76-8.48,3.54-11.24c1.53-0.98,3.07-1.94,4.61-2.9c8-4.98,8.37-12.66,0.88-18.21c-0.97-0.72-1.99-1.37-2.98-2.07
	c-7.01-4.98-7.36-6.24-3.94-13.88c0.58-1.29,1.16-2.58,1.74-3.87c5.52-12.3,5.52-12.3,18.97-9.02c7.5,1.83,13.73-3.79,12.5-11.29
	c-0.29-1.79-0.66-3.57-0.92-5.37c-1.14-7.9-0.35-9.5,7.15-12.12c15.45-5.4,14.36-9.87,25.07,7.82c2.35,3.87,11.83,3.88,14.46,0.14
	c11.44-16.26,9.31-12.63,24.4-6.24c8.7,3.68,8.89,4.45,6.92,13.68c-1.05,4.92-3.38,9.65,2.27,14.1c2.92,2.3,5.01,2.98,8.4,2.38
	c14.05-2.49,14.07-2.41,19.1,10.87c4.37,11.52,4.37,11.52-6.21,18.2c-8.58,5.41-8.71,12.68-0.37,18.81
	c1.62,1.19,3.25,2.38,4.83,3.63c3.43,2.72,4.63,5.82,2.19,9.98c-1.53,2.59-2.54,5.5-3.78,8.26c-4.16,9.28-4.65,9.57-14.55,7.12
	c-4.9-1.21-9.32-2.67-13.47,2.51c-2.14,2.67-2.95,4.58-2.39,7.81c2.55,14.6,2.48,14.66-11.45,19.87
	C484.89,460.71,481.31,461.54,477.48,462.68z M448.41,421.97c18.62,8.34,40.04,0.16,48.14-18.4c7.98-18.28-0.23-39.77-18.31-47.92
	c-18.38-8.28-39.89,0.07-48.13,18.69C421.95,392.77,430,413.73,448.41,421.97z"/>
<path class="st0" d="M598.22,377.46c-3.1-4.55-5.63-8.14-8.03-11.82c-3.52-5.38-12.27-5.76-15.9-0.63
	c-8.75,12.34-8.75,12.34-22.48,6.18c-10.32-4.63-10.64-4.72-7.68-16.31c1.36-5.32,0.98-9.46-3.63-12.52
	c-1.76-1.17-4.06-2.1-6.11-2.1c-3.39,0-6.78,0.89-10.18,1.3c-3.94,0.47-6.53-1.07-7.81-5.01c-1.24-3.84-2.57-7.69-4.34-11.31
	c-2.47-5.06-0.76-8.48,3.54-11.24c1.53-0.98,3.07-1.94,4.61-2.9c8-4.98,8.37-12.66,0.88-18.21c-0.97-0.72-1.99-1.37-2.98-2.07
	c-7.01-4.98-7.36-6.24-3.94-13.88c0.58-1.29,1.16-2.58,1.74-3.87c5.52-12.3,5.52-12.3,18.97-9.02c7.5,1.83,13.73-3.79,12.5-11.29
	c-0.29-1.79-0.66-3.57-0.92-5.37c-1.14-7.9-0.35-9.5,7.15-12.12c15.45-5.4,14.36-9.87,25.07,7.82c2.35,3.87,11.83,3.88,14.46,0.14
	c11.44-16.26,9.31-12.63,24.4-6.24c8.7,3.68,8.89,4.45,6.92,13.68c-1.05,4.92-3.38,9.65,2.27,14.1c2.92,2.3,5.01,2.98,8.4,2.38
	c14.05-2.49,14.07-2.41,19.1,10.87c4.37,11.52,4.37,11.52-6.21,18.2c-8.58,5.41-8.71,12.68-0.37,18.81
	c1.62,1.19,3.25,2.38,4.83,3.63c3.43,2.72,4.63,5.82,2.19,9.98c-1.53,2.59-2.54,5.5-3.78,8.26c-4.16,9.28-4.65,9.57-14.55,7.12
	c-4.9-1.21-9.32-2.67-13.47,2.51c-2.14,2.67-2.95,4.58-2.39,7.81c2.55,14.6,2.48,14.66-11.45,19.87
	C605.64,375.49,602.06,376.32,598.22,377.46z M569.15,336.75c18.62,8.34,40.04,0.16,48.14-18.4c7.98-18.28-0.23-39.77-18.31-47.92
	c-18.38-8.28-39.89,0.07-48.13,18.69C542.69,307.56,550.75,328.51,569.15,336.75z"/>
<g>
	<polygon class="st38" points="652.01,616.52 603.89,588.73 68.1,588.73 68.1,643.97 603.89,643.97 603.89,644.3 	"/>
	<polygon class="st39" points="549.09,545.82 500.97,518.03 68.1,518.03 68.1,573.27 500.97,573.27 500.97,573.6 	"/>
	<polygon class="st40" points="455,475.11 406.88,447.33 68.1,447.33 68.1,502.57 406.88,502.57 406.88,502.9 	"/>
	<polygon class="st41" points="371.97,404.41 323.84,376.63 68.1,376.63 68.1,431.86 323.84,431.86 323.84,432.2 	"/>
	<polygon class="st42" points="287.83,333.71 239.7,305.93 68.1,305.93 68.1,361.16 239.7,361.16 239.7,361.5 	"/>
	<polygon class="st43" points="201.47,263.01 153.35,235.23 68.1,235.23 68.1,290.46 153.35,290.46 153.35,290.79 	"/>
	<polygon class="st44" points="122.86,192.31 74.73,164.53 68.1,164.53 68.1,219.76 74.73,219.76 74.73,220.09 	"/>
</g>
<g>
	<path d="M88.44,198.93h-8.6l-1.63,4.9h-5.21l8.86-23.8h4.54l8.91,23.8h-5.21L88.44,198.93z M81.16,194.96h5.95l-2.99-8.91
		L81.16,194.96z"/>
	<path d="M75.58,274.38v-23.8h8.34c2.89,0,5.08,0.55,6.57,1.66c1.49,1.11,2.24,2.73,2.24,4.86c0,1.17-0.3,2.19-0.9,3.08
		s-1.43,1.54-2.5,1.95c1.22,0.31,2.18,0.92,2.89,1.85c0.7,0.93,1.05,2.06,1.05,3.4c0,2.29-0.73,4.02-2.19,5.2
		c-1.46,1.18-3.54,1.78-6.24,1.8H75.58z M80.48,260.55h3.63c2.47-0.04,3.71-1.03,3.71-2.96c0-1.08-0.31-1.86-0.94-2.33
		c-0.63-0.47-1.62-0.71-2.97-0.71h-3.43V260.55z M80.48,264.01v6.42h4.2c1.15,0,2.06-0.27,2.71-0.83s0.97-1.31,0.97-2.28
		c0-2.18-1.13-3.29-3.38-3.32H80.48z"/>
	<path d="M93.99,336.99c-0.19,2.56-1.13,4.58-2.84,6.05c-1.71,1.47-3.95,2.21-6.74,2.21c-3.05,0-5.45-1.03-7.2-3.08
		c-1.75-2.05-2.62-4.87-2.62-8.46v-1.45c0-2.29,0.4-4.3,1.21-6.05s1.96-3.08,3.46-4.01c1.5-0.93,3.24-1.4,5.22-1.4
		c2.75,0,4.96,0.74,6.64,2.21c1.68,1.47,2.65,3.54,2.91,6.2h-4.9c-0.12-1.54-0.55-2.65-1.28-3.34c-0.74-0.69-1.85-1.04-3.36-1.04
		c-1.63,0-2.86,0.59-3.67,1.76s-1.23,2.99-1.25,5.45v1.8c0,2.57,0.39,4.45,1.17,5.64c0.78,1.19,2.01,1.78,3.69,1.78
		c1.51,0,2.64-0.35,3.39-1.04c0.75-0.69,1.17-1.76,1.28-3.21H93.99z"/>
	<path d="M75.39,415.45v-23.8h7.32c2.09,0,3.96,0.47,5.62,1.41c1.65,0.94,2.94,2.28,3.87,4.02c0.93,1.74,1.39,3.71,1.39,5.93v1.09
		c0,2.21-0.46,4.18-1.37,5.9c-0.91,1.72-2.19,3.06-3.85,4c-1.66,0.95-3.53,1.43-5.61,1.44H75.39z M80.29,395.62v15.89h2.37
		c1.92,0,3.38-0.63,4.4-1.88c1.01-1.25,1.53-3.04,1.55-5.38V403c0-2.42-0.5-4.25-1.5-5.5c-1-1.25-2.47-1.87-4.4-1.87H80.29z"/>
	<path d="M91.17,475.67h-9.42v6.37H92.8v3.94H76.85v-23.8h15.92v3.97H81.75v5.67h9.42V475.67z"/>
	<path d="M91.41,546.8H82v9.73h-4.9v-23.8h15.5v3.97H82v6.15h9.42V546.8z"/>
	<path d="M93.69,624.05c-0.88,1.06-2.13,1.88-3.74,2.46c-1.61,0.58-3.4,0.88-5.36,0.88c-2.06,0-3.87-0.45-5.42-1.35
		c-1.55-0.9-2.75-2.2-3.6-3.92c-0.84-1.71-1.28-3.72-1.3-6.03v-1.62c0-2.38,0.4-4.43,1.2-6.17c0.8-1.74,1.96-3.07,3.46-3.99
		c1.51-0.92,3.28-1.38,5.3-1.38c2.82,0,5.03,0.67,6.62,2.02c1.59,1.35,2.53,3.3,2.83,5.88h-4.77c-0.22-1.36-0.7-2.36-1.45-2.99
		c-0.75-0.63-1.77-0.95-3.08-0.95c-1.67,0-2.94,0.63-3.81,1.88c-0.87,1.25-1.31,3.12-1.32,5.59v1.52c0,2.5,0.47,4.38,1.42,5.66
		c0.95,1.27,2.34,1.91,4.17,1.91c1.84,0,3.15-0.39,3.94-1.18v-4.1h-4.46v-3.61h9.37V624.05z"/>
</g>
<g>
	<path class="st3" d="M373.85,230.14l-14.78,12.46l-1.01-1.89c0,0-2.38-1.74,2.37-6.81l4.46,5.84"/>
	<path class="st4" d="M465.26,365.35c0,0-10.65-1.85-26.53-0.77c-15.88,1.08-45.08,5.71-34.09,67.44c0,0-14.13,6.07-31.74,3
		c0,0-9.75-35.82-0.94-61.05s17.75-42.09,56.98-47.72"/>
	<path d="M404.64,432.02l7.8,17.45c0,0-6.6,5.96-15.8,6.1c0,0-11.59,7.71-30.82,8c0,0-2.59-4.98,1.53-9.22
		c4.12-4.25,23.27-9.56,25.7-14.61c2.43-5.06-0.05-4.63-0.05-4.63"/>
	<path class="st5" d="M445.94,343.56c0,0-38.45,1.43-47.43,15.79c-8.98,14.36-14.13,44.69-9.7,76.26"/>
	<path class="st4" d="M479.94,321.02c0,0,2.91,13.98-4.22,27.66c-7.13,13.67-20.31,41.48-13.3,61.2
		c7.01,19.72,9.66,42.08,31.43,69.39c0,0-5.12,7.46-19.87,13.37c-14.75,5.91-16.15,0.17-16.15,0.17s-25.97-44.55-31.74-70.17
		s-1.94-77.26,5.71-99.61"/>
	<path d="M476.81,491.88l9,16.85c0,0-6.16,6.41-15.33,7.19c0,0-11.02,8.5-30.19,10.15c0,0-2.93-4.78,0.88-9.31
		c3.81-4.52,22.54-11.17,24.61-16.39c2.07-5.21-0.38-4.62-0.38-4.62"/>
	<path class="st6" d="M429.22,219.54c0,0-0.3,10.9,5.44,12.34c5.74,1.44,6.43-5.22,6.43-5.22s2.44-7.31,0.78-7.49
		c-1.86-0.19-1.84,1.49-1.84,1.49l-0.22-5.91l-5.82-0.61L429.22,219.54z"/>
	<path d="M436.22,216.9c0,0-4.68,4.56-7.17,4.3s-5.48-3.93-5.04-8.09c0.43-4.16,3.19-6.39,3.19-6.39s1.32,3.5,2.98,3.67
		s6.91-1.8,10.73,1.96c2.18,2.15,1.98,4.87,1.43,6.46c-0.41,1.19-0.83-0.09-0.83-0.09l-0.92,0.75l-0.55,1.2
		C440.03,220.66,436.79,219.48,436.22,216.9z"/>
	<g>
		<g>
			<path class="st7" d="M459.54,326.33c0,0-0.26,0.66-0.72,1.86"/>
			<path class="st45" d="M457.44,331.9c-4.73,12.93-15.73,45.59-15.23,68.06c0.55,24.53,27.85,73.29,35.58,86.61"/>
			<path class="st7" d="M478.79,488.28c0.65,1.11,1.02,1.72,1.02,1.72"/>
		</g>
	</g>
	<path class="st6" d="M434.66,231.87l-1.13,10.81c0,0,0.66,1.75,3.15,2.01s8.01-4.21,8.61-10.03l-3.73-9.45"/>
	<path class="st9" d="M443.9,232c0,0,7-2.63,11.99-2.11s9.98,1.04,9.98,1.04s19.03,27.21,21.33,53.52s-1.53,46.93-1.53,46.93
		s-3.36,8.06-34.89,3.93c-31.52-4.13-30.26-8.2-30.26-8.2s8.61-10.03,11.44-29.08c2.83-19.05-8.25-58.04-8.25-58.04
		s5.4-4.3,10.62-5.53C434.34,234.46,434.1,245.27,443.9,232z"/>
	<path d="M470.24,261.65c0,0,12.53,11.59,17.21,25.85c0,0,0.28-10.58-5.27-24.61C482.17,262.89,473.91,258.67,470.24,261.65z"/>
	<path class="st9" d="M506.77,325.45l-16.02,23.25c-0.37,0.53-1.06,0.72-1.65,0.45l0,0c-0.73-0.34-0.99-1.25-0.55-1.92l4.27-6.56
		l-6.75,10.49c-0.35,0.55-1.06,0.76-1.65,0.48l0,0c-0.72-0.33-0.98-1.23-0.55-1.9l6.55-10.19l-7.88,11.73
		c-0.36,0.54-1.07,0.74-1.66,0.46l-0.04-0.02c-0.71-0.33-0.98-1.21-0.58-1.88l7.15-11.98L481,348.91c-0.51,0.88-1.64,1.19-2.53,0.69
		l-0.25-0.14c-0.64-0.36-0.86-1.17-0.51-1.8l9.49-16.88l-5.73,8.13c-0.3,0.54-0.94,0.8-1.54,0.62l-1-0.3
		c-0.8-0.24-1.18-1.16-0.78-1.9l6.58-10.02c0,0,1.69-3.01,5.78-4.9c4.09-1.89,5.67-3.51,5.67-3.51"/>
	<g>
		<path class="st9" d="M506.06,313.99c0,0-28.4-11.81-38.37-17.43l-4.77-19.62c0,0,23.36,11.86,39.37,19.07L506.06,313.99z"/>
		<path class="st9" d="M506.97,312.54c0,0-28.28-12.72-38.37-17.43l-4.77-19.62c0,0,23.89,10.78,39.37,19.07L506.97,312.54z"/>
		<path class="st9" d="M507.89,311.08c0,0-28.15-13.63-38.37-17.43l-4.77-19.62c0,0,24.42,9.7,39.37,19.07L507.89,311.08z"/>
		<path class="st9" d="M508.8,309.63c0,0-28.02-14.54-38.37-17.43l-4.77-19.62c0,0,24.95,8.62,39.37,19.07L508.8,309.63z"/>
		<path class="st9" d="M509.71,308.19c0,0-27.9-15.45-38.37-17.43l-4.77-19.62c0,0,25.48,7.54,39.37,19.07L509.71,308.19z"/>
		<path class="st9" d="M510.63,306.72c0,0-27.77-16.36-38.37-17.43l-4.77-19.62c0,0,26.01,6.46,39.37,19.07L510.63,306.72z"/>
		<path class="st9" d="M511.54,305.26c0,0-27.65-17.27-38.37-17.43l-4.77-19.62c0,0,26.54,5.39,39.37,19.07L511.54,305.26z"/>
	</g>
	<g>
		<path class="st10" d="M508.4,325.97c-2.49,0-6.01-0.52-8.64-3c-4.24-4.01-4.3-8.65-4.28-9.42c0.97-1.62,11.45-19.8,1.75-32.83
			c-12.77-17.15-23.82-18.14-25.61-18.19c-1.29-1.08-11.78-10.37-8.08-23.79c1.6-5.82,2.43-7.32,2.74-7.7
			c1.96,0.96,39.6,19.55,49.84,36.68c9.87,16.51,7.99,40.84-4.45,57.94C511.23,325.76,509.98,325.97,508.4,325.97z"/>
		<path d="M466.47,231.7c4.52,2.24,39.47,19.97,49.22,36.29c4.98,8.34,7.08,18.46,6.05,29.28c-0.96,10.1-4.63,20-10.36,27.94
			c-0.53,0.09-1.63,0.25-2.99,0.25c-2.4,0-5.79-0.5-8.3-2.87c-3.95-3.73-4.14-7.9-4.12-8.9c1.4-2.33,11.48-20.08,1.66-33.27
			c-12.52-16.82-23.51-18.27-25.82-18.38c-1.68-1.44-11.32-10.38-7.79-23.16C465.32,234.19,466.1,232.38,466.47,231.7
			 M466.27,230.46c-0.32,0-1.21,0.91-3.21,8.16c-4.06,14.71,8.39,24.42,8.39,24.42s0.01,0,0.04,0c0.77,0,12.18,0.3,25.35,17.99
			c10.02,13.45-1.85,32.38-1.85,32.38s-0.44,5.34,4.42,9.93c2.72,2.57,6.33,3.14,8.98,3.14c2.08,0,3.56-0.35,3.56-0.35
			c11.96-16.32,15.24-40.82,4.59-58.65c-10.66-17.83-50.12-36.91-50.12-36.91S466.38,230.46,466.27,230.46L466.27,230.46z"/>
	</g>
	<path class="st9" d="M362.65,236.98l-19.8-27.47c-0.38-0.53-0.32-1.24,0.14-1.7l0,0c0.57-0.57,1.51-0.51,2,0.14l4.71,6.24
		l-7.57-9.91c-0.4-0.52-0.35-1.25,0.11-1.72l0,0c0.56-0.56,1.49-0.5,1.97,0.13l7.35,9.63l-8.35-11.4c-0.38-0.53-0.33-1.25,0.13-1.72
		l0.03-0.03c0.55-0.56,1.47-0.51,1.96,0.1l8.83,10.8l-8.2-9.78c-0.66-0.78-0.56-1.95,0.21-2.62l0.21-0.18
		c0.55-0.48,1.39-0.42,1.87,0.14l12.65,14.66l-5.69-8.15c-0.41-0.47-0.43-1.16-0.06-1.66l0.63-0.84c0.5-0.67,1.5-0.72,2.05-0.09
		l7.18,9.6c0,0,2.25,2.61,2.64,7.1c0.39,4.49,2.02,7.69,2.02,7.69"/>
	<path class="st9" d="M423.72,239.98c0,0-20.92,7.07-30.73,4.37c-9.81-2.7-9.81-2.7-9.81-2.7l-13.41-16.53
		c0,0-8.39,15.94-11.72,15.6c0,0,12.46,25.68,35.66,28.94c23.2,3.26,36.09-2.98,36.09-2.98"/>
	<g>
		<path d="M434.7,234.44c0.33,0.63,0.59,1.23,0.91,1.74c0.3,0.51,0.65,0.97,0.93,1.08c0.14,0.07,0.2,0.03,0.25,0
			c0.05-0.03,0.14-0.05,0.29-0.13c0.29-0.13,0.73-0.39,1.15-0.71c0.86-0.65,1.78-1.45,2.75-2.22c0.99-0.77,2-1.57,3.27-2.22
			c-0.27,1.39-0.8,2.62-1.5,3.77c-0.71,1.14-1.57,2.2-2.75,3.08c-0.61,0.43-1.28,0.85-2.22,1.05c-0.46,0.1-1.03,0.13-1.6-0.06
			c-0.58-0.16-1.08-0.56-1.36-0.97c-0.59-0.84-0.66-1.64-0.64-2.36C434.24,235.77,434.37,235.08,434.7,234.44z"/>
	</g>
</g>
<g>
	<g>
		<path class="st9" d="M345.88,403.57c0,0-42.16,4.37-57.93,4.13l-18.68-20.63c0,0,36.09-1.01,60.22-2.8L345.88,403.57z"/>
		<path class="st9" d="M346.05,400.95c0,0-42.61,3.19-57.93,4.13l-18.68-20.63c0,0,36.03-2.66,60.22-2.8L346.05,400.95z"/>
		<path class="st9" d="M346.22,398.48c0,0-43.06,2-57.93,4.13l-18.68-20.63c0,0,35.96-4.32,60.22-2.8L346.22,398.48z"/>
		<path class="st9" d="M346.38,396.16c0,0-43.5,0.82-57.93,4.13l-18.68-20.63c0,0,35.89-5.97,60.22-2.8L346.38,396.16z"/>
		<path class="st9" d="M346.55,393.87c0,0-43.95-0.36-57.93,4.13l-18.68-20.63c0,0,35.82-7.63,60.22-2.8L346.55,393.87z"/>
		<path class="st9" d="M346.72,391.59c0,0-44.4-1.55-57.93,4.13L270.1,375.1c0,0,35.75-9.28,60.22-2.8L346.72,391.59z"/>
		<path class="st9" d="M346.88,389.31c0,0-44.85-2.73-57.93,4.13l-18.68-20.63c0,0,35.69-10.93,60.22-2.8L346.88,389.31z"/>
	</g>
	<g>
		<path d="M322.53,377.88c-1.1,0.13-1.98,0.25-2.86,0.34c-1.29,0.14-2.14,1-1.54,1.56c1.46,1.35,1.46,1.35-0.89,2.47
			c-1.76,0.85-1.81,0.88-3.65,0.14c-0.84-0.34-1.63-0.46-2.6-0.12c-0.37,0.13-0.74,0.32-0.93,0.53c-0.3,0.34-0.44,0.71-0.67,1.06
			c-0.27,0.41-0.78,0.61-1.61,0.58c-0.81-0.02-1.63-0.04-2.44,0c-1.14,0.05-1.61-0.25-1.72-0.78c-0.04-0.19-0.08-0.38-0.11-0.57
			c-0.19-0.99-1.55-1.32-3.22-0.79c-0.22,0.07-0.43,0.15-0.64,0.22c-1.53,0.51-1.79,0.49-2.87-0.14c-0.18-0.11-0.36-0.21-0.55-0.32
			c-1.74-1.02-1.74-1.02,0.06-2.23c1-0.68,0.54-1.51-0.93-1.68c-0.35-0.04-0.71-0.07-1.06-0.12c-1.53-0.19-1.75-0.33-1.56-1.18
			c0.4-1.75-0.51-1.81,3.66-2.19c0.91-0.08,1.76-1.03,1.32-1.43c-1.93-1.76-1.46-1.41,1.05-2.67c1.45-0.72,1.6-0.71,3.1-0.16
			c0.8,0.29,1.45,0.71,2.76,0.32c0.68-0.2,0.99-0.38,1.18-0.74c0.8-1.49,0.82-1.49,3.68-1.48c2.48,0.01,2.48,0.01,2.74,1.32
			c0.21,1.06,1.52,1.36,3.38,0.76c0.36-0.12,0.72-0.23,1.09-0.34c0.8-0.24,1.47-0.24,2,0.17c0.33,0.25,0.77,0.46,1.16,0.69
			c1.31,0.77,1.32,0.83-0.01,1.72c-0.66,0.44-1.32,0.82-0.75,1.44c0.29,0.32,0.57,0.47,1.2,0.54c2.88,0.31,2.88,0.32,2.58,1.9
			C322.84,377.07,322.67,377.46,322.53,377.88z M312.55,379.21c3.18-1.53,3.61-3.98,0.97-5.5c-2.6-1.5-7.23-1.51-10.33-0.02
			c-3.15,1.51-3.56,3.97-0.92,5.51C304.89,380.71,309.41,380.72,312.55,379.21z"/>
	</g>
</g>
<g>
	<g>
		<path class="st9" d="M530.71,547.82c0,0-42.34,2.16-58.07,1.1l-17.57-21.58c0,0,36.1,0.88,60.28,0.36L530.71,547.82z"/>
		<path class="st9" d="M530.88,546.66c0,0-42.72,0.95-58.07,1.1l-17.57-21.58c0,0,36.12-0.77,60.28,0.36L530.88,546.66z"/>
		<path class="st9" d="M531.04,545.59c0,0-43.1-0.25-58.07,1.1l-17.57-21.58c0,0,36.14-2.43,60.28,0.36L531.04,545.59z"/>
		<path class="st9" d="M531.21,544.52c0,0-43.49-1.46-58.07,1.1l-17.57-21.58c0,0,36.15-4.08,60.28,0.36L531.21,544.52z"/>
		<path class="st9" d="M531.38,543.46c0,0-43.87-2.67-58.07,1.1l-17.57-21.58c0,0,36.17-5.74,60.28,0.36L531.38,543.46z"/>
		<path class="st9" d="M531.54,542.39c0,0-44.26-3.87-58.07,1.1l-17.57-21.58c0,0,36.19-7.4,60.28,0.36L531.54,542.39z"/>
		<path class="st9" d="M531.71,541.33c0,0-44.64-5.08-58.07,1.1l-17.57-21.58c0,0,36.21-9.05,60.28,0.36L531.71,541.33z"/>
	</g>
	<g>
		<path d="M507.85,527.32c-1.1,0.13-1.98,0.25-2.86,0.34c-1.29,0.14-2.14,1-1.54,1.56c1.46,1.35,1.46,1.35-0.89,2.47
			c-1.76,0.85-1.81,0.88-3.65,0.14c-0.84-0.34-1.63-0.46-2.6-0.12c-0.37,0.13-0.74,0.32-0.93,0.53c-0.3,0.34-0.44,0.71-0.67,1.06
			c-0.27,0.41-0.78,0.61-1.61,0.58c-0.81-0.02-1.63-0.04-2.44,0c-1.14,0.05-1.61-0.25-1.72-0.78c-0.04-0.19-0.08-0.38-0.11-0.57
			c-0.19-0.99-1.55-1.32-3.22-0.79c-0.22,0.07-0.43,0.15-0.64,0.22c-1.53,0.51-1.79,0.49-2.87-0.14c-0.18-0.11-0.36-0.21-0.55-0.32
			c-1.74-1.02-1.74-1.02,0.06-2.23c1-0.68,0.54-1.51-0.93-1.68c-0.35-0.04-0.71-0.07-1.06-0.12c-1.53-0.19-1.75-0.33-1.56-1.18
			c0.4-1.75-0.51-1.81,3.66-2.19c0.91-0.08,1.76-1.03,1.32-1.43c-1.93-1.76-1.46-1.41,1.05-2.67c1.45-0.72,1.6-0.71,3.1-0.16
			c0.8,0.29,1.45,0.71,2.76,0.32c0.68-0.2,0.99-0.38,1.18-0.74c0.8-1.49,0.82-1.49,3.68-1.48c2.48,0.01,2.48,0.01,2.74,1.32
			c0.21,1.06,1.52,1.36,3.38,0.76c0.36-0.12,0.72-0.23,1.09-0.34c0.8-0.24,1.47-0.24,2,0.17c0.33,0.25,0.77,0.46,1.16,0.69
			c1.31,0.77,1.32,0.83-0.01,1.72c-0.66,0.44-1.32,0.82-0.75,1.44c0.29,0.32,0.57,0.47,1.2,0.54c2.88,0.31,2.88,0.32,2.58,1.9
			C508.15,526.51,507.98,526.9,507.85,527.32z M497.86,528.65c3.18-1.53,3.61-3.98,0.97-5.5c-2.6-1.5-7.23-1.51-10.33-0.02
			c-3.15,1.51-3.56,3.97-0.92,5.51C490.2,530.16,494.72,530.16,497.86,528.65z"/>
	</g>
</g>
<polyline class="st5" points="315.58,366.57 315.58,305.6 487.74,305.6 "/>
<polyline class="st5" points="508.35,518.03 508.35,396 346.67,396 "/>
</svg>
