<svg width="232" height="162" viewBox="0 0 232 162" fill="none" xmlns="http://www.w3.org/2000/svg">
<g filter="url(#filter0_f_3590_7290)">
<path d="M44.1916 122.441C40.2596 123.716 36.0022 121.569 35.0817 117.54C31.5177 101.939 32.5461 85.6348 38.0424 70.6027C39.4612 66.7222 43.9518 65.1267 47.6917 66.8829V66.8829C51.4401 68.6431 53.0057 73.1024 51.6622 77.0195C47.7062 88.5546 46.9251 100.944 49.4013 112.883C50.2422 116.937 48.1305 121.164 44.1916 122.441V122.441Z" fill="#CED3D9"/>
<path d="M47.8714 66.9043C44.0506 65.1065 42.3841 60.5271 44.5315 56.8913C52.6227 43.192 64.4902 32.0932 78.7142 24.9235C82.4715 23.0297 86.9163 24.9794 88.465 28.8916V28.8916C90.0169 32.8117 88.0671 37.21 84.3428 39.1859C73.6951 44.8346 64.7414 53.2129 58.4084 63.4535C56.1925 67.0367 51.6835 68.6979 47.8714 66.9043V66.9043Z" fill="#CED3D9"/>
<path d="M88.4486 28.763C86.9284 24.9179 88.8103 20.5339 92.7778 19.3703C108.163 14.8578 124.535 14.877 139.91 19.4255C143.875 20.5985 145.746 24.987 144.217 28.8285V28.8285C142.691 32.6622 138.354 34.4923 134.375 33.3987C122.567 30.1533 110.095 30.1387 98.2797 33.3564C94.2983 34.4406 89.9659 32.6003 88.4486 28.763V28.763Z" fill="#CED3D9"/>
<path d="M144.257 28.8215C145.785 24.9885 150.149 23.0873 153.832 24.9469C168.141 32.1706 180.059 43.3704 188.144 57.1897C190.235 60.764 188.59 65.2508 184.839 67.0048V67.0048C181.096 68.755 176.678 67.116 174.522 63.591C168.15 53.17 159.084 44.6458 148.28 38.918C144.627 36.9812 142.726 32.6623 144.257 28.8215V28.8215Z" fill="#CED3D9"/>
<path d="M184.92 67.122C188.666 65.3788 193.152 66.99 194.557 70.8755C200 85.9266 200.972 102.234 197.353 117.822C196.419 121.849 192.154 123.981 188.226 122.692V122.692C184.292 121.401 182.195 117.167 183.05 113.115C185.568 101.185 184.83 88.7934 180.915 77.2447C179.585 73.3228 181.166 68.8691 184.92 67.122V67.122Z" fill="#CED3D9"/>
<path d="M66.9398 120.367C65.6656 120.367 64.566 120.192 63.6409 119.843C62.7158 119.476 61.9478 118.979 61.3369 118.351C60.7435 117.705 60.2984 116.945 60.0016 116.073C59.7224 115.183 59.5827 114.205 59.5827 113.14V101.856H63.6671V112.8C63.6671 113.533 63.7456 114.161 63.9027 114.685C64.0773 115.191 64.3042 115.61 64.5835 115.942C64.8802 116.256 65.2293 116.483 65.6307 116.623C66.0496 116.762 66.5035 116.832 66.9922 116.832C67.9871 116.832 68.79 116.527 69.4009 115.916C70.0293 115.305 70.3435 114.266 70.3435 112.8V101.856H74.4278V113.14C74.4278 114.205 74.2795 115.183 73.9827 116.073C73.686 116.963 73.2322 117.731 72.6213 118.377C72.0104 119.005 71.2336 119.494 70.2911 119.843C69.3485 120.192 68.2315 120.367 66.9398 120.367ZM78.0941 106.7C78.7574 106.508 79.6126 106.333 80.6599 106.176C81.7072 106.001 82.8068 105.914 83.9588 105.914C85.1283 105.914 86.097 106.071 86.865 106.385C87.6505 106.682 88.2701 107.11 88.7239 107.668C89.1777 108.227 89.5006 108.89 89.6926 109.658C89.8846 110.426 89.9806 111.281 89.9806 112.224V120H86.0795V112.695C86.0795 111.439 85.9137 110.548 85.5821 110.025C85.2505 109.501 84.6308 109.239 83.7232 109.239C83.4439 109.239 83.1472 109.257 82.833 109.292C82.5188 109.309 82.2395 109.335 81.9952 109.37V120H78.0941V106.7ZM97.4128 111.203C97.7968 110.784 98.1895 110.348 98.591 109.894C99.0099 109.44 99.4113 108.995 99.7953 108.559C100.179 108.105 100.537 107.677 100.869 107.276C101.218 106.874 101.515 106.525 101.759 106.228H106.393C105.468 107.293 104.56 108.314 103.67 109.292C102.798 110.252 101.838 111.247 100.79 112.276C101.314 112.748 101.855 113.315 102.414 113.978C102.972 114.624 103.513 115.296 104.037 115.994C104.56 116.692 105.04 117.391 105.477 118.089C105.913 118.787 106.28 119.424 106.576 120H102.099C101.82 119.546 101.497 119.049 101.131 118.508C100.782 117.949 100.406 117.399 100.005 116.858C99.6033 116.3 99.1757 115.767 98.7219 115.261C98.2855 114.755 97.8492 114.327 97.4128 113.978V120H93.5117V100.311L97.4128 99.6829V111.203ZM108.674 106.7C109.337 106.508 110.192 106.333 111.239 106.176C112.287 106.001 113.386 105.914 114.538 105.914C115.708 105.914 116.677 106.071 117.445 106.385C118.23 106.682 118.85 107.11 119.303 107.668C119.757 108.227 120.08 108.89 120.272 109.658C120.464 110.426 120.56 111.281 120.56 112.224V120H116.659V112.695C116.659 111.439 116.493 110.548 116.162 110.025C115.83 109.501 115.21 109.239 114.303 109.239C114.023 109.239 113.727 109.257 113.413 109.292C113.098 109.309 112.819 109.335 112.575 109.37V120H108.674V106.7ZM136.973 113.088C136.973 114.17 136.816 115.165 136.501 116.073C136.187 116.963 135.733 117.731 135.14 118.377C134.547 119.005 133.831 119.494 132.993 119.843C132.173 120.192 131.248 120.367 130.218 120.367C129.205 120.367 128.28 120.192 127.443 119.843C126.622 119.494 125.915 119.005 125.322 118.377C124.728 117.731 124.266 116.963 123.934 116.073C123.603 115.165 123.437 114.17 123.437 113.088C123.437 112.006 123.603 111.02 123.934 110.129C124.283 109.239 124.755 108.48 125.348 107.852C125.959 107.223 126.675 106.735 127.495 106.385C128.333 106.036 129.24 105.862 130.218 105.862C131.213 105.862 132.12 106.036 132.941 106.385C133.779 106.735 134.494 107.223 135.088 107.852C135.681 108.48 136.144 109.239 136.475 110.129C136.807 111.02 136.973 112.006 136.973 113.088ZM132.993 113.088C132.993 111.884 132.749 110.941 132.26 110.26C131.789 109.562 131.108 109.213 130.218 109.213C129.328 109.213 128.638 109.562 128.149 110.26C127.661 110.941 127.416 111.884 127.416 113.088C127.416 114.292 127.661 115.252 128.149 115.968C128.638 116.666 129.328 117.015 130.218 117.015C131.108 117.015 131.789 116.666 132.26 115.968C132.749 115.252 132.993 114.292 132.993 113.088ZM148.066 112.093C147.717 113.42 147.342 114.737 146.94 116.047C146.556 117.356 146.146 118.673 145.71 120H142.673C142.358 119.267 142.018 118.394 141.651 117.382C141.285 116.369 140.901 115.27 140.499 114.083C140.115 112.879 139.714 111.613 139.295 110.287C138.894 108.943 138.501 107.59 138.117 106.228H142.227C142.367 106.857 142.515 107.546 142.673 108.297C142.847 109.03 143.022 109.789 143.196 110.575C143.388 111.36 143.58 112.154 143.772 112.957C143.982 113.743 144.191 114.502 144.401 115.235C144.627 114.467 144.846 113.681 145.055 112.879C145.282 112.076 145.491 111.29 145.683 110.522C145.893 109.737 146.085 108.986 146.259 108.271C146.451 107.537 146.617 106.857 146.757 106.228H149.585C149.724 106.857 149.881 107.537 150.056 108.271C150.23 108.986 150.414 109.737 150.606 110.522C150.798 111.29 150.998 112.076 151.208 112.879C151.417 113.681 151.635 114.467 151.862 115.235C152.072 114.502 152.281 113.743 152.491 112.957C152.7 112.154 152.892 111.36 153.067 110.575C153.259 109.789 153.433 109.03 153.59 108.297C153.765 107.546 153.922 106.857 154.062 106.228H158.12C157.736 107.59 157.334 108.943 156.915 110.287C156.514 111.613 156.113 112.879 155.711 114.083C155.327 115.27 154.943 116.369 154.559 117.382C154.193 118.394 153.852 119.267 153.538 120H150.501C150.065 118.673 149.637 117.356 149.218 116.047C148.799 114.737 148.415 113.42 148.066 112.093ZM160.219 106.7C160.882 106.508 161.738 106.333 162.785 106.176C163.832 106.001 164.932 105.914 166.084 105.914C167.253 105.914 168.222 106.071 168.99 106.385C169.775 106.682 170.395 107.11 170.849 107.668C171.303 108.227 171.626 108.89 171.818 109.658C172.01 110.426 172.106 111.281 172.106 112.224V120H168.205V112.695C168.205 111.439 168.039 110.548 167.707 110.025C167.375 109.501 166.756 109.239 165.848 109.239C165.569 109.239 165.272 109.257 164.958 109.292C164.644 109.309 164.365 109.335 164.12 109.37V120H160.219V106.7Z" fill="#CED3D9"/>
</g>
<defs>
<filter id="filter0_f_3590_7290" x="-16" y="-11" width="264" height="189" filterUnits="userSpaceOnUse" color-interpolation-filters="sRGB">
<feFlood flood-opacity="0" result="BackgroundImageFix"/>
<feBlend mode="normal" in="SourceGraphic" in2="BackgroundImageFix" result="shape"/>
<feGaussianBlur stdDeviation="8" result="effect1_foregroundBlur_3590_7290"/>
</filter>
</defs>
</svg>
