<svg xmlns="http://www.w3.org/2000/svg" xmlns:xlink="http://www.w3.org/1999/xlink" version="1.1" width="1000" height="1000" viewBox="0 0 1000 1000" xml:space="preserve">
<desc>Created with Fabric.js 3.5.0</desc>
<defs>
</defs>
<rect x="0" y="0" width="100%" height="100%" fill="rgba(255,255,255,0)"/>
<g transform="matrix(3.0303 0 0 3.0303 889.0977 706.7583)" id="331828">
<path style="stroke: none; stroke-width: 0; stroke-dasharray: none; stroke-linecap: butt; stroke-dashoffset: 0; stroke-linejoin: miter; stroke-miterlimit: 4; is-custom-font: none; font-file-url: none; fill: rgb(212,175,55); fill-rule: nonzero; opacity: 1;" transform=" translate(-278.9023, -171.2303)" d="M 284.28 198.32 c 5.06 -14.63 7.81 -30.35 7.81 -46.68 c 0 -1.57 -0.03 -3.13 -0.08 -4.69 c -0.17 -5.27 -4.58 -9.4 -9.85 -9.23 c -5.27 0.17 -9.41 4.58 -9.23 9.85 c 0.04 1.35 0.07 2.71 0.07 4.07 c 0 14.18 -2.38 27.77 -6.76 40.44 c -1.72 4.98 0.92 10.42 5.91 12.14 S 282.56 203.3 284.28 198.32 z" stroke-linecap="round"/>
</g>
<g transform="matrix(3.0303 0 0 3.0303 188.9999 431.9544)" id="18263">
<path style="stroke: none; stroke-width: 0; stroke-dasharray: none; stroke-linecap: butt; stroke-dashoffset: 0; stroke-linejoin: miter; stroke-miterlimit: 4; is-custom-font: none; font-file-url: none; fill: rgb(233,115,13); fill-rule: nonzero; opacity: 1;" transform=" translate(-47.87, -80.545)" d="M 13.46 119.81 c -0.11 0.47 -0.16 0.93 -0.16 1.38 c 0 1.36 0.47 2.68 1.29 3.73 c 0.83 1.05 1.98 1.82 3.38 2.16 c 0.47 0.11 0.93 0.16 1.38 0.16 c 1.36 0 2.68 -0.47 3.73 -1.29 c 1.05 -0.83 1.82 -1.98 2.16 -3.38 c 7.55 -32.33 27.45 -59.95 54.45 -77.59 c 0.9 -0.59 1.57 -1.35 2.04 -2.23 c 0.46 -0.87 0.71 -1.86 0.71 -2.85 c 0 -1.14 -0.31 -2.27 -0.99 -3.3 l 0 0 c -0.59 -0.9 -1.35 -1.57 -2.23 -2.04 c -0.87 -0.46 -1.86 -0.71 -2.85 -0.71 c -1.14 0 -2.27 0.31 -3.3 0.99 l 0 0 C 43.52 54.16 21.74 84.37 13.46 119.81 z" stroke-linecap="round"/>
</g>
<g transform="matrix(3.0303 0 0 3.0303 496.1968 257.8484)" id="29254">
<path style="stroke: none; stroke-width: 0; stroke-dasharray: none; stroke-linecap: butt; stroke-dashoffset: 0; stroke-linejoin: miter; stroke-miterlimit: 4; is-custom-font: none; font-file-url: none; fill: rgb(252,238,33); fill-rule: nonzero; opacity: 1;" transform=" translate(-149.245, -23.09)" d="M 101.86 33.44 c 14.63 -5.86 30.59 -9.09 47.34 -9.09 c 16.79 0 32.79 3.24 47.44 9.13 c 0.75 0.3 1.5 0.44 2.25 0.44 c 1.19 0 2.37 -0.36 3.35 -1.01 c 0.99 -0.66 1.78 -1.59 2.26 -2.78 l 0 0 c 0.3 -0.75 0.44 -1.5 0.44 -2.25 c 0 -1.19 -0.36 -2.37 -1.01 -3.35 c -0.66 -0.99 -1.59 -1.78 -2.78 -2.26 v 0 c -16.06 -6.45 -33.6 -10.01 -51.95 -10.01 h -0.01 l 0 0 h 0 h -0.01 l 0 0 c -18.3 0 -35.81 3.54 -51.83 9.96 c -1.19 0.48 -2.13 1.27 -2.78 2.26 c -0.66 0.99 -1.02 2.16 -1.02 3.36 c 0 0.75 0.14 1.5 0.44 2.25 l 0 0 c 0.48 1.19 1.27 2.13 2.26 2.78 c 0.99 0.66 2.16 1.02 3.36 1.02 C 100.35 33.88 101.11 33.74 101.86 33.44 z" stroke-linecap="round"/>
</g>
<g transform="matrix(3.0303 0 0 3.0303 803.2727 432.1969)" id="477890">
<path style="stroke: none; stroke-width: 0; stroke-dasharray: none; stroke-linecap: butt; stroke-dashoffset: 0; stroke-linejoin: miter; stroke-miterlimit: 4; is-custom-font: none; font-file-url: none; fill: rgb(69,165,58); fill-rule: nonzero; opacity: 1;" transform=" translate(-250.58, -80.625)" d="M 225.41 34.91 c -1.03 -0.67 -2.16 -0.99 -3.3 -0.99 c -0.99 0 -1.97 0.24 -2.84 0.71 c -0.87 0.46 -1.64 1.14 -2.23 2.03 c -0.67 1.03 -0.99 2.16 -0.99 3.3 c 0 0.99 0.24 1.97 0.71 2.84 c 0.46 0.87 1.14 1.64 2.03 2.23 c 26.99 17.66 46.87 45.29 54.39 77.63 c 0.33 1.41 1.1 2.56 2.15 3.38 c 1.05 0.82 2.36 1.29 3.73 1.29 c 0.45 0 0.91 -0.05 1.38 -0.16 c 1.41 -0.33 2.56 -1.1 3.38 -2.15 c 0.82 -1.05 1.29 -2.36 1.29 -3.73 c 0 -0.45 -0.05 -0.91 -0.16 -1.38 l 0 0 C 276.7 84.47 254.95 54.24 225.41 34.91 z" stroke-linecap="round"/>
</g>
<g transform="matrix(3.0303 0 0 3.0303 103.0455 706.7583)" id="884078">
<path style="stroke: none; stroke-width: 0; stroke-dasharray: none; stroke-linecap: butt; stroke-dashoffset: 0; stroke-linejoin: miter; stroke-miterlimit: 4; is-custom-font: none; font-file-url: none; fill: rgb(187,0,0); fill-rule: nonzero; opacity: 1;" transform=" translate(-19.505, -171.235)" d="M 19.66 200.15 c 1.01 0.71 2.23 1.1 3.48 1.1 c 0.65 0 1.31 -0.11 1.98 -0.33 c 1.26 -0.44 2.26 -1.23 2.97 -2.24 c 0.71 -1.01 1.1 -2.23 1.1 -3.48 c 0 -0.65 -0.11 -1.31 -0.33 -1.98 c -4.5 -13.03 -6.95 -27.01 -6.95 -41.58 c 0 -1.4 0.02 -2.8 0.07 -4.18 l 0 0.01 l 0 -0.21 c 0 -1.63 -0.64 -3.1 -1.7 -4.2 c -1.06 -1.1 -2.51 -1.79 -4.15 -1.84 l -0.2 0 c -1.63 0 -3.1 0.64 -4.2 1.7 c -1.1 1.06 -1.79 2.51 -1.84 4.15 l 0 0 c -0.05 1.52 -0.07 3.05 -0.07 4.58 v 0.05 c 0.01 15.91 2.69 31.22 7.62 45.48 C 17.86 198.44 18.65 199.44 19.66 200.15 z" stroke-linecap="round"/>
</g>
<g transform="matrix(3.0303 0 0 3.0303 500 244.0716)" id="815963">
<circle style="stroke: rgb(211,211,211); stroke-width: 7; stroke-dasharray: none; stroke-linecap: butt; stroke-dashoffset: 0; stroke-linejoin: miter; stroke-miterlimit: 10; is-custom-font: none; font-file-url: none; fill: rgb(252,238,33); fill-rule: nonzero; opacity: 1;" cx="0" cy="0" r="13.59"/>
</g>
<g transform="matrix(3.0303 0 0 3.0303 277.803 476.3485)" id="598906">
<path style="stroke: none; stroke-width: 0; stroke-dasharray: none; stroke-linecap: butt; stroke-dashoffset: 0; stroke-linejoin: miter; stroke-miterlimit: 4; is-custom-font: none; font-file-url: none; fill: rgb(0,0,0); fill-rule: nonzero; opacity: 1;" transform=" translate(-77.175, -95.195)" d="M 82.94 89.34 h -4.8 v 13.32 h -1.96 V 89.34 H 71.4 v -1.61 h 11.55 V 89.34 z" stroke-linecap="round"/>
</g>
<g transform="matrix(3.0303 0 0 3.0303 314.303 475.1212)" id="87781">
<path style="stroke: none; stroke-width: 0; stroke-dasharray: none; stroke-linecap: butt; stroke-dashoffset: 0; stroke-linejoin: miter; stroke-miterlimit: 4; is-custom-font: none; font-file-url: none; fill: rgb(0,0,0); fill-rule: nonzero; opacity: 1;" transform=" translate(-89.22, -94.79)" d="M 86.76 92.91 c 0.84 -1.03 1.93 -1.55 3.28 -1.55 c 2.34 0 3.53 1.32 3.55 3.97 v 7.33 h -1.9 v -7.34 c -0.01 -0.8 -0.19 -1.39 -0.55 -1.77 c -0.36 -0.38 -0.92 -0.57 -1.68 -0.57 c -0.62 0 -1.16 0.16 -1.62 0.49 c -0.47 0.33 -0.83 0.76 -1.09 1.29 v 7.91 h -1.9 V 86.91 h 1.9 V 92.91 z" stroke-linecap="round"/>
</g>
<g transform="matrix(3.0303 0 0 3.0303 339.5909 476.0303)" id="992994">
<path style="stroke: none; stroke-width: 0; stroke-dasharray: none; stroke-linecap: butt; stroke-dashoffset: 0; stroke-linejoin: miter; stroke-miterlimit: 4; is-custom-font: none; font-file-url: none; fill: rgb(0,0,0); fill-rule: nonzero; opacity: 1;" transform=" translate(-97.565, -95.09)" d="M 96.44 88.62 c 0 -0.31 0.09 -0.57 0.28 -0.78 c 0.19 -0.21 0.47 -0.32 0.84 -0.32 s 0.65 0.11 0.84 0.32 s 0.29 0.47 0.29 0.78 s -0.1 0.56 -0.29 0.77 s -0.47 0.31 -0.84 0.31 s -0.65 -0.1 -0.84 -0.31 C 96.53 89.19 96.44 88.93 96.44 88.62 z M 98.49 102.66 h -1.9 V 91.57 h 1.9 V 102.66 z" stroke-linecap="round"/>
</g>
<g transform="matrix(3.0303 0 0 3.0303 363.4848 482.1667)" id="280041">
<path style="stroke: none; stroke-width: 0; stroke-dasharray: none; stroke-linecap: butt; stroke-dashoffset: 0; stroke-linejoin: miter; stroke-miterlimit: 4; is-custom-font: none; font-file-url: none; fill: rgb(0,0,0); fill-rule: nonzero; opacity: 1;" transform=" translate(-105.45, -97.115)" d="M 107.98 99.72 c 0 -0.51 -0.19 -0.91 -0.58 -1.19 c -0.39 -0.28 -1.06 -0.53 -2.02 -0.73 c -0.96 -0.21 -1.72 -0.45 -2.29 -0.74 c -0.56 -0.29 -0.98 -0.63 -1.25 -1.03 c -0.27 -0.4 -0.41 -0.87 -0.41 -1.42 c 0 -0.91 0.38 -1.68 1.15 -2.31 c 0.77 -0.63 1.75 -0.94 2.95 -0.94 c 1.26 0 2.28 0.32 3.06 0.97 c 0.78 0.65 1.17 1.48 1.17 2.49 h -1.91 c 0 -0.52 -0.22 -0.97 -0.66 -1.34 c -0.44 -0.38 -1 -0.56 -1.67 -0.56 c -0.69 0 -1.23 0.15 -1.62 0.45 s -0.58 0.69 -0.58 1.18 c 0 0.46 0.18 0.8 0.54 1.04 s 1.02 0.45 1.96 0.67 c 0.95 0.21 1.71 0.46 2.3 0.76 s 1.02 0.65 1.31 1.06 c 0.28 0.41 0.43 0.92 0.43 1.51 c 0 0.99 -0.4 1.79 -1.19 2.38 c -0.79 0.6 -1.82 0.9 -3.09 0.9 c -0.89 0 -1.67 -0.16 -2.36 -0.47 s -1.22 -0.75 -1.6 -1.32 c -0.39 -0.56 -0.58 -1.17 -0.58 -1.83 h 1.9 c 0.03 0.64 0.29 1.14 0.76 1.51 c 0.48 0.37 1.1 0.56 1.88 0.56 c 0.72 0 1.29 -0.15 1.73 -0.44 C 107.77 100.59 107.98 100.2 107.98 99.72 z" stroke-linecap="round"/>
</g>
<g transform="matrix(3.0303 0 0 3.0303 412.0606 482.1667)" id="695390">
<path style="stroke: none; stroke-width: 0; stroke-dasharray: none; stroke-linecap: butt; stroke-dashoffset: 0; stroke-linejoin: miter; stroke-miterlimit: 4; is-custom-font: none; font-file-url: none; fill: rgb(0,0,0); fill-rule: nonzero; opacity: 1;" transform=" translate(-121.48, -97.115)" d="M 124.01 99.72 c 0 -0.51 -0.19 -0.91 -0.58 -1.19 c -0.39 -0.28 -1.06 -0.53 -2.02 -0.73 c -0.96 -0.21 -1.72 -0.45 -2.29 -0.74 c -0.56 -0.29 -0.98 -0.63 -1.25 -1.03 c -0.27 -0.4 -0.41 -0.87 -0.41 -1.42 c 0 -0.91 0.38 -1.68 1.15 -2.31 c 0.77 -0.63 1.75 -0.94 2.95 -0.94 c 1.26 0 2.28 0.32 3.06 0.97 c 0.78 0.65 1.17 1.48 1.17 2.49 h -1.91 c 0 -0.52 -0.22 -0.97 -0.66 -1.34 c -0.44 -0.38 -1 -0.56 -1.67 -0.56 c -0.69 0 -1.23 0.15 -1.62 0.45 s -0.58 0.69 -0.58 1.18 c 0 0.46 0.18 0.8 0.54 1.04 s 1.02 0.45 1.96 0.67 c 0.95 0.21 1.71 0.46 2.3 0.76 s 1.02 0.65 1.31 1.06 c 0.28 0.41 0.43 0.92 0.43 1.51 c 0 0.99 -0.4 1.79 -1.19 2.38 c -0.79 0.6 -1.82 0.9 -3.09 0.9 c -0.89 0 -1.67 -0.16 -2.36 -0.47 s -1.22 -0.75 -1.6 -1.32 c -0.39 -0.56 -0.58 -1.17 -0.58 -1.83 h 1.9 c 0.03 0.64 0.29 1.14 0.76 1.51 c 0.48 0.37 1.1 0.56 1.88 0.56 c 0.72 0 1.29 -0.15 1.73 -0.44 C 123.79 100.59 124.01 100.2 124.01 99.72 z" stroke-linecap="round"/>
</g>
<g transform="matrix(3.0303 0 0 3.0303 443.606 488.9393)" id="423655">
<path style="stroke: none; stroke-width: 0; stroke-dasharray: none; stroke-linecap: butt; stroke-dashoffset: 0; stroke-linejoin: miter; stroke-miterlimit: 4; is-custom-font: none; font-file-url: none; fill: rgb(0,0,0); fill-rule: nonzero; opacity: 1;" transform=" translate(-131.89, -99.35)" d="M 132.01 99.88 l 2.58 -8.32 h 2.03 l -4.46 12.81 c -0.69 1.85 -1.79 2.77 -3.29 2.77 l -0.36 -0.03 l -0.71 -0.13 v -1.54 l 0.51 0.04 c 0.64 0 1.14 -0.13 1.5 -0.39 c 0.36 -0.26 0.65 -0.73 0.89 -1.43 l 0.42 -1.13 l -3.96 -10.97 h 2.07 L 132.01 99.88 z" stroke-linecap="round"/>
</g>
<g transform="matrix(3.0303 0 0 3.0303 475 482.1667)" id="226355">
<path style="stroke: none; stroke-width: 0; stroke-dasharray: none; stroke-linecap: butt; stroke-dashoffset: 0; stroke-linejoin: miter; stroke-miterlimit: 4; is-custom-font: none; font-file-url: none; fill: rgb(0,0,0); fill-rule: nonzero; opacity: 1;" transform=" translate(-142.25, -97.115)" d="M 144.78 99.72 c 0 -0.51 -0.19 -0.91 -0.58 -1.19 c -0.39 -0.28 -1.06 -0.53 -2.02 -0.73 c -0.96 -0.21 -1.72 -0.45 -2.29 -0.74 c -0.56 -0.29 -0.98 -0.63 -1.25 -1.03 c -0.27 -0.4 -0.41 -0.87 -0.41 -1.42 c 0 -0.91 0.38 -1.68 1.15 -2.31 c 0.77 -0.63 1.75 -0.94 2.95 -0.94 c 1.26 0 2.28 0.32 3.06 0.97 c 0.78 0.65 1.17 1.48 1.17 2.49 h -1.91 c 0 -0.52 -0.22 -0.97 -0.66 -1.34 c -0.44 -0.38 -1 -0.56 -1.67 -0.56 c -0.69 0 -1.23 0.15 -1.62 0.45 s -0.58 0.69 -0.58 1.18 c 0 0.46 0.18 0.8 0.54 1.04 s 1.02 0.45 1.96 0.67 c 0.95 0.21 1.71 0.46 2.3 0.76 s 1.02 0.65 1.31 1.06 c 0.28 0.41 0.43 0.92 0.43 1.51 c 0 0.99 -0.4 1.79 -1.19 2.38 c -0.79 0.6 -1.82 0.9 -3.09 0.9 c -0.89 0 -1.67 -0.16 -2.36 -0.47 s -1.22 -0.75 -1.6 -1.32 c -0.39 -0.56 -0.58 -1.17 -0.58 -1.83 h 1.9 c 0.03 0.64 0.29 1.14 0.76 1.51 c 0.48 0.37 1.1 0.56 1.88 0.56 c 0.72 0 1.29 -0.15 1.73 -0.44 C 144.56 100.59 144.78 100.2 144.78 99.72 z" stroke-linecap="round"/>
</g>
<g transform="matrix(3.0303 0 0 3.0303 500.9546 478.409)" id="134768">
<path style="stroke: none; stroke-width: 0; stroke-dasharray: none; stroke-linecap: butt; stroke-dashoffset: 0; stroke-linejoin: miter; stroke-miterlimit: 4; is-custom-font: none; font-file-url: none; fill: rgb(0,0,0); fill-rule: nonzero; opacity: 1;" transform=" translate(-150.815, -95.875)" d="M 151.72 88.88 v 2.69 h 2.07 v 1.47 h -2.07 v 6.89 c 0 0.44 0.09 0.78 0.28 1 c 0.18 0.22 0.5 0.33 0.94 0.33 c 0.22 0 0.52 -0.04 0.9 -0.12 v 1.53 c -0.5 0.14 -0.98 0.2 -1.46 0.2 c -0.85 0 -1.49 -0.26 -1.92 -0.77 c -0.43 -0.51 -0.65 -1.24 -0.65 -2.18 v -6.88 h -2.02 v -1.47 h 2.02 v -2.69 H 151.72 z" stroke-linecap="round"/>
</g>
<g transform="matrix(3.0303 0 0 3.0303 529.4697 482.1818)" id="767027">
<path style="stroke: none; stroke-width: 0; stroke-dasharray: none; stroke-linecap: butt; stroke-dashoffset: 0; stroke-linejoin: miter; stroke-miterlimit: 4; is-custom-font: none; font-file-url: none; fill: rgb(0,0,0); fill-rule: nonzero; opacity: 1;" transform=" translate(-160.225, -97.12)" d="M 160.61 102.87 c -1.5 0 -2.73 -0.49 -3.67 -1.48 s -1.42 -2.31 -1.42 -3.96 v -0.35 c 0 -1.1 0.21 -2.08 0.63 -2.95 c 0.42 -0.86 1.01 -1.54 1.76 -2.03 c 0.76 -0.49 1.57 -0.73 2.46 -0.73 c 1.44 0 2.56 0.48 3.36 1.43 s 1.2 2.31 1.2 4.08 v 0.79 h -7.52 c 0.03 1.09 0.35 1.98 0.96 2.65 c 0.61 0.67 1.39 1.01 2.33 1.01 c 0.67 0 1.24 -0.14 1.7 -0.41 s 0.87 -0.64 1.22 -1.09 l 1.16 0.9 C 163.86 102.15 162.47 102.87 160.61 102.87 z M 160.37 92.92 c -0.77 0 -1.41 0.28 -1.93 0.84 s -0.84 1.34 -0.96 2.34 h 5.56 v -0.14 c -0.05 -0.96 -0.31 -1.71 -0.78 -2.24 S 161.16 92.92 160.37 92.92 z" stroke-linecap="round"/>
</g>
<g transform="matrix(3.0303 0 0 3.0303 573.909 481.8485)" id="317369">
<path style="stroke: none; stroke-width: 0; stroke-dasharray: none; stroke-linecap: butt; stroke-dashoffset: 0; stroke-linejoin: miter; stroke-miterlimit: 4; is-custom-font: none; font-file-url: none; fill: rgb(0,0,0); fill-rule: nonzero; opacity: 1;" transform=" translate(-174.89, -97.01)" d="M 168.91 91.57 l 0.05 1.23 c 0.81 -0.96 1.91 -1.44 3.29 -1.44 c 1.55 0 2.61 0.59 3.17 1.78 c 0.37 -0.53 0.85 -0.96 1.44 -1.29 c 0.59 -0.33 1.29 -0.49 2.1 -0.49 c 2.43 0 3.67 1.29 3.71 3.87 v 7.43 h -1.9 v -7.32 c 0 -0.79 -0.18 -1.39 -0.54 -1.78 c -0.36 -0.39 -0.97 -0.59 -1.83 -0.59 c -0.7 0 -1.29 0.21 -1.75 0.63 c -0.46 0.42 -0.73 0.99 -0.81 1.7 v 7.36 h -1.91 v -7.27 c 0 -1.61 -0.79 -2.42 -2.37 -2.42 c -1.24 0 -2.09 0.53 -2.55 1.59 v 8.1 h -1.9 V 91.57 H 168.91 z" stroke-linecap="round"/>
</g>
<g transform="matrix(3.0303 0 0 3.0303 625.3485 476.0303)" id="183655">
<path style="stroke: none; stroke-width: 0; stroke-dasharray: none; stroke-linecap: butt; stroke-dashoffset: 0; stroke-linejoin: miter; stroke-miterlimit: 4; is-custom-font: none; font-file-url: none; fill: rgb(0,0,0); fill-rule: nonzero; opacity: 1;" transform=" translate(-191.865, -95.09)" d="M 190.74 88.62 c 0 -0.31 0.09 -0.57 0.28 -0.78 c 0.19 -0.21 0.47 -0.32 0.84 -0.32 s 0.65 0.11 0.84 0.32 s 0.29 0.47 0.29 0.78 s -0.1 0.56 -0.29 0.77 s -0.47 0.31 -0.84 0.31 s -0.65 -0.1 -0.84 -0.31 C 190.84 89.19 190.74 88.93 190.74 88.62 z M 192.79 102.66 h -1.9 V 91.57 h 1.9 V 102.66 z" stroke-linecap="round"/>
</g>
<g transform="matrix(3.0303 0 0 3.0303 649.2727 482.1667)" id="546849">
<path style="stroke: none; stroke-width: 0; stroke-dasharray: none; stroke-linecap: butt; stroke-dashoffset: 0; stroke-linejoin: miter; stroke-miterlimit: 4; is-custom-font: none; font-file-url: none; fill: rgb(0,0,0); fill-rule: nonzero; opacity: 1;" transform=" translate(-199.76, -97.115)" d="M 202.29 99.72 c 0 -0.51 -0.19 -0.91 -0.58 -1.19 c -0.39 -0.28 -1.06 -0.53 -2.02 -0.73 c -0.96 -0.21 -1.72 -0.45 -2.29 -0.74 c -0.56 -0.29 -0.98 -0.63 -1.25 -1.03 c -0.27 -0.4 -0.41 -0.87 -0.41 -1.42 c 0 -0.91 0.38 -1.68 1.15 -2.31 c 0.77 -0.63 1.75 -0.94 2.95 -0.94 c 1.26 0 2.28 0.32 3.06 0.97 c 0.78 0.65 1.17 1.48 1.17 2.49 h -1.91 c 0 -0.52 -0.22 -0.97 -0.66 -1.34 c -0.44 -0.38 -1 -0.56 -1.67 -0.56 c -0.69 0 -1.23 0.15 -1.62 0.45 s -0.58 0.69 -0.58 1.18 c 0 0.46 0.18 0.8 0.54 1.04 s 1.02 0.45 1.96 0.67 c 0.95 0.21 1.71 0.46 2.3 0.76 s 1.02 0.65 1.31 1.06 c 0.28 0.41 0.43 0.92 0.43 1.51 c 0 0.99 -0.4 1.79 -1.19 2.38 c -0.79 0.6 -1.82 0.9 -3.09 0.9 c -0.89 0 -1.67 -0.16 -2.36 -0.47 s -1.22 -0.75 -1.6 -1.32 c -0.39 -0.56 -0.58 -1.17 -0.58 -1.83 h 1.9 c 0.03 0.64 0.29 1.14 0.76 1.51 c 0.48 0.37 1.1 0.56 1.88 0.56 c 0.72 0 1.29 -0.15 1.73 -0.44 C 202.07 100.59 202.29 100.2 202.29 99.72 z" stroke-linecap="round"/>
</g>
<g transform="matrix(3.0303 0 0 3.0303 689.3788 476.0303)" id="625393">
<path style="stroke: none; stroke-width: 0; stroke-dasharray: none; stroke-linecap: butt; stroke-dashoffset: 0; stroke-linejoin: miter; stroke-miterlimit: 4; is-custom-font: none; font-file-url: none; fill: rgb(0,0,0); fill-rule: nonzero; opacity: 1;" transform=" translate(-212.995, -95.09)" d="M 211.87 88.62 c 0 -0.31 0.09 -0.57 0.28 -0.78 c 0.19 -0.21 0.47 -0.32 0.84 -0.32 s 0.65 0.11 0.84 0.32 s 0.29 0.47 0.29 0.78 s -0.1 0.56 -0.29 0.77 s -0.47 0.31 -0.84 0.31 s -0.65 -0.1 -0.84 -0.31 C 211.96 89.19 211.87 88.93 211.87 88.62 z M 213.92 102.66 h -1.9 V 91.57 h 1.9 V 102.66 z" stroke-linecap="round"/>
</g>
<g transform="matrix(3.0303 0 0 3.0303 714.5757 481.8636)" id="687638">
<path style="stroke: none; stroke-width: 0; stroke-dasharray: none; stroke-linecap: butt; stroke-dashoffset: 0; stroke-linejoin: miter; stroke-miterlimit: 4; is-custom-font: none; font-file-url: none; fill: rgb(0,0,0); fill-rule: nonzero; opacity: 1;" transform=" translate(-221.31, -97.015)" d="M 218.75 91.57 l 0.06 1.39 c 0.85 -1.07 1.96 -1.6 3.32 -1.6 c 2.34 0 3.53 1.32 3.55 3.97 v 7.33 h -1.9 v -7.34 c -0.01 -0.8 -0.19 -1.39 -0.55 -1.77 c -0.36 -0.38 -0.92 -0.57 -1.68 -0.57 c -0.62 0 -1.16 0.16 -1.62 0.49 c -0.47 0.33 -0.83 0.76 -1.09 1.29 v 7.91 h -1.9 V 91.57 H 218.75 z" stroke-linecap="round"/>
</g>
<g transform="matrix(3.0303 0 0 3.0303 425.7575 673.0758)" id="389291">
<path style="stroke: none; stroke-width: 0; stroke-dasharray: none; stroke-linecap: butt; stroke-dashoffset: 0; stroke-linejoin: miter; stroke-miterlimit: 4; is-custom-font: none; font-file-url: none; fill: rgb(0,0,0); fill-rule: nonzero; opacity: 1;" transform=" translate(-126, -160.115)" d="M 128.53 162.72 c 0 -0.51 -0.19 -0.91 -0.58 -1.19 c -0.39 -0.28 -1.06 -0.53 -2.02 -0.73 c -0.96 -0.21 -1.72 -0.45 -2.29 -0.74 c -0.56 -0.29 -0.98 -0.63 -1.25 -1.03 c -0.27 -0.4 -0.41 -0.87 -0.41 -1.42 c 0 -0.91 0.38 -1.68 1.15 -2.31 c 0.77 -0.63 1.75 -0.94 2.95 -0.94 c 1.26 0 2.28 0.32 3.06 0.97 c 0.78 0.65 1.17 1.48 1.17 2.49 h -1.91 c 0 -0.52 -0.22 -0.97 -0.66 -1.34 c -0.44 -0.38 -1 -0.56 -1.67 -0.56 c -0.69 0 -1.23 0.15 -1.62 0.45 s -0.58 0.69 -0.58 1.18 c 0 0.46 0.18 0.8 0.54 1.04 s 1.02 0.45 1.96 0.67 c 0.95 0.21 1.71 0.46 2.3 0.76 s 1.02 0.65 1.31 1.06 c 0.28 0.41 0.43 0.92 0.43 1.51 c 0 0.99 -0.4 1.79 -1.19 2.38 c -0.79 0.6 -1.82 0.9 -3.09 0.9 c -0.89 0 -1.67 -0.16 -2.36 -0.47 s -1.22 -0.75 -1.6 -1.32 c -0.39 -0.56 -0.58 -1.17 -0.58 -1.83 h 1.9 c 0.03 0.64 0.29 1.14 0.76 1.51 c 0.48 0.37 1.1 0.56 1.88 0.56 c 0.72 0 1.29 -0.15 1.73 -0.44 C 128.32 163.59 128.53 163.2 128.53 162.72 z" stroke-linecap="round"/>
</g>
<g transform="matrix(3.0303 0 0 3.0303 459.8788 666.0454)" id="244431">
<path style="stroke: none; stroke-width: 0; stroke-dasharray: none; stroke-linecap: butt; stroke-dashoffset: 0; stroke-linejoin: miter; stroke-miterlimit: 4; is-custom-font: none; font-file-url: none; fill: rgb(0,0,0); fill-rule: nonzero; opacity: 1;" transform=" translate(-137.26, -157.795)" d="M 134.8 155.91 c 0.84 -1.03 1.93 -1.55 3.28 -1.55 c 2.34 0 3.53 1.32 3.55 3.97 v 7.33 h -1.9 v -7.34 c -0.01 -0.8 -0.19 -1.39 -0.55 -1.77 c -0.36 -0.38 -0.92 -0.57 -1.68 -0.57 c -0.62 0 -1.16 0.16 -1.62 0.49 c -0.47 0.33 -0.83 0.76 -1.09 1.29 v 7.91 h -1.9 v -15.75 h 1.9 V 155.91 z" stroke-linecap="round"/>
</g>
<g transform="matrix(3.0303 0 0 3.0303 494.6364 673.0606)" id="852061">
<path style="stroke: none; stroke-width: 0; stroke-dasharray: none; stroke-linecap: butt; stroke-dashoffset: 0; stroke-linejoin: miter; stroke-miterlimit: 4; is-custom-font: none; font-file-url: none; fill: rgb(0,0,0); fill-rule: nonzero; opacity: 1;" transform=" translate(-148.73, -160.11)" d="M 151.32 165.66 c -0.11 -0.22 -0.2 -0.61 -0.27 -1.17 c -0.88 0.92 -1.93 1.37 -3.16 1.37 c -1.09 0 -1.99 -0.31 -2.69 -0.93 c -0.7 -0.62 -1.05 -1.4 -1.05 -2.35 c 0 -1.16 0.44 -2.05 1.32 -2.69 c 0.88 -0.64 2.11 -0.96 3.71 -0.96 h 1.85 v -0.87 c 0 -0.66 -0.2 -1.19 -0.6 -1.58 c -0.4 -0.39 -0.98 -0.59 -1.75 -0.59 c -0.68 0 -1.24 0.17 -1.7 0.51 s -0.69 0.76 -0.69 1.24 h -1.91 c 0 -0.55 0.2 -1.09 0.59 -1.6 c 0.39 -0.52 0.93 -0.92 1.6 -1.23 c 0.67 -0.3 1.41 -0.45 2.22 -0.45 c 1.28 0 2.28 0.32 3 0.96 s 1.1 1.52 1.13 2.64 v 5.11 c 0 1.02 0.13 1.83 0.39 2.43 v 0.16 H 151.32 z M 148.17 164.22 c 0.6 0 1.16 -0.15 1.69 -0.46 s 0.92 -0.71 1.16 -1.2 v -2.28 h -1.49 c -2.32 0 -3.49 0.68 -3.49 2.04 c 0 0.59 0.2 1.06 0.59 1.39 S 147.55 164.22 148.17 164.22 z" stroke-linecap="round"/>
</g>
<g transform="matrix(3.0303 0 0 3.0303 530.5151 679.2273)" id="880827">
<path style="stroke: none; stroke-width: 0; stroke-dasharray: none; stroke-linecap: butt; stroke-dashoffset: 0; stroke-linejoin: miter; stroke-miterlimit: 4; is-custom-font: none; font-file-url: none; fill: rgb(0,0,0); fill-rule: nonzero; opacity: 1;" transform=" translate(-160.57, -162.145)" d="M 165.26 160.24 c 0 1.69 -0.39 3.05 -1.16 4.08 s -1.82 1.55 -3.14 1.55 c -1.35 0 -2.41 -0.43 -3.18 -1.28 v 5.34 h -1.9 v -15.36 h 1.73 l 0.09 1.23 c 0.77 -0.96 1.85 -1.44 3.22 -1.44 c 1.33 0 2.39 0.5 3.16 1.51 c 0.78 1 1.16 2.4 1.16 4.19 V 160.24 z M 163.36 160.02 c 0 -1.25 -0.27 -2.24 -0.8 -2.96 s -1.27 -1.09 -2.2 -1.09 c -1.15 0 -2.01 0.51 -2.58 1.53 v 5.3 c 0.57 1.01 1.44 1.52 2.61 1.52 c 0.91 0 1.63 -0.36 2.17 -1.08 C 163.1 162.52 163.36 161.44 163.36 160.02 z" stroke-linecap="round"/>
</g>
<g transform="matrix(3.0303 0 0 3.0303 564.8334 673.0909)" id="67851">
<path style="stroke: none; stroke-width: 0; stroke-dasharray: none; stroke-linecap: butt; stroke-dashoffset: 0; stroke-linejoin: miter; stroke-miterlimit: 4; is-custom-font: none; font-file-url: none; fill: rgb(0,0,0); fill-rule: nonzero; opacity: 1;" transform=" translate(-171.895, -160.12)" d="M 172.28 165.87 c -1.5 0 -2.73 -0.49 -3.67 -1.48 s -1.42 -2.31 -1.42 -3.96 v -0.35 c 0 -1.1 0.21 -2.08 0.63 -2.95 c 0.42 -0.86 1.01 -1.54 1.76 -2.03 c 0.76 -0.49 1.57 -0.73 2.46 -0.73 c 1.44 0 2.56 0.48 3.36 1.43 s 1.2 2.31 1.2 4.08 v 0.79 h -7.52 c 0.03 1.09 0.35 1.98 0.96 2.65 c 0.61 0.67 1.39 1.01 2.33 1.01 c 0.67 0 1.24 -0.14 1.7 -0.41 s 0.87 -0.64 1.22 -1.09 l 1.16 0.9 C 175.53 165.15 174.14 165.87 172.28 165.87 z M 172.04 155.92 c -0.77 0 -1.41 0.28 -1.93 0.84 s -0.84 1.34 -0.96 2.34 h 5.56 v -0.14 c -0.05 -0.96 -0.31 -1.71 -0.78 -2.24 S 172.83 155.92 172.04 155.92 z" stroke-linecap="round"/>
</g>
<g transform="matrix(1 0 0 1 500 581.4187)" style="" id="129640">
		
<path xml:space="preserve" font-family="roboto" font-size="108" font-style="normal" font-weight="bold" style="stroke: none; stroke-width: 0; stroke-dasharray: none; stroke-linecap: butt; stroke-dashoffset: 0; stroke-linejoin: miter; stroke-miterlimit: 4; is-custom-font: none; font-file-url: none; fill: rgb(252,238,33); fill-rule: nonzero; opacity: 1; white-space: pre;" d="M-253.86-42.85L-233.19-42.85L-213.47 12.83L-193.85-42.85L-173.07-42.85L-173.07 33.93L-188.94 33.93L-188.94 12.94L-187.36-23.29L-208.09 33.93L-218.95 33.93L-239.62-23.24L-238.04 12.94L-238.04 33.93L-253.86 33.93L-253.86-42.85Z"/><path xml:space="preserve" font-family="roboto" font-size="108" font-style="normal" font-weight="bold" style="stroke: none; stroke-width: 0; stroke-dasharray: none; stroke-linecap: butt; stroke-dashoffset: 0; stroke-linejoin: miter; stroke-miterlimit: 4; is-custom-font: none; font-file-url: none; fill: rgb(252,238,33); fill-rule: nonzero; opacity: 1; white-space: pre;" d="M-154.64 5.56L-154.64 4.87Q-154.64-3.62-151.37-10.26Q-148.10-16.91-141.95-20.55Q-135.81-24.19-127.69-24.19L-127.69-24.19Q-116.14-24.19-108.84-17.12Q-101.53-10.05-100.69 2.08L-100.69 2.08L-100.58 5.98Q-100.58 19.11-107.91 27.05Q-115.24 34.98-127.58 34.98Q-139.92 34.98-147.28 27.07Q-154.64 19.16-154.64 5.56L-154.64 5.56ZM-139.40 5.98L-139.40 5.98Q-139.40 14.10-136.34 18.40Q-133.28 22.69-127.58 22.69L-127.58 22.69Q-122.05 22.69-118.94 18.45Q-115.82 14.20-115.82 4.87L-115.82 4.87Q-115.82-3.09-118.94-7.47Q-122.05-11.85-127.69-11.85L-127.69-11.85Q-133.28-11.85-136.34-7.50Q-139.40-3.15-139.40 5.98Z"/><path xml:space="preserve" font-family="roboto" font-size="108" font-style="normal" font-weight="bold" style="stroke: none; stroke-width: 0; stroke-dasharray: none; stroke-linecap: butt; stroke-dashoffset: 0; stroke-linejoin: miter; stroke-miterlimit: 4; is-custom-font: none; font-file-url: none; fill: rgb(252,238,33); fill-rule: nonzero; opacity: 1; white-space: pre;" d="M-85.58 4.98L-85.58 4.98Q-85.58-8.37-79.59-16.28Q-73.61-24.19-63.22-24.19L-63.22-24.19Q-54.89-24.19-49.46-17.96L-49.46-17.96L-49.46-47.07L-34.16-47.07L-34.16 33.93L-47.93 33.93L-48.66 27.86Q-54.36 34.98-63.32 34.98L-63.32 34.98Q-73.40 34.98-79.49 27.05Q-85.58 19.11-85.58 4.98ZM-70.34 6.08L-70.34 6.08Q-70.34 14.10-67.54 18.37Q-64.75 22.64-59.42 22.64L-59.42 22.64Q-52.36 22.64-49.46 16.68L-49.46 16.68L-49.46-5.83Q-52.30-11.79-59.32-11.79L-59.32-11.79Q-70.34-11.79-70.34 6.08Z"/><path xml:space="preserve" font-family="roboto" font-size="108" font-style="normal" font-weight="bold" style="stroke: none; stroke-width: 0; stroke-dasharray: none; stroke-linecap: butt; stroke-dashoffset: 0; stroke-linejoin: miter; stroke-miterlimit: 4; is-custom-font: none; font-file-url: none; fill: rgb(252,238,33); fill-rule: nonzero; opacity: 1; white-space: pre;" d="M11.90 34.98L11.90 34.98Q-0.65 34.98-8.53 27.28Q-16.41 19.58-16.41 6.77L-16.41 6.77L-16.41 5.29Q-16.41-3.30-13.09-10.08Q-9.77-16.86-3.68-20.52Q2.41-24.19 10.22-24.19L10.22-24.19Q21.92-24.19 28.65-16.80Q35.37-9.42 35.37 4.13L35.37 4.13L35.37 10.35L-0.96 10.35Q-0.23 15.94 3.49 19.32Q7.21 22.69 12.91 22.69L12.91 22.69Q21.71 22.69 26.67 16.31L26.67 16.31L34.16 24.70Q30.73 29.55 24.88 32.27Q19.02 34.98 11.90 34.98ZM10.16-11.85L10.16-11.85Q5.63-11.85 2.81-8.79Q-0.01-5.73-0.81-0.03L-0.81-0.03L20.39-0.03L20.39-1.25Q20.29-6.31 17.65-9.08Q15.01-11.85 10.16-11.85Z"/><path xml:space="preserve" font-family="roboto" font-size="108" font-style="normal" font-weight="bold" style="stroke: none; stroke-width: 0; stroke-dasharray: none; stroke-linecap: butt; stroke-dashoffset: 0; stroke-linejoin: miter; stroke-miterlimit: 4; is-custom-font: none; font-file-url: none; fill: rgb(252,238,33); fill-rule: nonzero; opacity: 1; white-space: pre;" d="M84.28-23.50L84.07-8.84Q80.96-9.26 78.59-9.26L78.59-9.26Q69.94-9.26 67.25-3.41L67.25-3.41L67.25 33.93L52.01 33.93L52.01-23.13L66.41-23.13L66.83-16.33Q71.42-24.19 79.54-24.19L79.54-24.19Q82.07-24.19 84.28-23.50L84.28-23.50Z"/><path xml:space="preserve" font-family="roboto" font-size="108" font-style="normal" font-weight="bold" style="stroke: none; stroke-width: 0; stroke-dasharray: none; stroke-linecap: butt; stroke-dashoffset: 0; stroke-linejoin: miter; stroke-miterlimit: 4; is-custom-font: none; font-file-url: none; fill: rgb(252,238,33); fill-rule: nonzero; opacity: 1; white-space: pre;" d="M146.28 33.93L130.88 33.93Q129.82 31.87 129.35 28.81L129.35 28.81Q123.81 34.98 114.95 34.98L114.95 34.98Q106.57 34.98 101.06 30.13Q95.55 25.28 95.55 17.90L95.55 17.90Q95.55 8.83 102.27 3.97Q108.99-0.88 121.70-0.93L121.70-0.93L128.72-0.93L128.72-4.20Q128.72-8.15 126.69-10.53Q124.66-12.90 120.28-12.90L120.28-12.90Q116.43-12.90 114.24-11.06Q112.05-9.21 112.05-5.99L112.05-5.99L96.81-5.99Q96.81-10.95 99.87-15.17Q102.93-19.39 108.52-21.79Q114.11-24.19 121.07-24.19L121.07-24.19Q131.62-24.19 137.81-18.89Q144.01-13.59 144.01-3.99L144.01-3.99L144.01 20.74Q144.06 28.86 146.28 33.03L146.28 33.03L146.28 33.93ZM118.27 23.33L118.27 23.33Q121.65 23.33 124.50 21.82Q127.34 20.32 128.72 17.79L128.72 17.79L128.72 7.98L123.02 7.98Q111.58 7.98 110.84 15.89L110.84 15.89L110.79 16.79Q110.79 19.64 112.79 21.48Q114.79 23.33 118.27 23.33Z"/><path xml:space="preserve" font-family="roboto" font-size="108" font-style="normal" font-weight="bold" style="stroke: none; stroke-width: 0; stroke-dasharray: none; stroke-linecap: butt; stroke-dashoffset: 0; stroke-linejoin: miter; stroke-miterlimit: 4; is-custom-font: none; font-file-url: none; fill: rgb(252,238,33); fill-rule: nonzero; opacity: 1; white-space: pre;" d="M166.71-37.16L181.95-37.16L181.95-23.13L191.71-23.13L191.71-11.95L181.95-11.95L181.95 16.52Q181.95 19.69 183.17 21.06Q184.38 22.43 187.81 22.43L187.81 22.43Q190.34 22.43 192.29 22.06L192.29 22.06L192.29 33.61Q187.81 34.98 183.06 34.98L183.06 34.98Q167.03 34.98 166.71 18.79L166.71 18.79L166.71-11.95L158.38-11.95L158.38-23.13L166.71-23.13L166.71-37.16Z"/><path xml:space="preserve" font-family="roboto" font-size="108" font-style="normal" font-weight="bold" style="stroke: none; stroke-width: 0; stroke-dasharray: none; stroke-linecap: butt; stroke-dashoffset: 0; stroke-linejoin: miter; stroke-miterlimit: 4; is-custom-font: none; font-file-url: none; fill: rgb(252,238,33); fill-rule: nonzero; opacity: 1; white-space: pre;" d="M234.45 34.98L234.45 34.98Q221.90 34.98 214.02 27.28Q206.14 19.58 206.14 6.77L206.14 6.77L206.14 5.29Q206.14-3.30 209.46-10.08Q212.78-16.86 218.87-20.52Q224.96-24.19 232.77-24.19L232.77-24.19Q244.47-24.19 251.20-16.80Q257.92-9.42 257.92 4.13L257.92 4.13L257.92 10.35L221.59 10.35Q222.32 15.94 226.04 19.32Q229.76 22.69 235.46 22.69L235.46 22.69Q244.26 22.69 249.22 16.31L249.22 16.31L256.71 24.70Q253.28 29.55 247.43 32.27Q241.57 34.98 234.45 34.98ZM232.71-11.85L232.71-11.85Q228.18-11.85 225.36-8.79Q222.54-5.73 221.74-0.03L221.74-0.03L242.94-0.03L242.94-1.25Q242.84-6.31 240.20-9.08Q237.56-11.85 232.71-11.85Z"/></g>
</svg>