<?xml version="1.0" encoding="utf-8"?>
<!-- Generator: Adobe Illustrator 24.0.1, SVG Export Plug-In . SVG Version: 6.00 Build 0)  -->
<svg version="1.1" id="Layer_1" xmlns="http://www.w3.org/2000/svg" xmlns:xlink="http://www.w3.org/1999/xlink" x="0px" y="0px"
	 viewBox="0 0 720 720" style="enable-background:new 0 0 720 720;" xml:space="preserve">
<style type="text/css">
	.st0{opacity:0.2;fill:#C9C7C8;}
	.st1{fill:#C9C7C8;}
	.st2{fill:#BDDEFF;}
	.st3{stroke:#000000;stroke-miterlimit:10;}
	.st4{fill:#A0D19B;stroke:#000000;stroke-miterlimit:10;}
	.st5{fill:none;stroke:#000000;stroke-width:0.5;stroke-miterlimit:10;stroke-dasharray:4;}
	.st6{fill:none;stroke:#000000;stroke-miterlimit:10;}
	.st7{fill:none;stroke:#000000;stroke-width:0.5;stroke-miterlimit:10;}
	.st8{fill:none;stroke:#000000;stroke-width:0.5;stroke-miterlimit:10;stroke-dasharray:4.0075,4.0075;}
	.st9{fill:#FFFFFF;stroke:#000000;stroke-miterlimit:10;}
	.st10{fill:#FFFFFF;}
	.st11{fill:#F4F4F4;}
	.st12{fill:#EBB000;}
	.st13{fill:#F6DE94;}
	.st14{fill:#EEBD2B;}
	.st15{fill:#F9E8B5;}
	.st16{fill:#EEB52F;}
	.st17{fill:#939393;}
	.st18{fill:#A0D19B;}
	.st19{fill:#D6D6D6;}
	.st20{fill:#EBB000;stroke:#000000;stroke-miterlimit:10;}
	.st21{fill:#F6DE94;stroke:#000000;stroke-miterlimit:10;}
	.st22{fill:#EEBD2B;stroke:#000000;stroke-miterlimit:10;}
	.st23{fill:#F9E8B5;stroke:#000000;stroke-miterlimit:10;}
	.st24{fill:none;stroke:#EEB52F;stroke-miterlimit:10;}
	.st25{fill:#939393;stroke:#000000;stroke-miterlimit:10;}
	.st26{fill:none;stroke:#000000;stroke-width:0.5;stroke-miterlimit:10;stroke-dasharray:4.0227,4.0227;}
	.st27{fill:#F5F5F5;stroke:#000000;stroke-miterlimit:10;}
	.st28{fill:#375A64;stroke:#000000;stroke-miterlimit:10;}
	.st29{fill:#5D7982;stroke:#000000;stroke-miterlimit:10;}
	.st30{fill:#EEB52F;stroke:#000000;stroke-miterlimit:10;}
	.st31{opacity:0.6;stroke:#000000;stroke-miterlimit:10;}
	.st32{opacity:0.3;stroke:#000000;stroke-miterlimit:10;}
	.st33{fill:#FAFAFA;stroke:#000000;stroke-miterlimit:10;}
	.st34{opacity:0.5;fill:#FFFFFF;stroke:#000000;stroke-miterlimit:10;}
	.st35{fill:none;}
	.st36{font-family:'MyriadPro-Regular';}
	.st37{font-size:26px;}
	.st38{fill:none;stroke:#424242;stroke-miterlimit:10;stroke-dasharray:9;}
	
		.st39{fill:none;stroke:#000000;stroke-width:7;stroke-linecap:round;stroke-linejoin:round;stroke-miterlimit:10;stroke-dasharray:14;}
	.st40{fill:#FF0000;stroke:#000000;stroke-miterlimit:10;}
	.st41{fill:#DE191B;stroke:#000000;stroke-miterlimit:10;}
	.st42{fill:#CF3F0C;stroke:#000000;stroke-miterlimit:10;}
	.st43{fill:#D6A218;stroke:#000000;stroke-miterlimit:10;}
	.st44{fill:#E9DA1D;stroke:#000000;stroke-miterlimit:10;}
	.st45{fill:#B8CB1A;stroke:#000000;stroke-miterlimit:10;}
	.st46{fill:#7FB915;stroke:#000000;stroke-miterlimit:10;}
	.st47{fill:#0D8C09;stroke:#000000;stroke-miterlimit:10;}
	.st48{fill:none;stroke:#000000;stroke-width:0.5;stroke-miterlimit:10;stroke-dasharray:3.96,3.96;}
	.st49{fill:#B2B2B2;stroke:#000000;stroke-miterlimit:10;}
	.st50{fill:#F0F0F0;stroke:#000000;stroke-miterlimit:10;}
	.st51{fill:#C3C3C3;stroke:#000000;stroke-miterlimit:10;}
	.st52{fill:#CECECE;stroke:#000000;stroke-miterlimit:10;}
	.st53{fill:#F7F7F7;stroke:#000000;stroke-miterlimit:10;}
	.st54{fill:#F3F3F3;stroke:#000000;stroke-miterlimit:10;}
	.st55{fill:#DCDCDC;stroke:#000000;stroke-miterlimit:10;}
	.st56{opacity:0.5;stroke:#000000;stroke-miterlimit:10;}
	.st57{fill:#D9D9D9;stroke:#000000;stroke-miterlimit:10;}
	.st58{fill:#CCCCCC;stroke:#000000;stroke-miterlimit:10;}
	.st59{fill:#0E0E0E;stroke:#000000;stroke-miterlimit:10;}
	.st60{fill:#C1C1C1;stroke:#000000;stroke-miterlimit:10;}
	.st61{fill:#D0D0D0;stroke:#000000;stroke-miterlimit:10;}
	.st62{fill:#B6B6B6;stroke:#000000;stroke-miterlimit:10;}
	.st63{fill:#EFEFEF;stroke:#000000;stroke-miterlimit:10;}
	.st64{fill:#BBBBBB;stroke:#000000;stroke-miterlimit:10;}
	.st65{fill:#AAAAAA;stroke:#000000;stroke-miterlimit:10;}
	.st66{fill:#999999;stroke:#000000;stroke-miterlimit:10;}
</style>
<path class="st0" d="M301.05,266.61c-6.44-3.95-11.62-7.03-16.69-10.28c-7.42-4.76-18.59-0.31-20.26,8.14
	c-4.01,20.36-4.01,20.36-24.66,20.37c-15.52,0-15.97,0.08-18.79-16.1c-1.29-7.42-4.09-12.39-11.58-13.64
	c-2.85-0.47-6.26-0.34-8.83,0.81c-4.25,1.9-7.98,4.92-12.01,7.34c-4.66,2.81-8.78,2.34-12.59-1.88c-3.71-4.11-7.55-8.18-11.79-11.72
	c-5.94-4.95-5.72-10.19-1.89-16.06c1.36-2.09,2.75-4.16,4.14-6.22c7.21-10.73,3.36-20.55-9.14-23.28c-1.62-0.35-3.26-0.59-4.89-0.91
	c-11.57-2.29-12.72-3.67-12.73-15.16c0-1.94,0.01-3.88,0.01-5.82c0-18.5,0-18.5,18.67-21.96c10.42-1.93,15.05-12.46,9.3-21.15
	c-1.38-2.08-2.83-4.1-4.17-6.2c-5.87-9.24-5.78-11.69,2.14-19.19c16.31-15.44,12.42-20.43,35.78-4.3c5.11,3.53,16.98-1.8,18.17-7.95
	c5.18-26.79,4.56-21.04,27.03-21.53c12.96-0.28,13.63,0.57,16.35,13.24c1.45,6.75,1.2,13.98,10.78,16.37
	c4.95,1.24,7.94,0.91,11.85-1.75c16.19-11.02,16.25-10.92,30.02,2.87c11.95,11.96,11.95,11.96,2.46,26.27
	c-7.69,11.59-3.78,20.77,10.12,23.75c2.7,0.58,5.4,1.15,8.08,1.83c5.82,1.47,9.07,4.68,8.34,11.26c-0.46,4.11-0.08,8.31-0.08,12.46
	c0.01,13.95-0.44,14.59-14.2,17.1c-6.82,1.24-13.16,1.89-15.45,10.72c-1.18,4.55-1.12,7.39,1.4,11.12
	c11.39,16.84,11.35,16.96-3.16,31.31C309.22,259.98,305.21,263.04,301.05,266.61z M241.78,232.01c28-0.03,50.2-22.31,49.91-50.09
	c-0.28-27.37-22.64-49.65-49.86-49.68c-27.66-0.03-49.88,22.51-49.73,50.45C192.25,210.34,214.11,232.04,241.78,232.01z"/>
<path class="st0" d="M625.05,512.61c-6.44-3.95-11.62-7.03-16.69-10.28c-7.42-4.76-18.59-0.31-20.26,8.14
	c-4.01,20.36-4.01,20.36-24.66,20.37c-15.52,0-15.97,0.08-18.79-16.1c-1.29-7.42-4.09-12.39-11.58-13.64
	c-2.85-0.47-6.26-0.34-8.83,0.81c-4.25,1.9-7.98,4.92-12.01,7.35c-4.66,2.81-8.78,2.34-12.59-1.88c-3.71-4.11-7.55-8.18-11.79-11.72
	c-5.94-4.95-5.72-10.19-1.89-16.06c1.36-2.09,2.75-4.16,4.14-6.22c7.21-10.73,3.36-20.55-9.14-23.28c-1.62-0.35-3.26-0.59-4.89-0.91
	c-11.57-2.29-12.72-3.67-12.73-15.16c0-1.94,0.01-3.88,0.01-5.82c0-18.5,0-18.5,18.67-21.96c10.42-1.93,15.05-12.46,9.3-21.15
	c-1.38-2.08-2.83-4.1-4.17-6.2c-5.87-9.24-5.78-11.69,2.14-19.19c16.31-15.44,12.42-20.43,35.78-4.3c5.11,3.53,16.98-1.8,18.17-7.95
	c5.18-26.79,4.56-21.04,27.03-21.53c12.96-0.28,13.63,0.57,16.35,13.24c1.45,6.75,1.2,13.98,10.78,16.37
	c4.95,1.24,7.94,0.91,11.85-1.75c16.19-11.02,16.25-10.92,30.02,2.87c11.95,11.96,11.95,11.96,2.46,26.27
	c-7.69,11.59-3.78,20.77,10.12,23.75c2.7,0.58,5.4,1.15,8.08,1.83c5.82,1.47,9.07,4.68,8.34,11.26c-0.46,4.11-0.08,8.31-0.08,12.46
	c0.01,13.95-0.44,14.59-14.2,17.1c-6.82,1.24-13.16,1.89-15.45,10.72c-1.18,4.55-1.12,7.39,1.4,11.12
	c11.39,16.84,11.35,16.96-3.16,31.31C633.22,505.98,629.21,509.04,625.05,512.61z M565.78,478.01c28-0.03,50.2-22.31,49.91-50.09
	c-0.28-27.37-22.64-49.65-49.86-49.68c-27.66-0.03-49.88,22.51-49.73,50.45C516.25,456.34,538.11,478.04,565.78,478.01z"/>
<path class="st0" d="M442.67,273.73c-3.92-2.41-7.09-4.28-10.18-6.26c-4.53-2.9-11.33-0.19-12.35,4.96
	c-2.44,12.41-2.44,12.41-15.03,12.42c-9.46,0-9.74,0.05-11.45-9.82c-0.79-4.53-2.49-7.55-7.06-8.31c-1.74-0.29-3.81-0.21-5.38,0.49
	c-2.59,1.16-4.87,3-7.32,4.48c-2.84,1.71-5.35,1.43-7.67-1.15c-2.26-2.51-4.6-4.99-7.19-7.14c-3.62-3.02-3.48-6.21-1.15-9.79
	c0.83-1.27,1.68-2.53,2.52-3.79c4.4-6.54,2.05-12.53-5.57-14.19c-0.99-0.22-1.99-0.36-2.98-0.56c-7.05-1.4-7.75-2.24-7.76-9.24
	c0-1.18,0-2.37,0-3.55c0-11.28,0-11.28,11.38-13.39c6.35-1.18,9.18-7.6,5.67-12.89c-0.84-1.27-1.73-2.5-2.54-3.78
	c-3.58-5.63-3.52-7.13,1.3-11.7c9.94-9.41,7.57-12.45,21.81-2.62c3.12,2.15,10.35-1.1,11.08-4.85c3.16-16.33,2.78-12.83,16.48-13.13
	c7.9-0.17,8.31,0.35,9.97,8.07c0.88,4.11,0.73,8.52,6.57,9.98c3.02,0.76,4.84,0.56,7.22-1.06c9.87-6.72,9.91-6.66,18.3,1.75
	c7.28,7.29,7.28,7.29,1.5,16.01c-4.69,7.07-2.3,12.66,6.17,14.48c1.65,0.35,3.29,0.7,4.93,1.12c3.55,0.9,5.53,2.86,5.09,6.86
	c-0.28,2.5-0.05,5.06-0.05,7.6c0.01,8.5-0.27,8.9-8.66,10.42c-4.16,0.76-8.03,1.15-9.42,6.53c-0.72,2.77-0.68,4.51,0.85,6.78
	c6.95,10.27,6.92,10.34-1.92,19.09C447.65,269.69,445.2,271.55,442.67,273.73z M406.54,252.64c17.07-0.02,30.6-13.6,30.43-30.53
	c-0.17-16.68-13.8-30.27-30.39-30.29c-16.86-0.02-30.41,13.72-30.32,30.75C376.34,239.43,389.67,252.65,406.54,252.64z"/>
<path class="st0" d="M505.59,167.33c-3.92-2.41-7.09-4.28-10.18-6.26c-4.53-2.9-11.33-0.19-12.35,4.96
	c-2.44,12.41-2.44,12.41-15.03,12.42c-9.46,0-9.74,0.05-11.45-9.82c-0.79-4.53-2.49-7.55-7.06-8.31c-1.74-0.29-3.81-0.21-5.38,0.49
	c-2.59,1.16-4.87,3-7.32,4.48c-2.84,1.71-5.35,1.43-7.67-1.15c-2.26-2.51-4.6-4.99-7.19-7.14c-3.62-3.02-3.48-6.21-1.15-9.79
	c0.83-1.27,1.68-2.53,2.52-3.79c4.4-6.54,2.05-12.53-5.57-14.19c-0.99-0.22-1.99-0.36-2.98-0.56c-7.05-1.4-7.75-2.24-7.76-9.24
	c0-1.18,0-2.37,0-3.55c0-11.28,0-11.28,11.38-13.39c6.35-1.18,9.18-7.6,5.67-12.89c-0.84-1.27-1.73-2.5-2.54-3.78
	c-3.58-5.63-3.52-7.13,1.3-11.7c9.94-9.41,7.57-12.45,21.81-2.62c3.12,2.15,10.35-1.1,11.08-4.85c3.16-16.33,2.78-12.83,16.48-13.13
	c7.9-0.17,8.31,0.35,9.97,8.07c0.88,4.11,0.73,8.52,6.57,9.98c3.02,0.76,4.84,0.56,7.22-1.06c9.87-6.72,9.91-6.66,18.3,1.75
	c7.28,7.29,7.28,7.29,1.5,16.01c-4.69,7.07-2.3,12.66,6.17,14.48c1.65,0.35,3.29,0.7,4.93,1.12c3.55,0.9,5.53,2.86,5.09,6.86
	c-0.28,2.5-0.05,5.06-0.05,7.6c0.01,8.5-0.27,8.9-8.66,10.42c-4.16,0.76-8.03,1.15-9.42,6.53c-0.72,2.77-0.68,4.51,0.85,6.78
	c6.95,10.27,6.92,10.34-1.92,19.09C510.57,163.29,508.13,165.15,505.59,167.33z M469.46,146.24c17.07-0.02,30.6-13.6,30.43-30.53
	c-0.17-16.68-13.8-30.27-30.39-30.29c-16.86-0.02-30.41,13.72-30.32,30.75C439.27,133.03,452.59,146.25,469.46,146.24z"/>
<g>
	<g>
		<polygon class="st27" points="229.15,248.24 229.17,257.36 232.57,258.84 228.12,258.85 227.28,264.57 307.84,273.26 
			315.86,260.63 		"/>
		<polygon class="st28" points="216.69,267.56 217.74,262.26 227.71,263.43 274.35,268.9 272.61,274.68 		"/>
		<path class="st29" d="M306.16,278.36l-45.37-4.98l0,0c2.19-7.01,9.07-11.45,16.36-10.58l35.76,4.3L306.16,278.36z"/>
	</g>
	<path class="st30" d="M367.2,267.26l0.08,30.67l-157.76,0.41l0,0c-0.02-8.02,6.47-14.55,14.49-14.57l70.99-0.19l18.2-24.96
		l45.61,0.23C363.44,258.88,367.18,262.63,367.2,267.26z"/>
	<g>
		<path class="st28" d="M366.65,291.98c0,0.14-34.88,0.26-77.9,0.26c-43.04,0-77.91-0.12-77.91-0.26c0-0.14,34.88-0.26,77.91-0.26
			C331.77,291.72,366.65,291.83,366.65,291.98z"/>
	</g>
	<g>
		<polygon class="st27" points="518.38,315.75 456.62,350.39 456.62,342.49 515.7,311.55 		"/>
		<polygon class="st28" points="456.62,350.39 505.19,323.11 509.26,328.89 479.25,346.71 479.05,354.46 456.62,366.65 		"/>
		<polygon class="st28" points="456.62,425.54 505.19,398.26 509.26,404.05 479.25,421.86 479.05,429.61 456.62,441.81 		"/>
		<path class="st30" d="M327.98,403.49h128.64v-71.12c0-5.11-4.15-9.26-9.26-9.26H327.98V403.49z"/>
		
			<rect x="327.98" y="406.47" transform="matrix(-1 -1.224647e-16 1.224647e-16 -1 784.5974 907.0527)" class="st30" width="128.64" height="94.11"/>
		<polygon class="st28" points="457.33,482.78 511.94,482.78 511.94,487.78 456.59,493.7 		"/>
		<path class="st28" d="M465.2,502.4L465.2,502.4c2.61,0,4.72-2.11,4.72-4.72v-4.72c0-2.61-2.11-4.72-4.72-4.72l0,0
			c-2.61,0-4.72,2.11-4.72,4.72v4.72C460.47,500.29,462.59,502.4,465.2,502.4z"/>
		<polygon class="st28" points="506.01,485.74 506.01,469.46 498.61,469.46 498.61,486.86 		"/>
		
			<rect x="327.98" y="503.89" transform="matrix(-1 -1.224647e-16 1.224647e-16 -1 784.5591 1037.7422)" class="st30" width="128.6" height="29.97"/>
		<path class="st31" d="M327.98,403.49h128.64v-71.12c0-5.11-4.15-9.26-9.26-9.26H327.98V403.49z"/>
		
			<rect x="327.98" y="406.47" transform="matrix(-1 -1.224647e-16 1.224647e-16 -1 784.5974 907.0527)" class="st31" width="128.64" height="94.11"/>
		
			<rect x="327.98" y="503.89" transform="matrix(-1 -1.224647e-16 1.224647e-16 -1 784.5591 1037.7422)" class="st31" width="128.6" height="29.97"/>
		
			<rect x="327.98" y="533.86" transform="matrix(-1 -1.224647e-16 1.224647e-16 -1 784.5591 1079.8468)" class="st30" width="128.6" height="12.14"/>
	</g>
	
		<rect x="218.94" y="311.5" transform="matrix(-1 -1.224647e-16 1.224647e-16 -1 575.8663 846.0451)" class="st30" width="138" height="223.05"/>
	
		<rect x="218.94" y="311.5" transform="matrix(-1 -1.224647e-16 1.224647e-16 -1 575.8663 846.0451)" class="st32" width="138" height="223.05"/>
	
		<rect x="211.67" y="308.4" transform="matrix(-1 -1.224647e-16 1.224647e-16 -1 476.7769 679.3771)" class="st30" width="53.43" height="62.58"/>
	<path class="st30" d="M367.28,297.77v11.96c0,2.78-2.25,5.03-5.03,5.03h-65.09h-85.48v-16.99H367.28z"/>
	<path class="st28" d="M297.16,334.79v-37.02h-85.48v30.4c0,3.65,2.96,6.61,6.61,6.61H297.16"/>
	
		<rect x="245.83" y="302.77" transform="matrix(-1 -1.224647e-16 1.224647e-16 -1 537.0215 629.1414)" class="st29" width="45.36" height="23.61"/>
	
		<rect x="235.84" y="302.77" transform="matrix(-1 -1.224647e-16 1.224647e-16 -1 474.2307 608.0824)" class="st29" width="2.55" height="2.55"/>
	
		<rect x="230.92" y="302.77" transform="matrix(-1 -1.224647e-16 1.224647e-16 -1 464.3851 608.0824)" class="st29" width="2.55" height="2.55"/>
	
		<rect x="226" y="302.77" transform="matrix(-1 -1.224647e-16 1.224647e-16 -1 454.5394 608.0824)" class="st29" width="2.55" height="2.55"/>
	
		<rect x="215.76" y="302.77" transform="matrix(-1 -1.224647e-16 1.224647e-16 -1 438.4034 608.0824)" class="st27" width="6.88" height="2.55"/>
	
		<rect x="215.76" y="307.13" transform="matrix(-1 -1.224647e-16 1.224647e-16 -1 438.4034 616.7962)" class="st27" width="6.88" height="2.55"/>
	
		<rect x="215.76" y="311.5" transform="matrix(-1 -1.224647e-16 1.224647e-16 -1 438.4034 625.5442)" class="st27" width="6.88" height="2.55"/>
	
		<rect x="215.76" y="316.19" transform="matrix(-1 -1.224647e-16 1.224647e-16 -1 438.4034 634.9173)" class="st27" width="6.88" height="2.55"/>
	
		<rect x="226" y="307.2" transform="matrix(-1 -1.224647e-16 1.224647e-16 -1 454.5394 616.9543)" class="st29" width="2.55" height="2.55"/>
	
		<rect x="235.84" y="307.34" transform="matrix(-1 -1.224647e-16 1.224647e-16 -1 474.2307 617.2247)" class="st29" width="2.55" height="2.55"/>
	
		<rect x="235.84" y="311.58" transform="matrix(-1 -1.224647e-16 1.224647e-16 -1 474.2307 625.7151)" class="st29" width="2.55" height="2.55"/>
	
		<rect x="230.76" y="307.34" transform="matrix(-1 -1.224647e-16 1.224647e-16 -1 464.0604 617.2247)" class="st29" width="2.55" height="2.55"/>
	
		<rect x="230.76" y="311.58" transform="matrix(-1 -1.224647e-16 1.224647e-16 -1 464.0604 625.7151)" class="st29" width="2.55" height="2.55"/>
	
		<rect x="225.78" y="311.58" transform="matrix(-1 -1.224647e-16 1.224647e-16 -1 454.1092 625.7151)" class="st29" width="2.55" height="2.55"/>
	<path class="st30" d="M223.17,324.14c0,2.45,1.98,4.43,4.43,4.43c2.45,0,4.43-1.98,4.43-4.43c0-2.45-1.98-4.43-4.43-4.43
		C225.15,319.71,223.17,321.69,223.17,324.14z"/>
	<path class="st29" d="M233.69,324.14c0,1.45,1.17,2.62,2.62,2.62c1.45,0,2.62-1.17,2.62-2.62c0-1.45-1.17-2.62-2.62-2.62
		C234.87,321.52,233.69,322.69,233.69,324.14z"/>
	<path class="st29" d="M216.32,324.18c0,1.45,1.17,2.62,2.62,2.62c1.45,0,2.62-1.17,2.62-2.62c0-1.45-1.17-2.62-2.62-2.62
		C217.49,321.56,216.32,322.73,216.32,324.18z"/>
	<path class="st30" d="M211.67,441.11h155.43v-61.56c0-4.73-3.84-8.57-8.57-8.57H211.67V441.11z"/>
	<path class="st30" d="M211.67,468.03h155.43v-18.69c0-3.73-3.03-6.76-6.76-6.76H216.4c-2.61,0-4.73,2.12-4.73,4.73V468.03z"/>
	<path class="st32" d="M270.01,454.37h39.41c2.85,0,5.17-2.31,5.17-5.17v-6.62h-49.75v6.62
		C264.84,452.06,267.15,454.37,270.01,454.37z"/>
	<path class="st30" d="M211.67,520.48h155.43v-44.31c0-3.94-3.19-7.13-7.13-7.13H218.8c-3.94,0-7.13,3.19-7.13,7.13V520.48z"/>
	<path class="st32" d="M270.01,480.83h39.41c2.85,0,5.17-2.31,5.17-5.17v-6.62h-49.75v6.62
		C264.84,478.52,267.15,480.83,270.01,480.83z"/>
	
		<rect x="211.67" y="523.1" transform="matrix(-1 -1.224647e-16 1.224647e-16 -1 578.7773 1069.0923)" class="st30" width="155.43" height="22.89"/>
	
		<rect x="265.1" y="353.95" transform="matrix(-1 -1.224647e-16 1.224647e-16 -1 591.2092 711.7275)" class="st28" width="61" height="3.83"/>
	
		<rect x="265.1" y="339.69" transform="matrix(-1 -1.224647e-16 1.224647e-16 -1 612.3099 693.6397)" class="st27" width="82.1" height="14.26"/>
	<g>
		<path class="st33" d="M265.35,305.85c0,0.15,5.07,0.27,11.32,0.27c6.25,0,11.32-0.12,11.32-0.27c0-0.15-5.07-0.27-11.32-0.27
			C270.42,305.59,265.35,305.71,265.35,305.85z"/>
	</g>
	<g>
		<path class="st33" d="M278.39,309.5c0,0.15,2.15,0.27,4.8,0.27c2.65,0,4.8-0.12,4.8-0.27s-2.15-0.27-4.8-0.27
			C280.54,309.24,278.39,309.36,278.39,309.5z"/>
	</g>
	<g>
		<path class="st33" d="M278.39,313.37c0,0.15,2.15,0.27,4.8,0.27c2.65,0,4.8-0.12,4.8-0.27c0-0.15-2.15-0.27-4.8-0.27
			C280.54,313.1,278.39,313.22,278.39,313.37z"/>
	</g>
	<g>
		<path class="st33" d="M278.1,319.71c0,0.15,2.15,0.27,4.8,0.27c2.65,0,4.8-0.12,4.8-0.27s-2.15-0.27-4.8-0.27
			C280.25,319.44,278.1,319.56,278.1,319.71z"/>
	</g>
	<g>
		<path class="st33" d="M251.84,319.71c0,0.15,2.15,0.27,4.8,0.27c2.65,0,4.8-0.12,4.8-0.27s-2.15-0.27-4.8-0.27
			C253.99,319.44,251.84,319.56,251.84,319.71z"/>
	</g>
	
		<rect x="211.67" y="523.1" transform="matrix(-1 -1.224647e-16 1.224647e-16 -1 578.7773 1069.0923)" class="st34" width="155.43" height="22.89"/>
	<g>
		<path class="st28" d="M211.76,434.3c0,0.15,34.73,0.27,77.57,0.27c42.85,0,77.58-0.12,77.58-0.27c0-0.15-34.73-0.27-77.58-0.27
			C246.5,434.03,211.76,434.15,211.76,434.3z"/>
	</g>
	<g>
		<path class="st28" d="M211.76,428.6c0,0.15,34.73,0.27,77.57,0.27c42.85,0,77.58-0.12,77.58-0.27c0-0.15-34.73-0.27-77.58-0.27
			C246.5,428.33,211.76,428.45,211.76,428.6z"/>
	</g>
	<g>
		<path class="st28" d="M211.76,422.9c0,0.15,34.73,0.27,77.57,0.27c42.85,0,77.58-0.12,77.58-0.27c0-0.15-34.73-0.27-77.58-0.27
			C246.5,422.63,211.76,422.75,211.76,422.9z"/>
	</g>
	<g>
		<path class="st28" d="M211.76,417.19c0,0.15,34.73,0.27,77.57,0.27c42.85,0,77.58-0.12,77.58-0.27s-34.73-0.27-77.58-0.27
			C246.5,416.93,211.76,417.05,211.76,417.19z"/>
	</g>
	<g>
		<path class="st28" d="M211.52,468c0,0.15,34.89,0.27,77.92,0.27c43.05,0,77.93-0.12,77.93-0.27c0-0.15-34.88-0.27-77.93-0.27
			C246.41,467.74,211.52,467.86,211.52,468z"/>
	</g>
	<g>
		<path class="st28" d="M211.52,520.48c0,0.15,34.89,0.27,77.92,0.27c43.05,0,77.93-0.12,77.93-0.27s-34.88-0.27-77.93-0.27
			C246.41,520.21,211.52,520.33,211.52,520.48z"/>
	</g>
	<g>
		<path class="st28" d="M264.84,442.58c-0.02,0-0.03,0.24-0.06,0.69c-0.03,0.51-0.08,1.16-0.13,1.98c-0.05,0.86-0.13,1.92-0.02,3.16
			c0.12,1.23,0.5,2.67,1.53,3.91c0.51,0.61,1.2,1.14,2.01,1.46c0.8,0.33,1.67,0.52,2.57,0.69c1.8,0.34,3.75,0.49,5.79,0.54
			c4.09,0.05,8.56-0.07,13.26-0.12c4.7-0.07,9.17-0.14,13.25-0.2c2.04-0.05,3.96-0.03,5.8-0.14c0.91-0.08,1.81-0.24,2.61-0.59
			c0.8-0.34,1.48-0.89,1.97-1.52c0.99-1.27,1.34-2.72,1.43-3.95c0.07-1.24,0.02-2.29-0.02-3.15c-0.04-0.86-0.09-1.53-0.13-1.98
			c-0.04-0.45-0.07-0.69-0.09-0.69c-0.02,0-0.02,0.24-0.02,0.69c0.01,0.51,0.02,1.17,0.03,1.98c0,0.86,0.02,1.92-0.07,3.12
			c-0.11,1.19-0.48,2.57-1.42,3.73c-0.46,0.58-1.09,1.07-1.84,1.38c-0.75,0.32-1.6,0.46-2.48,0.53c-1.78,0.09-3.74,0.06-5.77,0.09
			c-4.08,0.05-8.55,0.1-13.25,0.16c-4.7,0.05-9.18,0.18-13.24,0.16c-2.03-0.03-3.95-0.17-5.72-0.48c-0.88-0.16-1.74-0.33-2.49-0.64
			c-0.76-0.29-1.39-0.76-1.88-1.33c-0.97-1.14-1.37-2.51-1.52-3.7c-0.13-1.2-0.09-2.26-0.07-3.12c0.03-0.86,0.04-1.53,0.03-1.99
			C264.88,442.82,264.86,442.58,264.84,442.58z"/>
	</g>
	<g>
		<path class="st28" d="M264.84,468.57c-0.02,0-0.03,0.24-0.06,0.69c-0.03,0.51-0.08,1.16-0.13,1.98c-0.05,0.86-0.13,1.92-0.02,3.16
			c0.12,1.23,0.5,2.67,1.53,3.91c0.51,0.61,1.2,1.14,2.01,1.46c0.8,0.33,1.67,0.52,2.57,0.69c1.8,0.34,3.75,0.49,5.79,0.54
			c4.09,0.05,8.56-0.07,13.26-0.12c4.7-0.07,9.17-0.14,13.25-0.2c2.04-0.05,3.96-0.03,5.8-0.14c0.91-0.08,1.81-0.24,2.61-0.59
			c0.8-0.34,1.48-0.89,1.97-1.52c0.99-1.27,1.34-2.72,1.43-3.95c0.07-1.24,0.02-2.29-0.02-3.15c-0.04-0.86-0.09-1.53-0.13-1.98
			c-0.04-0.45-0.07-0.69-0.09-0.69c-0.02,0-0.02,0.24-0.02,0.69c0.01,0.51,0.02,1.17,0.03,1.98c0,0.86,0.02,1.92-0.07,3.12
			c-0.11,1.19-0.48,2.57-1.42,3.73c-0.46,0.58-1.09,1.07-1.84,1.38c-0.75,0.32-1.6,0.46-2.48,0.53c-1.78,0.09-3.74,0.06-5.77,0.09
			c-4.08,0.05-8.55,0.1-13.25,0.16c-4.7,0.05-9.18,0.18-13.24,0.16c-2.03-0.03-3.95-0.17-5.72-0.48c-0.88-0.16-1.74-0.33-2.49-0.64
			c-0.76-0.29-1.39-0.76-1.88-1.33c-0.97-1.14-1.37-2.51-1.52-3.7c-0.13-1.2-0.09-2.26-0.07-3.12c0.03-0.86,0.04-1.53,0.03-1.99
			C264.88,468.81,264.86,468.57,264.84,468.57z"/>
	</g>
</g>
<g>
	<path d="M112.96,514.44l-2.77,25.25c0,0,10.77,4.85,22.47,1.29c0,0,17.8,5.04,42.26-2.41c0,0,1.25-7.35-5.69-11.05
		c-6.94-3.7-33.34-2.63-38.47-8.04c-5.13-5.41-1.82-5.88-1.82-5.88"/>
	<path class="st4" d="M69.05,305.2c0,0,3.93,19.8,12.34,38.49c10,22.23,16.67,32.24,17.79,60.03c1.11,27.79,5.56,63.36-2.34,109.15
		c0,0,10,6.67,31.13,6.67s20.01-7.78,20.01-7.78s7.67-72.92,7.78-107.83c0.11-35.78-2.11-50.23-11.73-98.49"/>
	<path d="M73.38,511.87l-7.06,24.4c0,0,9.78,6.63,21.92,5.13c0,0,16.67,8.02,42.05,4.88c0,0,2.49-7.03-3.71-11.86
		s-32.39-8.31-36.52-14.52c-4.13-6.21-0.78-6.11-0.78-6.11"/>
	<path class="st3" d="M201.29,263.64l-6.05,24.97l2.85,0.09c0,0,3.48,1.8,6.69-6.86l-9.59-1.84"/>
	<path class="st9" d="M124.62,218.75c0,0,0.23,19.03,17.88,44.7c17.65,25.66,55.59,25.24,55.59,25.24
		c-2.39-3.75,11.6-23.19,11.6-23.19l-27.62-6.14c0,0,0,0-9.04-10.06c-9.04-10.06-19.38-62.35-19.38-62.35"/>
	<path class="st4" d="M66.01,298.19c0,0,0.47,20.18,5.55,40.04c6.04,23.62,10.9,34.62,7.22,62.19
		c-3.67,27.57-5.4,63.38-21.03,107.13c0,0,8.71,8.29,29.52,11.91s21.05-4.23,21.05-4.23s20.07-70.53,26.17-104.9
		c6.25-35.23,6.54-49.85,5.34-99.05"/>
	<path class="st6" d="M149.08,159.36c0,0-1.11,14.45-8.89,15.56c-7.78,1.11-7.78-7.78-7.78-7.78s-2.22-10,0-10
		c2.49,0,2.22,2.22,2.22,2.22l1.11-7.78h7.78L149.08,159.36z"/>
	<path d="M140.19,154.92c0,0,5.56,6.67,8.89,6.67s7.78-4.45,7.78-10c0-5.56-3.34-8.89-3.34-8.89s-2.22,4.45-4.45,4.45
		s-8.89-3.33-14.45,1.11c-3.18,2.54-3.29,6.16-2.78,8.34c0.38,1.63,1.11,0,1.11,0l1.11,1.11l0.56,1.67
		C134.63,159.36,139.08,158.25,140.19,154.92z"/>
	<path class="st6" d="M140.19,174.93v14.45c0,0-1.11,2.22-4.45,2.22s-10-6.67-10-14.45l6.23-11.98"/>
	<path class="st9" d="M127.96,173.81c0,0-8.89-4.45-15.56-4.45c-6.67,0-13.23-0.21-13.23-0.21s-29.02,33.56-35.69,68.02
		s-4.45,62.25-4.45,62.25s3.33,11.12,45.58,10s41.13-6.67,41.13-6.67s-10-14.45-11.12-40.02s18.9-75.59,18.9-75.59
		s-6.55-6.43-13.28-8.77C140.25,178.38,139.08,192.71,127.96,173.81z"/>
	<path d="M89.05,209.39c0,0-18.16,13.59-26.31,31.81c0,0,1.08-14.02,10.36-31.81C73.1,209.39,84.61,204.94,89.05,209.39z"/>
	<path class="st9" d="M42.08,295.55l9.7,36.26c0.22,0.83,1.01,1.38,1.86,1.3h0c1.07-0.1,1.8-1.12,1.55-2.16l-2.42-10.11l3.77,16.14
		c0.2,0.85,0.99,1.42,1.86,1.34h0c1.05-0.1,1.77-1.1,1.53-2.13l-3.66-15.68l4.64,18.2c0.21,0.84,1.01,1.4,1.87,1.32l0.06-0.01
		c1.04-0.1,1.77-1.07,1.56-2.1l-3.62-18.19l3.1,16.68c0.25,1.34,1.52,2.22,2.86,1.99l0.37-0.06c0.96-0.16,1.6-1.07,1.44-2.03
		l-4.35-25.37l3.55,12.73c0.14,0.81,0.82,1.42,1.65,1.46l1.39,0.07c1.12,0.05,2-0.93,1.82-2.03l-3.78-15.48c0,0-0.78-4.52-5.05-8.71
		s-5.54-6.92-5.54-6.92"/>
	<g>
		<path class="st10" d="M46.59,300c-4.95,0-8.32-3.83-8.79-4.39c-7.98-26.76-6.36-50.1,5.1-73.46
			C54.37,198.79,94.56,172.4,98.28,170c1.03,0.74,5.22,4.21,9.77,14.54c4.89,11.1-2.17,23.52-3.11,25.09
			c-2.01,0.54-17.91,5.38-35.27,27.78c-17.81,22.97-9.85,49.35-9.1,51.64c-0.31,0.97-2.46,6.84-9.64,10
			C49.48,299.68,48.02,300,46.59,300z"/>
		<path d="M98.25,170.61c1.31,1.03,5.15,4.65,9.33,14.13c4.64,10.54-1.74,22.34-2.98,24.45c-2.79,0.75-18.16,5.75-35.34,27.91
			c-9.78,12.61-11.74,26.15-11.67,35.28c0.07,8.8,1.95,15.18,2.43,16.67c-0.43,1.25-2.64,6.6-9.32,9.54
			c-1.37,0.6-2.76,0.91-4.12,0.91c-4.54,0-7.72-3.42-8.34-4.14c-8.02-26.95-6.44-49.47,5.1-72.99
			C54.51,199.63,93.12,173.95,98.25,170.61 M98.28,169.4c0,0-43.66,27.73-55.82,52.53s-12.8,48.15-5.1,73.91
			c0,0,3.61,4.65,9.24,4.65c1.39,0,2.91-0.29,4.52-1c8.14-3.58,9.97-10.46,9.97-10.46s-9.62-27.35,8.98-51.33s35.2-27.65,35.2-27.65
			s8.62-13.52,3.25-25.72S98.28,169.4,98.28,169.4L98.28,169.4z"/>
	</g>
	<g>
		<path d="M139.78,178.31c0.24,0.88,0.27,1.79,0.17,2.72c-0.13,0.92-0.37,1.91-1.2,2.82c-0.41,0.44-1.04,0.84-1.74,0.95
			c-0.69,0.14-1.36,0.03-1.91-0.15c-1.11-0.38-1.91-0.99-2.62-1.62c-1.39-1.29-2.39-2.77-3.22-4.31c-0.82-1.55-1.44-3.19-1.78-4.97
			c1.41,1.13,2.56,2.39,3.7,3.61c1.13,1.21,2.22,2.43,3.32,3.46c0.54,0.5,1.11,0.93,1.59,1.17c0.24,0.13,0.43,0.17,0.58,0.2
			c0.15,0.03,0.31,0.02,0.53-0.11c0.45-0.22,0.94-0.84,1.35-1.51C139,179.89,139.36,179.12,139.78,178.31z"/>
	</g>
	<path class="st9" d="M230.65,270.97c0,0,12.23,1.11,14.45,3.34c2.22,2.22,4.45,4.45,6.67,8.89h-3.89"/>
	<g>
		<path class="st9" d="M209.53,265.42c0,0,4.38,2.22,7.89,2.22s14.91,1.11,20.17,4.45c5.26,3.34,11.4,11.12,11.4,11.12h-7.23
			c0,0-5.15-5.56-7.78-5.56s-5.96,0-5.96,0"/>
		<path class="st9" d="M200.28,280.46c0,0,7.02,0.52,12.58,1.64c5.56,1.11,8.24,3.9,14.68,1.39s9.78,0.17,12.56-0.05
			c2.78-0.23-1.67-5.79-6.11-5.79s-8.34,0-8.34,0"/>
	</g>
</g>
<g>
	<path class="st9" d="M591.79,256.61c0,0-13.72-6.76-25.31-8.09c0,0-19.69,7.57-45.33,45.88l30.73,5.95c0,0,6.57-15.13,18.52-27.39
		C576.36,266.84,591.79,256.61,591.79,256.61z"/>
	<path class="st9" d="M532.98,278.16c0,0-26.05-16.12-29.72-27.76c0,0,15.64-38.42,57.28-41.75c0,0,8.61,16.7,16.11,24.99
		C576.65,233.64,534.34,242.75,532.98,278.16z"/>
	<path class="st9" d="M487.69,265.27c0,0,17.76,17.68,18.51,27.64c0,0-19.6,27.7-53.39,22.6c0,0-3.75-14.9-8.19-22.9
		C444.62,292.61,480.01,293.22,487.69,265.27z"/>
	<path class="st9" d="M530.4,185.5c0,0,0.69,27.01,44.41,34.11c0,0,12.98-15.25,9.73-29.09c0,0-27.31,9.29-41.35-21.68L530.4,185.5z
		"/>
	<path class="st9" d="M630.7,194.45c0,0-22.56-3.46-42.2-17.29l0.05-21.4c0,0,18.61,16.81,40.86,12.47L630.7,194.45z"/>
	<path class="st9" d="M630.26,163.85c0,0-9.46-12.31-15.44-14.38c0,0,13.27-23.85,31.63-19.84c0,0,9.15,4.51,15.87,28.58
		C662.32,158.21,647.62,149.44,630.26,163.85z"/>
	<path class="st9" d="M689.02,149.72c0,0-2.01,0.98-15.73-5.78c0,0-1.78-19.02,20.1-26.17l12.69,9.75
		C706.08,127.51,686.39,135.09,689.02,149.72z"/>
	<g>
		<path d="M544.5,240.96c-0.8-0.14-1.44-0.25-2.06-0.38c-0.92-0.19-2.29,0.84-2.5,1.89c-0.49,2.51-0.49,2.51-3.03,3.49
			c-1.91,0.74-1.97,0.77-2.33-0.94c-0.16-0.78-0.51-1.22-1.44-1c-0.35,0.08-0.77,0.26-1.09,0.51c-0.52,0.42-0.98,0.94-1.48,1.4
			c-0.57,0.54-1.08,0.68-1.55,0.38c-0.46-0.29-0.93-0.57-1.46-0.78c-0.74-0.28-0.71-0.89-0.24-1.74c0.17-0.3,0.34-0.6,0.51-0.9
			c0.88-1.56,0.4-2.5-1.14-2.22c-0.2,0.04-0.4,0.09-0.6,0.13c-1.43,0.29-1.57,0.18-1.58-1.12c0-0.22,0-0.44,0-0.66
			c-0.01-2.11-0.01-2.11,2.29-3.38c1.28-0.71,1.85-2.13,1.14-2.85c-0.17-0.17-0.35-0.33-0.52-0.51c-0.73-0.77-0.72-1.06,0.25-2.29
			c2-2.53,1.52-2.91,4.41-2.18c0.63,0.16,2.09-1.01,2.24-1.77c0.63-3.29,0.55-2.61,3.32-3.73c1.6-0.65,1.68-0.58,2.02,0.73
			c0.18,0.7,0.15,1.53,1.34,1.35c0.61-0.09,0.98-0.27,1.46-0.76c1.99-2.02,2-2.01,3.71-1.1c1.48,0.8,1.48,0.8,0.32,2.87
			c-0.94,1.68-0.46,2.54,1.26,2.22c0.33-0.06,0.67-0.12,1-0.17c0.72-0.11,1.12,0.1,1.03,0.89c-0.05,0.49-0.01,0.95,0,1.42
			c0.01,1.59-0.05,1.68-1.74,2.62c-0.84,0.46-1.62,0.84-1.9,1.95c-0.14,0.57-0.14,0.89,0.18,1.2c1.41,1.38,1.41,1.39-0.37,3.71
			C545.51,239.82,545.01,240.36,544.5,240.96z M537.17,239.83c3.45-1.33,6.18-4.92,6.13-8.06c-0.05-3.1-2.82-4.58-6.18-3.29
			c-3.41,1.31-6.14,4.92-6.11,8.1C531.05,239.71,533.76,241.14,537.17,239.83z"/>
	</g>
	<g>
		<path d="M561.31,206.54c-0.61-0.39-1.1-0.7-1.58-1.02c-0.7-0.47-1.86-0.26-2.11,0.38c-0.59,1.55-0.59,1.55-2.66,1.28
			c-1.56-0.2-1.6-0.2-1.73-1.5c-0.06-0.6-0.3-1.02-1.03-1.22c-0.28-0.07-0.62-0.11-0.89-0.05c-0.44,0.09-0.85,0.28-1.27,0.42
			c-0.49,0.16-0.9,0.07-1.24-0.31c-0.33-0.37-0.68-0.74-1.07-1.07c-0.55-0.46-0.48-0.87-0.04-1.28c0.16-0.15,0.31-0.29,0.47-0.43
			c0.82-0.75,0.53-1.57-0.7-1.94c-0.16-0.05-0.32-0.09-0.48-0.13c-1.14-0.33-1.24-0.45-1.14-1.35c0.02-0.15,0.04-0.3,0.05-0.46
			c0.17-1.45,0.17-1.45,2.08-1.48c1.06-0.02,1.63-0.78,1.13-1.54c-0.12-0.18-0.25-0.36-0.36-0.54c-0.5-0.8-0.47-0.99,0.39-1.48
			c1.78-1,1.44-1.44,3.63,0.12c0.48,0.34,1.72,0.08,1.9-0.39c0.77-2.03,0.65-1.59,2.91-1.34c1.3,0.14,1.36,0.22,1.52,1.25
			c0.08,0.55-0.01,1.11,0.93,1.42c0.48,0.16,0.79,0.17,1.2,0.02c1.73-0.66,1.73-0.65,2.98,0.61c1.09,1.09,1.09,1.09,0,2.09
			c-0.88,0.81-0.57,1.58,0.79,1.99c0.27,0.08,0.53,0.16,0.79,0.25c0.57,0.19,0.87,0.48,0.73,0.99c-0.08,0.32-0.09,0.65-0.12,0.98
			c-0.13,1.09-0.18,1.14-1.58,1.16c-0.7,0.01-1.34-0.02-1.65,0.64c-0.16,0.34-0.18,0.57,0.04,0.89c0.99,1.47,0.98,1.48-0.61,2.41
			C562.19,206.13,561.76,206.31,561.31,206.54z M555.69,203.06c2.81,0.36,5.24-1.1,5.47-3.29c0.23-2.15-1.81-4.18-4.54-4.54
			c-2.77-0.36-5.21,1.12-5.46,3.32C550.92,200.73,552.91,202.71,555.69,203.06z"/>
	</g>
	<g>
		<path d="M555.94,279.33c-0.26-0.45-0.47-0.8-0.67-1.16c-0.29-0.54-1.35-0.12-1.93,0.76c-1.39,2.13-1.39,2.13-2.91,2.03
			c-1.14-0.07-1.18-0.07-0.51-1.79c0.31-0.79,0.37-1.32-0.11-1.49c-0.18-0.06-0.44-0.07-0.69,0.04c-0.41,0.18-0.85,0.48-1.28,0.72
			c-0.49,0.27-0.77,0.2-0.82-0.26c-0.05-0.45-0.11-0.9-0.23-1.29c-0.17-0.55,0.13-1.1,0.73-1.7c0.21-0.21,0.43-0.42,0.64-0.64
			c1.11-1.1,1.36-2.15,0.59-2.5c-0.1-0.04-0.21-0.08-0.31-0.12c-0.72-0.3-0.73-0.45-0.11-1.66c0.1-0.2,0.21-0.41,0.32-0.61
			c1-1.95,1-1.95,2.56-2.22c0.87-0.15,1.78-1.24,1.83-2.18c0.01-0.23,0.01-0.45,0.03-0.67c0.07-1,0.21-1.26,1.19-2.01
			c2.03-1.55,2.02-2.09,2.86-0.28c0.18,0.4,1.34-0.11,1.76-0.75c1.83-2.8,1.47-2.19,3.15-2.14c0.97,0.03,0.97,0.12,0.48,1.47
			c-0.26,0.72-0.67,1.48-0.09,1.78c0.3,0.15,0.53,0.13,0.96-0.13c1.78-1.08,1.78-1.07,2.05,0.44c0.23,1.32,0.23,1.32-1.24,2.78
			c-1.19,1.19-1.4,2.17-0.54,2.55c0.17,0.07,0.33,0.15,0.49,0.23c0.35,0.18,0.41,0.54,0,1.23c-0.26,0.43-0.46,0.87-0.68,1.31
			c-0.75,1.47-0.82,1.54-1.97,1.73c-0.57,0.1-1.07,0.14-1.71,1.06c-0.33,0.47-0.48,0.77-0.5,1.18c-0.07,1.83-0.08,1.84-1.92,3.28
			C556.9,278.67,556.44,278.97,555.94,279.33z M553.46,275.4c2.06,0.13,4.89-2.11,6.37-5.04c1.46-2.88,1.02-5.34-0.97-5.47
			c-2.03-0.13-4.88,2.14-6.37,5.08C551,272.89,551.43,275.28,553.46,275.4z"/>
	</g>
	<g>
		<path d="M486.26,300.35c-0.8-0.01-1.44-0.01-2.07-0.02c-0.92-0.02-2.13,0.69-2.18,1.3c-0.13,1.47-0.13,1.47-2.49,2.26
			c-1.77,0.59-1.82,0.62-2.4-0.32c-0.27-0.43-0.66-0.64-1.54-0.44c-0.33,0.08-0.72,0.22-0.99,0.39c-0.45,0.29-0.83,0.62-1.25,0.93
			c-0.49,0.36-0.96,0.49-1.47,0.36c-0.49-0.12-0.99-0.24-1.53-0.31c-0.76-0.09-0.81-0.44-0.47-0.97c0.12-0.19,0.25-0.37,0.37-0.56
			c0.65-0.97,0.06-1.46-1.41-1.15c-0.19,0.04-0.38,0.09-0.57,0.13c-1.36,0.29-1.51,0.25-1.69-0.49c-0.03-0.13-0.06-0.25-0.09-0.38
			c-0.3-1.2-0.3-1.2,1.78-2.13c1.16-0.52,1.52-1.38,0.72-1.72c-0.19-0.08-0.39-0.16-0.57-0.24c-0.82-0.37-0.85-0.53-0.06-1.32
			c1.61-1.62,1.09-1.8,4.01-1.65c0.64,0.03,1.91-0.77,1.95-1.21c0.16-1.93,0.18-1.53,2.74-2.43c1.47-0.51,1.56-0.48,2.08,0.23
			c0.27,0.38,0.36,0.86,1.49,0.65c0.58-0.11,0.92-0.25,1.32-0.57c1.67-1.33,1.68-1.33,3.47-0.96c1.55,0.32,1.55,0.32,0.7,1.6
			c-0.69,1.04-0.1,1.49,1.53,1.15c0.32-0.07,0.63-0.13,0.95-0.19c0.69-0.13,1.11-0.04,1.13,0.41c0.01,0.28,0.12,0.54,0.19,0.81
			c0.22,0.9,0.18,0.96-1.35,1.65c-0.76,0.34-1.47,0.63-1.59,1.28c-0.06,0.34-0.01,0.52,0.34,0.67c1.57,0.65,1.57,0.66,0.14,2.14
			C487.09,299.61,486.68,299.96,486.26,300.35z M478.94,300.38c3.19-1.07,5.37-3.36,4.89-5.15c-0.47-1.76-3.38-2.34-6.48-1.3
			c-3.16,1.06-5.33,3.36-4.87,5.16C472.95,300.88,475.79,301.44,478.94,300.38z"/>
	</g>
	<g>
		<path d="M645.16,149.82c-0.76-0.12-1.36-0.21-1.96-0.32c-0.88-0.16-1.93,0.49-1.92,1.17c0.04,1.65,0.04,1.65-2.1,2.21
			c-1.61,0.43-1.65,0.44-2.31-0.7c-0.3-0.53-0.7-0.82-1.5-0.71c-0.31,0.04-0.66,0.15-0.9,0.3c-0.4,0.26-0.72,0.59-1.08,0.88
			c-0.42,0.34-0.86,0.42-1.35,0.2c-0.48-0.21-0.96-0.41-1.48-0.56c-0.73-0.21-0.82-0.61-0.55-1.16c0.09-0.19,0.19-0.39,0.29-0.58
			c0.51-1.01-0.11-1.64-1.47-1.51c-0.18,0.02-0.35,0.04-0.53,0.06c-1.25,0.14-1.4,0.07-1.66-0.8c-0.04-0.15-0.09-0.29-0.13-0.44
			c-0.41-1.4-0.41-1.4,1.45-2.17c1.04-0.43,1.28-1.35,0.49-1.85c-0.19-0.12-0.38-0.23-0.57-0.35c-0.81-0.54-0.86-0.72-0.21-1.51
			c1.35-1.61,0.83-1.88,3.61-1.31c0.61,0.13,1.72-0.6,1.71-1.1c-0.06-2.16,0-1.71,2.32-2.37c1.34-0.38,1.43-0.33,1.99,0.55
			c0.3,0.47,0.43,1.02,1.48,0.94c0.54-0.04,0.84-0.15,1.19-0.46c1.43-1.28,1.44-1.27,3.18-0.61c1.5,0.58,1.5,0.58,0.84,1.92
			c-0.54,1.09,0.07,1.67,1.58,1.52c0.29-0.03,0.59-0.06,0.88-0.08c0.64-0.05,1.04,0.11,1.12,0.62c0.04,0.32,0.18,0.63,0.27,0.94
			c0.31,1.05,0.28,1.11-1.09,1.68c-0.68,0.28-1.32,0.5-1.36,1.23c-0.02,0.38,0.05,0.59,0.39,0.8c1.56,0.96,1.55,0.97,0.37,2.45
			C645.86,149.1,645.51,149.44,645.16,149.82z M638.24,148.83c2.9-0.77,4.71-3.06,4.06-5.15c-0.64-2.06-3.45-3.13-6.27-2.39
			c-2.87,0.76-4.67,3.07-4.03,5.17C632.63,148.55,635.37,149.59,638.24,148.83z"/>
	</g>
	<g>
		<path d="M686.21,140.17c-0.19-0.26-0.34-0.46-0.49-0.67c-0.21-0.31-0.93,0.09-1.31,0.74c-0.92,1.57-0.92,1.57-1.96,1.7
			c-0.79,0.1-0.81,0.11-0.39-1.1c0.19-0.55,0.23-0.91-0.11-0.96c-0.13-0.02-0.3,0.01-0.48,0.12c-0.28,0.17-0.58,0.42-0.87,0.63
			c-0.33,0.24-0.53,0.23-0.57-0.06c-0.04-0.29-0.1-0.57-0.19-0.81c-0.13-0.34,0.07-0.73,0.47-1.2c0.14-0.17,0.28-0.33,0.43-0.5
			c0.74-0.86,0.89-1.58,0.35-1.7c-0.07-0.02-0.14-0.02-0.22-0.04c-0.51-0.1-0.52-0.2-0.11-1.07c0.07-0.15,0.14-0.29,0.2-0.44
			c0.65-1.4,0.65-1.4,1.71-1.78c0.6-0.21,1.2-1.04,1.21-1.66c0-0.15,0-0.29,0.01-0.44c0.03-0.66,0.12-0.85,0.78-1.46
			c1.37-1.27,1.34-1.62,1.96-0.55c0.14,0.23,0.92-0.24,1.2-0.72c1.2-2.06,0.97-1.62,2.12-1.8c0.67-0.1,0.67-0.04,0.37,0.9
			c-0.16,0.5-0.43,1.05-0.03,1.17c0.21,0.06,0.37,0.02,0.66-0.21c1.21-0.94,1.21-0.93,1.42,0.03c0.19,0.83,0.19,0.83-0.8,1.97
			c-0.8,0.93-0.92,1.59-0.32,1.73c0.12,0.03,0.23,0.05,0.35,0.09c0.24,0.07,0.3,0.3,0.03,0.8c-0.17,0.31-0.3,0.63-0.44,0.94
			c-0.49,1.05-0.53,1.11-1.32,1.38c-0.39,0.14-0.73,0.23-1.16,0.91c-0.22,0.35-0.32,0.57-0.32,0.83c-0.01,1.2-0.02,1.21-1.26,2.39
			C686.85,139.61,686.54,139.87,686.21,140.17z M684.41,137.92c1.42-0.18,3.33-2,4.28-4.1c0.94-2.07,0.59-3.61-0.79-3.44
			c-1.4,0.17-3.32,2.02-4.29,4.13C682.66,136.6,683.01,138.1,684.41,137.92z"/>
	</g>
	<g>
		<path d="M619.95,184.07c-0.89-0.26-1.6-0.46-2.31-0.67c-1.04-0.31-1.98,0.06-1.69,0.69c0.68,1.51,0.68,1.51-1.5,1.61
			c-1.63,0.07-1.68,0.08-2.85-1.09c-0.54-0.54-1.1-0.89-1.96-0.95c-0.33-0.02-0.68,0-0.89,0.1c-0.34,0.16-0.57,0.4-0.87,0.6
			c-0.34,0.23-0.8,0.21-1.43-0.08c-0.61-0.28-1.24-0.56-1.88-0.8c-0.89-0.33-1.15-0.72-1.07-1.17c0.03-0.16,0.06-0.32,0.1-0.48
			c0.18-0.82-0.76-1.52-2.22-1.66c-0.19-0.02-0.38-0.03-0.56-0.04c-1.34-0.11-1.54-0.21-2.16-1.05c-0.11-0.14-0.21-0.28-0.31-0.43
			c-1-1.36-1-1.36,0.78-1.7c0.99-0.19,0.91-0.99-0.16-1.6c-0.26-0.15-0.52-0.29-0.77-0.44c-1.12-0.65-1.24-0.83-0.81-1.42
			c0.88-1.21,0.2-1.56,3.54-0.49c0.73,0.23,1.69-0.21,1.48-0.67c-0.9-1.99-0.66-1.56,1.68-1.71c1.35-0.08,1.47-0.02,2.44,0.89
			c0.52,0.49,0.88,1.02,2.02,1.15c0.59,0.07,0.89,0.03,1.15-0.18c1.11-0.88,1.12-0.88,3.32,0.07c1.91,0.82,1.91,0.82,1.68,1.92
			c-0.18,0.89,0.72,1.54,2.35,1.69c0.32,0.03,0.63,0.06,0.95,0.1c0.69,0.08,1.21,0.3,1.49,0.79c0.17,0.3,0.44,0.61,0.67,0.91
			c0.75,1.02,0.74,1.07-0.57,1.32c-0.65,0.12-1.28,0.2-1.05,0.86c0.12,0.34,0.28,0.55,0.75,0.81c2.11,1.18,2.11,1.19,1.36,2.31
			C620.46,183.55,620.2,183.79,619.95,184.07z M611.84,181.81c2.95-0.13,4.08-1.87,2.55-3.91c-1.51-2.01-5.07-3.53-7.94-3.41
			c-2.92,0.13-4.04,1.89-2.51,3.94C605.45,180.46,608.93,181.95,611.84,181.81z"/>
	</g>
</g>
<g>
	<path class="st9" d="M137.39,386.46l-20.88-31.19c-0.48-0.71-0.37-1.67,0.25-2.26h0c0.78-0.74,2.03-0.61,2.65,0.26l6.01,8.49
		l-9.66-13.48c-0.51-0.71-0.41-1.68,0.22-2.28l0,0c0.77-0.73,2-0.61,2.61,0.25l9.38,13.09l-10.63-15.49
		c-0.49-0.71-0.39-1.68,0.24-2.27l0.04-0.04c0.76-0.72,1.97-0.62,2.61,0.21l11.3,14.71l-10.5-13.32c-0.84-1.07-0.67-2.61,0.39-3.47
		l0.29-0.24c0.75-0.61,1.86-0.5,2.48,0.26l16.21,19.99l-7.23-11.06c-0.52-0.64-0.52-1.56-0.01-2.2l0.87-1.09
		c0.69-0.87,2.02-0.89,2.73-0.03l9.16,13.04c0,0,2.89,3.56,3.22,9.54c0.33,5.98,1.55,8.73,1.55,8.73"/>
	<g>
		<path class="st10" d="M250.21,455.19c-17.28,0-48.88-1.43-66.34-11.04c-22.79-12.54-37.53-30.72-46.37-57.2
			c0.07-0.98,0.88-8.77,8.75-10.34c1.28-0.25,2.57-0.38,3.82-0.38c5.56,0,9.15,2.52,9.82,3.03c0.71,2.3,9.34,28.47,37.11,37.04
			c10.19,3.15,19.86,4.74,28.75,4.74c9.55,0,14.97-1.84,16.08-2.26c1.69,0.75,14.58,6.86,16.95,18.75
			c2.21,11.07,0.77,16.31,0.35,17.51C258.15,455.08,254.88,455.19,250.21,455.19C250.22,455.19,250.22,455.19,250.21,455.19z"/>
		<path d="M150.08,376.72c5.1,0,8.51,2.2,9.39,2.83c0.46,1.5,2.59,7.79,7.58,15.04c5.18,7.52,14.56,17.47,29.81,22.18
			c10.24,3.16,19.96,4.76,28.9,4.76c9.14,0,14.57-1.69,16.06-2.22c2.22,1.02,14.22,6.99,16.48,18.31
			c2.03,10.17,0.95,15.34,0.48,16.93c-1.29,0.05-4.36,0.14-8.57,0.14c-17.24,0-48.74-1.43-66.1-10.98
			c-22.96-12.63-37.19-30.16-46.1-56.83c0.11-1.25,1.06-8.33,8.35-9.79C147.61,376.85,148.86,376.72,150.08,376.72L150.08,376.72
			 M150.08,375.72c-1.22,0-2.53,0.12-3.92,0.39c-8.72,1.74-9.16,10.9-9.16,10.9c8.49,25.51,22.44,44.27,46.63,57.58
			c17.83,9.81,50.58,11.1,66.58,11.1c5.71,0,9.28-0.16,9.28-0.16s2.4-5.01-0.21-18.1s-17.43-19.19-17.43-19.19s-5.53,2.3-16.08,2.3
			c-7.23,0-16.82-1.08-28.61-4.72c-28.99-8.95-36.83-36.86-36.83-36.86S156.49,375.72,150.08,375.72L150.08,375.72z"/>
	</g>
	<path class="st4" d="M303.02,570.14c0,0-46.97,1.2-93.94,0c-36.12-0.93-55.4-31.31-34.93-51.79s62.63,0,62.63,0l24.09,8.43
		l46.97,2.41l20.47,10.84l32.52,25.29"/>
	<path d="M289.28,559.68l23.36-14.54c0,0,9.79,8.25,11.79,21.35c0,0,13.26,15.03,17.45,42.41c0,0-6.6,4.66-13.46-0.38
		c-6.86-5.04-18.19-31.33-25.88-33.81c-7.69-2.48-6.6,0.98-6.6,0.98"/>
	<path class="st4" d="M288.57,556.89c-36.13-8.43-55.4-24.09-55.4-24.09"/>
	<path d="M204.9,552l-21.08-17.69c0,0-10.86,6.79-14.69,19.47c0,0-15.25,13.01-23.26,39.53c0,0,5.87,5.55,13.38,1.52
		c7.51-4.02,22.43-28.45,30.39-29.82c7.96-1.37,6.39,1.9,6.39,1.9"/>
	<path class="st4" d="M331.93,555.69c-30.11,7.23-132.48-12.04-132.48-12.04c-13.25,12.04-10.84,37.34-10.84,37.34
		c38.54,16.86,92.74,19.27,115.62,18.07c22.88-1.2,98.76-3.61,85.51-40.95c-13.25-37.34-63-24.48-63-24.48l-0.83-2.01l-37.34-3.61
		h-27.7"/>
	<path class="st9" d="M255.13,408.75l-2.44,15.47c0,0,0.82,2.57,4.38,3.13c3.57,0.56,11.83-5.45,13.14-13.78l-4.65-13.88"/>
	<path class="st9" d="M268.41,409.62c0,0,10.27-3.26,17.41-2.14s14.28,2.25,14.28,2.25s25.31,40.56,26.64,78.57s2.7,44.49,2.7,44.49
		s-5.44,11.34-50.46,3.03c-45.02-8.31-42.9-14.07-42.9-14.07s4.71,9.1,10.21-18.07s-7.49-84.09-7.49-84.09s8.09-5.77,15.69-7.15
		C254.49,412.44,253.33,427.97,268.41,409.62z"/>
	<path d="M304.05,454.25c0,0,17.15,17.6,22.8,38.47c0,0,1.2-15.19-5.73-35.79C321.12,456.94,309.56,450.24,304.05,454.25z"/>
	<g>
		<path d="M255.01,412.44c0.28,0.93,0.52,1.82,0.86,2.63c0.32,0.8,0.73,1.56,1.18,1.9c0.22,0.18,0.4,0.24,0.59,0.24
			c0.19,0.01,0.42-0.01,0.71-0.11c0.58-0.18,1.27-0.55,1.94-1c1.36-0.92,2.73-2.06,4.13-3.18c1.42-1.12,2.84-2.29,4.5-3.3
			c-0.7,1.81-1.66,3.44-2.81,4.95c-1.16,1.5-2.48,2.9-4.17,4.04c-0.86,0.55-1.81,1.07-3.04,1.28c-0.6,0.1-1.32,0.1-2.01-0.15
			c-0.7-0.22-1.3-0.74-1.65-1.27c-0.73-1.09-0.83-2.17-0.82-3.17C254.47,414.31,254.63,413.35,255.01,412.44z"/>
	</g>
	<g>
		<path class="st9" d="M322.73,529.79c0,0-22.49-1.88-27.42,4.18c-4.93,6.06-4.93,13.29-4.93,13.29v2.41l17.07-0.6
			c0.21-5.42,1.91-5.42,4.6-5.42c3.61,0,6.02,1.2,9.64,1.2s5.65-1.68,5.65-1.68"/>
		<path class="st6" d="M306.04,534.01c0,0-7.23,0-8.43,4.82c-1.57,6.29-1.2,9.64-1.2,9.64"/>
		<path class="st6" d="M308.44,537.62c0,0-4.82,1.2-6.02,4.82c-1.2,3.61-1.2,7.23-1.2,7.23"/>
		<path class="st6" d="M313.08,529.51c0,0-10.66-2.73-14.28-0.32c-3.61,2.41-3.61,4.82-3.61,4.82"/>
	</g>
	<g>
		<rect x="220.42" y="548.36" class="st17" width="100.17" height="2.61"/>
		<path d="M320.09,548.86v1.61h-99.17v-1.61H320.09 M321.09,547.86H219.92v3.61h101.17V547.86L321.09,547.86z"/>
	</g>
	<g>
		<polygon class="st19" points="219.61,550.97 206.82,498.98 286.48,498.98 299.27,550.97 		"/>
		<path d="M286.09,499.48l12.54,50.99H220l-12.54-50.99H286.09 M286.87,498.48h-80.69l13.04,52.99h80.69L286.87,498.48
			L286.87,498.48z"/>
	</g>
	<g>
		<path class="st10" d="M331.47,543.79c-3.27,0-7.75-1.03-10.48-5.96c-4.18-7.52-2.11-14.07-1.77-15.01
			c2.49-1.99,34.12-27.62,33.6-42.7c-0.1-2.96-1.43-5.34-3.95-7.08c-25.35-17.49-42.58-19.14-44.6-19.28
			c-1.31-1.28-12.31-12.39-10.25-25.48c1.91-12.12,5.35-16.91,6.22-17.96c4.37,1.65,52.04,19.88,72.53,39.31
			c12.1,11.47,17.55,23.45,16.21,35.6c-3.03,27.46-40.25,49.78-54.36,58.22C334.34,543.52,333.11,543.79,331.47,543.79
			C331.47,543.79,331.47,543.79,331.47,543.79z"/>
		<path d="M300.4,410.92c6.05,2.29,52.03,20.12,72.02,39.08c11.98,11.36,17.38,23.2,16.06,35.18c-2.99,27.17-39.95,49.37-54.05,57.8
			c-0.36,0.08-1.49,0.31-2.97,0.31c-3.14,0-7.43-0.99-10.05-5.7c-3.92-7.06-2.2-13.23-1.79-14.47c3.22-2.58,34.19-27.89,33.68-43.02
			c-0.11-3.12-1.51-5.64-4.17-7.47c-25.1-17.31-41.85-19.17-44.67-19.36c-1.75-1.73-11.93-12.43-9.97-24.91
			C296.27,417.2,299.32,412.34,300.4,410.92 M300.09,409.73c0,0-4.32,4.2-6.57,18.47c-2.25,14.28,10.53,26.04,10.53,26.04
			s17.47,0.54,44.53,19.2c17.07,11.78-29.79,49.06-29.79,49.06s-2.92,7.14,1.76,15.56c2.9,5.23,7.7,6.22,10.92,6.22
			c1.97,0,3.35-0.37,3.35-0.37c23.6-14.13,83.82-51.46,38.29-94.65C351.41,428.69,300.09,409.73,300.09,409.73L300.09,409.73z"/>
	</g>
	<path class="st9" d="M248.24,390.6c0,0-1.25,15.65,6.89,18.15s9.64-7.02,9.64-7.02s4.07-10.33,1.69-10.71c-2.66-0.42-2.75,2-2.75,2
		l0.12-8.52l-8.33-1.31L248.24,390.6z"/>
	<path d="M258.51,387.34c0,0-7.07,6.2-10.64,5.64c-3.57-0.56-7.58-6.07-6.64-12.02c0.94-5.95,5.07-8.96,5.07-8.96
		s1.63,5.13,4.01,5.51c2.38,0.37,10.08-2.07,15.28,3.63c2.97,3.26,2.48,7.15,1.57,9.39c-0.68,1.68-1.19-0.19-1.19-0.19l-1.38,1
		l-0.88,1.69C263.71,393.03,259.13,391.09,258.51,387.34z"/>
</g>
<rect x="198.99" y="372.2" class="st35" width="23" height="24.88"/>
<text transform="matrix(1 0 0 1 198.988 390.6637)" class="st36 st37">[ ]</text>
<rect x="279.8" y="337.5" transform="matrix(0.9668 -0.2554 0.2554 0.9668 -79.2739 88.5472)" class="st35" width="43" height="24"/>
<text transform="matrix(0.9668 -0.2554 0.2554 0.9668 282.1581 361.2379)" class="st36 st37">&lt;/&gt;</text>
<rect x="195.93" y="403.06" transform="matrix(0.8095 -0.5872 0.5872 0.8095 -205.6827 197.1403)" class="st35" width="10" height="24.88"/>
<text transform="matrix(0.8095 -0.5872 0.5872 0.8095 200.4124 423.3073)" class="st36 st37">{</text>
<rect x="266.88" y="358.68" transform="matrix(0.7151 -0.6991 0.6991 0.7151 -181.9693 295.8163)" class="st35" width="10" height="24.88"/>
<text transform="matrix(-0.7151 0.6991 -0.6991 -0.7151 271.2521 363.3251)" class="st36 st37">{</text>
<rect x="197.24" y="341.66" transform="matrix(0.4382 -0.8989 0.8989 0.4382 -200.3087 388.027)" class="st35" width="26.06" height="25.21"/>
<text transform="matrix(0.8989 0.4382 -0.4382 0.8989 196.5597 353.6197)" class="st36 st37">&gt;</text>
<g>
	<path class="st9" d="M69.01,336.51c0,0,17.03-25.47,28.79-28.72c0,0,37.85,16.99,39.7,58.72c0,0-16.99,8.01-25.54,15.22
		C111.96,381.73,104.34,339.12,69.01,336.51z"/>
	<g>
		<path d="M105.77,349.34c0.17-0.79,0.3-1.43,0.45-2.05c0.22-0.91-0.76-2.32-1.8-2.56c-2.49-0.57-2.49-0.57-3.38-3.15
			c-0.67-1.94-0.7-2,1.02-2.29c0.79-0.14,1.23-0.47,1.05-1.4c-0.07-0.35-0.23-0.78-0.47-1.11c-0.4-0.54-0.9-1.01-1.35-1.53
			c-0.52-0.59-0.64-1.11-0.33-1.57c0.31-0.45,0.61-0.91,0.83-1.43c0.31-0.73,0.91-0.68,1.75-0.18c0.3,0.18,0.59,0.36,0.89,0.54
			c1.53,0.94,2.48,0.49,2.26-1.06c-0.03-0.2-0.07-0.41-0.11-0.61c-0.24-1.44-0.13-1.58,1.18-1.54c0.22,0.01,0.44,0.01,0.66,0.02
			c2.1,0.07,2.1,0.07,3.3,2.41c0.67,1.31,2.06,1.93,2.81,1.24c0.18-0.16,0.34-0.34,0.53-0.5c0.8-0.7,1.08-0.68,2.27,0.34
			c2.46,2.09,2.86,1.62,2.03,4.49c-0.18,0.63,0.93,2.13,1.69,2.3c3.27,0.74,2.59,0.64,3.61,3.45c0.59,1.62,0.52,1.7-0.8,2
			c-0.71,0.16-1.54,0.1-1.4,1.29c0.07,0.61,0.24,0.99,0.71,1.49c1.95,2.06,1.94,2.07,0.96,3.74c-0.85,1.45-0.85,1.45-2.88,0.21
			c-1.65-1-2.53-0.55-2.27,1.18c0.05,0.34,0.1,0.67,0.14,1c0.08,0.72-0.14,1.12-0.92,1c-0.49-0.07-0.95-0.04-1.42-0.05
			c-1.59-0.05-1.68-0.11-2.56-1.84c-0.43-0.86-0.78-1.65-1.88-1.97c-0.57-0.16-0.89-0.17-1.21,0.14c-1.43,1.36-1.44,1.36-3.7-0.51
			C106.88,350.38,106.36,349.87,105.77,349.34z M107.16,342.05c1.21,3.5,4.7,6.35,7.84,6.41c3.1,0.06,4.68-2.65,3.51-6.06
			c-1.19-3.46-4.7-6.31-7.88-6.39C107.5,335.94,105.97,338.6,107.16,342.05z"/>
	</g>
</g>
<polyline class="st38" points="214.62,532.8 125,532.8 125,374 "/>
<polyline class="st5" points="98.55,352.69 98.55,427.38 124.62,427.38 "/>
<polyline class="st5" points="472.43,285.2 472.43,243.5 506.5,243.5 "/>
<polyline class="st5" points="489.5,243.5 489.5,178.5 518.5,178.5 518.5,161.5 588.53,161.5 "/>
<polyline class="st5" points="518.5,178.5 518.5,199.5 535.93,199.5 "/>
<line class="st5" x1="500.89" y1="281.07" x2="530.4" y2="281.07"/>
<polyline class="st5" points="549.8,161.59 549.8,133.5 628.91,133.5 "/>
<line class="st5" x1="656.21" y1="141.97" x2="673.5" y2="141.97"/>
</svg>
