<svg xmlns="http://www.w3.org/2000/svg" xmlns:xlink="http://www.w3.org/1999/xlink" version="1.1" width="1000" height="1000" viewBox="0 0 1000 1000" xml:space="preserve">
<desc>Created with Fabric.js 3.5.0</desc>
<defs>
</defs>
<rect x="0" y="0" width="100%" height="100%" fill="rgba(255,255,255,0)"/>
<g transform="matrix(3.0303 0 0 3.0303 889.0977 706.7583)" id="331828">
<path style="stroke: none; stroke-width: 0; stroke-dasharray: none; stroke-linecap: butt; stroke-dashoffset: 0; stroke-linejoin: miter; stroke-miterlimit: 4; is-custom-font: none; font-file-url: none; fill: rgb(212,175,55); fill-rule: nonzero; opacity: 1;" transform=" translate(-278.9023, -171.2303)" d="M 284.28 198.32 c 5.06 -14.63 7.81 -30.35 7.81 -46.68 c 0 -1.57 -0.03 -3.13 -0.08 -4.69 c -0.17 -5.27 -4.58 -9.4 -9.85 -9.23 c -5.27 0.17 -9.41 4.58 -9.23 9.85 c 0.04 1.35 0.07 2.71 0.07 4.07 c 0 14.18 -2.38 27.77 -6.76 40.44 c -1.72 4.98 0.92 10.42 5.91 12.14 S 282.56 203.3 284.28 198.32 z" stroke-linecap="round"/>
</g>
<g transform="matrix(3.0303 0 0 3.0303 188.9999 431.9544)" id="18263">
<path style="stroke: none; stroke-width: 0; stroke-dasharray: none; stroke-linecap: butt; stroke-dashoffset: 0; stroke-linejoin: miter; stroke-miterlimit: 4; is-custom-font: none; font-file-url: none; fill: rgb(233,115,13); fill-rule: nonzero; opacity: 1;" transform=" translate(-47.87, -80.545)" d="M 13.46 119.81 c -0.11 0.47 -0.16 0.93 -0.16 1.38 c 0 1.36 0.47 2.68 1.29 3.73 c 0.83 1.05 1.98 1.82 3.38 2.16 c 0.47 0.11 0.93 0.16 1.38 0.16 c 1.36 0 2.68 -0.47 3.73 -1.29 c 1.05 -0.83 1.82 -1.98 2.16 -3.38 c 7.55 -32.33 27.45 -59.95 54.45 -77.59 c 0.9 -0.59 1.57 -1.35 2.04 -2.23 c 0.46 -0.87 0.71 -1.86 0.71 -2.85 c 0 -1.14 -0.31 -2.27 -0.99 -3.3 l 0 0 c -0.59 -0.9 -1.35 -1.57 -2.23 -2.04 c -0.87 -0.46 -1.86 -0.71 -2.85 -0.71 c -1.14 0 -2.27 0.31 -3.3 0.99 l 0 0 C 43.52 54.16 21.74 84.37 13.46 119.81 z" stroke-linecap="round"/>
</g>
<g transform="matrix(3.0303 0 0 3.0303 496.1968 257.8484)" id="29254">
<path style="stroke: none; stroke-width: 0; stroke-dasharray: none; stroke-linecap: butt; stroke-dashoffset: 0; stroke-linejoin: miter; stroke-miterlimit: 4; is-custom-font: none; font-file-url: none; fill: rgb(252,238,33); fill-rule: nonzero; opacity: 1;" transform=" translate(-149.245, -23.09)" d="M 101.86 33.44 c 14.63 -5.86 30.59 -9.09 47.34 -9.09 c 16.79 0 32.79 3.24 47.44 9.13 c 0.75 0.3 1.5 0.44 2.25 0.44 c 1.19 0 2.37 -0.36 3.35 -1.01 c 0.99 -0.66 1.78 -1.59 2.26 -2.78 l 0 0 c 0.3 -0.75 0.44 -1.5 0.44 -2.25 c 0 -1.19 -0.36 -2.37 -1.01 -3.35 c -0.66 -0.99 -1.59 -1.78 -2.78 -2.26 v 0 c -16.06 -6.45 -33.6 -10.01 -51.95 -10.01 h -0.01 l 0 0 h 0 h -0.01 l 0 0 c -18.3 0 -35.81 3.54 -51.83 9.96 c -1.19 0.48 -2.13 1.27 -2.78 2.26 c -0.66 0.99 -1.02 2.16 -1.02 3.36 c 0 0.75 0.14 1.5 0.44 2.25 l 0 0 c 0.48 1.19 1.27 2.13 2.26 2.78 c 0.99 0.66 2.16 1.02 3.36 1.02 C 100.35 33.88 101.11 33.74 101.86 33.44 z" stroke-linecap="round"/>
</g>
<g transform="matrix(3.0303 0 0 3.0303 803.2727 432.1969)" id="477890">
<path style="stroke: none; stroke-width: 0; stroke-dasharray: none; stroke-linecap: butt; stroke-dashoffset: 0; stroke-linejoin: miter; stroke-miterlimit: 4; is-custom-font: none; font-file-url: none; fill: rgb(69,165,58); fill-rule: nonzero; opacity: 1;" transform=" translate(-250.58, -80.625)" d="M 225.41 34.91 c -1.03 -0.67 -2.16 -0.99 -3.3 -0.99 c -0.99 0 -1.97 0.24 -2.84 0.71 c -0.87 0.46 -1.64 1.14 -2.23 2.03 c -0.67 1.03 -0.99 2.16 -0.99 3.3 c 0 0.99 0.24 1.97 0.71 2.84 c 0.46 0.87 1.14 1.64 2.03 2.23 c 26.99 17.66 46.87 45.29 54.39 77.63 c 0.33 1.41 1.1 2.56 2.15 3.38 c 1.05 0.82 2.36 1.29 3.73 1.29 c 0.45 0 0.91 -0.05 1.38 -0.16 c 1.41 -0.33 2.56 -1.1 3.38 -2.15 c 0.82 -1.05 1.29 -2.36 1.29 -3.73 c 0 -0.45 -0.05 -0.91 -0.16 -1.38 l 0 0 C 276.7 84.47 254.95 54.24 225.41 34.91 z" stroke-linecap="round"/>
</g>
<g transform="matrix(3.0303 0 0 3.0303 103.0455 706.7583)" id="884078">
<path style="stroke: none; stroke-width: 0; stroke-dasharray: none; stroke-linecap: butt; stroke-dashoffset: 0; stroke-linejoin: miter; stroke-miterlimit: 4; is-custom-font: none; font-file-url: none; fill: rgb(187,0,0); fill-rule: nonzero; opacity: 1;" transform=" translate(-19.505, -171.235)" d="M 19.66 200.15 c 1.01 0.71 2.23 1.1 3.48 1.1 c 0.65 0 1.31 -0.11 1.98 -0.33 c 1.26 -0.44 2.26 -1.23 2.97 -2.24 c 0.71 -1.01 1.1 -2.23 1.1 -3.48 c 0 -0.65 -0.11 -1.31 -0.33 -1.98 c -4.5 -13.03 -6.95 -27.01 -6.95 -41.58 c 0 -1.4 0.02 -2.8 0.07 -4.18 l 0 0.01 l 0 -0.21 c 0 -1.63 -0.64 -3.1 -1.7 -4.2 c -1.06 -1.1 -2.51 -1.79 -4.15 -1.84 l -0.2 0 c -1.63 0 -3.1 0.64 -4.2 1.7 c -1.1 1.06 -1.79 2.51 -1.84 4.15 l 0 0 c -0.05 1.52 -0.07 3.05 -0.07 4.58 v 0.05 c 0.01 15.91 2.69 31.22 7.62 45.48 C 17.86 198.44 18.65 199.44 19.66 200.15 z" stroke-linecap="round"/>
</g>
<g transform="matrix(3.0303 0 0 3.0303 150.7462 431.9543)" id="815963">
<circle style="stroke: rgb(211,211,211); stroke-width: 7; stroke-dasharray: none; stroke-linecap: butt; stroke-dashoffset: 0; stroke-linejoin: miter; stroke-miterlimit: 10; is-custom-font: none; font-file-url: none; fill: rgb(233,115,13); fill-rule: nonzero; opacity: 1;" cx="0" cy="0" r="13.59"/>
</g>
<g transform="matrix(3.0303 0 0 3.0303 277.803 476.3485)" id="598906">
<path style="stroke: none; stroke-width: 0; stroke-dasharray: none; stroke-linecap: butt; stroke-dashoffset: 0; stroke-linejoin: miter; stroke-miterlimit: 4; is-custom-font: none; font-file-url: none; fill: rgb(0,0,0); fill-rule: nonzero; opacity: 1;" transform=" translate(-77.175, -95.195)" d="M 82.94 89.34 h -4.8 v 13.32 h -1.96 V 89.34 H 71.4 v -1.61 h 11.55 V 89.34 z" stroke-linecap="round"/>
</g>
<g transform="matrix(3.0303 0 0 3.0303 314.303 475.1212)" id="87781">
<path style="stroke: none; stroke-width: 0; stroke-dasharray: none; stroke-linecap: butt; stroke-dashoffset: 0; stroke-linejoin: miter; stroke-miterlimit: 4; is-custom-font: none; font-file-url: none; fill: rgb(0,0,0); fill-rule: nonzero; opacity: 1;" transform=" translate(-89.22, -94.79)" d="M 86.76 92.91 c 0.84 -1.03 1.93 -1.55 3.28 -1.55 c 2.34 0 3.53 1.32 3.55 3.97 v 7.33 h -1.9 v -7.34 c -0.01 -0.8 -0.19 -1.39 -0.55 -1.77 c -0.36 -0.38 -0.92 -0.57 -1.68 -0.57 c -0.62 0 -1.16 0.16 -1.62 0.49 c -0.47 0.33 -0.83 0.76 -1.09 1.29 v 7.91 h -1.9 V 86.91 h 1.9 V 92.91 z" stroke-linecap="round"/>
</g>
<g transform="matrix(3.0303 0 0 3.0303 339.5909 476.0303)" id="992994">
<path style="stroke: none; stroke-width: 0; stroke-dasharray: none; stroke-linecap: butt; stroke-dashoffset: 0; stroke-linejoin: miter; stroke-miterlimit: 4; is-custom-font: none; font-file-url: none; fill: rgb(0,0,0); fill-rule: nonzero; opacity: 1;" transform=" translate(-97.565, -95.09)" d="M 96.44 88.62 c 0 -0.31 0.09 -0.57 0.28 -0.78 c 0.19 -0.21 0.47 -0.32 0.84 -0.32 s 0.65 0.11 0.84 0.32 s 0.29 0.47 0.29 0.78 s -0.1 0.56 -0.29 0.77 s -0.47 0.31 -0.84 0.31 s -0.65 -0.1 -0.84 -0.31 C 96.53 89.19 96.44 88.93 96.44 88.62 z M 98.49 102.66 h -1.9 V 91.57 h 1.9 V 102.66 z" stroke-linecap="round"/>
</g>
<g transform="matrix(3.0303 0 0 3.0303 363.4848 482.1667)" id="280041">
<path style="stroke: none; stroke-width: 0; stroke-dasharray: none; stroke-linecap: butt; stroke-dashoffset: 0; stroke-linejoin: miter; stroke-miterlimit: 4; is-custom-font: none; font-file-url: none; fill: rgb(0,0,0); fill-rule: nonzero; opacity: 1;" transform=" translate(-105.45, -97.115)" d="M 107.98 99.72 c 0 -0.51 -0.19 -0.91 -0.58 -1.19 c -0.39 -0.28 -1.06 -0.53 -2.02 -0.73 c -0.96 -0.21 -1.72 -0.45 -2.29 -0.74 c -0.56 -0.29 -0.98 -0.63 -1.25 -1.03 c -0.27 -0.4 -0.41 -0.87 -0.41 -1.42 c 0 -0.91 0.38 -1.68 1.15 -2.31 c 0.77 -0.63 1.75 -0.94 2.95 -0.94 c 1.26 0 2.28 0.32 3.06 0.97 c 0.78 0.65 1.17 1.48 1.17 2.49 h -1.91 c 0 -0.52 -0.22 -0.97 -0.66 -1.34 c -0.44 -0.38 -1 -0.56 -1.67 -0.56 c -0.69 0 -1.23 0.15 -1.62 0.45 s -0.58 0.69 -0.58 1.18 c 0 0.46 0.18 0.8 0.54 1.04 s 1.02 0.45 1.96 0.67 c 0.95 0.21 1.71 0.46 2.3 0.76 s 1.02 0.65 1.31 1.06 c 0.28 0.41 0.43 0.92 0.43 1.51 c 0 0.99 -0.4 1.79 -1.19 2.38 c -0.79 0.6 -1.82 0.9 -3.09 0.9 c -0.89 0 -1.67 -0.16 -2.36 -0.47 s -1.22 -0.75 -1.6 -1.32 c -0.39 -0.56 -0.58 -1.17 -0.58 -1.83 h 1.9 c 0.03 0.64 0.29 1.14 0.76 1.51 c 0.48 0.37 1.1 0.56 1.88 0.56 c 0.72 0 1.29 -0.15 1.73 -0.44 C 107.77 100.59 107.98 100.2 107.98 99.72 z" stroke-linecap="round"/>
</g>
<g transform="matrix(3.0303 0 0 3.0303 412.0606 482.1667)" id="695390">
<path style="stroke: none; stroke-width: 0; stroke-dasharray: none; stroke-linecap: butt; stroke-dashoffset: 0; stroke-linejoin: miter; stroke-miterlimit: 4; is-custom-font: none; font-file-url: none; fill: rgb(0,0,0); fill-rule: nonzero; opacity: 1;" transform=" translate(-121.48, -97.115)" d="M 124.01 99.72 c 0 -0.51 -0.19 -0.91 -0.58 -1.19 c -0.39 -0.28 -1.06 -0.53 -2.02 -0.73 c -0.96 -0.21 -1.72 -0.45 -2.29 -0.74 c -0.56 -0.29 -0.98 -0.63 -1.25 -1.03 c -0.27 -0.4 -0.41 -0.87 -0.41 -1.42 c 0 -0.91 0.38 -1.68 1.15 -2.31 c 0.77 -0.63 1.75 -0.94 2.95 -0.94 c 1.26 0 2.28 0.32 3.06 0.97 c 0.78 0.65 1.17 1.48 1.17 2.49 h -1.91 c 0 -0.52 -0.22 -0.97 -0.66 -1.34 c -0.44 -0.38 -1 -0.56 -1.67 -0.56 c -0.69 0 -1.23 0.15 -1.62 0.45 s -0.58 0.69 -0.58 1.18 c 0 0.46 0.18 0.8 0.54 1.04 s 1.02 0.45 1.96 0.67 c 0.95 0.21 1.71 0.46 2.3 0.76 s 1.02 0.65 1.31 1.06 c 0.28 0.41 0.43 0.92 0.43 1.51 c 0 0.99 -0.4 1.79 -1.19 2.38 c -0.79 0.6 -1.82 0.9 -3.09 0.9 c -0.89 0 -1.67 -0.16 -2.36 -0.47 s -1.22 -0.75 -1.6 -1.32 c -0.39 -0.56 -0.58 -1.17 -0.58 -1.83 h 1.9 c 0.03 0.64 0.29 1.14 0.76 1.51 c 0.48 0.37 1.1 0.56 1.88 0.56 c 0.72 0 1.29 -0.15 1.73 -0.44 C 123.79 100.59 124.01 100.2 124.01 99.72 z" stroke-linecap="round"/>
</g>
<g transform="matrix(3.0303 0 0 3.0303 443.606 488.9393)" id="423655">
<path style="stroke: none; stroke-width: 0; stroke-dasharray: none; stroke-linecap: butt; stroke-dashoffset: 0; stroke-linejoin: miter; stroke-miterlimit: 4; is-custom-font: none; font-file-url: none; fill: rgb(0,0,0); fill-rule: nonzero; opacity: 1;" transform=" translate(-131.89, -99.35)" d="M 132.01 99.88 l 2.58 -8.32 h 2.03 l -4.46 12.81 c -0.69 1.85 -1.79 2.77 -3.29 2.77 l -0.36 -0.03 l -0.71 -0.13 v -1.54 l 0.51 0.04 c 0.64 0 1.14 -0.13 1.5 -0.39 c 0.36 -0.26 0.65 -0.73 0.89 -1.43 l 0.42 -1.13 l -3.96 -10.97 h 2.07 L 132.01 99.88 z" stroke-linecap="round"/>
</g>
<g transform="matrix(3.0303 0 0 3.0303 475 482.1667)" id="226355">
<path style="stroke: none; stroke-width: 0; stroke-dasharray: none; stroke-linecap: butt; stroke-dashoffset: 0; stroke-linejoin: miter; stroke-miterlimit: 4; is-custom-font: none; font-file-url: none; fill: rgb(0,0,0); fill-rule: nonzero; opacity: 1;" transform=" translate(-142.25, -97.115)" d="M 144.78 99.72 c 0 -0.51 -0.19 -0.91 -0.58 -1.19 c -0.39 -0.28 -1.06 -0.53 -2.02 -0.73 c -0.96 -0.21 -1.72 -0.45 -2.29 -0.74 c -0.56 -0.29 -0.98 -0.63 -1.25 -1.03 c -0.27 -0.4 -0.41 -0.87 -0.41 -1.42 c 0 -0.91 0.38 -1.68 1.15 -2.31 c 0.77 -0.63 1.75 -0.94 2.95 -0.94 c 1.26 0 2.28 0.32 3.06 0.97 c 0.78 0.65 1.17 1.48 1.17 2.49 h -1.91 c 0 -0.52 -0.22 -0.97 -0.66 -1.34 c -0.44 -0.38 -1 -0.56 -1.67 -0.56 c -0.69 0 -1.23 0.15 -1.62 0.45 s -0.58 0.69 -0.58 1.18 c 0 0.46 0.18 0.8 0.54 1.04 s 1.02 0.45 1.96 0.67 c 0.95 0.21 1.71 0.46 2.3 0.76 s 1.02 0.65 1.31 1.06 c 0.28 0.41 0.43 0.92 0.43 1.51 c 0 0.99 -0.4 1.79 -1.19 2.38 c -0.79 0.6 -1.82 0.9 -3.09 0.9 c -0.89 0 -1.67 -0.16 -2.36 -0.47 s -1.22 -0.75 -1.6 -1.32 c -0.39 -0.56 -0.58 -1.17 -0.58 -1.83 h 1.9 c 0.03 0.64 0.29 1.14 0.76 1.51 c 0.48 0.37 1.1 0.56 1.88 0.56 c 0.72 0 1.29 -0.15 1.73 -0.44 C 144.56 100.59 144.78 100.2 144.78 99.72 z" stroke-linecap="round"/>
</g>
<g transform="matrix(3.0303 0 0 3.0303 500.9546 478.409)" id="134768">
<path style="stroke: none; stroke-width: 0; stroke-dasharray: none; stroke-linecap: butt; stroke-dashoffset: 0; stroke-linejoin: miter; stroke-miterlimit: 4; is-custom-font: none; font-file-url: none; fill: rgb(0,0,0); fill-rule: nonzero; opacity: 1;" transform=" translate(-150.815, -95.875)" d="M 151.72 88.88 v 2.69 h 2.07 v 1.47 h -2.07 v 6.89 c 0 0.44 0.09 0.78 0.28 1 c 0.18 0.22 0.5 0.33 0.94 0.33 c 0.22 0 0.52 -0.04 0.9 -0.12 v 1.53 c -0.5 0.14 -0.98 0.2 -1.46 0.2 c -0.85 0 -1.49 -0.26 -1.92 -0.77 c -0.43 -0.51 -0.65 -1.24 -0.65 -2.18 v -6.88 h -2.02 v -1.47 h 2.02 v -2.69 H 151.72 z" stroke-linecap="round"/>
</g>
<g transform="matrix(3.0303 0 0 3.0303 529.4697 482.1818)" id="767027">
<path style="stroke: none; stroke-width: 0; stroke-dasharray: none; stroke-linecap: butt; stroke-dashoffset: 0; stroke-linejoin: miter; stroke-miterlimit: 4; is-custom-font: none; font-file-url: none; fill: rgb(0,0,0); fill-rule: nonzero; opacity: 1;" transform=" translate(-160.225, -97.12)" d="M 160.61 102.87 c -1.5 0 -2.73 -0.49 -3.67 -1.48 s -1.42 -2.31 -1.42 -3.96 v -0.35 c 0 -1.1 0.21 -2.08 0.63 -2.95 c 0.42 -0.86 1.01 -1.54 1.76 -2.03 c 0.76 -0.49 1.57 -0.73 2.46 -0.73 c 1.44 0 2.56 0.48 3.36 1.43 s 1.2 2.31 1.2 4.08 v 0.79 h -7.52 c 0.03 1.09 0.35 1.98 0.96 2.65 c 0.61 0.67 1.39 1.01 2.33 1.01 c 0.67 0 1.24 -0.14 1.7 -0.41 s 0.87 -0.64 1.22 -1.09 l 1.16 0.9 C 163.86 102.15 162.47 102.87 160.61 102.87 z M 160.37 92.92 c -0.77 0 -1.41 0.28 -1.93 0.84 s -0.84 1.34 -0.96 2.34 h 5.56 v -0.14 c -0.05 -0.96 -0.31 -1.71 -0.78 -2.24 S 161.16 92.92 160.37 92.92 z" stroke-linecap="round"/>
</g>
<g transform="matrix(3.0303 0 0 3.0303 573.909 481.8485)" id="317369">
<path style="stroke: none; stroke-width: 0; stroke-dasharray: none; stroke-linecap: butt; stroke-dashoffset: 0; stroke-linejoin: miter; stroke-miterlimit: 4; is-custom-font: none; font-file-url: none; fill: rgb(0,0,0); fill-rule: nonzero; opacity: 1;" transform=" translate(-174.89, -97.01)" d="M 168.91 91.57 l 0.05 1.23 c 0.81 -0.96 1.91 -1.44 3.29 -1.44 c 1.55 0 2.61 0.59 3.17 1.78 c 0.37 -0.53 0.85 -0.96 1.44 -1.29 c 0.59 -0.33 1.29 -0.49 2.1 -0.49 c 2.43 0 3.67 1.29 3.71 3.87 v 7.43 h -1.9 v -7.32 c 0 -0.79 -0.18 -1.39 -0.54 -1.78 c -0.36 -0.39 -0.97 -0.59 -1.83 -0.59 c -0.7 0 -1.29 0.21 -1.75 0.63 c -0.46 0.42 -0.73 0.99 -0.81 1.7 v 7.36 h -1.91 v -7.27 c 0 -1.61 -0.79 -2.42 -2.37 -2.42 c -1.24 0 -2.09 0.53 -2.55 1.59 v 8.1 h -1.9 V 91.57 H 168.91 z" stroke-linecap="round"/>
</g>
<g transform="matrix(3.0303 0 0 3.0303 625.3485 476.0303)" id="183655">
<path style="stroke: none; stroke-width: 0; stroke-dasharray: none; stroke-linecap: butt; stroke-dashoffset: 0; stroke-linejoin: miter; stroke-miterlimit: 4; is-custom-font: none; font-file-url: none; fill: rgb(0,0,0); fill-rule: nonzero; opacity: 1;" transform=" translate(-191.865, -95.09)" d="M 190.74 88.62 c 0 -0.31 0.09 -0.57 0.28 -0.78 c 0.19 -0.21 0.47 -0.32 0.84 -0.32 s 0.65 0.11 0.84 0.32 s 0.29 0.47 0.29 0.78 s -0.1 0.56 -0.29 0.77 s -0.47 0.31 -0.84 0.31 s -0.65 -0.1 -0.84 -0.31 C 190.84 89.19 190.74 88.93 190.74 88.62 z M 192.79 102.66 h -1.9 V 91.57 h 1.9 V 102.66 z" stroke-linecap="round"/>
</g>
<g transform="matrix(3.0303 0 0 3.0303 649.2727 482.1667)" id="546849">
<path style="stroke: none; stroke-width: 0; stroke-dasharray: none; stroke-linecap: butt; stroke-dashoffset: 0; stroke-linejoin: miter; stroke-miterlimit: 4; is-custom-font: none; font-file-url: none; fill: rgb(0,0,0); fill-rule: nonzero; opacity: 1;" transform=" translate(-199.76, -97.115)" d="M 202.29 99.72 c 0 -0.51 -0.19 -0.91 -0.58 -1.19 c -0.39 -0.28 -1.06 -0.53 -2.02 -0.73 c -0.96 -0.21 -1.72 -0.45 -2.29 -0.74 c -0.56 -0.29 -0.98 -0.63 -1.25 -1.03 c -0.27 -0.4 -0.41 -0.87 -0.41 -1.42 c 0 -0.91 0.38 -1.68 1.15 -2.31 c 0.77 -0.63 1.75 -0.94 2.95 -0.94 c 1.26 0 2.28 0.32 3.06 0.97 c 0.78 0.65 1.17 1.48 1.17 2.49 h -1.91 c 0 -0.52 -0.22 -0.97 -0.66 -1.34 c -0.44 -0.38 -1 -0.56 -1.67 -0.56 c -0.69 0 -1.23 0.15 -1.62 0.45 s -0.58 0.69 -0.58 1.18 c 0 0.46 0.18 0.8 0.54 1.04 s 1.02 0.45 1.96 0.67 c 0.95 0.21 1.71 0.46 2.3 0.76 s 1.02 0.65 1.31 1.06 c 0.28 0.41 0.43 0.92 0.43 1.51 c 0 0.99 -0.4 1.79 -1.19 2.38 c -0.79 0.6 -1.82 0.9 -3.09 0.9 c -0.89 0 -1.67 -0.16 -2.36 -0.47 s -1.22 -0.75 -1.6 -1.32 c -0.39 -0.56 -0.58 -1.17 -0.58 -1.83 h 1.9 c 0.03 0.64 0.29 1.14 0.76 1.51 c 0.48 0.37 1.1 0.56 1.88 0.56 c 0.72 0 1.29 -0.15 1.73 -0.44 C 202.07 100.59 202.29 100.2 202.29 99.72 z" stroke-linecap="round"/>
</g>
<g transform="matrix(3.0303 0 0 3.0303 689.3788 476.0303)" id="625393">
<path style="stroke: none; stroke-width: 0; stroke-dasharray: none; stroke-linecap: butt; stroke-dashoffset: 0; stroke-linejoin: miter; stroke-miterlimit: 4; is-custom-font: none; font-file-url: none; fill: rgb(0,0,0); fill-rule: nonzero; opacity: 1;" transform=" translate(-212.995, -95.09)" d="M 211.87 88.62 c 0 -0.31 0.09 -0.57 0.28 -0.78 c 0.19 -0.21 0.47 -0.32 0.84 -0.32 s 0.65 0.11 0.84 0.32 s 0.29 0.47 0.29 0.78 s -0.1 0.56 -0.29 0.77 s -0.47 0.31 -0.84 0.31 s -0.65 -0.1 -0.84 -0.31 C 211.96 89.19 211.87 88.93 211.87 88.62 z M 213.92 102.66 h -1.9 V 91.57 h 1.9 V 102.66 z" stroke-linecap="round"/>
</g>
<g transform="matrix(3.0303 0 0 3.0303 714.5757 481.8636)" id="687638">
<path style="stroke: none; stroke-width: 0; stroke-dasharray: none; stroke-linecap: butt; stroke-dashoffset: 0; stroke-linejoin: miter; stroke-miterlimit: 4; is-custom-font: none; font-file-url: none; fill: rgb(0,0,0); fill-rule: nonzero; opacity: 1;" transform=" translate(-221.31, -97.015)" d="M 218.75 91.57 l 0.06 1.39 c 0.85 -1.07 1.96 -1.6 3.32 -1.6 c 2.34 0 3.53 1.32 3.55 3.97 v 7.33 h -1.9 v -7.34 c -0.01 -0.8 -0.19 -1.39 -0.55 -1.77 c -0.36 -0.38 -0.92 -0.57 -1.68 -0.57 c -0.62 0 -1.16 0.16 -1.62 0.49 c -0.47 0.33 -0.83 0.76 -1.09 1.29 v 7.91 h -1.9 V 91.57 H 218.75 z" stroke-linecap="round"/>
</g>
<g transform="matrix(3.0303 0 0 3.0303 425.7575 673.0758)" id="389291">
<path style="stroke: none; stroke-width: 0; stroke-dasharray: none; stroke-linecap: butt; stroke-dashoffset: 0; stroke-linejoin: miter; stroke-miterlimit: 4; is-custom-font: none; font-file-url: none; fill: rgb(0,0,0); fill-rule: nonzero; opacity: 1;" transform=" translate(-126, -160.115)" d="M 128.53 162.72 c 0 -0.51 -0.19 -0.91 -0.58 -1.19 c -0.39 -0.28 -1.06 -0.53 -2.02 -0.73 c -0.96 -0.21 -1.72 -0.45 -2.29 -0.74 c -0.56 -0.29 -0.98 -0.63 -1.25 -1.03 c -0.27 -0.4 -0.41 -0.87 -0.41 -1.42 c 0 -0.91 0.38 -1.68 1.15 -2.31 c 0.77 -0.63 1.75 -0.94 2.95 -0.94 c 1.26 0 2.28 0.32 3.06 0.97 c 0.78 0.65 1.17 1.48 1.17 2.49 h -1.91 c 0 -0.52 -0.22 -0.97 -0.66 -1.34 c -0.44 -0.38 -1 -0.56 -1.67 -0.56 c -0.69 0 -1.23 0.15 -1.62 0.45 s -0.58 0.69 -0.58 1.18 c 0 0.46 0.18 0.8 0.54 1.04 s 1.02 0.45 1.96 0.67 c 0.95 0.21 1.71 0.46 2.3 0.76 s 1.02 0.65 1.31 1.06 c 0.28 0.41 0.43 0.92 0.43 1.51 c 0 0.99 -0.4 1.79 -1.19 2.38 c -0.79 0.6 -1.82 0.9 -3.09 0.9 c -0.89 0 -1.67 -0.16 -2.36 -0.47 s -1.22 -0.75 -1.6 -1.32 c -0.39 -0.56 -0.58 -1.17 -0.58 -1.83 h 1.9 c 0.03 0.64 0.29 1.14 0.76 1.51 c 0.48 0.37 1.1 0.56 1.88 0.56 c 0.72 0 1.29 -0.15 1.73 -0.44 C 128.32 163.59 128.53 163.2 128.53 162.72 z" stroke-linecap="round"/>
</g>
<g transform="matrix(3.0303 0 0 3.0303 459.8788 666.0454)" id="244431">
<path style="stroke: none; stroke-width: 0; stroke-dasharray: none; stroke-linecap: butt; stroke-dashoffset: 0; stroke-linejoin: miter; stroke-miterlimit: 4; is-custom-font: none; font-file-url: none; fill: rgb(0,0,0); fill-rule: nonzero; opacity: 1;" transform=" translate(-137.26, -157.795)" d="M 134.8 155.91 c 0.84 -1.03 1.93 -1.55 3.28 -1.55 c 2.34 0 3.53 1.32 3.55 3.97 v 7.33 h -1.9 v -7.34 c -0.01 -0.8 -0.19 -1.39 -0.55 -1.77 c -0.36 -0.38 -0.92 -0.57 -1.68 -0.57 c -0.62 0 -1.16 0.16 -1.62 0.49 c -0.47 0.33 -0.83 0.76 -1.09 1.29 v 7.91 h -1.9 v -15.75 h 1.9 V 155.91 z" stroke-linecap="round"/>
</g>
<g transform="matrix(3.0303 0 0 3.0303 494.6364 673.0606)" id="852061">
<path style="stroke: none; stroke-width: 0; stroke-dasharray: none; stroke-linecap: butt; stroke-dashoffset: 0; stroke-linejoin: miter; stroke-miterlimit: 4; is-custom-font: none; font-file-url: none; fill: rgb(0,0,0); fill-rule: nonzero; opacity: 1;" transform=" translate(-148.73, -160.11)" d="M 151.32 165.66 c -0.11 -0.22 -0.2 -0.61 -0.27 -1.17 c -0.88 0.92 -1.93 1.37 -3.16 1.37 c -1.09 0 -1.99 -0.31 -2.69 -0.93 c -0.7 -0.62 -1.05 -1.4 -1.05 -2.35 c 0 -1.16 0.44 -2.05 1.32 -2.69 c 0.88 -0.64 2.11 -0.96 3.71 -0.96 h 1.85 v -0.87 c 0 -0.66 -0.2 -1.19 -0.6 -1.58 c -0.4 -0.39 -0.98 -0.59 -1.75 -0.59 c -0.68 0 -1.24 0.17 -1.7 0.51 s -0.69 0.76 -0.69 1.24 h -1.91 c 0 -0.55 0.2 -1.09 0.59 -1.6 c 0.39 -0.52 0.93 -0.92 1.6 -1.23 c 0.67 -0.3 1.41 -0.45 2.22 -0.45 c 1.28 0 2.28 0.32 3 0.96 s 1.1 1.52 1.13 2.64 v 5.11 c 0 1.02 0.13 1.83 0.39 2.43 v 0.16 H 151.32 z M 148.17 164.22 c 0.6 0 1.16 -0.15 1.69 -0.46 s 0.92 -0.71 1.16 -1.2 v -2.28 h -1.49 c -2.32 0 -3.49 0.68 -3.49 2.04 c 0 0.59 0.2 1.06 0.59 1.39 S 147.55 164.22 148.17 164.22 z" stroke-linecap="round"/>
</g>
<g transform="matrix(3.0303 0 0 3.0303 530.5151 679.2273)" id="880827">
<path style="stroke: none; stroke-width: 0; stroke-dasharray: none; stroke-linecap: butt; stroke-dashoffset: 0; stroke-linejoin: miter; stroke-miterlimit: 4; is-custom-font: none; font-file-url: none; fill: rgb(0,0,0); fill-rule: nonzero; opacity: 1;" transform=" translate(-160.57, -162.145)" d="M 165.26 160.24 c 0 1.69 -0.39 3.05 -1.16 4.08 s -1.82 1.55 -3.14 1.55 c -1.35 0 -2.41 -0.43 -3.18 -1.28 v 5.34 h -1.9 v -15.36 h 1.73 l 0.09 1.23 c 0.77 -0.96 1.85 -1.44 3.22 -1.44 c 1.33 0 2.39 0.5 3.16 1.51 c 0.78 1 1.16 2.4 1.16 4.19 V 160.24 z M 163.36 160.02 c 0 -1.25 -0.27 -2.24 -0.8 -2.96 s -1.27 -1.09 -2.2 -1.09 c -1.15 0 -2.01 0.51 -2.58 1.53 v 5.3 c 0.57 1.01 1.44 1.52 2.61 1.52 c 0.91 0 1.63 -0.36 2.17 -1.08 C 163.1 162.52 163.36 161.44 163.36 160.02 z" stroke-linecap="round"/>
</g>
<g transform="matrix(3.0303 0 0 3.0303 564.8334 673.0909)" id="67851">
<path style="stroke: none; stroke-width: 0; stroke-dasharray: none; stroke-linecap: butt; stroke-dashoffset: 0; stroke-linejoin: miter; stroke-miterlimit: 4; is-custom-font: none; font-file-url: none; fill: rgb(0,0,0); fill-rule: nonzero; opacity: 1;" transform=" translate(-171.895, -160.12)" d="M 172.28 165.87 c -1.5 0 -2.73 -0.49 -3.67 -1.48 s -1.42 -2.31 -1.42 -3.96 v -0.35 c 0 -1.1 0.21 -2.08 0.63 -2.95 c 0.42 -0.86 1.01 -1.54 1.76 -2.03 c 0.76 -0.49 1.57 -0.73 2.46 -0.73 c 1.44 0 2.56 0.48 3.36 1.43 s 1.2 2.31 1.2 4.08 v 0.79 h -7.52 c 0.03 1.09 0.35 1.98 0.96 2.65 c 0.61 0.67 1.39 1.01 2.33 1.01 c 0.67 0 1.24 -0.14 1.7 -0.41 s 0.87 -0.64 1.22 -1.09 l 1.16 0.9 C 175.53 165.15 174.14 165.87 172.28 165.87 z M 172.04 155.92 c -0.77 0 -1.41 0.28 -1.93 0.84 s -0.84 1.34 -0.96 2.34 h 5.56 v -0.14 c -0.05 -0.96 -0.31 -1.71 -0.78 -2.24 S 172.83 155.92 172.04 155.92 z" stroke-linecap="round"/>
</g>
<g transform="matrix(1 0 0 1 500 581.4187)" style="" id="129640">
		
<path xml:space="preserve" font-family="roboto" font-size="108" font-style="normal" font-weight="bold" style="stroke: none; stroke-width: 0; stroke-dasharray: none; stroke-linecap: butt; stroke-dashoffset: 0; stroke-linejoin: miter; stroke-miterlimit: 4; is-custom-font: none; font-file-url: none; fill: rgb(233,115,13); fill-rule: nonzero; opacity: 1; white-space: pre;" d="M-91.33-42.85L-78.72 11.78L-68.39-42.85L-52.62-42.85L-69.65 33.93L-85.58 33.93L-98.08-17.44L-110.57 33.93L-126.50 33.93L-143.53-42.85L-127.77-42.85L-117.38 11.67L-104.72-42.85L-91.33-42.85Z"/><path xml:space="preserve" font-family="roboto" font-size="108" font-style="normal" font-weight="bold" style="stroke: none; stroke-width: 0; stroke-dasharray: none; stroke-linecap: butt; stroke-dashoffset: 0; stroke-linejoin: miter; stroke-miterlimit: 4; is-custom-font: none; font-file-url: none; fill: rgb(233,115,13); fill-rule: nonzero; opacity: 1; white-space: pre;" d="M-12.46 34.98L-12.46 34.98Q-25.01 34.98-32.89 27.28Q-40.78 19.58-40.78 6.77L-40.78 6.77L-40.78 5.29Q-40.78-3.30-37.46-10.08Q-34.13-16.86-28.04-20.52Q-21.95-24.19-14.15-24.19L-14.15-24.19Q-2.44-24.19 4.28-16.80Q11.01-9.42 11.01 4.13L11.01 4.13L11.01 10.35L-25.33 10.35Q-24.59 15.94-20.87 19.32Q-17.15 22.69-11.46 22.69L-11.46 22.69Q-2.65 22.69 2.31 16.31L2.31 16.31L9.79 24.70Q6.37 29.55 0.51 32.27Q-5.34 34.98-12.46 34.98ZM-14.20-11.85L-14.20-11.85Q-18.74-11.85-21.56-8.79Q-24.38-5.73-25.17-0.03L-25.17-0.03L-3.97-0.03L-3.97-1.25Q-4.08-6.31-6.71-9.08Q-9.35-11.85-14.20-11.85Z"/><path xml:space="preserve" font-family="roboto" font-size="108" font-style="normal" font-weight="bold" style="stroke: none; stroke-width: 0; stroke-dasharray: none; stroke-linecap: butt; stroke-dashoffset: 0; stroke-linejoin: miter; stroke-miterlimit: 4; is-custom-font: none; font-file-url: none; fill: rgb(233,115,13); fill-rule: nonzero; opacity: 1; white-space: pre;" d="M76.11 33.93L60.71 33.93Q59.66 31.87 59.18 28.81L59.18 28.81Q53.65 34.98 44.79 34.98L44.79 34.98Q36.40 34.98 30.89 30.13Q25.38 25.28 25.38 17.90L25.38 17.90Q25.38 8.83 32.10 3.97Q38.83-0.88 51.54-0.93L51.54-0.93L58.55-0.93L58.55-4.20Q58.55-8.15 56.52-10.53Q54.49-12.90 50.11-12.90L50.11-12.90Q46.26-12.90 44.07-11.06Q41.89-9.21 41.89-5.99L41.89-5.99L26.65-5.99Q26.65-10.95 29.70-15.17Q32.76-19.39 38.35-21.79Q43.94-24.19 50.90-24.19L50.90-24.19Q61.45-24.19 67.65-18.89Q73.84-13.59 73.84-3.99L73.84-3.99L73.84 20.74Q73.90 28.86 76.11 33.03L76.11 33.03L76.11 33.93ZM48.11 23.33L48.11 23.33Q51.48 23.33 54.33 21.82Q57.18 20.32 58.55 17.79L58.55 17.79L58.55 7.98L52.85 7.98Q41.41 7.98 40.67 15.89L40.67 15.89L40.62 16.79Q40.62 19.64 42.62 21.48Q44.63 23.33 48.11 23.33Z"/><path xml:space="preserve" font-family="roboto" font-size="108" font-style="normal" font-weight="bold" style="stroke: none; stroke-width: 0; stroke-dasharray: none; stroke-linecap: butt; stroke-dashoffset: 0; stroke-linejoin: miter; stroke-miterlimit: 4; is-custom-font: none; font-file-url: none; fill: rgb(233,115,13); fill-rule: nonzero; opacity: 1; white-space: pre;" d="M128.93 33.93L114.27 11.04L108.78 16.52L108.78 33.93L93.54 33.93L93.54-47.07L108.78-47.07L108.78-2.20L111.74-5.99L126.34-23.13L144.64-23.13L124.02 0.65L146.43 33.93L128.93 33.93Z"/></g>
</svg>