<?xml version="1.0" encoding="utf-8"?>
<!-- Generator: Adobe Illustrator 24.0.1, SVG Export Plug-In . SVG Version: 6.00 Build 0)  -->
<svg version="1.1" xmlns="http://www.w3.org/2000/svg" xmlns:xlink="http://www.w3.org/1999/xlink" x="0px" y="0px"
	 viewBox="0 0 300 205" style="enable-background:new 0 0 300 205;" xml:space="preserve">
<style type="text/css">
	.st0{fill:#F4F4F4;}
	.st1{fill:#F7F7F7;stroke:#E2E2E2;stroke-miterlimit:10;}
	.st2{fill:#5E5E5E;}
	.st3{fill:#FFFFFF;stroke:#E2E2E2;stroke-miterlimit:10;}
	.st4{fill:none;stroke:#000000;stroke-miterlimit:10;}
	.st5{clip-path:url(#SVGID_2_);}
	.st6{fill:#F2F2F2;}
	.st7{fill:#BB0000;}
	.st8{fill:#E9730D;}
	.st9{fill:#E5DA10;}
	.st10{fill:#45A53A;}
	.st11{fill:#107E3E;}
	.st12{fill:#FFFFFF;}
	.st13{fill:#E2E2E2;}
	.st14{fill:none;stroke:#E2E2E2;stroke-width:24;stroke-linecap:round;stroke-linejoin:round;}
	.st15{fill:none;stroke:#E2E2E2;stroke-width:24;stroke-linecap:round;stroke-linejoin:round;stroke-dasharray:82.6361,40.0402;}
	.st16{fill:none;stroke:#E2E2E2;stroke-miterlimit:10;}
	.st17{fill:#E2E2E2;stroke:#FFFFFF;stroke-miterlimit:10;}
	.st18{fill:#107E3E;stroke:#FFFFFF;stroke-width:7;stroke-miterlimit:10;}
	.st19{fill:#E9730D;stroke:#FFFFFF;stroke-width:7;stroke-miterlimit:10;}
	.st20{fill:#E5DA10;stroke:#FFFFFF;stroke-width:7;stroke-miterlimit:10;}
	.st21{fill:#BB0000;stroke:#FFFFFF;stroke-width:7;stroke-miterlimit:10;}
	.st22{fill:#45A53A;stroke:#D3D3D3;stroke-width:7;stroke-miterlimit:10;}
	.st23{fill:#104DF9;stroke:#104DF9;stroke-miterlimit:10;}
	.st24{fill:#104DF9;}
	.st25{fill:#FFFFFF;stroke:#104DF9;stroke-width:0.5;stroke-miterlimit:10;}
	.st26{fill:#107E3E;stroke:#D3D3D3;stroke-width:7;stroke-miterlimit:10;}
	.st27{fill:#E5DA10;stroke:#D3D3D3;stroke-width:7;stroke-miterlimit:10;}
	.st28{fill:#BB0000;stroke:#D3D3D3;stroke-width:7;stroke-miterlimit:10;}
	.st29{fill:#E9730D;stroke:#D3D3D3;stroke-width:7;stroke-miterlimit:10;}
</style>
<g id="bg">
</g>
<g id="menu">
</g>
<g id="cards">
	<g>
		<g>
			<g>
				<path class="st7" d="M118.85,134.53l4.16-20.34h4.66l-6.23,27.02h-4.49l-5.14-19.72l-5.25,19.72h-4.51L95.8,114.2h4.66
					l4.19,20.3l5.16-20.3h3.93L118.85,134.53z"/>
				<path class="st7" d="M148.22,129.15h-11.1v8.31h12.97v3.75h-17.66V114.2h17.53v3.79h-12.84v7.46h11.1V129.15z"/>
				<path class="st7" d="M170.38,134.92h-10.46l-2.19,6.29h-4.88l10.21-27.02h4.21l10.22,27.02h-4.9L170.38,134.92z M161.23,131.14
					h7.83l-3.92-11.21L161.23,131.14z"/>
				<path class="st7" d="M189.63,129.54l-3.06,3.25v8.42h-4.69V114.2h4.69v12.67l2.6-3.21l7.9-9.46h5.68l-10.04,11.97l10.61,15.05
					h-5.57L189.63,129.54z"/>
			</g>
		</g>
	</g>
	<g>
		<g>
			<g>
				<path class="st11" d="M288.78,151.65L288.78,151.65c0-1.54-0.02-3.07-0.07-4.59c-0.06-1.65-0.75-3.09-1.84-4.15
					c-1.1-1.06-2.57-1.7-4.2-1.7l-0.19,0l-0.01,0c-1.65,0.06-3.09,0.75-4.15,1.84c-1.06,1.1-1.7,2.57-1.7,4.2l0,0.17v0l0,0.03
					c0.05,1.39,0.07,2.79,0.07,4.19c0,14.57-2.45,28.55-6.95,41.58c-0.23,0.66-0.33,1.32-0.33,1.98c0,1.25,0.39,2.47,1.1,3.48
					c0.71,1.01,1.71,1.8,2.97,2.24c0.66,0.23,1.32,0.33,1.98,0.33c1.25,0,2.47-0.39,3.48-1.1c1.01-0.71,1.8-1.71,2.24-2.97l0,0
					C286.1,182.9,288.78,167.58,288.78,151.65L288.78,151.65z"/>
				<path class="st8" d="M13.66,119.81c-0.11,0.47-0.16,0.93-0.16,1.38c0,1.37,0.47,2.68,1.29,3.73c0.83,1.05,1.98,1.82,3.38,2.15
					c0.47,0.11,0.93,0.16,1.38,0.16c1.36,0,2.68-0.47,3.73-1.29c1.05-0.83,1.82-1.98,2.16-3.38c7.55-32.33,27.45-59.95,54.45-77.59
					c0.9-0.59,1.57-1.35,2.04-2.23c0.46-0.87,0.71-1.86,0.71-2.85c0-1.14-0.31-2.27-0.98-3.3c-0.59-0.9-1.35-1.57-2.23-2.04
					c-0.87-0.46-1.86-0.71-2.85-0.71c-1.14,0-2.27,0.31-3.3,0.98l0,0C43.72,54.16,21.94,84.37,13.66,119.81z"/>
				<path class="st9" d="M102.05,33.44c14.63-5.86,30.59-9.09,47.34-9.09c16.79,0,32.79,3.24,47.44,9.13
					c0.75,0.3,1.5,0.44,2.25,0.44c1.19,0,2.37-0.36,3.35-1.01c0.99-0.66,1.78-1.59,2.26-2.78c0.3-0.75,0.44-1.5,0.44-2.25
					c0-1.19-0.36-2.37-1.01-3.35c-0.66-0.99-1.59-1.78-2.78-2.26c-16.06-6.45-33.6-10.01-51.96-10.01
					c-18.31,0-35.82,3.54-51.84,9.96c-1.19,0.48-2.13,1.27-2.78,2.26c-0.66,0.99-1.02,2.16-1.02,3.36c0,0.75,0.14,1.5,0.44,2.25l0,0
					c0.48,1.19,1.27,2.13,2.26,2.78c0.99,0.66,2.16,1.02,3.36,1.02C100.55,33.88,101.31,33.74,102.05,33.44z"/>
				<path class="st10" d="M218.98,45.04c26.99,17.65,46.87,45.29,54.39,77.63c0.33,1.41,1.1,2.56,2.15,3.38
					c1.05,0.82,2.36,1.29,3.73,1.29c0.45,0,0.91-0.05,1.38-0.16c1.41-0.33,2.56-1.1,3.38-2.15c0.82-1.05,1.29-2.36,1.29-3.73
					c0-0.45-0.05-0.91-0.16-1.38c-8.25-35.45-30.01-65.68-59.55-85.01c-1.03-0.67-2.16-0.99-3.3-0.99c-0.99,0-1.97,0.24-2.84,0.7
					c-0.87,0.46-1.64,1.14-2.23,2.03c-0.67,1.03-0.99,2.16-0.99,3.3c0,0.99,0.24,1.97,0.71,2.84
					C217.41,43.69,218.09,44.45,218.98,45.04z"/>
			</g>
			<path class="st7" d="M6.58,146.95c-0.05,1.56-0.08,3.12-0.08,4.69c0,16.33,2.75,32.04,7.81,46.68c1.72,4.98,7.16,7.63,12.14,5.91
				c4.98-1.72,7.63-7.16,5.91-12.14c-4.38-12.67-6.76-26.26-6.76-40.44c0-1.36,0.02-2.72,0.07-4.07c0.17-5.27-3.96-9.68-9.23-9.85
				C11.16,137.54,6.75,141.68,6.58,146.95L6.58,146.95z"/>
		</g>
		<circle class="st28" cx="18.8" cy="171.14" r="13.59"/>
	</g>
	<g>
		<path d="M82.94,89.34h-4.8v13.32h-1.96V89.34H71.4v-1.61h11.55V89.34z"/>
		<path d="M86.76,92.91c0.84-1.03,1.93-1.55,3.28-1.55c2.34,0,3.53,1.32,3.55,3.97v7.33h-1.9v-7.34c-0.01-0.8-0.19-1.39-0.55-1.77
			c-0.36-0.38-0.92-0.57-1.68-0.57c-0.62,0-1.16,0.16-1.62,0.49c-0.47,0.33-0.83,0.76-1.09,1.29v7.91h-1.9V86.91h1.9V92.91z"/>
		<path d="M96.44,88.63c0-0.31,0.09-0.57,0.28-0.78c0.19-0.21,0.47-0.32,0.84-0.32s0.65,0.11,0.84,0.32s0.29,0.47,0.29,0.78
			s-0.1,0.56-0.29,0.77s-0.47,0.31-0.84,0.31s-0.65-0.1-0.84-0.31C96.53,89.19,96.44,88.93,96.44,88.63z M98.49,102.66h-1.9v-11.1
			h1.9V102.66z"/>
		<path d="M107.98,99.72c0-0.51-0.19-0.91-0.58-1.2c-0.39-0.28-1.06-0.53-2.02-0.73c-0.96-0.21-1.72-0.45-2.29-0.74
			c-0.56-0.29-0.98-0.63-1.25-1.03c-0.27-0.4-0.41-0.87-0.41-1.42c0-0.91,0.38-1.68,1.15-2.31c0.77-0.63,1.75-0.94,2.95-0.94
			c1.26,0,2.28,0.33,3.06,0.97c0.78,0.65,1.17,1.48,1.17,2.49h-1.91c0-0.52-0.22-0.97-0.66-1.34c-0.44-0.38-1-0.56-1.67-0.56
			c-0.69,0-1.23,0.15-1.62,0.45s-0.58,0.69-0.58,1.18c0,0.46,0.18,0.8,0.54,1.04s1.02,0.46,1.96,0.67c0.95,0.21,1.71,0.46,2.3,0.76
			s1.02,0.65,1.31,1.06c0.28,0.41,0.43,0.92,0.43,1.51c0,0.99-0.4,1.79-1.19,2.38c-0.79,0.6-1.82,0.9-3.09,0.9
			c-0.89,0-1.67-0.16-2.36-0.47s-1.22-0.75-1.6-1.32c-0.39-0.56-0.58-1.17-0.58-1.83h1.9c0.03,0.64,0.29,1.14,0.76,1.51
			c0.48,0.37,1.1,0.56,1.88,0.56c0.72,0,1.29-0.14,1.73-0.44C107.77,100.59,107.98,100.21,107.98,99.72z"/>
		<path d="M124.01,99.72c0-0.51-0.19-0.91-0.58-1.2c-0.39-0.28-1.06-0.53-2.02-0.73c-0.96-0.21-1.72-0.45-2.29-0.74
			c-0.56-0.29-0.98-0.63-1.25-1.03c-0.27-0.4-0.41-0.87-0.41-1.42c0-0.91,0.38-1.68,1.15-2.31c0.77-0.63,1.75-0.94,2.95-0.94
			c1.26,0,2.28,0.33,3.06,0.97c0.78,0.65,1.17,1.48,1.17,2.49h-1.91c0-0.52-0.22-0.97-0.66-1.34c-0.44-0.38-1-0.56-1.67-0.56
			c-0.69,0-1.23,0.15-1.62,0.45s-0.58,0.69-0.58,1.18c0,0.46,0.18,0.8,0.54,1.04s1.02,0.46,1.96,0.67c0.95,0.21,1.71,0.46,2.3,0.76
			s1.02,0.65,1.31,1.06c0.28,0.41,0.43,0.92,0.43,1.51c0,0.99-0.4,1.79-1.19,2.38c-0.79,0.6-1.82,0.9-3.09,0.9
			c-0.89,0-1.67-0.16-2.36-0.47s-1.22-0.75-1.6-1.32c-0.39-0.56-0.58-1.17-0.58-1.83h1.9c0.03,0.64,0.29,1.14,0.76,1.51
			c0.48,0.37,1.1,0.56,1.88,0.56c0.72,0,1.29-0.14,1.73-0.44C123.79,100.59,124.01,100.21,124.01,99.72z"/>
		<path d="M132.01,99.88l2.58-8.32h2.03l-4.46,12.81c-0.69,1.85-1.79,2.77-3.29,2.77l-0.36-0.03l-0.71-0.13v-1.54l0.51,0.04
			c0.64,0,1.14-0.13,1.5-0.39c0.36-0.26,0.65-0.73,0.89-1.43l0.42-1.13l-3.96-10.97h2.07L132.01,99.88z"/>
		<path d="M144.77,99.72c0-0.51-0.19-0.91-0.58-1.2c-0.39-0.28-1.06-0.53-2.02-0.73c-0.96-0.21-1.72-0.45-2.29-0.74
			c-0.56-0.29-0.98-0.63-1.25-1.03c-0.27-0.4-0.41-0.87-0.41-1.42c0-0.91,0.38-1.68,1.15-2.31c0.77-0.63,1.75-0.94,2.95-0.94
			c1.26,0,2.28,0.33,3.06,0.97c0.78,0.65,1.17,1.48,1.17,2.49h-1.91c0-0.52-0.22-0.97-0.66-1.34c-0.44-0.38-1-0.56-1.67-0.56
			c-0.69,0-1.23,0.15-1.62,0.45s-0.58,0.69-0.58,1.18c0,0.46,0.18,0.8,0.54,1.04s1.02,0.46,1.96,0.67c0.95,0.21,1.71,0.46,2.3,0.76
			s1.02,0.65,1.31,1.06c0.28,0.41,0.43,0.92,0.43,1.51c0,0.99-0.4,1.79-1.19,2.38c-0.79,0.6-1.82,0.9-3.09,0.9
			c-0.89,0-1.67-0.16-2.36-0.47s-1.22-0.75-1.6-1.32c-0.39-0.56-0.58-1.17-0.58-1.83h1.9c0.03,0.64,0.29,1.14,0.76,1.51
			c0.48,0.37,1.1,0.56,1.88,0.56c0.72,0,1.29-0.14,1.73-0.44C144.56,100.59,144.77,100.21,144.77,99.72z"/>
		<path d="M151.72,88.88v2.69h2.07v1.47h-2.07v6.89c0,0.45,0.09,0.78,0.28,1c0.18,0.22,0.5,0.33,0.94,0.33
			c0.22,0,0.52-0.04,0.9-0.12v1.53c-0.5,0.14-0.98,0.2-1.46,0.2c-0.85,0-1.49-0.26-1.92-0.77c-0.43-0.51-0.65-1.24-0.65-2.18v-6.88
			h-2.02v-1.47h2.02v-2.69H151.72z"/>
		<path d="M160.61,102.87c-1.5,0-2.73-0.49-3.67-1.48c-0.94-0.99-1.42-2.31-1.42-3.96v-0.35c0-1.1,0.21-2.08,0.63-2.95
			c0.42-0.86,1.01-1.54,1.76-2.03c0.76-0.49,1.57-0.73,2.46-0.73c1.44,0,2.56,0.48,3.36,1.43s1.2,2.31,1.2,4.08v0.79h-7.52
			c0.03,1.09,0.35,1.98,0.96,2.65c0.61,0.67,1.39,1.01,2.33,1.01c0.67,0,1.24-0.14,1.7-0.41s0.87-0.64,1.22-1.09l1.16,0.9
			C163.86,102.15,162.47,102.87,160.61,102.87z M160.37,92.92c-0.77,0-1.41,0.28-1.93,0.84c-0.52,0.56-0.84,1.34-0.96,2.34h5.56
			v-0.14c-0.05-0.96-0.31-1.71-0.78-2.24C161.79,93.19,161.16,92.92,160.37,92.92z"/>
		<path d="M168.91,91.57l0.05,1.23c0.81-0.96,1.91-1.44,3.29-1.44c1.55,0,2.61,0.6,3.17,1.79c0.37-0.53,0.85-0.96,1.44-1.29
			c0.59-0.33,1.29-0.49,2.1-0.49c2.43,0,3.67,1.29,3.71,3.87v7.43h-1.9v-7.32c0-0.79-0.18-1.38-0.54-1.78
			c-0.36-0.39-0.97-0.59-1.83-0.59c-0.7,0-1.29,0.21-1.75,0.63c-0.46,0.42-0.73,0.99-0.81,1.7v7.36h-1.91v-7.27
			c0-1.61-0.79-2.42-2.37-2.42c-1.24,0-2.09,0.53-2.55,1.59v8.1h-1.9v-11.1H168.91z"/>
		<path d="M190.74,88.63c0-0.31,0.09-0.57,0.28-0.78c0.19-0.21,0.47-0.32,0.84-0.32s0.65,0.11,0.84,0.32s0.29,0.47,0.29,0.78
			s-0.1,0.56-0.29,0.77s-0.47,0.31-0.84,0.31s-0.65-0.1-0.84-0.31C190.84,89.19,190.74,88.93,190.74,88.63z M192.79,102.66h-1.9
			v-11.1h1.9V102.66z"/>
		<path d="M202.29,99.72c0-0.51-0.19-0.91-0.58-1.2c-0.39-0.28-1.06-0.53-2.02-0.73c-0.96-0.21-1.72-0.45-2.29-0.74
			c-0.56-0.29-0.98-0.63-1.25-1.03c-0.27-0.4-0.41-0.87-0.41-1.42c0-0.91,0.38-1.68,1.15-2.31c0.77-0.63,1.75-0.94,2.95-0.94
			c1.26,0,2.28,0.33,3.06,0.97c0.78,0.65,1.17,1.48,1.17,2.49h-1.91c0-0.52-0.22-0.97-0.66-1.34c-0.44-0.38-1-0.56-1.67-0.56
			c-0.69,0-1.23,0.15-1.62,0.45s-0.58,0.69-0.58,1.18c0,0.46,0.18,0.8,0.54,1.04s1.02,0.46,1.96,0.67c0.95,0.21,1.71,0.46,2.3,0.76
			s1.02,0.65,1.31,1.06c0.28,0.41,0.43,0.92,0.43,1.51c0,0.99-0.4,1.79-1.19,2.38c-0.79,0.6-1.82,0.9-3.09,0.9
			c-0.89,0-1.67-0.16-2.36-0.47s-1.22-0.75-1.6-1.32c-0.39-0.56-0.58-1.17-0.58-1.83h1.9c0.03,0.64,0.29,1.14,0.76,1.51
			c0.48,0.37,1.1,0.56,1.88,0.56c0.72,0,1.29-0.14,1.73-0.44C202.07,100.59,202.29,100.21,202.29,99.72z"/>
		<path d="M211.87,88.63c0-0.31,0.09-0.57,0.28-0.78c0.19-0.21,0.47-0.32,0.84-0.32s0.65,0.11,0.84,0.32s0.29,0.47,0.29,0.78
			s-0.1,0.56-0.29,0.77s-0.47,0.31-0.84,0.31s-0.65-0.1-0.84-0.31C211.96,89.19,211.87,88.93,211.87,88.63z M213.92,102.66h-1.9
			v-11.1h1.9V102.66z"/>
		<path d="M218.75,91.57l0.06,1.39c0.85-1.07,1.96-1.6,3.32-1.6c2.34,0,3.53,1.32,3.55,3.97v7.33h-1.9v-7.34
			c-0.01-0.8-0.19-1.39-0.55-1.77c-0.36-0.38-0.92-0.57-1.68-0.57c-0.62,0-1.16,0.16-1.62,0.49c-0.47,0.33-0.83,0.76-1.09,1.29v7.91
			h-1.9v-11.1H218.75z"/>
	</g>
	<g>
		<path d="M128.53,162.72c0-0.51-0.19-0.91-0.58-1.2c-0.39-0.28-1.06-0.53-2.02-0.73c-0.96-0.21-1.72-0.45-2.29-0.74
			c-0.56-0.29-0.98-0.63-1.25-1.03c-0.27-0.4-0.41-0.87-0.41-1.42c0-0.91,0.38-1.68,1.15-2.31c0.77-0.63,1.75-0.94,2.95-0.94
			c1.26,0,2.28,0.33,3.06,0.97c0.78,0.65,1.17,1.48,1.17,2.49h-1.91c0-0.52-0.22-0.97-0.66-1.34c-0.44-0.38-1-0.56-1.67-0.56
			c-0.69,0-1.23,0.15-1.62,0.45s-0.58,0.69-0.58,1.18c0,0.46,0.18,0.8,0.54,1.04s1.02,0.46,1.96,0.67c0.95,0.21,1.71,0.46,2.3,0.76
			s1.02,0.65,1.31,1.06c0.28,0.41,0.43,0.92,0.43,1.51c0,0.99-0.4,1.79-1.19,2.38c-0.79,0.6-1.82,0.9-3.09,0.9
			c-0.89,0-1.67-0.16-2.36-0.47s-1.22-0.75-1.6-1.32c-0.39-0.56-0.58-1.17-0.58-1.83h1.9c0.03,0.64,0.29,1.14,0.76,1.51
			c0.48,0.37,1.1,0.56,1.88,0.56c0.72,0,1.29-0.14,1.73-0.44C128.32,163.59,128.53,163.21,128.53,162.72z"/>
		<path d="M134.8,155.91c0.84-1.03,1.93-1.55,3.28-1.55c2.34,0,3.53,1.32,3.55,3.97v7.33h-1.9v-7.34c-0.01-0.8-0.19-1.39-0.55-1.77
			c-0.36-0.38-0.92-0.57-1.68-0.57c-0.62,0-1.16,0.16-1.62,0.49c-0.47,0.33-0.83,0.76-1.09,1.29v7.91h-1.9v-15.75h1.9V155.91z"/>
		<path d="M151.32,165.66c-0.11-0.22-0.2-0.61-0.27-1.17c-0.88,0.92-1.93,1.38-3.16,1.38c-1.09,0-1.99-0.31-2.69-0.93
			c-0.7-0.62-1.05-1.4-1.05-2.35c0-1.16,0.44-2.05,1.32-2.69c0.88-0.64,2.11-0.96,3.71-0.96h1.85v-0.87c0-0.66-0.2-1.19-0.6-1.58
			c-0.4-0.39-0.98-0.59-1.75-0.59c-0.68,0-1.24,0.17-1.7,0.51s-0.69,0.76-0.69,1.24h-1.91c0-0.55,0.2-1.09,0.59-1.6
			c0.39-0.52,0.93-0.93,1.6-1.23c0.67-0.3,1.41-0.45,2.22-0.45c1.28,0,2.28,0.32,3,0.96c0.72,0.64,1.1,1.52,1.13,2.64v5.11
			c0,1.02,0.13,1.83,0.39,2.43v0.16H151.32z M148.17,164.22c0.6,0,1.16-0.15,1.69-0.46c0.53-0.31,0.92-0.71,1.16-1.2v-2.28h-1.49
			c-2.32,0-3.49,0.68-3.49,2.04c0,0.6,0.2,1.06,0.59,1.39C147.04,164.05,147.55,164.22,148.17,164.22z"/>
		<path d="M165.26,160.24c0,1.69-0.39,3.05-1.16,4.08s-1.82,1.55-3.14,1.55c-1.35,0-2.41-0.43-3.18-1.28v5.34h-1.9v-15.36h1.73
			l0.09,1.23c0.77-0.96,1.85-1.44,3.22-1.44c1.33,0,2.39,0.5,3.16,1.51c0.78,1,1.16,2.4,1.16,4.19V160.24z M163.36,160.02
			c0-1.25-0.27-2.24-0.8-2.96s-1.27-1.09-2.2-1.09c-1.15,0-2.01,0.51-2.58,1.53v5.3c0.57,1.01,1.44,1.52,2.61,1.52
			c0.91,0,1.63-0.36,2.17-1.08C163.1,162.52,163.36,161.44,163.36,160.02z"/>
		<path d="M172.28,165.87c-1.5,0-2.73-0.49-3.67-1.48c-0.94-0.99-1.42-2.31-1.42-3.96v-0.35c0-1.1,0.21-2.08,0.63-2.95
			c0.42-0.86,1.01-1.54,1.76-2.03c0.76-0.49,1.57-0.73,2.46-0.73c1.44,0,2.56,0.48,3.36,1.43s1.2,2.31,1.2,4.08v0.79h-7.52
			c0.03,1.09,0.35,1.98,0.96,2.65c0.61,0.67,1.39,1.01,2.33,1.01c0.67,0,1.24-0.14,1.7-0.41s0.87-0.64,1.22-1.09l1.16,0.9
			C175.53,165.15,174.13,165.87,172.28,165.87z M172.04,155.92c-0.77,0-1.41,0.28-1.93,0.84c-0.52,0.56-0.84,1.34-0.96,2.34h5.56
			v-0.14c-0.05-0.96-0.31-1.71-0.78-2.24C173.46,156.19,172.83,155.92,172.04,155.92z"/>
	</g>
</g>
</svg>
