<?xml version="1.0" encoding="utf-8"?>
<!-- Generator: Adobe Illustrator 24.0.1, SVG Export Plug-In . SVG Version: 6.00 Build 0)  -->
<svg version="1.1" id="Layer_1" xmlns="http://www.w3.org/2000/svg" xmlns:xlink="http://www.w3.org/1999/xlink" x="0px" y="0px"
	 viewBox="0 0 1080 720" style="enable-background:new 0 0 1080 720;" xml:space="preserve">
<style type="text/css">
	.st0{opacity:0.2;fill:#C9C7C8;}
	.st1{fill:#C9C7C8;}
	.st2{fill:#BDDEFF;}
	.st3{stroke:#000000;stroke-miterlimit:10;}
	.st4{fill:#A0D19B;stroke:#000000;stroke-miterlimit:10;}
	.st5{fill:none;stroke:#000000;stroke-width:0.5;stroke-miterlimit:10;stroke-dasharray:4;}
	.st6{fill:none;stroke:#000000;stroke-miterlimit:10;}
	.st7{fill:none;stroke:#000000;stroke-width:0.5;stroke-miterlimit:10;}
	.st8{fill:none;stroke:#000000;stroke-width:0.5;stroke-miterlimit:10;stroke-dasharray:4.0075,4.0075;}
	.st9{fill:#FFFFFF;stroke:#000000;stroke-miterlimit:10;}
	.st10{fill:#FFFFFF;}
	.st11{fill:#F4F4F4;}
	.st12{fill:#FB7F3F;}
	.st13{fill:#FDC9AE;}
	.st14{fill:#FC935E;}
	.st15{fill:#FEDAC7;}
	.st16{fill:#EEB52F;}
	.st17{fill:#939393;}
	.st18{fill:#229F99;}
	.st19{fill:#D6D6D6;}
	.st20{fill:#C79CEB;}
	.st21{fill:#EBB000;stroke:#000000;stroke-miterlimit:10;}
	.st22{fill:#F6DE94;stroke:#000000;stroke-miterlimit:10;}
	.st23{fill:#EEBD2B;stroke:#000000;stroke-miterlimit:10;}
	.st24{fill:#F9E8B5;stroke:#000000;stroke-miterlimit:10;}
	.st25{fill:none;stroke:#EEB52F;stroke-miterlimit:10;}
	.st26{fill:#939393;stroke:#000000;stroke-miterlimit:10;}
	.st27{fill:none;stroke:#000000;stroke-width:0.5;stroke-miterlimit:10;stroke-dasharray:4.0227,4.0227;}
	.st28{fill:#F5F5F5;stroke:#000000;stroke-miterlimit:10;}
	.st29{fill:#375A64;stroke:#000000;stroke-miterlimit:10;}
	.st30{fill:#5D7982;stroke:#000000;stroke-miterlimit:10;}
	.st31{fill:#EEB52F;stroke:#000000;stroke-miterlimit:10;}
	.st32{opacity:0.6;stroke:#000000;stroke-miterlimit:10;}
	.st33{opacity:0.3;stroke:#000000;stroke-miterlimit:10;}
	.st34{fill:#FAFAFA;stroke:#000000;stroke-miterlimit:10;}
	.st35{opacity:0.5;fill:#FFFFFF;stroke:#000000;stroke-miterlimit:10;}
	.st36{fill:#C79CEB;stroke:#000000;stroke-miterlimit:10;}
	.st37{fill:#229F99;stroke:#000000;stroke-miterlimit:10;}
	.st38{fill:none;stroke:#424242;stroke-miterlimit:10;stroke-dasharray:9;}
	
		.st39{fill:none;stroke:#000000;stroke-width:7;stroke-linecap:round;stroke-linejoin:round;stroke-miterlimit:10;stroke-dasharray:14;}
	.st40{fill:#FB7F3F;stroke:#000000;stroke-miterlimit:10;}
	.st41{fill:#FF0000;stroke:#000000;stroke-miterlimit:10;}
	.st42{fill:#D6708D;stroke:#000000;stroke-miterlimit:10;}
	.st43{fill:#EC819B;stroke:#000000;stroke-miterlimit:10;}
	.st44{fill:#D6A218;stroke:#000000;stroke-miterlimit:10;}
	.st45{fill:#F8C862;stroke:#000000;stroke-miterlimit:10;}
	.st46{fill:#5ED3CA;stroke:#000000;stroke-miterlimit:10;}
	.st47{fill:#37BCB2;stroke:#000000;stroke-miterlimit:10;}
	.st48{fill:none;stroke:#000000;stroke-width:0.5;stroke-miterlimit:10;stroke-dasharray:3.96,3.96;}
	.st49{fill:#B2B2B2;stroke:#000000;stroke-miterlimit:10;}
	.st50{fill:#F0F0F0;stroke:#000000;stroke-miterlimit:10;}
	.st51{fill:#C3C3C3;stroke:#000000;stroke-miterlimit:10;}
	.st52{fill:#CECECE;stroke:#000000;stroke-miterlimit:10;}
	.st53{fill:#F7F7F7;stroke:#000000;stroke-miterlimit:10;}
	.st54{fill:#F3F3F3;stroke:#000000;stroke-miterlimit:10;}
	.st55{fill:#DCDCDC;stroke:#000000;stroke-miterlimit:10;}
	.st56{opacity:0.5;stroke:#000000;stroke-miterlimit:10;}
	.st57{fill:#D9D9D9;stroke:#000000;stroke-miterlimit:10;}
	.st58{fill:#CCCCCC;stroke:#000000;stroke-miterlimit:10;}
	.st59{fill:#0E0E0E;stroke:#000000;stroke-miterlimit:10;}
	.st60{fill:#C1C1C1;stroke:#000000;stroke-miterlimit:10;}
	.st61{fill:#D0D0D0;stroke:#000000;stroke-miterlimit:10;}
	.st62{fill:#B6B6B6;stroke:#000000;stroke-miterlimit:10;}
	.st63{fill:#EFEFEF;stroke:#000000;stroke-miterlimit:10;}
	.st64{fill:#BBBBBB;stroke:#000000;stroke-miterlimit:10;}
	.st65{fill:#AAAAAA;stroke:#000000;stroke-miterlimit:10;}
	.st66{fill:#999999;stroke:#000000;stroke-miterlimit:10;}
	.st67{fill:url(#SVGID_1_);}
	.st68{fill:url(#SVGID_2_);}
	.st69{fill:#E0E1FD;}
	.st70{fill:#BDBFFB;}
	.st71{fill:#CCCEFC;}
	.st72{fill:url(#SVGID_3_);}
	.st73{fill:url(#SVGID_4_);}
	.st74{fill:url(#SVGID_5_);}
	.st75{fill:url(#SVGID_6_);}
	.st76{fill:url(#SVGID_7_);}
	.st77{fill:url(#SVGID_8_);}
	.st78{fill:url(#SVGID_9_);}
	.st79{fill:#FEDBC9;}
	.st80{fill:url(#SVGID_10_);}
	.st81{fill:url(#SVGID_11_);}
	.st82{fill:url(#SVGID_12_);}
	.st83{fill:url(#SVGID_13_);}
	.st84{fill:url(#SVGID_14_);}
	.st85{fill:url(#SVGID_15_);}
	.st86{fill:#C79CEB;stroke:#000000;stroke-width:0.75;stroke-miterlimit:10;}
	.st87{fill:none;stroke:#000000;stroke-width:0.5;stroke-miterlimit:10;stroke-dasharray:3.8739,3.8739;}
	.st88{fill:none;stroke:#000000;stroke-width:0.5;stroke-miterlimit:10;stroke-dasharray:3.9453,3.9453;}
	.st89{fill:#FFFFFF;stroke:#000000;stroke-width:0.75;stroke-miterlimit:10;}
	.st90{fill:url(#SVGID_16_);}
	.st91{fill:url(#SVGID_17_);}
	.st92{fill:url(#SVGID_18_);}
	.st93{fill:url(#SVGID_19_);}
	.st94{fill:url(#SVGID_20_);}
	.st95{fill:url(#SVGID_21_);}
	.st96{fill:url(#SVGID_22_);}
	.st97{fill:url(#SVGID_23_);}
	.st98{fill:url(#SVGID_24_);}
	.st99{fill:url(#SVGID_25_);}
	.st100{fill:url(#SVGID_26_);}
	.st101{fill:url(#SVGID_27_);}
	.st102{fill:url(#SVGID_28_);}
	.st103{fill:url(#SVGID_29_);}
	.st104{fill:url(#SVGID_30_);}
	.st105{fill:url(#SVGID_31_);}
	.st106{fill:url(#SVGID_32_);}
	.st107{fill:url(#SVGID_33_);}
	.st108{fill:url(#SVGID_34_);}
	.st109{fill:url(#SVGID_35_);}
	.st110{fill:url(#SVGID_36_);}
	.st111{fill:url(#SVGID_37_);}
	.st112{fill:#91B3FA;}
	.st113{fill:#EC819B;}
	.st114{fill:#F8C862;}
	.st115{fill:#FFB08D;stroke:#000000;stroke-miterlimit:10;}
	.st116{opacity:0.1;fill:#229F99;}
	.st117{fill:#59595B;}
	.st118{fill:#47748C;}
	.st119{fill:#A5A6A9;}
	.st120{fill:#E5E5E6;}
	.st121{fill:#D67729;}
	.st122{fill:#DBDBDB;}
	.st123{fill:#7DB7C9;}
	.st124{opacity:0.5;}
	.st125{fill:#FB7F3F;stroke:#000000;stroke-linecap:round;stroke-linejoin:round;stroke-miterlimit:10;}
	.st126{fill:#D7F0FF;}
	.st127{clip-path:url(#SVGID_39_);fill:#FFFFFF;stroke:#000000;stroke-miterlimit:10;}
	.st128{clip-path:url(#SVGID_39_);}
</style>
<g>
	<g>
		<path class="st37" d="M369.39,205.01h-66.38L180.38,396.94v38.15h136.45v79.61l45.29,10.79l7.27-10.79v-79.61l30.73,11.41
			l8.2-11.41v-43.41h-38.93V205.01z M235.86,391.69l56.25-86.43c8.76-16.55,17.52-31.92,25.31-48.08h1.95
			c-0.97,18.01-2.53,46.42-2.53,64.43v70.08H235.86z"/>
		<path class="st37" d="M545.85,199.17c-64.23,0-105.11,54.79-105.11,159.42c0,104.63,40.88,161.95,105.11,161.95
			c64.24,0,105.12-57.32,105.12-161.95C650.96,254.26,610.09,199.17,545.85,199.17z M545.85,476.56
			c-29.98,0-51.58-30.37-51.58-117.96c0-87.59,21.6-115.43,51.58-115.43c29.98,0,51.58,27.84,51.58,115.43
			C597.43,446.19,575.83,476.56,545.85,476.56z"/>
		<path class="st37" d="M907.62,391.69h-38.93V205.01h-66.38L679.68,396.94v38.15h136.45v79.61l44.99,10.79l7.57-10.79v-79.61
			l31.43,11.41l7.5-11.41V391.69z M735.15,391.69l56.25-86.43c8.76-16.55,17.52-31.92,25.31-48.08h1.95
			c-0.97,18.01-2.53,46.42-2.53,64.43v70.08H735.15z"/>
	</g>
	<g>
		<path class="st37" d="M361.39,216.01h-66.38L172.38,407.94v38.15h136.45v79.61h52.56v-79.61h38.93v-43.41h-38.93V216.01z
			 M227.86,402.69l56.25-86.43c8.76-16.55,17.52-31.92,25.31-48.08h1.95c-0.97,18.01-2.53,46.42-2.53,64.43v70.08H227.86z"/>
		<path class="st37" d="M537.85,210.17c-64.23,0-105.11,54.79-105.11,159.42c0,104.63,40.88,161.95,105.11,161.95
			c64.24,0,105.12-57.32,105.12-161.95C642.96,265.26,602.09,210.17,537.85,210.17z M537.85,487.56
			c-29.98,0-51.58-30.37-51.58-117.96c0-87.59,21.6-115.43,51.58-115.43c29.98,0,51.58,27.84,51.58,115.43
			C589.43,457.19,567.83,487.56,537.85,487.56z"/>
		<path class="st37" d="M899.62,402.69h-38.93V216.01h-66.38L671.68,407.94v38.15h136.45v79.61h52.56v-79.61h38.93V402.69z
			 M727.15,402.69l56.25-86.43c8.76-16.55,17.52-31.92,25.31-48.08h1.95c-0.97,18.01-2.53,46.42-2.53,64.43v70.08H727.15z"/>
	</g>
	<g>
		<defs>
			<path id="SVGID_38_" d="M597.14,358.44c0,87.6-21.6,117.96-51.58,117.96c-22.96,0-41.01-17.82-48.2-65.54L299.12,397.5l-71-111
				c0,0,165-63,167-66s226-65,226-65L597.14,358.44z"/>
		</defs>
		<clipPath id="SVGID_1_">
			<use xlink:href="#SVGID_38_"  style="overflow:visible;"/>
		</clipPath>
		<polygon style="clip-path:url(#SVGID_1_);fill:#FFFFFF;stroke:#000000;stroke-miterlimit:10;" points="483,281 487.38,276.64 
			483.82,261.94 472.84,262.83 471,283 		"/>
		<g style="clip-path:url(#SVGID_1_);">
			<path class="st9" d="M467.12,277.18l5.32-17.68l18.35,0.13l-2.4,8.68c0,0-0.72,3.52-4.17,6.7c-3.45,3.18-4.51,5.29-4.51,5.29"/>
			<path class="st9" d="M504.43,254.69c0,0-0.59,15.31,7.44,17.43c8.04,2.11,9.12-7.22,9.12-7.22s3.55-10.24,1.22-10.51
				c-2.61-0.3-2.61,2.06-2.61,2.06l-0.22-8.31l-8.17-0.95L504.43,254.69z"/>
			<path d="M514.31,251.1c0,0-6.65,6.33-10.15,5.92c-3.5-0.41-7.63-5.62-6.95-11.45c0.68-5.84,4.58-8.93,4.58-8.93
				s1.79,4.94,4.13,5.21c2.33,0.27,9.74-2.42,15.04,2.93c3.03,3.06,2.7,6.87,1.9,9.09c-0.6,1.67-1.17-0.14-1.17-0.14l-1.3,1.03
				l-0.79,1.68C519.61,256.45,515.07,254.74,514.31,251.1z"/>
			<path d="M530.78,626.51l2.93,26.69c0,0-11.39,5.13-23.76,1.37c0,0-18.82,5.33-44.68-2.55c0,0-1.32-7.77,6.01-11.68
				s35.24-2.78,40.67-8.5c5.43-5.72,1.92-6.22,1.92-6.22"/>
			<path class="st36" d="M577.21,405.32c0,0-4.15,20.93-13.04,40.69c-10.58,23.5-17.63,34.08-18.8,63.46
				c-1.18,29.38-5.88,66.98,2.47,115.39c0,0-10.58,7.05-32.9,7.05c-22.33,0-21.15-8.23-21.15-8.23s-8.11-77.09-8.23-113.99
				c-0.12-37.83,2.23-53.1,12.4-104.12"/>
			<path d="M572.63,623.79l7.47,25.79c0,0-10.34,7.01-23.17,5.42c0,0-17.63,8.48-44.45,5.16c0,0-2.63-7.43,3.92-12.54
				c6.55-5.11,34.24-8.79,38.61-15.35c4.36-6.56,0.83-6.46,0.83-6.46"/>
			<path class="st3" d="M481.7,286.88l-23.47-13.67l2.02-2.24c0,0,1.18-3.97,10.13-0.07l-5.62,8.65"/>
			<path class="st9" d="M511.44,325.23c0,0-7.64,18.02-34.47,28.34c-15,5.77-31.97-16.9-32.48-38.42
				c-0.54-22.57,15.77-44.19,15.77-44.19c1.11,4.57,26.17,8.14,26.17,8.14s-14.88,24.61-12.98,29.99
				c4.75,13.48,23.07-26.2,23.07-26.2"/>
			<path class="st36" d="M580.42,397.91c0,0-0.5,21.33-5.87,42.33c-6.39,24.97-11.52,36.6-7.64,65.74
				c3.88,29.14,5.7,67,22.23,113.25c0,0-9.21,8.76-31.21,12.59c-22,3.83-22.25-4.48-22.25-4.48s-21.21-74.56-27.66-110.89
				c-6.61-37.24-6.91-52.7-5.64-104.7"/>
			<path class="st6" d="M511.87,272.11l-1.76,15.18c0,0,0.9,2.47,4.4,2.88c3.5,0.41,11.32-5.79,12.27-13.96l-5.09-13.34"/>
			<path class="st9" d="M524.85,272.43c0,0,9.88-3.59,16.88-2.78c7,0.81,12.01,1.8,12.01,1.8s28.29,38.36,31.1,75.36
				c2.81,37-2.91,65.91-2.91,65.91s-4.86,11.27-49.08,4.96c-44.22-6.31-42.38-12.01-42.38-12.01s12.27-13.96,16.54-40.67
				c4.28-26.71-10.64-81.68-10.64-81.68s7.66-5.95,15.01-7.59C511.39,275.74,510.88,290.93,524.85,272.43z"/>
			<path class="st3" d="M578.03,317.28c0,0-15.01-2.21-30.53,6.21l26.53-18.21L578.03,317.28z"/>
			<g>
				<path d="M511.9,275.72c0.32,0.89,0.59,1.75,0.96,2.52c0.35,0.76,0.78,1.48,1.23,1.79c0.22,0.16,0.4,0.21,0.57,0.2
					c0.18,0,0.39-0.02,0.67-0.13c0.55-0.2,1.21-0.59,1.84-1.05c1.29-0.95,2.57-2.11,3.9-3.25c1.34-1.14,2.69-2.34,4.28-3.38
					c-0.6,1.8-1.46,3.43-2.52,4.95c-1.07,1.51-2.3,2.93-3.91,4.11c-0.82,0.57-1.73,1.11-2.92,1.37c-0.58,0.13-1.29,0.16-1.98-0.06
					c-0.7-0.19-1.31-0.67-1.68-1.18c-0.75-1.04-0.89-2.1-0.92-3.07C511.43,277.56,511.56,276.62,511.9,275.72z"/>
			</g>
			<g>
				<g>
					<path class="st12" d="M502.09,273.71c0.92-1.67,2.19-5.12,0.88-9.99c-1.31-4.86-4.13-7.21-5.77-8.2l6.16-1.65
						c0.91,0.61,5.09,3.61,6.28,8.06c1.2,4.46-0.91,9.14-1.4,10.12L502.09,273.71z"/>
					<path d="M503.27,254.41c1.15,0.79,4.8,3.6,5.89,7.65c1.08,4.04-0.67,8.31-1.27,9.57l-4.88,1.31c0.83-1.96,1.57-5.16,0.45-9.35
						c-1.13-4.19-3.37-6.59-5.07-7.87L503.27,254.41 M503.45,253.33l-7.64,2.05c0,0,4.87,1.73,6.68,8.47
						c1.81,6.74-1.54,10.68-1.54,10.68l7.64-2.05c0,0,2.94-5.44,1.53-10.68S503.45,253.33,503.45,253.33L503.45,253.33z"/>
				</g>
				<g>
					<path class="st12" d="M500.84,274.06c-1.1-0.53-4.59-2.61-6.03-7.98c-1.44-5.37,0.54-8.92,1.22-9.93
						c1.1,0.53,4.59,2.61,6.03,7.98C503.51,269.51,501.53,273.05,500.84,274.06z"/>
					<path d="M496.2,256.8c1.3,0.72,4.11,2.76,5.37,7.47c1.27,4.71-0.14,7.89-0.91,9.15c-1.3-0.72-4.11-2.76-5.38-7.47
						C494.03,261.24,495.44,258.07,496.2,256.8 M495.86,255.53c0,0-3.35,3.94-1.53,10.68c1.81,6.74,6.68,8.47,6.68,8.47
						s3.35-3.94,1.53-10.68C500.73,257.27,495.86,255.53,495.86,255.53L495.86,255.53z"/>
				</g>
				<path class="st125" d="M420.67,293.12L499.29,272c0,0,1.44-2.85,0.23-7.35c-1.21-4.49-3.88-6.24-3.88-6.24l-78.62,21.12
					L420.67,293.12z"/>
				<path class="st125" d="M345.61,316.27L439.67,291c0,0,2.74-6.19,1.23-11.8c-1.51-5.62-6.38-7.35-6.38-7.35l-94.06,25.27
					L345.61,316.27z"/>
				<path class="st125" d="M350.57,317.92l-43.52,11.69c0,0,2.6-6.72,0.79-13.46s-7.43-11.25-7.43-11.25l43.52-11.69
					c0,0,4.81,1.52,7.43,11.25S350.57,317.92,350.57,317.92z"/>
				<g>
					<path class="st12" d="M304.05,331.5c-0.95-1.3-5.06-7.14-6.57-12.78c-1.45-5.38-0.98-12.47-0.86-14.04l3.36-1.16
						c1.07,0.38,7.7,3.08,10.05,11.83c2.37,8.82-2.08,14.48-2.78,15.29L304.05,331.5z"/>
					<path d="M299.98,304.05c1.4,0.52,7.35,3.18,9.56,11.43c2.24,8.33-1.66,13.63-2.57,14.72l-2.72,0.73
						c-1.21-1.69-4.89-7.11-6.29-12.34c-1.34-5-1.01-11.51-0.87-13.55L299.98,304.05 M299.98,302.99l-3.83,1.33
						c0,0-0.83,8.32,0.84,14.54c1.76,6.53,6.85,13.22,6.85,13.22l3.68-0.99c0,0,5.64-5.98,2.98-15.86
						C307.86,305.34,299.98,302.99,299.98,302.99L299.98,302.99z"/>
				</g>
				<g>
					<path class="st12" d="M303.27,331.61c-1.44-0.55-7.63-3.38-9.89-11.78c-2.26-8.42,1.69-13.95,2.66-15.15
						c1.44,0.55,7.64,3.38,9.89,11.78C308.18,324.86,304.24,330.41,303.27,331.61z"/>
					<path d="M296.19,305.28c1.82,0.75,7.17,3.57,9.25,11.31c2.08,7.74-1.14,12.86-2.33,14.42c-1.82-0.75-7.17-3.57-9.25-11.31
						C291.78,311.96,295,306.84,296.19,305.28 M295.88,304.1c0,0-5.64,5.98-2.98,15.86c2.66,9.89,10.53,12.23,10.53,12.23
						s5.64-5.98,2.98-15.86C303.75,306.44,295.88,304.1,295.88,304.1L295.88,304.1z"/>
				</g>
				<g>
					<path class="st126" d="M302.45,328.58c-1.21-0.58-5.32-2.98-7.02-9.3c-1.7-6.34,0.65-10.45,1.41-11.56
						c1.19,0.6,5.17,3.03,6.87,9.34C305.4,323.38,303.18,327.47,302.45,328.58z"/>
					<path d="M297.01,308.36c1.43,0.81,4.71,3.21,6.21,8.82c1.51,5.61-0.12,9.33-0.96,10.75c-1.47-0.79-4.84-3.16-6.35-8.78
						C294.4,313.53,296.14,309.78,297.01,308.36 M296.68,307.09c0,0-3.82,4.54-1.73,12.32c2.09,7.78,7.67,9.79,7.67,9.79
						s3.66-4.49,1.57-12.27C302.1,309.15,296.68,307.09,296.68,307.09L296.68,307.09z"/>
				</g>
			</g>
			<path class="st9" d="M486.11,278.74c0,0,9.07-14.8,8.31-15.96s-2.37-2.12-3-1.04c-0.63,1.07-5.2,8.26-5.2,8.26
				s-2.27,3.55-2.2,6.67"/>
			<path class="st9" d="M472.75,257.94l0.18,9.62c-0.04,0.91,0.58,1.71,1.47,1.9l0,0c1.11,0.24,2.17-0.56,2.25-1.69l1.18-11.75
				l-1.3,13.52c-0.07,0.92,0.55,1.75,1.45,1.94l0,0c1.09,0.24,2.14-0.55,2.22-1.66l1.68-14.17l-1.88,15.84
				c-0.05,0.91,0.57,1.73,1.46,1.92l0.06,0.01c1.08,0.23,2.12-0.52,2.24-1.62l2.46-14.93l-2.49,13.24
				c-0.17,1.43,0.83,2.73,2.25,2.92l0.39,0.05c1.02,0.14,1.96-0.57,2.1-1.59l2.1-13.4c0,0-1.93-5.95-4.34-1.23
				c0,0-2.33-5.17-4.34-1.23c-0.4,0.79-1.64-3.34-3.96-0.04C477.92,255.61,472.79,253.98,472.75,257.94"/>
			<path class="st9" d="M435.8,320.42l-35.08-18.55c-0.8-0.42-1.18-1.36-0.9-2.23l0,0c0.35-1.08,1.58-1.59,2.59-1.09l9.85,4.88
				l-15.75-7.69c-0.83-0.4-1.23-1.36-0.94-2.23v0c0.35-1.06,1.55-1.57,2.56-1.08l15.29,7.47l-17.66-9.08
				c-0.81-0.42-1.2-1.37-0.92-2.24l0.02-0.06c0.35-1.05,1.52-1.57,2.53-1.12l17.89,8.02l-16.46-7.13c-1.32-0.57-1.93-2.09-1.38-3.42
				l0.15-0.37c0.4-0.95,1.48-1.4,2.43-1l25.12,10.47l-12.28-6.66c-0.8-0.34-1.27-1.18-1.12-2.04l0.26-1.45
				c0.21-1.16,1.43-1.84,2.53-1.4l15.06,7.54c0,0,4.47,1.86,7.78,7.26c3.31,5.39,5.82,7.34,5.82,7.34"/>
			<path class="st9" d="M541.08,287.8c-10.3,7.25-23.97,14.62-39.08,17.43c-31.53,5.87-55.01-2.86-55.01-2.86s-7.52,0.26-13.13,7.8
				c-5.61,7.54,0.52,15.04,0.52,15.04c24.73,14.01,48.95,18.86,77.37,12.18c28.41-6.68,63.84-27.43,63.84-27.43
				s-1.25-12.67-4.22-20.52c-5.61-14.82-18.67-17.98-18.67-17.98"/>
		</g>
	</g>
	<line class="st37" x1="899.12" y1="402.5" x2="907.12" y2="391.5"/>
	<line class="st37" x1="861.12" y1="402.5" x2="869.12" y2="391.5"/>
	<line class="st37" x1="861.12" y1="216.5" x2="869.12" y2="205.5"/>
	<line class="st37" x1="400.12" y1="402.5" x2="408.12" y2="391.5"/>
	<line class="st37" x1="361.39" y1="402.69" x2="369.12" y2="391.5"/>
	<line class="st37" x1="361.12" y1="216.5" x2="369.12" y2="205.5"/>
</g>
<g>
	<path d="M350.52,583.79h11.2c7.17,0,12.95,2.56,12.95,10.48c0,7.66-5.85,11.05-12.75,11.05h-4.03v11.06h-7.37V583.79z
		 M361.48,599.47c4.05,0,5.97-1.81,5.97-5.2c0-3.41-2.18-4.63-6.17-4.63h-3.39v9.83H361.48z"/>
	<path d="M383.89,583.79h8.82l10.23,32.59h-7.8l-4.26-16.5c-0.91-3.26-1.78-7.11-2.65-10.51h-0.2c-0.79,3.44-1.66,7.25-2.56,10.51
		l-4.28,16.5h-7.53L383.89,583.79z M380.4,602.89h15.68v5.73H380.4V602.89z"/>
	<path d="M404.43,600.28c0-10.81,7.18-17.08,15.88-17.08c4.73,0,8.09,2.02,10.28,4.23l-3.88,4.73c-1.62-1.49-3.36-2.59-6.15-2.59
		c-5.02,0-8.58,3.94-8.58,10.47c0,6.7,3.03,10.59,9.17,10.59c1.31,0,2.66-0.34,3.45-0.97v-5.63h-5.4v-6.01h11.94v15.03
		c-2.25,2.2-6.21,3.95-10.75,3.95C411.42,616.98,404.43,611.25,404.43,600.28z"/>
	<path d="M437.87,583.79h20.42v6.18h-13.05v6.54h11.11v6.18h-11.11v7.51h13.55v6.18h-20.92V583.79z"/>
	<path d="M475.27,583.79h7.55l8.5,16.21l3.22,7.16h0.2c-0.35-3.45-0.94-8.01-0.94-11.85v-11.51h7.02v32.59h-7.55l-8.5-16.25
		l-3.22-7.12h-0.2c0.35,3.59,0.94,7.96,0.94,11.8v11.57h-7.02V583.79z"/>
	<path d="M506.98,599.95c0-10.65,6.01-16.75,14.8-16.75s14.8,6.15,14.8,16.75c0,10.65-6.01,17.04-14.8,17.04
		S506.98,610.59,506.98,599.95z M529.03,599.95c0-6.53-2.8-10.39-7.25-10.39s-7.25,3.86-7.25,10.39s2.8,10.67,7.25,10.67
		S529.03,606.48,529.03,599.95z"/>
	<path d="M547.6,589.97h-8.97v-6.18h25.31v6.18h-8.97v26.41h-7.37V589.97z"/>
	<path d="M579.02,583.79h20.57v6.18h-13.2v7.56h11.28v6.18h-11.28v12.68h-7.37V583.79z"/>
	<path d="M603.18,599.95c0-10.65,6.01-16.75,14.8-16.75s14.8,6.15,14.8,16.75c0,10.65-6.01,17.04-14.8,17.04
		S603.18,610.59,603.18,599.95z M625.23,599.95c0-6.53-2.8-10.39-7.25-10.39s-7.25,3.86-7.25,10.39s2.8,10.67,7.25,10.67
		S625.23,606.48,625.23,599.95z"/>
	<path d="M638.74,601.28v-17.49h7.37v18.24c0,6.38,2.01,8.59,5.66,8.59c3.67,0,5.78-2.21,5.78-8.59v-18.24h7.1v17.49
		c0,10.94-4.45,15.7-12.88,15.7S638.74,612.22,638.74,601.28z"/>
	<path d="M672.17,583.79h7.55l8.5,16.21l3.22,7.16h0.2c-0.35-3.45-0.94-8.01-0.94-11.85v-11.51h7.02v32.59h-7.55l-8.5-16.25
		l-3.22-7.12h-0.2c0.35,3.59,0.94,7.96,0.94,11.8v11.57h-7.02V583.79z"/>
	<path d="M705.42,583.79h9.21c9.95,0,16.37,4.95,16.37,16.15c0,11.2-6.41,16.44-15.96,16.44h-9.63V583.79z M714.19,610.45
		c5.53,0,9.26-2.71,9.26-10.5c0-7.79-3.74-10.22-9.26-10.22h-1.4v20.73H714.19z"/>
</g>
</svg>
