<?xml version="1.0" encoding="utf-8"?>
<!-- Generator: Adobe Illustrator 24.0.1, SVG Export Plug-In . SVG Version: 6.00 Build 0)  -->
<svg version="1.1" xmlns="http://www.w3.org/2000/svg" xmlns:xlink="http://www.w3.org/1999/xlink" x="0px" y="0px"
	 viewBox="0 0 300 205" style="enable-background:new 0 0 300 205;" xml:space="preserve">
<style type="text/css">
	.st0{fill:#F4F4F4;}
	.st1{fill:#F7F7F7;stroke:#E2E2E2;stroke-miterlimit:10;}
	.st2{fill:#5E5E5E;}
	.st3{fill:#FFFFFF;stroke:#E2E2E2;stroke-miterlimit:10;}
	.st4{fill:none;stroke:#000000;stroke-miterlimit:10;}
	.st5{clip-path:url(#SVGID_2_);}
	.st6{fill:#F2F2F2;}
	.st7{fill:#BB0000;}
	.st8{fill:#E9730D;}
	.st9{fill:#E5DA10;}
	.st10{fill:#45A53A;}
	.st11{fill:#107E3E;}
	.st12{fill:#FFFFFF;}
	.st13{fill:#E2E2E2;}
	.st14{fill:none;stroke:#E2E2E2;stroke-width:24;stroke-linecap:round;stroke-linejoin:round;}
	.st15{fill:none;stroke:#E2E2E2;stroke-width:24;stroke-linecap:round;stroke-linejoin:round;stroke-dasharray:82.6361,40.0402;}
	.st16{fill:none;stroke:#E2E2E2;stroke-miterlimit:10;}
	.st17{fill:#E2E2E2;stroke:#FFFFFF;stroke-miterlimit:10;}
	.st18{fill:#107E3E;stroke:#FFFFFF;stroke-width:7;stroke-miterlimit:10;}
	.st19{fill:#E9730D;stroke:#FFFFFF;stroke-width:7;stroke-miterlimit:10;}
	.st20{fill:#E5DA10;stroke:#FFFFFF;stroke-width:7;stroke-miterlimit:10;}
	.st21{fill:#BB0000;stroke:#FFFFFF;stroke-width:7;stroke-miterlimit:10;}
	.st22{fill:#45A53A;stroke:#D3D3D3;stroke-width:7;stroke-miterlimit:10;}
	.st23{fill:#104DF9;stroke:#104DF9;stroke-miterlimit:10;}
	.st24{fill:#104DF9;}
	.st25{fill:#FFFFFF;stroke:#104DF9;stroke-width:0.5;stroke-miterlimit:10;}
	.st26{fill:#107E3E;stroke:#D3D3D3;stroke-width:7;stroke-miterlimit:10;}
	.st27{fill:#E5DA10;stroke:#D3D3D3;stroke-width:7;stroke-miterlimit:10;}
	.st28{fill:#BB0000;stroke:#D3D3D3;stroke-width:7;stroke-miterlimit:10;}
	.st29{fill:#E9730D;stroke:#D3D3D3;stroke-width:7;stroke-miterlimit:10;}
</style>
<g id="bg">
</g>
<g id="menu">
</g>
<g id="cards">
	<g>
		<g>
			<path class="st8" d="M70.97,31.67c-30.3,19.79-52.62,50.75-61.11,87.1c-1.2,5.14,1.99,10.27,7.13,11.47
				c5.14,1.2,10.27-1.99,11.47-7.13c7.34-31.43,26.69-58.3,52.96-75.45c4.42-2.88,5.66-8.8,2.77-13.22
				C81.3,30.03,75.39,28.79,70.97,31.67L70.97,31.67z"/>
			<g>
				<path class="st11" d="M288.39,151.4L288.39,151.4c0-1.54-0.02-3.07-0.07-4.59c-0.06-1.65-0.75-3.09-1.84-4.15
					c-1.1-1.06-2.57-1.7-4.2-1.7l-0.19,0l-0.01,0c-1.65,0.06-3.09,0.75-4.15,1.84c-1.06,1.1-1.7,2.57-1.7,4.2l0,0.17v0l0,0.03
					c0.05,1.39,0.07,2.79,0.07,4.19c0,14.57-2.45,28.55-6.95,41.58c-0.23,0.66-0.33,1.32-0.33,1.98c0,1.25,0.39,2.47,1.1,3.48
					c0.71,1.01,1.71,1.8,2.97,2.24c0.66,0.23,1.32,0.33,1.98,0.33c1.25,0,2.47-0.39,3.48-1.1c1.01-0.71,1.8-1.71,2.24-2.97l0,0
					C285.71,182.65,288.39,167.33,288.39,151.4L288.39,151.4z"/>
				<path class="st9" d="M101.67,33.19c14.63-5.86,30.59-9.09,47.34-9.09c16.79,0,32.79,3.24,47.44,9.13
					c0.75,0.3,1.5,0.44,2.25,0.44c1.19,0,2.37-0.36,3.35-1.01c0.99-0.66,1.78-1.59,2.26-2.78c0.3-0.75,0.44-1.5,0.44-2.25
					c0-1.19-0.36-2.37-1.01-3.35c-0.66-0.99-1.59-1.78-2.78-2.26v0c-16.05-6.45-33.58-10-51.92-10.01l0,0l-0.05,0
					c-18.3,0-35.8,3.54-51.82,9.96c-1.19,0.48-2.13,1.27-2.78,2.26c-0.66,0.99-1.02,2.16-1.02,3.36c0,0.75,0.14,1.5,0.44,2.25
					l-0.1-0.25l0.1,0.25c0.48,1.19,1.27,2.13,2.26,2.78c0.99,0.66,2.16,1.02,3.36,1.02C100.16,33.63,100.92,33.49,101.67,33.19z"/>
				<path class="st10" d="M218.6,44.79c26.99,17.66,46.87,45.29,54.39,77.63c0.33,1.41,1.1,2.56,2.15,3.38
					c1.05,0.82,2.36,1.29,3.73,1.29c0.45,0,0.91-0.05,1.38-0.16c1.41-0.33,2.56-1.1,3.38-2.15c0.82-1.05,1.29-2.36,1.29-3.73
					c0-0.45-0.05-0.91-0.16-1.38c-8.25-35.45-30.01-65.68-59.55-85.01c-1.03-0.67-2.16-0.99-3.3-0.99c-0.99,0-1.97,0.24-2.84,0.71
					c-0.87,0.46-1.64,1.14-2.23,2.03c-0.67,1.03-0.99,2.16-0.99,3.3c0,0.99,0.24,1.97,0.71,2.84
					C217.03,43.43,217.7,44.2,218.6,44.79z"/>
				<path class="st7" d="M19.47,199.9c1.01,0.71,2.23,1.1,3.48,1.1c0.65,0,1.31-0.11,1.98-0.33c1.26-0.44,2.26-1.23,2.97-2.24
					c0.71-1.01,1.1-2.23,1.1-3.48c0-0.65-0.11-1.31-0.33-1.98c-4.5-13.03-6.95-27.01-6.95-41.58c0-1.4,0.02-2.8,0.07-4.18l0,0.01
					l0-0.21c0-1.63-0.64-3.1-1.7-4.2c-1.06-1.1-2.51-1.79-4.15-1.84l-0.2,0c-1.63,0-3.1,0.64-4.2,1.7c-1.1,1.06-1.79,2.51-1.84,4.15
					l0,0c-0.05,1.52-0.07,3.05-0.07,4.58v0.05c0.01,15.91,2.69,31.22,7.62,45.48C17.67,198.19,18.46,199.19,19.47,199.9z"/>
			</g>
		</g>
		<circle class="st29" cx="39.41" cy="72.89" r="13.59"/>
	</g>
	<g>
		<path d="M82.94,89.09h-4.8v13.32h-1.96V89.09H71.4v-1.61h11.55V89.09z"/>
		<path d="M86.76,92.66c0.84-1.03,1.93-1.55,3.28-1.55c2.34,0,3.53,1.32,3.55,3.97v7.33h-1.9v-7.34c-0.01-0.8-0.19-1.39-0.55-1.77
			c-0.36-0.38-0.92-0.57-1.68-0.57c-0.62,0-1.16,0.16-1.62,0.49c-0.47,0.33-0.83,0.76-1.09,1.29v7.91h-1.9V86.66h1.9V92.66z"/>
		<path d="M96.44,88.38c0-0.31,0.09-0.57,0.28-0.78c0.19-0.21,0.47-0.32,0.84-0.32s0.65,0.11,0.84,0.32s0.29,0.47,0.29,0.78
			s-0.1,0.56-0.29,0.77s-0.47,0.31-0.84,0.31s-0.65-0.1-0.84-0.31C96.53,88.94,96.44,88.68,96.44,88.38z M98.49,102.41h-1.9V91.32
			h1.9V102.41z"/>
		<path d="M107.98,99.47c0-0.51-0.19-0.91-0.58-1.19c-0.39-0.28-1.06-0.53-2.02-0.73c-0.96-0.21-1.72-0.45-2.29-0.74
			c-0.56-0.29-0.98-0.63-1.25-1.03c-0.27-0.4-0.41-0.87-0.41-1.42c0-0.91,0.38-1.68,1.15-2.31c0.77-0.63,1.75-0.94,2.95-0.94
			c1.26,0,2.28,0.32,3.06,0.97c0.78,0.65,1.17,1.48,1.17,2.49h-1.91c0-0.52-0.22-0.97-0.66-1.34c-0.44-0.38-1-0.56-1.67-0.56
			c-0.69,0-1.23,0.15-1.62,0.45s-0.58,0.69-0.58,1.18c0,0.46,0.18,0.8,0.54,1.04s1.02,0.45,1.96,0.67c0.95,0.21,1.71,0.46,2.3,0.76
			s1.02,0.65,1.31,1.06c0.28,0.41,0.43,0.92,0.43,1.51c0,0.99-0.4,1.79-1.19,2.38c-0.79,0.6-1.82,0.9-3.09,0.9
			c-0.89,0-1.67-0.16-2.36-0.47s-1.22-0.75-1.6-1.32c-0.39-0.56-0.58-1.17-0.58-1.83h1.9c0.03,0.64,0.29,1.14,0.76,1.51
			c0.48,0.37,1.1,0.56,1.88,0.56c0.72,0,1.29-0.14,1.73-0.44C107.77,100.34,107.98,99.96,107.98,99.47z"/>
		<path d="M124.01,99.47c0-0.51-0.19-0.91-0.58-1.19c-0.39-0.28-1.06-0.53-2.02-0.73c-0.96-0.21-1.72-0.45-2.29-0.74
			c-0.56-0.29-0.98-0.63-1.25-1.03c-0.27-0.4-0.41-0.87-0.41-1.42c0-0.91,0.38-1.68,1.15-2.31c0.77-0.63,1.75-0.94,2.95-0.94
			c1.26,0,2.28,0.32,3.06,0.97c0.78,0.65,1.17,1.48,1.17,2.49h-1.91c0-0.52-0.22-0.97-0.66-1.34c-0.44-0.38-1-0.56-1.67-0.56
			c-0.69,0-1.23,0.15-1.62,0.45s-0.58,0.69-0.58,1.18c0,0.46,0.18,0.8,0.54,1.04s1.02,0.45,1.96,0.67c0.95,0.21,1.71,0.46,2.3,0.76
			s1.02,0.65,1.31,1.06c0.28,0.41,0.43,0.92,0.43,1.51c0,0.99-0.4,1.79-1.19,2.38c-0.79,0.6-1.82,0.9-3.09,0.9
			c-0.89,0-1.67-0.16-2.36-0.47s-1.22-0.75-1.6-1.32c-0.39-0.56-0.58-1.17-0.58-1.83h1.9c0.03,0.64,0.29,1.14,0.76,1.51
			c0.48,0.37,1.1,0.56,1.88,0.56c0.72,0,1.29-0.14,1.73-0.44C123.79,100.34,124.01,99.96,124.01,99.47z"/>
		<path d="M132.01,99.63l2.58-8.32h2.03l-4.46,12.81c-0.69,1.85-1.79,2.77-3.29,2.77l-0.36-0.03l-0.71-0.13v-1.54l0.51,0.04
			c0.64,0,1.14-0.13,1.5-0.39c0.36-0.26,0.65-0.73,0.89-1.42l0.42-1.13l-3.96-10.97h2.07L132.01,99.63z"/>
		<path d="M144.77,99.47c0-0.51-0.19-0.91-0.58-1.19c-0.39-0.28-1.06-0.53-2.02-0.73c-0.96-0.21-1.72-0.45-2.29-0.74
			c-0.56-0.29-0.98-0.63-1.25-1.03c-0.27-0.4-0.41-0.87-0.41-1.42c0-0.91,0.38-1.68,1.15-2.31c0.77-0.63,1.75-0.94,2.95-0.94
			c1.26,0,2.28,0.32,3.06,0.97c0.78,0.65,1.17,1.48,1.17,2.49h-1.91c0-0.52-0.22-0.97-0.66-1.34c-0.44-0.38-1-0.56-1.67-0.56
			c-0.69,0-1.23,0.15-1.62,0.45s-0.58,0.69-0.58,1.18c0,0.46,0.18,0.8,0.54,1.04s1.02,0.45,1.96,0.67c0.95,0.21,1.71,0.46,2.3,0.76
			s1.02,0.65,1.31,1.06c0.28,0.41,0.43,0.92,0.43,1.51c0,0.99-0.4,1.79-1.19,2.38c-0.79,0.6-1.82,0.9-3.09,0.9
			c-0.89,0-1.67-0.16-2.36-0.47s-1.22-0.75-1.6-1.32c-0.39-0.56-0.58-1.17-0.58-1.83h1.9c0.03,0.64,0.29,1.14,0.76,1.51
			c0.48,0.37,1.1,0.56,1.88,0.56c0.72,0,1.29-0.14,1.73-0.44C144.56,100.34,144.77,99.96,144.77,99.47z"/>
		<path d="M151.72,88.63v2.69h2.07v1.47h-2.07v6.89c0,0.44,0.09,0.78,0.28,1c0.18,0.22,0.5,0.33,0.94,0.33
			c0.22,0,0.52-0.04,0.9-0.12v1.53c-0.5,0.14-0.98,0.2-1.46,0.2c-0.85,0-1.49-0.26-1.92-0.77c-0.43-0.51-0.65-1.24-0.65-2.18v-6.88
			h-2.02v-1.47h2.02v-2.69H151.72z"/>
		<path d="M160.61,102.62c-1.5,0-2.73-0.49-3.67-1.48c-0.94-0.99-1.42-2.31-1.42-3.96v-0.35c0-1.1,0.21-2.08,0.63-2.95
			c0.42-0.87,1.01-1.54,1.76-2.03c0.76-0.49,1.57-0.73,2.46-0.73c1.44,0,2.56,0.47,3.36,1.42s1.2,2.31,1.2,4.08v0.79h-7.52
			c0.03,1.09,0.35,1.98,0.96,2.65c0.61,0.67,1.39,1.01,2.33,1.01c0.67,0,1.24-0.14,1.7-0.41s0.87-0.64,1.22-1.09l1.16,0.9
			C163.86,101.9,162.47,102.62,160.61,102.62z M160.37,92.67c-0.77,0-1.41,0.28-1.93,0.84c-0.52,0.56-0.84,1.34-0.96,2.34h5.56
			v-0.14c-0.05-0.96-0.31-1.71-0.78-2.24C161.79,92.94,161.16,92.67,160.37,92.67z"/>
		<path d="M168.91,91.32l0.05,1.23c0.81-0.96,1.91-1.44,3.29-1.44c1.55,0,2.61,0.59,3.17,1.78c0.37-0.53,0.85-0.96,1.44-1.29
			c0.59-0.33,1.29-0.49,2.1-0.49c2.43,0,3.67,1.29,3.71,3.87v7.43h-1.9v-7.32c0-0.79-0.18-1.39-0.54-1.78
			c-0.36-0.39-0.97-0.59-1.83-0.59c-0.7,0-1.29,0.21-1.75,0.63c-0.46,0.42-0.73,0.99-0.81,1.7v7.36h-1.91v-7.27
			c0-1.61-0.79-2.42-2.37-2.42c-1.24,0-2.09,0.53-2.55,1.59v8.1h-1.9V91.32H168.91z"/>
		<path d="M190.74,88.38c0-0.31,0.09-0.57,0.28-0.78c0.19-0.21,0.47-0.32,0.84-0.32s0.65,0.11,0.84,0.32s0.29,0.47,0.29,0.78
			s-0.1,0.56-0.29,0.77s-0.47,0.31-0.84,0.31s-0.65-0.1-0.84-0.31C190.84,88.94,190.74,88.68,190.74,88.38z M192.79,102.41h-1.9
			V91.32h1.9V102.41z"/>
		<path d="M202.29,99.47c0-0.51-0.19-0.91-0.58-1.19c-0.39-0.28-1.06-0.53-2.02-0.73c-0.96-0.21-1.72-0.45-2.29-0.74
			c-0.56-0.29-0.98-0.63-1.25-1.03c-0.27-0.4-0.41-0.87-0.41-1.42c0-0.91,0.38-1.68,1.15-2.31c0.77-0.63,1.75-0.94,2.95-0.94
			c1.26,0,2.28,0.32,3.06,0.97c0.78,0.65,1.17,1.48,1.17,2.49h-1.91c0-0.52-0.22-0.97-0.66-1.34c-0.44-0.38-1-0.56-1.67-0.56
			c-0.69,0-1.23,0.15-1.62,0.45s-0.58,0.69-0.58,1.18c0,0.46,0.18,0.8,0.54,1.04s1.02,0.45,1.96,0.67c0.95,0.21,1.71,0.46,2.3,0.76
			s1.02,0.65,1.31,1.06c0.28,0.41,0.43,0.92,0.43,1.51c0,0.99-0.4,1.79-1.19,2.38c-0.79,0.6-1.82,0.9-3.09,0.9
			c-0.89,0-1.67-0.16-2.36-0.47s-1.22-0.75-1.6-1.32c-0.39-0.56-0.58-1.17-0.58-1.83h1.9c0.03,0.64,0.29,1.14,0.76,1.51
			c0.48,0.37,1.1,0.56,1.88,0.56c0.72,0,1.29-0.14,1.73-0.44C202.07,100.34,202.29,99.96,202.29,99.47z"/>
		<path d="M211.87,88.38c0-0.31,0.09-0.57,0.28-0.78c0.19-0.21,0.47-0.32,0.84-0.32s0.65,0.11,0.84,0.32s0.29,0.47,0.29,0.78
			s-0.1,0.56-0.29,0.77s-0.47,0.31-0.84,0.31s-0.65-0.1-0.84-0.31C211.96,88.94,211.87,88.68,211.87,88.38z M213.92,102.41h-1.9
			V91.32h1.9V102.41z"/>
		<path d="M218.75,91.32l0.06,1.39c0.85-1.07,1.96-1.6,3.32-1.6c2.34,0,3.53,1.32,3.55,3.97v7.33h-1.9v-7.34
			c-0.01-0.8-0.19-1.39-0.55-1.77c-0.36-0.38-0.92-0.57-1.68-0.57c-0.62,0-1.16,0.16-1.62,0.49c-0.47,0.33-0.83,0.76-1.09,1.29v7.91
			h-1.9V91.32H218.75z"/>
	</g>
	<g>
		<path d="M128.53,162.47c0-0.51-0.19-0.91-0.58-1.19c-0.39-0.28-1.06-0.53-2.02-0.73c-0.96-0.21-1.72-0.45-2.29-0.74
			c-0.56-0.29-0.98-0.63-1.25-1.03c-0.27-0.4-0.41-0.87-0.41-1.42c0-0.91,0.38-1.68,1.15-2.31c0.77-0.63,1.75-0.94,2.95-0.94
			c1.26,0,2.28,0.32,3.06,0.97c0.78,0.65,1.17,1.48,1.17,2.49h-1.91c0-0.52-0.22-0.97-0.66-1.34c-0.44-0.38-1-0.56-1.67-0.56
			c-0.69,0-1.23,0.15-1.62,0.45s-0.58,0.69-0.58,1.18c0,0.46,0.18,0.8,0.54,1.04s1.02,0.45,1.96,0.67c0.95,0.21,1.71,0.46,2.3,0.76
			s1.02,0.65,1.31,1.06c0.28,0.41,0.43,0.92,0.43,1.51c0,0.99-0.4,1.79-1.19,2.38c-0.79,0.6-1.82,0.9-3.09,0.9
			c-0.89,0-1.67-0.16-2.36-0.47s-1.22-0.75-1.6-1.32c-0.39-0.56-0.58-1.17-0.58-1.83h1.9c0.03,0.64,0.29,1.14,0.76,1.51
			c0.48,0.37,1.1,0.56,1.88,0.56c0.72,0,1.29-0.14,1.73-0.44C128.32,163.34,128.53,162.96,128.53,162.47z"/>
		<path d="M134.8,155.66c0.84-1.03,1.93-1.55,3.28-1.55c2.34,0,3.53,1.32,3.55,3.97v7.33h-1.9v-7.34c-0.01-0.8-0.19-1.39-0.55-1.77
			c-0.36-0.38-0.92-0.57-1.68-0.57c-0.62,0-1.16,0.16-1.62,0.49c-0.47,0.33-0.83,0.76-1.09,1.29v7.91h-1.9v-15.75h1.9V155.66z"/>
		<path d="M151.32,165.41c-0.11-0.22-0.2-0.61-0.27-1.17c-0.88,0.92-1.93,1.37-3.16,1.37c-1.09,0-1.99-0.31-2.69-0.93
			c-0.7-0.62-1.05-1.4-1.05-2.35c0-1.16,0.44-2.05,1.32-2.69c0.88-0.64,2.11-0.96,3.71-0.96h1.85v-0.87c0-0.66-0.2-1.19-0.6-1.58
			c-0.4-0.39-0.98-0.59-1.75-0.59c-0.68,0-1.24,0.17-1.7,0.51s-0.69,0.76-0.69,1.24h-1.91c0-0.55,0.2-1.09,0.59-1.6
			c0.39-0.52,0.93-0.92,1.6-1.23c0.67-0.3,1.41-0.45,2.22-0.45c1.28,0,2.28,0.32,3,0.96c0.72,0.64,1.1,1.52,1.13,2.64v5.11
			c0,1.02,0.13,1.83,0.39,2.43v0.16H151.32z M148.17,163.97c0.6,0,1.16-0.15,1.69-0.46s0.92-0.71,1.16-1.2v-2.28h-1.49
			c-2.32,0-3.49,0.68-3.49,2.04c0,0.59,0.2,1.06,0.59,1.39S147.55,163.97,148.17,163.97z"/>
		<path d="M165.26,159.99c0,1.69-0.39,3.05-1.16,4.08s-1.82,1.55-3.14,1.55c-1.35,0-2.41-0.43-3.18-1.28v5.34h-1.9v-15.36h1.73
			l0.09,1.23c0.77-0.96,1.85-1.44,3.22-1.44c1.33,0,2.39,0.5,3.16,1.51c0.78,1,1.16,2.4,1.16,4.19V159.99z M163.36,159.77
			c0-1.25-0.27-2.24-0.8-2.96s-1.27-1.09-2.2-1.09c-1.15,0-2.01,0.51-2.58,1.53v5.3c0.57,1.01,1.44,1.52,2.61,1.52
			c0.91,0,1.63-0.36,2.17-1.08C163.1,162.27,163.36,161.2,163.36,159.77z"/>
		<path d="M172.28,165.62c-1.5,0-2.73-0.49-3.67-1.48c-0.94-0.99-1.42-2.31-1.42-3.96v-0.35c0-1.1,0.21-2.08,0.63-2.95
			c0.42-0.87,1.01-1.54,1.76-2.03c0.76-0.49,1.57-0.73,2.46-0.73c1.44,0,2.56,0.47,3.36,1.42s1.2,2.31,1.2,4.08v0.79h-7.52
			c0.03,1.09,0.35,1.98,0.96,2.65c0.61,0.67,1.39,1.01,2.33,1.01c0.67,0,1.24-0.14,1.7-0.41s0.87-0.64,1.22-1.09l1.16,0.9
			C175.53,164.9,174.14,165.62,172.28,165.62z M172.04,155.67c-0.77,0-1.41,0.28-1.93,0.84c-0.52,0.56-0.84,1.34-0.96,2.34h5.56
			v-0.14c-0.05-0.96-0.31-1.71-0.78-2.24C173.46,155.94,172.83,155.67,172.04,155.67z"/>
	</g>
	<g>
		<g>
			<g>
				<path class="st8" d="M106.76,130.57h-5.23v10.39h-4.69v-27.02h9.5c3.12,0,5.52,0.7,7.22,2.1c1.69,1.4,2.54,3.42,2.54,6.07
					c0,1.81-0.44,3.32-1.31,4.54c-0.87,1.22-2.09,2.16-3.65,2.81l6.07,11.25v0.24h-5.03L106.76,130.57z M101.53,126.79h4.82
					c1.58,0,2.82-0.4,3.71-1.2c0.89-0.8,1.34-1.89,1.34-3.27c0-1.45-0.41-2.57-1.23-3.36c-0.82-0.79-2.05-1.2-3.68-1.22h-4.95
					V126.79z"/>
				<path class="st8" d="M126.84,140.96h-4.68v-27.02h4.68V140.96z"/>
				<path class="st8" d="M148.06,134.01c0-1.19-0.42-2.1-1.25-2.75c-0.83-0.64-2.34-1.29-4.52-1.95c-2.18-0.66-3.91-1.38-5.2-2.19
					c-2.46-1.55-3.69-3.56-3.69-6.05c0-2.18,0.89-3.97,2.66-5.38c1.77-1.41,4.08-2.12,6.91-2.12c1.88,0,3.56,0.35,5.03,1.04
					c1.47,0.69,2.63,1.68,3.47,2.96c0.84,1.28,1.26,2.7,1.26,4.26h-4.68c0-1.41-0.44-2.51-1.33-3.31c-0.88-0.8-2.15-1.2-3.79-1.2
					c-1.53,0-2.72,0.33-3.57,0.98c-0.85,0.66-1.27,1.57-1.27,2.75c0,0.99,0.46,1.82,1.37,2.48c0.92,0.66,2.42,1.3,4.53,1.93
					c2.1,0.63,3.79,1.34,5.07,2.13c1.27,0.8,2.21,1.71,2.8,2.75c0.59,1.03,0.89,2.24,0.89,3.63c0,2.25-0.86,4.04-2.59,5.37
					c-1.73,1.33-4.07,1.99-7.02,1.99c-1.96,0-3.75-0.36-5.39-1.09c-1.64-0.72-2.91-1.72-3.82-3c-0.91-1.27-1.36-2.76-1.36-4.45h4.69
					c0,1.53,0.51,2.72,1.52,3.56c1.01,0.84,2.47,1.26,4.36,1.26c1.63,0,2.86-0.33,3.68-0.99
					C147.65,135.97,148.06,135.09,148.06,134.01z"/>
				<path class="st8" d="M165.97,129.29l-3.06,3.25v8.42h-4.69v-27.02h4.69v12.67l2.6-3.21l7.9-9.46h5.68l-10.04,11.97l10.61,15.05
					h-5.57L165.97,129.29z"/>
				<path class="st8" d="M192.32,126.75l6.22-12.8h5.2l-9.05,17.07v9.95h-4.71v-9.95l-9.07-17.07h5.21L192.32,126.75z"/>
			</g>
		</g>
	</g>
</g>
</svg>
